<?xml version="1.0" encoding="UTF-8" standalone="no"?>
<!DOCTYPE svg PUBLIC "-//W3C//DTD SVG 1.1//EN"
 "http://www.w3.org/Graphics/SVG/1.1/DTD/svg11.dtd">
<!-- Generated by graphviz version 2.43.0 (0)
 -->
<!-- Title: System/include/BipedalLocomotion/System/Advanceable.h Pages: 1 -->
<svg width="2492pt" height="273pt"
 viewBox="0.00 0.00 2491.50 273.00" xmlns="http://www.w3.org/2000/svg" xmlns:xlink="http://www.w3.org/1999/xlink">
<g id="graph0" class="graph" transform="scale(1 1) rotate(0) translate(4 269)">
<title>System/include/BipedalLocomotion/System/Advanceable.h</title>
<!-- Node1 -->
<g id="node1" class="node">
<title>Node1</title>
<g id="a_node1"><a xlink:title=" ">
<polygon fill="#bfbfbf" stroke="black" points="1269.5,-234.5 1269.5,-264.5 1439.5,-264.5 1439.5,-234.5 1269.5,-234.5"/>
<text text-anchor="start" x="1277.5" y="-252.5" font-family="Helvetica,sans-Serif" font-size="10.00">System/include/BipedalLocomotion</text>
<text text-anchor="middle" x="1354.5" y="-241.5" font-family="Helvetica,sans-Serif" font-size="10.00">/System/Advanceable.h</text>
</a>
</g>
</g>
<!-- Node2 -->
<g id="node2" class="node">
<title>Node2</title>
<g id="a_node2"><a xlink:href="ContactDetector_8h.html" target="_top" xlink:title=" ">
<polygon fill="none" stroke="black" points="175,-156.5 175,-197.5 322,-197.5 322,-156.5 175,-156.5"/>
<text text-anchor="start" x="183" y="-185.5" font-family="Helvetica,sans-Serif" font-size="10.00">Contacts/include/Bipedal</text>
<text text-anchor="start" x="183" y="-174.5" font-family="Helvetica,sans-Serif" font-size="10.00">Locomotion/ContactDetectors</text>
<text text-anchor="middle" x="248.5" y="-163.5" font-family="Helvetica,sans-Serif" font-size="10.00">/ContactDetector.h</text>
</a>
</g>
</g>
<!-- Node1&#45;&gt;Node2 -->
<g id="edge1" class="edge">
<title>Node1&#45;&gt;Node2</title>
<path fill="none" stroke="midnightblue" d="M1259.08,-245.43C1089.22,-239.51 723.32,-224.68 415.5,-198 384.95,-195.35 351.37,-191.51 322.38,-187.9"/>
<polygon fill="midnightblue" stroke="midnightblue" points="1259.12,-248.94 1269.24,-245.78 1259.37,-241.94 1259.12,-248.94"/>
</g>
<!-- Node6 -->
<g id="node6" class="node">
<title>Node6</title>
<g id="a_node6"><a xlink:href="RecursiveLeastSquare_8h.html" target="_top" xlink:title=" ">
<polygon fill="none" stroke="black" points="424.5,-156.5 424.5,-197.5 576.5,-197.5 576.5,-156.5 424.5,-156.5"/>
<text text-anchor="start" x="432.5" y="-185.5" font-family="Helvetica,sans-Serif" font-size="10.00">Estimators/include</text>
<text text-anchor="start" x="432.5" y="-174.5" font-family="Helvetica,sans-Serif" font-size="10.00">/BipedalLocomotion/Estimators</text>
<text text-anchor="middle" x="500.5" y="-163.5" font-family="Helvetica,sans-Serif" font-size="10.00">/RecursiveLeastSquare.h</text>
</a>
</g>
</g>
<!-- Node1&#45;&gt;Node6 -->
<g id="edge5" class="edge">
<title>Node1&#45;&gt;Node6</title>
<path fill="none" stroke="midnightblue" d="M1259.5,-240.66C1088.58,-226.55 732.53,-197.15 576.51,-184.27"/>
<polygon fill="midnightblue" stroke="midnightblue" points="1259.24,-244.15 1269.49,-241.48 1259.81,-237.17 1259.24,-244.15"/>
</g>
<!-- Node8 -->
<g id="node8" class="node">
<title>Node8</title>
<g id="a_node8"><a xlink:href="FloatingBaseEstimator_8h.html" target="_top" xlink:title=" ">
<polygon fill="none" stroke="black" points="760.5,-156.5 760.5,-197.5 956.5,-197.5 956.5,-156.5 760.5,-156.5"/>
<text text-anchor="start" x="768.5" y="-185.5" font-family="Helvetica,sans-Serif" font-size="10.00">Estimators/include</text>
<text text-anchor="start" x="768.5" y="-174.5" font-family="Helvetica,sans-Serif" font-size="10.00">/BipedalLocomotion/Floating</text>
<text text-anchor="middle" x="858.5" y="-163.5" font-family="Helvetica,sans-Serif" font-size="10.00">BaseEstimators/FloatingBaseEstimator.h</text>
</a>
</g>
</g>
<!-- Node1&#45;&gt;Node8 -->
<g id="edge7" class="edge">
<title>Node1&#45;&gt;Node8</title>
<path fill="none" stroke="midnightblue" d="M1259.11,-234.94C1172.22,-222.59 1044.44,-204.43 956.68,-191.96"/>
<polygon fill="midnightblue" stroke="midnightblue" points="1258.84,-238.44 1269.23,-236.38 1259.83,-231.51 1258.84,-238.44"/>
</g>
<!-- Node14 -->
<g id="node14" class="node">
<title>Node14</title>
<g id="a_node14"><a xlink:href="IntegrationBasedIK_8h.html" target="_top" xlink:title=" ">
<polygon fill="none" stroke="black" points="1192.5,-162 1192.5,-192 1338.5,-192 1338.5,-162 1192.5,-162"/>
<text text-anchor="start" x="1200.5" y="-180" font-family="Helvetica,sans-Serif" font-size="10.00">IK/include/BipedalLocomotion</text>
<text text-anchor="middle" x="1265.5" y="-169" font-family="Helvetica,sans-Serif" font-size="10.00">/IK/IntegrationBasedIK.h</text>
</a>
</g>
</g>
<!-- Node1&#45;&gt;Node14 -->
<g id="edge13" class="edge">
<title>Node1&#45;&gt;Node14</title>
<path fill="none" stroke="midnightblue" d="M1328.35,-227.79C1313.81,-216.27 1296.09,-202.23 1283.18,-192"/>
<polygon fill="midnightblue" stroke="midnightblue" points="1326.48,-230.77 1336.49,-234.23 1330.82,-225.28 1326.48,-230.77"/>
</g>
<!-- Node15 -->
<g id="node15" class="node">
<title>Node15</title>
<g id="a_node15"><a xlink:href="QPInverseKinematics_8h.html" target="_top" xlink:title=" ">
<polygon fill="none" stroke="black" points="1029.5,-78.5 1029.5,-108.5 1175.5,-108.5 1175.5,-78.5 1029.5,-78.5"/>
<text text-anchor="start" x="1037.5" y="-96.5" font-family="Helvetica,sans-Serif" font-size="10.00">IK/include/BipedalLocomotion</text>
<text text-anchor="middle" x="1102.5" y="-85.5" font-family="Helvetica,sans-Serif" font-size="10.00">/IK/QPInverseKinematics.h</text>
</a>
</g>
</g>
<!-- Node1&#45;&gt;Node15 -->
<g id="edge17" class="edge">
<title>Node1&#45;&gt;Node15</title>
<path fill="none" stroke="midnightblue" d="M1259.93,-231.75C1233.69,-224.23 1206.2,-213.43 1183.5,-198 1148.78,-174.4 1122.12,-131.26 1109.88,-108.86"/>
<polygon fill="midnightblue" stroke="midnightblue" points="1259.34,-235.22 1269.91,-234.48 1261.19,-228.47 1259.34,-235.22"/>
</g>
<!-- Node18 -->
<g id="node18" class="node">
<title>Node18</title>
<g id="a_node18"><a xlink:href="DCMPlanner_8h.html" target="_top" xlink:title=" ">
<polygon fill="none" stroke="black" points="1357,-162 1357,-192 1532,-192 1532,-162 1357,-162"/>
<text text-anchor="start" x="1365" y="-180" font-family="Helvetica,sans-Serif" font-size="10.00">Planners/include/Bipedal</text>
<text text-anchor="middle" x="1444.5" y="-169" font-family="Helvetica,sans-Serif" font-size="10.00">Locomotion/Planners/DCMPlanner.h</text>
</a>
</g>
</g>
<!-- Node1&#45;&gt;Node18 -->
<g id="edge18" class="edge">
<title>Node1&#45;&gt;Node18</title>
<path fill="none" stroke="midnightblue" d="M1380.94,-227.79C1395.65,-216.27 1413.56,-202.23 1426.62,-192"/>
<polygon fill="midnightblue" stroke="midnightblue" points="1378.43,-225.31 1372.71,-234.23 1382.74,-230.82 1378.43,-225.31"/>
</g>
<!-- Node22 -->
<g id="node22" class="node">
<title>Node22</title>
<g id="a_node22"><a xlink:href="QuinticSpline_8h.html" target="_top" xlink:title=" ">
<polygon fill="none" stroke="black" points="1643,-162 1643,-192 1820,-192 1820,-162 1643,-162"/>
<text text-anchor="start" x="1651" y="-180" font-family="Helvetica,sans-Serif" font-size="10.00">Planners/include/Bipedal</text>
<text text-anchor="middle" x="1731.5" y="-169" font-family="Helvetica,sans-Serif" font-size="10.00">Locomotion/Planners/QuinticSpline.h</text>
</a>
</g>
</g>
<!-- Node1&#45;&gt;Node22 -->
<g id="edge22" class="edge">
<title>Node1&#45;&gt;Node22</title>
<path fill="none" stroke="midnightblue" d="M1439.28,-232.65C1504.48,-220.45 1593.73,-203.76 1656.39,-192.05"/>
<polygon fill="midnightblue" stroke="midnightblue" points="1438.62,-229.21 1429.43,-234.49 1439.91,-236.09 1438.62,-229.21"/>
</g>
<!-- Node23 -->
<g id="node23" class="node">
<title>Node23</title>
<g id="a_node23"><a xlink:href="SwingFootPlanner_8h.html" target="_top" xlink:title=" ">
<polygon fill="none" stroke="black" points="1917.5,-73 1917.5,-114 2075.5,-114 2075.5,-73 1917.5,-73"/>
<text text-anchor="start" x="1925.5" y="-102" font-family="Helvetica,sans-Serif" font-size="10.00">Planners/include/Bipedal</text>
<text text-anchor="start" x="1925.5" y="-91" font-family="Helvetica,sans-Serif" font-size="10.00">Locomotion/Planners/SwingFoot</text>
<text text-anchor="middle" x="1996.5" y="-80" font-family="Helvetica,sans-Serif" font-size="10.00">Planner.h</text>
</a>
</g>
</g>
<!-- Node1&#45;&gt;Node23 -->
<g id="edge31" class="edge">
<title>Node1&#45;&gt;Node23</title>
<path fill="none" stroke="midnightblue" d="M1449.89,-243.34C1567.66,-236.1 1760.68,-221.17 1828.5,-198 1884.58,-178.84 1941.59,-138.31 1972.66,-114.04"/>
<polygon fill="midnightblue" stroke="midnightblue" points="1449.56,-239.85 1439.79,-243.95 1449.99,-246.84 1449.56,-239.85"/>
</g>
<!-- Node26 -->
<g id="node26" class="node">
<title>Node26</title>
<g id="a_node26"><a xlink:href="SO3Planner_8h.html" target="_top" xlink:title=" ">
<polygon fill="none" stroke="black" points="1961,-162 1961,-192 2132,-192 2132,-162 1961,-162"/>
<text text-anchor="start" x="1969" y="-180" font-family="Helvetica,sans-Serif" font-size="10.00">Planners/include/Bipedal</text>
<text text-anchor="middle" x="2046.5" y="-169" font-family="Helvetica,sans-Serif" font-size="10.00">Locomotion/Planners/SO3Planner.h</text>
</a>
</g>
</g>
<!-- Node1&#45;&gt;Node26 -->
<g id="edge27" class="edge">
<title>Node1&#45;&gt;Node26</title>
<path fill="none" stroke="midnightblue" d="M1449.56,-242.18C1562.72,-234.18 1757.3,-218.86 1923.5,-198 1937.13,-196.29 1951.57,-194.2 1965.57,-192.02"/>
<polygon fill="midnightblue" stroke="midnightblue" points="1449.27,-238.7 1439.54,-242.89 1449.76,-245.68 1449.27,-238.7"/>
</g>
<!-- Node28 -->
<g id="node28" class="node">
<title>Node28</title>
<g id="a_node28"><a xlink:href="YarpSensorBridge_8h.html" target="_top" xlink:title=" ">
<polygon fill="none" stroke="black" points="2250,-156.5 2250,-197.5 2423,-197.5 2423,-156.5 2250,-156.5"/>
<text text-anchor="start" x="2258" y="-185.5" font-family="Helvetica,sans-Serif" font-size="10.00">RobotInterface/YarpImplementation</text>
<text text-anchor="start" x="2258" y="-174.5" font-family="Helvetica,sans-Serif" font-size="10.00">/include/BipedalLocomotion</text>
<text text-anchor="middle" x="2336.5" y="-163.5" font-family="Helvetica,sans-Serif" font-size="10.00">/RobotInterface/YarpSensorBridge.h</text>
</a>
</g>
</g>
<!-- Node1&#45;&gt;Node28 -->
<g id="edge32" class="edge">
<title>Node1&#45;&gt;Node28</title>
<path fill="none" stroke="midnightblue" d="M1450.18,-243.51C1598.26,-235.53 1891.81,-218.67 2140.5,-198 2176.29,-195.03 2215.7,-191.13 2249.73,-187.56"/>
<polygon fill="midnightblue" stroke="midnightblue" points="1449.57,-240.04 1439.77,-244.07 1449.95,-247.03 1449.57,-240.04"/>
</g>
<!-- Node3 -->
<g id="node3" class="node">
<title>Node3</title>
<g id="a_node3"><a xlink:href="SchmittTriggerDetector_8h.html" target="_top" xlink:title=" ">
<polygon fill="none" stroke="black" points="0,-73 0,-114 147,-114 147,-73 0,-73"/>
<text text-anchor="start" x="8" y="-102" font-family="Helvetica,sans-Serif" font-size="10.00">Contacts/include/Bipedal</text>
<text text-anchor="start" x="8" y="-91" font-family="Helvetica,sans-Serif" font-size="10.00">Locomotion/ContactDetectors</text>
<text text-anchor="middle" x="73.5" y="-80" font-family="Helvetica,sans-Serif" font-size="10.00">/SchmittTriggerDetector.h</text>
</a>
</g>
</g>
<!-- Node2&#45;&gt;Node3 -->
<g id="edge2" class="edge">
<title>Node2&#45;&gt;Node3</title>
<path fill="none" stroke="midnightblue" d="M197.25,-152.13C171.2,-140 139.96,-125.45 115.38,-114"/>
<polygon fill="midnightblue" stroke="midnightblue" points="196.04,-155.43 206.58,-156.48 199,-149.08 196.04,-155.43"/>
</g>
<!-- Node5 -->
<g id="node5" class="node">
<title>Node5</title>
<g id="a_node5"><a xlink:href="ContactDetector_8cpp.html" target="_top" xlink:title=" ">
<polygon fill="none" stroke="black" points="165.5,-84 165.5,-103 331.5,-103 331.5,-84 165.5,-84"/>
<text text-anchor="middle" x="248.5" y="-91" font-family="Helvetica,sans-Serif" font-size="10.00">Contacts/src/ContactDetector.cpp</text>
</a>
</g>
</g>
<!-- Node2&#45;&gt;Node5 -->
<g id="edge4" class="edge">
<title>Node2&#45;&gt;Node5</title>
<path fill="none" stroke="midnightblue" d="M248.5,-146.14C248.5,-130.83 248.5,-113.31 248.5,-103.12"/>
<polygon fill="midnightblue" stroke="midnightblue" points="245,-146.27 248.5,-156.27 252,-146.27 245,-146.27"/>
</g>
<!-- Node4 -->
<g id="node4" class="node">
<title>Node4</title>
<g id="a_node4"><a xlink:href="SchmittTriggerDetector_8cpp.html" target="_top" xlink:title=" ">
<polygon fill="none" stroke="black" points="3.5,-0.5 3.5,-30.5 143.5,-30.5 143.5,-0.5 3.5,-0.5"/>
<text text-anchor="start" x="11.5" y="-18.5" font-family="Helvetica,sans-Serif" font-size="10.00">Contacts/src/SchmittTrigger</text>
<text text-anchor="middle" x="73.5" y="-7.5" font-family="Helvetica,sans-Serif" font-size="10.00">Detector.cpp</text>
</a>
</g>
</g>
<!-- Node3&#45;&gt;Node4 -->
<g id="edge3" class="edge">
<title>Node3&#45;&gt;Node4</title>
<path fill="none" stroke="midnightblue" d="M73.5,-62.78C73.5,-51.75 73.5,-39.75 73.5,-30.73"/>
<polygon fill="midnightblue" stroke="midnightblue" points="70,-62.93 73.5,-72.93 77,-62.93 70,-62.93"/>
</g>
<!-- Node7 -->
<g id="node7" class="node">
<title>Node7</title>
<g id="a_node7"><a xlink:href="RecursiveLeastSquare_8cpp.html" target="_top" xlink:title=" ">
<polygon fill="none" stroke="black" points="349.5,-78.5 349.5,-108.5 477.5,-108.5 477.5,-78.5 349.5,-78.5"/>
<text text-anchor="start" x="357.5" y="-96.5" font-family="Helvetica,sans-Serif" font-size="10.00">Estimators/src/Recursive</text>
<text text-anchor="middle" x="413.5" y="-85.5" font-family="Helvetica,sans-Serif" font-size="10.00">LeastSquare.cpp</text>
</a>
</g>
</g>
<!-- Node6&#45;&gt;Node7 -->
<g id="edge6" class="edge">
<title>Node6&#45;&gt;Node7</title>
<path fill="none" stroke="midnightblue" d="M472.14,-149.43C457.65,-135.86 440.61,-119.9 428.64,-108.68"/>
<polygon fill="midnightblue" stroke="midnightblue" points="469.75,-151.99 479.44,-156.27 474.53,-146.88 469.75,-151.99"/>
</g>
<!-- Node9 -->
<g id="node9" class="node">
<title>Node9</title>
<g id="a_node9"><a xlink:href="InvariantEKFBaseEstimator_8h.html" target="_top" xlink:title=" ">
<polygon fill="none" stroke="black" points="496,-67.5 496,-119.5 665,-119.5 665,-67.5 496,-67.5"/>
<text text-anchor="start" x="504" y="-107.5" font-family="Helvetica,sans-Serif" font-size="10.00">Estimators/include</text>
<text text-anchor="start" x="504" y="-96.5" font-family="Helvetica,sans-Serif" font-size="10.00">/BipedalLocomotion/Floating</text>
<text text-anchor="start" x="504" y="-85.5" font-family="Helvetica,sans-Serif" font-size="10.00">BaseEstimators/InvariantEKFBase</text>
<text text-anchor="middle" x="580.5" y="-74.5" font-family="Helvetica,sans-Serif" font-size="10.00">Estimator.h</text>
</a>
</g>
</g>
<!-- Node8&#45;&gt;Node9 -->
<g id="edge8" class="edge">
<title>Node8&#45;&gt;Node9</title>
<path fill="none" stroke="midnightblue" d="M781.89,-153.54C745.63,-142.91 702.22,-130.18 665,-119.27"/>
<polygon fill="midnightblue" stroke="midnightblue" points="781.33,-157.02 791.91,-156.48 783.3,-150.31 781.33,-157.02"/>
</g>
<!-- Node11 -->
<g id="node11" class="node">
<title>Node11</title>
<g id="a_node11"><a xlink:href="LeggedOdometry_8h.html" target="_top" xlink:title=" ">
<polygon fill="none" stroke="black" points="683.5,-73 683.5,-114 853.5,-114 853.5,-73 683.5,-73"/>
<text text-anchor="start" x="691.5" y="-102" font-family="Helvetica,sans-Serif" font-size="10.00">Estimators/include</text>
<text text-anchor="start" x="691.5" y="-91" font-family="Helvetica,sans-Serif" font-size="10.00">/BipedalLocomotion/Floating</text>
<text text-anchor="middle" x="768.5" y="-80" font-family="Helvetica,sans-Serif" font-size="10.00">BaseEstimators/LeggedOdometry.h</text>
</a>
</g>
</g>
<!-- Node8&#45;&gt;Node11 -->
<g id="edge10" class="edge">
<title>Node8&#45;&gt;Node11</title>
<path fill="none" stroke="midnightblue" d="M829.09,-149.36C816.38,-137.85 801.77,-124.63 790.09,-114.05"/>
<polygon fill="midnightblue" stroke="midnightblue" points="826.95,-152.15 836.71,-156.27 831.65,-146.96 826.95,-152.15"/>
</g>
<!-- Node13 -->
<g id="node13" class="node">
<title>Node13</title>
<g id="a_node13"><a xlink:href="FloatingBaseEstimator_8cpp.html" target="_top" xlink:title=" ">
<polygon fill="none" stroke="black" points="871.5,-78.5 871.5,-108.5 1011.5,-108.5 1011.5,-78.5 871.5,-78.5"/>
<text text-anchor="start" x="879.5" y="-96.5" font-family="Helvetica,sans-Serif" font-size="10.00">Estimators/src/FloatingBase</text>
<text text-anchor="middle" x="941.5" y="-85.5" font-family="Helvetica,sans-Serif" font-size="10.00">Estimator.cpp</text>
</a>
</g>
</g>
<!-- Node8&#45;&gt;Node13 -->
<g id="edge12" class="edge">
<title>Node8&#45;&gt;Node13</title>
<path fill="none" stroke="midnightblue" d="M885.94,-149.06C899.67,-135.57 915.74,-119.79 927.05,-108.68"/>
<polygon fill="midnightblue" stroke="midnightblue" points="883.28,-146.77 878.59,-156.27 888.18,-151.76 883.28,-146.77"/>
</g>
<!-- Node10 -->
<g id="node10" class="node">
<title>Node10</title>
<g id="a_node10"><a xlink:href="InvariantEKFBaseEstimator_8cpp.html" target="_top" xlink:title=" ">
<polygon fill="none" stroke="black" points="520,-0.5 520,-30.5 641,-30.5 641,-0.5 520,-0.5"/>
<text text-anchor="start" x="528" y="-18.5" font-family="Helvetica,sans-Serif" font-size="10.00">Estimators/src/Invariant</text>
<text text-anchor="middle" x="580.5" y="-7.5" font-family="Helvetica,sans-Serif" font-size="10.00">EKFBaseEstimator.cpp</text>
</a>
</g>
</g>
<!-- Node9&#45;&gt;Node10 -->
<g id="edge9" class="edge">
<title>Node9&#45;&gt;Node10</title>
<path fill="none" stroke="midnightblue" d="M580.5,-56.96C580.5,-47.72 580.5,-38.28 580.5,-30.85"/>
<polygon fill="midnightblue" stroke="midnightblue" points="577,-57.19 580.5,-67.19 584,-57.19 577,-57.19"/>
</g>
<!-- Node12 -->
<g id="node12" class="node">
<title>Node12</title>
<g id="a_node12"><a xlink:href="LeggedOdometry_8cpp.html" target="_top" xlink:title=" ">
<polygon fill="none" stroke="black" points="681,-6 681,-25 856,-25 856,-6 681,-6"/>
<text text-anchor="middle" x="768.5" y="-13" font-family="Helvetica,sans-Serif" font-size="10.00">Estimators/src/LeggedOdometry.cpp</text>
</a>
</g>
</g>
<!-- Node11&#45;&gt;Node12 -->
<g id="edge11" class="edge">
<title>Node11&#45;&gt;Node12</title>
<path fill="none" stroke="midnightblue" d="M768.5,-62.55C768.5,-49.06 768.5,-34.15 768.5,-25.05"/>
<polygon fill="midnightblue" stroke="midnightblue" points="765,-62.93 768.5,-72.93 772,-62.93 765,-62.93"/>
</g>
<!-- Node14&#45;&gt;Node15 -->
<g id="edge14" class="edge">
<title>Node14&#45;&gt;Node15</title>
<path fill="none" stroke="midnightblue" d="M1228.27,-157.39C1198.61,-142.55 1157.7,-122.1 1130.7,-108.6"/>
<polygon fill="midnightblue" stroke="midnightblue" points="1226.97,-160.65 1237.48,-161.99 1230.1,-154.39 1226.97,-160.65"/>
</g>
<!-- Node17 -->
<g id="node17" class="node">
<title>Node17</title>
<g id="a_node17"><a xlink:href="IntegrationBasedIK_8cpp.html" target="_top" xlink:title=" ">
<polygon fill="none" stroke="black" points="1193.5,-84 1193.5,-103 1341.5,-103 1341.5,-84 1193.5,-84"/>
<text text-anchor="middle" x="1267.5" y="-91" font-family="Helvetica,sans-Serif" font-size="10.00">IK/src/IntegrationBasedIK.cpp</text>
</a>
</g>
</g>
<!-- Node14&#45;&gt;Node17 -->
<g id="edge16" class="edge">
<title>Node14&#45;&gt;Node17</title>
<path fill="none" stroke="midnightblue" d="M1266.1,-151.75C1266.5,-135.28 1267.01,-114.49 1267.29,-103.04"/>
<polygon fill="midnightblue" stroke="midnightblue" points="1262.59,-151.72 1265.85,-161.8 1269.59,-151.89 1262.59,-151.72"/>
</g>
<!-- Node16 -->
<g id="node16" class="node">
<title>Node16</title>
<g id="a_node16"><a xlink:href="QPInverseKinematics_8cpp.html" target="_top" xlink:title=" ">
<polygon fill="none" stroke="black" points="1022.5,-6 1022.5,-25 1182.5,-25 1182.5,-6 1022.5,-6"/>
<text text-anchor="middle" x="1102.5" y="-13" font-family="Helvetica,sans-Serif" font-size="10.00">IK/src/QPInverseKinematics.cpp</text>
</a>
</g>
</g>
<!-- Node15&#45;&gt;Node16 -->
<g id="edge15" class="edge">
<title>Node15&#45;&gt;Node16</title>
<path fill="none" stroke="midnightblue" d="M1102.5,-68.17C1102.5,-53.4 1102.5,-35.45 1102.5,-25.06"/>
<polygon fill="midnightblue" stroke="midnightblue" points="1099,-68.2 1102.5,-78.2 1106,-68.21 1099,-68.2"/>
</g>
<!-- Node19 -->
<g id="node19" class="node">
<title>Node19</title>
<g id="a_node19"><a xlink:href="TimeVaryingDCMPlanner_8h.html" target="_top" xlink:title=" ">
<polygon fill="none" stroke="black" points="1360,-73 1360,-114 1525,-114 1525,-73 1360,-73"/>
<text text-anchor="start" x="1368" y="-102" font-family="Helvetica,sans-Serif" font-size="10.00">Planners/include/Bipedal</text>
<text text-anchor="start" x="1368" y="-91" font-family="Helvetica,sans-Serif" font-size="10.00">Locomotion/Planners/TimeVarying</text>
<text text-anchor="middle" x="1442.5" y="-80" font-family="Helvetica,sans-Serif" font-size="10.00">DCMPlanner.h</text>
</a>
</g>
</g>
<!-- Node18&#45;&gt;Node19 -->
<g id="edge19" class="edge">
<title>Node18&#45;&gt;Node19</title>
<path fill="none" stroke="midnightblue" d="M1443.9,-151.57C1443.61,-139.56 1443.26,-125.29 1442.98,-114.03"/>
<polygon fill="midnightblue" stroke="midnightblue" points="1440.41,-151.89 1444.15,-161.8 1447.41,-151.72 1440.41,-151.89"/>
</g>
<!-- Node21 -->
<g id="node21" class="node">
<title>Node21</title>
<g id="a_node21"><a xlink:href="DCMPlanner_8cpp.html" target="_top" xlink:title=" ">
<polygon fill="none" stroke="black" points="1543,-84 1543,-103 1692,-103 1692,-84 1543,-84"/>
<text text-anchor="middle" x="1617.5" y="-91" font-family="Helvetica,sans-Serif" font-size="10.00">Planners/src/DCMPlanner.cpp</text>
</a>
</g>
</g>
<!-- Node18&#45;&gt;Node21 -->
<g id="edge21" class="edge">
<title>Node18&#45;&gt;Node21</title>
<path fill="none" stroke="midnightblue" d="M1483.53,-157.61C1519.71,-140.57 1571.96,-115.95 1599.28,-103.08"/>
<polygon fill="midnightblue" stroke="midnightblue" points="1481.79,-154.56 1474.24,-161.99 1484.78,-160.89 1481.79,-154.56"/>
</g>
<!-- Node20 -->
<g id="node20" class="node">
<title>Node20</title>
<g id="a_node20"><a xlink:href="TimeVaryingDCMPlanner_8cpp.html" target="_top" xlink:title=" ">
<polygon fill="none" stroke="black" points="1516.5,-0.5 1516.5,-30.5 1644.5,-30.5 1644.5,-0.5 1516.5,-0.5"/>
<text text-anchor="start" x="1524.5" y="-18.5" font-family="Helvetica,sans-Serif" font-size="10.00">Planners/src/TimeVarying</text>
<text text-anchor="middle" x="1580.5" y="-7.5" font-family="Helvetica,sans-Serif" font-size="10.00">DCMPlanner.cpp</text>
</a>
</g>
</g>
<!-- Node19&#45;&gt;Node20 -->
<g id="edge20" class="edge">
<title>Node19&#45;&gt;Node20</title>
<path fill="none" stroke="midnightblue" d="M1487.02,-67.98C1509.38,-55.67 1535.67,-41.19 1554.67,-30.73"/>
<polygon fill="midnightblue" stroke="midnightblue" points="1485.11,-65.04 1478.04,-72.93 1488.49,-71.17 1485.11,-65.04"/>
</g>
<!-- Node22&#45;&gt;Node20 -->
<g id="edge26" class="edge">
<title>Node22&#45;&gt;Node20</title>
<path fill="none" stroke="midnightblue" d="M1730.51,-151.65C1728.3,-127.45 1721.43,-90.63 1700.5,-67 1685.22,-49.74 1663.06,-38.22 1641.94,-30.6"/>
<polygon fill="midnightblue" stroke="midnightblue" points="1727.03,-152.06 1731.24,-161.79 1734.02,-151.56 1727.03,-152.06"/>
</g>
<!-- Node22&#45;&gt;Node23 -->
<g id="edge23" class="edge">
<title>Node22&#45;&gt;Node23</title>
<path fill="none" stroke="midnightblue" d="M1786.69,-159.03C1829.23,-145.94 1888.14,-127.82 1932.71,-114.12"/>
<polygon fill="midnightblue" stroke="midnightblue" points="1785.58,-155.7 1777.06,-161.99 1787.64,-162.4 1785.58,-155.7"/>
</g>
<!-- Node25 -->
<g id="node25" class="node">
<title>Node25</title>
<g id="a_node25"><a xlink:href="QuinticSpline_8cpp.html" target="_top" xlink:title=" ">
<polygon fill="none" stroke="black" points="1748,-84 1748,-103 1899,-103 1899,-84 1748,-84"/>
<text text-anchor="middle" x="1823.5" y="-91" font-family="Helvetica,sans-Serif" font-size="10.00">Planners/src/QuinticSpline.cpp</text>
</a>
</g>
</g>
<!-- Node22&#45;&gt;Node25 -->
<g id="edge25" class="edge">
<title>Node22&#45;&gt;Node25</title>
<path fill="none" stroke="midnightblue" d="M1755.23,-154.98C1774.29,-138.09 1800.07,-115.25 1813.86,-103.04"/>
<polygon fill="midnightblue" stroke="midnightblue" points="1752.69,-152.55 1747.53,-161.8 1757.33,-157.79 1752.69,-152.55"/>
</g>
<!-- Node24 -->
<g id="node24" class="node">
<title>Node24</title>
<g id="a_node24"><a xlink:href="SwingFootPlanner_8cpp.html" target="_top" xlink:title=" ">
<polygon fill="none" stroke="black" points="1910.5,-6 1910.5,-25 2082.5,-25 2082.5,-6 1910.5,-6"/>
<text text-anchor="middle" x="1996.5" y="-13" font-family="Helvetica,sans-Serif" font-size="10.00">Planners/src/SwingFootPlanner.cpp</text>
</a>
</g>
</g>
<!-- Node23&#45;&gt;Node24 -->
<g id="edge24" class="edge">
<title>Node23&#45;&gt;Node24</title>
<path fill="none" stroke="midnightblue" d="M1996.5,-62.55C1996.5,-49.06 1996.5,-34.15 1996.5,-25.05"/>
<polygon fill="midnightblue" stroke="midnightblue" points="1993,-62.93 1996.5,-72.93 2000,-62.93 1993,-62.93"/>
</g>
<!-- Node26&#45;&gt;Node23 -->
<g id="edge30" class="edge">
<title>Node26&#45;&gt;Node23</title>
<path fill="none" stroke="midnightblue" d="M2032.4,-153.02C2024.86,-140.73 2015.67,-125.75 2008.48,-114.03"/>
<polygon fill="midnightblue" stroke="midnightblue" points="2029.58,-155.11 2037.79,-161.8 2035.54,-151.45 2029.58,-155.11"/>
</g>
<!-- Node27 -->
<g id="node27" class="node">
<title>Node27</title>
<g id="a_node27"><a xlink:href="SO3Planner_8tpp.html" target="_top" xlink:title=" ">
<polygon fill="none" stroke="black" points="2094,-78.5 2094,-108.5 2273,-108.5 2273,-78.5 2094,-78.5"/>
<text text-anchor="start" x="2102" y="-96.5" font-family="Helvetica,sans-Serif" font-size="10.00">Planners/include/Bipedal</text>
<text text-anchor="middle" x="2183.5" y="-85.5" font-family="Helvetica,sans-Serif" font-size="10.00">Locomotion/Planners/SO3Planner.tpp</text>
</a>
</g>
</g>
<!-- Node26&#45;&gt;Node27 -->
<g id="edge28" class="edge">
<title>Node26&#45;&gt;Node27</title>
<path fill="none" stroke="midnightblue" d="M2073.25,-156.61C2096.69,-141.85 2130.47,-121.87 2154.54,-108.6"/>
<polygon fill="midnightblue" stroke="midnightblue" points="2071.36,-153.66 2064.81,-161.99 2075.12,-159.57 2071.36,-153.66"/>
</g>
<!-- Node27&#45;&gt;Node26 -->
<g id="edge29" class="edge">
<title>Node27&#45;&gt;Node26</title>
<path fill="none" stroke="midnightblue" d="M2156.6,-113.99C2133.11,-128.78 2099.32,-148.75 2075.29,-161.99"/>
<polygon fill="midnightblue" stroke="midnightblue" points="2158.5,-116.93 2165.05,-108.6 2154.74,-111.02 2158.5,-116.93"/>
</g>
<!-- Node29 -->
<g id="node29" class="node">
<title>Node29</title>
<g id="a_node29"><a xlink:href="YarpSensorBridgeImpl_8h.html" target="_top" xlink:title=" ">
<polygon fill="none" stroke="black" points="2291.5,-73 2291.5,-114 2483.5,-114 2483.5,-73 2291.5,-73"/>
<text text-anchor="start" x="2299.5" y="-102" font-family="Helvetica,sans-Serif" font-size="10.00">RobotInterface/YarpImplementation</text>
<text text-anchor="start" x="2299.5" y="-91" font-family="Helvetica,sans-Serif" font-size="10.00">/include/BipedalLocomotion</text>
<text text-anchor="middle" x="2387.5" y="-80" font-family="Helvetica,sans-Serif" font-size="10.00">/RobotInterface/YarpSensorBridgeImpl.h</text>
</a>
</g>
</g>
<!-- Node28&#45;&gt;Node29 -->
<g id="edge33" class="edge">
<title>Node28&#45;&gt;Node29</title>
<path fill="none" stroke="midnightblue" d="M2354.19,-147.72C2361.15,-136.61 2368.96,-124.13 2375.27,-114.05"/>
<polygon fill="midnightblue" stroke="midnightblue" points="2351.18,-145.94 2348.85,-156.27 2357.12,-149.65 2351.18,-145.94"/>
</g>
<!-- Node30 -->
<g id="node30" class="node">
<title>Node30</title>
<g id="a_node30"><a xlink:href="YarpSensorBridge_8cpp.html" target="_top" xlink:title=" ">
<polygon fill="none" stroke="black" points="2302.5,-0.5 2302.5,-30.5 2472.5,-30.5 2472.5,-0.5 2302.5,-0.5"/>
<text text-anchor="start" x="2310.5" y="-18.5" font-family="Helvetica,sans-Serif" font-size="10.00">RobotInterface/YarpImplementation</text>
<text text-anchor="middle" x="2387.5" y="-7.5" font-family="Helvetica,sans-Serif" font-size="10.00">/src/YarpSensorBridge.cpp</text>
</a>
</g>
</g>
<!-- Node29&#45;&gt;Node30 -->
<g id="edge34" class="edge">
<title>Node29&#45;&gt;Node30</title>
<path fill="none" stroke="midnightblue" d="M2387.5,-62.78C2387.5,-51.75 2387.5,-39.75 2387.5,-30.73"/>
<polygon fill="midnightblue" stroke="midnightblue" points="2384,-62.93 2387.5,-72.93 2391,-62.93 2384,-62.93"/>
</g>
</g>
</svg>
