<?xml version="1.0" encoding="UTF-8" standalone="no"?>
<!DOCTYPE svg PUBLIC "-//W3C//DTD SVG 1.1//EN"
 "http://www.w3.org/Graphics/SVG/1.1/DTD/svg11.dtd">
<!-- Generated by graphviz version 2.43.0 (0)
 -->
<!-- Title: Math/src/CARE.cpp Pages: 1 -->
<svg width="571pt" height="352pt"
 viewBox="0.00 0.00 571.00 352.00" xmlns="http://www.w3.org/2000/svg" xmlns:xlink="http://www.w3.org/1999/xlink">
<g id="graph0" class="graph" transform="scale(1 1) rotate(0) translate(4 348)">
<title>Math/src/CARE.cpp</title>
<!-- Node1 -->
<g id="node1" class="node">
<title>Node1</title>
<g id="a_node1"><a xlink:title=" ">
<polygon fill="#bfbfbf" stroke="black" points="353.5,-324.5 353.5,-343.5 458.5,-343.5 458.5,-324.5 353.5,-324.5"/>
<text text-anchor="middle" x="406" y="-331.5" font-family="Helvetica,sans-Serif" font-size="10.00">Math/src/CARE.cpp</text>
</a>
</g>
</g>
<!-- Node2 -->
<g id="node2" class="node">
<title>Node2</title>
<g id="a_node2"><a xlink:title=" ">
<polygon fill="none" stroke="#bfbfbf" points="0,-62 0,-81 54,-81 54,-62 0,-62"/>
<text text-anchor="middle" x="27" y="-69" font-family="Helvetica,sans-Serif" font-size="10.00">iostream</text>
</a>
</g>
</g>
<!-- Node1&#45;&gt;Node2 -->
<g id="edge1" class="edge">
<title>Node1&#45;&gt;Node2</title>
<path fill="none" stroke="midnightblue" d="M392.38,-324.39C378.07,-315.35 354.94,-300.71 335,-288 241.96,-228.69 215.2,-218.96 126,-154 96.37,-132.42 63.91,-104.89 44.51,-87.99"/>
<polygon fill="midnightblue" stroke="midnightblue" points="46.63,-85.2 36.8,-81.24 42.02,-90.46 46.63,-85.2"/>
</g>
<!-- Node3 -->
<g id="node3" class="node">
<title>Node3</title>
<g id="a_node3"><a xlink:title=" ">
<polygon fill="none" stroke="#bfbfbf" points="486,-263 486,-282 538,-282 538,-263 486,-263"/>
<text text-anchor="middle" x="512" y="-270" font-family="Helvetica,sans-Serif" font-size="10.00">sstream</text>
</a>
</g>
</g>
<!-- Node1&#45;&gt;Node3 -->
<g id="edge2" class="edge">
<title>Node1&#45;&gt;Node3</title>
<path fill="none" stroke="midnightblue" d="M421.19,-324.48C438.66,-314.67 467.58,-298.43 488.08,-286.92"/>
<polygon fill="midnightblue" stroke="midnightblue" points="489.83,-289.96 496.84,-282.01 486.41,-283.85 489.83,-289.96"/>
</g>
<!-- Node4 -->
<g id="node4" class="node">
<title>Node4</title>
<g id="a_node4"><a xlink:href="CARE_8h.html" target="_top" xlink:title=" ">
<polygon fill="none" stroke="black" points="344,-257.5 344,-287.5 468,-287.5 468,-257.5 344,-257.5"/>
<text text-anchor="start" x="352" y="-275.5" font-family="Helvetica,sans-Serif" font-size="10.00">BipedalLocomotion/Math</text>
<text text-anchor="middle" x="406" y="-264.5" font-family="Helvetica,sans-Serif" font-size="10.00">/CARE.h</text>
</a>
</g>
</g>
<!-- Node1&#45;&gt;Node4 -->
<g id="edge3" class="edge">
<title>Node1&#45;&gt;Node4</title>
<path fill="none" stroke="midnightblue" d="M406,-324.48C406,-317.47 406,-307.19 406,-297.7"/>
<polygon fill="midnightblue" stroke="midnightblue" points="409.5,-297.52 406,-287.52 402.5,-297.52 409.5,-297.52"/>
</g>
<!-- Node5 -->
<g id="node5" class="node">
<title>Node5</title>
<g id="a_node5"><a xlink:title=" ">
<polygon fill="none" stroke="#bfbfbf" points="435.5,-196 435.5,-215 508.5,-215 508.5,-196 435.5,-196"/>
<text text-anchor="middle" x="472" y="-203" font-family="Helvetica,sans-Serif" font-size="10.00">Eigen/Dense</text>
</a>
</g>
</g>
<!-- Node4&#45;&gt;Node5 -->
<g id="edge4" class="edge">
<title>Node4&#45;&gt;Node5</title>
<path fill="none" stroke="midnightblue" d="M420.32,-257.4C430.82,-247.06 445.07,-233.02 455.95,-222.31"/>
<polygon fill="midnightblue" stroke="midnightblue" points="458.5,-224.71 463.17,-215.19 453.59,-219.72 458.5,-224.71"/>
</g>
<!-- Node6 -->
<g id="node6" class="node">
<title>Node6</title>
<g id="a_node6"><a xlink:title=" ">
<polygon fill="none" stroke="#bfbfbf" points="511,-62 511,-81 563,-81 563,-62 511,-62"/>
<text text-anchor="middle" x="537" y="-69" font-family="Helvetica,sans-Serif" font-size="10.00">memory</text>
</a>
</g>
</g>
<!-- Node4&#45;&gt;Node6 -->
<g id="edge5" class="edge">
<title>Node4&#45;&gt;Node6</title>
<path fill="none" stroke="midnightblue" d="M465.36,-257.42C485.05,-249.83 505.18,-238.32 518,-221 546.66,-182.28 543.78,-121.8 540.01,-91.35"/>
<polygon fill="midnightblue" stroke="midnightblue" points="543.45,-90.68 538.58,-81.26 536.52,-91.65 543.45,-90.68"/>
</g>
<!-- Node7 -->
<g id="node7" class="node">
<title>Node7</title>
<g id="a_node7"><a xlink:href="IParametersHandler_8h.html" target="_top" xlink:title=" ">
<polygon fill="none" stroke="black" points="265,-190.5 265,-220.5 417,-220.5 417,-190.5 265,-190.5"/>
<text text-anchor="start" x="273" y="-208.5" font-family="Helvetica,sans-Serif" font-size="10.00">BipedalLocomotion/Parameters</text>
<text text-anchor="middle" x="341" y="-197.5" font-family="Helvetica,sans-Serif" font-size="10.00">Handler/IParametersHandler.h</text>
</a>
</g>
</g>
<!-- Node4&#45;&gt;Node7 -->
<g id="edge6" class="edge">
<title>Node4&#45;&gt;Node7</title>
<path fill="none" stroke="midnightblue" d="M391.9,-257.4C383.21,-248.71 371.9,-237.4 362.16,-227.66"/>
<polygon fill="midnightblue" stroke="midnightblue" points="364.62,-225.17 355.08,-220.58 359.67,-230.12 364.62,-225.17"/>
</g>
<!-- Node7&#45;&gt;Node6 -->
<g id="edge7" class="edge">
<title>Node7&#45;&gt;Node6</title>
<path fill="none" stroke="midnightblue" d="M364.27,-190.49C380.59,-180.55 402.82,-166.76 422,-154 455.99,-131.39 494.53,-103.63 517.24,-87.04"/>
<polygon fill="midnightblue" stroke="midnightblue" points="519.41,-89.79 525.4,-81.06 515.27,-84.15 519.41,-89.79"/>
</g>
<!-- Node8 -->
<g id="node8" class="node">
<title>Node8</title>
<g id="a_node8"><a xlink:title=" ">
<polygon fill="none" stroke="#bfbfbf" points="289.5,-129 289.5,-148 330.5,-148 330.5,-129 289.5,-129"/>
<text text-anchor="middle" x="310" y="-136" font-family="Helvetica,sans-Serif" font-size="10.00">string</text>
</a>
</g>
</g>
<!-- Node7&#45;&gt;Node8 -->
<g id="edge8" class="edge">
<title>Node7&#45;&gt;Node8</title>
<path fill="none" stroke="midnightblue" d="M334.27,-190.4C329.68,-180.76 323.55,-167.91 318.6,-157.54"/>
<polygon fill="midnightblue" stroke="midnightblue" points="321.61,-155.71 314.15,-148.19 315.29,-158.73 321.61,-155.71"/>
</g>
<!-- Node9 -->
<g id="node9" class="node">
<title>Node9</title>
<g id="a_node9"><a xlink:title=" ">
<polygon fill="none" stroke="#bfbfbf" points="349,-129 349,-148 393,-148 393,-129 349,-129"/>
<text text-anchor="middle" x="371" y="-136" font-family="Helvetica,sans-Serif" font-size="10.00">vector</text>
</a>
</g>
</g>
<!-- Node7&#45;&gt;Node9 -->
<g id="edge9" class="edge">
<title>Node7&#45;&gt;Node9</title>
<path fill="none" stroke="midnightblue" d="M347.51,-190.4C351.96,-180.76 357.89,-167.91 362.68,-157.54"/>
<polygon fill="midnightblue" stroke="midnightblue" points="365.97,-158.74 366.99,-148.19 359.62,-155.81 365.97,-158.74"/>
</g>
<!-- Node10 -->
<g id="node10" class="node">
<title>Node10</title>
<g id="a_node10"><a xlink:href="Vector_8h_source.html" target="_top" xlink:title=" ">
<polygon fill="none" stroke="black" points="135,-123.5 135,-153.5 271,-153.5 271,-123.5 135,-123.5"/>
<text text-anchor="start" x="143" y="-141.5" font-family="Helvetica,sans-Serif" font-size="10.00">BipedalLocomotion/Generic</text>
<text text-anchor="middle" x="203" y="-130.5" font-family="Helvetica,sans-Serif" font-size="10.00">Container/Vector.h</text>
</a>
</g>
</g>
<!-- Node7&#45;&gt;Node10 -->
<g id="edge10" class="edge">
<title>Node7&#45;&gt;Node10</title>
<path fill="none" stroke="midnightblue" d="M311.06,-190.4C290.8,-180.86 263.85,-168.16 241.94,-157.84"/>
<polygon fill="midnightblue" stroke="midnightblue" points="243.42,-154.67 232.89,-153.58 240.44,-161 243.42,-154.67"/>
</g>
<!-- Node12 -->
<g id="node12" class="node">
<title>Node12</title>
<g id="a_node12"><a xlink:href="TemplateHelpers_8h_source.html" target="_top" xlink:title=" ">
<polygon fill="none" stroke="black" points="349.5,-56.5 349.5,-86.5 492.5,-86.5 492.5,-56.5 349.5,-56.5"/>
<text text-anchor="start" x="357.5" y="-74.5" font-family="Helvetica,sans-Serif" font-size="10.00">BipedalLocomotion/Generic</text>
<text text-anchor="middle" x="421" y="-63.5" font-family="Helvetica,sans-Serif" font-size="10.00">Container/TemplateHelpers.h</text>
</a>
</g>
</g>
<!-- Node7&#45;&gt;Node12 -->
<g id="edge20" class="edge">
<title>Node7&#45;&gt;Node12</title>
<path fill="none" stroke="midnightblue" d="M364.55,-190.47C377.49,-181.59 392.74,-168.96 402,-154 412.72,-136.67 417.4,-113.86 419.44,-96.78"/>
<polygon fill="midnightblue" stroke="midnightblue" points="422.95,-96.79 420.43,-86.5 415.98,-96.12 422.95,-96.79"/>
</g>
<!-- Node10&#45;&gt;Node2 -->
<g id="edge18" class="edge">
<title>Node10&#45;&gt;Node2</title>
<path fill="none" stroke="midnightblue" d="M162.72,-123.41C134.67,-113.49 96.43,-99.76 63,-87 61.16,-86.3 59.27,-85.57 57.36,-84.82"/>
<polygon fill="midnightblue" stroke="midnightblue" points="58.47,-81.5 47.89,-81.06 55.89,-88 58.47,-81.5"/>
</g>
<!-- Node10&#45;&gt;Node6 -->
<g id="edge19" class="edge">
<title>Node10&#45;&gt;Node6</title>
<path fill="none" stroke="midnightblue" d="M271,-124.6C274.04,-124.05 277.05,-123.52 280,-123 378.46,-105.75 405.85,-114.31 502,-87 504.3,-86.35 506.64,-85.59 508.98,-84.77"/>
<polygon fill="midnightblue" stroke="midnightblue" points="510.32,-88 518.39,-81.15 507.8,-81.47 510.32,-88"/>
</g>
<!-- Node11 -->
<g id="node11" class="node">
<title>Node11</title>
<g id="a_node11"><a xlink:title=" ">
<polygon fill="none" stroke="#bfbfbf" points="140,-62 140,-81 254,-81 254,-62 140,-62"/>
<text text-anchor="middle" x="197" y="-69" font-family="Helvetica,sans-Serif" font-size="10.00">iDynTree/Core/Span.h</text>
</a>
</g>
</g>
<!-- Node10&#45;&gt;Node11 -->
<g id="edge11" class="edge">
<title>Node10&#45;&gt;Node11</title>
<path fill="none" stroke="midnightblue" d="M201.7,-123.4C200.83,-113.96 199.67,-101.45 198.73,-91.19"/>
<polygon fill="midnightblue" stroke="midnightblue" points="202.21,-90.83 197.8,-81.19 195.24,-91.47 202.21,-90.83"/>
</g>
<!-- Node10&#45;&gt;Node12 -->
<g id="edge12" class="edge">
<title>Node10&#45;&gt;Node12</title>
<path fill="none" stroke="midnightblue" d="M250.03,-123.48C283.44,-113.51 328.48,-100.09 363.94,-89.51"/>
<polygon fill="midnightblue" stroke="midnightblue" points="365.09,-92.82 373.67,-86.61 363.09,-86.11 365.09,-92.82"/>
</g>
<!-- Node16 -->
<g id="node16" class="node">
<title>Node16</title>
<g id="a_node16"><a xlink:title=" ">
<polygon fill="none" stroke="#bfbfbf" points="272.5,-62 272.5,-81 331.5,-81 331.5,-62 272.5,-62"/>
<text text-anchor="middle" x="302" y="-69" font-family="Helvetica,sans-Serif" font-size="10.00">functional</text>
</a>
</g>
</g>
<!-- Node10&#45;&gt;Node16 -->
<g id="edge16" class="edge">
<title>Node10&#45;&gt;Node16</title>
<path fill="none" stroke="midnightblue" d="M224.48,-123.4C241.08,-112.5 263.96,-97.48 280.55,-86.58"/>
<polygon fill="midnightblue" stroke="midnightblue" points="282.6,-89.42 289.04,-81.01 278.76,-83.57 282.6,-89.42"/>
</g>
<!-- Node17 -->
<g id="node17" class="node">
<title>Node17</title>
<g id="a_node17"><a xlink:title=" ">
<polygon fill="none" stroke="#bfbfbf" points="72.5,-62 72.5,-81 121.5,-81 121.5,-62 72.5,-62"/>
<text text-anchor="middle" x="97" y="-69" font-family="Helvetica,sans-Serif" font-size="10.00">cassert</text>
</a>
</g>
</g>
<!-- Node10&#45;&gt;Node17 -->
<g id="edge17" class="edge">
<title>Node10&#45;&gt;Node17</title>
<path fill="none" stroke="midnightblue" d="M180,-123.4C162.06,-112.39 137.28,-97.2 119.48,-86.28"/>
<polygon fill="midnightblue" stroke="midnightblue" points="121.23,-83.25 110.87,-81.01 117.57,-89.22 121.23,-83.25"/>
</g>
<!-- Node13 -->
<g id="node13" class="node">
<title>Node13</title>
<g id="a_node13"><a xlink:title=" ">
<polygon fill="none" stroke="#bfbfbf" points="308,-0.5 308,-19.5 370,-19.5 370,-0.5 308,-0.5"/>
<text text-anchor="middle" x="339" y="-7.5" font-family="Helvetica,sans-Serif" font-size="10.00">type_traits</text>
</a>
</g>
</g>
<!-- Node12&#45;&gt;Node13 -->
<g id="edge13" class="edge">
<title>Node12&#45;&gt;Node13</title>
<path fill="none" stroke="midnightblue" d="M401.57,-56.4C388.79,-47.13 372.11,-35.03 359.19,-25.65"/>
<polygon fill="midnightblue" stroke="midnightblue" points="361.08,-22.7 350.93,-19.66 356.97,-28.36 361.08,-22.7"/>
</g>
<!-- Node14 -->
<g id="node14" class="node">
<title>Node14</title>
<g id="a_node14"><a xlink:title=" ">
<polygon fill="none" stroke="#bfbfbf" points="388,-0.5 388,-19.5 454,-19.5 454,-0.5 388,-0.5"/>
<text text-anchor="middle" x="421" y="-7.5" font-family="Helvetica,sans-Serif" font-size="10.00">string_view</text>
</a>
</g>
</g>
<!-- Node12&#45;&gt;Node14 -->
<g id="edge14" class="edge">
<title>Node12&#45;&gt;Node14</title>
<path fill="none" stroke="midnightblue" d="M421,-56.4C421,-48.47 421,-38.46 421,-29.86"/>
<polygon fill="midnightblue" stroke="midnightblue" points="424.5,-29.66 421,-19.66 417.5,-29.66 424.5,-29.66"/>
</g>
<!-- Node15 -->
<g id="node15" class="node">
<title>Node15</title>
<g id="a_node15"><a xlink:title=" ">
<polygon fill="none" stroke="#bfbfbf" points="472.5,-0.5 472.5,-19.5 537.5,-19.5 537.5,-0.5 472.5,-0.5"/>
<text text-anchor="middle" x="505" y="-7.5" font-family="Helvetica,sans-Serif" font-size="10.00">Eigen/Core</text>
</a>
</g>
</g>
<!-- Node12&#45;&gt;Node15 -->
<g id="edge15" class="edge">
<title>Node12&#45;&gt;Node15</title>
<path fill="none" stroke="midnightblue" d="M440.91,-56.4C453.99,-47.13 471.08,-35.03 484.32,-25.65"/>
<polygon fill="midnightblue" stroke="midnightblue" points="486.64,-28.29 492.78,-19.66 482.59,-22.58 486.64,-28.29"/>
</g>
</g>
</svg>
