<?xml version="1.0" encoding="UTF-8" standalone="no"?>
<!DOCTYPE svg PUBLIC "-//W3C//DTD SVG 1.1//EN"
 "http://www.w3.org/Graphics/SVG/1.1/DTD/svg11.dtd">
<!-- Generated by graphviz version 2.43.0 (0)
 -->
<!-- Title: BipedalLocomotion::RobotInterface::YarpSensorBridge Pages: 1 -->
<svg width="627pt" height="100pt"
 viewBox="0.00 0.00 627.00 99.50" xmlns="http://www.w3.org/2000/svg" xmlns:xlink="http://www.w3.org/1999/xlink">
<g id="graph0" class="graph" transform="scale(1 1) rotate(0) translate(4 95.5)">
<title>BipedalLocomotion::RobotInterface::YarpSensorBridge</title>
<!-- Node1 -->
<g id="node1" class="node">
<title>Node1</title>
<g id="a_node1"><a xlink:title="YarpSensorBridge Yarp implementation of the ISensorBridge interface Currently available interfaces.">
<polygon fill="#bfbfbf" stroke="black" points="482,-27.5 482,-68.5 619,-68.5 619,-27.5 482,-27.5"/>
<text text-anchor="start" x="490" y="-56.5" font-family="Helvetica,sans-Serif" font-size="10.00">BipedalLocomotion::</text>
<text text-anchor="start" x="490" y="-45.5" font-family="Helvetica,sans-Serif" font-size="10.00">RobotInterface::YarpSensor</text>
<text text-anchor="middle" x="550.5" y="-34.5" font-family="Helvetica,sans-Serif" font-size="10.00">Bridge</text>
</a>
</g>
</g>
<!-- Node2 -->
<g id="node2" class="node">
<title>Node2</title>
<g id="a_node2"><a xlink:href="classBipedalLocomotion_1_1RobotInterface_1_1ISensorBridge.html" target="_top" xlink:title="Sensor bridge interface.">
<polygon fill="none" stroke="black" points="296,-61 296,-91 445,-91 445,-61 296,-61"/>
<text text-anchor="start" x="304" y="-79" font-family="Helvetica,sans-Serif" font-size="10.00">BipedalLocomotion::</text>
<text text-anchor="middle" x="370.5" y="-68" font-family="Helvetica,sans-Serif" font-size="10.00">RobotInterface::ISensorBridge</text>
</a>
</g>
</g>
<!-- Node2&#45;&gt;Node1 -->
<g id="edge1" class="edge">
<title>Node2&#45;&gt;Node1</title>
<path fill="none" stroke="midnightblue" d="M455.22,-62.83C464.15,-61.43 473.15,-60.01 481.86,-58.64"/>
<polygon fill="midnightblue" stroke="midnightblue" points="454.52,-59.4 445.18,-64.41 455.61,-66.31 454.52,-59.4"/>
</g>
<!-- Node3 -->
<g id="node3" class="node">
<title>Node3</title>
<g id="a_node3"><a xlink:href="classBipedalLocomotion_1_1System_1_1Advanceable.html" target="_top" xlink:title=" ">
<polygon fill="none" stroke="black" points="302.5,-0.5 302.5,-41.5 438.5,-41.5 438.5,-0.5 302.5,-0.5"/>
<text text-anchor="start" x="310.5" y="-29.5" font-family="Helvetica,sans-Serif" font-size="10.00">BipedalLocomotion::</text>
<text text-anchor="start" x="310.5" y="-18.5" font-family="Helvetica,sans-Serif" font-size="10.00">System::Advanceable</text>
<text text-anchor="middle" x="370.5" y="-7.5" font-family="Helvetica,sans-Serif" font-size="10.00">&lt; SensorBridgeMetaData &gt;</text>
</a>
</g>
</g>
<!-- Node3&#45;&gt;Node1 -->
<g id="edge2" class="edge">
<title>Node3&#45;&gt;Node1</title>
<path fill="none" stroke="midnightblue" d="M448.63,-32.7C459.71,-34.38 471.05,-36.1 481.93,-37.75"/>
<polygon fill="midnightblue" stroke="midnightblue" points="448.95,-29.21 438.54,-31.17 447.9,-36.13 448.95,-29.21"/>
</g>
<!-- Node4 -->
<g id="node4" class="node">
<title>Node4</title>
<g id="a_node4"><a xlink:href="classBipedalLocomotion_1_1System_1_1Advanceable.html" target="_top" xlink:title="Basic class that contains only a get() and an advance() method.">
<polygon fill="none" stroke="black" points="0,-6 0,-36 137,-36 137,-6 0,-6"/>
<text text-anchor="start" x="8" y="-24" font-family="Helvetica,sans-Serif" font-size="10.00">BipedalLocomotion::</text>
<text text-anchor="middle" x="68.5" y="-13" font-family="Helvetica,sans-Serif" font-size="10.00">System::Advanceable&lt; T &gt;</text>
</a>
</g>
</g>
<!-- Node4&#45;&gt;Node3 -->
<g id="edge3" class="edge">
<title>Node4&#45;&gt;Node3</title>
<path fill="none" stroke="orange" stroke-dasharray="5,2" d="M147.25,-21C195.3,-21 256.35,-21 302.31,-21"/>
<polygon fill="orange" stroke="orange" points="147.2,-17.5 137.2,-21 147.2,-24.5 147.2,-17.5"/>
<text text-anchor="middle" x="216.5" y="-24" font-family="Helvetica,sans-Serif" font-size="10.00"> &lt; SensorBridgeMetaData &gt;</text>
</g>
</g>
</svg>
