<?xml version="1.0" encoding="UTF-8" standalone="no"?>
<!DOCTYPE svg PUBLIC "-//W3C//DTD SVG 1.1//EN"
 "http://www.w3.org/Graphics/SVG/1.1/DTD/svg11.dtd">
<!-- Generated by graphviz version 2.43.0 (0)
 -->
<!-- Title: BipedalLocomotion::System::Advanceable&lt; T &gt; Pages: 1 -->
<!--zoomable 580 -->
<svg id="main" version="1.1" xmlns="http://www.w3.org/2000/svg" xmlns:xlink="http://www.w3.org/1999/xlink" xml:space="preserve" onload="init(evt)">
<style type="text/css"><![CDATA[
.edge:hover path { stroke: red; }
.edge:hover polygon { stroke: red; fill: red; }
]]></style>
<script type="text/javascript"><![CDATA[
var edges = document.getElementsByTagName('g');
if (edges && edges.length) {
  for (var i=0;i<edges.length;i++) {
    if (edges[i].id.substr(0,4)=='edge') {
      edges[i].setAttribute('class','edge');
    }
  }
}
]]></script>
        <defs>
                <circle id="rim" cx="0" cy="0" r="7"/>
                <circle id="rim2" cx="0" cy="0" r="3.5"/>
                <g id="zoomPlus">
                        <use xlink:href="#rim" fill="#404040">
                                <set attributeName="fill" to="#808080" begin="zoomplus.mouseover" end="zoomplus.mouseout"/>
                        </use>
                        <path d="M-4,0h8M0,-4v8" fill="none" stroke="white" stroke-width="1.5" pointer-events="none"/>
                </g>
                <g id="zoomMin">
                        <use xlink:href="#rim" fill="#404040">
                                <set attributeName="fill" to="#808080" begin="zoomminus.mouseover" end="zoomminus.mouseout"/>
                        </use>
                        <path d="M-4,0h8" fill="none" stroke="white" stroke-width="1.5" pointer-events="none"/>
                </g>
                <g id="dirArrow">
                        <path fill="none" stroke="white" stroke-width="1.5" d="M0,-3.0v7 M-2.5,-0.5L0,-3.0L2.5,-0.5"/>
                </g>
               <g id="resetDef">
                       <use xlink:href="#rim2" fill="#404040">
                               <set attributeName="fill" to="#808080" begin="reset.mouseover" end="reset.mouseout"/>
                       </use>
               </g>
        </defs>

<script type="text/javascript">
var viewWidth = 1001;
var viewHeight = 580;
var sectionId = 'dynsection-0';
</script>
<script xlink:href="svgpan.js"/>
<svg id="graph" class="graph">
<g id="viewport">
<title>BipedalLocomotion::System::Advanceable&lt; T &gt;</title>
<!-- Node1 -->
<g id="node1" class="node">
<title>Node1</title>
<g id="a_node1"><a xlink:title="Basic class that contains only a get() and an advance() method.">
<polygon fill="#bfbfbf" stroke="black" points="0,-295.5 0,-325.5 137,-325.5 137,-295.5 0,-295.5"/>
<text text-anchor="start" x="8" y="-313.5" font-family="Helvetica,sans-Serif" font-size="10.00">BipedalLocomotion::</text>
<text text-anchor="middle" x="68.5" y="-302.5" font-family="Helvetica,sans-Serif" font-size="10.00">System::Advanceable&lt; T &gt;</text>
</a>
</g>
</g>
<!-- Node2 -->
<g id="node2" class="node">
<title>Node2</title>
<g id="a_node2"><a xlink:href="classBipedalLocomotion_1_1System_1_1Advanceable.html" target="_top" xlink:title=" ">
<polygon fill="none" stroke="black" points="317,-530 317,-571 474,-571 474,-530 317,-530"/>
<text text-anchor="start" x="325" y="-559" font-family="Helvetica,sans-Serif" font-size="10.00">BipedalLocomotion::</text>
<text text-anchor="start" x="325" y="-548" font-family="Helvetica,sans-Serif" font-size="10.00">System::Advanceable</text>
<text text-anchor="middle" x="395.5" y="-537" font-family="Helvetica,sans-Serif" font-size="10.00">&lt; RecursiveLeastSquareState &gt;</text>
</a>
</g>
</g>
<!-- Node1&#45;&gt;Node2 -->
<g id="edge1" class="edge">
<title>Node1&#45;&gt;Node2</title>
<path fill="none" stroke="orange" stroke-dasharray="5,2" d="M73.91,-335.6C82.3,-375.57 104.43,-453.38 155,-494.5 200.39,-531.41 265.79,-544.85 316.78,-549.37"/>
<polygon fill="orange" stroke="orange" points="77.31,-334.75 71.94,-325.61 70.44,-336.1 77.31,-334.75"/>
<text text-anchor="middle" x="227" y="-549.5" font-family="Helvetica,sans-Serif" font-size="10.00"> &lt; RecursiveLeastSquareState &gt;</text>
</g>
<!-- Node4 -->
<g id="node4" class="node">
<title>Node4</title>
<g id="a_node4"><a xlink:href="classBipedalLocomotion_1_1System_1_1Advanceable.html" target="_top" xlink:title=" ">
<polygon fill="none" stroke="black" points="337.5,-470 337.5,-511 453.5,-511 453.5,-470 337.5,-470"/>
<text text-anchor="start" x="345.5" y="-499" font-family="Helvetica,sans-Serif" font-size="10.00">BipedalLocomotion::</text>
<text text-anchor="start" x="345.5" y="-488" font-family="Helvetica,sans-Serif" font-size="10.00">System::Advanceable</text>
<text text-anchor="middle" x="395.5" y="-477" font-family="Helvetica,sans-Serif" font-size="10.00">&lt; QuinticSplineState &gt;</text>
</a>
</g>
</g>
<!-- Node1&#45;&gt;Node4 -->
<g id="edge3" class="edge">
<title>Node1&#45;&gt;Node4</title>
<path fill="none" stroke="orange" stroke-dasharray="5,2" d="M81.14,-334.92C95.03,-361.45 120.76,-403.15 155,-426.5 209.94,-463.96 285.8,-479.51 337.32,-485.96"/>
<polygon fill="orange" stroke="orange" points="84.2,-333.23 76.56,-325.9 77.96,-336.4 84.2,-333.23"/>
<text text-anchor="middle" x="227" y="-482.5" font-family="Helvetica,sans-Serif" font-size="10.00"> &lt; QuinticSplineState &gt;</text>
</g>
<!-- Node6 -->
<g id="node6" class="node">
<title>Node6</title>
<g id="a_node6"><a xlink:href="classBipedalLocomotion_1_1System_1_1Advanceable.html" target="_top" xlink:title=" ">
<polygon fill="none" stroke="black" points="325,-410 325,-451 466,-451 466,-410 325,-410"/>
<text text-anchor="start" x="333" y="-439" font-family="Helvetica,sans-Serif" font-size="10.00">BipedalLocomotion::</text>
<text text-anchor="start" x="333" y="-428" font-family="Helvetica,sans-Serif" font-size="10.00">System::Advanceable</text>
<text text-anchor="middle" x="395.5" y="-417" font-family="Helvetica,sans-Serif" font-size="10.00">&lt; IntegrationBasedIKState &gt;</text>
</a>
</g>
</g>
<!-- Node1&#45;&gt;Node6 -->
<g id="edge5" class="edge">
<title>Node1&#45;&gt;Node6</title>
<path fill="none" stroke="orange" stroke-dasharray="5,2" d="M96.54,-331.91C112.72,-343.83 134.13,-358.12 155,-367.5 209.7,-392.1 275.9,-408.6 324.83,-418.52"/>
<polygon fill="orange" stroke="orange" points="98.22,-328.79 88.12,-325.57 94.01,-334.38 98.22,-328.79"/>
<text text-anchor="middle" x="227" y="-414.5" font-family="Helvetica,sans-Serif" font-size="10.00"> &lt; IntegrationBasedIKState &gt;</text>
</g>
<!-- Node9 -->
<g id="node9" class="node">
<title>Node9</title>
<g id="a_node9"><a xlink:href="classBipedalLocomotion_1_1System_1_1Advanceable.html" target="_top" xlink:title=" ">
<polygon fill="none" stroke="black" points="339,-350 339,-391 452,-391 452,-350 339,-350"/>
<text text-anchor="start" x="347" y="-379" font-family="Helvetica,sans-Serif" font-size="10.00">BipedalLocomotion::</text>
<text text-anchor="start" x="347" y="-368" font-family="Helvetica,sans-Serif" font-size="10.00">System::Advanceable</text>
<text text-anchor="middle" x="395.5" y="-357" font-family="Helvetica,sans-Serif" font-size="10.00">&lt; SO3PlannerState &gt;</text>
</a>
</g>
</g>
<!-- Node1&#45;&gt;Node9 -->
<g id="edge8" class="edge">
<title>Node1&#45;&gt;Node9</title>
<path fill="none" stroke="orange" stroke-dasharray="5,2" d="M147.27,-324.86C206.37,-335.77 286.23,-350.51 339,-360.25"/>
<polygon fill="orange" stroke="orange" points="147.7,-321.38 137.24,-323 146.43,-328.26 147.7,-321.38"/>
<text text-anchor="middle" x="227" y="-355.5" font-family="Helvetica,sans-Serif" font-size="10.00"> &lt; SO3PlannerState &gt;</text>
</g>
<!-- Node12 -->
<g id="node12" class="node">
<title>Node12</title>
<g id="a_node12"><a xlink:href="classBipedalLocomotion_1_1System_1_1Advanceable.html" target="_top" xlink:title=" ">
<polygon fill="none" stroke="black" points="327.5,-290 327.5,-331 463.5,-331 463.5,-290 327.5,-290"/>
<text text-anchor="start" x="335.5" y="-319" font-family="Helvetica,sans-Serif" font-size="10.00">BipedalLocomotion::</text>
<text text-anchor="start" x="335.5" y="-308" font-family="Helvetica,sans-Serif" font-size="10.00">System::Advanceable</text>
<text text-anchor="middle" x="395.5" y="-297" font-family="Helvetica,sans-Serif" font-size="10.00">&lt; SensorBridgeMetaData &gt;</text>
</a>
</g>
</g>
<!-- Node1&#45;&gt;Node12 -->
<g id="edge12" class="edge">
<title>Node1&#45;&gt;Node12</title>
<path fill="none" stroke="orange" stroke-dasharray="5,2" d="M147.27,-310.5C202.19,-310.5 275.04,-310.5 327.41,-310.5"/>
<polygon fill="orange" stroke="orange" points="147.24,-307 137.24,-310.5 147.24,-314 147.24,-307"/>
<text text-anchor="middle" x="227" y="-313.5" font-family="Helvetica,sans-Serif" font-size="10.00"> &lt; SensorBridgeMetaData &gt;</text>
</g>
<!-- Node14 -->
<g id="node14" class="node">
<title>Node14</title>
<g id="a_node14"><a xlink:href="classBipedalLocomotion_1_1System_1_1Advanceable.html" target="_top" xlink:title=" ">
<polygon fill="none" stroke="black" points="327,-230 327,-271 464,-271 464,-230 327,-230"/>
<text text-anchor="start" x="335" y="-259" font-family="Helvetica,sans-Serif" font-size="10.00">BipedalLocomotion::</text>
<text text-anchor="start" x="335" y="-248" font-family="Helvetica,sans-Serif" font-size="10.00">System::Advanceable</text>
<text text-anchor="middle" x="395.5" y="-237" font-family="Helvetica,sans-Serif" font-size="10.00">&lt; SwingFootPlannerState &gt;</text>
</a>
</g>
</g>
<!-- Node1&#45;&gt;Node14 -->
<g id="edge14" class="edge">
<title>Node1&#45;&gt;Node14</title>
<path fill="none" stroke="orange" stroke-dasharray="5,2" d="M147.24,-296.15C201.97,-286.04 274.51,-272.65 326.85,-262.99"/>
<polygon fill="orange" stroke="orange" points="146.43,-292.74 137.24,-298 147.7,-299.62 146.43,-292.74"/>
<text text-anchor="middle" x="227" y="-296.5" font-family="Helvetica,sans-Serif" font-size="10.00"> &lt; SwingFootPlannerState &gt;</text>
</g>
<!-- Node16 -->
<g id="node16" class="node">
<title>Node16</title>
<g id="a_node16"><a xlink:href="classBipedalLocomotion_1_1System_1_1Advanceable.html" target="_top" xlink:title=" ">
<polygon fill="none" stroke="black" points="331,-170 331,-211 460,-211 460,-170 331,-170"/>
<text text-anchor="start" x="339" y="-199" font-family="Helvetica,sans-Serif" font-size="10.00">BipedalLocomotion::</text>
<text text-anchor="start" x="339" y="-188" font-family="Helvetica,sans-Serif" font-size="10.00">System::Advanceable</text>
<text text-anchor="middle" x="395.5" y="-177" font-family="Helvetica,sans-Serif" font-size="10.00">&lt; EstimatedContactList &gt;</text>
</a>
</g>
</g>
<!-- Node1&#45;&gt;Node16 -->
<g id="edge16" class="edge">
<title>Node1&#45;&gt;Node16</title>
<path fill="none" stroke="orange" stroke-dasharray="5,2" d="M95.7,-289.24C111.94,-276.98 133.71,-262.13 155,-252.5 211.94,-226.75 281.52,-210.24 330.98,-200.79"/>
<polygon fill="orange" stroke="orange" points="93.52,-286.5 87.74,-295.38 97.8,-292.05 93.52,-286.5"/>
<text text-anchor="middle" x="227" y="-255.5" font-family="Helvetica,sans-Serif" font-size="10.00"> &lt; EstimatedContactList &gt;</text>
</g>
<!-- Node19 -->
<g id="node19" class="node">
<title>Node19</title>
<g id="a_node19"><a xlink:href="classBipedalLocomotion_1_1System_1_1Advanceable.html" target="_top" xlink:title=" ">
<polygon fill="none" stroke="black" points="338.5,-110 338.5,-151 452.5,-151 452.5,-110 338.5,-110"/>
<text text-anchor="start" x="346.5" y="-139" font-family="Helvetica,sans-Serif" font-size="10.00">BipedalLocomotion::</text>
<text text-anchor="start" x="346.5" y="-128" font-family="Helvetica,sans-Serif" font-size="10.00">System::Advanceable</text>
<text text-anchor="middle" x="395.5" y="-117" font-family="Helvetica,sans-Serif" font-size="10.00">&lt; DCMPlannerState &gt;</text>
</a>
</g>
</g>
<!-- Node1&#45;&gt;Node19 -->
<g id="edge19" class="edge">
<title>Node1&#45;&gt;Node19</title>
<path fill="none" stroke="orange" stroke-dasharray="5,2" d="M80.77,-286.04C94.49,-259.03 120.19,-216.24 155,-192.5 210.18,-154.87 286.69,-140.08 338.26,-134.26"/>
<polygon fill="orange" stroke="orange" points="77.53,-284.69 76.27,-295.21 83.82,-287.78 77.53,-284.69"/>
<text text-anchor="middle" x="227" y="-195.5" font-family="Helvetica,sans-Serif" font-size="10.00"> &lt; DCMPlannerState &gt;</text>
</g>
<!-- Node22 -->
<g id="node22" class="node">
<title>Node22</title>
<g id="a_node22"><a xlink:href="classBipedalLocomotion_1_1System_1_1Advanceable.html" target="_top" xlink:title=" ">
<polygon fill="none" stroke="black" points="330.5,-38.5 330.5,-90.5 460.5,-90.5 460.5,-38.5 330.5,-38.5"/>
<text text-anchor="start" x="338.5" y="-78.5" font-family="Helvetica,sans-Serif" font-size="10.00">BipedalLocomotion::</text>
<text text-anchor="start" x="338.5" y="-67.5" font-family="Helvetica,sans-Serif" font-size="10.00">System::Advanceable</text>
<text text-anchor="start" x="338.5" y="-56.5" font-family="Helvetica,sans-Serif" font-size="10.00">&lt; FloatingBaseEstimators</text>
<text text-anchor="middle" x="395.5" y="-45.5" font-family="Helvetica,sans-Serif" font-size="10.00">::Output &gt;</text>
</a>
</g>
</g>
<!-- Node1&#45;&gt;Node22 -->
<g id="edge22" class="edge">
<title>Node1&#45;&gt;Node22</title>
<path fill="none" stroke="orange" stroke-dasharray="5,2" d="M72.91,-285.31C80.05,-242.9 100.66,-157.58 155,-113.5 204.36,-73.46 277.92,-63.5 330.48,-62.12"/>
<polygon fill="orange" stroke="orange" points="69.43,-284.93 71.34,-295.35 76.34,-286.01 69.43,-284.93"/>
<text text-anchor="start" x="168.5" y="-127.5" font-family="Helvetica,sans-Serif" font-size="10.00"> &lt; FloatingBaseEstimators</text>
<text text-anchor="middle" x="227" y="-116.5" font-family="Helvetica,sans-Serif" font-size="10.00">::Output &gt;</text>
</g>
<!-- Node3 -->
<g id="node3" class="node">
<title>Node3</title>
<g id="a_node3"><a xlink:href="classBipedalLocomotion_1_1Estimators_1_1RecursiveLeastSquare.html" target="_top" xlink:title=" ">
<polygon fill="none" stroke="black" points="526.5,-530 526.5,-571 664.5,-571 664.5,-530 526.5,-530"/>
<text text-anchor="start" x="534.5" y="-559" font-family="Helvetica,sans-Serif" font-size="10.00">BipedalLocomotion::</text>
<text text-anchor="start" x="534.5" y="-548" font-family="Helvetica,sans-Serif" font-size="10.00">Estimators::RecursiveLeast</text>
<text text-anchor="middle" x="595.5" y="-537" font-family="Helvetica,sans-Serif" font-size="10.00">Square</text>
</a>
</g>
</g>
<!-- Node2&#45;&gt;Node3 -->
<g id="edge2" class="edge">
<title>Node2&#45;&gt;Node3</title>
<path fill="none" stroke="midnightblue" d="M484.37,-550.5C498.44,-550.5 512.83,-550.5 526.35,-550.5"/>
<polygon fill="midnightblue" stroke="midnightblue" points="484.19,-547 474.19,-550.5 484.19,-554 484.19,-547"/>
</g>
<!-- Node5 -->
<g id="node5" class="node">
<title>Node5</title>
<g id="a_node5"><a xlink:href="classBipedalLocomotion_1_1Planners_1_1QuinticSpline.html" target="_top" xlink:title="Quintic spline implement a 5&#45;th order polynomial spline in $f\mathbb{R}^n$f.">
<polygon fill="none" stroke="black" points="536,-480.5 536,-510.5 655,-510.5 655,-480.5 536,-480.5"/>
<text text-anchor="start" x="544" y="-498.5" font-family="Helvetica,sans-Serif" font-size="10.00">BipedalLocomotion::</text>
<text text-anchor="middle" x="595.5" y="-487.5" font-family="Helvetica,sans-Serif" font-size="10.00">Planners::QuinticSpline</text>
</a>
</g>
</g>
<!-- Node4&#45;&gt;Node5 -->
<g id="edge4" class="edge">
<title>Node4&#45;&gt;Node5</title>
<path fill="none" stroke="midnightblue" d="M463.7,-492.2C487.11,-492.79 513.17,-493.45 535.84,-494.02"/>
<polygon fill="midnightblue" stroke="midnightblue" points="463.59,-488.69 453.5,-491.94 463.41,-495.69 463.59,-488.69"/>
</g>
<!-- Node7 -->
<g id="node7" class="node">
<title>Node7</title>
<g id="a_node7"><a xlink:href="classBipedalLocomotion_1_1IK_1_1IntegrationBasedIK.html" target="_top" xlink:title="IntegrationBasedInverseKinematics implements the interface for the integration base inverse kinematic...">
<polygon fill="none" stroke="black" points="537.5,-431.5 537.5,-461.5 653.5,-461.5 653.5,-431.5 537.5,-431.5"/>
<text text-anchor="start" x="545.5" y="-449.5" font-family="Helvetica,sans-Serif" font-size="10.00">BipedalLocomotion::</text>
<text text-anchor="middle" x="595.5" y="-438.5" font-family="Helvetica,sans-Serif" font-size="10.00">IK::IntegrationBasedIK</text>
</a>
</g>
</g>
<!-- Node6&#45;&gt;Node7 -->
<g id="edge6" class="edge">
<title>Node6&#45;&gt;Node7</title>
<path fill="none" stroke="midnightblue" d="M476.26,-436.95C496.67,-438.59 518.22,-440.34 537.24,-441.87"/>
<polygon fill="midnightblue" stroke="midnightblue" points="476.28,-433.44 466.03,-436.12 475.71,-440.41 476.28,-433.44"/>
</g>
<!-- Node8 -->
<g id="node8" class="node">
<title>Node8</title>
<g id="a_node8"><a xlink:href="classBipedalLocomotion_1_1IK_1_1QPInverseKinematics.html" target="_top" xlink:title="QPInverseKinematics is a concrete class and implements an integration base inverse kinematics.">
<polygon fill="none" stroke="black" points="843.5,-431.5 843.5,-461.5 971.5,-461.5 971.5,-431.5 843.5,-431.5"/>
<text text-anchor="start" x="851.5" y="-449.5" font-family="Helvetica,sans-Serif" font-size="10.00">BipedalLocomotion::</text>
<text text-anchor="middle" x="907.5" y="-438.5" font-family="Helvetica,sans-Serif" font-size="10.00">IK::QPInverseKinematics</text>
</a>
</g>
</g>
<!-- Node7&#45;&gt;Node8 -->
<g id="edge7" class="edge">
<title>Node7&#45;&gt;Node8</title>
<path fill="none" stroke="midnightblue" d="M663.77,-446.5C717.16,-446.5 791.24,-446.5 843.48,-446.5"/>
<polygon fill="midnightblue" stroke="midnightblue" points="663.72,-443 653.72,-446.5 663.72,-450 663.72,-443"/>
</g>
<!-- Node10 -->
<g id="node10" class="node">
<title>Node10</title>
<g id="a_node10"><a xlink:href="classBipedalLocomotion_1_1Planners_1_1SO3Planner.html" target="_top" xlink:title="SO3Planner implements a minimum jerk trajectory planner for object belonging to SO(3).">
<polygon fill="none" stroke="black" points="539,-371 539,-412 652,-412 652,-371 539,-371"/>
<text text-anchor="start" x="547" y="-400" font-family="Helvetica,sans-Serif" font-size="10.00">BipedalLocomotion::</text>
<text text-anchor="start" x="547" y="-389" font-family="Helvetica,sans-Serif" font-size="10.00">Planners::SO3Planner</text>
<text text-anchor="middle" x="595.5" y="-378" font-family="Helvetica,sans-Serif" font-size="10.00">&lt; trivialization &gt;</text>
</a>
</g>
</g>
<!-- Node9&#45;&gt;Node10 -->
<g id="edge9" class="edge">
<title>Node9&#45;&gt;Node10</title>
<path fill="none" stroke="midnightblue" d="M462.25,-377.47C487.08,-380.11 515.08,-383.08 538.89,-385.6"/>
<polygon fill="midnightblue" stroke="midnightblue" points="462.49,-373.98 452.18,-376.41 461.76,-380.94 462.49,-373.98"/>
</g>
<!-- Node11 -->
<g id="node11" class="node">
<title>Node11</title>
<g id="a_node11"><a xlink:href="classBipedalLocomotion_1_1Planners_1_1SO3Planner.html" target="_top" xlink:title=" ">
<polygon fill="none" stroke="black" points="848,-338.5 848,-390.5 967,-390.5 967,-338.5 848,-338.5"/>
<text text-anchor="start" x="856" y="-378.5" font-family="Helvetica,sans-Serif" font-size="10.00">BipedalLocomotion::</text>
<text text-anchor="start" x="856" y="-367.5" font-family="Helvetica,sans-Serif" font-size="10.00">Planners::SO3Planner</text>
<text text-anchor="start" x="856" y="-356.5" font-family="Helvetica,sans-Serif" font-size="10.00">&lt; LieGroupTrivialization</text>
<text text-anchor="middle" x="907.5" y="-345.5" font-family="Helvetica,sans-Serif" font-size="10.00">::Right &gt;</text>
</a>
</g>
</g>
<!-- Node9&#45;&gt;Node11 -->
<g id="edge11" class="edge">
<title>Node9&#45;&gt;Node11</title>
<path fill="none" stroke="midnightblue" d="M462.35,-364.44C478.26,-363.22 495.23,-362.12 511,-361.5 630.56,-356.81 770.59,-359.89 847.84,-362.34"/>
<polygon fill="midnightblue" stroke="midnightblue" points="461.76,-360.97 452.07,-365.25 462.31,-367.95 461.76,-360.97"/>
</g>
<!-- Node10&#45;&gt;Node11 -->
<g id="edge10" class="edge">
<title>Node10&#45;&gt;Node11</title>
<path fill="none" stroke="orange" stroke-dasharray="5,2" d="M662.26,-385.77C717.21,-380.99 794.85,-374.22 847.74,-369.62"/>
<polygon fill="orange" stroke="orange" points="661.94,-382.29 652.28,-386.64 662.55,-389.26 661.94,-382.29"/>
<text text-anchor="start" x="698" y="-395.5" font-family="Helvetica,sans-Serif" font-size="10.00"> &lt; LieGroupTrivialization</text>
<text text-anchor="middle" x="751" y="-384.5" font-family="Helvetica,sans-Serif" font-size="10.00">::Right &gt;</text>
</g>
<!-- Node13 -->
<g id="node13" class="node">
<title>Node13</title>
<g id="a_node13"><a xlink:href="classBipedalLocomotion_1_1RobotInterface_1_1YarpSensorBridge.html" target="_top" xlink:title="YarpSensorBridge Yarp implementation of the ISensorBridge interface Currently available interfaces.">
<polygon fill="none" stroke="black" points="527,-273 527,-314 664,-314 664,-273 527,-273"/>
<text text-anchor="start" x="535" y="-302" font-family="Helvetica,sans-Serif" font-size="10.00">BipedalLocomotion::</text>
<text text-anchor="start" x="535" y="-291" font-family="Helvetica,sans-Serif" font-size="10.00">RobotInterface::YarpSensor</text>
<text text-anchor="middle" x="595.5" y="-280" font-family="Helvetica,sans-Serif" font-size="10.00">Bridge</text>
</a>
</g>
</g>
<!-- Node12&#45;&gt;Node13 -->
<g id="edge13" class="edge">
<title>Node12&#45;&gt;Node13</title>
<path fill="none" stroke="midnightblue" d="M473.73,-303.87C491.27,-302.36 509.76,-300.78 526.86,-299.31"/>
<polygon fill="midnightblue" stroke="midnightblue" points="473.2,-300.4 463.53,-304.74 473.8,-307.38 473.2,-300.4"/>
</g>
<!-- Node15 -->
<g id="node15" class="node">
<title>Node15</title>
<g id="a_node15"><a xlink:href="classBipedalLocomotion_1_1Planners_1_1SwingFootPlanner.html" target="_top" xlink:title="SwingFootPlanner implement a minimum jerk trajectory planner for the swing foot.">
<polygon fill="none" stroke="black" points="525.5,-223.5 525.5,-253.5 665.5,-253.5 665.5,-223.5 525.5,-223.5"/>
<text text-anchor="start" x="533.5" y="-241.5" font-family="Helvetica,sans-Serif" font-size="10.00">BipedalLocomotion::</text>
<text text-anchor="middle" x="595.5" y="-230.5" font-family="Helvetica,sans-Serif" font-size="10.00">Planners::SwingFootPlanner</text>
</a>
</g>
</g>
<!-- Node14&#45;&gt;Node15 -->
<g id="edge15" class="edge">
<title>Node14&#45;&gt;Node15</title>
<path fill="none" stroke="midnightblue" d="M474.4,-245.78C491.17,-244.76 508.78,-243.7 525.2,-242.7"/>
<polygon fill="midnightblue" stroke="midnightblue" points="473.86,-242.31 464.09,-246.4 474.28,-249.29 473.86,-242.31"/>
</g>
<!-- Node17 -->
<g id="node17" class="node">
<title>Node17</title>
<g id="a_node17"><a xlink:href="classBipedalLocomotion_1_1Contacts_1_1ContactDetector.html" target="_top" xlink:title=" ">
<polygon fill="none" stroke="black" points="528.5,-174.5 528.5,-204.5 662.5,-204.5 662.5,-174.5 528.5,-174.5"/>
<text text-anchor="start" x="536.5" y="-192.5" font-family="Helvetica,sans-Serif" font-size="10.00">BipedalLocomotion::</text>
<text text-anchor="middle" x="595.5" y="-181.5" font-family="Helvetica,sans-Serif" font-size="10.00">Contacts::ContactDetector</text>
</a>
</g>
</g>
<!-- Node16&#45;&gt;Node17 -->
<g id="edge17" class="edge">
<title>Node16&#45;&gt;Node17</title>
<path fill="none" stroke="midnightblue" d="M470.38,-190.13C489.45,-190.03 509.85,-189.93 528.5,-189.83"/>
<polygon fill="midnightblue" stroke="midnightblue" points="470.22,-186.63 460.24,-190.18 470.26,-193.63 470.22,-186.63"/>
</g>
<!-- Node18 -->
<g id="node18" class="node">
<title>Node18</title>
<g id="a_node18"><a xlink:href="classBipedalLocomotion_1_1Contacts_1_1SchmittTriggerDetector.html" target="_top" xlink:title="Schmitt Trigger thresholding based contact detector that maintains and updates the contact states for...">
<polygon fill="none" stroke="black" points="825.5,-174.5 825.5,-204.5 989.5,-204.5 989.5,-174.5 825.5,-174.5"/>
<text text-anchor="start" x="833.5" y="-192.5" font-family="Helvetica,sans-Serif" font-size="10.00">BipedalLocomotion::</text>
<text text-anchor="middle" x="907.5" y="-181.5" font-family="Helvetica,sans-Serif" font-size="10.00">Contacts::SchmittTriggerDetector</text>
</a>
</g>
</g>
<!-- Node17&#45;&gt;Node18 -->
<g id="edge18" class="edge">
<title>Node17&#45;&gt;Node18</title>
<path fill="none" stroke="midnightblue" d="M672.9,-189.5C719.18,-189.5 778.19,-189.5 825.31,-189.5"/>
<polygon fill="midnightblue" stroke="midnightblue" points="672.62,-186 662.62,-189.5 672.62,-193 672.62,-186"/>
</g>
<!-- Node20 -->
<g id="node20" class="node">
<title>Node20</title>
<g id="a_node20"><a xlink:href="classBipedalLocomotion_1_1Planners_1_1DCMPlanner.html" target="_top" xlink:title="DCMPlanner defines a trajectory generator for the variable height Divergent component of motion (DCM)...">
<polygon fill="none" stroke="black" points="537,-115.5 537,-145.5 654,-145.5 654,-115.5 537,-115.5"/>
<text text-anchor="start" x="545" y="-133.5" font-family="Helvetica,sans-Serif" font-size="10.00">BipedalLocomotion::</text>
<text text-anchor="middle" x="595.5" y="-122.5" font-family="Helvetica,sans-Serif" font-size="10.00">Planners::DCMPlanner</text>
</a>
</g>
</g>
<!-- Node19&#45;&gt;Node20 -->
<g id="edge20" class="edge">
<title>Node19&#45;&gt;Node20</title>
<path fill="none" stroke="midnightblue" d="M462.78,-130.5C486.75,-130.5 513.6,-130.5 536.77,-130.5"/>
<polygon fill="midnightblue" stroke="midnightblue" points="462.71,-127 452.71,-130.5 462.71,-134 462.71,-127"/>
</g>
<!-- Node21 -->
<g id="node21" class="node">
<title>Node21</title>
<g id="a_node21"><a xlink:href="classBipedalLocomotion_1_1Planners_1_1TimeVaryingDCMPlanner.html" target="_top" xlink:title="DCMPlanner defines a trajectory generator for the variable height Divergent component of motion (DCM)...">
<polygon fill="none" stroke="black" points="822,-115.5 822,-145.5 993,-145.5 993,-115.5 822,-115.5"/>
<text text-anchor="start" x="830" y="-133.5" font-family="Helvetica,sans-Serif" font-size="10.00">BipedalLocomotion::</text>
<text text-anchor="middle" x="907.5" y="-122.5" font-family="Helvetica,sans-Serif" font-size="10.00">Planners::TimeVaryingDCMPlanner</text>
</a>
</g>
</g>
<!-- Node20&#45;&gt;Node21 -->
<g id="edge21" class="edge">
<title>Node20&#45;&gt;Node21</title>
<path fill="none" stroke="midnightblue" d="M664.3,-130.5C710.58,-130.5 772.21,-130.5 821.73,-130.5"/>
<polygon fill="midnightblue" stroke="midnightblue" points="664.08,-127 654.08,-130.5 664.08,-134 664.08,-127"/>
</g>
<!-- Node23 -->
<g id="node23" class="node">
<title>Node23</title>
<g id="a_node23"><a xlink:href="classBipedalLocomotion_1_1Estimators_1_1FloatingBaseEstimator.html" target="_top" xlink:title="FloatingBaseEstimator class contains the bare&#45;bones implementation for a LeggedOdometry based or Exte...">
<polygon fill="none" stroke="black" points="511,-49.5 511,-79.5 680,-79.5 680,-49.5 511,-49.5"/>
<text text-anchor="start" x="519" y="-67.5" font-family="Helvetica,sans-Serif" font-size="10.00">BipedalLocomotion::</text>
<text text-anchor="middle" x="595.5" y="-56.5" font-family="Helvetica,sans-Serif" font-size="10.00">Estimators::FloatingBaseEstimator</text>
</a>
</g>
</g>
<!-- Node22&#45;&gt;Node23 -->
<g id="edge23" class="edge">
<title>Node22&#45;&gt;Node23</title>
<path fill="none" stroke="midnightblue" d="M470.83,-64.5C483.89,-64.5 497.56,-64.5 510.85,-64.5"/>
<polygon fill="midnightblue" stroke="midnightblue" points="470.51,-61 460.51,-64.5 470.51,-68 470.51,-61"/>
</g>
<!-- Node24 -->
<g id="node24" class="node">
<title>Node24</title>
<g id="a_node24"><a xlink:href="classBipedalLocomotion_1_1Estimators_1_1InvariantEKFBaseEstimator.html" target="_top" xlink:title="InvariantEKFBaseEstimator class implements the Contact Aided Invariant EKF algorithm,...">
<polygon fill="none" stroke="black" points="833,-50 833,-91 982,-91 982,-50 833,-50"/>
<text text-anchor="start" x="841" y="-79" font-family="Helvetica,sans-Serif" font-size="10.00">BipedalLocomotion::</text>
<text text-anchor="start" x="841" y="-68" font-family="Helvetica,sans-Serif" font-size="10.00">Estimators::InvariantEKFBase</text>
<text text-anchor="middle" x="907.5" y="-57" font-family="Helvetica,sans-Serif" font-size="10.00">Estimator</text>
</a>
</g>
</g>
<!-- Node23&#45;&gt;Node24 -->
<g id="edge24" class="edge">
<title>Node23&#45;&gt;Node24</title>
<path fill="none" stroke="midnightblue" d="M690.59,-66.32C736.23,-67.2 790.25,-68.25 832.84,-69.07"/>
<polygon fill="midnightblue" stroke="midnightblue" points="690.46,-62.82 680.39,-66.12 690.32,-69.82 690.46,-62.82"/>
</g>
<!-- Node25 -->
<g id="node25" class="node">
<title>Node25</title>
<g id="a_node25"><a xlink:href="classBipedalLocomotion_1_1Estimators_1_1LeggedOdometry.html" target="_top" xlink:title="Floating base estimation algorithm using only kinematic measurements by assuming atleast one frame on...">
<polygon fill="none" stroke="black" points="835.5,-0.5 835.5,-30.5 979.5,-30.5 979.5,-0.5 835.5,-0.5"/>
<text text-anchor="start" x="843.5" y="-18.5" font-family="Helvetica,sans-Serif" font-size="10.00">BipedalLocomotion::</text>
<text text-anchor="middle" x="907.5" y="-7.5" font-family="Helvetica,sans-Serif" font-size="10.00">Estimators::LeggedOdometry</text>
</a>
</g>
</g>
<!-- Node23&#45;&gt;Node25 -->
<g id="edge25" class="edge">
<title>Node23&#45;&gt;Node25</title>
<path fill="none" stroke="midnightblue" d="M690.5,-49.64C737.08,-42.28 792.41,-33.53 835.41,-26.74"/>
<polygon fill="midnightblue" stroke="midnightblue" points="689.72,-46.22 680.39,-51.24 690.81,-53.14 689.72,-46.22"/>
</g>
</g>
</svg>
        <g id="navigator" transform="translate(0 0)" fill="#404254">
                <rect fill="#f2f5e9" fill-opacity="0.5" stroke="#606060" stroke-width=".5" x="0" y="0" width="60" height="60"/>
                <use id="zoomplus" xlink:href="#zoomPlus" x="17" y="9" onmousedown="handleZoom(evt,'in')"/>
                <use id="zoomminus" xlink:href="#zoomMin" x="42" y="9" onmousedown="handleZoom(evt,'out')"/>
                <use id="reset" xlink:href="#resetDef" x="30" y="36" onmousedown="handleReset()"/>
                <g id="arrowUp" xlink:href="#dirArrow" transform="translate(30 24)" onmousedown="handlePan(0,-1)">
                  <use xlink:href="#rim" fill="#404040">
                        <set attributeName="fill" to="#808080" begin="arrowUp.mouseover" end="arrowUp.mouseout"/>
                  </use>
                  <path fill="none" stroke="white" stroke-width="1.5" d="M0,-3.0v7 M-2.5,-0.5L0,-3.0L2.5,-0.5"/>
                </g>
                <g id="arrowRight" xlink:href="#dirArrow" transform="rotate(90) translate(36 -43)" onmousedown="handlePan(1,0)">
                  <use xlink:href="#rim" fill="#404040">
                        <set attributeName="fill" to="#808080" begin="arrowRight.mouseover" end="arrowRight.mouseout"/>
                  </use>
                  <path fill="none" stroke="white" stroke-width="1.5" d="M0,-3.0v7 M-2.5,-0.5L0,-3.0L2.5,-0.5"/>
                </g>
                <g id="arrowDown" xlink:href="#dirArrow" transform="rotate(180) translate(-30 -48)" onmousedown="handlePan(0,1)">
                  <use xlink:href="#rim" fill="#404040">
                        <set attributeName="fill" to="#808080" begin="arrowDown.mouseover" end="arrowDown.mouseout"/>
                  </use>
                  <path fill="none" stroke="white" stroke-width="1.5" d="M0,-3.0v7 M-2.5,-0.5L0,-3.0L2.5,-0.5"/>
                </g>
                <g id="arrowLeft" xlink:href="#dirArrow" transform="rotate(270) translate(-36 17)" onmousedown="handlePan(-1,0)">
                  <use xlink:href="#rim" fill="#404040">
                        <set attributeName="fill" to="#808080" begin="arrowLeft.mouseover" end="arrowLeft.mouseout"/>
                  </use>
                  <path fill="none" stroke="white" stroke-width="1.5" d="M0,-3.0v7 M-2.5,-0.5L0,-3.0L2.5,-0.5"/>
                </g>
        </g>
        <svg viewBox="0 0 15 15" width="100%" height="30px" preserveAspectRatio="xMaxYMin meet">
         <g id="arrow_out" transform="scale(0.3 0.3)">
          <a xlink:href="classBipedalLocomotion_1_1System_1_1Advanceable__inherit__graph_org.svg" target="_base">
           <rect id="button" ry="5" rx="5" y="6" x="6" height="38" width="38"
                fill="#f2f5e9" fill-opacity="0.5" stroke="#606060" stroke-width="1.0"/>
           <path id="arrow"
             d="M 11.500037,31.436501 C 11.940474,20.09759 22.043105,11.32322 32.158766,21.979434 L 37.068811,17.246167 C 37.068811,17.246167 37.088388,32 37.088388,32 L 22.160133,31.978069 C 22.160133,31.978069 26.997745,27.140456 26.997745,27.140456 C 18.528582,18.264221 13.291696,25.230495 11.500037,31.436501 z"
             style="fill:#404040;"/>
          </a>
         </g>
        </svg>
</svg>
