<?xml version="1.0" encoding="UTF-8" standalone="no"?>
<!DOCTYPE svg PUBLIC "-//W3C//DTD SVG 1.1//EN"
 "http://www.w3.org/Graphics/SVG/1.1/DTD/svg11.dtd">
<!-- Generated by graphviz version 2.43.0 (0)
 -->
<!-- Title: BipedalLocomotion::Planners::DCMPlanner Pages: 1 -->
<svg width="195pt" height="264pt"
 viewBox="0.00 0.00 194.50 264.00" xmlns="http://www.w3.org/2000/svg" xmlns:xlink="http://www.w3.org/1999/xlink">
<g id="graph0" class="graph" transform="scale(1 1) rotate(0) translate(4 260)">
<title>BipedalLocomotion::Planners::DCMPlanner</title>
<!-- Node1 -->
<g id="node1" class="node">
<title>Node1</title>
<g id="a_node1"><a xlink:title="DCMPlanner defines a trajectory generator for the variable height Divergent component of motion (DCM)...">
<polygon fill="#bfbfbf" stroke="black" points="27,-68.5 27,-98.5 144,-98.5 144,-68.5 27,-68.5"/>
<text text-anchor="start" x="35" y="-86.5" font-family="Helvetica,sans-Serif" font-size="10.00">BipedalLocomotion::</text>
<text text-anchor="middle" x="85.5" y="-75.5" font-family="Helvetica,sans-Serif" font-size="10.00">Planners::DCMPlanner</text>
</a>
</g>
</g>
<!-- Node4 -->
<g id="node4" class="node">
<title>Node4</title>
<g id="a_node4"><a xlink:href="classBipedalLocomotion_1_1Planners_1_1TimeVaryingDCMPlanner.html" target="_top" xlink:title="DCMPlanner defines a trajectory generator for the variable height Divergent component of motion (DCM)...">
<polygon fill="none" stroke="black" points="0,-0.5 0,-30.5 171,-30.5 171,-0.5 0,-0.5"/>
<text text-anchor="start" x="8" y="-18.5" font-family="Helvetica,sans-Serif" font-size="10.00">BipedalLocomotion::</text>
<text text-anchor="middle" x="85.5" y="-7.5" font-family="Helvetica,sans-Serif" font-size="10.00">Planners::TimeVaryingDCMPlanner</text>
</a>
</g>
</g>
<!-- Node1&#45;&gt;Node4 -->
<g id="edge3" class="edge">
<title>Node1&#45;&gt;Node4</title>
<path fill="none" stroke="midnightblue" d="M85.5,-58.03C85.5,-48.86 85.5,-38.74 85.5,-30.79"/>
<polygon fill="midnightblue" stroke="midnightblue" points="82,-58.18 85.5,-68.18 89,-58.18 82,-58.18"/>
</g>
<!-- Node2 -->
<g id="node2" class="node">
<title>Node2</title>
<g id="a_node2"><a xlink:href="classBipedalLocomotion_1_1System_1_1Advanceable.html" target="_top" xlink:title=" ">
<polygon fill="none" stroke="black" points="28.5,-136.5 28.5,-177.5 142.5,-177.5 142.5,-136.5 28.5,-136.5"/>
<text text-anchor="start" x="36.5" y="-165.5" font-family="Helvetica,sans-Serif" font-size="10.00">BipedalLocomotion::</text>
<text text-anchor="start" x="36.5" y="-154.5" font-family="Helvetica,sans-Serif" font-size="10.00">System::Advanceable</text>
<text text-anchor="middle" x="85.5" y="-143.5" font-family="Helvetica,sans-Serif" font-size="10.00">&lt; DCMPlannerState &gt;</text>
</a>
</g>
</g>
<!-- Node2&#45;&gt;Node1 -->
<g id="edge1" class="edge">
<title>Node2&#45;&gt;Node1</title>
<path fill="none" stroke="midnightblue" d="M85.5,-126.16C85.5,-116.69 85.5,-106.65 85.5,-98.8"/>
<polygon fill="midnightblue" stroke="midnightblue" points="82,-126.46 85.5,-136.46 89,-126.46 82,-126.46"/>
</g>
<!-- Node3 -->
<g id="node3" class="node">
<title>Node3</title>
<g id="a_node3"><a xlink:href="classBipedalLocomotion_1_1System_1_1Advanceable.html" target="_top" xlink:title="Basic class that contains only a get() and an advance() method.">
<polygon fill="none" stroke="black" points="17,-225.5 17,-255.5 154,-255.5 154,-225.5 17,-225.5"/>
<text text-anchor="start" x="25" y="-243.5" font-family="Helvetica,sans-Serif" font-size="10.00">BipedalLocomotion::</text>
<text text-anchor="middle" x="85.5" y="-232.5" font-family="Helvetica,sans-Serif" font-size="10.00">System::Advanceable&lt; T &gt;</text>
</a>
</g>
</g>
<!-- Node3&#45;&gt;Node2 -->
<g id="edge2" class="edge">
<title>Node3&#45;&gt;Node2</title>
<path fill="none" stroke="orange" stroke-dasharray="5,2" d="M85.5,-215.07C85.5,-203.06 85.5,-188.79 85.5,-177.53"/>
<polygon fill="orange" stroke="orange" points="82,-215.3 85.5,-225.3 89,-215.3 82,-215.3"/>
<text text-anchor="middle" x="136" y="-199" font-family="Helvetica,sans-Serif" font-size="10.00"> &lt; DCMPlannerState &gt;</text>
</g>
</g>
</svg>
