<?xml version="1.0" encoding="UTF-8" standalone="no"?>
<!DOCTYPE svg PUBLIC "-//W3C//DTD SVG 1.1//EN"
 "http://www.w3.org/Graphics/SVG/1.1/DTD/svg11.dtd">
<!-- Generated by graphviz version 2.43.0 (0)
 -->
<!-- Title: BipedalLocomotion::Estimators::InvariantEKFBaseEstimator Pages: 1 -->
<svg width="210pt" height="297pt"
 viewBox="0.00 0.00 209.50 297.00" xmlns="http://www.w3.org/2000/svg" xmlns:xlink="http://www.w3.org/1999/xlink">
<g id="graph0" class="graph" transform="scale(1 1) rotate(0) translate(4 293)">
<title>BipedalLocomotion::Estimators::InvariantEKFBaseEstimator</title>
<!-- Node1 -->
<g id="node1" class="node">
<title>Node1</title>
<g id="a_node1"><a xlink:title="InvariantEKFBaseEstimator class implements the Contact Aided Invariant EKF algorithm,...">
<polygon fill="#bfbfbf" stroke="black" points="10,-0.5 10,-41.5 159,-41.5 159,-0.5 10,-0.5"/>
<text text-anchor="start" x="18" y="-29.5" font-family="Helvetica,sans-Serif" font-size="10.00">BipedalLocomotion::</text>
<text text-anchor="start" x="18" y="-18.5" font-family="Helvetica,sans-Serif" font-size="10.00">Estimators::InvariantEKFBase</text>
<text text-anchor="middle" x="84.5" y="-7.5" font-family="Helvetica,sans-Serif" font-size="10.00">Estimator</text>
</a>
</g>
</g>
<!-- Node2 -->
<g id="node2" class="node">
<title>Node2</title>
<g id="a_node2"><a xlink:href="classBipedalLocomotion_1_1Estimators_1_1FloatingBaseEstimator.html" target="_top" xlink:title="FloatingBaseEstimator class contains the bare&#45;bones implementation for a LeggedOdometry based or Exte...">
<polygon fill="none" stroke="black" points="0,-79.5 0,-109.5 169,-109.5 169,-79.5 0,-79.5"/>
<text text-anchor="start" x="8" y="-97.5" font-family="Helvetica,sans-Serif" font-size="10.00">BipedalLocomotion::</text>
<text text-anchor="middle" x="84.5" y="-86.5" font-family="Helvetica,sans-Serif" font-size="10.00">Estimators::FloatingBaseEstimator</text>
</a>
</g>
</g>
<!-- Node2&#45;&gt;Node1 -->
<g id="edge1" class="edge">
<title>Node2&#45;&gt;Node1</title>
<path fill="none" stroke="midnightblue" d="M84.5,-69.1C84.5,-60.1 84.5,-50.02 84.5,-41.51"/>
<polygon fill="midnightblue" stroke="midnightblue" points="81,-69.37 84.5,-79.37 88,-69.37 81,-69.37"/>
</g>
<!-- Node3 -->
<g id="node3" class="node">
<title>Node3</title>
<g id="a_node3"><a xlink:href="classBipedalLocomotion_1_1System_1_1Advanceable.html" target="_top" xlink:title=" ">
<polygon fill="none" stroke="black" points="19.5,-147.5 19.5,-199.5 149.5,-199.5 149.5,-147.5 19.5,-147.5"/>
<text text-anchor="start" x="27.5" y="-187.5" font-family="Helvetica,sans-Serif" font-size="10.00">BipedalLocomotion::</text>
<text text-anchor="start" x="27.5" y="-176.5" font-family="Helvetica,sans-Serif" font-size="10.00">System::Advanceable</text>
<text text-anchor="start" x="27.5" y="-165.5" font-family="Helvetica,sans-Serif" font-size="10.00">&lt; FloatingBaseEstimators</text>
<text text-anchor="middle" x="84.5" y="-154.5" font-family="Helvetica,sans-Serif" font-size="10.00">::Output &gt;</text>
</a>
</g>
</g>
<!-- Node3&#45;&gt;Node2 -->
<g id="edge2" class="edge">
<title>Node3&#45;&gt;Node2</title>
<path fill="none" stroke="midnightblue" d="M84.5,-137.03C84.5,-127.38 84.5,-117.47 84.5,-109.75"/>
<polygon fill="midnightblue" stroke="midnightblue" points="81,-137.29 84.5,-147.29 88,-137.29 81,-137.29"/>
</g>
<!-- Node4 -->
<g id="node4" class="node">
<title>Node4</title>
<g id="a_node4"><a xlink:href="classBipedalLocomotion_1_1System_1_1Advanceable.html" target="_top" xlink:title="Basic class that contains only a get() and an advance() method.">
<polygon fill="none" stroke="black" points="16,-258.5 16,-288.5 153,-288.5 153,-258.5 16,-258.5"/>
<text text-anchor="start" x="24" y="-276.5" font-family="Helvetica,sans-Serif" font-size="10.00">BipedalLocomotion::</text>
<text text-anchor="middle" x="84.5" y="-265.5" font-family="Helvetica,sans-Serif" font-size="10.00">System::Advanceable&lt; T &gt;</text>
</a>
</g>
</g>
<!-- Node4&#45;&gt;Node3 -->
<g id="edge3" class="edge">
<title>Node4&#45;&gt;Node3</title>
<path fill="none" stroke="orange" stroke-dasharray="5,2" d="M84.5,-248.06C84.5,-233.25 84.5,-214.41 84.5,-199.51"/>
<polygon fill="orange" stroke="orange" points="81,-248.46 84.5,-258.46 88,-248.46 81,-248.46"/>
<text text-anchor="start" x="84.5" y="-232" font-family="Helvetica,sans-Serif" font-size="10.00"> &lt; FloatingBaseEstimators</text>
<text text-anchor="middle" x="143" y="-221" font-family="Helvetica,sans-Serif" font-size="10.00">::Output &gt;</text>
</g>
</g>
</svg>
