<?xml version="1.0" encoding="UTF-8" standalone="no"?>
<!DOCTYPE svg PUBLIC "-//W3C//DTD SVG 1.1//EN"
 "http://www.w3.org/Graphics/SVG/1.1/DTD/svg11.dtd">
<!-- Generated by graphviz version 2.43.0 (0)
 -->
<!-- Title: BipedalLocomotion::TSID::Task Pages: 1 -->
<svg width="286pt" height="186pt"
 viewBox="0.00 0.00 286.00 186.00" xmlns="http://www.w3.org/2000/svg" xmlns:xlink="http://www.w3.org/1999/xlink">
<g id="graph0" class="graph" transform="scale(1 1) rotate(0) translate(4 182)">
<title>BipedalLocomotion::TSID::Task</title>
<!-- Node1 -->
<g id="node1" class="node">
<title>Node1</title>
<g id="a_node1"><a xlink:title="Task describes a control problem element.">
<polygon fill="#bfbfbf" stroke="black" points="0,-73.5 0,-103.5 105,-103.5 105,-73.5 0,-73.5"/>
<text text-anchor="start" x="8" y="-91.5" font-family="Helvetica,sans-Serif" font-size="10.00">BipedalLocomotion::</text>
<text text-anchor="middle" x="52.5" y="-80.5" font-family="Helvetica,sans-Serif" font-size="10.00">TSID::Task</text>
</a>
</g>
</g>
<!-- Node2 -->
<g id="node2" class="node">
<title>Node2</title>
<g id="a_node2"><a xlink:href="classBipedalLocomotion_1_1TSID_1_1BaseDynamicsTask.html" target="_top" xlink:title="BaseDynamicsTask is a concrete implementation of the Task.">
<polygon fill="none" stroke="black" points="142.5,-147.5 142.5,-177.5 276.5,-177.5 276.5,-147.5 142.5,-147.5"/>
<text text-anchor="start" x="150.5" y="-165.5" font-family="Helvetica,sans-Serif" font-size="10.00">BipedalLocomotion::</text>
<text text-anchor="middle" x="209.5" y="-154.5" font-family="Helvetica,sans-Serif" font-size="10.00">TSID::BaseDynamicsTask</text>
</a>
</g>
</g>
<!-- Node1&#45;&gt;Node2 -->
<g id="edge1" class="edge">
<title>Node1&#45;&gt;Node2</title>
<path fill="none" stroke="midnightblue" d="M85.96,-108.88C102.14,-118.57 122.22,-129.88 141,-138.5 147.89,-141.67 155.34,-144.68 162.67,-147.45"/>
<polygon fill="midnightblue" stroke="midnightblue" points="87.77,-105.89 77.4,-103.7 84.14,-111.88 87.77,-105.89"/>
</g>
<!-- Node3 -->
<g id="node3" class="node">
<title>Node3</title>
<g id="a_node3"><a xlink:href="classBipedalLocomotion_1_1TSID_1_1JointsDynamicsTask.html" target="_top" xlink:title="JointsDynamicsTask is a concrete implementation of the Task.">
<polygon fill="none" stroke="black" points="141,-98.5 141,-128.5 278,-128.5 278,-98.5 141,-98.5"/>
<text text-anchor="start" x="149" y="-116.5" font-family="Helvetica,sans-Serif" font-size="10.00">BipedalLocomotion::</text>
<text text-anchor="middle" x="209.5" y="-105.5" font-family="Helvetica,sans-Serif" font-size="10.00">TSID::JointsDynamicsTask</text>
</a>
</g>
</g>
<!-- Node1&#45;&gt;Node3 -->
<g id="edge2" class="edge">
<title>Node1&#45;&gt;Node3</title>
<path fill="none" stroke="midnightblue" d="M115.23,-98.46C123.65,-99.81 132.32,-101.21 140.84,-102.59"/>
<polygon fill="midnightblue" stroke="midnightblue" points="115.54,-94.96 105.11,-96.82 114.43,-101.87 115.54,-94.96"/>
</g>
<!-- Node4 -->
<g id="node4" class="node">
<title>Node4</title>
<g id="a_node4"><a xlink:href="classBipedalLocomotion_1_1TSID_1_1JointsTrackingTask.html" target="_top" xlink:title="JointsTrackingTask is a concrete implementation of the Task.">
<polygon fill="none" stroke="black" points="144,-49.5 144,-79.5 275,-79.5 275,-49.5 144,-49.5"/>
<text text-anchor="start" x="152" y="-67.5" font-family="Helvetica,sans-Serif" font-size="10.00">BipedalLocomotion::</text>
<text text-anchor="middle" x="209.5" y="-56.5" font-family="Helvetica,sans-Serif" font-size="10.00">TSID::JointsTrackingTask</text>
</a>
</g>
</g>
<!-- Node1&#45;&gt;Node4 -->
<g id="edge3" class="edge">
<title>Node1&#45;&gt;Node4</title>
<path fill="none" stroke="midnightblue" d="M115.19,-78.95C124.62,-77.49 134.38,-75.98 143.88,-74.51"/>
<polygon fill="midnightblue" stroke="midnightblue" points="114.46,-75.52 105.11,-80.51 115.53,-82.44 114.46,-75.52"/>
</g>
<!-- Node5 -->
<g id="node5" class="node">
<title>Node5</title>
<g id="a_node5"><a xlink:href="classBipedalLocomotion_1_1TSID_1_1SE3Task.html" target="_top" xlink:title="SE3Task is a concrete implementation of the OptimalControlElement.">
<polygon fill="none" stroke="black" points="157,-0.5 157,-30.5 262,-30.5 262,-0.5 157,-0.5"/>
<text text-anchor="start" x="165" y="-18.5" font-family="Helvetica,sans-Serif" font-size="10.00">BipedalLocomotion::</text>
<text text-anchor="middle" x="209.5" y="-7.5" font-family="Helvetica,sans-Serif" font-size="10.00">TSID::SE3Task</text>
</a>
</g>
</g>
<!-- Node1&#45;&gt;Node5 -->
<g id="edge4" class="edge">
<title>Node1&#45;&gt;Node5</title>
<path fill="none" stroke="midnightblue" d="M87.59,-68.27C103.54,-59.21 122.95,-48.74 141,-40.5 148.62,-37.02 156.87,-33.65 164.91,-30.57"/>
<polygon fill="midnightblue" stroke="midnightblue" points="85.57,-65.4 78.65,-73.42 89.06,-71.47 85.57,-65.4"/>
</g>
</g>
</svg>
