<?xml version="1.0" encoding="UTF-8" standalone="no"?>
<!DOCTYPE svg PUBLIC "-//W3C//DTD SVG 1.1//EN"
 "http://www.w3.org/Graphics/SVG/1.1/DTD/svg11.dtd">
<!-- Generated by graphviz version 2.43.0 (0)
 -->
<!-- Title: BipedalLocomotion::Planners::SwingFootPlanner Pages: 1 -->
<svg width="202pt" height="196pt"
 viewBox="0.00 0.00 202.00 196.00" xmlns="http://www.w3.org/2000/svg" xmlns:xlink="http://www.w3.org/1999/xlink">
<g id="graph0" class="graph" transform="scale(1 1) rotate(0) translate(4 192)">
<title>BipedalLocomotion::Planners::SwingFootPlanner</title>
<!-- Node1 -->
<g id="node1" class="node">
<title>Node1</title>
<g id="a_node1"><a xlink:title="SwingFootPlanner implement a minimum jerk trajectory planner for the swing foot.">
<polygon fill="#bfbfbf" stroke="black" points="0,-0.5 0,-30.5 140,-30.5 140,-0.5 0,-0.5"/>
<text text-anchor="start" x="8" y="-18.5" font-family="Helvetica,sans-Serif" font-size="10.00">BipedalLocomotion::</text>
<text text-anchor="middle" x="70" y="-7.5" font-family="Helvetica,sans-Serif" font-size="10.00">Planners::SwingFootPlanner</text>
</a>
</g>
</g>
<!-- Node2 -->
<g id="node2" class="node">
<title>Node2</title>
<g id="a_node2"><a xlink:href="classBipedalLocomotion_1_1System_1_1Advanceable.html" target="_top" xlink:title=" ">
<polygon fill="none" stroke="black" points="1.5,-68.5 1.5,-109.5 138.5,-109.5 138.5,-68.5 1.5,-68.5"/>
<text text-anchor="start" x="9.5" y="-97.5" font-family="Helvetica,sans-Serif" font-size="10.00">BipedalLocomotion::</text>
<text text-anchor="start" x="9.5" y="-86.5" font-family="Helvetica,sans-Serif" font-size="10.00">System::Advanceable</text>
<text text-anchor="middle" x="70" y="-75.5" font-family="Helvetica,sans-Serif" font-size="10.00">&lt; SwingFootPlannerState &gt;</text>
</a>
</g>
</g>
<!-- Node2&#45;&gt;Node1 -->
<g id="edge1" class="edge">
<title>Node2&#45;&gt;Node1</title>
<path fill="none" stroke="midnightblue" d="M70,-58.16C70,-48.69 70,-38.65 70,-30.8"/>
<polygon fill="midnightblue" stroke="midnightblue" points="66.5,-58.46 70,-68.46 73.5,-58.46 66.5,-58.46"/>
</g>
<!-- Node3 -->
<g id="node3" class="node">
<title>Node3</title>
<g id="a_node3"><a xlink:href="classBipedalLocomotion_1_1System_1_1Advanceable.html" target="_top" xlink:title="Basic class that contains only a get() and an advance() method.">
<polygon fill="none" stroke="black" points="1.5,-157.5 1.5,-187.5 138.5,-187.5 138.5,-157.5 1.5,-157.5"/>
<text text-anchor="start" x="9.5" y="-175.5" font-family="Helvetica,sans-Serif" font-size="10.00">BipedalLocomotion::</text>
<text text-anchor="middle" x="70" y="-164.5" font-family="Helvetica,sans-Serif" font-size="10.00">System::Advanceable&lt; T &gt;</text>
</a>
</g>
</g>
<!-- Node3&#45;&gt;Node2 -->
<g id="edge2" class="edge">
<title>Node3&#45;&gt;Node2</title>
<path fill="none" stroke="orange" stroke-dasharray="5,2" d="M70,-147.07C70,-135.06 70,-120.79 70,-109.53"/>
<polygon fill="orange" stroke="orange" points="66.5,-147.3 70,-157.3 73.5,-147.3 66.5,-147.3"/>
<text text-anchor="middle" x="132" y="-131" font-family="Helvetica,sans-Serif" font-size="10.00"> &lt; SwingFootPlannerState &gt;</text>
</g>
</g>
</svg>
