<?xml version="1.0" encoding="UTF-8" standalone="no"?>
<!DOCTYPE svg PUBLIC "-//W3C//DTD SVG 1.1//EN"
 "http://www.w3.org/Graphics/SVG/1.1/DTD/svg11.dtd">
<!-- Generated by graphviz version 2.43.0 (0)
 -->
<!-- Title: BipedalLocomotion::Estimators::FloatingBaseEstimator Pages: 1 -->
<svg width="820pt" height="100pt"
 viewBox="0.00 0.00 820.00 99.50" xmlns="http://www.w3.org/2000/svg" xmlns:xlink="http://www.w3.org/1999/xlink">
<g id="graph0" class="graph" transform="scale(1 1) rotate(0) translate(4 95.5)">
<title>BipedalLocomotion::Estimators::FloatingBaseEstimator</title>
<!-- Node1 -->
<g id="node1" class="node">
<title>Node1</title>
<g id="a_node1"><a xlink:title="FloatingBaseEstimator class contains the bare&#45;bones implementation for a LeggedOdometry based or Exte...">
<polygon fill="#bfbfbf" stroke="black" points="457,-27.5 457,-57.5 626,-57.5 626,-27.5 457,-27.5"/>
<text text-anchor="start" x="465" y="-45.5" font-family="Helvetica,sans-Serif" font-size="10.00">BipedalLocomotion::</text>
<text text-anchor="middle" x="541.5" y="-34.5" font-family="Helvetica,sans-Serif" font-size="10.00">Estimators::FloatingBaseEstimator</text>
</a>
</g>
</g>
<!-- Node4 -->
<g id="node4" class="node">
<title>Node4</title>
<g id="a_node4"><a xlink:href="classBipedalLocomotion_1_1Estimators_1_1InvariantEKFBaseEstimator.html" target="_top" xlink:title="InvariantEKFBaseEstimator class implements the Contact Aided Invariant EKF algorithm,...">
<polygon fill="none" stroke="black" points="663,-50 663,-91 812,-91 812,-50 663,-50"/>
<text text-anchor="start" x="671" y="-79" font-family="Helvetica,sans-Serif" font-size="10.00">BipedalLocomotion::</text>
<text text-anchor="start" x="671" y="-68" font-family="Helvetica,sans-Serif" font-size="10.00">Estimators::InvariantEKFBase</text>
<text text-anchor="middle" x="737.5" y="-57" font-family="Helvetica,sans-Serif" font-size="10.00">Estimator</text>
</a>
</g>
</g>
<!-- Node1&#45;&gt;Node4 -->
<g id="edge3" class="edge">
<title>Node1&#45;&gt;Node4</title>
<path fill="none" stroke="midnightblue" d="M636.24,-56.03C645.18,-57.32 654.15,-58.61 662.86,-59.87"/>
<polygon fill="midnightblue" stroke="midnightblue" points="636.58,-52.54 626.18,-54.58 635.58,-59.47 636.58,-52.54"/>
</g>
<!-- Node5 -->
<g id="node5" class="node">
<title>Node5</title>
<g id="a_node5"><a xlink:href="classBipedalLocomotion_1_1Estimators_1_1LeggedOdometry.html" target="_top" xlink:title="Floating base estimation algorithm using only kinematic measurements by assuming atleast one frame on...">
<polygon fill="none" stroke="black" points="665.5,-0.5 665.5,-30.5 809.5,-30.5 809.5,-0.5 665.5,-0.5"/>
<text text-anchor="start" x="673.5" y="-18.5" font-family="Helvetica,sans-Serif" font-size="10.00">BipedalLocomotion::</text>
<text text-anchor="middle" x="737.5" y="-7.5" font-family="Helvetica,sans-Serif" font-size="10.00">Estimators::LeggedOdometry</text>
</a>
</g>
</g>
<!-- Node1&#45;&gt;Node5 -->
<g id="edge4" class="edge">
<title>Node1&#45;&gt;Node5</title>
<path fill="none" stroke="midnightblue" d="M636.3,-29.44C646.05,-28.09 655.83,-26.73 665.27,-25.41"/>
<polygon fill="midnightblue" stroke="midnightblue" points="635.6,-26.01 626.18,-30.85 636.57,-32.94 635.6,-26.01"/>
</g>
<!-- Node2 -->
<g id="node2" class="node">
<title>Node2</title>
<g id="a_node2"><a xlink:href="classBipedalLocomotion_1_1System_1_1Advanceable.html" target="_top" xlink:title=" ">
<polygon fill="none" stroke="black" points="290,-16.5 290,-68.5 420,-68.5 420,-16.5 290,-16.5"/>
<text text-anchor="start" x="298" y="-56.5" font-family="Helvetica,sans-Serif" font-size="10.00">BipedalLocomotion::</text>
<text text-anchor="start" x="298" y="-45.5" font-family="Helvetica,sans-Serif" font-size="10.00">System::Advanceable</text>
<text text-anchor="start" x="298" y="-34.5" font-family="Helvetica,sans-Serif" font-size="10.00">&lt; FloatingBaseEstimators</text>
<text text-anchor="middle" x="355" y="-23.5" font-family="Helvetica,sans-Serif" font-size="10.00">::Output &gt;</text>
</a>
</g>
</g>
<!-- Node2&#45;&gt;Node1 -->
<g id="edge1" class="edge">
<title>Node2&#45;&gt;Node1</title>
<path fill="none" stroke="midnightblue" d="M430.17,-42.5C438.92,-42.5 447.9,-42.5 456.78,-42.5"/>
<polygon fill="midnightblue" stroke="midnightblue" points="430.01,-39 420.01,-42.5 430.01,-46 430.01,-39"/>
</g>
<!-- Node3 -->
<g id="node3" class="node">
<title>Node3</title>
<g id="a_node3"><a xlink:href="classBipedalLocomotion_1_1System_1_1Advanceable.html" target="_top" xlink:title="Basic class that contains only a get() and an advance() method.">
<polygon fill="none" stroke="black" points="0,-27.5 0,-57.5 137,-57.5 137,-27.5 0,-27.5"/>
<text text-anchor="start" x="8" y="-45.5" font-family="Helvetica,sans-Serif" font-size="10.00">BipedalLocomotion::</text>
<text text-anchor="middle" x="68.5" y="-34.5" font-family="Helvetica,sans-Serif" font-size="10.00">System::Advanceable&lt; T &gt;</text>
</a>
</g>
</g>
<!-- Node3&#45;&gt;Node2 -->
<g id="edge2" class="edge">
<title>Node3&#45;&gt;Node2</title>
<path fill="none" stroke="orange" stroke-dasharray="5,2" d="M147.51,-42.5C192.17,-42.5 247.52,-42.5 289.67,-42.5"/>
<polygon fill="orange" stroke="orange" points="147.28,-39 137.28,-42.5 147.28,-46 147.28,-39"/>
<text text-anchor="start" x="155" y="-56.5" font-family="Helvetica,sans-Serif" font-size="10.00"> &lt; FloatingBaseEstimators</text>
<text text-anchor="middle" x="213.5" y="-45.5" font-family="Helvetica,sans-Serif" font-size="10.00">::Output &gt;</text>
</g>
</g>
</svg>
