<?xml version="1.0" encoding="UTF-8" standalone="no"?>
<!DOCTYPE svg PUBLIC "-//W3C//DTD SVG 1.1//EN"
 "http://www.w3.org/Graphics/SVG/1.1/DTD/svg11.dtd">
<!-- Generated by graphviz version 2.43.0 (0)
 -->
<!-- Title: BipedalLocomotion::ParametersHandler::IParametersHandler Pages: 1 -->
<svg width="397pt" height="88pt"
 viewBox="0.00 0.00 397.00 88.00" xmlns="http://www.w3.org/2000/svg" xmlns:xlink="http://www.w3.org/1999/xlink">
<g id="graph0" class="graph" transform="scale(1 1) rotate(0) translate(4 84)">
<title>BipedalLocomotion::ParametersHandler::IParametersHandler</title>
<!-- Node1 -->
<g id="node1" class="node">
<title>Node1</title>
<g id="a_node1"><a xlink:title="Parameters handler interface.">
<polygon fill="#bfbfbf" stroke="black" points="0,-19 0,-60 160,-60 160,-19 0,-19"/>
<text text-anchor="start" x="8" y="-48" font-family="Helvetica,sans-Serif" font-size="10.00">BipedalLocomotion::</text>
<text text-anchor="start" x="8" y="-37" font-family="Helvetica,sans-Serif" font-size="10.00">ParametersHandler::IParameters</text>
<text text-anchor="middle" x="80" y="-26" font-family="Helvetica,sans-Serif" font-size="10.00">Handler</text>
</a>
</g>
</g>
<!-- Node2 -->
<g id="node2" class="node">
<title>Node2</title>
<g id="a_node2"><a xlink:href="classBipedalLocomotion_1_1ParametersHandler_1_1StdImplementation.html" target="_top" xlink:title="Parameters handler interface.">
<polygon fill="none" stroke="black" points="198.5,-49.5 198.5,-79.5 386.5,-79.5 386.5,-49.5 198.5,-49.5"/>
<text text-anchor="start" x="206.5" y="-67.5" font-family="Helvetica,sans-Serif" font-size="10.00">BipedalLocomotion::</text>
<text text-anchor="middle" x="292.5" y="-56.5" font-family="Helvetica,sans-Serif" font-size="10.00">ParametersHandler::StdImplementation</text>
</a>
</g>
</g>
<!-- Node1&#45;&gt;Node2 -->
<g id="edge1" class="edge">
<title>Node1&#45;&gt;Node2</title>
<path fill="none" stroke="midnightblue" d="M170.31,-50.11C179.63,-51.21 189.13,-52.34 198.49,-53.45"/>
<polygon fill="midnightblue" stroke="midnightblue" points="170.62,-46.62 160.28,-48.92 169.8,-53.57 170.62,-46.62"/>
</g>
<!-- Node3 -->
<g id="node3" class="node">
<title>Node3</title>
<g id="a_node3"><a xlink:href="classBipedalLocomotion_1_1ParametersHandler_1_1YarpImplementation.html" target="_top" xlink:title="YarpImplementation Yarp implementation of the IParametersHandler interface.">
<polygon fill="none" stroke="black" points="196,-0.5 196,-30.5 389,-30.5 389,-0.5 196,-0.5"/>
<text text-anchor="start" x="204" y="-18.5" font-family="Helvetica,sans-Serif" font-size="10.00">BipedalLocomotion::</text>
<text text-anchor="middle" x="292.5" y="-7.5" font-family="Helvetica,sans-Serif" font-size="10.00">ParametersHandler::YarpImplementation</text>
</a>
</g>
</g>
<!-- Node1&#45;&gt;Node3 -->
<g id="edge2" class="edge">
<title>Node1&#45;&gt;Node3</title>
<path fill="none" stroke="midnightblue" d="M170.49,-29.3C178.92,-28.34 187.49,-27.36 195.98,-26.39"/>
<polygon fill="midnightblue" stroke="midnightblue" points="169.82,-25.85 160.28,-30.46 170.61,-32.81 169.82,-25.85"/>
</g>
</g>
</svg>
