<?xml version="1.0" encoding="UTF-8" standalone="no"?>
<!DOCTYPE svg PUBLIC "-//W3C//DTD SVG 1.1//EN"
 "http://www.w3.org/Graphics/SVG/1.1/DTD/svg11.dtd">
<!-- Generated by graphviz version 2.43.0 (0)
 -->
<!-- Title: BipedalLocomotion::IK::LinearTask Pages: 1 -->
<svg width="261pt" height="186pt"
 viewBox="0.00 0.00 261.00 186.00" xmlns="http://www.w3.org/2000/svg" xmlns:xlink="http://www.w3.org/1999/xlink">
<g id="graph0" class="graph" transform="scale(1 1) rotate(0) translate(4 182)">
<title>BipedalLocomotion::IK::LinearTask</title>
<!-- Node1 -->
<g id="node1" class="node">
<title>Node1</title>
<g id="a_node1"><a xlink:title="LinearTask describes a IK LinearTask element.">
<polygon fill="#bfbfbf" stroke="black" points="0,-73.5 0,-103.5 105,-103.5 105,-73.5 0,-73.5"/>
<text text-anchor="start" x="8" y="-91.5" font-family="Helvetica,sans-Serif" font-size="10.00">BipedalLocomotion::</text>
<text text-anchor="middle" x="52.5" y="-80.5" font-family="Helvetica,sans-Serif" font-size="10.00">IK::LinearTask</text>
</a>
</g>
</g>
<!-- Node2 -->
<g id="node2" class="node">
<title>Node2</title>
<g id="a_node2"><a xlink:href="classBipedalLocomotion_1_1IK_1_1CoMTask.html" target="_top" xlink:title="SE3Task is a concrete implementation of the Task.">
<polygon fill="none" stroke="black" points="144.5,-147.5 144.5,-177.5 249.5,-177.5 249.5,-147.5 144.5,-147.5"/>
<text text-anchor="start" x="152.5" y="-165.5" font-family="Helvetica,sans-Serif" font-size="10.00">BipedalLocomotion::</text>
<text text-anchor="middle" x="197" y="-154.5" font-family="Helvetica,sans-Serif" font-size="10.00">IK::CoMTask</text>
</a>
</g>
</g>
<!-- Node1&#45;&gt;Node2 -->
<g id="edge1" class="edge">
<title>Node1&#45;&gt;Node2</title>
<path fill="none" stroke="midnightblue" d="M87.38,-108.99C103.41,-118.4 122.96,-129.44 141,-138.5 147.05,-141.54 153.58,-144.58 159.94,-147.43"/>
<polygon fill="midnightblue" stroke="midnightblue" points="88.77,-105.75 78.38,-103.67 85.21,-111.77 88.77,-105.75"/>
</g>
<!-- Node3 -->
<g id="node3" class="node">
<title>Node3</title>
<g id="a_node3"><a xlink:href="classBipedalLocomotion_1_1IK_1_1JointTrackingTask.html" target="_top" xlink:title="JointsTrackingTask is a concrete implementation of the Task.">
<polygon fill="none" stroke="black" points="141,-98.5 141,-128.5 253,-128.5 253,-98.5 141,-98.5"/>
<text text-anchor="start" x="149" y="-116.5" font-family="Helvetica,sans-Serif" font-size="10.00">BipedalLocomotion::</text>
<text text-anchor="middle" x="197" y="-105.5" font-family="Helvetica,sans-Serif" font-size="10.00">IK::JointTrackingTask</text>
</a>
</g>
</g>
<!-- Node1&#45;&gt;Node3 -->
<g id="edge2" class="edge">
<title>Node1&#45;&gt;Node3</title>
<path fill="none" stroke="midnightblue" d="M115.44,-99.37C123.8,-100.83 132.34,-102.33 140.59,-103.78"/>
<polygon fill="midnightblue" stroke="midnightblue" points="115.8,-95.88 105.35,-97.6 114.59,-102.77 115.8,-95.88"/>
</g>
<!-- Node4 -->
<g id="node4" class="node">
<title>Node4</title>
<g id="a_node4"><a xlink:href="classBipedalLocomotion_1_1IK_1_1SE3Task.html" target="_top" xlink:title="SE3Task is a concrete implementation of the Task.">
<polygon fill="none" stroke="black" points="144.5,-49.5 144.5,-79.5 249.5,-79.5 249.5,-49.5 144.5,-49.5"/>
<text text-anchor="start" x="152.5" y="-67.5" font-family="Helvetica,sans-Serif" font-size="10.00">BipedalLocomotion::</text>
<text text-anchor="middle" x="197" y="-56.5" font-family="Helvetica,sans-Serif" font-size="10.00">IK::SE3Task</text>
</a>
</g>
</g>
<!-- Node1&#45;&gt;Node4 -->
<g id="edge3" class="edge">
<title>Node1&#45;&gt;Node4</title>
<path fill="none" stroke="midnightblue" d="M115.34,-78.08C125.05,-76.45 134.99,-74.78 144.43,-73.19"/>
<polygon fill="midnightblue" stroke="midnightblue" points="114.63,-74.66 105.35,-79.77 115.79,-81.56 114.63,-74.66"/>
</g>
<!-- Node5 -->
<g id="node5" class="node">
<title>Node5</title>
<g id="a_node5"><a xlink:href="classBipedalLocomotion_1_1IK_1_1SO3Task.html" target="_top" xlink:title="SO3Task is a concrete implementation of the IK::Task.">
<polygon fill="none" stroke="black" points="144.5,-0.5 144.5,-30.5 249.5,-30.5 249.5,-0.5 144.5,-0.5"/>
<text text-anchor="start" x="152.5" y="-18.5" font-family="Helvetica,sans-Serif" font-size="10.00">BipedalLocomotion::</text>
<text text-anchor="middle" x="197" y="-7.5" font-family="Helvetica,sans-Serif" font-size="10.00">IK::SO3Task</text>
</a>
</g>
</g>
<!-- Node1&#45;&gt;Node5 -->
<g id="edge4" class="edge">
<title>Node1&#45;&gt;Node5</title>
<path fill="none" stroke="midnightblue" d="M88.58,-68.47C104.44,-59.62 123.52,-49.25 141,-40.5 147.66,-37.17 154.85,-33.76 161.78,-30.57"/>
<polygon fill="midnightblue" stroke="midnightblue" points="86.65,-65.54 79.65,-73.49 90.08,-71.64 86.65,-65.54"/>
</g>
</g>
</svg>
