<?xml version="1.0" encoding="UTF-8" standalone="no"?>
<!DOCTYPE svg PUBLIC "-//W3C//DTD SVG 1.1//EN"
 "http://www.w3.org/Graphics/SVG/1.1/DTD/svg11.dtd">
<!-- Generated by graphviz version 2.43.0 (0)
 -->
<!-- Title: IK/include/BipedalLocomotion/IK/CoMTask.h Pages: 1 -->
<svg width="766pt" height="363pt"
 viewBox="0.00 0.00 766.28 363.00" xmlns="http://www.w3.org/2000/svg" xmlns:xlink="http://www.w3.org/1999/xlink">
<g id="graph0" class="graph" transform="scale(1 1) rotate(0) translate(4 359)">
<title>IK/include/BipedalLocomotion/IK/CoMTask.h</title>
<!-- Node1 -->
<g id="node1" class="node">
<title>Node1</title>
<g id="a_node1"><a xlink:title=" ">
<polygon fill="#bfbfbf" stroke="black" points="56.28,-324.5 56.28,-354.5 202.28,-354.5 202.28,-324.5 56.28,-324.5"/>
<text text-anchor="start" x="64.28" y="-342.5" font-family="Helvetica,sans-Serif" font-size="10.00">IK/include/BipedalLocomotion</text>
<text text-anchor="middle" x="129.28" y="-331.5" font-family="Helvetica,sans-Serif" font-size="10.00">/IK/CoMTask.h</text>
</a>
</g>
</g>
<!-- Node2 -->
<g id="node2" class="node">
<title>Node2</title>
<g id="a_node2"><a xlink:title=" ">
<polygon fill="none" stroke="#bfbfbf" points="34.28,-62 34.28,-81 86.28,-81 86.28,-62 34.28,-62"/>
<text text-anchor="middle" x="60.28" y="-69" font-family="Helvetica,sans-Serif" font-size="10.00">memory</text>
</a>
</g>
</g>
<!-- Node1&#45;&gt;Node2 -->
<g id="edge1" class="edge">
<title>Node1&#45;&gt;Node2</title>
<path fill="none" stroke="midnightblue" d="M82.92,-324.44C63.23,-316.47 41.39,-304.68 26.28,-288 4.95,-264.44 6.93,-252.28 1.28,-221 -2.79,-198.45 5.16,-125.36 6.28,-123 13.18,-108.61 26.11,-96.29 37.59,-87.42"/>
<polygon fill="midnightblue" stroke="midnightblue" points="39.93,-90.04 45.96,-81.33 35.82,-84.38 39.93,-90.04"/>
</g>
<!-- Node3 -->
<g id="node3" class="node">
<title>Node3</title>
<g id="a_node3"><a xlink:title=" ">
<polygon fill="none" stroke="#bfbfbf" points="35.28,-263 35.28,-282 111.28,-282 111.28,-263 35.28,-263"/>
<text text-anchor="middle" x="73.28" y="-270" font-family="Helvetica,sans-Serif" font-size="10.00">manif/manif.h</text>
</a>
</g>
</g>
<!-- Node1&#45;&gt;Node3 -->
<g id="edge2" class="edge">
<title>Node1&#45;&gt;Node3</title>
<path fill="none" stroke="midnightblue" d="M117.13,-324.4C108.4,-314.26 96.6,-300.57 87.45,-289.94"/>
<polygon fill="midnightblue" stroke="midnightblue" points="89.95,-287.49 80.77,-282.19 84.65,-292.06 89.95,-287.49"/>
</g>
<!-- Node4 -->
<g id="node4" class="node">
<title>Node4</title>
<g id="a_node4"><a xlink:href="LinearTask_8h.html" target="_top" xlink:title=" ">
<polygon fill="none" stroke="black" points="129.28,-257.5 129.28,-287.5 241.28,-287.5 241.28,-257.5 129.28,-257.5"/>
<text text-anchor="start" x="137.28" y="-275.5" font-family="Helvetica,sans-Serif" font-size="10.00">BipedalLocomotion/IK</text>
<text text-anchor="middle" x="185.28" y="-264.5" font-family="Helvetica,sans-Serif" font-size="10.00">/LinearTask.h</text>
</a>
</g>
</g>
<!-- Node1&#45;&gt;Node4 -->
<g id="edge3" class="edge">
<title>Node1&#45;&gt;Node4</title>
<path fill="none" stroke="midnightblue" d="M141.44,-324.4C148.77,-315.88 158.28,-304.85 166.56,-295.23"/>
<polygon fill="midnightblue" stroke="midnightblue" points="169.28,-297.44 173.16,-287.58 163.98,-292.87 169.28,-297.44"/>
</g>
<!-- Node22 -->
<g id="node22" class="node">
<title>Node22</title>
<g id="a_node22"><a xlink:title=" ">
<polygon fill="none" stroke="#bfbfbf" points="259.78,-257.5 259.78,-287.5 380.78,-287.5 380.78,-257.5 259.78,-257.5"/>
<text text-anchor="start" x="267.78" y="-275.5" font-family="Helvetica,sans-Serif" font-size="10.00">LieGroupControllers</text>
<text text-anchor="middle" x="320.28" y="-264.5" font-family="Helvetica,sans-Serif" font-size="10.00">/ProportionalController.h</text>
</a>
</g>
</g>
<!-- Node1&#45;&gt;Node22 -->
<g id="edge26" class="edge">
<title>Node1&#45;&gt;Node22</title>
<path fill="none" stroke="midnightblue" d="M170.73,-324.4C199.64,-314.56 238.4,-301.37 269.22,-290.88"/>
<polygon fill="midnightblue" stroke="midnightblue" points="270.58,-294.11 278.92,-287.58 268.33,-287.48 270.58,-294.11"/>
</g>
<!-- Node4&#45;&gt;Node2 -->
<g id="edge4" class="edge">
<title>Node4&#45;&gt;Node2</title>
<path fill="none" stroke="midnightblue" d="M129.2,-258.36C82.45,-246.85 22.37,-230.5 15.28,-221 -15.23,-180.1 24.04,-118.43 46.54,-89.12"/>
<polygon fill="midnightblue" stroke="midnightblue" points="49.41,-91.12 52.89,-81.12 43.93,-86.77 49.41,-91.12"/>
</g>
<!-- Node5 -->
<g id="node5" class="node">
<title>Node5</title>
<g id="a_node5"><a xlink:title=" ">
<polygon fill="none" stroke="#bfbfbf" points="24.78,-196 24.78,-215 97.78,-215 97.78,-196 24.78,-196"/>
<text text-anchor="middle" x="61.28" y="-203" font-family="Helvetica,sans-Serif" font-size="10.00">Eigen/Dense</text>
</a>
</g>
</g>
<!-- Node4&#45;&gt;Node5 -->
<g id="edge5" class="edge">
<title>Node4&#45;&gt;Node5</title>
<path fill="none" stroke="midnightblue" d="M158.38,-257.4C137.01,-246.19 107.34,-230.64 86.44,-219.69"/>
<polygon fill="midnightblue" stroke="midnightblue" points="87.99,-216.55 77.51,-215.01 84.74,-222.75 87.99,-216.55"/>
</g>
<!-- Node6 -->
<g id="node6" class="node">
<title>Node6</title>
<g id="a_node6"><a xlink:title=" ">
<polygon fill="none" stroke="#bfbfbf" points="115.78,-196 115.78,-215 254.78,-215 254.78,-196 115.78,-196"/>
<text text-anchor="middle" x="185.28" y="-203" font-family="Helvetica,sans-Serif" font-size="10.00">iDynTree/Core/MatrixView.h</text>
</a>
</g>
</g>
<!-- Node4&#45;&gt;Node6 -->
<g id="edge6" class="edge">
<title>Node4&#45;&gt;Node6</title>
<path fill="none" stroke="midnightblue" d="M185.28,-257.4C185.28,-248.06 185.28,-235.71 185.28,-225.52"/>
<polygon fill="midnightblue" stroke="midnightblue" points="188.78,-225.19 185.28,-215.19 181.78,-225.19 188.78,-225.19"/>
</g>
<!-- Node7 -->
<g id="node7" class="node">
<title>Node7</title>
<g id="a_node7"><a xlink:title=" ">
<polygon fill="none" stroke="#bfbfbf" points="272.78,-196 272.78,-215 433.78,-215 433.78,-196 272.78,-196"/>
<text text-anchor="middle" x="353.28" y="-203" font-family="Helvetica,sans-Serif" font-size="10.00">iDynTree/KinDynComputations.h</text>
</a>
</g>
</g>
<!-- Node4&#45;&gt;Node7 -->
<g id="edge7" class="edge">
<title>Node4&#45;&gt;Node7</title>
<path fill="none" stroke="midnightblue" d="M221.74,-257.4C251.61,-245.84 293.43,-229.66 321.85,-218.66"/>
<polygon fill="midnightblue" stroke="midnightblue" points="323.23,-221.88 331.3,-215.01 320.71,-215.35 323.23,-221.88"/>
</g>
<!-- Node8 -->
<g id="node8" class="node">
<title>Node8</title>
<g id="a_node8"><a xlink:href="IParametersHandler_8h.html" target="_top" xlink:title=" ">
<polygon fill="none" stroke="black" points="452.28,-190.5 452.28,-220.5 604.28,-220.5 604.28,-190.5 452.28,-190.5"/>
<text text-anchor="start" x="460.28" y="-208.5" font-family="Helvetica,sans-Serif" font-size="10.00">BipedalLocomotion/Parameters</text>
<text text-anchor="middle" x="528.28" y="-197.5" font-family="Helvetica,sans-Serif" font-size="10.00">Handler/IParametersHandler.h</text>
</a>
</g>
</g>
<!-- Node4&#45;&gt;Node8 -->
<g id="edge8" class="edge">
<title>Node4&#45;&gt;Node8</title>
<path fill="none" stroke="midnightblue" d="M241.63,-258.79C244.55,-258.17 247.45,-257.57 250.28,-257 314.33,-244.04 387,-230.9 441.97,-221.27"/>
<polygon fill="midnightblue" stroke="midnightblue" points="442.77,-224.68 452.02,-219.51 441.57,-217.78 442.77,-224.68"/>
</g>
<!-- Node20 -->
<g id="node20" class="node">
<title>Node20</title>
<g id="a_node20"><a xlink:href="VariablesHandler_8h.html" target="_top" xlink:title=" ">
<polygon fill="none" stroke="black" points="622.28,-190.5 622.28,-220.5 758.28,-220.5 758.28,-190.5 622.28,-190.5"/>
<text text-anchor="start" x="630.28" y="-208.5" font-family="Helvetica,sans-Serif" font-size="10.00">BipedalLocomotion/System</text>
<text text-anchor="middle" x="690.28" y="-197.5" font-family="Helvetica,sans-Serif" font-size="10.00">/VariablesHandler.h</text>
</a>
</g>
</g>
<!-- Node4&#45;&gt;Node20 -->
<g id="edge23" class="edge">
<title>Node4&#45;&gt;Node20</title>
<path fill="none" stroke="midnightblue" d="M241.57,-258.51C244.51,-257.97 247.43,-257.46 250.28,-257 407.08,-231.83 451.01,-243.52 611.66,-221.15"/>
<polygon fill="midnightblue" stroke="midnightblue" points="612.49,-224.57 621.9,-219.7 611.51,-217.63 612.49,-224.57"/>
</g>
<!-- Node8&#45;&gt;Node2 -->
<g id="edge9" class="edge">
<title>Node8&#45;&gt;Node2</title>
<path fill="none" stroke="midnightblue" d="M452.23,-190.51C391.09,-179 310.32,-163.16 278.28,-154 209.2,-134.24 130.9,-102.61 89.52,-85.13"/>
<polygon fill="midnightblue" stroke="midnightblue" points="90.64,-81.8 80.07,-81.11 87.9,-88.24 90.64,-81.8"/>
</g>
<!-- Node9 -->
<g id="node9" class="node">
<title>Node9</title>
<g id="a_node9"><a xlink:title=" ">
<polygon fill="none" stroke="#bfbfbf" points="573.78,-129 573.78,-148 614.78,-148 614.78,-129 573.78,-129"/>
<text text-anchor="middle" x="594.28" y="-136" font-family="Helvetica,sans-Serif" font-size="10.00">string</text>
</a>
</g>
</g>
<!-- Node8&#45;&gt;Node9 -->
<g id="edge10" class="edge">
<title>Node8&#45;&gt;Node9</title>
<path fill="none" stroke="midnightblue" d="M542.61,-190.4C553.1,-180.06 567.35,-166.02 578.23,-155.31"/>
<polygon fill="midnightblue" stroke="midnightblue" points="580.79,-157.71 585.46,-148.19 575.88,-152.72 580.79,-157.71"/>
</g>
<!-- Node10 -->
<g id="node10" class="node">
<title>Node10</title>
<g id="a_node10"><a xlink:title=" ">
<polygon fill="none" stroke="#bfbfbf" points="287.28,-129 287.28,-148 331.28,-148 331.28,-129 287.28,-129"/>
<text text-anchor="middle" x="309.28" y="-136" font-family="Helvetica,sans-Serif" font-size="10.00">vector</text>
</a>
</g>
</g>
<!-- Node8&#45;&gt;Node10 -->
<g id="edge11" class="edge">
<title>Node8&#45;&gt;Node10</title>
<path fill="none" stroke="midnightblue" d="M465.19,-190.48C428.29,-181.56 381.08,-168.89 340.28,-154 338.67,-153.41 337.03,-152.77 335.38,-152.1"/>
<polygon fill="midnightblue" stroke="midnightblue" points="336.68,-148.84 326.11,-148.02 333.86,-155.25 336.68,-148.84"/>
</g>
<!-- Node11 -->
<g id="node11" class="node">
<title>Node11</title>
<g id="a_node11"><a xlink:href="Vector_8h_source.html" target="_top" xlink:title=" ">
<polygon fill="none" stroke="black" points="349.28,-123.5 349.28,-153.5 485.28,-153.5 485.28,-123.5 349.28,-123.5"/>
<text text-anchor="start" x="357.28" y="-141.5" font-family="Helvetica,sans-Serif" font-size="10.00">BipedalLocomotion/Generic</text>
<text text-anchor="middle" x="417.28" y="-130.5" font-family="Helvetica,sans-Serif" font-size="10.00">Container/Vector.h</text>
</a>
</g>
</g>
<!-- Node8&#45;&gt;Node11 -->
<g id="edge12" class="edge">
<title>Node8&#45;&gt;Node11</title>
<path fill="none" stroke="midnightblue" d="M504.2,-190.4C488.34,-181.11 467.39,-168.84 450.03,-158.67"/>
<polygon fill="midnightblue" stroke="midnightblue" points="451.72,-155.61 441.32,-153.58 448.18,-161.65 451.72,-155.61"/>
</g>
<!-- Node13 -->
<g id="node13" class="node">
<title>Node13</title>
<g id="a_node13"><a xlink:href="TemplateHelpers_8h_source.html" target="_top" xlink:title=" ">
<polygon fill="none" stroke="black" points="509.78,-56.5 509.78,-86.5 652.78,-86.5 652.78,-56.5 509.78,-56.5"/>
<text text-anchor="start" x="517.78" y="-74.5" font-family="Helvetica,sans-Serif" font-size="10.00">BipedalLocomotion/Generic</text>
<text text-anchor="middle" x="581.28" y="-63.5" font-family="Helvetica,sans-Serif" font-size="10.00">Container/TemplateHelpers.h</text>
</a>
</g>
</g>
<!-- Node8&#45;&gt;Node13 -->
<g id="edge22" class="edge">
<title>Node8&#45;&gt;Node13</title>
<path fill="none" stroke="midnightblue" d="M533.96,-190.37C543,-167.85 560.79,-123.53 571.8,-96.12"/>
<polygon fill="midnightblue" stroke="midnightblue" points="575.17,-97.11 575.65,-86.52 568.68,-94.5 575.17,-97.11"/>
</g>
<!-- Node11&#45;&gt;Node2 -->
<g id="edge21" class="edge">
<title>Node11&#45;&gt;Node2</title>
<path fill="none" stroke="midnightblue" d="M349.27,-124.66C346.23,-124.1 343.23,-123.54 340.28,-123 252.85,-106.88 149.94,-88.46 96.55,-78.95"/>
<polygon fill="midnightblue" stroke="midnightblue" points="97.01,-75.47 86.55,-77.17 95.78,-82.37 97.01,-75.47"/>
</g>
<!-- Node12 -->
<g id="node12" class="node">
<title>Node12</title>
<g id="a_node12"><a xlink:title=" ">
<polygon fill="none" stroke="#bfbfbf" points="160.28,-62 160.28,-81 274.28,-81 274.28,-62 160.28,-62"/>
<text text-anchor="middle" x="217.28" y="-69" font-family="Helvetica,sans-Serif" font-size="10.00">iDynTree/Core/Span.h</text>
</a>
</g>
</g>
<!-- Node11&#45;&gt;Node12 -->
<g id="edge13" class="edge">
<title>Node11&#45;&gt;Node12</title>
<path fill="none" stroke="midnightblue" d="M373.89,-123.4C337.86,-111.69 287.23,-95.23 253.39,-84.23"/>
<polygon fill="midnightblue" stroke="midnightblue" points="254.05,-80.77 243.46,-81.01 251.89,-87.43 254.05,-80.77"/>
</g>
<!-- Node11&#45;&gt;Node13 -->
<g id="edge14" class="edge">
<title>Node11&#45;&gt;Node13</title>
<path fill="none" stroke="midnightblue" d="M452.87,-123.4C477.37,-113.69 510.11,-100.71 536.4,-90.29"/>
<polygon fill="midnightblue" stroke="midnightblue" points="537.76,-93.51 545.77,-86.58 535.18,-87.01 537.76,-93.51"/>
</g>
<!-- Node17 -->
<g id="node17" class="node">
<title>Node17</title>
<g id="a_node17"><a xlink:title=" ">
<polygon fill="none" stroke="#bfbfbf" points="292.78,-62 292.78,-81 351.78,-81 351.78,-62 292.78,-62"/>
<text text-anchor="middle" x="322.28" y="-69" font-family="Helvetica,sans-Serif" font-size="10.00">functional</text>
</a>
</g>
</g>
<!-- Node11&#45;&gt;Node17 -->
<g id="edge18" class="edge">
<title>Node11&#45;&gt;Node17</title>
<path fill="none" stroke="midnightblue" d="M396.67,-123.4C380.89,-112.6 359.2,-97.76 343.31,-86.89"/>
<polygon fill="midnightblue" stroke="midnightblue" points="344.95,-83.77 334.72,-81.01 340.99,-89.54 344.95,-83.77"/>
</g>
<!-- Node18 -->
<g id="node18" class="node">
<title>Node18</title>
<g id="a_node18"><a xlink:title=" ">
<polygon fill="none" stroke="#bfbfbf" points="369.78,-62 369.78,-81 418.78,-81 418.78,-62 369.78,-62"/>
<text text-anchor="middle" x="394.28" y="-69" font-family="Helvetica,sans-Serif" font-size="10.00">cassert</text>
</a>
</g>
</g>
<!-- Node11&#45;&gt;Node18 -->
<g id="edge19" class="edge">
<title>Node11&#45;&gt;Node18</title>
<path fill="none" stroke="midnightblue" d="M412.29,-123.4C408.92,-113.86 404.43,-101.18 400.78,-90.86"/>
<polygon fill="midnightblue" stroke="midnightblue" points="404,-89.45 397.36,-81.19 397.4,-91.79 404,-89.45"/>
</g>
<!-- Node19 -->
<g id="node19" class="node">
<title>Node19</title>
<g id="a_node19"><a xlink:title=" ">
<polygon fill="none" stroke="#bfbfbf" points="437.28,-62 437.28,-81 491.28,-81 491.28,-62 437.28,-62"/>
<text text-anchor="middle" x="464.28" y="-69" font-family="Helvetica,sans-Serif" font-size="10.00">iostream</text>
</a>
</g>
</g>
<!-- Node11&#45;&gt;Node19 -->
<g id="edge20" class="edge">
<title>Node11&#45;&gt;Node19</title>
<path fill="none" stroke="midnightblue" d="M427.48,-123.4C434.67,-113.46 444.32,-100.11 451.94,-89.57"/>
<polygon fill="midnightblue" stroke="midnightblue" points="454.97,-91.35 458,-81.19 449.3,-87.25 454.97,-91.35"/>
</g>
<!-- Node14 -->
<g id="node14" class="node">
<title>Node14</title>
<g id="a_node14"><a xlink:title=" ">
<polygon fill="none" stroke="#bfbfbf" points="468.28,-0.5 468.28,-19.5 530.28,-19.5 530.28,-0.5 468.28,-0.5"/>
<text text-anchor="middle" x="499.28" y="-7.5" font-family="Helvetica,sans-Serif" font-size="10.00">type_traits</text>
</a>
</g>
</g>
<!-- Node13&#45;&gt;Node14 -->
<g id="edge15" class="edge">
<title>Node13&#45;&gt;Node14</title>
<path fill="none" stroke="midnightblue" d="M561.85,-56.4C549.08,-47.13 532.39,-35.03 519.47,-25.65"/>
<polygon fill="midnightblue" stroke="midnightblue" points="521.37,-22.7 511.22,-19.66 517.25,-28.36 521.37,-22.7"/>
</g>
<!-- Node15 -->
<g id="node15" class="node">
<title>Node15</title>
<g id="a_node15"><a xlink:title=" ">
<polygon fill="none" stroke="#bfbfbf" points="548.28,-0.5 548.28,-19.5 614.28,-19.5 614.28,-0.5 548.28,-0.5"/>
<text text-anchor="middle" x="581.28" y="-7.5" font-family="Helvetica,sans-Serif" font-size="10.00">string_view</text>
</a>
</g>
</g>
<!-- Node13&#45;&gt;Node15 -->
<g id="edge16" class="edge">
<title>Node13&#45;&gt;Node15</title>
<path fill="none" stroke="midnightblue" d="M581.28,-56.4C581.28,-48.47 581.28,-38.46 581.28,-29.86"/>
<polygon fill="midnightblue" stroke="midnightblue" points="584.78,-29.66 581.28,-19.66 577.78,-29.66 584.78,-29.66"/>
</g>
<!-- Node16 -->
<g id="node16" class="node">
<title>Node16</title>
<g id="a_node16"><a xlink:title=" ">
<polygon fill="none" stroke="#bfbfbf" points="632.78,-0.5 632.78,-19.5 697.78,-19.5 697.78,-0.5 632.78,-0.5"/>
<text text-anchor="middle" x="665.28" y="-7.5" font-family="Helvetica,sans-Serif" font-size="10.00">Eigen/Core</text>
</a>
</g>
</g>
<!-- Node13&#45;&gt;Node16 -->
<g id="edge17" class="edge">
<title>Node13&#45;&gt;Node16</title>
<path fill="none" stroke="midnightblue" d="M601.19,-56.4C614.28,-47.13 631.37,-35.03 644.61,-25.65"/>
<polygon fill="midnightblue" stroke="midnightblue" points="646.92,-28.29 653.06,-19.66 642.88,-22.58 646.92,-28.29"/>
</g>
<!-- Node20&#45;&gt;Node9 -->
<g id="edge24" class="edge">
<title>Node20&#45;&gt;Node9</title>
<path fill="none" stroke="midnightblue" d="M669.45,-190.4C653.5,-179.6 631.59,-164.76 615.53,-153.89"/>
<polygon fill="midnightblue" stroke="midnightblue" points="617.09,-150.72 606.85,-148.01 613.17,-156.51 617.09,-150.72"/>
</g>
<!-- Node21 -->
<g id="node21" class="node">
<title>Node21</title>
<g id="a_node21"><a xlink:title=" ">
<polygon fill="none" stroke="#bfbfbf" points="648.78,-129 648.78,-148 731.78,-148 731.78,-129 648.78,-129"/>
<text text-anchor="middle" x="690.28" y="-136" font-family="Helvetica,sans-Serif" font-size="10.00">unordered_map</text>
</a>
</g>
</g>
<!-- Node20&#45;&gt;Node21 -->
<g id="edge25" class="edge">
<title>Node20&#45;&gt;Node21</title>
<path fill="none" stroke="midnightblue" d="M690.28,-190.4C690.28,-181.06 690.28,-168.71 690.28,-158.52"/>
<polygon fill="midnightblue" stroke="midnightblue" points="693.78,-158.19 690.28,-148.19 686.78,-158.19 693.78,-158.19"/>
</g>
</g>
</svg>
