<?xml version="1.0" encoding="UTF-8" standalone="no"?>
<!DOCTYPE svg PUBLIC "-//W3C//DTD SVG 1.1//EN"
 "http://www.w3.org/Graphics/SVG/1.1/DTD/svg11.dtd">
<!-- Generated by graphviz version 2.43.0 (0)
 -->
<!-- Title: Contacts/include/BipedalLocomotion/ContactDetectors/ContactDetector.h Pages: 1 -->
<svg width="783pt" height="307pt"
 viewBox="0.00 0.00 782.50 307.00" xmlns="http://www.w3.org/2000/svg" xmlns:xlink="http://www.w3.org/1999/xlink">
<g id="graph0" class="graph" transform="scale(1 1) rotate(0) translate(4 303)">
<title>Contacts/include/BipedalLocomotion/ContactDetectors/ContactDetector.h</title>
<!-- Node1 -->
<g id="node1" class="node">
<title>Node1</title>
<g id="a_node1"><a xlink:title=" ">
<polygon fill="#bfbfbf" stroke="black" points="490.5,-257.5 490.5,-298.5 637.5,-298.5 637.5,-257.5 490.5,-257.5"/>
<text text-anchor="start" x="498.5" y="-286.5" font-family="Helvetica,sans-Serif" font-size="10.00">Contacts/include/Bipedal</text>
<text text-anchor="start" x="498.5" y="-275.5" font-family="Helvetica,sans-Serif" font-size="10.00">Locomotion/ContactDetectors</text>
<text text-anchor="middle" x="564" y="-264.5" font-family="Helvetica,sans-Serif" font-size="10.00">/ContactDetector.h</text>
</a>
</g>
</g>
<!-- Node2 -->
<g id="node2" class="node">
<title>Node2</title>
<g id="a_node2"><a xlink:href="Advanceable_8h.html" target="_top" xlink:title=" ">
<polygon fill="none" stroke="black" points="169,-190.5 169,-220.5 305,-220.5 305,-190.5 169,-190.5"/>
<text text-anchor="start" x="177" y="-208.5" font-family="Helvetica,sans-Serif" font-size="10.00">BipedalLocomotion/System</text>
<text text-anchor="middle" x="237" y="-197.5" font-family="Helvetica,sans-Serif" font-size="10.00">/Advanceable.h</text>
</a>
</g>
</g>
<!-- Node1&#45;&gt;Node2 -->
<g id="edge1" class="edge">
<title>Node1&#45;&gt;Node2</title>
<path fill="none" stroke="midnightblue" d="M490.21,-261.09C437.03,-249.63 365.51,-234.21 312.05,-222.68"/>
<polygon fill="midnightblue" stroke="midnightblue" points="312.46,-219.19 301.95,-220.5 310.99,-226.03 312.46,-219.19"/>
</g>
<!-- Node3 -->
<g id="node3" class="node">
<title>Node3</title>
<g id="a_node3"><a xlink:href="IParametersHandler_8h.html" target="_top" xlink:title=" ">
<polygon fill="none" stroke="black" points="323,-190.5 323,-220.5 475,-220.5 475,-190.5 323,-190.5"/>
<text text-anchor="start" x="331" y="-208.5" font-family="Helvetica,sans-Serif" font-size="10.00">BipedalLocomotion/Parameters</text>
<text text-anchor="middle" x="399" y="-197.5" font-family="Helvetica,sans-Serif" font-size="10.00">Handler/IParametersHandler.h</text>
</a>
</g>
</g>
<!-- Node1&#45;&gt;Node3 -->
<g id="edge2" class="edge">
<title>Node1&#45;&gt;Node3</title>
<path fill="none" stroke="midnightblue" d="M518.04,-257.36C493.99,-247.08 464.74,-234.59 441.26,-224.55"/>
<polygon fill="midnightblue" stroke="midnightblue" points="442.48,-221.27 431.91,-220.56 439.73,-227.71 442.48,-221.27"/>
</g>
<!-- Node15 -->
<g id="node15" class="node">
<title>Node15</title>
<g id="a_node15"><a xlink:title=" ">
<polygon fill="none" stroke="#bfbfbf" points="593,-62 593,-81 647,-81 647,-62 593,-62"/>
<text text-anchor="middle" x="620" y="-69" font-family="Helvetica,sans-Serif" font-size="10.00">iostream</text>
</a>
</g>
</g>
<!-- Node1&#45;&gt;Node15 -->
<g id="edge20" class="edge">
<title>Node1&#45;&gt;Node15</title>
<path fill="none" stroke="midnightblue" d="M606.93,-257.5C621.41,-248.58 635.94,-236.49 644,-221 666.44,-177.9 643.58,-119.01 629.42,-90.04"/>
<polygon fill="midnightblue" stroke="midnightblue" points="632.53,-88.43 624.86,-81.12 626.29,-91.62 632.53,-88.43"/>
</g>
<!-- Node16 -->
<g id="node16" class="node">
<title>Node16</title>
<g id="a_node16"><a xlink:href="Contact_8h.html" target="_top" xlink:title=" ">
<polygon fill="none" stroke="black" points="493,-190.5 493,-220.5 635,-220.5 635,-190.5 493,-190.5"/>
<text text-anchor="start" x="501" y="-208.5" font-family="Helvetica,sans-Serif" font-size="10.00">BipedalLocomotion/Contacts</text>
<text text-anchor="middle" x="564" y="-197.5" font-family="Helvetica,sans-Serif" font-size="10.00">/Contact.h</text>
</a>
</g>
</g>
<!-- Node1&#45;&gt;Node16 -->
<g id="edge17" class="edge">
<title>Node1&#45;&gt;Node16</title>
<path fill="none" stroke="midnightblue" d="M564,-257.36C564,-249.23 564,-239.7 564,-231.11"/>
<polygon fill="midnightblue" stroke="midnightblue" points="567.5,-230.89 564,-220.89 560.5,-230.89 567.5,-230.89"/>
</g>
<!-- Node18 -->
<g id="node18" class="node">
<title>Node18</title>
<g id="a_node18"><a xlink:title=" ">
<polygon fill="none" stroke="#bfbfbf" points="691.5,-196 691.5,-215 774.5,-215 774.5,-196 691.5,-196"/>
<text text-anchor="middle" x="733" y="-203" font-family="Helvetica,sans-Serif" font-size="10.00">unordered_map</text>
</a>
</g>
</g>
<!-- Node1&#45;&gt;Node18 -->
<g id="edge21" class="edge">
<title>Node1&#45;&gt;Node18</title>
<path fill="none" stroke="midnightblue" d="M611.08,-257.36C640.39,-245.13 677.24,-229.76 702.71,-219.14"/>
<polygon fill="midnightblue" stroke="midnightblue" points="704.33,-222.25 712.21,-215.17 701.63,-215.79 704.33,-222.25"/>
</g>
<!-- Node4 -->
<g id="node4" class="node">
<title>Node4</title>
<g id="a_node4"><a xlink:title=" ">
<polygon fill="none" stroke="#bfbfbf" points="479,-62 479,-81 531,-81 531,-62 479,-62"/>
<text text-anchor="middle" x="505" y="-69" font-family="Helvetica,sans-Serif" font-size="10.00">memory</text>
</a>
</g>
</g>
<!-- Node3&#45;&gt;Node4 -->
<g id="edge3" class="edge">
<title>Node3&#45;&gt;Node4</title>
<path fill="none" stroke="midnightblue" d="M411.97,-190.13C420.87,-180.14 432.87,-166.44 443,-154 460.81,-132.13 480.35,-106.08 492.64,-89.41"/>
<polygon fill="midnightblue" stroke="midnightblue" points="495.57,-91.34 498.67,-81.21 489.93,-87.2 495.57,-91.34"/>
</g>
<!-- Node5 -->
<g id="node5" class="node">
<title>Node5</title>
<g id="a_node5"><a xlink:title=" ">
<polygon fill="none" stroke="#bfbfbf" points="490.5,-129 490.5,-148 531.5,-148 531.5,-129 490.5,-129"/>
<text text-anchor="middle" x="511" y="-136" font-family="Helvetica,sans-Serif" font-size="10.00">string</text>
</a>
</g>
</g>
<!-- Node3&#45;&gt;Node5 -->
<g id="edge4" class="edge">
<title>Node3&#45;&gt;Node5</title>
<path fill="none" stroke="midnightblue" d="M423.3,-190.4C442.35,-179.34 468.68,-164.06 487.51,-153.13"/>
<polygon fill="midnightblue" stroke="midnightblue" points="489.45,-156.05 496.34,-148.01 485.94,-150 489.45,-156.05"/>
</g>
<!-- Node6 -->
<g id="node6" class="node">
<title>Node6</title>
<g id="a_node6"><a xlink:title=" ">
<polygon fill="none" stroke="#bfbfbf" points="390,-129 390,-148 434,-148 434,-129 390,-129"/>
<text text-anchor="middle" x="412" y="-136" font-family="Helvetica,sans-Serif" font-size="10.00">vector</text>
</a>
</g>
</g>
<!-- Node3&#45;&gt;Node6 -->
<g id="edge5" class="edge">
<title>Node3&#45;&gt;Node6</title>
<path fill="none" stroke="midnightblue" d="M401.82,-190.4C403.71,-180.96 406.21,-168.45 408.26,-158.19"/>
<polygon fill="midnightblue" stroke="midnightblue" points="411.73,-158.69 410.26,-148.19 404.87,-157.31 411.73,-158.69"/>
</g>
<!-- Node7 -->
<g id="node7" class="node">
<title>Node7</title>
<g id="a_node7"><a xlink:href="Vector_8h_source.html" target="_top" xlink:title=" ">
<polygon fill="none" stroke="black" points="236,-123.5 236,-153.5 372,-153.5 372,-123.5 236,-123.5"/>
<text text-anchor="start" x="244" y="-141.5" font-family="Helvetica,sans-Serif" font-size="10.00">BipedalLocomotion/Generic</text>
<text text-anchor="middle" x="304" y="-130.5" font-family="Helvetica,sans-Serif" font-size="10.00">Container/Vector.h</text>
</a>
</g>
</g>
<!-- Node3&#45;&gt;Node7 -->
<g id="edge6" class="edge">
<title>Node3&#45;&gt;Node7</title>
<path fill="none" stroke="midnightblue" d="M378.39,-190.4C365.07,-181.28 347.54,-169.29 332.84,-159.24"/>
<polygon fill="midnightblue" stroke="midnightblue" points="334.8,-156.33 324.57,-153.58 330.85,-162.11 334.8,-156.33"/>
</g>
<!-- Node9 -->
<g id="node9" class="node">
<title>Node9</title>
<g id="a_node9"><a xlink:href="TemplateHelpers_8h_source.html" target="_top" xlink:title=" ">
<polygon fill="none" stroke="black" points="41.5,-56.5 41.5,-86.5 184.5,-86.5 184.5,-56.5 41.5,-56.5"/>
<text text-anchor="start" x="49.5" y="-74.5" font-family="Helvetica,sans-Serif" font-size="10.00">BipedalLocomotion/Generic</text>
<text text-anchor="middle" x="113" y="-63.5" font-family="Helvetica,sans-Serif" font-size="10.00">Container/TemplateHelpers.h</text>
</a>
</g>
</g>
<!-- Node3&#45;&gt;Node9 -->
<g id="edge16" class="edge">
<title>Node3&#45;&gt;Node9</title>
<path fill="none" stroke="midnightblue" d="M332.14,-190.42C299.47,-182.16 260.16,-170.14 227,-154 193.25,-137.57 158.77,-111.34 136.7,-93.09"/>
<polygon fill="midnightblue" stroke="midnightblue" points="138.79,-90.27 128.88,-86.52 134.29,-95.63 138.79,-90.27"/>
</g>
<!-- Node7&#45;&gt;Node4 -->
<g id="edge15" class="edge">
<title>Node7&#45;&gt;Node4</title>
<path fill="none" stroke="midnightblue" d="M354.91,-123.41C387.97,-113.91 431.86,-100.67 470,-87 471.86,-86.33 473.76,-85.63 475.67,-84.89"/>
<polygon fill="midnightblue" stroke="midnightblue" points="477.15,-88.07 485.14,-81.12 474.56,-81.57 477.15,-88.07"/>
</g>
<!-- Node8 -->
<g id="node8" class="node">
<title>Node8</title>
<g id="a_node8"><a xlink:title=" ">
<polygon fill="none" stroke="#bfbfbf" points="347,-62 347,-81 461,-81 461,-62 347,-62"/>
<text text-anchor="middle" x="404" y="-69" font-family="Helvetica,sans-Serif" font-size="10.00">iDynTree/Core/Span.h</text>
</a>
</g>
</g>
<!-- Node7&#45;&gt;Node8 -->
<g id="edge7" class="edge">
<title>Node7&#45;&gt;Node8</title>
<path fill="none" stroke="midnightblue" d="M325.7,-123.4C342.47,-112.5 365.57,-97.48 382.33,-86.58"/>
<polygon fill="midnightblue" stroke="midnightblue" points="384.44,-89.39 390.91,-81.01 380.62,-83.52 384.44,-89.39"/>
</g>
<!-- Node7&#45;&gt;Node9 -->
<g id="edge8" class="edge">
<title>Node7&#45;&gt;Node9</title>
<path fill="none" stroke="midnightblue" d="M262.56,-123.4C233.65,-113.56 194.89,-100.37 164.07,-89.88"/>
<polygon fill="midnightblue" stroke="midnightblue" points="164.96,-86.48 154.36,-86.58 162.7,-93.11 164.96,-86.48"/>
</g>
<!-- Node13 -->
<g id="node13" class="node">
<title>Node13</title>
<g id="a_node13"><a xlink:title=" ">
<polygon fill="none" stroke="#bfbfbf" points="202.5,-62 202.5,-81 261.5,-81 261.5,-62 202.5,-62"/>
<text text-anchor="middle" x="232" y="-69" font-family="Helvetica,sans-Serif" font-size="10.00">functional</text>
</a>
</g>
</g>
<!-- Node7&#45;&gt;Node13 -->
<g id="edge12" class="edge">
<title>Node7&#45;&gt;Node13</title>
<path fill="none" stroke="midnightblue" d="M288.38,-123.4C276.82,-112.96 261.08,-98.75 249.17,-88"/>
<polygon fill="midnightblue" stroke="midnightblue" points="251.4,-85.3 241.63,-81.19 246.71,-90.49 251.4,-85.3"/>
</g>
<!-- Node14 -->
<g id="node14" class="node">
<title>Node14</title>
<g id="a_node14"><a xlink:title=" ">
<polygon fill="none" stroke="#bfbfbf" points="279.5,-62 279.5,-81 328.5,-81 328.5,-62 279.5,-62"/>
<text text-anchor="middle" x="304" y="-69" font-family="Helvetica,sans-Serif" font-size="10.00">cassert</text>
</a>
</g>
</g>
<!-- Node7&#45;&gt;Node14 -->
<g id="edge13" class="edge">
<title>Node7&#45;&gt;Node14</title>
<path fill="none" stroke="midnightblue" d="M304,-123.4C304,-114.06 304,-101.71 304,-91.52"/>
<polygon fill="midnightblue" stroke="midnightblue" points="307.5,-91.19 304,-81.19 300.5,-91.19 307.5,-91.19"/>
</g>
<!-- Node7&#45;&gt;Node15 -->
<g id="edge14" class="edge">
<title>Node7&#45;&gt;Node15</title>
<path fill="none" stroke="midnightblue" d="M372.18,-123.48C436.68,-110.21 531.09,-90.79 582.77,-80.16"/>
<polygon fill="midnightblue" stroke="midnightblue" points="583.74,-83.53 592.83,-78.09 582.33,-76.68 583.74,-83.53"/>
</g>
<!-- Node10 -->
<g id="node10" class="node">
<title>Node10</title>
<g id="a_node10"><a xlink:title=" ">
<polygon fill="none" stroke="#bfbfbf" points="0,-0.5 0,-19.5 62,-19.5 62,-0.5 0,-0.5"/>
<text text-anchor="middle" x="31" y="-7.5" font-family="Helvetica,sans-Serif" font-size="10.00">type_traits</text>
</a>
</g>
</g>
<!-- Node9&#45;&gt;Node10 -->
<g id="edge9" class="edge">
<title>Node9&#45;&gt;Node10</title>
<path fill="none" stroke="midnightblue" d="M93.57,-56.4C80.79,-47.13 64.11,-35.03 51.19,-25.65"/>
<polygon fill="midnightblue" stroke="midnightblue" points="53.08,-22.7 42.93,-19.66 48.97,-28.36 53.08,-22.7"/>
</g>
<!-- Node11 -->
<g id="node11" class="node">
<title>Node11</title>
<g id="a_node11"><a xlink:title=" ">
<polygon fill="none" stroke="#bfbfbf" points="80,-0.5 80,-19.5 146,-19.5 146,-0.5 80,-0.5"/>
<text text-anchor="middle" x="113" y="-7.5" font-family="Helvetica,sans-Serif" font-size="10.00">string_view</text>
</a>
</g>
</g>
<!-- Node9&#45;&gt;Node11 -->
<g id="edge10" class="edge">
<title>Node9&#45;&gt;Node11</title>
<path fill="none" stroke="midnightblue" d="M113,-56.4C113,-48.47 113,-38.46 113,-29.86"/>
<polygon fill="midnightblue" stroke="midnightblue" points="116.5,-29.66 113,-19.66 109.5,-29.66 116.5,-29.66"/>
</g>
<!-- Node12 -->
<g id="node12" class="node">
<title>Node12</title>
<g id="a_node12"><a xlink:title=" ">
<polygon fill="none" stroke="#bfbfbf" points="164.5,-0.5 164.5,-19.5 229.5,-19.5 229.5,-0.5 164.5,-0.5"/>
<text text-anchor="middle" x="197" y="-7.5" font-family="Helvetica,sans-Serif" font-size="10.00">Eigen/Core</text>
</a>
</g>
</g>
<!-- Node9&#45;&gt;Node12 -->
<g id="edge11" class="edge">
<title>Node9&#45;&gt;Node12</title>
<path fill="none" stroke="midnightblue" d="M132.91,-56.4C145.99,-47.13 163.08,-35.03 176.32,-25.65"/>
<polygon fill="midnightblue" stroke="midnightblue" points="178.64,-28.29 184.78,-19.66 174.59,-22.58 178.64,-28.29"/>
</g>
<!-- Node16&#45;&gt;Node5 -->
<g id="edge19" class="edge">
<title>Node16&#45;&gt;Node5</title>
<path fill="none" stroke="midnightblue" d="M552.5,-190.4C544.32,-180.36 533.29,-166.84 524.66,-156.25"/>
<polygon fill="midnightblue" stroke="midnightblue" points="527.12,-153.73 518.09,-148.19 521.7,-158.16 527.12,-153.73"/>
</g>
<!-- Node17 -->
<g id="node17" class="node">
<title>Node17</title>
<g id="a_node17"><a xlink:title=" ">
<polygon fill="none" stroke="#bfbfbf" points="549.5,-129 549.5,-148 620.5,-148 620.5,-129 549.5,-129"/>
<text text-anchor="middle" x="585" y="-136" font-family="Helvetica,sans-Serif" font-size="10.00">manif/SE3.h</text>
</a>
</g>
</g>
<!-- Node16&#45;&gt;Node17 -->
<g id="edge18" class="edge">
<title>Node16&#45;&gt;Node17</title>
<path fill="none" stroke="midnightblue" d="M568.56,-190.4C571.64,-180.86 575.73,-168.18 579.07,-157.86"/>
<polygon fill="midnightblue" stroke="midnightblue" points="582.45,-158.79 582.19,-148.19 575.79,-156.63 582.45,-158.79"/>
</g>
</g>
</svg>
