<?xml version="1.0" encoding="UTF-8" standalone="no"?>
<!DOCTYPE svg PUBLIC "-//W3C//DTD SVG 1.1//EN"
 "http://www.w3.org/Graphics/SVG/1.1/DTD/svg11.dtd">
<!-- Generated by graphviz version 2.43.0 (0)
 -->
<!-- Title: ContactModels/src/ContactModel.cpp Pages: 1 -->
<svg width="1472pt" height="363pt"
 viewBox="0.00 0.00 1471.94 363.00" xmlns="http://www.w3.org/2000/svg" xmlns:xlink="http://www.w3.org/1999/xlink">
<g id="graph0" class="graph" transform="scale(1 1) rotate(0) translate(4 359)">
<title>ContactModels/src/ContactModel.cpp</title>
<!-- Node1 -->
<g id="node1" class="node">
<title>Node1</title>
<g id="a_node1"><a xlink:title=" ">
<polygon fill="#bfbfbf" stroke="black" points="701.5,-324.5 701.5,-354.5 838.5,-354.5 838.5,-324.5 701.5,-324.5"/>
<text text-anchor="start" x="709.5" y="-342.5" font-family="Helvetica,sans-Serif" font-size="10.00">ContactModels/src/Contact</text>
<text text-anchor="middle" x="770" y="-331.5" font-family="Helvetica,sans-Serif" font-size="10.00">Model.cpp</text>
</a>
</g>
</g>
<!-- Node2 -->
<g id="node2" class="node">
<title>Node2</title>
<g id="a_node2"><a xlink:href="ContactModel_8h.html" target="_top" xlink:title=" ">
<polygon fill="none" stroke="black" points="701.5,-257.5 701.5,-287.5 838.5,-287.5 838.5,-257.5 701.5,-257.5"/>
<text text-anchor="start" x="709.5" y="-275.5" font-family="Helvetica,sans-Serif" font-size="10.00">BipedalLocomotion/Contact</text>
<text text-anchor="middle" x="770" y="-264.5" font-family="Helvetica,sans-Serif" font-size="10.00">Models/ContactModel.h</text>
</a>
</g>
</g>
<!-- Node1&#45;&gt;Node2 -->
<g id="edge1" class="edge">
<title>Node1&#45;&gt;Node2</title>
<path fill="none" stroke="midnightblue" d="M770,-324.4C770,-316.64 770,-306.81 770,-297.86"/>
<polygon fill="midnightblue" stroke="midnightblue" points="773.5,-297.58 770,-287.58 766.5,-297.58 773.5,-297.58"/>
</g>
<!-- Node3 -->
<g id="node3" class="node">
<title>Node3</title>
<g id="a_node3"><a xlink:title=" ">
<polygon fill="none" stroke="#bfbfbf" points="160,-196 160,-215 192,-215 192,-196 160,-196"/>
<text text-anchor="middle" x="176" y="-203" font-family="Helvetica,sans-Serif" font-size="10.00">any</text>
</a>
</g>
</g>
<!-- Node2&#45;&gt;Node3 -->
<g id="edge2" class="edge">
<title>Node2&#45;&gt;Node3</title>
<path fill="none" stroke="midnightblue" d="M701.46,-268.45C572.28,-262.19 297.56,-246.32 206,-221 204.28,-220.52 202.53,-219.95 200.79,-219.31"/>
<polygon fill="midnightblue" stroke="midnightblue" points="201.72,-215.9 191.15,-215.13 198.94,-222.32 201.72,-215.9"/>
</g>
<!-- Node4 -->
<g id="node4" class="node">
<title>Node4</title>
<g id="a_node4"><a xlink:title=" ">
<polygon fill="none" stroke="#bfbfbf" points="552,-62 552,-81 604,-81 604,-62 552,-62"/>
<text text-anchor="middle" x="578" y="-69" font-family="Helvetica,sans-Serif" font-size="10.00">memory</text>
</a>
</g>
</g>
<!-- Node2&#45;&gt;Node4 -->
<g id="edge3" class="edge">
<title>Node2&#45;&gt;Node4</title>
<path fill="none" stroke="midnightblue" d="M838.69,-271.63C1004.39,-271.21 1415.51,-265.65 1457,-221 1466.38,-210.91 1466.07,-200.37 1457,-190 1400.38,-125.3 773.37,-84.05 614.45,-74.59"/>
<polygon fill="midnightblue" stroke="midnightblue" points="614.43,-71.08 604.25,-73.99 614.02,-78.07 614.43,-71.08"/>
</g>
<!-- Node5 -->
<g id="node5" class="node">
<title>Node5</title>
<g id="a_node5"><a xlink:title=" ">
<polygon fill="none" stroke="#bfbfbf" points="199.5,-129 199.5,-148 240.5,-148 240.5,-129 199.5,-129"/>
<text text-anchor="middle" x="220" y="-136" font-family="Helvetica,sans-Serif" font-size="10.00">string</text>
</a>
</g>
</g>
<!-- Node2&#45;&gt;Node5 -->
<g id="edge4" class="edge">
<title>Node2&#45;&gt;Node5</title>
<path fill="none" stroke="midnightblue" d="M701.28,-269.38C565.53,-264.56 273.12,-250.82 239,-221 221.25,-205.49 218.37,-176.9 218.64,-158.04"/>
<polygon fill="midnightblue" stroke="midnightblue" points="222.14,-158.15 219.09,-148 215.14,-157.83 222.14,-158.15"/>
</g>
<!-- Node6 -->
<g id="node6" class="node">
<title>Node6</title>
<g id="a_node6"><a xlink:title=" ">
<polygon fill="none" stroke="#bfbfbf" points="418.5,-196 418.5,-215 501.5,-215 501.5,-196 418.5,-196"/>
<text text-anchor="middle" x="460" y="-203" font-family="Helvetica,sans-Serif" font-size="10.00">unordered_map</text>
</a>
</g>
</g>
<!-- Node2&#45;&gt;Node6 -->
<g id="edge5" class="edge">
<title>Node2&#45;&gt;Node6</title>
<path fill="none" stroke="midnightblue" d="M701.5,-259.77C649.09,-250.41 575.16,-236.35 511,-221 506.87,-220.01 502.57,-218.91 498.3,-217.77"/>
<polygon fill="midnightblue" stroke="midnightblue" points="499.05,-214.34 488.48,-215.06 497.19,-221.09 499.05,-214.34"/>
</g>
<!-- Node7 -->
<g id="node7" class="node">
<title>Node7</title>
<g id="a_node7"><a xlink:title=" ">
<polygon fill="none" stroke="#bfbfbf" points="520,-196 520,-215 676,-215 676,-196 520,-196"/>
<text text-anchor="middle" x="598" y="-203" font-family="Helvetica,sans-Serif" font-size="10.00">iDynTree/Core/MatrixDynSize.h</text>
</a>
</g>
</g>
<!-- Node2&#45;&gt;Node7 -->
<g id="edge6" class="edge">
<title>Node2&#45;&gt;Node7</title>
<path fill="none" stroke="midnightblue" d="M732.68,-257.4C702.1,-245.84 659.27,-229.66 630.18,-218.66"/>
<polygon fill="midnightblue" stroke="midnightblue" points="631.1,-215.27 620.51,-215.01 628.63,-221.82 631.1,-215.27"/>
</g>
<!-- Node8 -->
<g id="node8" class="node">
<title>Node8</title>
<g id="a_node8"><a xlink:title=" ">
<polygon fill="none" stroke="#bfbfbf" points="694,-196 694,-215 846,-215 846,-196 694,-196"/>
<text text-anchor="middle" x="770" y="-203" font-family="Helvetica,sans-Serif" font-size="10.00">iDynTree/Core/MatrixFixSize.h</text>
</a>
</g>
</g>
<!-- Node2&#45;&gt;Node8 -->
<g id="edge7" class="edge">
<title>Node2&#45;&gt;Node8</title>
<path fill="none" stroke="midnightblue" d="M770,-257.4C770,-248.06 770,-235.71 770,-225.52"/>
<polygon fill="midnightblue" stroke="midnightblue" points="773.5,-225.19 770,-215.19 766.5,-225.19 773.5,-225.19"/>
</g>
<!-- Node9 -->
<g id="node9" class="node">
<title>Node9</title>
<g id="a_node9"><a xlink:title=" ">
<polygon fill="none" stroke="#bfbfbf" points="864,-196 864,-215 1000,-215 1000,-196 864,-196"/>
<text text-anchor="middle" x="932" y="-203" font-family="Helvetica,sans-Serif" font-size="10.00">iDynTree/Core/Transform.h</text>
</a>
</g>
</g>
<!-- Node2&#45;&gt;Node9 -->
<g id="edge8" class="edge">
<title>Node2&#45;&gt;Node9</title>
<path fill="none" stroke="midnightblue" d="M805.15,-257.4C833.83,-245.89 873.94,-229.8 901.33,-218.81"/>
<polygon fill="midnightblue" stroke="midnightblue" points="902.82,-221.98 910.8,-215.01 900.21,-215.48 902.82,-221.98"/>
</g>
<!-- Node10 -->
<g id="node10" class="node">
<title>Node10</title>
<g id="a_node10"><a xlink:title=" ">
<polygon fill="none" stroke="#bfbfbf" points="1018.5,-196 1018.5,-215 1133.5,-215 1133.5,-196 1018.5,-196"/>
<text text-anchor="middle" x="1076" y="-203" font-family="Helvetica,sans-Serif" font-size="10.00">iDynTree/Core/Twist.h</text>
</a>
</g>
</g>
<!-- Node2&#45;&gt;Node10 -->
<g id="edge9" class="edge">
<title>Node2&#45;&gt;Node10</title>
<path fill="none" stroke="midnightblue" d="M836.72,-257.49C884.67,-247.41 950.84,-233.44 1009,-221 1014.74,-219.77 1020.76,-218.48 1026.73,-217.19"/>
<polygon fill="midnightblue" stroke="midnightblue" points="1027.65,-220.57 1036.68,-215.04 1026.17,-213.73 1027.65,-220.57"/>
</g>
<!-- Node11 -->
<g id="node11" class="node">
<title>Node11</title>
<g id="a_node11"><a xlink:title=" ">
<polygon fill="none" stroke="#bfbfbf" points="1151.5,-196 1151.5,-215 1304.5,-215 1304.5,-196 1151.5,-196"/>
<text text-anchor="middle" x="1228" y="-203" font-family="Helvetica,sans-Serif" font-size="10.00">iDynTree/Core/VectorFixSize.h</text>
</a>
</g>
</g>
<!-- Node2&#45;&gt;Node11 -->
<g id="edge10" class="edge">
<title>Node2&#45;&gt;Node11</title>
<path fill="none" stroke="midnightblue" d="M838.51,-262.94C913.4,-253.42 1036.9,-237.23 1143,-221 1151.6,-219.68 1160.68,-218.22 1169.57,-216.74"/>
<polygon fill="midnightblue" stroke="midnightblue" points="1170.22,-220.18 1179.5,-215.07 1169.06,-213.28 1170.22,-220.18"/>
</g>
<!-- Node12 -->
<g id="node12" class="node">
<title>Node12</title>
<g id="a_node12"><a xlink:title=" ">
<polygon fill="none" stroke="#bfbfbf" points="1322.5,-196 1322.5,-215 1447.5,-215 1447.5,-196 1322.5,-196"/>
<text text-anchor="middle" x="1385" y="-203" font-family="Helvetica,sans-Serif" font-size="10.00">iDynTree/Core/Wrench.h</text>
</a>
</g>
</g>
<!-- Node2&#45;&gt;Node12 -->
<g id="edge11" class="edge">
<title>Node2&#45;&gt;Node12</title>
<path fill="none" stroke="midnightblue" d="M838.56,-267.54C941.99,-261.02 1143.94,-246.18 1314,-221 1321.53,-219.89 1329.46,-218.49 1337.19,-217"/>
<polygon fill="midnightblue" stroke="midnightblue" points="1338.06,-220.4 1347.18,-215.02 1336.69,-213.53 1338.06,-220.4"/>
</g>
<!-- Node13 -->
<g id="node13" class="node">
<title>Node13</title>
<g id="a_node13"><a xlink:href="IParametersHandler_8h.html" target="_top" xlink:title=" ">
<polygon fill="none" stroke="black" points="248,-190.5 248,-220.5 400,-220.5 400,-190.5 248,-190.5"/>
<text text-anchor="start" x="256" y="-208.5" font-family="Helvetica,sans-Serif" font-size="10.00">BipedalLocomotion/Parameters</text>
<text text-anchor="middle" x="324" y="-197.5" font-family="Helvetica,sans-Serif" font-size="10.00">Handler/IParametersHandler.h</text>
</a>
</g>
</g>
<!-- Node2&#45;&gt;Node13 -->
<g id="edge12" class="edge">
<title>Node2&#45;&gt;Node13</title>
<path fill="none" stroke="midnightblue" d="M701.24,-262.43C630.92,-253.02 518.27,-237.6 410.49,-221.05"/>
<polygon fill="midnightblue" stroke="midnightblue" points="410.83,-217.56 400.41,-219.5 409.77,-224.48 410.83,-217.56"/>
</g>
<!-- Node13&#45;&gt;Node4 -->
<g id="edge13" class="edge">
<title>Node13&#45;&gt;Node4</title>
<path fill="none" stroke="midnightblue" d="M364.43,-190.43C387.87,-181.49 417.5,-168.83 442,-154 460.65,-142.71 461.77,-134.95 480,-123 502.29,-108.4 529.32,-94.74 549.34,-85.32"/>
<polygon fill="midnightblue" stroke="midnightblue" points="550.95,-88.43 558.55,-81.05 548.01,-82.08 550.95,-88.43"/>
</g>
<!-- Node13&#45;&gt;Node5 -->
<g id="edge14" class="edge">
<title>Node13&#45;&gt;Node5</title>
<path fill="none" stroke="midnightblue" d="M301.43,-190.4C283.99,-179.5 259.97,-164.48 242.53,-153.58"/>
<polygon fill="midnightblue" stroke="midnightblue" points="243.95,-150.34 233.61,-148.01 240.24,-156.28 243.95,-150.34"/>
</g>
<!-- Node14 -->
<g id="node14" class="node">
<title>Node14</title>
<g id="a_node14"><a xlink:title=" ">
<polygon fill="none" stroke="#bfbfbf" points="489,-129 489,-148 533,-148 533,-129 489,-129"/>
<text text-anchor="middle" x="511" y="-136" font-family="Helvetica,sans-Serif" font-size="10.00">vector</text>
</a>
</g>
</g>
<!-- Node13&#45;&gt;Node14 -->
<g id="edge15" class="edge">
<title>Node13&#45;&gt;Node14</title>
<path fill="none" stroke="midnightblue" d="M368.18,-190.5C398.42,-180.73 439.33,-167.13 475,-154 476.85,-153.32 478.75,-152.6 480.66,-151.87"/>
<polygon fill="midnightblue" stroke="midnightblue" points="482.11,-155.06 490.14,-148.15 479.56,-148.54 482.11,-155.06"/>
</g>
<!-- Node15 -->
<g id="node15" class="node">
<title>Node15</title>
<g id="a_node15"><a xlink:href="Vector_8h_source.html" target="_top" xlink:title=" ">
<polygon fill="none" stroke="black" points="297,-123.5 297,-153.5 433,-153.5 433,-123.5 297,-123.5"/>
<text text-anchor="start" x="305" y="-141.5" font-family="Helvetica,sans-Serif" font-size="10.00">BipedalLocomotion/Generic</text>
<text text-anchor="middle" x="365" y="-130.5" font-family="Helvetica,sans-Serif" font-size="10.00">Container/Vector.h</text>
</a>
</g>
</g>
<!-- Node13&#45;&gt;Node15 -->
<g id="edge16" class="edge">
<title>Node13&#45;&gt;Node15</title>
<path fill="none" stroke="midnightblue" d="M332.9,-190.4C338.11,-182.13 344.81,-171.51 350.74,-162.1"/>
<polygon fill="midnightblue" stroke="midnightblue" points="353.75,-163.9 356.12,-153.58 347.83,-160.17 353.75,-163.9"/>
</g>
<!-- Node17 -->
<g id="node17" class="node">
<title>Node17</title>
<g id="a_node17"><a xlink:href="TemplateHelpers_8h_source.html" target="_top" xlink:title=" ">
<polygon fill="none" stroke="black" points="41.5,-56.5 41.5,-86.5 184.5,-86.5 184.5,-56.5 41.5,-56.5"/>
<text text-anchor="start" x="49.5" y="-74.5" font-family="Helvetica,sans-Serif" font-size="10.00">BipedalLocomotion/Generic</text>
<text text-anchor="middle" x="113" y="-63.5" font-family="Helvetica,sans-Serif" font-size="10.00">Container/TemplateHelpers.h</text>
</a>
</g>
</g>
<!-- Node13&#45;&gt;Node17 -->
<g id="edge26" class="edge">
<title>Node13&#45;&gt;Node17</title>
<path fill="none" stroke="midnightblue" d="M314.57,-190.49C301.85,-172.56 277.57,-141.59 250,-123 228.57,-108.55 202.48,-97.6 178.84,-89.65"/>
<polygon fill="midnightblue" stroke="midnightblue" points="179.82,-86.29 169.23,-86.54 177.67,-92.95 179.82,-86.29"/>
</g>
<!-- Node15&#45;&gt;Node4 -->
<g id="edge25" class="edge">
<title>Node15&#45;&gt;Node4</title>
<path fill="none" stroke="midnightblue" d="M420.84,-123.45C456.18,-114.11 502.65,-101.03 543,-87 544.91,-86.34 546.87,-85.62 548.83,-84.88"/>
<polygon fill="midnightblue" stroke="midnightblue" points="550.53,-87.97 558.53,-81.04 547.95,-81.47 550.53,-87.97"/>
</g>
<!-- Node16 -->
<g id="node16" class="node">
<title>Node16</title>
<g id="a_node16"><a xlink:title=" ">
<polygon fill="none" stroke="#bfbfbf" points="203,-62 203,-81 317,-81 317,-62 203,-62"/>
<text text-anchor="middle" x="260" y="-69" font-family="Helvetica,sans-Serif" font-size="10.00">iDynTree/Core/Span.h</text>
</a>
</g>
</g>
<!-- Node15&#45;&gt;Node16 -->
<g id="edge17" class="edge">
<title>Node15&#45;&gt;Node16</title>
<path fill="none" stroke="midnightblue" d="M342.22,-123.4C324.45,-112.39 299.9,-97.2 282.26,-86.28"/>
<polygon fill="midnightblue" stroke="midnightblue" points="284.09,-83.29 273.74,-81.01 280.4,-89.25 284.09,-83.29"/>
</g>
<!-- Node15&#45;&gt;Node17 -->
<g id="edge18" class="edge">
<title>Node15&#45;&gt;Node17</title>
<path fill="none" stroke="midnightblue" d="M310.63,-123.48C271.6,-113.41 218.84,-99.8 177.65,-89.17"/>
<polygon fill="midnightblue" stroke="midnightblue" points="178.26,-85.72 167.71,-86.61 176.52,-92.5 178.26,-85.72"/>
</g>
<!-- Node21 -->
<g id="node21" class="node">
<title>Node21</title>
<g id="a_node21"><a xlink:title=" ">
<polygon fill="none" stroke="#bfbfbf" points="335.5,-62 335.5,-81 394.5,-81 394.5,-62 335.5,-62"/>
<text text-anchor="middle" x="365" y="-69" font-family="Helvetica,sans-Serif" font-size="10.00">functional</text>
</a>
</g>
</g>
<!-- Node15&#45;&gt;Node21 -->
<g id="edge22" class="edge">
<title>Node15&#45;&gt;Node21</title>
<path fill="none" stroke="midnightblue" d="M365,-123.4C365,-114.06 365,-101.71 365,-91.52"/>
<polygon fill="midnightblue" stroke="midnightblue" points="368.5,-91.19 365,-81.19 361.5,-91.19 368.5,-91.19"/>
</g>
<!-- Node22 -->
<g id="node22" class="node">
<title>Node22</title>
<g id="a_node22"><a xlink:title=" ">
<polygon fill="none" stroke="#bfbfbf" points="412.5,-62 412.5,-81 461.5,-81 461.5,-62 412.5,-62"/>
<text text-anchor="middle" x="437" y="-69" font-family="Helvetica,sans-Serif" font-size="10.00">cassert</text>
</a>
</g>
</g>
<!-- Node15&#45;&gt;Node22 -->
<g id="edge23" class="edge">
<title>Node15&#45;&gt;Node22</title>
<path fill="none" stroke="midnightblue" d="M380.62,-123.4C392.18,-112.96 407.92,-98.75 419.83,-88"/>
<polygon fill="midnightblue" stroke="midnightblue" points="422.29,-90.49 427.37,-81.19 417.6,-85.3 422.29,-90.49"/>
</g>
<!-- Node23 -->
<g id="node23" class="node">
<title>Node23</title>
<g id="a_node23"><a xlink:title=" ">
<polygon fill="none" stroke="#bfbfbf" points="480,-62 480,-81 534,-81 534,-62 480,-62"/>
<text text-anchor="middle" x="507" y="-69" font-family="Helvetica,sans-Serif" font-size="10.00">iostream</text>
</a>
</g>
</g>
<!-- Node15&#45;&gt;Node23 -->
<g id="edge24" class="edge">
<title>Node15&#45;&gt;Node23</title>
<path fill="none" stroke="midnightblue" d="M395.81,-123.4C420.62,-112.04 455.18,-96.22 479.16,-85.24"/>
<polygon fill="midnightblue" stroke="midnightblue" points="480.78,-88.35 488.42,-81.01 477.87,-81.99 480.78,-88.35"/>
</g>
<!-- Node18 -->
<g id="node18" class="node">
<title>Node18</title>
<g id="a_node18"><a xlink:title=" ">
<polygon fill="none" stroke="#bfbfbf" points="0,-0.5 0,-19.5 62,-19.5 62,-0.5 0,-0.5"/>
<text text-anchor="middle" x="31" y="-7.5" font-family="Helvetica,sans-Serif" font-size="10.00">type_traits</text>
</a>
</g>
</g>
<!-- Node17&#45;&gt;Node18 -->
<g id="edge19" class="edge">
<title>Node17&#45;&gt;Node18</title>
<path fill="none" stroke="midnightblue" d="M93.57,-56.4C80.79,-47.13 64.11,-35.03 51.19,-25.65"/>
<polygon fill="midnightblue" stroke="midnightblue" points="53.08,-22.7 42.93,-19.66 48.97,-28.36 53.08,-22.7"/>
</g>
<!-- Node19 -->
<g id="node19" class="node">
<title>Node19</title>
<g id="a_node19"><a xlink:title=" ">
<polygon fill="none" stroke="#bfbfbf" points="80,-0.5 80,-19.5 146,-19.5 146,-0.5 80,-0.5"/>
<text text-anchor="middle" x="113" y="-7.5" font-family="Helvetica,sans-Serif" font-size="10.00">string_view</text>
</a>
</g>
</g>
<!-- Node17&#45;&gt;Node19 -->
<g id="edge20" class="edge">
<title>Node17&#45;&gt;Node19</title>
<path fill="none" stroke="midnightblue" d="M113,-56.4C113,-48.47 113,-38.46 113,-29.86"/>
<polygon fill="midnightblue" stroke="midnightblue" points="116.5,-29.66 113,-19.66 109.5,-29.66 116.5,-29.66"/>
</g>
<!-- Node20 -->
<g id="node20" class="node">
<title>Node20</title>
<g id="a_node20"><a xlink:title=" ">
<polygon fill="none" stroke="#bfbfbf" points="164.5,-0.5 164.5,-19.5 229.5,-19.5 229.5,-0.5 164.5,-0.5"/>
<text text-anchor="middle" x="197" y="-7.5" font-family="Helvetica,sans-Serif" font-size="10.00">Eigen/Core</text>
</a>
</g>
</g>
<!-- Node17&#45;&gt;Node20 -->
<g id="edge21" class="edge">
<title>Node17&#45;&gt;Node20</title>
<path fill="none" stroke="midnightblue" d="M132.91,-56.4C145.99,-47.13 163.08,-35.03 176.32,-25.65"/>
<polygon fill="midnightblue" stroke="midnightblue" points="178.64,-28.29 184.78,-19.66 174.59,-22.58 178.64,-28.29"/>
</g>
</g>
</svg>
