<?xml version="1.0" encoding="UTF-8" standalone="no"?>
<!DOCTYPE svg PUBLIC "-//W3C//DTD SVG 1.1//EN"
 "http://www.w3.org/Graphics/SVG/1.1/DTD/svg11.dtd">
<!-- Generated by graphviz version 2.43.0 (0)
 -->
<!-- Title: System/include/BipedalLocomotion/System/ContactWrench.h Pages: 1 -->
<!--zoomable 363 -->
<svg id="main" version="1.1" xmlns="http://www.w3.org/2000/svg" xmlns:xlink="http://www.w3.org/1999/xlink" xml:space="preserve" onload="init(evt)">
<style type="text/css"><![CDATA[
.edge:hover path { stroke: red; }
.edge:hover polygon { stroke: red; fill: red; }
]]></style>
<script type="text/javascript"><![CDATA[
var edges = document.getElementsByTagName('g');
if (edges && edges.length) {
  for (var i=0;i<edges.length;i++) {
    if (edges[i].id.substr(0,4)=='edge') {
      edges[i].setAttribute('class','edge');
    }
  }
}
]]></script>
        <defs>
                <circle id="rim" cx="0" cy="0" r="7"/>
                <circle id="rim2" cx="0" cy="0" r="3.5"/>
                <g id="zoomPlus">
                        <use xlink:href="#rim" fill="#404040">
                                <set attributeName="fill" to="#808080" begin="zoomplus.mouseover" end="zoomplus.mouseout"/>
                        </use>
                        <path d="M-4,0h8M0,-4v8" fill="none" stroke="white" stroke-width="1.5" pointer-events="none"/>
                </g>
                <g id="zoomMin">
                        <use xlink:href="#rim" fill="#404040">
                                <set attributeName="fill" to="#808080" begin="zoomminus.mouseover" end="zoomminus.mouseout"/>
                        </use>
                        <path d="M-4,0h8" fill="none" stroke="white" stroke-width="1.5" pointer-events="none"/>
                </g>
                <g id="dirArrow">
                        <path fill="none" stroke="white" stroke-width="1.5" d="M0,-3.0v7 M-2.5,-0.5L0,-3.0L2.5,-0.5"/>
                </g>
               <g id="resetDef">
                       <use xlink:href="#rim2" fill="#404040">
                               <set attributeName="fill" to="#808080" begin="reset.mouseover" end="reset.mouseout"/>
                       </use>
               </g>
        </defs>

<script type="text/javascript">
var viewWidth = 1401;
var viewHeight = 363;
var sectionId = 'dynsection-0';
</script>
<script xlink:href="svgpan.js"/>
<svg id="graph" class="graph">
<g id="viewport">
<title>System/include/BipedalLocomotion/System/ContactWrench.h</title>
<!-- Node1 -->
<g id="node1" class="node">
<title>Node1</title>
<g id="a_node1"><a xlink:title=" ">
<polygon fill="#bfbfbf" stroke="black" points="392,-324.5 392,-354.5 562,-354.5 562,-324.5 392,-324.5"/>
<text text-anchor="start" x="400" y="-342.5" font-family="Helvetica,sans-Serif" font-size="10.00">System/include/BipedalLocomotion</text>
<text text-anchor="middle" x="477" y="-331.5" font-family="Helvetica,sans-Serif" font-size="10.00">/System/ContactWrench.h</text>
</a>
</g>
</g>
<!-- Node2 -->
<g id="node2" class="node">
<title>Node2</title>
<g id="a_node2"><a xlink:title=" ">
<polygon fill="none" stroke="#bfbfbf" points="66.5,-196 66.5,-215 191.5,-215 191.5,-196 66.5,-196"/>
<text text-anchor="middle" x="129" y="-203" font-family="Helvetica,sans-Serif" font-size="10.00">iDynTree/Core/Wrench.h</text>
</a>
</g>
</g>
<!-- Node1&#45;&gt;Node2 -->
<g id="edge1" class="edge">
<title>Node1&#45;&gt;Node2</title>
<path fill="none" stroke="midnightblue" d="M440.09,-324.5C371.68,-298.55 226.28,-243.4 161.41,-218.79"/>
<polygon fill="midnightblue" stroke="midnightblue" points="162.31,-215.39 151.72,-215.12 159.83,-221.94 162.31,-215.39"/>
</g>
<!-- Node3 -->
<g id="node3" class="node">
<title>Node3</title>
<g id="a_node3"><a xlink:title=" ">
<polygon fill="none" stroke="#bfbfbf" points="413,-263 413,-282 541,-282 541,-263 413,-263"/>
<text text-anchor="middle" x="477" y="-270" font-family="Helvetica,sans-Serif" font-size="10.00">iDynTree/Model/Indices.h</text>
</a>
</g>
</g>
<!-- Node1&#45;&gt;Node3 -->
<g id="edge2" class="edge">
<title>Node1&#45;&gt;Node3</title>
<path fill="none" stroke="midnightblue" d="M477,-324.4C477,-315.06 477,-302.71 477,-292.52"/>
<polygon fill="midnightblue" stroke="midnightblue" points="480.5,-292.19 477,-282.19 473.5,-292.19 480.5,-292.19"/>
</g>
<!-- Node4 -->
<g id="node4" class="node">
<title>Node4</title>
<g id="a_node4"><a xlink:href="ContactModel_8h.html" target="_top" xlink:title=" ">
<polygon fill="none" stroke="black" points="615.5,-257.5 615.5,-287.5 752.5,-287.5 752.5,-257.5 615.5,-257.5"/>
<text text-anchor="start" x="623.5" y="-275.5" font-family="Helvetica,sans-Serif" font-size="10.00">BipedalLocomotion/Contact</text>
<text text-anchor="middle" x="684" y="-264.5" font-family="Helvetica,sans-Serif" font-size="10.00">Models/ContactModel.h</text>
</a>
</g>
</g>
<!-- Node1&#45;&gt;Node4 -->
<g id="edge3" class="edge">
<title>Node1&#45;&gt;Node4</title>
<path fill="none" stroke="midnightblue" d="M521.66,-324.48C553.25,-314.56 595.78,-301.2 629.39,-290.65"/>
<polygon fill="midnightblue" stroke="midnightblue" points="630.57,-293.95 639.06,-287.61 628.47,-287.27 630.57,-293.95"/>
</g>
<!-- Node4&#45;&gt;Node2 -->
<g id="edge13" class="edge">
<title>Node4&#45;&gt;Node2</title>
<path fill="none" stroke="midnightblue" d="M615.49,-264.04C594.48,-261.76 571.29,-259.27 550,-257 397.14,-240.73 358.11,-243.24 206,-221 197.87,-219.81 189.28,-218.37 180.91,-216.88"/>
<polygon fill="midnightblue" stroke="midnightblue" points="181.32,-213.39 170.86,-215.03 180.06,-220.28 181.32,-213.39"/>
</g>
<!-- Node5 -->
<g id="node5" class="node">
<title>Node5</title>
<g id="a_node5"><a xlink:title=" ">
<polygon fill="none" stroke="#bfbfbf" points="1361,-196 1361,-215 1393,-215 1393,-196 1361,-196"/>
<text text-anchor="middle" x="1377" y="-203" font-family="Helvetica,sans-Serif" font-size="10.00">any</text>
</a>
</g>
</g>
<!-- Node4&#45;&gt;Node5 -->
<g id="edge4" class="edge">
<title>Node4&#45;&gt;Node5</title>
<path fill="none" stroke="midnightblue" d="M752.57,-269.51C898.69,-264.75 1236.37,-250.8 1347,-221 1348.93,-220.48 1350.88,-219.84 1352.82,-219.12"/>
<polygon fill="midnightblue" stroke="midnightblue" points="1354.41,-222.24 1362.17,-215.02 1351.6,-215.83 1354.41,-222.24"/>
</g>
<!-- Node6 -->
<g id="node6" class="node">
<title>Node6</title>
<g id="a_node6"><a xlink:title=" ">
<polygon fill="none" stroke="#bfbfbf" points="552,-62 552,-81 604,-81 604,-62 552,-62"/>
<text text-anchor="middle" x="578" y="-69" font-family="Helvetica,sans-Serif" font-size="10.00">memory</text>
</a>
</g>
</g>
<!-- Node4&#45;&gt;Node6 -->
<g id="edge5" class="edge">
<title>Node4&#45;&gt;Node6</title>
<path fill="none" stroke="midnightblue" d="M752.69,-271.13C908.18,-269.57 1276.53,-261.59 1314,-221 1323.35,-210.88 1322.94,-200.48 1314,-190 1222.12,-82.29 749.56,-72.87 614.24,-72.4"/>
<polygon fill="midnightblue" stroke="midnightblue" points="614.01,-68.9 604.01,-72.38 614,-75.9 614.01,-68.9"/>
</g>
<!-- Node7 -->
<g id="node7" class="node">
<title>Node7</title>
<g id="a_node7"><a xlink:title=" ">
<polygon fill="none" stroke="#bfbfbf" points="199.5,-129 199.5,-148 240.5,-148 240.5,-129 199.5,-129"/>
<text text-anchor="middle" x="220" y="-136" font-family="Helvetica,sans-Serif" font-size="10.00">string</text>
</a>
</g>
</g>
<!-- Node4&#45;&gt;Node7 -->
<g id="edge6" class="edge">
<title>Node4&#45;&gt;Node7</title>
<path fill="none" stroke="midnightblue" d="M615.28,-263.95C490.83,-250.25 240.74,-222.55 239,-221 221.48,-205.41 218.5,-177.08 218.69,-158.27"/>
<polygon fill="midnightblue" stroke="midnightblue" points="222.19,-158.36 219.1,-148.23 215.2,-158.08 222.19,-158.36"/>
</g>
<!-- Node8 -->
<g id="node8" class="node">
<title>Node8</title>
<g id="a_node8"><a xlink:title=" ">
<polygon fill="none" stroke="#bfbfbf" points="418.5,-196 418.5,-215 501.5,-215 501.5,-196 418.5,-196"/>
<text text-anchor="middle" x="460" y="-203" font-family="Helvetica,sans-Serif" font-size="10.00">unordered_map</text>
</a>
</g>
</g>
<!-- Node4&#45;&gt;Node8 -->
<g id="edge7" class="edge">
<title>Node4&#45;&gt;Node8</title>
<path fill="none" stroke="midnightblue" d="M635.67,-257.48C594.82,-245.62 537.05,-228.86 499.07,-217.84"/>
<polygon fill="midnightblue" stroke="midnightblue" points="499.97,-214.45 489.39,-215.03 498.02,-221.18 499.97,-214.45"/>
</g>
<!-- Node9 -->
<g id="node9" class="node">
<title>Node9</title>
<g id="a_node9"><a xlink:title=" ">
<polygon fill="none" stroke="#bfbfbf" points="520,-196 520,-215 676,-215 676,-196 520,-196"/>
<text text-anchor="middle" x="598" y="-203" font-family="Helvetica,sans-Serif" font-size="10.00">iDynTree/Core/MatrixDynSize.h</text>
</a>
</g>
</g>
<!-- Node4&#45;&gt;Node9 -->
<g id="edge8" class="edge">
<title>Node4&#45;&gt;Node9</title>
<path fill="none" stroke="midnightblue" d="M665.34,-257.4C651.27,-246.76 632.01,-232.2 617.69,-221.38"/>
<polygon fill="midnightblue" stroke="midnightblue" points="619.59,-218.43 609.5,-215.19 615.37,-224.02 619.59,-218.43"/>
</g>
<!-- Node10 -->
<g id="node10" class="node">
<title>Node10</title>
<g id="a_node10"><a xlink:title=" ">
<polygon fill="none" stroke="#bfbfbf" points="694,-196 694,-215 846,-215 846,-196 694,-196"/>
<text text-anchor="middle" x="770" y="-203" font-family="Helvetica,sans-Serif" font-size="10.00">iDynTree/Core/MatrixFixSize.h</text>
</a>
</g>
</g>
<!-- Node4&#45;&gt;Node10 -->
<g id="edge9" class="edge">
<title>Node4&#45;&gt;Node10</title>
<path fill="none" stroke="midnightblue" d="M702.66,-257.4C716.73,-246.76 735.99,-232.2 750.31,-221.38"/>
<polygon fill="midnightblue" stroke="midnightblue" points="752.63,-224.02 758.5,-215.19 748.41,-218.43 752.63,-224.02"/>
</g>
<!-- Node11 -->
<g id="node11" class="node">
<title>Node11</title>
<g id="a_node11"><a xlink:title=" ">
<polygon fill="none" stroke="#bfbfbf" points="864,-196 864,-215 1000,-215 1000,-196 864,-196"/>
<text text-anchor="middle" x="932" y="-203" font-family="Helvetica,sans-Serif" font-size="10.00">iDynTree/Core/Transform.h</text>
</a>
</g>
</g>
<!-- Node4&#45;&gt;Node11 -->
<g id="edge10" class="edge">
<title>Node4&#45;&gt;Node11</title>
<path fill="none" stroke="midnightblue" d="M737.51,-257.48C783.02,-245.55 847.51,-228.64 889.54,-217.63"/>
<polygon fill="midnightblue" stroke="midnightblue" points="890.67,-220.95 899.46,-215.03 888.9,-214.18 890.67,-220.95"/>
</g>
<!-- Node12 -->
<g id="node12" class="node">
<title>Node12</title>
<g id="a_node12"><a xlink:title=" ">
<polygon fill="none" stroke="#bfbfbf" points="1018.5,-196 1018.5,-215 1133.5,-215 1133.5,-196 1018.5,-196"/>
<text text-anchor="middle" x="1076" y="-203" font-family="Helvetica,sans-Serif" font-size="10.00">iDynTree/Core/Twist.h</text>
</a>
</g>
</g>
<!-- Node4&#45;&gt;Node12 -->
<g id="edge11" class="edge">
<title>Node4&#45;&gt;Node12</title>
<path fill="none" stroke="midnightblue" d="M752.68,-262.03C818.59,-252.66 920.86,-237.37 1009,-221 1015.3,-219.83 1021.91,-218.51 1028.42,-217.16"/>
<polygon fill="midnightblue" stroke="midnightblue" points="1029.46,-220.52 1038.52,-215.02 1028.01,-213.67 1029.46,-220.52"/>
</g>
<!-- Node13 -->
<g id="node13" class="node">
<title>Node13</title>
<g id="a_node13"><a xlink:title=" ">
<polygon fill="none" stroke="#bfbfbf" points="1151.5,-196 1151.5,-215 1304.5,-215 1304.5,-196 1151.5,-196"/>
<text text-anchor="middle" x="1228" y="-203" font-family="Helvetica,sans-Serif" font-size="10.00">iDynTree/Core/VectorFixSize.h</text>
</a>
</g>
</g>
<!-- Node4&#45;&gt;Node13 -->
<g id="edge12" class="edge">
<title>Node4&#45;&gt;Node13</title>
<path fill="none" stroke="midnightblue" d="M752.59,-265.24C842.46,-256.74 1004.86,-240.36 1143,-221 1152.04,-219.73 1161.59,-218.25 1170.9,-216.72"/>
<polygon fill="midnightblue" stroke="midnightblue" points="1171.58,-220.15 1180.87,-215.05 1170.43,-213.25 1171.58,-220.15"/>
</g>
<!-- Node14 -->
<g id="node14" class="node">
<title>Node14</title>
<g id="a_node14"><a xlink:href="IParametersHandler_8h.html" target="_top" xlink:title=" ">
<polygon fill="none" stroke="black" points="248,-190.5 248,-220.5 400,-220.5 400,-190.5 248,-190.5"/>
<text text-anchor="start" x="256" y="-208.5" font-family="Helvetica,sans-Serif" font-size="10.00">BipedalLocomotion/Parameters</text>
<text text-anchor="middle" x="324" y="-197.5" font-family="Helvetica,sans-Serif" font-size="10.00">Handler/IParametersHandler.h</text>
</a>
</g>
</g>
<!-- Node4&#45;&gt;Node14 -->
<g id="edge14" class="edge">
<title>Node4&#45;&gt;Node14</title>
<path fill="none" stroke="midnightblue" d="M615.44,-259.12C557.06,-248.58 472.88,-233.38 409.99,-222.03"/>
<polygon fill="midnightblue" stroke="midnightblue" points="410.55,-218.57 400.09,-220.24 409.31,-225.46 410.55,-218.57"/>
</g>
<!-- Node14&#45;&gt;Node6 -->
<g id="edge15" class="edge">
<title>Node14&#45;&gt;Node6</title>
<path fill="none" stroke="midnightblue" d="M364.43,-190.43C387.87,-181.49 417.5,-168.83 442,-154 460.65,-142.71 461.77,-134.95 480,-123 502.29,-108.4 529.32,-94.74 549.34,-85.32"/>
<polygon fill="midnightblue" stroke="midnightblue" points="550.95,-88.43 558.55,-81.05 548.01,-82.08 550.95,-88.43"/>
</g>
<!-- Node14&#45;&gt;Node7 -->
<g id="edge16" class="edge">
<title>Node14&#45;&gt;Node7</title>
<path fill="none" stroke="midnightblue" d="M301.43,-190.4C283.99,-179.5 259.97,-164.48 242.53,-153.58"/>
<polygon fill="midnightblue" stroke="midnightblue" points="243.95,-150.34 233.61,-148.01 240.24,-156.28 243.95,-150.34"/>
</g>
<!-- Node15 -->
<g id="node15" class="node">
<title>Node15</title>
<g id="a_node15"><a xlink:title=" ">
<polygon fill="none" stroke="#bfbfbf" points="489,-129 489,-148 533,-148 533,-129 489,-129"/>
<text text-anchor="middle" x="511" y="-136" font-family="Helvetica,sans-Serif" font-size="10.00">vector</text>
</a>
</g>
</g>
<!-- Node14&#45;&gt;Node15 -->
<g id="edge17" class="edge">
<title>Node14&#45;&gt;Node15</title>
<path fill="none" stroke="midnightblue" d="M368.18,-190.5C398.42,-180.73 439.33,-167.13 475,-154 476.85,-153.32 478.75,-152.6 480.66,-151.87"/>
<polygon fill="midnightblue" stroke="midnightblue" points="482.11,-155.06 490.14,-148.15 479.56,-148.54 482.11,-155.06"/>
</g>
<!-- Node16 -->
<g id="node16" class="node">
<title>Node16</title>
<g id="a_node16"><a xlink:href="Vector_8h_source.html" target="_top" xlink:title=" ">
<polygon fill="none" stroke="black" points="297,-123.5 297,-153.5 433,-153.5 433,-123.5 297,-123.5"/>
<text text-anchor="start" x="305" y="-141.5" font-family="Helvetica,sans-Serif" font-size="10.00">BipedalLocomotion/Generic</text>
<text text-anchor="middle" x="365" y="-130.5" font-family="Helvetica,sans-Serif" font-size="10.00">Container/Vector.h</text>
</a>
</g>
</g>
<!-- Node14&#45;&gt;Node16 -->
<g id="edge18" class="edge">
<title>Node14&#45;&gt;Node16</title>
<path fill="none" stroke="midnightblue" d="M332.9,-190.4C338.11,-182.13 344.81,-171.51 350.74,-162.1"/>
<polygon fill="midnightblue" stroke="midnightblue" points="353.75,-163.9 356.12,-153.58 347.83,-160.17 353.75,-163.9"/>
</g>
<!-- Node18 -->
<g id="node18" class="node">
<title>Node18</title>
<g id="a_node18"><a xlink:href="TemplateHelpers_8h_source.html" target="_top" xlink:title=" ">
<polygon fill="none" stroke="black" points="41.5,-56.5 41.5,-86.5 184.5,-86.5 184.5,-56.5 41.5,-56.5"/>
<text text-anchor="start" x="49.5" y="-74.5" font-family="Helvetica,sans-Serif" font-size="10.00">BipedalLocomotion/Generic</text>
<text text-anchor="middle" x="113" y="-63.5" font-family="Helvetica,sans-Serif" font-size="10.00">Container/TemplateHelpers.h</text>
</a>
</g>
</g>
<!-- Node14&#45;&gt;Node18 -->
<g id="edge28" class="edge">
<title>Node14&#45;&gt;Node18</title>
<path fill="none" stroke="midnightblue" d="M314.57,-190.49C301.85,-172.56 277.57,-141.59 250,-123 228.57,-108.55 202.48,-97.6 178.84,-89.65"/>
<polygon fill="midnightblue" stroke="midnightblue" points="179.82,-86.29 169.23,-86.54 177.67,-92.95 179.82,-86.29"/>
</g>
<!-- Node16&#45;&gt;Node6 -->
<g id="edge27" class="edge">
<title>Node16&#45;&gt;Node6</title>
<path fill="none" stroke="midnightblue" d="M420.84,-123.45C456.18,-114.11 502.65,-101.03 543,-87 544.91,-86.34 546.87,-85.62 548.83,-84.88"/>
<polygon fill="midnightblue" stroke="midnightblue" points="550.53,-87.97 558.53,-81.04 547.95,-81.47 550.53,-87.97"/>
</g>
<!-- Node17 -->
<g id="node17" class="node">
<title>Node17</title>
<g id="a_node17"><a xlink:title=" ">
<polygon fill="none" stroke="#bfbfbf" points="203,-62 203,-81 317,-81 317,-62 203,-62"/>
<text text-anchor="middle" x="260" y="-69" font-family="Helvetica,sans-Serif" font-size="10.00">iDynTree/Core/Span.h</text>
</a>
</g>
</g>
<!-- Node16&#45;&gt;Node17 -->
<g id="edge19" class="edge">
<title>Node16&#45;&gt;Node17</title>
<path fill="none" stroke="midnightblue" d="M342.22,-123.4C324.45,-112.39 299.9,-97.2 282.26,-86.28"/>
<polygon fill="midnightblue" stroke="midnightblue" points="284.09,-83.29 273.74,-81.01 280.4,-89.25 284.09,-83.29"/>
</g>
<!-- Node16&#45;&gt;Node18 -->
<g id="edge20" class="edge">
<title>Node16&#45;&gt;Node18</title>
<path fill="none" stroke="midnightblue" d="M310.63,-123.48C271.6,-113.41 218.84,-99.8 177.65,-89.17"/>
<polygon fill="midnightblue" stroke="midnightblue" points="178.26,-85.72 167.71,-86.61 176.52,-92.5 178.26,-85.72"/>
</g>
<!-- Node22 -->
<g id="node22" class="node">
<title>Node22</title>
<g id="a_node22"><a xlink:title=" ">
<polygon fill="none" stroke="#bfbfbf" points="335.5,-62 335.5,-81 394.5,-81 394.5,-62 335.5,-62"/>
<text text-anchor="middle" x="365" y="-69" font-family="Helvetica,sans-Serif" font-size="10.00">functional</text>
</a>
</g>
</g>
<!-- Node16&#45;&gt;Node22 -->
<g id="edge24" class="edge">
<title>Node16&#45;&gt;Node22</title>
<path fill="none" stroke="midnightblue" d="M365,-123.4C365,-114.06 365,-101.71 365,-91.52"/>
<polygon fill="midnightblue" stroke="midnightblue" points="368.5,-91.19 365,-81.19 361.5,-91.19 368.5,-91.19"/>
</g>
<!-- Node23 -->
<g id="node23" class="node">
<title>Node23</title>
<g id="a_node23"><a xlink:title=" ">
<polygon fill="none" stroke="#bfbfbf" points="412.5,-62 412.5,-81 461.5,-81 461.5,-62 412.5,-62"/>
<text text-anchor="middle" x="437" y="-69" font-family="Helvetica,sans-Serif" font-size="10.00">cassert</text>
</a>
</g>
</g>
<!-- Node16&#45;&gt;Node23 -->
<g id="edge25" class="edge">
<title>Node16&#45;&gt;Node23</title>
<path fill="none" stroke="midnightblue" d="M380.62,-123.4C392.18,-112.96 407.92,-98.75 419.83,-88"/>
<polygon fill="midnightblue" stroke="midnightblue" points="422.29,-90.49 427.37,-81.19 417.6,-85.3 422.29,-90.49"/>
</g>
<!-- Node24 -->
<g id="node24" class="node">
<title>Node24</title>
<g id="a_node24"><a xlink:title=" ">
<polygon fill="none" stroke="#bfbfbf" points="480,-62 480,-81 534,-81 534,-62 480,-62"/>
<text text-anchor="middle" x="507" y="-69" font-family="Helvetica,sans-Serif" font-size="10.00">iostream</text>
</a>
</g>
</g>
<!-- Node16&#45;&gt;Node24 -->
<g id="edge26" class="edge">
<title>Node16&#45;&gt;Node24</title>
<path fill="none" stroke="midnightblue" d="M395.81,-123.4C420.62,-112.04 455.18,-96.22 479.16,-85.24"/>
<polygon fill="midnightblue" stroke="midnightblue" points="480.78,-88.35 488.42,-81.01 477.87,-81.99 480.78,-88.35"/>
</g>
<!-- Node19 -->
<g id="node19" class="node">
<title>Node19</title>
<g id="a_node19"><a xlink:title=" ">
<polygon fill="none" stroke="#bfbfbf" points="0,-0.5 0,-19.5 62,-19.5 62,-0.5 0,-0.5"/>
<text text-anchor="middle" x="31" y="-7.5" font-family="Helvetica,sans-Serif" font-size="10.00">type_traits</text>
</a>
</g>
</g>
<!-- Node18&#45;&gt;Node19 -->
<g id="edge21" class="edge">
<title>Node18&#45;&gt;Node19</title>
<path fill="none" stroke="midnightblue" d="M93.57,-56.4C80.79,-47.13 64.11,-35.03 51.19,-25.65"/>
<polygon fill="midnightblue" stroke="midnightblue" points="53.08,-22.7 42.93,-19.66 48.97,-28.36 53.08,-22.7"/>
</g>
<!-- Node20 -->
<g id="node20" class="node">
<title>Node20</title>
<g id="a_node20"><a xlink:title=" ">
<polygon fill="none" stroke="#bfbfbf" points="80,-0.5 80,-19.5 146,-19.5 146,-0.5 80,-0.5"/>
<text text-anchor="middle" x="113" y="-7.5" font-family="Helvetica,sans-Serif" font-size="10.00">string_view</text>
</a>
</g>
</g>
<!-- Node18&#45;&gt;Node20 -->
<g id="edge22" class="edge">
<title>Node18&#45;&gt;Node20</title>
<path fill="none" stroke="midnightblue" d="M113,-56.4C113,-48.47 113,-38.46 113,-29.86"/>
<polygon fill="midnightblue" stroke="midnightblue" points="116.5,-29.66 113,-19.66 109.5,-29.66 116.5,-29.66"/>
</g>
<!-- Node21 -->
<g id="node21" class="node">
<title>Node21</title>
<g id="a_node21"><a xlink:title=" ">
<polygon fill="none" stroke="#bfbfbf" points="164.5,-0.5 164.5,-19.5 229.5,-19.5 229.5,-0.5 164.5,-0.5"/>
<text text-anchor="middle" x="197" y="-7.5" font-family="Helvetica,sans-Serif" font-size="10.00">Eigen/Core</text>
</a>
</g>
</g>
<!-- Node18&#45;&gt;Node21 -->
<g id="edge23" class="edge">
<title>Node18&#45;&gt;Node21</title>
<path fill="none" stroke="midnightblue" d="M132.91,-56.4C145.99,-47.13 163.08,-35.03 176.32,-25.65"/>
<polygon fill="midnightblue" stroke="midnightblue" points="178.64,-28.29 184.78,-19.66 174.59,-22.58 178.64,-28.29"/>
</g>
</g>
</svg>
        <g id="navigator" transform="translate(0 0)" fill="#404254">
                <rect fill="#f2f5e9" fill-opacity="0.5" stroke="#606060" stroke-width=".5" x="0" y="0" width="60" height="60"/>
                <use id="zoomplus" xlink:href="#zoomPlus" x="17" y="9" onmousedown="handleZoom(evt,'in')"/>
                <use id="zoomminus" xlink:href="#zoomMin" x="42" y="9" onmousedown="handleZoom(evt,'out')"/>
                <use id="reset" xlink:href="#resetDef" x="30" y="36" onmousedown="handleReset()"/>
                <g id="arrowUp" xlink:href="#dirArrow" transform="translate(30 24)" onmousedown="handlePan(0,-1)">
                  <use xlink:href="#rim" fill="#404040">
                        <set attributeName="fill" to="#808080" begin="arrowUp.mouseover" end="arrowUp.mouseout"/>
                  </use>
                  <path fill="none" stroke="white" stroke-width="1.5" d="M0,-3.0v7 M-2.5,-0.5L0,-3.0L2.5,-0.5"/>
                </g>
                <g id="arrowRight" xlink:href="#dirArrow" transform="rotate(90) translate(36 -43)" onmousedown="handlePan(1,0)">
                  <use xlink:href="#rim" fill="#404040">
                        <set attributeName="fill" to="#808080" begin="arrowRight.mouseover" end="arrowRight.mouseout"/>
                  </use>
                  <path fill="none" stroke="white" stroke-width="1.5" d="M0,-3.0v7 M-2.5,-0.5L0,-3.0L2.5,-0.5"/>
                </g>
                <g id="arrowDown" xlink:href="#dirArrow" transform="rotate(180) translate(-30 -48)" onmousedown="handlePan(0,1)">
                  <use xlink:href="#rim" fill="#404040">
                        <set attributeName="fill" to="#808080" begin="arrowDown.mouseover" end="arrowDown.mouseout"/>
                  </use>
                  <path fill="none" stroke="white" stroke-width="1.5" d="M0,-3.0v7 M-2.5,-0.5L0,-3.0L2.5,-0.5"/>
                </g>
                <g id="arrowLeft" xlink:href="#dirArrow" transform="rotate(270) translate(-36 17)" onmousedown="handlePan(-1,0)">
                  <use xlink:href="#rim" fill="#404040">
                        <set attributeName="fill" to="#808080" begin="arrowLeft.mouseover" end="arrowLeft.mouseout"/>
                  </use>
                  <path fill="none" stroke="white" stroke-width="1.5" d="M0,-3.0v7 M-2.5,-0.5L0,-3.0L2.5,-0.5"/>
                </g>
        </g>
        <svg viewBox="0 0 15 15" width="100%" height="30px" preserveAspectRatio="xMaxYMin meet">
         <g id="arrow_out" transform="scale(0.3 0.3)">
          <a xlink:href="ContactWrench_8h__incl_org.svg" target="_base">
           <rect id="button" ry="5" rx="5" y="6" x="6" height="38" width="38"
                fill="#f2f5e9" fill-opacity="0.5" stroke="#606060" stroke-width="1.0"/>
           <path id="arrow"
             d="M 11.500037,31.436501 C 11.940474,20.09759 22.043105,11.32322 32.158766,21.979434 L 37.068811,17.246167 C 37.068811,17.246167 37.088388,32 37.088388,32 L 22.160133,31.978069 C 22.160133,31.978069 26.997745,27.140456 26.997745,27.140456 C 18.528582,18.264221 13.291696,25.230495 11.500037,31.436501 z"
             style="fill:#404040;"/>
          </a>
         </g>
        </svg>
</svg>
