<?xml version="1.0" encoding="UTF-8" standalone="no"?>
<!DOCTYPE svg PUBLIC "-//W3C//DTD SVG 1.1//EN"
 "http://www.w3.org/Graphics/SVG/1.1/DTD/svg11.dtd">
<!-- Generated by graphviz version 2.43.0 (0)
 -->
<!-- Title: Contacts/src/ContactPhase.cpp Pages: 1 -->
<svg width="450pt" height="285pt"
 viewBox="0.00 0.00 449.50 285.00" xmlns="http://www.w3.org/2000/svg" xmlns:xlink="http://www.w3.org/1999/xlink">
<g id="graph0" class="graph" transform="scale(1 1) rotate(0) translate(4 281)">
<title>Contacts/src/ContactPhase.cpp</title>
<!-- Node1 -->
<g id="node1" class="node">
<title>Node1</title>
<g id="a_node1"><a xlink:title=" ">
<polygon fill="#bfbfbf" stroke="black" points="198.5,-257.5 198.5,-276.5 355.5,-276.5 355.5,-257.5 198.5,-257.5"/>
<text text-anchor="middle" x="277" y="-264.5" font-family="Helvetica,sans-Serif" font-size="10.00">Contacts/src/ContactPhase.cpp</text>
</a>
</g>
</g>
<!-- Node2 -->
<g id="node2" class="node">
<title>Node2</title>
<g id="a_node2"><a xlink:href="ContactPhase_8h.html" target="_top" xlink:title=" ">
<polygon fill="none" stroke="black" points="148,-190.5 148,-220.5 290,-220.5 290,-190.5 148,-190.5"/>
<text text-anchor="start" x="156" y="-208.5" font-family="Helvetica,sans-Serif" font-size="10.00">BipedalLocomotion/Contacts</text>
<text text-anchor="middle" x="219" y="-197.5" font-family="Helvetica,sans-Serif" font-size="10.00">/ContactPhase.h</text>
</a>
</g>
</g>
<!-- Node1&#45;&gt;Node2 -->
<g id="edge1" class="edge">
<title>Node1&#45;&gt;Node2</title>
<path fill="none" stroke="midnightblue" d="M268.69,-257.48C261.2,-249.79 249.87,-238.17 239.92,-227.96"/>
<polygon fill="midnightblue" stroke="midnightblue" points="242.16,-225.24 232.67,-220.52 237.14,-230.13 242.16,-225.24"/>
</g>
<!-- Node11 -->
<g id="node11" class="node">
<title>Node11</title>
<g id="a_node11"><a xlink:title=" ">
<polygon fill="none" stroke="#bfbfbf" points="308,-196 308,-215 364,-215 364,-196 308,-196"/>
<text text-anchor="middle" x="336" y="-203" font-family="Helvetica,sans-Serif" font-size="10.00">algorithm</text>
</a>
</g>
</g>
<!-- Node1&#45;&gt;Node11 -->
<g id="edge13" class="edge">
<title>Node1&#45;&gt;Node11</title>
<path fill="none" stroke="midnightblue" d="M285.45,-257.48C294.57,-248.28 309.27,-233.46 320.48,-222.16"/>
<polygon fill="midnightblue" stroke="midnightblue" points="323.01,-224.57 327.56,-215.01 318.04,-219.65 323.01,-224.57"/>
</g>
<!-- Node3 -->
<g id="node3" class="node">
<title>Node3</title>
<g id="a_node3"><a xlink:href="Contact_8h.html" target="_top" xlink:title=" ">
<polygon fill="none" stroke="black" points="0,-56.5 0,-86.5 142,-86.5 142,-56.5 0,-56.5"/>
<text text-anchor="start" x="8" y="-74.5" font-family="Helvetica,sans-Serif" font-size="10.00">BipedalLocomotion/Contacts</text>
<text text-anchor="middle" x="71" y="-63.5" font-family="Helvetica,sans-Serif" font-size="10.00">/Contact.h</text>
</a>
</g>
</g>
<!-- Node2&#45;&gt;Node3 -->
<g id="edge2" class="edge">
<title>Node2&#45;&gt;Node3</title>
<path fill="none" stroke="midnightblue" d="M200.45,-190.33C187.71,-180.43 170.54,-166.76 156,-154 133.61,-134.36 109.17,-110.68 92.27,-93.92"/>
<polygon fill="midnightblue" stroke="midnightblue" points="94.63,-91.32 85.07,-86.74 89.69,-96.28 94.63,-91.32"/>
</g>
<!-- Node5 -->
<g id="node5" class="node">
<title>Node5</title>
<g id="a_node5"><a xlink:title=" ">
<polygon fill="none" stroke="#bfbfbf" points="149.5,-0.5 149.5,-19.5 190.5,-19.5 190.5,-0.5 149.5,-0.5"/>
<text text-anchor="middle" x="170" y="-7.5" font-family="Helvetica,sans-Serif" font-size="10.00">string</text>
</a>
</g>
</g>
<!-- Node2&#45;&gt;Node5 -->
<g id="edge12" class="edge">
<title>Node2&#45;&gt;Node5</title>
<path fill="none" stroke="midnightblue" d="M208.4,-190.25C201.73,-180.54 193.55,-167.1 189,-154 174.2,-111.35 170.82,-57.87 170.12,-29.95"/>
<polygon fill="midnightblue" stroke="midnightblue" points="173.61,-29.6 169.96,-19.66 166.61,-29.71 173.61,-29.6"/>
</g>
<!-- Node6 -->
<g id="node6" class="node">
<title>Node6</title>
<g id="a_node6"><a xlink:href="ContactList_8h.html" target="_top" xlink:title=" ">
<polygon fill="none" stroke="black" points="198,-123.5 198,-153.5 340,-153.5 340,-123.5 198,-123.5"/>
<text text-anchor="start" x="206" y="-141.5" font-family="Helvetica,sans-Serif" font-size="10.00">BipedalLocomotion/Contacts</text>
<text text-anchor="middle" x="269" y="-130.5" font-family="Helvetica,sans-Serif" font-size="10.00">/ContactList.h</text>
</a>
</g>
</g>
<!-- Node2&#45;&gt;Node6 -->
<g id="edge5" class="edge">
<title>Node2&#45;&gt;Node6</title>
<path fill="none" stroke="midnightblue" d="M229.85,-190.4C236.34,-181.96 244.72,-171.07 252.06,-161.52"/>
<polygon fill="midnightblue" stroke="midnightblue" points="254.85,-163.64 258.17,-153.58 249.3,-159.37 254.85,-163.64"/>
</g>
<!-- Node10 -->
<g id="node10" class="node">
<title>Node10</title>
<g id="a_node10"><a xlink:title=" ">
<polygon fill="none" stroke="#bfbfbf" points="358.5,-129 358.5,-148 441.5,-148 441.5,-129 358.5,-129"/>
<text text-anchor="middle" x="400" y="-136" font-family="Helvetica,sans-Serif" font-size="10.00">unordered_map</text>
</a>
</g>
</g>
<!-- Node2&#45;&gt;Node10 -->
<g id="edge11" class="edge">
<title>Node2&#45;&gt;Node10</title>
<path fill="none" stroke="midnightblue" d="M258.27,-190.4C290.59,-178.79 335.91,-162.51 366.53,-151.52"/>
<polygon fill="midnightblue" stroke="midnightblue" points="368.08,-154.68 376.31,-148.01 365.72,-148.09 368.08,-154.68"/>
</g>
<!-- Node4 -->
<g id="node4" class="node">
<title>Node4</title>
<g id="a_node4"><a xlink:title=" ">
<polygon fill="none" stroke="#bfbfbf" points="35.5,-0.5 35.5,-19.5 106.5,-19.5 106.5,-0.5 35.5,-0.5"/>
<text text-anchor="middle" x="71" y="-7.5" font-family="Helvetica,sans-Serif" font-size="10.00">manif/SE3.h</text>
</a>
</g>
</g>
<!-- Node3&#45;&gt;Node4 -->
<g id="edge3" class="edge">
<title>Node3&#45;&gt;Node4</title>
<path fill="none" stroke="midnightblue" d="M71,-56.4C71,-48.47 71,-38.46 71,-29.86"/>
<polygon fill="midnightblue" stroke="midnightblue" points="74.5,-29.66 71,-19.66 67.5,-29.66 74.5,-29.66"/>
</g>
<!-- Node3&#45;&gt;Node5 -->
<g id="edge4" class="edge">
<title>Node3&#45;&gt;Node5</title>
<path fill="none" stroke="midnightblue" d="M94.46,-56.4C110.33,-46.86 131.19,-34.32 146.97,-24.84"/>
<polygon fill="midnightblue" stroke="midnightblue" points="148.83,-27.81 155.59,-19.66 145.22,-21.81 148.83,-27.81"/>
</g>
<!-- Node6&#45;&gt;Node3 -->
<g id="edge6" class="edge">
<title>Node6&#45;&gt;Node3</title>
<path fill="none" stroke="midnightblue" d="M226.04,-123.4C195.94,-113.52 155.54,-100.25 123.52,-89.74"/>
<polygon fill="midnightblue" stroke="midnightblue" points="124.47,-86.37 113.88,-86.58 122.29,-93.02 124.47,-86.37"/>
</g>
<!-- Node6&#45;&gt;Node5 -->
<g id="edge9" class="edge">
<title>Node6&#45;&gt;Node5</title>
<path fill="none" stroke="midnightblue" d="M286.97,-123.32C306.02,-106.54 331.29,-78.11 315,-56 288.9,-20.57 235.18,-12.22 200.96,-10.69"/>
<polygon fill="midnightblue" stroke="midnightblue" points="200.69,-7.18 190.6,-10.4 200.5,-14.18 200.69,-7.18"/>
</g>
<!-- Node7 -->
<g id="node7" class="node">
<title>Node7</title>
<g id="a_node7"><a xlink:title=" ">
<polygon fill="none" stroke="#bfbfbf" points="362,-62 362,-81 438,-81 438,-62 362,-62"/>
<text text-anchor="middle" x="400" y="-69" font-family="Helvetica,sans-Serif" font-size="10.00">manif/manif.h</text>
</a>
</g>
</g>
<!-- Node6&#45;&gt;Node7 -->
<g id="edge7" class="edge">
<title>Node6&#45;&gt;Node7</title>
<path fill="none" stroke="midnightblue" d="M297.43,-123.4C320.11,-112.14 351.63,-96.5 373.72,-85.54"/>
<polygon fill="midnightblue" stroke="midnightblue" points="375.45,-88.59 382.86,-81.01 372.34,-82.32 375.45,-88.59"/>
</g>
<!-- Node8 -->
<g id="node8" class="node">
<title>Node8</title>
<g id="a_node8"><a xlink:title=" ">
<polygon fill="none" stroke="#bfbfbf" points="198,-62 198,-81 228,-81 228,-62 198,-62"/>
<text text-anchor="middle" x="213" y="-69" font-family="Helvetica,sans-Serif" font-size="10.00">set</text>
</a>
</g>
</g>
<!-- Node6&#45;&gt;Node8 -->
<g id="edge8" class="edge">
<title>Node6&#45;&gt;Node8</title>
<path fill="none" stroke="midnightblue" d="M256.85,-123.4C248.12,-113.26 236.32,-99.57 227.16,-88.94"/>
<polygon fill="midnightblue" stroke="midnightblue" points="229.67,-86.49 220.49,-81.19 224.37,-91.06 229.67,-86.49"/>
</g>
<!-- Node9 -->
<g id="node9" class="node">
<title>Node9</title>
<g id="a_node9"><a xlink:title=" ">
<polygon fill="none" stroke="#bfbfbf" points="246.5,-62 246.5,-81 305.5,-81 305.5,-62 246.5,-62"/>
<text text-anchor="middle" x="276" y="-69" font-family="Helvetica,sans-Serif" font-size="10.00">functional</text>
</a>
</g>
</g>
<!-- Node6&#45;&gt;Node9 -->
<g id="edge10" class="edge">
<title>Node6&#45;&gt;Node9</title>
<path fill="none" stroke="midnightblue" d="M270.52,-123.4C271.53,-113.96 272.88,-101.45 273.99,-91.19"/>
<polygon fill="midnightblue" stroke="midnightblue" points="277.47,-91.51 275.06,-81.19 270.51,-90.76 277.47,-91.51"/>
</g>
</g>
</svg>
