<?xml version="1.0" encoding="UTF-8" standalone="no"?>
<!DOCTYPE svg PUBLIC "-//W3C//DTD SVG 1.1//EN"
 "http://www.w3.org/Graphics/SVG/1.1/DTD/svg11.dtd">
<!-- Generated by graphviz version 2.43.0 (0)
 -->
<!-- Title: ContactModels/include/BipedalLocomotion/ContactModels/ContinuousContactModel.h Pages: 1 -->
<!--zoomable 374 -->
<svg id="main" version="1.1" xmlns="http://www.w3.org/2000/svg" xmlns:xlink="http://www.w3.org/1999/xlink" xml:space="preserve" onload="init(evt)">
<style type="text/css"><![CDATA[
.edge:hover path { stroke: red; }
.edge:hover polygon { stroke: red; fill: red; }
]]></style>
<script type="text/javascript"><![CDATA[
var edges = document.getElementsByTagName('g');
if (edges && edges.length) {
  for (var i=0;i<edges.length;i++) {
    if (edges[i].id.substr(0,4)=='edge') {
      edges[i].setAttribute('class','edge');
    }
  }
}
]]></script>
        <defs>
                <circle id="rim" cx="0" cy="0" r="7"/>
                <circle id="rim2" cx="0" cy="0" r="3.5"/>
                <g id="zoomPlus">
                        <use xlink:href="#rim" fill="#404040">
                                <set attributeName="fill" to="#808080" begin="zoomplus.mouseover" end="zoomplus.mouseout"/>
                        </use>
                        <path d="M-4,0h8M0,-4v8" fill="none" stroke="white" stroke-width="1.5" pointer-events="none"/>
                </g>
                <g id="zoomMin">
                        <use xlink:href="#rim" fill="#404040">
                                <set attributeName="fill" to="#808080" begin="zoomminus.mouseover" end="zoomminus.mouseout"/>
                        </use>
                        <path d="M-4,0h8" fill="none" stroke="white" stroke-width="1.5" pointer-events="none"/>
                </g>
                <g id="dirArrow">
                        <path fill="none" stroke="white" stroke-width="1.5" d="M0,-3.0v7 M-2.5,-0.5L0,-3.0L2.5,-0.5"/>
                </g>
               <g id="resetDef">
                       <use xlink:href="#rim2" fill="#404040">
                               <set attributeName="fill" to="#808080" begin="reset.mouseover" end="reset.mouseout"/>
                       </use>
               </g>
        </defs>

<script type="text/javascript">
var viewWidth = 1441;
var viewHeight = 374;
var sectionId = 'dynsection-0';
</script>
<script xlink:href="svgpan.js"/>
<svg id="graph" class="graph">
<g id="viewport">
<title>ContactModels/include/BipedalLocomotion/ContactModels/ContinuousContactModel.h</title>
<!-- Node1 -->
<g id="node1" class="node">
<title>Node1</title>
<g id="a_node1"><a xlink:title=" ">
<polygon fill="#bfbfbf" stroke="black" points="264.5,-324.5 264.5,-365.5 435.5,-365.5 435.5,-324.5 264.5,-324.5"/>
<text text-anchor="start" x="272.5" y="-353.5" font-family="Helvetica,sans-Serif" font-size="10.00">ContactModels/include</text>
<text text-anchor="start" x="272.5" y="-342.5" font-family="Helvetica,sans-Serif" font-size="10.00">/BipedalLocomotion/ContactModels</text>
<text text-anchor="middle" x="350" y="-331.5" font-family="Helvetica,sans-Serif" font-size="10.00">/ContinuousContactModel.h</text>
</a>
</g>
</g>
<!-- Node2 -->
<g id="node2" class="node">
<title>Node2</title>
<g id="a_node2"><a xlink:title=" ">
<polygon fill="none" stroke="#bfbfbf" points="0,-196 0,-215 136,-215 136,-196 0,-196"/>
<text text-anchor="middle" x="68" y="-203" font-family="Helvetica,sans-Serif" font-size="10.00">iDynTree/Core/Transform.h</text>
</a>
</g>
</g>
<!-- Node1&#45;&gt;Node2 -->
<g id="edge1" class="edge">
<title>Node1&#45;&gt;Node2</title>
<path fill="none" stroke="midnightblue" d="M309.9,-324.45C251.45,-295.95 144.42,-243.76 94.7,-219.52"/>
<polygon fill="midnightblue" stroke="midnightblue" points="96.08,-216.3 85.55,-215.06 93.01,-222.59 96.08,-216.3"/>
</g>
<!-- Node3 -->
<g id="node3" class="node">
<title>Node3</title>
<g id="a_node3"><a xlink:title=" ">
<polygon fill="none" stroke="#bfbfbf" points="154.5,-196 154.5,-215 269.5,-215 269.5,-196 154.5,-196"/>
<text text-anchor="middle" x="212" y="-203" font-family="Helvetica,sans-Serif" font-size="10.00">iDynTree/Core/Twist.h</text>
</a>
</g>
</g>
<!-- Node1&#45;&gt;Node3 -->
<g id="edge2" class="edge">
<title>Node1&#45;&gt;Node3</title>
<path fill="none" stroke="midnightblue" d="M330.23,-324.3C302.66,-296.83 253.2,-247.55 227.88,-222.33"/>
<polygon fill="midnightblue" stroke="midnightblue" points="230.12,-219.62 220.57,-215.04 225.18,-224.58 230.12,-219.62"/>
</g>
<!-- Node4 -->
<g id="node4" class="node">
<title>Node4</title>
<g id="a_node4"><a xlink:title=" ">
<polygon fill="none" stroke="#bfbfbf" points="287.5,-196 287.5,-215 412.5,-215 412.5,-196 287.5,-196"/>
<text text-anchor="middle" x="350" y="-203" font-family="Helvetica,sans-Serif" font-size="10.00">iDynTree/Core/Wrench.h</text>
</a>
</g>
</g>
<!-- Node1&#45;&gt;Node4 -->
<g id="edge3" class="edge">
<title>Node1&#45;&gt;Node4</title>
<path fill="none" stroke="midnightblue" d="M350,-324.3C350,-297.9 350,-251.36 350,-225.38"/>
<polygon fill="midnightblue" stroke="midnightblue" points="353.5,-225.04 350,-215.04 346.5,-225.04 353.5,-225.04"/>
</g>
<!-- Node5 -->
<g id="node5" class="node">
<title>Node5</title>
<g id="a_node5"><a xlink:href="ContactModel_8h.html" target="_top" xlink:title=" ">
<polygon fill="none" stroke="black" points="441.5,-257.5 441.5,-287.5 578.5,-287.5 578.5,-257.5 441.5,-257.5"/>
<text text-anchor="start" x="449.5" y="-275.5" font-family="Helvetica,sans-Serif" font-size="10.00">BipedalLocomotion/Contact</text>
<text text-anchor="middle" x="510" y="-264.5" font-family="Helvetica,sans-Serif" font-size="10.00">Models/ContactModel.h</text>
</a>
</g>
</g>
<!-- Node1&#45;&gt;Node5 -->
<g id="edge4" class="edge">
<title>Node1&#45;&gt;Node5</title>
<path fill="none" stroke="midnightblue" d="M394.57,-324.36C417.79,-314.13 446,-301.7 468.72,-291.69"/>
<polygon fill="midnightblue" stroke="midnightblue" points="470.35,-294.79 478.09,-287.56 467.53,-288.39 470.35,-294.79"/>
</g>
<!-- Node13 -->
<g id="node13" class="node">
<title>Node13</title>
<g id="a_node13"><a xlink:href="IParametersHandler_8h.html" target="_top" xlink:title=" ">
<polygon fill="none" stroke="black" points="1175,-190.5 1175,-220.5 1327,-220.5 1327,-190.5 1175,-190.5"/>
<text text-anchor="start" x="1183" y="-208.5" font-family="Helvetica,sans-Serif" font-size="10.00">BipedalLocomotion/Parameters</text>
<text text-anchor="middle" x="1251" y="-197.5" font-family="Helvetica,sans-Serif" font-size="10.00">Handler/IParametersHandler.h</text>
</a>
</g>
</g>
<!-- Node1&#45;&gt;Node13 -->
<g id="edge30" class="edge">
<title>Node1&#45;&gt;Node13</title>
<path fill="none" stroke="midnightblue" d="M435.73,-331.56C582.52,-310.14 891.68,-264.57 1164.48,-221.07"/>
<polygon fill="midnightblue" stroke="midnightblue" points="1165.26,-224.49 1174.58,-219.46 1164.15,-217.58 1165.26,-224.49"/>
</g>
<!-- Node5&#45;&gt;Node2 -->
<g id="edge11" class="edge">
<title>Node5&#45;&gt;Node2</title>
<path fill="none" stroke="midnightblue" d="M441.23,-263C367.75,-253.68 247.91,-237.8 145,-221 137.35,-219.75 129.3,-218.34 121.4,-216.9"/>
<polygon fill="midnightblue" stroke="midnightblue" points="121.98,-213.45 111.51,-215.08 120.7,-220.33 121.98,-213.45"/>
</g>
<!-- Node5&#45;&gt;Node3 -->
<g id="edge12" class="edge">
<title>Node5&#45;&gt;Node3</title>
<path fill="none" stroke="midnightblue" d="M445.49,-257.49C398.93,-247.38 334.58,-233.37 278,-221 272.35,-219.76 266.42,-218.47 260.54,-217.18"/>
<polygon fill="midnightblue" stroke="midnightblue" points="261.25,-213.75 250.74,-215.02 259.75,-220.59 261.25,-213.75"/>
</g>
<!-- Node5&#45;&gt;Node4 -->
<g id="edge14" class="edge">
<title>Node5&#45;&gt;Node4</title>
<path fill="none" stroke="midnightblue" d="M475.28,-257.4C446.96,-245.89 407.35,-229.8 380.29,-218.81"/>
<polygon fill="midnightblue" stroke="midnightblue" points="381.52,-215.53 370.94,-215.01 378.89,-222.01 381.52,-215.53"/>
</g>
<!-- Node6 -->
<g id="node6" class="node">
<title>Node6</title>
<g id="a_node6"><a xlink:title=" ">
<polygon fill="none" stroke="#bfbfbf" points="431,-196 431,-215 463,-215 463,-196 431,-196"/>
<text text-anchor="middle" x="447" y="-203" font-family="Helvetica,sans-Serif" font-size="10.00">any</text>
</a>
</g>
</g>
<!-- Node5&#45;&gt;Node6 -->
<g id="edge5" class="edge">
<title>Node5&#45;&gt;Node6</title>
<path fill="none" stroke="midnightblue" d="M496.33,-257.4C486.41,-247.16 472.97,-233.3 462.63,-222.62"/>
<polygon fill="midnightblue" stroke="midnightblue" points="464.9,-219.94 455.43,-215.19 459.87,-224.81 464.9,-219.94"/>
</g>
<!-- Node7 -->
<g id="node7" class="node">
<title>Node7</title>
<g id="a_node7"><a xlink:title=" ">
<polygon fill="none" stroke="#bfbfbf" points="825,-62 825,-81 877,-81 877,-62 825,-62"/>
<text text-anchor="middle" x="851" y="-69" font-family="Helvetica,sans-Serif" font-size="10.00">memory</text>
</a>
</g>
</g>
<!-- Node5&#45;&gt;Node7 -->
<g id="edge6" class="edge">
<title>Node5&#45;&gt;Node7</title>
<path fill="none" stroke="midnightblue" d="M509.04,-257.23C508.59,-239.85 510.2,-210.3 524,-190 556.18,-142.66 581.01,-144.65 634,-123 695,-98.08 770.9,-83.96 814.86,-77.31"/>
<polygon fill="midnightblue" stroke="midnightblue" points="815.41,-80.76 824.8,-75.85 814.39,-73.84 815.41,-80.76"/>
</g>
<!-- Node8 -->
<g id="node8" class="node">
<title>Node8</title>
<g id="a_node8"><a xlink:title=" ">
<polygon fill="none" stroke="#bfbfbf" points="643.5,-129 643.5,-148 684.5,-148 684.5,-129 643.5,-129"/>
<text text-anchor="middle" x="664" y="-136" font-family="Helvetica,sans-Serif" font-size="10.00">string</text>
</a>
</g>
</g>
<!-- Node5&#45;&gt;Node8 -->
<g id="edge7" class="edge">
<title>Node5&#45;&gt;Node8</title>
<path fill="none" stroke="midnightblue" d="M513.29,-257.3C518.1,-239.44 528.66,-208.85 548,-190 571.78,-166.82 607.92,-153.41 633.54,-146.31"/>
<polygon fill="midnightblue" stroke="midnightblue" points="634.67,-149.63 643.47,-143.73 632.91,-142.86 634.67,-149.63"/>
</g>
<!-- Node9 -->
<g id="node9" class="node">
<title>Node9</title>
<g id="a_node9"><a xlink:title=" ">
<polygon fill="none" stroke="#bfbfbf" points="557.5,-196 557.5,-215 640.5,-215 640.5,-196 557.5,-196"/>
<text text-anchor="middle" x="599" y="-203" font-family="Helvetica,sans-Serif" font-size="10.00">unordered_map</text>
</a>
</g>
</g>
<!-- Node5&#45;&gt;Node9 -->
<g id="edge8" class="edge">
<title>Node5&#45;&gt;Node9</title>
<path fill="none" stroke="midnightblue" d="M529.31,-257.4C543.96,-246.7 564.04,-232.03 578.88,-221.19"/>
<polygon fill="midnightblue" stroke="midnightblue" points="581.34,-223.73 587.35,-215.01 577.21,-218.08 581.34,-223.73"/>
</g>
<!-- Node10 -->
<g id="node10" class="node">
<title>Node10</title>
<g id="a_node10"><a xlink:title=" ">
<polygon fill="none" stroke="#bfbfbf" points="659,-196 659,-215 815,-215 815,-196 659,-196"/>
<text text-anchor="middle" x="737" y="-203" font-family="Helvetica,sans-Serif" font-size="10.00">iDynTree/Core/MatrixDynSize.h</text>
</a>
</g>
</g>
<!-- Node5&#45;&gt;Node10 -->
<g id="edge9" class="edge">
<title>Node5&#45;&gt;Node10</title>
<path fill="none" stroke="midnightblue" d="M558.98,-257.48C600.37,-245.62 658.92,-228.86 697.4,-217.84"/>
<polygon fill="midnightblue" stroke="midnightblue" points="698.57,-221.15 707.22,-215.03 696.64,-214.42 698.57,-221.15"/>
</g>
<!-- Node11 -->
<g id="node11" class="node">
<title>Node11</title>
<g id="a_node11"><a xlink:title=" ">
<polygon fill="none" stroke="#bfbfbf" points="833,-196 833,-215 985,-215 985,-196 833,-196"/>
<text text-anchor="middle" x="909" y="-203" font-family="Helvetica,sans-Serif" font-size="10.00">iDynTree/Core/MatrixFixSize.h</text>
</a>
</g>
</g>
<!-- Node5&#45;&gt;Node11 -->
<g id="edge10" class="edge">
<title>Node5&#45;&gt;Node11</title>
<path fill="none" stroke="midnightblue" d="M578.63,-260.65C642.27,-250.55 739.57,-234.99 824,-221 832.28,-219.63 841.01,-218.16 849.6,-216.71"/>
<polygon fill="midnightblue" stroke="midnightblue" points="850.3,-220.14 859.57,-215.01 849.13,-213.24 850.3,-220.14"/>
</g>
<!-- Node12 -->
<g id="node12" class="node">
<title>Node12</title>
<g id="a_node12"><a xlink:title=" ">
<polygon fill="none" stroke="#bfbfbf" points="1003.5,-196 1003.5,-215 1156.5,-215 1156.5,-196 1003.5,-196"/>
<text text-anchor="middle" x="1080" y="-203" font-family="Helvetica,sans-Serif" font-size="10.00">iDynTree/Core/VectorFixSize.h</text>
</a>
</g>
</g>
<!-- Node5&#45;&gt;Node12 -->
<g id="edge13" class="edge">
<title>Node5&#45;&gt;Node12</title>
<path fill="none" stroke="midnightblue" d="M578.69,-265.71C672.66,-257.47 846.46,-241.11 994,-221 1003.35,-219.72 1013.25,-218.21 1022.87,-216.65"/>
<polygon fill="midnightblue" stroke="midnightblue" points="1023.47,-220.1 1032.77,-215.01 1022.33,-213.19 1023.47,-220.1"/>
</g>
<!-- Node5&#45;&gt;Node13 -->
<g id="edge15" class="edge">
<title>Node5&#45;&gt;Node13</title>
<path fill="none" stroke="midnightblue" d="M578.57,-268.25C696.21,-262.23 944.24,-247.58 1164.48,-220.98"/>
<polygon fill="midnightblue" stroke="midnightblue" points="1165.12,-224.43 1174.62,-219.75 1164.27,-217.48 1165.12,-224.43"/>
</g>
<!-- Node13&#45;&gt;Node7 -->
<g id="edge16" class="edge">
<title>Node13&#45;&gt;Node7</title>
<path fill="none" stroke="midnightblue" d="M1186.29,-190.41C1147.06,-181.3 1096.21,-168.46 1052,-154 976.38,-129.27 959.64,-117.11 886,-87 884.41,-86.35 882.78,-85.68 881.13,-85"/>
<polygon fill="midnightblue" stroke="midnightblue" points="882.29,-81.7 871.72,-81.12 879.62,-88.17 882.29,-81.7"/>
</g>
<!-- Node13&#45;&gt;Node8 -->
<g id="edge17" class="edge">
<title>Node13&#45;&gt;Node8</title>
<path fill="none" stroke="midnightblue" d="M1174.61,-191.35C1171.36,-190.88 1168.15,-190.42 1165,-190 987.51,-166.12 773.25,-148.12 694.74,-141.88"/>
<polygon fill="midnightblue" stroke="midnightblue" points="694.82,-138.38 684.58,-141.08 694.27,-145.36 694.82,-138.38"/>
</g>
<!-- Node14 -->
<g id="node14" class="node">
<title>Node14</title>
<g id="a_node14"><a xlink:title=" ">
<polygon fill="none" stroke="#bfbfbf" points="1229,-129 1229,-148 1273,-148 1273,-129 1229,-129"/>
<text text-anchor="middle" x="1251" y="-136" font-family="Helvetica,sans-Serif" font-size="10.00">vector</text>
</a>
</g>
</g>
<!-- Node13&#45;&gt;Node14 -->
<g id="edge18" class="edge">
<title>Node13&#45;&gt;Node14</title>
<path fill="none" stroke="midnightblue" d="M1251,-190.4C1251,-181.06 1251,-168.71 1251,-158.52"/>
<polygon fill="midnightblue" stroke="midnightblue" points="1254.5,-158.19 1251,-148.19 1247.5,-158.19 1254.5,-158.19"/>
</g>
<!-- Node15 -->
<g id="node15" class="node">
<title>Node15</title>
<g id="a_node15"><a xlink:href="Vector_8h_source.html" target="_top" xlink:title=" ">
<polygon fill="none" stroke="black" points="1061,-123.5 1061,-153.5 1197,-153.5 1197,-123.5 1061,-123.5"/>
<text text-anchor="start" x="1069" y="-141.5" font-family="Helvetica,sans-Serif" font-size="10.00">BipedalLocomotion/Generic</text>
<text text-anchor="middle" x="1129" y="-130.5" font-family="Helvetica,sans-Serif" font-size="10.00">Container/Vector.h</text>
</a>
</g>
</g>
<!-- Node13&#45;&gt;Node15 -->
<g id="edge19" class="edge">
<title>Node13&#45;&gt;Node15</title>
<path fill="none" stroke="midnightblue" d="M1224.53,-190.4C1206.94,-181.03 1183.65,-168.62 1164.46,-158.39"/>
<polygon fill="midnightblue" stroke="midnightblue" points="1165.89,-155.19 1155.42,-153.58 1162.6,-161.37 1165.89,-155.19"/>
</g>
<!-- Node17 -->
<g id="node17" class="node">
<title>Node17</title>
<g id="a_node17"><a xlink:href="TemplateHelpers_8h_source.html" target="_top" xlink:title=" ">
<polygon fill="none" stroke="black" points="1244.5,-56.5 1244.5,-86.5 1387.5,-86.5 1387.5,-56.5 1244.5,-56.5"/>
<text text-anchor="start" x="1252.5" y="-74.5" font-family="Helvetica,sans-Serif" font-size="10.00">BipedalLocomotion/Generic</text>
<text text-anchor="middle" x="1316" y="-63.5" font-family="Helvetica,sans-Serif" font-size="10.00">Container/TemplateHelpers.h</text>
</a>
</g>
</g>
<!-- Node13&#45;&gt;Node17 -->
<g id="edge29" class="edge">
<title>Node13&#45;&gt;Node17</title>
<path fill="none" stroke="midnightblue" d="M1260.57,-190.26C1267.03,-180.33 1275.53,-166.64 1282,-154 1291.71,-135.01 1300.91,-112.59 1307.29,-96.08"/>
<polygon fill="midnightblue" stroke="midnightblue" points="1310.59,-97.23 1310.87,-86.64 1304.05,-94.75 1310.59,-97.23"/>
</g>
<!-- Node15&#45;&gt;Node7 -->
<g id="edge28" class="edge">
<title>Node15&#45;&gt;Node7</title>
<path fill="none" stroke="midnightblue" d="M1060.83,-126.87C1011.64,-118.34 943.96,-104.85 886,-87 883.86,-86.34 881.66,-85.6 879.47,-84.81"/>
<polygon fill="midnightblue" stroke="midnightblue" points="880.61,-81.49 870.02,-81.14 878.07,-88.02 880.61,-81.49"/>
</g>
<!-- Node16 -->
<g id="node16" class="node">
<title>Node16</title>
<g id="a_node16"><a xlink:title=" ">
<polygon fill="none" stroke="#bfbfbf" points="895,-62 895,-81 1009,-81 1009,-62 895,-62"/>
<text text-anchor="middle" x="952" y="-69" font-family="Helvetica,sans-Serif" font-size="10.00">iDynTree/Core/Span.h</text>
</a>
</g>
</g>
<!-- Node15&#45;&gt;Node16 -->
<g id="edge20" class="edge">
<title>Node15&#45;&gt;Node16</title>
<path fill="none" stroke="midnightblue" d="M1090.59,-123.4C1058.99,-111.79 1014.67,-95.51 984.73,-84.52"/>
<polygon fill="midnightblue" stroke="midnightblue" points="985.76,-81.17 975.17,-81.01 983.35,-87.74 985.76,-81.17"/>
</g>
<!-- Node15&#45;&gt;Node17 -->
<g id="edge21" class="edge">
<title>Node15&#45;&gt;Node17</title>
<path fill="none" stroke="midnightblue" d="M1169.58,-123.4C1197.88,-113.56 1235.83,-100.37 1266,-89.88"/>
<polygon fill="midnightblue" stroke="midnightblue" points="1267.21,-93.17 1275.5,-86.58 1264.91,-86.55 1267.21,-93.17"/>
</g>
<!-- Node21 -->
<g id="node21" class="node">
<title>Node21</title>
<g id="a_node21"><a xlink:title=" ">
<polygon fill="none" stroke="#bfbfbf" points="1027.5,-62 1027.5,-81 1086.5,-81 1086.5,-62 1027.5,-62"/>
<text text-anchor="middle" x="1057" y="-69" font-family="Helvetica,sans-Serif" font-size="10.00">functional</text>
</a>
</g>
</g>
<!-- Node15&#45;&gt;Node21 -->
<g id="edge25" class="edge">
<title>Node15&#45;&gt;Node21</title>
<path fill="none" stroke="midnightblue" d="M1113.38,-123.4C1101.82,-112.96 1086.08,-98.75 1074.17,-88"/>
<polygon fill="midnightblue" stroke="midnightblue" points="1076.4,-85.3 1066.63,-81.19 1071.71,-90.49 1076.4,-85.3"/>
</g>
<!-- Node22 -->
<g id="node22" class="node">
<title>Node22</title>
<g id="a_node22"><a xlink:title=" ">
<polygon fill="none" stroke="#bfbfbf" points="1104.5,-62 1104.5,-81 1153.5,-81 1153.5,-62 1104.5,-62"/>
<text text-anchor="middle" x="1129" y="-69" font-family="Helvetica,sans-Serif" font-size="10.00">cassert</text>
</a>
</g>
</g>
<!-- Node15&#45;&gt;Node22 -->
<g id="edge26" class="edge">
<title>Node15&#45;&gt;Node22</title>
<path fill="none" stroke="midnightblue" d="M1129,-123.4C1129,-114.06 1129,-101.71 1129,-91.52"/>
<polygon fill="midnightblue" stroke="midnightblue" points="1132.5,-91.19 1129,-81.19 1125.5,-91.19 1132.5,-91.19"/>
</g>
<!-- Node23 -->
<g id="node23" class="node">
<title>Node23</title>
<g id="a_node23"><a xlink:title=" ">
<polygon fill="none" stroke="#bfbfbf" points="1172,-62 1172,-81 1226,-81 1226,-62 1172,-62"/>
<text text-anchor="middle" x="1199" y="-69" font-family="Helvetica,sans-Serif" font-size="10.00">iostream</text>
</a>
</g>
</g>
<!-- Node15&#45;&gt;Node23 -->
<g id="edge27" class="edge">
<title>Node15&#45;&gt;Node23</title>
<path fill="none" stroke="midnightblue" d="M1144.19,-123.4C1155.32,-113.06 1170.44,-99.02 1181.97,-88.31"/>
<polygon fill="midnightblue" stroke="midnightblue" points="1184.69,-90.56 1189.64,-81.19 1179.93,-85.43 1184.69,-90.56"/>
</g>
<!-- Node18 -->
<g id="node18" class="node">
<title>Node18</title>
<g id="a_node18"><a xlink:title=" ">
<polygon fill="none" stroke="#bfbfbf" points="1203,-0.5 1203,-19.5 1265,-19.5 1265,-0.5 1203,-0.5"/>
<text text-anchor="middle" x="1234" y="-7.5" font-family="Helvetica,sans-Serif" font-size="10.00">type_traits</text>
</a>
</g>
</g>
<!-- Node17&#45;&gt;Node18 -->
<g id="edge22" class="edge">
<title>Node17&#45;&gt;Node18</title>
<path fill="none" stroke="midnightblue" d="M1296.57,-56.4C1283.79,-47.13 1267.11,-35.03 1254.19,-25.65"/>
<polygon fill="midnightblue" stroke="midnightblue" points="1256.08,-22.7 1245.93,-19.66 1251.97,-28.36 1256.08,-22.7"/>
</g>
<!-- Node19 -->
<g id="node19" class="node">
<title>Node19</title>
<g id="a_node19"><a xlink:title=" ">
<polygon fill="none" stroke="#bfbfbf" points="1283,-0.5 1283,-19.5 1349,-19.5 1349,-0.5 1283,-0.5"/>
<text text-anchor="middle" x="1316" y="-7.5" font-family="Helvetica,sans-Serif" font-size="10.00">string_view</text>
</a>
</g>
</g>
<!-- Node17&#45;&gt;Node19 -->
<g id="edge23" class="edge">
<title>Node17&#45;&gt;Node19</title>
<path fill="none" stroke="midnightblue" d="M1316,-56.4C1316,-48.47 1316,-38.46 1316,-29.86"/>
<polygon fill="midnightblue" stroke="midnightblue" points="1319.5,-29.66 1316,-19.66 1312.5,-29.66 1319.5,-29.66"/>
</g>
<!-- Node20 -->
<g id="node20" class="node">
<title>Node20</title>
<g id="a_node20"><a xlink:title=" ">
<polygon fill="none" stroke="#bfbfbf" points="1367.5,-0.5 1367.5,-19.5 1432.5,-19.5 1432.5,-0.5 1367.5,-0.5"/>
<text text-anchor="middle" x="1400" y="-7.5" font-family="Helvetica,sans-Serif" font-size="10.00">Eigen/Core</text>
</a>
</g>
</g>
<!-- Node17&#45;&gt;Node20 -->
<g id="edge24" class="edge">
<title>Node17&#45;&gt;Node20</title>
<path fill="none" stroke="midnightblue" d="M1335.91,-56.4C1348.99,-47.13 1366.08,-35.03 1379.32,-25.65"/>
<polygon fill="midnightblue" stroke="midnightblue" points="1381.64,-28.29 1387.78,-19.66 1377.59,-22.58 1381.64,-28.29"/>
</g>
</g>
</svg>
        <g id="navigator" transform="translate(0 0)" fill="#404254">
                <rect fill="#f2f5e9" fill-opacity="0.5" stroke="#606060" stroke-width=".5" x="0" y="0" width="60" height="60"/>
                <use id="zoomplus" xlink:href="#zoomPlus" x="17" y="9" onmousedown="handleZoom(evt,'in')"/>
                <use id="zoomminus" xlink:href="#zoomMin" x="42" y="9" onmousedown="handleZoom(evt,'out')"/>
                <use id="reset" xlink:href="#resetDef" x="30" y="36" onmousedown="handleReset()"/>
                <g id="arrowUp" xlink:href="#dirArrow" transform="translate(30 24)" onmousedown="handlePan(0,-1)">
                  <use xlink:href="#rim" fill="#404040">
                        <set attributeName="fill" to="#808080" begin="arrowUp.mouseover" end="arrowUp.mouseout"/>
                  </use>
                  <path fill="none" stroke="white" stroke-width="1.5" d="M0,-3.0v7 M-2.5,-0.5L0,-3.0L2.5,-0.5"/>
                </g>
                <g id="arrowRight" xlink:href="#dirArrow" transform="rotate(90) translate(36 -43)" onmousedown="handlePan(1,0)">
                  <use xlink:href="#rim" fill="#404040">
                        <set attributeName="fill" to="#808080" begin="arrowRight.mouseover" end="arrowRight.mouseout"/>
                  </use>
                  <path fill="none" stroke="white" stroke-width="1.5" d="M0,-3.0v7 M-2.5,-0.5L0,-3.0L2.5,-0.5"/>
                </g>
                <g id="arrowDown" xlink:href="#dirArrow" transform="rotate(180) translate(-30 -48)" onmousedown="handlePan(0,1)">
                  <use xlink:href="#rim" fill="#404040">
                        <set attributeName="fill" to="#808080" begin="arrowDown.mouseover" end="arrowDown.mouseout"/>
                  </use>
                  <path fill="none" stroke="white" stroke-width="1.5" d="M0,-3.0v7 M-2.5,-0.5L0,-3.0L2.5,-0.5"/>
                </g>
                <g id="arrowLeft" xlink:href="#dirArrow" transform="rotate(270) translate(-36 17)" onmousedown="handlePan(-1,0)">
                  <use xlink:href="#rim" fill="#404040">
                        <set attributeName="fill" to="#808080" begin="arrowLeft.mouseover" end="arrowLeft.mouseout"/>
                  </use>
                  <path fill="none" stroke="white" stroke-width="1.5" d="M0,-3.0v7 M-2.5,-0.5L0,-3.0L2.5,-0.5"/>
                </g>
        </g>
        <svg viewBox="0 0 15 15" width="100%" height="30px" preserveAspectRatio="xMaxYMin meet">
         <g id="arrow_out" transform="scale(0.3 0.3)">
          <a xlink:href="ContinuousContactModel_8h__incl_org.svg" target="_base">
           <rect id="button" ry="5" rx="5" y="6" x="6" height="38" width="38"
                fill="#f2f5e9" fill-opacity="0.5" stroke="#606060" stroke-width="1.0"/>
           <path id="arrow"
             d="M 11.500037,31.436501 C 11.940474,20.09759 22.043105,11.32322 32.158766,21.979434 L 37.068811,17.246167 C 37.068811,17.246167 37.088388,32 37.088388,32 L 22.160133,31.978069 C 22.160133,31.978069 26.997745,27.140456 26.997745,27.140456 C 18.528582,18.264221 13.291696,25.230495 11.500037,31.436501 z"
             style="fill:#404040;"/>
          </a>
         </g>
        </svg>
</svg>
