<?xml version="1.0" encoding="UTF-8" standalone="no"?>
<!DOCTYPE svg PUBLIC "-//W3C//DTD SVG 1.1//EN"
 "http://www.w3.org/Graphics/SVG/1.1/DTD/svg11.dtd">
<!-- Generated by graphviz version 2.43.0 (0)
 -->
<!-- Title: ContactModels/include/BipedalLocomotion/ContactModels/ContactModel.h Pages: 1 -->
<svg width="774pt" height="262pt"
 viewBox="0.00 0.00 774.00 262.00" xmlns="http://www.w3.org/2000/svg" xmlns:xlink="http://www.w3.org/1999/xlink">
<g id="graph0" class="graph" transform="scale(1 1) rotate(0) translate(4 258)">
<title>ContactModels/include/BipedalLocomotion/ContactModels/ContactModel.h</title>
<!-- Node1 -->
<g id="node1" class="node">
<title>Node1</title>
<g id="a_node1"><a xlink:title=" ">
<polygon fill="#bfbfbf" stroke="black" points="214.5,-212.5 214.5,-253.5 385.5,-253.5 385.5,-212.5 214.5,-212.5"/>
<text text-anchor="start" x="222.5" y="-241.5" font-family="Helvetica,sans-Serif" font-size="10.00">ContactModels/include</text>
<text text-anchor="start" x="222.5" y="-230.5" font-family="Helvetica,sans-Serif" font-size="10.00">/BipedalLocomotion/ContactModels</text>
<text text-anchor="middle" x="300" y="-219.5" font-family="Helvetica,sans-Serif" font-size="10.00">/ContactModel.h</text>
</a>
</g>
</g>
<!-- Node2 -->
<g id="node2" class="node">
<title>Node2</title>
<g id="a_node2"><a xlink:href="ContinuousContactModel_8h.html" target="_top" xlink:title=" ">
<polygon fill="none" stroke="black" points="25.5,-134.5 25.5,-175.5 196.5,-175.5 196.5,-134.5 25.5,-134.5"/>
<text text-anchor="start" x="33.5" y="-163.5" font-family="Helvetica,sans-Serif" font-size="10.00">ContactModels/include</text>
<text text-anchor="start" x="33.5" y="-152.5" font-family="Helvetica,sans-Serif" font-size="10.00">/BipedalLocomotion/ContactModels</text>
<text text-anchor="middle" x="111" y="-141.5" font-family="Helvetica,sans-Serif" font-size="10.00">/ContinuousContactModel.h</text>
</a>
</g>
</g>
<!-- Node1&#45;&gt;Node2 -->
<g id="edge1" class="edge">
<title>Node1&#45;&gt;Node2</title>
<path fill="none" stroke="midnightblue" d="M241.83,-208.61C215.45,-198 184.61,-185.6 159.51,-175.51"/>
<polygon fill="midnightblue" stroke="midnightblue" points="240.74,-211.94 251.33,-212.43 243.36,-205.45 240.74,-211.94"/>
</g>
<!-- Node4 -->
<g id="node4" class="node">
<title>Node4</title>
<g id="a_node4"><a xlink:href="ContactModel_8cpp.html" target="_top" xlink:title=" ">
<polygon fill="none" stroke="black" points="231.5,-140 231.5,-170 368.5,-170 368.5,-140 231.5,-140"/>
<text text-anchor="start" x="239.5" y="-158" font-family="Helvetica,sans-Serif" font-size="10.00">ContactModels/src/Contact</text>
<text text-anchor="middle" x="300" y="-147" font-family="Helvetica,sans-Serif" font-size="10.00">Model.cpp</text>
</a>
</g>
</g>
<!-- Node1&#45;&gt;Node4 -->
<g id="edge3" class="edge">
<title>Node1&#45;&gt;Node4</title>
<path fill="none" stroke="midnightblue" d="M300,-202.28C300,-191.25 300,-179.25 300,-170.23"/>
<polygon fill="midnightblue" stroke="midnightblue" points="296.5,-202.43 300,-212.43 303.5,-202.43 296.5,-202.43"/>
</g>
<!-- Node5 -->
<g id="node5" class="node">
<title>Node5</title>
<g id="a_node5"><a xlink:href="ContactWrench_8h.html" target="_top" xlink:title=" ">
<polygon fill="none" stroke="black" points="396,-140 396,-170 566,-170 566,-140 396,-140"/>
<text text-anchor="start" x="404" y="-158" font-family="Helvetica,sans-Serif" font-size="10.00">System/include/BipedalLocomotion</text>
<text text-anchor="middle" x="481" y="-147" font-family="Helvetica,sans-Serif" font-size="10.00">/System/ContactWrench.h</text>
</a>
</g>
</g>
<!-- Node1&#45;&gt;Node5 -->
<g id="edge4" class="edge">
<title>Node1&#45;&gt;Node5</title>
<path fill="none" stroke="midnightblue" d="M356.1,-208.45C386.01,-195.89 421.81,-180.85 447.4,-170.11"/>
<polygon fill="midnightblue" stroke="midnightblue" points="354.48,-205.33 346.61,-212.43 357.19,-211.78 354.48,-205.33"/>
</g>
<!-- Node3 -->
<g id="node3" class="node">
<title>Node3</title>
<g id="a_node3"><a xlink:href="ContinuousContactModel_8cpp.html" target="_top" xlink:title=" ">
<polygon fill="none" stroke="black" points="0,-67.5 0,-97.5 152,-97.5 152,-67.5 0,-67.5"/>
<text text-anchor="start" x="8" y="-85.5" font-family="Helvetica,sans-Serif" font-size="10.00">ContactModels/src/Continuous</text>
<text text-anchor="middle" x="76" y="-74.5" font-family="Helvetica,sans-Serif" font-size="10.00">ContactModel.cpp</text>
</a>
</g>
</g>
<!-- Node2&#45;&gt;Node3 -->
<g id="edge2" class="edge">
<title>Node2&#45;&gt;Node3</title>
<path fill="none" stroke="midnightblue" d="M96.73,-125.26C92.06,-115.84 87.06,-105.78 83.14,-97.89"/>
<polygon fill="midnightblue" stroke="midnightblue" points="93.67,-126.96 101.25,-134.36 99.94,-123.85 93.67,-126.96"/>
</g>
<!-- Node6 -->
<g id="node6" class="node">
<title>Node6</title>
<g id="a_node6"><a xlink:href="FloatingBaseSystemDynamics_8h.html" target="_top" xlink:title=" ">
<polygon fill="none" stroke="black" points="170,-67.5 170,-97.5 370,-97.5 370,-67.5 170,-67.5"/>
<text text-anchor="start" x="178" y="-85.5" font-family="Helvetica,sans-Serif" font-size="10.00">System/include/BipedalLocomotion</text>
<text text-anchor="middle" x="270" y="-74.5" font-family="Helvetica,sans-Serif" font-size="10.00">/System/FloatingBaseSystemDynamics.h</text>
</a>
</g>
</g>
<!-- Node5&#45;&gt;Node6 -->
<g id="edge5" class="edge">
<title>Node5&#45;&gt;Node6</title>
<path fill="none" stroke="midnightblue" d="M429.24,-136.7C393.26,-124.68 345.91,-108.86 312.22,-97.61"/>
<polygon fill="midnightblue" stroke="midnightblue" points="428.47,-140.14 439.06,-139.99 430.69,-133.5 428.47,-140.14"/>
</g>
<!-- Node8 -->
<g id="node8" class="node">
<title>Node8</title>
<g id="a_node8"><a xlink:href="FloatingBaseSystemKinematics_8h.html" target="_top" xlink:title=" ">
<polygon fill="none" stroke="black" points="388,-67.5 388,-97.5 592,-97.5 592,-67.5 388,-67.5"/>
<text text-anchor="start" x="396" y="-85.5" font-family="Helvetica,sans-Serif" font-size="10.00">System/include/BipedalLocomotion</text>
<text text-anchor="middle" x="490" y="-74.5" font-family="Helvetica,sans-Serif" font-size="10.00">/System/FloatingBaseSystemKinematics.h</text>
</a>
</g>
</g>
<!-- Node5&#45;&gt;Node8 -->
<g id="edge7" class="edge">
<title>Node5&#45;&gt;Node8</title>
<path fill="none" stroke="midnightblue" d="M484.1,-129.73C485.46,-119.07 487.01,-106.91 488.18,-97.75"/>
<polygon fill="midnightblue" stroke="midnightblue" points="480.62,-129.37 482.82,-139.73 487.56,-130.26 480.62,-129.37"/>
</g>
<!-- Node10 -->
<g id="node10" class="node">
<title>Node10</title>
<g id="a_node10"><a xlink:href="ContactWrench_8cpp.html" target="_top" xlink:title=" ">
<polygon fill="none" stroke="black" points="610,-73 610,-92 766,-92 766,-73 610,-73"/>
<text text-anchor="middle" x="688" y="-80" font-family="Helvetica,sans-Serif" font-size="10.00">System/src/ContactWrench.cpp</text>
</a>
</g>
</g>
<!-- Node5&#45;&gt;Node10 -->
<g id="edge9" class="edge">
<title>Node5&#45;&gt;Node10</title>
<path fill="none" stroke="midnightblue" d="M532.08,-136.6C573.69,-122.43 630.64,-103.04 662.94,-92.03"/>
<polygon fill="midnightblue" stroke="midnightblue" points="530.73,-133.37 522.39,-139.9 532.99,-139.99 530.73,-133.37"/>
</g>
<!-- Node7 -->
<g id="node7" class="node">
<title>Node7</title>
<g id="a_node7"><a xlink:href="FloatingBaseSystemDynamics_8cpp.html" target="_top" xlink:title=" ">
<polygon fill="none" stroke="black" points="189.5,-0.5 189.5,-30.5 350.5,-30.5 350.5,-0.5 189.5,-0.5"/>
<text text-anchor="start" x="197.5" y="-18.5" font-family="Helvetica,sans-Serif" font-size="10.00">System/src/FloatingBaseSystem</text>
<text text-anchor="middle" x="270" y="-7.5" font-family="Helvetica,sans-Serif" font-size="10.00">Dynamics.cpp</text>
</a>
</g>
</g>
<!-- Node6&#45;&gt;Node7 -->
<g id="edge6" class="edge">
<title>Node6&#45;&gt;Node7</title>
<path fill="none" stroke="midnightblue" d="M270,-57.11C270,-48.15 270,-38.32 270,-30.58"/>
<polygon fill="midnightblue" stroke="midnightblue" points="266.5,-57.4 270,-67.4 273.5,-57.4 266.5,-57.4"/>
</g>
<!-- Node9 -->
<g id="node9" class="node">
<title>Node9</title>
<g id="a_node9"><a xlink:href="FloatingBaseSystemKinematics_8cpp.html" target="_top" xlink:title=" ">
<polygon fill="none" stroke="black" points="409.5,-0.5 409.5,-30.5 570.5,-30.5 570.5,-0.5 409.5,-0.5"/>
<text text-anchor="start" x="417.5" y="-18.5" font-family="Helvetica,sans-Serif" font-size="10.00">System/src/FloatingBaseSystem</text>
<text text-anchor="middle" x="490" y="-7.5" font-family="Helvetica,sans-Serif" font-size="10.00">Kinematics.cpp</text>
</a>
</g>
</g>
<!-- Node8&#45;&gt;Node9 -->
<g id="edge8" class="edge">
<title>Node8&#45;&gt;Node9</title>
<path fill="none" stroke="midnightblue" d="M490,-57.11C490,-48.15 490,-38.32 490,-30.58"/>
<polygon fill="midnightblue" stroke="midnightblue" points="486.5,-57.4 490,-67.4 493.5,-57.4 486.5,-57.4"/>
</g>
</g>
</svg>
