<?xml version="1.0" encoding="UTF-8" standalone="no"?>
<!DOCTYPE svg PUBLIC "-//W3C//DTD SVG 1.1//EN"
 "http://www.w3.org/Graphics/SVG/1.1/DTD/svg11.dtd">
<!-- Generated by graphviz version 2.43.0 (0)
 -->
<!-- Title: Contacts/include/BipedalLocomotion/Contacts/ContactPhase.h Pages: 1 -->
<svg width="427pt" height="329pt"
 viewBox="0.00 0.00 426.50 329.00" xmlns="http://www.w3.org/2000/svg" xmlns:xlink="http://www.w3.org/1999/xlink">
<g id="graph0" class="graph" transform="scale(1 1) rotate(0) translate(4 325)">
<title>Contacts/include/BipedalLocomotion/Contacts/ContactPhase.h</title>
<!-- Node1 -->
<g id="node1" class="node">
<title>Node1</title>
<g id="a_node1"><a xlink:title=" ">
<polygon fill="#bfbfbf" stroke="black" points="156.5,-290.5 156.5,-320.5 339.5,-320.5 339.5,-290.5 156.5,-290.5"/>
<text text-anchor="start" x="164.5" y="-308.5" font-family="Helvetica,sans-Serif" font-size="10.00">Contacts/include/Bipedal</text>
<text text-anchor="middle" x="248" y="-297.5" font-family="Helvetica,sans-Serif" font-size="10.00">Locomotion/Contacts/ContactPhase.h</text>
</a>
</g>
</g>
<!-- Node2 -->
<g id="node2" class="node">
<title>Node2</title>
<g id="a_node2"><a xlink:href="ContactPhaseList_8h_source.html" target="_top" xlink:title=" ">
<polygon fill="none" stroke="black" points="68.5,-212.5 68.5,-253.5 243.5,-253.5 243.5,-212.5 68.5,-212.5"/>
<text text-anchor="start" x="76.5" y="-241.5" font-family="Helvetica,sans-Serif" font-size="10.00">Contacts/include/Bipedal</text>
<text text-anchor="start" x="76.5" y="-230.5" font-family="Helvetica,sans-Serif" font-size="10.00">Locomotion/Contacts/ContactPhase</text>
<text text-anchor="middle" x="156" y="-219.5" font-family="Helvetica,sans-Serif" font-size="10.00">List.h</text>
</a>
</g>
</g>
<!-- Node1&#45;&gt;Node2 -->
<g id="edge1" class="edge">
<title>Node1&#45;&gt;Node2</title>
<path fill="none" stroke="midnightblue" d="M221.16,-283.93C208.67,-274.36 193.89,-263.03 181.56,-253.59"/>
<polygon fill="midnightblue" stroke="midnightblue" points="219.32,-286.93 229.38,-290.23 223.57,-281.37 219.32,-286.93"/>
</g>
<!-- Node8 -->
<g id="node8" class="node">
<title>Node8</title>
<g id="a_node8"><a xlink:href="ContactPhase_8cpp.html" target="_top" xlink:title=" ">
<polygon fill="none" stroke="black" points="261.5,-223.5 261.5,-242.5 418.5,-242.5 418.5,-223.5 261.5,-223.5"/>
<text text-anchor="middle" x="340" y="-230.5" font-family="Helvetica,sans-Serif" font-size="10.00">Contacts/src/ContactPhase.cpp</text>
</a>
</g>
</g>
<!-- Node1&#45;&gt;Node8 -->
<g id="edge7" class="edge">
<title>Node1&#45;&gt;Node8</title>
<path fill="none" stroke="midnightblue" d="M274.95,-283.84C292.82,-270.15 315.35,-252.89 328.66,-242.69"/>
<polygon fill="midnightblue" stroke="midnightblue" points="272.43,-281.37 266.62,-290.23 276.68,-286.93 272.43,-281.37"/>
</g>
<!-- Node3 -->
<g id="node3" class="node">
<title>Node3</title>
<g id="a_node3"><a xlink:href="ContactPhaseList_8cpp_source.html" target="_top" xlink:title=" ">
<polygon fill="none" stroke="black" points="0,-145.5 0,-175.5 138,-175.5 138,-145.5 0,-145.5"/>
<text text-anchor="start" x="8" y="-163.5" font-family="Helvetica,sans-Serif" font-size="10.00">Contacts/src/ContactPhase</text>
<text text-anchor="middle" x="69" y="-152.5" font-family="Helvetica,sans-Serif" font-size="10.00">List.cpp</text>
</a>
</g>
</g>
<!-- Node2&#45;&gt;Node3 -->
<g id="edge2" class="edge">
<title>Node2&#45;&gt;Node3</title>
<path fill="none" stroke="midnightblue" d="M123.72,-205.84C111.11,-195.62 97.15,-184.31 86.49,-175.67"/>
<polygon fill="midnightblue" stroke="midnightblue" points="121.79,-208.79 131.77,-212.36 126.2,-203.35 121.79,-208.79"/>
</g>
<!-- Node4 -->
<g id="node4" class="node">
<title>Node4</title>
<g id="a_node4"><a xlink:href="DCMPlanner_8h.html" target="_top" xlink:title=" ">
<polygon fill="none" stroke="black" points="156.5,-145.5 156.5,-175.5 331.5,-175.5 331.5,-145.5 156.5,-145.5"/>
<text text-anchor="start" x="164.5" y="-163.5" font-family="Helvetica,sans-Serif" font-size="10.00">Planners/include/Bipedal</text>
<text text-anchor="middle" x="244" y="-152.5" font-family="Helvetica,sans-Serif" font-size="10.00">Locomotion/Planners/DCMPlanner.h</text>
</a>
</g>
</g>
<!-- Node2&#45;&gt;Node4 -->
<g id="edge3" class="edge">
<title>Node2&#45;&gt;Node4</title>
<path fill="none" stroke="midnightblue" d="M188.65,-205.84C201.4,-195.62 215.53,-184.31 226.31,-175.67"/>
<polygon fill="midnightblue" stroke="midnightblue" points="186.13,-203.38 180.51,-212.36 190.51,-208.84 186.13,-203.38"/>
</g>
<!-- Node5 -->
<g id="node5" class="node">
<title>Node5</title>
<g id="a_node5"><a xlink:href="TimeVaryingDCMPlanner_8h.html" target="_top" xlink:title=" ">
<polygon fill="none" stroke="black" points="73.5,-67.5 73.5,-108.5 238.5,-108.5 238.5,-67.5 73.5,-67.5"/>
<text text-anchor="start" x="81.5" y="-96.5" font-family="Helvetica,sans-Serif" font-size="10.00">Planners/include/Bipedal</text>
<text text-anchor="start" x="81.5" y="-85.5" font-family="Helvetica,sans-Serif" font-size="10.00">Locomotion/Planners/TimeVarying</text>
<text text-anchor="middle" x="156" y="-74.5" font-family="Helvetica,sans-Serif" font-size="10.00">DCMPlanner.h</text>
</a>
</g>
</g>
<!-- Node4&#45;&gt;Node5 -->
<g id="edge4" class="edge">
<title>Node4&#45;&gt;Node5</title>
<path fill="none" stroke="midnightblue" d="M218.33,-138.93C206.38,-129.36 192.24,-118.03 180.45,-108.59"/>
<polygon fill="midnightblue" stroke="midnightblue" points="216.2,-141.71 226.19,-145.23 220.58,-136.25 216.2,-141.71"/>
</g>
<!-- Node7 -->
<g id="node7" class="node">
<title>Node7</title>
<g id="a_node7"><a xlink:href="DCMPlanner_8cpp.html" target="_top" xlink:title=" ">
<polygon fill="none" stroke="black" points="256.5,-78.5 256.5,-97.5 405.5,-97.5 405.5,-78.5 256.5,-78.5"/>
<text text-anchor="middle" x="331" y="-85.5" font-family="Helvetica,sans-Serif" font-size="10.00">Planners/src/DCMPlanner.cpp</text>
</a>
</g>
</g>
<!-- Node4&#45;&gt;Node7 -->
<g id="edge6" class="edge">
<title>Node4&#45;&gt;Node7</title>
<path fill="none" stroke="midnightblue" d="M269.44,-138.88C286.24,-125.27 307.4,-108.13 320.03,-97.89"/>
<polygon fill="midnightblue" stroke="midnightblue" points="267.17,-136.22 261.61,-145.23 271.58,-141.66 267.17,-136.22"/>
</g>
<!-- Node6 -->
<g id="node6" class="node">
<title>Node6</title>
<g id="a_node6"><a xlink:href="TimeVaryingDCMPlanner_8cpp.html" target="_top" xlink:title=" ">
<polygon fill="none" stroke="black" points="92,-0.5 92,-30.5 220,-30.5 220,-0.5 92,-0.5"/>
<text text-anchor="start" x="100" y="-18.5" font-family="Helvetica,sans-Serif" font-size="10.00">Planners/src/TimeVarying</text>
<text text-anchor="middle" x="156" y="-7.5" font-family="Helvetica,sans-Serif" font-size="10.00">DCMPlanner.cpp</text>
</a>
</g>
</g>
<!-- Node5&#45;&gt;Node6 -->
<g id="edge5" class="edge">
<title>Node5&#45;&gt;Node6</title>
<path fill="none" stroke="midnightblue" d="M156,-57.08C156,-48.01 156,-38.45 156,-30.89"/>
<polygon fill="midnightblue" stroke="midnightblue" points="152.5,-57.36 156,-67.36 159.5,-57.36 152.5,-57.36"/>
</g>
</g>
</svg>
