<?xml version="1.0" encoding="UTF-8" standalone="no"?>
<!DOCTYPE svg PUBLIC "-//W3C//DTD SVG 1.1//EN"
 "http://www.w3.org/Graphics/SVG/1.1/DTD/svg11.dtd">
<!-- Generated by graphviz version 2.43.0 (0)
 -->
<!-- Title: ContactModels/src/ContinuousContactModel.cpp Pages: 1 -->
<svg width="1556pt" height="430pt"
 viewBox="0.00 0.00 1555.50 430.00" xmlns="http://www.w3.org/2000/svg" xmlns:xlink="http://www.w3.org/1999/xlink">
<g id="graph0" class="graph" transform="scale(1 1) rotate(0) translate(4 426)">
<title>ContactModels/src/ContinuousContactModel.cpp</title>
<!-- Node1 -->
<g id="node1" class="node">
<title>Node1</title>
<g id="a_node1"><a xlink:title=" ">
<polygon fill="#bfbfbf" stroke="black" points="350,-391.5 350,-421.5 502,-421.5 502,-391.5 350,-391.5"/>
<text text-anchor="start" x="358" y="-409.5" font-family="Helvetica,sans-Serif" font-size="10.00">ContactModels/src/Continuous</text>
<text text-anchor="middle" x="426" y="-398.5" font-family="Helvetica,sans-Serif" font-size="10.00">ContactModel.cpp</text>
</a>
</g>
</g>
<!-- Node2 -->
<g id="node2" class="node">
<title>Node2</title>
<g id="a_node2"><a xlink:title=" ">
<polygon fill="none" stroke="#bfbfbf" points="248,-330 248,-349 398,-349 398,-330 248,-330"/>
<text text-anchor="middle" x="323" y="-337" font-family="Helvetica,sans-Serif" font-size="10.00">iDynTree/Core/EigenHelpers.h</text>
</a>
</g>
</g>
<!-- Node1&#45;&gt;Node2 -->
<g id="edge1" class="edge">
<title>Node1&#45;&gt;Node2</title>
<path fill="none" stroke="midnightblue" d="M403.65,-391.4C386.38,-380.5 362.58,-365.48 345.32,-354.58"/>
<polygon fill="midnightblue" stroke="midnightblue" points="346.81,-351.38 336.48,-349.01 343.07,-357.3 346.81,-351.38"/>
</g>
<!-- Node3 -->
<g id="node3" class="node">
<title>Node3</title>
<g id="a_node3"><a xlink:href="ContinuousContactModel_8h.html" target="_top" xlink:title=" ">
<polygon fill="none" stroke="black" points="605,-324.5 605,-354.5 775,-354.5 775,-324.5 605,-324.5"/>
<text text-anchor="start" x="613" y="-342.5" font-family="Helvetica,sans-Serif" font-size="10.00">BipedalLocomotion/Contact</text>
<text text-anchor="middle" x="690" y="-331.5" font-family="Helvetica,sans-Serif" font-size="10.00">Models/ContinuousContactModel.h</text>
</a>
</g>
</g>
<!-- Node1&#45;&gt;Node3 -->
<g id="edge2" class="edge">
<title>Node1&#45;&gt;Node3</title>
<path fill="none" stroke="midnightblue" d="M482.96,-391.48C524.02,-381.37 579.59,-367.68 622.82,-357.04"/>
<polygon fill="midnightblue" stroke="midnightblue" points="623.81,-360.4 632.69,-354.61 622.14,-353.6 623.81,-360.4"/>
</g>
<!-- Node15 -->
<g id="node15" class="node">
<title>Node15</title>
<g id="a_node15"><a xlink:href="IParametersHandler_8h.html" target="_top" xlink:title=" ">
<polygon fill="none" stroke="black" points="221,-190.5 221,-220.5 373,-220.5 373,-190.5 221,-190.5"/>
<text text-anchor="start" x="229" y="-208.5" font-family="Helvetica,sans-Serif" font-size="10.00">BipedalLocomotion/Parameters</text>
<text text-anchor="middle" x="297" y="-197.5" font-family="Helvetica,sans-Serif" font-size="10.00">Handler/IParametersHandler.h</text>
</a>
</g>
</g>
<!-- Node1&#45;&gt;Node15 -->
<g id="edge33" class="edge">
<title>Node1&#45;&gt;Node15</title>
<path fill="none" stroke="midnightblue" d="M424.95,-391.46C423.2,-374.58 418.64,-345.78 407,-324 385.97,-284.64 348.36,-248.66 323.05,-227.16"/>
<polygon fill="midnightblue" stroke="midnightblue" points="325.22,-224.41 315.3,-220.7 320.74,-229.79 325.22,-224.41"/>
</g>
<!-- Node4 -->
<g id="node4" class="node">
<title>Node4</title>
<g id="a_node4"><a xlink:title=" ">
<polygon fill="none" stroke="#bfbfbf" points="1278,-196 1278,-215 1414,-215 1414,-196 1278,-196"/>
<text text-anchor="middle" x="1346" y="-203" font-family="Helvetica,sans-Serif" font-size="10.00">iDynTree/Core/Transform.h</text>
</a>
</g>
</g>
<!-- Node3&#45;&gt;Node4 -->
<g id="edge3" class="edge">
<title>Node3&#45;&gt;Node4</title>
<path fill="none" stroke="midnightblue" d="M759.58,-324.5C891.75,-297.9 1176.37,-240.63 1293.75,-217.01"/>
<polygon fill="midnightblue" stroke="midnightblue" points="1294.47,-220.44 1303.58,-215.04 1293.08,-213.58 1294.47,-220.44"/>
</g>
<!-- Node5 -->
<g id="node5" class="node">
<title>Node5</title>
<g id="a_node5"><a xlink:title=" ">
<polygon fill="none" stroke="#bfbfbf" points="1432.5,-196 1432.5,-215 1547.5,-215 1547.5,-196 1432.5,-196"/>
<text text-anchor="middle" x="1490" y="-203" font-family="Helvetica,sans-Serif" font-size="10.00">iDynTree/Core/Twist.h</text>
</a>
</g>
</g>
<!-- Node3&#45;&gt;Node5 -->
<g id="edge4" class="edge">
<title>Node3&#45;&gt;Node5</title>
<path fill="none" stroke="midnightblue" d="M775.25,-326.67C912.25,-307.25 1189.71,-266.21 1423,-221 1429.13,-219.81 1435.57,-218.5 1441.93,-217.17"/>
<polygon fill="midnightblue" stroke="midnightblue" points="1442.74,-220.57 1451.79,-215.07 1441.28,-213.73 1442.74,-220.57"/>
</g>
<!-- Node6 -->
<g id="node6" class="node">
<title>Node6</title>
<g id="a_node6"><a xlink:title=" ">
<polygon fill="none" stroke="#bfbfbf" points="391.5,-196 391.5,-215 516.5,-215 516.5,-196 391.5,-196"/>
<text text-anchor="middle" x="454" y="-203" font-family="Helvetica,sans-Serif" font-size="10.00">iDynTree/Core/Wrench.h</text>
</a>
</g>
</g>
<!-- Node3&#45;&gt;Node6 -->
<g id="edge5" class="edge">
<title>Node3&#45;&gt;Node6</title>
<path fill="none" stroke="midnightblue" d="M664.74,-324.37C619.01,-298.79 523.05,-245.12 478.14,-220"/>
<polygon fill="midnightblue" stroke="midnightblue" points="479.81,-216.92 469.37,-215.1 476.39,-223.03 479.81,-216.92"/>
</g>
<!-- Node7 -->
<g id="node7" class="node">
<title>Node7</title>
<g id="a_node7"><a xlink:href="ContactModel_8h.html" target="_top" xlink:title=" ">
<polygon fill="none" stroke="black" points="732.5,-257.5 732.5,-287.5 869.5,-287.5 869.5,-257.5 732.5,-257.5"/>
<text text-anchor="start" x="740.5" y="-275.5" font-family="Helvetica,sans-Serif" font-size="10.00">BipedalLocomotion/Contact</text>
<text text-anchor="middle" x="801" y="-264.5" font-family="Helvetica,sans-Serif" font-size="10.00">Models/ContactModel.h</text>
</a>
</g>
</g>
<!-- Node3&#45;&gt;Node7 -->
<g id="edge6" class="edge">
<title>Node3&#45;&gt;Node7</title>
<path fill="none" stroke="midnightblue" d="M714.09,-324.4C729.94,-315.11 750.89,-302.84 768.26,-292.67"/>
<polygon fill="midnightblue" stroke="midnightblue" points="770.1,-295.65 776.96,-287.58 766.56,-289.61 770.1,-295.65"/>
</g>
<!-- Node3&#45;&gt;Node15 -->
<g id="edge32" class="edge">
<title>Node3&#45;&gt;Node15</title>
<path fill="none" stroke="midnightblue" d="M648.31,-324.5C575.95,-300.19 427.29,-250.26 348.56,-223.82"/>
<polygon fill="midnightblue" stroke="midnightblue" points="349.44,-220.42 338.85,-220.56 347.22,-227.06 349.44,-220.42"/>
</g>
<!-- Node7&#45;&gt;Node4 -->
<g id="edge13" class="edge">
<title>Node7&#45;&gt;Node4</title>
<path fill="none" stroke="midnightblue" d="M869.82,-265.43C960.41,-257.12 1124.52,-240.92 1264,-221 1272.73,-219.75 1281.97,-218.28 1290.96,-216.75"/>
<polygon fill="midnightblue" stroke="midnightblue" points="1291.72,-220.17 1300.97,-215.02 1290.52,-213.27 1291.72,-220.17"/>
</g>
<!-- Node7&#45;&gt;Node5 -->
<g id="edge14" class="edge">
<title>Node7&#45;&gt;Node5</title>
<path fill="none" stroke="midnightblue" d="M869.91,-268.88C985,-263.84 1223.39,-250.57 1423,-221 1429.96,-219.97 1437.28,-218.64 1444.42,-217.21"/>
<polygon fill="midnightblue" stroke="midnightblue" points="1445.62,-220.53 1454.69,-215.05 1444.19,-213.68 1445.62,-220.53"/>
</g>
<!-- Node7&#45;&gt;Node6 -->
<g id="edge16" class="edge">
<title>Node7&#45;&gt;Node6</title>
<path fill="none" stroke="midnightblue" d="M732.28,-259.22C676.62,-249.19 596.19,-234.51 526,-221 519.44,-219.74 512.55,-218.38 505.73,-217.03"/>
<polygon fill="midnightblue" stroke="midnightblue" points="506.35,-213.58 495.86,-215.06 504.98,-220.45 506.35,-213.58"/>
</g>
<!-- Node8 -->
<g id="node8" class="node">
<title>Node8</title>
<g id="a_node8"><a xlink:title=" ">
<polygon fill="none" stroke="#bfbfbf" points="706,-196 706,-215 738,-215 738,-196 706,-196"/>
<text text-anchor="middle" x="722" y="-203" font-family="Helvetica,sans-Serif" font-size="10.00">any</text>
</a>
</g>
</g>
<!-- Node7&#45;&gt;Node8 -->
<g id="edge7" class="edge">
<title>Node7&#45;&gt;Node8</title>
<path fill="none" stroke="midnightblue" d="M783.86,-257.4C771.05,-246.86 753.57,-232.48 740.46,-221.69"/>
<polygon fill="midnightblue" stroke="midnightblue" points="742.51,-218.85 732.57,-215.19 738.07,-224.25 742.51,-218.85"/>
</g>
<!-- Node9 -->
<g id="node9" class="node">
<title>Node9</title>
<g id="a_node9"><a xlink:title=" ">
<polygon fill="none" stroke="#bfbfbf" points="552,-62 552,-81 604,-81 604,-62 552,-62"/>
<text text-anchor="middle" x="578" y="-69" font-family="Helvetica,sans-Serif" font-size="10.00">memory</text>
</a>
</g>
</g>
<!-- Node7&#45;&gt;Node9 -->
<g id="edge8" class="edge">
<title>Node7&#45;&gt;Node9</title>
<path fill="none" stroke="midnightblue" d="M869.88,-264.59C989.85,-252.39 1225.05,-227.69 1231,-221 1240.16,-210.71 1239.84,-200.57 1231,-190 1151.04,-94.37 739.51,-76.45 614.23,-73.2"/>
<polygon fill="midnightblue" stroke="midnightblue" points="614.1,-69.7 604.02,-72.95 613.93,-76.69 614.1,-69.7"/>
</g>
<!-- Node10 -->
<g id="node10" class="node">
<title>Node10</title>
<g id="a_node10"><a xlink:title=" ">
<polygon fill="none" stroke="#bfbfbf" points="645.5,-129 645.5,-148 686.5,-148 686.5,-129 645.5,-129"/>
<text text-anchor="middle" x="666" y="-136" font-family="Helvetica,sans-Serif" font-size="10.00">string</text>
</a>
</g>
</g>
<!-- Node7&#45;&gt;Node10 -->
<g id="edge9" class="edge">
<title>Node7&#45;&gt;Node10</title>
<path fill="none" stroke="midnightblue" d="M793.97,-257.2C784.91,-239.8 767.81,-210.24 747,-190 731.31,-174.74 710.25,-161.78 693.54,-152.82"/>
<polygon fill="midnightblue" stroke="midnightblue" points="694.76,-149.51 684.27,-148.01 691.54,-155.72 694.76,-149.51"/>
</g>
<!-- Node11 -->
<g id="node11" class="node">
<title>Node11</title>
<g id="a_node11"><a xlink:title=" ">
<polygon fill="none" stroke="#bfbfbf" points="794.5,-196 794.5,-215 877.5,-215 877.5,-196 794.5,-196"/>
<text text-anchor="middle" x="836" y="-203" font-family="Helvetica,sans-Serif" font-size="10.00">unordered_map</text>
</a>
</g>
</g>
<!-- Node7&#45;&gt;Node11 -->
<g id="edge10" class="edge">
<title>Node7&#45;&gt;Node11</title>
<path fill="none" stroke="midnightblue" d="M808.59,-257.4C813.84,-247.66 820.84,-234.65 826.46,-224.21"/>
<polygon fill="midnightblue" stroke="midnightblue" points="829.66,-225.66 831.32,-215.19 823.5,-222.34 829.66,-225.66"/>
</g>
<!-- Node12 -->
<g id="node12" class="node">
<title>Node12</title>
<g id="a_node12"><a xlink:title=" ">
<polygon fill="none" stroke="#bfbfbf" points="896,-196 896,-215 1052,-215 1052,-196 896,-196"/>
<text text-anchor="middle" x="974" y="-203" font-family="Helvetica,sans-Serif" font-size="10.00">iDynTree/Core/MatrixDynSize.h</text>
</a>
</g>
</g>
<!-- Node7&#45;&gt;Node12 -->
<g id="edge11" class="edge">
<title>Node7&#45;&gt;Node12</title>
<path fill="none" stroke="midnightblue" d="M838.54,-257.4C869.3,-245.84 912.37,-229.66 941.63,-218.66"/>
<polygon fill="midnightblue" stroke="midnightblue" points="943.23,-221.8 951.36,-215.01 940.77,-215.25 943.23,-221.8"/>
</g>
<!-- Node13 -->
<g id="node13" class="node">
<title>Node13</title>
<g id="a_node13"><a xlink:title=" ">
<polygon fill="none" stroke="#bfbfbf" points="1070,-196 1070,-215 1222,-215 1222,-196 1070,-196"/>
<text text-anchor="middle" x="1146" y="-203" font-family="Helvetica,sans-Serif" font-size="10.00">iDynTree/Core/MatrixFixSize.h</text>
</a>
</g>
</g>
<!-- Node7&#45;&gt;Node13 -->
<g id="edge12" class="edge">
<title>Node7&#45;&gt;Node13</title>
<path fill="none" stroke="midnightblue" d="M869.57,-258.58C934.4,-246.37 1030.46,-228.27 1090.58,-216.94"/>
<polygon fill="midnightblue" stroke="midnightblue" points="1091.46,-220.34 1100.64,-215.05 1090.17,-213.46 1091.46,-220.34"/>
</g>
<!-- Node14 -->
<g id="node14" class="node">
<title>Node14</title>
<g id="a_node14"><a xlink:title=" ">
<polygon fill="none" stroke="#bfbfbf" points="534.5,-196 534.5,-215 687.5,-215 687.5,-196 534.5,-196"/>
<text text-anchor="middle" x="611" y="-203" font-family="Helvetica,sans-Serif" font-size="10.00">iDynTree/Core/VectorFixSize.h</text>
</a>
</g>
</g>
<!-- Node7&#45;&gt;Node14 -->
<g id="edge15" class="edge">
<title>Node7&#45;&gt;Node14</title>
<path fill="none" stroke="midnightblue" d="M759.77,-257.4C725.7,-245.74 677.86,-229.37 645.71,-218.38"/>
<polygon fill="midnightblue" stroke="midnightblue" points="646.46,-214.93 635.87,-215.01 644.2,-221.56 646.46,-214.93"/>
</g>
<!-- Node7&#45;&gt;Node15 -->
<g id="edge17" class="edge">
<title>Node7&#45;&gt;Node15</title>
<path fill="none" stroke="midnightblue" d="M732.45,-264.21C651.64,-255.4 513.06,-239.59 383.51,-221.03"/>
<polygon fill="midnightblue" stroke="midnightblue" points="383.8,-217.53 373.4,-219.57 382.8,-224.46 383.8,-217.53"/>
</g>
<!-- Node15&#45;&gt;Node9 -->
<g id="edge18" class="edge">
<title>Node15&#45;&gt;Node9</title>
<path fill="none" stroke="midnightblue" d="M341.61,-190.48C369.27,-181.26 405.26,-168.27 436,-154 480.05,-133.54 528.55,-104.09 555.94,-86.76"/>
<polygon fill="midnightblue" stroke="midnightblue" points="558.16,-89.5 564.71,-81.17 554.4,-83.6 558.16,-89.5"/>
</g>
<!-- Node15&#45;&gt;Node10 -->
<g id="edge19" class="edge">
<title>Node15&#45;&gt;Node10</title>
<path fill="none" stroke="midnightblue" d="M373.01,-191.11C453.88,-176.87 577.87,-155.02 635.1,-144.94"/>
<polygon fill="midnightblue" stroke="midnightblue" points="636.06,-148.33 645.3,-143.15 634.84,-141.43 636.06,-148.33"/>
</g>
<!-- Node16 -->
<g id="node16" class="node">
<title>Node16</title>
<g id="a_node16"><a xlink:title=" ">
<polygon fill="none" stroke="#bfbfbf" points="383,-129 383,-148 427,-148 427,-129 383,-129"/>
<text text-anchor="middle" x="405" y="-136" font-family="Helvetica,sans-Serif" font-size="10.00">vector</text>
</a>
</g>
</g>
<!-- Node15&#45;&gt;Node16 -->
<g id="edge20" class="edge">
<title>Node15&#45;&gt;Node16</title>
<path fill="none" stroke="midnightblue" d="M320.43,-190.4C338.71,-179.39 363.96,-164.2 382.1,-153.28"/>
<polygon fill="midnightblue" stroke="midnightblue" points="384.1,-156.16 390.87,-148.01 380.49,-150.16 384.1,-156.16"/>
</g>
<!-- Node17 -->
<g id="node17" class="node">
<title>Node17</title>
<g id="a_node17"><a xlink:href="Vector_8h_source.html" target="_top" xlink:title=" ">
<polygon fill="none" stroke="black" points="229,-123.5 229,-153.5 365,-153.5 365,-123.5 229,-123.5"/>
<text text-anchor="start" x="237" y="-141.5" font-family="Helvetica,sans-Serif" font-size="10.00">BipedalLocomotion/Generic</text>
<text text-anchor="middle" x="297" y="-130.5" font-family="Helvetica,sans-Serif" font-size="10.00">Container/Vector.h</text>
</a>
</g>
</g>
<!-- Node15&#45;&gt;Node17 -->
<g id="edge21" class="edge">
<title>Node15&#45;&gt;Node17</title>
<path fill="none" stroke="midnightblue" d="M297,-190.4C297,-182.64 297,-172.81 297,-163.86"/>
<polygon fill="midnightblue" stroke="midnightblue" points="300.5,-163.58 297,-153.58 293.5,-163.58 300.5,-163.58"/>
</g>
<!-- Node19 -->
<g id="node19" class="node">
<title>Node19</title>
<g id="a_node19"><a xlink:href="TemplateHelpers_8h_source.html" target="_top" xlink:title=" ">
<polygon fill="none" stroke="black" points="41.5,-56.5 41.5,-86.5 184.5,-86.5 184.5,-56.5 41.5,-56.5"/>
<text text-anchor="start" x="49.5" y="-74.5" font-family="Helvetica,sans-Serif" font-size="10.00">BipedalLocomotion/Generic</text>
<text text-anchor="middle" x="113" y="-63.5" font-family="Helvetica,sans-Serif" font-size="10.00">Container/TemplateHelpers.h</text>
</a>
</g>
</g>
<!-- Node15&#45;&gt;Node19 -->
<g id="edge31" class="edge">
<title>Node15&#45;&gt;Node19</title>
<path fill="none" stroke="midnightblue" d="M274.48,-190.32C258.98,-180.42 238.01,-166.74 220,-154 191.73,-134 160.3,-109.82 138.86,-93.01"/>
<polygon fill="midnightblue" stroke="midnightblue" points="140.91,-90.17 130.89,-86.74 136.58,-95.67 140.91,-90.17"/>
</g>
<!-- Node17&#45;&gt;Node9 -->
<g id="edge30" class="edge">
<title>Node17&#45;&gt;Node9</title>
<path fill="none" stroke="midnightblue" d="M365.01,-124.23C431.8,-111.08 526.09,-92.19 543,-87 545.15,-86.34 547.34,-85.6 549.54,-84.81"/>
<polygon fill="midnightblue" stroke="midnightblue" points="550.93,-88.03 558.99,-81.15 548.4,-81.5 550.93,-88.03"/>
</g>
<!-- Node18 -->
<g id="node18" class="node">
<title>Node18</title>
<g id="a_node18"><a xlink:title=" ">
<polygon fill="none" stroke="#bfbfbf" points="342,-62 342,-81 456,-81 456,-62 342,-62"/>
<text text-anchor="middle" x="399" y="-69" font-family="Helvetica,sans-Serif" font-size="10.00">iDynTree/Core/Span.h</text>
</a>
</g>
</g>
<!-- Node17&#45;&gt;Node18 -->
<g id="edge22" class="edge">
<title>Node17&#45;&gt;Node18</title>
<path fill="none" stroke="midnightblue" d="M319.13,-123.4C336.24,-112.5 359.8,-97.48 376.9,-86.58"/>
<polygon fill="midnightblue" stroke="midnightblue" points="379.1,-89.33 385.65,-81.01 375.34,-83.43 379.1,-89.33"/>
</g>
<!-- Node17&#45;&gt;Node19 -->
<g id="edge23" class="edge">
<title>Node17&#45;&gt;Node19</title>
<path fill="none" stroke="midnightblue" d="M257.07,-123.4C229.35,-113.6 192.21,-100.48 162.58,-90.02"/>
<polygon fill="midnightblue" stroke="midnightblue" points="163.44,-86.61 152.85,-86.58 161.11,-93.21 163.44,-86.61"/>
</g>
<!-- Node23 -->
<g id="node23" class="node">
<title>Node23</title>
<g id="a_node23"><a xlink:title=" ">
<polygon fill="none" stroke="#bfbfbf" points="474.5,-62 474.5,-81 533.5,-81 533.5,-62 474.5,-62"/>
<text text-anchor="middle" x="504" y="-69" font-family="Helvetica,sans-Serif" font-size="10.00">functional</text>
</a>
</g>
</g>
<!-- Node17&#45;&gt;Node23 -->
<g id="edge27" class="edge">
<title>Node17&#45;&gt;Node23</title>
<path fill="none" stroke="midnightblue" d="M346.88,-123.41C380.44,-113.71 425.59,-100.23 465,-87 467.4,-86.2 469.87,-85.34 472.35,-84.46"/>
<polygon fill="midnightblue" stroke="midnightblue" points="473.61,-87.73 481.81,-81.03 471.22,-81.15 473.61,-87.73"/>
</g>
<!-- Node24 -->
<g id="node24" class="node">
<title>Node24</title>
<g id="a_node24"><a xlink:title=" ">
<polygon fill="none" stroke="#bfbfbf" points="202.5,-62 202.5,-81 251.5,-81 251.5,-62 202.5,-62"/>
<text text-anchor="middle" x="227" y="-69" font-family="Helvetica,sans-Serif" font-size="10.00">cassert</text>
</a>
</g>
</g>
<!-- Node17&#45;&gt;Node24 -->
<g id="edge28" class="edge">
<title>Node17&#45;&gt;Node24</title>
<path fill="none" stroke="midnightblue" d="M281.81,-123.4C270.68,-113.06 255.56,-99.02 244.03,-88.31"/>
<polygon fill="midnightblue" stroke="midnightblue" points="246.07,-85.43 236.36,-81.19 241.31,-90.56 246.07,-85.43"/>
</g>
<!-- Node25 -->
<g id="node25" class="node">
<title>Node25</title>
<g id="a_node25"><a xlink:title=" ">
<polygon fill="none" stroke="#bfbfbf" points="270,-62 270,-81 324,-81 324,-62 270,-62"/>
<text text-anchor="middle" x="297" y="-69" font-family="Helvetica,sans-Serif" font-size="10.00">iostream</text>
</a>
</g>
</g>
<!-- Node17&#45;&gt;Node25 -->
<g id="edge29" class="edge">
<title>Node17&#45;&gt;Node25</title>
<path fill="none" stroke="midnightblue" d="M297,-123.4C297,-114.06 297,-101.71 297,-91.52"/>
<polygon fill="midnightblue" stroke="midnightblue" points="300.5,-91.19 297,-81.19 293.5,-91.19 300.5,-91.19"/>
</g>
<!-- Node20 -->
<g id="node20" class="node">
<title>Node20</title>
<g id="a_node20"><a xlink:title=" ">
<polygon fill="none" stroke="#bfbfbf" points="0,-0.5 0,-19.5 62,-19.5 62,-0.5 0,-0.5"/>
<text text-anchor="middle" x="31" y="-7.5" font-family="Helvetica,sans-Serif" font-size="10.00">type_traits</text>
</a>
</g>
</g>
<!-- Node19&#45;&gt;Node20 -->
<g id="edge24" class="edge">
<title>Node19&#45;&gt;Node20</title>
<path fill="none" stroke="midnightblue" d="M93.57,-56.4C80.79,-47.13 64.11,-35.03 51.19,-25.65"/>
<polygon fill="midnightblue" stroke="midnightblue" points="53.08,-22.7 42.93,-19.66 48.97,-28.36 53.08,-22.7"/>
</g>
<!-- Node21 -->
<g id="node21" class="node">
<title>Node21</title>
<g id="a_node21"><a xlink:title=" ">
<polygon fill="none" stroke="#bfbfbf" points="80,-0.5 80,-19.5 146,-19.5 146,-0.5 80,-0.5"/>
<text text-anchor="middle" x="113" y="-7.5" font-family="Helvetica,sans-Serif" font-size="10.00">string_view</text>
</a>
</g>
</g>
<!-- Node19&#45;&gt;Node21 -->
<g id="edge25" class="edge">
<title>Node19&#45;&gt;Node21</title>
<path fill="none" stroke="midnightblue" d="M113,-56.4C113,-48.47 113,-38.46 113,-29.86"/>
<polygon fill="midnightblue" stroke="midnightblue" points="116.5,-29.66 113,-19.66 109.5,-29.66 116.5,-29.66"/>
</g>
<!-- Node22 -->
<g id="node22" class="node">
<title>Node22</title>
<g id="a_node22"><a xlink:title=" ">
<polygon fill="none" stroke="#bfbfbf" points="164.5,-0.5 164.5,-19.5 229.5,-19.5 229.5,-0.5 164.5,-0.5"/>
<text text-anchor="middle" x="197" y="-7.5" font-family="Helvetica,sans-Serif" font-size="10.00">Eigen/Core</text>
</a>
</g>
</g>
<!-- Node19&#45;&gt;Node22 -->
<g id="edge26" class="edge">
<title>Node19&#45;&gt;Node22</title>
<path fill="none" stroke="midnightblue" d="M132.91,-56.4C145.99,-47.13 163.08,-35.03 176.32,-25.65"/>
<polygon fill="midnightblue" stroke="midnightblue" points="178.64,-28.29 184.78,-19.66 174.59,-22.58 178.64,-28.29"/>
</g>
</g>
</svg>
