<?xml version="1.0" encoding="UTF-8" standalone="no"?>
<!DOCTYPE svg PUBLIC "-//W3C//DTD SVG 1.1//EN"
 "http://www.w3.org/Graphics/SVG/1.1/DTD/svg11.dtd">
<!-- Generated by graphviz version 2.43.0 (0)
 -->
<!-- Title: Contacts/include/BipedalLocomotion/Contacts/Contact.h Pages: 1 -->
<!--zoomable 496 -->
<svg id="main" version="1.1" xmlns="http://www.w3.org/2000/svg" xmlns:xlink="http://www.w3.org/1999/xlink" xml:space="preserve" onload="init(evt)">
<style type="text/css"><![CDATA[
.edge:hover path { stroke: red; }
.edge:hover polygon { stroke: red; fill: red; }
]]></style>
<script type="text/javascript"><![CDATA[
var edges = document.getElementsByTagName('g');
if (edges && edges.length) {
  for (var i=0;i<edges.length;i++) {
    if (edges[i].id.substr(0,4)=='edge') {
      edges[i].setAttribute('class','edge');
    }
  }
}
]]></script>
        <defs>
                <circle id="rim" cx="0" cy="0" r="7"/>
                <circle id="rim2" cx="0" cy="0" r="3.5"/>
                <g id="zoomPlus">
                        <use xlink:href="#rim" fill="#404040">
                                <set attributeName="fill" to="#808080" begin="zoomplus.mouseover" end="zoomplus.mouseout"/>
                        </use>
                        <path d="M-4,0h8M0,-4v8" fill="none" stroke="white" stroke-width="1.5" pointer-events="none"/>
                </g>
                <g id="zoomMin">
                        <use xlink:href="#rim" fill="#404040">
                                <set attributeName="fill" to="#808080" begin="zoomminus.mouseover" end="zoomminus.mouseout"/>
                        </use>
                        <path d="M-4,0h8" fill="none" stroke="white" stroke-width="1.5" pointer-events="none"/>
                </g>
                <g id="dirArrow">
                        <path fill="none" stroke="white" stroke-width="1.5" d="M0,-3.0v7 M-2.5,-0.5L0,-3.0L2.5,-0.5"/>
                </g>
               <g id="resetDef">
                       <use xlink:href="#rim2" fill="#404040">
                               <set attributeName="fill" to="#808080" begin="reset.mouseover" end="reset.mouseout"/>
                       </use>
               </g>
        </defs>

<script type="text/javascript">
var viewWidth = 1408;
var viewHeight = 496;
var sectionId = 'dynsection-1';
</script>
<script xlink:href="svgpan.js"/>
<svg id="graph" class="graph">
<g id="viewport">
<title>Contacts/include/BipedalLocomotion/Contacts/Contact.h</title>
<!-- Node1 -->
<g id="node1" class="node">
<title>Node1</title>
<g id="a_node1"><a xlink:title=" ">
<polygon fill="#bfbfbf" stroke="black" points="469.5,-457.5 469.5,-487.5 624.5,-487.5 624.5,-457.5 469.5,-457.5"/>
<text text-anchor="start" x="477.5" y="-475.5" font-family="Helvetica,sans-Serif" font-size="10.00">Contacts/include/Bipedal</text>
<text text-anchor="middle" x="547" y="-464.5" font-family="Helvetica,sans-Serif" font-size="10.00">Locomotion/Contacts/Contact.h</text>
</a>
</g>
</g>
<!-- Node2 -->
<g id="node2" class="node">
<title>Node2</title>
<g id="a_node2"><a xlink:href="ContactDetector_8h.html" target="_top" xlink:title=" ">
<polygon fill="none" stroke="black" points="184.5,-379.5 184.5,-420.5 331.5,-420.5 331.5,-379.5 184.5,-379.5"/>
<text text-anchor="start" x="192.5" y="-408.5" font-family="Helvetica,sans-Serif" font-size="10.00">Contacts/include/Bipedal</text>
<text text-anchor="start" x="192.5" y="-397.5" font-family="Helvetica,sans-Serif" font-size="10.00">Locomotion/ContactDetectors</text>
<text text-anchor="middle" x="258" y="-386.5" font-family="Helvetica,sans-Serif" font-size="10.00">/ContactDetector.h</text>
</a>
</g>
</g>
<!-- Node1&#45;&gt;Node2 -->
<g id="edge1" class="edge">
<title>Node1&#45;&gt;Node2</title>
<path fill="none" stroke="midnightblue" d="M479.73,-455.09C435.34,-444.26 377.17,-430.07 331.55,-418.94"/>
<polygon fill="midnightblue" stroke="midnightblue" points="479.01,-458.52 489.56,-457.49 480.67,-451.72 479.01,-458.52"/>
</g>
<!-- Node6 -->
<g id="node6" class="node">
<title>Node6</title>
<g id="a_node6"><a xlink:href="ContactList_8h.html" target="_top" xlink:title=" ">
<polygon fill="none" stroke="black" points="518.5,-385 518.5,-415 689.5,-415 689.5,-385 518.5,-385"/>
<text text-anchor="start" x="526.5" y="-403" font-family="Helvetica,sans-Serif" font-size="10.00">Contacts/include/Bipedal</text>
<text text-anchor="middle" x="604" y="-392" font-family="Helvetica,sans-Serif" font-size="10.00">Locomotion/Contacts/ContactList.h</text>
</a>
</g>
</g>
<!-- Node1&#45;&gt;Node6 -->
<g id="edge5" class="edge">
<title>Node1&#45;&gt;Node6</title>
<path fill="none" stroke="midnightblue" d="M565.02,-449.21C574.01,-438.1 584.61,-424.99 592.48,-415.25"/>
<polygon fill="midnightblue" stroke="midnightblue" points="562.1,-447.26 558.53,-457.23 567.54,-451.66 562.1,-447.26"/>
</g>
<!-- Node7 -->
<g id="node7" class="node">
<title>Node7</title>
<g id="a_node7"><a xlink:href="ContactPhase_8h.html" target="_top" xlink:title=" ">
<polygon fill="none" stroke="black" points="392.5,-307 392.5,-337 575.5,-337 575.5,-307 392.5,-307"/>
<text text-anchor="start" x="400.5" y="-325" font-family="Helvetica,sans-Serif" font-size="10.00">Contacts/include/Bipedal</text>
<text text-anchor="middle" x="484" y="-314" font-family="Helvetica,sans-Serif" font-size="10.00">Locomotion/Contacts/ContactPhase.h</text>
</a>
</g>
</g>
<!-- Node1&#45;&gt;Node7 -->
<g id="edge19" class="edge">
<title>Node1&#45;&gt;Node7</title>
<path fill="none" stroke="midnightblue" d="M527.55,-449.62C520.86,-441.16 513.84,-431.09 509,-421 495.55,-392.98 488.75,-356.86 485.83,-337.23"/>
<polygon fill="midnightblue" stroke="midnightblue" points="524.97,-451.99 534.03,-457.48 530.37,-447.54 524.97,-451.99"/>
</g>
<!-- Node8 -->
<g id="node8" class="node">
<title>Node8</title>
<g id="a_node8"><a xlink:href="ContactPhaseList_8h_source.html" target="_top" xlink:title=" ">
<polygon fill="none" stroke="black" points="500.5,-218 500.5,-259 675.5,-259 675.5,-218 500.5,-218"/>
<text text-anchor="start" x="508.5" y="-247" font-family="Helvetica,sans-Serif" font-size="10.00">Contacts/include/Bipedal</text>
<text text-anchor="start" x="508.5" y="-236" font-family="Helvetica,sans-Serif" font-size="10.00">Locomotion/Contacts/ContactPhase</text>
<text text-anchor="middle" x="588" y="-225" font-family="Helvetica,sans-Serif" font-size="10.00">List.h</text>
</a>
</g>
</g>
<!-- Node1&#45;&gt;Node8 -->
<g id="edge20" class="edge">
<title>Node1&#45;&gt;Node8</title>
<path fill="none" stroke="midnightblue" d="M504.73,-453.04C442.41,-423.22 337.88,-361.65 383,-301 387.2,-295.35 458.23,-274.85 515.51,-259.05"/>
<polygon fill="midnightblue" stroke="midnightblue" points="503.43,-456.29 513.96,-457.38 506.4,-449.96 503.43,-456.29"/>
</g>
<!-- Node18 -->
<g id="node18" class="node">
<title>Node18</title>
<g id="a_node18"><a xlink:href="Contact_8cpp.html" target="_top" xlink:title=" ">
<polygon fill="none" stroke="black" points="707.5,-390.5 707.5,-409.5 836.5,-409.5 836.5,-390.5 707.5,-390.5"/>
<text text-anchor="middle" x="772" y="-397.5" font-family="Helvetica,sans-Serif" font-size="10.00">Contacts/src/Contact.cpp</text>
</a>
</g>
</g>
<!-- Node1&#45;&gt;Node18 -->
<g id="edge21" class="edge">
<title>Node1&#45;&gt;Node18</title>
<path fill="none" stroke="midnightblue" d="M601.39,-454.46C646.68,-440.27 709.28,-420.65 744.7,-409.55"/>
<polygon fill="midnightblue" stroke="midnightblue" points="600.22,-451.16 591.72,-457.49 602.31,-457.84 600.22,-451.16"/>
</g>
<!-- Node19 -->
<g id="node19" class="node">
<title>Node19</title>
<g id="a_node19"><a xlink:href="FloatingBaseEstimatorIO_8h.html" target="_top" xlink:title=" ">
<polygon fill="none" stroke="black" points="929.5,-379.5 929.5,-420.5 1136.5,-420.5 1136.5,-379.5 929.5,-379.5"/>
<text text-anchor="start" x="937.5" y="-408.5" font-family="Helvetica,sans-Serif" font-size="10.00">Estimators/include</text>
<text text-anchor="start" x="937.5" y="-397.5" font-family="Helvetica,sans-Serif" font-size="10.00">/BipedalLocomotion/Floating</text>
<text text-anchor="middle" x="1033" y="-386.5" font-family="Helvetica,sans-Serif" font-size="10.00">BaseEstimators/FloatingBaseEstimatorIO.h</text>
</a>
</g>
</g>
<!-- Node1&#45;&gt;Node19 -->
<g id="edge22" class="edge">
<title>Node1&#45;&gt;Node19</title>
<path fill="none" stroke="midnightblue" d="M634.69,-458.78C717.52,-446.76 841.79,-428.74 929.45,-416.02"/>
<polygon fill="midnightblue" stroke="midnightblue" points="633.94,-455.35 624.55,-460.25 634.94,-462.28 633.94,-455.35"/>
</g>
<!-- Node3 -->
<g id="node3" class="node">
<title>Node3</title>
<g id="a_node3"><a xlink:href="SchmittTriggerDetector_8h.html" target="_top" xlink:title=" ">
<polygon fill="none" stroke="black" points="184.5,-301.5 184.5,-342.5 331.5,-342.5 331.5,-301.5 184.5,-301.5"/>
<text text-anchor="start" x="192.5" y="-330.5" font-family="Helvetica,sans-Serif" font-size="10.00">Contacts/include/Bipedal</text>
<text text-anchor="start" x="192.5" y="-319.5" font-family="Helvetica,sans-Serif" font-size="10.00">Locomotion/ContactDetectors</text>
<text text-anchor="middle" x="258" y="-308.5" font-family="Helvetica,sans-Serif" font-size="10.00">/SchmittTriggerDetector.h</text>
</a>
</g>
</g>
<!-- Node2&#45;&gt;Node3 -->
<g id="edge2" class="edge">
<title>Node2&#45;&gt;Node3</title>
<path fill="none" stroke="midnightblue" d="M258,-369.3C258,-360.3 258,-350.65 258,-342.51"/>
<polygon fill="midnightblue" stroke="midnightblue" points="254.5,-369.43 258,-379.43 261.5,-369.43 254.5,-369.43"/>
</g>
<!-- Node5 -->
<g id="node5" class="node">
<title>Node5</title>
<g id="a_node5"><a xlink:href="ContactDetector_8cpp.html" target="_top" xlink:title=" ">
<polygon fill="none" stroke="black" points="0,-312.5 0,-331.5 166,-331.5 166,-312.5 0,-312.5"/>
<text text-anchor="middle" x="83" y="-319.5" font-family="Helvetica,sans-Serif" font-size="10.00">Contacts/src/ContactDetector.cpp</text>
</a>
</g>
</g>
<!-- Node2&#45;&gt;Node5 -->
<g id="edge4" class="edge">
<title>Node2&#45;&gt;Node5</title>
<path fill="none" stroke="midnightblue" d="M203.49,-375.33C169.19,-360.43 126.96,-342.09 102.69,-331.55"/>
<polygon fill="midnightblue" stroke="midnightblue" points="202.37,-378.65 212.93,-379.43 205.15,-372.23 202.37,-378.65"/>
</g>
<!-- Node4 -->
<g id="node4" class="node">
<title>Node4</title>
<g id="a_node4"><a xlink:href="SchmittTriggerDetector_8cpp.html" target="_top" xlink:title=" ">
<polygon fill="none" stroke="black" points="167,-223.5 167,-253.5 307,-253.5 307,-223.5 167,-223.5"/>
<text text-anchor="start" x="175" y="-241.5" font-family="Helvetica,sans-Serif" font-size="10.00">Contacts/src/SchmittTrigger</text>
<text text-anchor="middle" x="237" y="-230.5" font-family="Helvetica,sans-Serif" font-size="10.00">Detector.cpp</text>
</a>
</g>
</g>
<!-- Node3&#45;&gt;Node4 -->
<g id="edge3" class="edge">
<title>Node3&#45;&gt;Node4</title>
<path fill="none" stroke="midnightblue" d="M250.38,-291.41C247.06,-278.54 243.33,-264.07 240.65,-253.68"/>
<polygon fill="midnightblue" stroke="midnightblue" points="247.03,-292.46 252.92,-301.27 253.81,-290.71 247.03,-292.46"/>
</g>
<!-- Node6&#45;&gt;Node7 -->
<g id="edge6" class="edge">
<title>Node6&#45;&gt;Node7</title>
<path fill="none" stroke="midnightblue" d="M573.16,-379.47C552.21,-366.2 524.99,-348.96 506.17,-337.04"/>
<polygon fill="midnightblue" stroke="midnightblue" points="571.39,-382.49 581.71,-384.88 575.13,-376.58 571.39,-382.49"/>
</g>
<!-- Node6&#45;&gt;Node8 -->
<g id="edge14" class="edge">
<title>Node6&#45;&gt;Node8</title>
<path fill="none" stroke="midnightblue" d="M601.56,-374.67C598.38,-342.97 592.88,-288.14 589.96,-259.01"/>
<polygon fill="midnightblue" stroke="midnightblue" points="598.1,-375.24 602.58,-384.85 605.06,-374.55 598.1,-375.24"/>
</g>
<!-- Node15 -->
<g id="node15" class="node">
<title>Node15</title>
<g id="a_node15"><a xlink:href="ContactList_8cpp.html" target="_top" xlink:title=" ">
<polygon fill="none" stroke="black" points="670.5,-312.5 670.5,-331.5 815.5,-331.5 815.5,-312.5 670.5,-312.5"/>
<text text-anchor="middle" x="743" y="-319.5" font-family="Helvetica,sans-Serif" font-size="10.00">Contacts/src/ContactList.cpp</text>
</a>
</g>
</g>
<!-- Node6&#45;&gt;Node15 -->
<g id="edge15" class="edge">
<title>Node6&#45;&gt;Node15</title>
<path fill="none" stroke="midnightblue" d="M638.63,-380.07C667.01,-364.55 705.86,-343.31 727.26,-331.61"/>
<polygon fill="midnightblue" stroke="midnightblue" points="636.91,-377.01 629.82,-384.88 640.27,-383.16 636.91,-377.01"/>
</g>
<!-- Node16 -->
<g id="node16" class="node">
<title>Node16</title>
<g id="a_node16"><a xlink:href="SwingFootPlanner_8h.html" target="_top" xlink:title=" ">
<polygon fill="none" stroke="black" points="834,-301.5 834,-342.5 992,-342.5 992,-301.5 834,-301.5"/>
<text text-anchor="start" x="842" y="-330.5" font-family="Helvetica,sans-Serif" font-size="10.00">Planners/include/Bipedal</text>
<text text-anchor="start" x="842" y="-319.5" font-family="Helvetica,sans-Serif" font-size="10.00">Locomotion/Planners/SwingFoot</text>
<text text-anchor="middle" x="913" y="-308.5" font-family="Helvetica,sans-Serif" font-size="10.00">Planner.h</text>
</a>
</g>
</g>
<!-- Node6&#45;&gt;Node16 -->
<g id="edge16" class="edge">
<title>Node6&#45;&gt;Node16</title>
<path fill="none" stroke="midnightblue" d="M670.99,-382.52C718.86,-370.75 783.47,-354.86 833.89,-342.46"/>
<polygon fill="midnightblue" stroke="midnightblue" points="669.91,-379.18 661.04,-384.97 671.58,-385.98 669.91,-379.18"/>
</g>
<!-- Node17 -->
<g id="node17" class="node">
<title>Node17</title>
<g id="a_node17"><a xlink:href="SwingFootPlanner_8cpp.html" target="_top" xlink:title=" ">
<polygon fill="none" stroke="black" points="694,-229 694,-248 866,-248 866,-229 694,-229"/>
<text text-anchor="middle" x="780" y="-236" font-family="Helvetica,sans-Serif" font-size="10.00">Planners/src/SwingFootPlanner.cpp</text>
</a>
</g>
</g>
<!-- Node6&#45;&gt;Node17 -->
<g id="edge18" class="edge">
<title>Node6&#45;&gt;Node17</title>
<path fill="none" stroke="midnightblue" d="M613.22,-375.26C622.58,-353.68 638.84,-322.08 661,-301 687.96,-275.35 727.7,-257.74 753.72,-248.14"/>
<polygon fill="midnightblue" stroke="midnightblue" points="609.92,-374.1 609.3,-384.67 616.38,-376.79 609.92,-374.1"/>
</g>
<!-- Node7&#45;&gt;Node8 -->
<g id="edge7" class="edge">
<title>Node7&#45;&gt;Node8</title>
<path fill="none" stroke="midnightblue" d="M510.14,-300.52C526.36,-287.8 547.09,-271.56 563.08,-259.03"/>
<polygon fill="midnightblue" stroke="midnightblue" points="507.83,-297.88 502.12,-306.8 512.15,-303.39 507.83,-297.88"/>
</g>
<!-- Node14 -->
<g id="node14" class="node">
<title>Node14</title>
<g id="a_node14"><a xlink:href="ContactPhase_8cpp.html" target="_top" xlink:title=" ">
<polygon fill="none" stroke="black" points="325.5,-229 325.5,-248 482.5,-248 482.5,-229 325.5,-229"/>
<text text-anchor="middle" x="404" y="-236" font-family="Helvetica,sans-Serif" font-size="10.00">Contacts/src/ContactPhase.cpp</text>
</a>
</g>
</g>
<!-- Node7&#45;&gt;Node14 -->
<g id="edge13" class="edge">
<title>Node7&#45;&gt;Node14</title>
<path fill="none" stroke="midnightblue" d="M462.92,-299.53C446.39,-282.69 424.26,-260.14 412.38,-248.04"/>
<polygon fill="midnightblue" stroke="midnightblue" points="460.56,-302.12 470.07,-306.8 465.56,-297.22 460.56,-302.12"/>
</g>
<!-- Node9 -->
<g id="node9" class="node">
<title>Node9</title>
<g id="a_node9"><a xlink:href="ContactPhaseList_8cpp_source.html" target="_top" xlink:title=" ">
<polygon fill="none" stroke="black" points="431,-145.5 431,-175.5 569,-175.5 569,-145.5 431,-145.5"/>
<text text-anchor="start" x="439" y="-163.5" font-family="Helvetica,sans-Serif" font-size="10.00">Contacts/src/ContactPhase</text>
<text text-anchor="middle" x="500" y="-152.5" font-family="Helvetica,sans-Serif" font-size="10.00">List.cpp</text>
</a>
</g>
</g>
<!-- Node8&#45;&gt;Node9 -->
<g id="edge8" class="edge">
<title>Node8&#45;&gt;Node9</title>
<path fill="none" stroke="midnightblue" d="M557.5,-211.16C543.72,-199.26 527.99,-185.68 516.47,-175.73"/>
<polygon fill="midnightblue" stroke="midnightblue" points="555.48,-214.04 565.34,-217.93 560.06,-208.74 555.48,-214.04"/>
</g>
<!-- Node10 -->
<g id="node10" class="node">
<title>Node10</title>
<g id="a_node10"><a xlink:href="DCMPlanner_8h.html" target="_top" xlink:title=" ">
<polygon fill="none" stroke="black" points="587.5,-145.5 587.5,-175.5 762.5,-175.5 762.5,-145.5 587.5,-145.5"/>
<text text-anchor="start" x="595.5" y="-163.5" font-family="Helvetica,sans-Serif" font-size="10.00">Planners/include/Bipedal</text>
<text text-anchor="middle" x="675" y="-152.5" font-family="Helvetica,sans-Serif" font-size="10.00">Locomotion/Planners/DCMPlanner.h</text>
</a>
</g>
</g>
<!-- Node8&#45;&gt;Node10 -->
<g id="edge9" class="edge">
<title>Node8&#45;&gt;Node10</title>
<path fill="none" stroke="midnightblue" d="M618.15,-211.16C631.77,-199.26 647.33,-185.68 658.72,-175.73"/>
<polygon fill="midnightblue" stroke="midnightblue" points="615.63,-208.71 610.4,-217.93 620.24,-213.99 615.63,-208.71"/>
</g>
<!-- Node11 -->
<g id="node11" class="node">
<title>Node11</title>
<g id="a_node11"><a xlink:href="TimeVaryingDCMPlanner_8h.html" target="_top" xlink:title=" ">
<polygon fill="none" stroke="black" points="505.5,-67.5 505.5,-108.5 670.5,-108.5 670.5,-67.5 505.5,-67.5"/>
<text text-anchor="start" x="513.5" y="-96.5" font-family="Helvetica,sans-Serif" font-size="10.00">Planners/include/Bipedal</text>
<text text-anchor="start" x="513.5" y="-85.5" font-family="Helvetica,sans-Serif" font-size="10.00">Locomotion/Planners/TimeVarying</text>
<text text-anchor="middle" x="588" y="-74.5" font-family="Helvetica,sans-Serif" font-size="10.00">DCMPlanner.h</text>
</a>
</g>
</g>
<!-- Node10&#45;&gt;Node11 -->
<g id="edge10" class="edge">
<title>Node10&#45;&gt;Node11</title>
<path fill="none" stroke="midnightblue" d="M649.62,-138.93C637.81,-129.36 623.83,-118.03 612.17,-108.59"/>
<polygon fill="midnightblue" stroke="midnightblue" points="647.42,-141.66 657.39,-145.23 651.83,-136.22 647.42,-141.66"/>
</g>
<!-- Node13 -->
<g id="node13" class="node">
<title>Node13</title>
<g id="a_node13"><a xlink:href="DCMPlanner_8cpp.html" target="_top" xlink:title=" ">
<polygon fill="none" stroke="black" points="688.5,-78.5 688.5,-97.5 837.5,-97.5 837.5,-78.5 688.5,-78.5"/>
<text text-anchor="middle" x="763" y="-85.5" font-family="Helvetica,sans-Serif" font-size="10.00">Planners/src/DCMPlanner.cpp</text>
</a>
</g>
</g>
<!-- Node10&#45;&gt;Node13 -->
<g id="edge12" class="edge">
<title>Node10&#45;&gt;Node13</title>
<path fill="none" stroke="midnightblue" d="M700.74,-138.88C717.72,-125.27 739.12,-108.13 751.9,-97.89"/>
<polygon fill="midnightblue" stroke="midnightblue" points="698.42,-136.25 692.81,-145.23 702.8,-141.71 698.42,-136.25"/>
</g>
<!-- Node12 -->
<g id="node12" class="node">
<title>Node12</title>
<g id="a_node12"><a xlink:href="TimeVaryingDCMPlanner_8cpp.html" target="_top" xlink:title=" ">
<polygon fill="none" stroke="black" points="524,-0.5 524,-30.5 652,-30.5 652,-0.5 524,-0.5"/>
<text text-anchor="start" x="532" y="-18.5" font-family="Helvetica,sans-Serif" font-size="10.00">Planners/src/TimeVarying</text>
<text text-anchor="middle" x="588" y="-7.5" font-family="Helvetica,sans-Serif" font-size="10.00">DCMPlanner.cpp</text>
</a>
</g>
</g>
<!-- Node11&#45;&gt;Node12 -->
<g id="edge11" class="edge">
<title>Node11&#45;&gt;Node12</title>
<path fill="none" stroke="midnightblue" d="M588,-57.08C588,-48.01 588,-38.45 588,-30.89"/>
<polygon fill="midnightblue" stroke="midnightblue" points="584.5,-57.36 588,-67.36 591.5,-57.36 584.5,-57.36"/>
</g>
<!-- Node16&#45;&gt;Node17 -->
<g id="edge17" class="edge">
<title>Node16&#45;&gt;Node17</title>
<path fill="none" stroke="midnightblue" d="M872.4,-296.12C845.79,-279.82 812.62,-259.49 794.13,-248.16"/>
<polygon fill="midnightblue" stroke="midnightblue" points="870.79,-299.24 881.14,-301.48 874.45,-293.27 870.79,-299.24"/>
</g>
<!-- Node20 -->
<g id="node20" class="node">
<title>Node20</title>
<g id="a_node20"><a xlink:href="FloatingBaseEstimator_8h.html" target="_top" xlink:title=" ">
<polygon fill="none" stroke="black" points="1042,-301.5 1042,-342.5 1238,-342.5 1238,-301.5 1042,-301.5"/>
<text text-anchor="start" x="1050" y="-330.5" font-family="Helvetica,sans-Serif" font-size="10.00">Estimators/include</text>
<text text-anchor="start" x="1050" y="-319.5" font-family="Helvetica,sans-Serif" font-size="10.00">/BipedalLocomotion/Floating</text>
<text text-anchor="middle" x="1140" y="-308.5" font-family="Helvetica,sans-Serif" font-size="10.00">BaseEstimators/FloatingBaseEstimator.h</text>
</a>
</g>
</g>
<!-- Node19&#45;&gt;Node20 -->
<g id="edge23" class="edge">
<title>Node19&#45;&gt;Node20</title>
<path fill="none" stroke="midnightblue" d="M1068.71,-373.64C1083,-363.49 1099.2,-351.98 1112.54,-342.51"/>
<polygon fill="midnightblue" stroke="midnightblue" points="1066.68,-370.78 1060.56,-379.43 1070.73,-376.49 1066.68,-370.78"/>
</g>
<!-- Node21 -->
<g id="node21" class="node">
<title>Node21</title>
<g id="a_node21"><a xlink:href="InvariantEKFBaseEstimator_8h.html" target="_top" xlink:title=" ">
<polygon fill="none" stroke="black" points="884.5,-212.5 884.5,-264.5 1053.5,-264.5 1053.5,-212.5 884.5,-212.5"/>
<text text-anchor="start" x="892.5" y="-252.5" font-family="Helvetica,sans-Serif" font-size="10.00">Estimators/include</text>
<text text-anchor="start" x="892.5" y="-241.5" font-family="Helvetica,sans-Serif" font-size="10.00">/BipedalLocomotion/Floating</text>
<text text-anchor="start" x="892.5" y="-230.5" font-family="Helvetica,sans-Serif" font-size="10.00">BaseEstimators/InvariantEKFBase</text>
<text text-anchor="middle" x="969" y="-219.5" font-family="Helvetica,sans-Serif" font-size="10.00">Estimator.h</text>
</a>
</g>
</g>
<!-- Node20&#45;&gt;Node21 -->
<g id="edge24" class="edge">
<title>Node20&#45;&gt;Node21</title>
<path fill="none" stroke="midnightblue" d="M1089.78,-297.07C1068.34,-286.85 1043.31,-274.92 1021.61,-264.58"/>
<polygon fill="midnightblue" stroke="midnightblue" points="1088.51,-300.34 1099.04,-301.48 1091.52,-294.02 1088.51,-300.34"/>
</g>
<!-- Node23 -->
<g id="node23" class="node">
<title>Node23</title>
<g id="a_node23"><a xlink:href="LeggedOdometry_8h.html" target="_top" xlink:title=" ">
<polygon fill="none" stroke="black" points="1072,-218 1072,-259 1242,-259 1242,-218 1072,-218"/>
<text text-anchor="start" x="1080" y="-247" font-family="Helvetica,sans-Serif" font-size="10.00">Estimators/include</text>
<text text-anchor="start" x="1080" y="-236" font-family="Helvetica,sans-Serif" font-size="10.00">/BipedalLocomotion/Floating</text>
<text text-anchor="middle" x="1157" y="-225" font-family="Helvetica,sans-Serif" font-size="10.00">BaseEstimators/LeggedOdometry.h</text>
</a>
</g>
</g>
<!-- Node20&#45;&gt;Node23 -->
<g id="edge26" class="edge">
<title>Node20&#45;&gt;Node23</title>
<path fill="none" stroke="midnightblue" d="M1146.17,-291.4C1148.42,-280.63 1150.9,-268.73 1152.92,-259.05"/>
<polygon fill="midnightblue" stroke="midnightblue" points="1142.73,-290.77 1144.12,-301.27 1149.58,-292.2 1142.73,-290.77"/>
</g>
<!-- Node25 -->
<g id="node25" class="node">
<title>Node25</title>
<g id="a_node25"><a xlink:href="FloatingBaseEstimator_8cpp.html" target="_top" xlink:title=" ">
<polygon fill="none" stroke="black" points="1260,-223.5 1260,-253.5 1400,-253.5 1400,-223.5 1260,-223.5"/>
<text text-anchor="start" x="1268" y="-241.5" font-family="Helvetica,sans-Serif" font-size="10.00">Estimators/src/FloatingBase</text>
<text text-anchor="middle" x="1330" y="-230.5" font-family="Helvetica,sans-Serif" font-size="10.00">Estimator.cpp</text>
</a>
</g>
</g>
<!-- Node20&#45;&gt;Node25 -->
<g id="edge28" class="edge">
<title>Node20&#45;&gt;Node25</title>
<path fill="none" stroke="midnightblue" d="M1195.07,-297.38C1228.22,-283.16 1269.29,-265.54 1297.35,-253.5"/>
<polygon fill="midnightblue" stroke="midnightblue" points="1193.32,-294.32 1185.51,-301.48 1196.08,-300.75 1193.32,-294.32"/>
</g>
<!-- Node22 -->
<g id="node22" class="node">
<title>Node22</title>
<g id="a_node22"><a xlink:href="InvariantEKFBaseEstimator_8cpp.html" target="_top" xlink:title=" ">
<polygon fill="none" stroke="black" points="908.5,-145.5 908.5,-175.5 1029.5,-175.5 1029.5,-145.5 908.5,-145.5"/>
<text text-anchor="start" x="916.5" y="-163.5" font-family="Helvetica,sans-Serif" font-size="10.00">Estimators/src/Invariant</text>
<text text-anchor="middle" x="969" y="-152.5" font-family="Helvetica,sans-Serif" font-size="10.00">EKFBaseEstimator.cpp</text>
</a>
</g>
</g>
<!-- Node21&#45;&gt;Node22 -->
<g id="edge25" class="edge">
<title>Node21&#45;&gt;Node22</title>
<path fill="none" stroke="midnightblue" d="M969,-201.96C969,-192.72 969,-183.28 969,-175.85"/>
<polygon fill="midnightblue" stroke="midnightblue" points="965.5,-202.19 969,-212.19 972.5,-202.19 965.5,-202.19"/>
</g>
<!-- Node24 -->
<g id="node24" class="node">
<title>Node24</title>
<g id="a_node24"><a xlink:href="LeggedOdometry_8cpp.html" target="_top" xlink:title=" ">
<polygon fill="none" stroke="black" points="1069.5,-151 1069.5,-170 1244.5,-170 1244.5,-151 1069.5,-151"/>
<text text-anchor="middle" x="1157" y="-158" font-family="Helvetica,sans-Serif" font-size="10.00">Estimators/src/LeggedOdometry.cpp</text>
</a>
</g>
</g>
<!-- Node23&#45;&gt;Node24 -->
<g id="edge27" class="edge">
<title>Node23&#45;&gt;Node24</title>
<path fill="none" stroke="midnightblue" d="M1157,-207.55C1157,-194.06 1157,-179.15 1157,-170.05"/>
<polygon fill="midnightblue" stroke="midnightblue" points="1153.5,-207.93 1157,-217.93 1160.5,-207.93 1153.5,-207.93"/>
</g>
</g>
</svg>
        <g id="navigator" transform="translate(0 0)" fill="#404254">
                <rect fill="#f2f5e9" fill-opacity="0.5" stroke="#606060" stroke-width=".5" x="0" y="0" width="60" height="60"/>
                <use id="zoomplus" xlink:href="#zoomPlus" x="17" y="9" onmousedown="handleZoom(evt,'in')"/>
                <use id="zoomminus" xlink:href="#zoomMin" x="42" y="9" onmousedown="handleZoom(evt,'out')"/>
                <use id="reset" xlink:href="#resetDef" x="30" y="36" onmousedown="handleReset()"/>
                <g id="arrowUp" xlink:href="#dirArrow" transform="translate(30 24)" onmousedown="handlePan(0,-1)">
                  <use xlink:href="#rim" fill="#404040">
                        <set attributeName="fill" to="#808080" begin="arrowUp.mouseover" end="arrowUp.mouseout"/>
                  </use>
                  <path fill="none" stroke="white" stroke-width="1.5" d="M0,-3.0v7 M-2.5,-0.5L0,-3.0L2.5,-0.5"/>
                </g>
                <g id="arrowRight" xlink:href="#dirArrow" transform="rotate(90) translate(36 -43)" onmousedown="handlePan(1,0)">
                  <use xlink:href="#rim" fill="#404040">
                        <set attributeName="fill" to="#808080" begin="arrowRight.mouseover" end="arrowRight.mouseout"/>
                  </use>
                  <path fill="none" stroke="white" stroke-width="1.5" d="M0,-3.0v7 M-2.5,-0.5L0,-3.0L2.5,-0.5"/>
                </g>
                <g id="arrowDown" xlink:href="#dirArrow" transform="rotate(180) translate(-30 -48)" onmousedown="handlePan(0,1)">
                  <use xlink:href="#rim" fill="#404040">
                        <set attributeName="fill" to="#808080" begin="arrowDown.mouseover" end="arrowDown.mouseout"/>
                  </use>
                  <path fill="none" stroke="white" stroke-width="1.5" d="M0,-3.0v7 M-2.5,-0.5L0,-3.0L2.5,-0.5"/>
                </g>
                <g id="arrowLeft" xlink:href="#dirArrow" transform="rotate(270) translate(-36 17)" onmousedown="handlePan(-1,0)">
                  <use xlink:href="#rim" fill="#404040">
                        <set attributeName="fill" to="#808080" begin="arrowLeft.mouseover" end="arrowLeft.mouseout"/>
                  </use>
                  <path fill="none" stroke="white" stroke-width="1.5" d="M0,-3.0v7 M-2.5,-0.5L0,-3.0L2.5,-0.5"/>
                </g>
        </g>
        <svg viewBox="0 0 15 15" width="100%" height="30px" preserveAspectRatio="xMaxYMin meet">
         <g id="arrow_out" transform="scale(0.3 0.3)">
          <a xlink:href="Contact_8h__dep__incl_org.svg" target="_base">
           <rect id="button" ry="5" rx="5" y="6" x="6" height="38" width="38"
                fill="#f2f5e9" fill-opacity="0.5" stroke="#606060" stroke-width="1.0"/>
           <path id="arrow"
             d="M 11.500037,31.436501 C 11.940474,20.09759 22.043105,11.32322 32.158766,21.979434 L 37.068811,17.246167 C 37.068811,17.246167 37.088388,32 37.088388,32 L 22.160133,31.978069 C 22.160133,31.978069 26.997745,27.140456 26.997745,27.140456 C 18.528582,18.264221 13.291696,25.230495 11.500037,31.436501 z"
             style="fill:#404040;"/>
          </a>
         </g>
        </svg>
</svg>
