<?xml version="1.0" encoding="UTF-8" standalone="no"?>
<!DOCTYPE svg PUBLIC "-//W3C//DTD SVG 1.1//EN"
 "http://www.w3.org/Graphics/SVG/1.1/DTD/svg11.dtd">
<!-- Generated by graphviz version 2.43.0 (0)
 -->
<!-- Title: Contacts/include/BipedalLocomotion/ContactDetectors/ContactDetector.h Pages: 1 -->
<svg width="340pt" height="195pt"
 viewBox="0.00 0.00 339.50 195.00" xmlns="http://www.w3.org/2000/svg" xmlns:xlink="http://www.w3.org/1999/xlink">
<g id="graph0" class="graph" transform="scale(1 1) rotate(0) translate(4 191)">
<title>Contacts/include/BipedalLocomotion/ContactDetectors/ContactDetector.h</title>
<!-- Node1 -->
<g id="node1" class="node">
<title>Node1</title>
<g id="a_node1"><a xlink:title=" ">
<polygon fill="#bfbfbf" stroke="black" points="87,-145.5 87,-186.5 234,-186.5 234,-145.5 87,-145.5"/>
<text text-anchor="start" x="95" y="-174.5" font-family="Helvetica,sans-Serif" font-size="10.00">Contacts/include/Bipedal</text>
<text text-anchor="start" x="95" y="-163.5" font-family="Helvetica,sans-Serif" font-size="10.00">Locomotion/ContactDetectors</text>
<text text-anchor="middle" x="160.5" y="-152.5" font-family="Helvetica,sans-Serif" font-size="10.00">/ContactDetector.h</text>
</a>
</g>
</g>
<!-- Node2 -->
<g id="node2" class="node">
<title>Node2</title>
<g id="a_node2"><a xlink:href="SchmittTriggerDetector_8h.html" target="_top" xlink:title=" ">
<polygon fill="none" stroke="black" points="0,-67.5 0,-108.5 147,-108.5 147,-67.5 0,-67.5"/>
<text text-anchor="start" x="8" y="-96.5" font-family="Helvetica,sans-Serif" font-size="10.00">Contacts/include/Bipedal</text>
<text text-anchor="start" x="8" y="-85.5" font-family="Helvetica,sans-Serif" font-size="10.00">Locomotion/ContactDetectors</text>
<text text-anchor="middle" x="73.5" y="-74.5" font-family="Helvetica,sans-Serif" font-size="10.00">/SchmittTriggerDetector.h</text>
</a>
</g>
</g>
<!-- Node1&#45;&gt;Node2 -->
<g id="edge1" class="edge">
<title>Node1&#45;&gt;Node2</title>
<path fill="none" stroke="midnightblue" d="M130.48,-138.78C119.11,-128.84 106.37,-117.72 95.83,-108.51"/>
<polygon fill="midnightblue" stroke="midnightblue" points="128.26,-141.49 138.1,-145.43 132.87,-136.21 128.26,-141.49"/>
</g>
<!-- Node4 -->
<g id="node4" class="node">
<title>Node4</title>
<g id="a_node4"><a xlink:href="ContactDetector_8cpp.html" target="_top" xlink:title=" ">
<polygon fill="none" stroke="black" points="165.5,-78.5 165.5,-97.5 331.5,-97.5 331.5,-78.5 165.5,-78.5"/>
<text text-anchor="middle" x="248.5" y="-85.5" font-family="Helvetica,sans-Serif" font-size="10.00">Contacts/src/ContactDetector.cpp</text>
</a>
</g>
</g>
<!-- Node1&#45;&gt;Node4 -->
<g id="edge3" class="edge">
<title>Node1&#45;&gt;Node4</title>
<path fill="none" stroke="midnightblue" d="M191.05,-138.62C207.67,-124.26 227.13,-107.46 238.6,-97.55"/>
<polygon fill="midnightblue" stroke="midnightblue" points="188.44,-136.24 183.16,-145.43 193.02,-141.54 188.44,-136.24"/>
</g>
<!-- Node3 -->
<g id="node3" class="node">
<title>Node3</title>
<g id="a_node3"><a xlink:href="SchmittTriggerDetector_8cpp.html" target="_top" xlink:title=" ">
<polygon fill="none" stroke="black" points="3.5,-0.5 3.5,-30.5 143.5,-30.5 143.5,-0.5 3.5,-0.5"/>
<text text-anchor="start" x="11.5" y="-18.5" font-family="Helvetica,sans-Serif" font-size="10.00">Contacts/src/SchmittTrigger</text>
<text text-anchor="middle" x="73.5" y="-7.5" font-family="Helvetica,sans-Serif" font-size="10.00">Detector.cpp</text>
</a>
</g>
</g>
<!-- Node2&#45;&gt;Node3 -->
<g id="edge2" class="edge">
<title>Node2&#45;&gt;Node3</title>
<path fill="none" stroke="midnightblue" d="M73.5,-57.08C73.5,-48.01 73.5,-38.45 73.5,-30.89"/>
<polygon fill="midnightblue" stroke="midnightblue" points="70,-57.36 73.5,-67.36 77,-57.36 70,-57.36"/>
</g>
</g>
</svg>
