<?xml version="1.0" encoding="UTF-8" standalone="no"?>
<!DOCTYPE svg PUBLIC "-//W3C//DTD SVG 1.1//EN"
 "http://www.w3.org/Graphics/SVG/1.1/DTD/svg11.dtd">
<!-- Generated by graphviz version 2.43.0 (0)
 -->
<!-- Title: Contacts/include/BipedalLocomotion/Contacts/Contact.h Pages: 1 -->
<svg width="163pt" height="95pt"
 viewBox="0.00 0.00 163.00 95.00" xmlns="http://www.w3.org/2000/svg" xmlns:xlink="http://www.w3.org/1999/xlink">
<g id="graph0" class="graph" transform="scale(1 1) rotate(0) translate(4 91)">
<title>Contacts/include/BipedalLocomotion/Contacts/Contact.h</title>
<!-- Node1 -->
<g id="node1" class="node">
<title>Node1</title>
<g id="a_node1"><a xlink:title=" ">
<polygon fill="#bfbfbf" stroke="black" points="0,-56.5 0,-86.5 155,-86.5 155,-56.5 0,-56.5"/>
<text text-anchor="start" x="8" y="-74.5" font-family="Helvetica,sans-Serif" font-size="10.00">Contacts/include/Bipedal</text>
<text text-anchor="middle" x="77.5" y="-63.5" font-family="Helvetica,sans-Serif" font-size="10.00">Locomotion/Contacts/Contact.h</text>
</a>
</g>
</g>
<!-- Node2 -->
<g id="node2" class="node">
<title>Node2</title>
<g id="a_node2"><a xlink:title=" ">
<polygon fill="none" stroke="#bfbfbf" points="5,-0.5 5,-19.5 76,-19.5 76,-0.5 5,-0.5"/>
<text text-anchor="middle" x="40.5" y="-7.5" font-family="Helvetica,sans-Serif" font-size="10.00">manif/SE3.h</text>
</a>
</g>
</g>
<!-- Node1&#45;&gt;Node2 -->
<g id="edge1" class="edge">
<title>Node1&#45;&gt;Node2</title>
<path fill="none" stroke="midnightblue" d="M68.73,-56.4C63.52,-48.02 56.87,-37.33 51.33,-28.42"/>
<polygon fill="midnightblue" stroke="midnightblue" points="54.14,-26.3 45.88,-19.66 48.19,-30 54.14,-26.3"/>
</g>
<!-- Node3 -->
<g id="node3" class="node">
<title>Node3</title>
<g id="a_node3"><a xlink:title=" ">
<polygon fill="none" stroke="#bfbfbf" points="94,-0.5 94,-19.5 135,-19.5 135,-0.5 94,-0.5"/>
<text text-anchor="middle" x="114.5" y="-7.5" font-family="Helvetica,sans-Serif" font-size="10.00">string</text>
</a>
</g>
</g>
<!-- Node1&#45;&gt;Node3 -->
<g id="edge2" class="edge">
<title>Node1&#45;&gt;Node3</title>
<path fill="none" stroke="midnightblue" d="M86.27,-56.4C91.48,-48.02 98.13,-37.33 103.67,-28.42"/>
<polygon fill="midnightblue" stroke="midnightblue" points="106.81,-30 109.12,-19.66 100.86,-26.3 106.81,-30"/>
</g>
</g>
</svg>
