<?xml version="1.0" encoding="UTF-8" standalone="no"?>
<!DOCTYPE svg PUBLIC "-//W3C//DTD SVG 1.1//EN"
 "http://www.w3.org/Graphics/SVG/1.1/DTD/svg11.dtd">
<!-- Generated by graphviz version 2.43.0 (0)
 -->
<!-- Title: Planners/include/BipedalLocomotion/Planners/ConvexHullHelper.h Pages: 1 -->
<svg width="214pt" height="106pt"
 viewBox="0.00 0.00 213.50 106.00" xmlns="http://www.w3.org/2000/svg" xmlns:xlink="http://www.w3.org/1999/xlink">
<g id="graph0" class="graph" transform="scale(1 1) rotate(0) translate(4 102)">
<title>Planners/include/BipedalLocomotion/Planners/ConvexHullHelper.h</title>
<!-- Node1 -->
<g id="node1" class="node">
<title>Node1</title>
<g id="a_node1"><a xlink:title=" ">
<polygon fill="#bfbfbf" stroke="black" points="32.5,-56.5 32.5,-97.5 194.5,-97.5 194.5,-56.5 32.5,-56.5"/>
<text text-anchor="start" x="40.5" y="-85.5" font-family="Helvetica,sans-Serif" font-size="10.00">Planners/include/Bipedal</text>
<text text-anchor="start" x="40.5" y="-74.5" font-family="Helvetica,sans-Serif" font-size="10.00">Locomotion/Planners/ConvexHull</text>
<text text-anchor="middle" x="113.5" y="-63.5" font-family="Helvetica,sans-Serif" font-size="10.00">Helper.h</text>
</a>
</g>
</g>
<!-- Node2 -->
<g id="node2" class="node">
<title>Node2</title>
<g id="a_node2"><a xlink:title=" ">
<polygon fill="none" stroke="#bfbfbf" points="0,-0.5 0,-19.5 73,-19.5 73,-0.5 0,-0.5"/>
<text text-anchor="middle" x="36.5" y="-7.5" font-family="Helvetica,sans-Serif" font-size="10.00">Eigen/Dense</text>
</a>
</g>
</g>
<!-- Node1&#45;&gt;Node2 -->
<g id="edge1" class="edge">
<title>Node1&#45;&gt;Node2</title>
<path fill="none" stroke="midnightblue" d="M90.4,-56.5C78.93,-46.82 65.29,-35.3 54.59,-26.27"/>
<polygon fill="midnightblue" stroke="midnightblue" points="56.65,-23.43 46.75,-19.65 52.13,-28.78 56.65,-23.43"/>
</g>
<!-- Node3 -->
<g id="node3" class="node">
<title>Node3</title>
<g id="a_node3"><a xlink:title=" ">
<polygon fill="none" stroke="#bfbfbf" points="91.5,-0.5 91.5,-19.5 135.5,-19.5 135.5,-0.5 91.5,-0.5"/>
<text text-anchor="middle" x="113.5" y="-7.5" font-family="Helvetica,sans-Serif" font-size="10.00">vector</text>
</a>
</g>
</g>
<!-- Node1&#45;&gt;Node3 -->
<g id="edge2" class="edge">
<title>Node1&#45;&gt;Node3</title>
<path fill="none" stroke="midnightblue" d="M113.5,-56.5C113.5,-48.07 113.5,-38.24 113.5,-29.87"/>
<polygon fill="midnightblue" stroke="midnightblue" points="117,-29.65 113.5,-19.65 110,-29.65 117,-29.65"/>
</g>
<!-- Node4 -->
<g id="node4" class="node">
<title>Node4</title>
<g id="a_node4"><a xlink:title=" ">
<polygon fill="none" stroke="#bfbfbf" points="153.5,-0.5 153.5,-19.5 205.5,-19.5 205.5,-0.5 153.5,-0.5"/>
<text text-anchor="middle" x="179.5" y="-7.5" font-family="Helvetica,sans-Serif" font-size="10.00">memory</text>
</a>
</g>
</g>
<!-- Node1&#45;&gt;Node4 -->
<g id="edge3" class="edge">
<title>Node1&#45;&gt;Node4</title>
<path fill="none" stroke="midnightblue" d="M133.3,-56.5C142.93,-47.01 154.36,-35.76 163.44,-26.81"/>
<polygon fill="midnightblue" stroke="midnightblue" points="166.05,-29.16 170.71,-19.65 161.13,-24.18 166.05,-29.16"/>
</g>
</g>
</svg>
