<?xml version="1.0" encoding="UTF-8" standalone="no"?>
<!DOCTYPE svg PUBLIC "-//W3C//DTD SVG 1.1//EN"
 "http://www.w3.org/Graphics/SVG/1.1/DTD/svg11.dtd">
<!-- Generated by graphviz version 2.43.0 (0)
 -->
<!-- Title: Planners/include/BipedalLocomotion/Planners/ConvexHullHelper.h Pages: 1 -->
<svg width="326pt" height="117pt"
 viewBox="0.00 0.00 326.00 117.00" xmlns="http://www.w3.org/2000/svg" xmlns:xlink="http://www.w3.org/1999/xlink">
<g id="graph0" class="graph" transform="scale(1 1) rotate(0) translate(4 113)">
<title>Planners/include/BipedalLocomotion/Planners/ConvexHullHelper.h</title>
<!-- Node1 -->
<g id="node1" class="node">
<title>Node1</title>
<g id="a_node1"><a xlink:title=" ">
<polygon fill="#bfbfbf" stroke="black" points="89,-67.5 89,-108.5 251,-108.5 251,-67.5 89,-67.5"/>
<text text-anchor="start" x="97" y="-96.5" font-family="Helvetica,sans-Serif" font-size="10.00">Planners/include/Bipedal</text>
<text text-anchor="start" x="97" y="-85.5" font-family="Helvetica,sans-Serif" font-size="10.00">Locomotion/Planners/ConvexHull</text>
<text text-anchor="middle" x="170" y="-74.5" font-family="Helvetica,sans-Serif" font-size="10.00">Helper.h</text>
</a>
</g>
</g>
<!-- Node2 -->
<g id="node2" class="node">
<title>Node2</title>
<g id="a_node2"><a xlink:href="ConvexHullHelper_8cpp.html" target="_top" xlink:title=" ">
<polygon fill="none" stroke="black" points="0,-6 0,-25 172,-25 172,-6 0,-6"/>
<text text-anchor="middle" x="86" y="-13" font-family="Helvetica,sans-Serif" font-size="10.00">Planners/src/ConvexHullHelper.cpp</text>
</a>
</g>
</g>
<!-- Node1&#45;&gt;Node2 -->
<g id="edge1" class="edge">
<title>Node1&#45;&gt;Node2</title>
<path fill="none" stroke="midnightblue" d="M138.56,-60.62C123.65,-48.1 106.84,-33.99 96.33,-25.17"/>
<polygon fill="midnightblue" stroke="midnightblue" points="136.69,-63.61 146.6,-67.36 141.19,-58.25 136.69,-63.61"/>
</g>
<!-- Node3 -->
<g id="node3" class="node">
<title>Node3</title>
<g id="a_node3"><a xlink:href="TimeVaryingDCMPlanner_8cpp.html" target="_top" xlink:title=" ">
<polygon fill="none" stroke="black" points="190,-0.5 190,-30.5 318,-30.5 318,-0.5 190,-0.5"/>
<text text-anchor="start" x="198" y="-18.5" font-family="Helvetica,sans-Serif" font-size="10.00">Planners/src/TimeVarying</text>
<text text-anchor="middle" x="254" y="-7.5" font-family="Helvetica,sans-Serif" font-size="10.00">DCMPlanner.cpp</text>
</a>
</g>
</g>
<!-- Node1&#45;&gt;Node3 -->
<g id="edge2" class="edge">
<title>Node1&#45;&gt;Node3</title>
<path fill="none" stroke="midnightblue" d="M201.16,-60.84C213.34,-50.62 226.82,-39.31 237.12,-30.67"/>
<polygon fill="midnightblue" stroke="midnightblue" points="198.81,-58.25 193.4,-67.36 203.31,-63.61 198.81,-58.25"/>
</g>
</g>
</svg>
