<?xml version="1.0" encoding="UTF-8" standalone="no"?>
<!DOCTYPE svg PUBLIC "-//W3C//DTD SVG 1.1//EN"
 "http://www.w3.org/Graphics/SVG/1.1/DTD/svg11.dtd">
<!-- Generated by graphviz version 2.43.0 (0)
 -->
<!-- Title: AutoDiff/include/BipedalLocomotion/AutoDiff/CppAD.h Pages: 1 -->
<svg width="321pt" height="106pt"
 viewBox="0.00 0.00 320.50 106.00" xmlns="http://www.w3.org/2000/svg" xmlns:xlink="http://www.w3.org/1999/xlink">
<g id="graph0" class="graph" transform="scale(1 1) rotate(0) translate(4 102)">
<title>AutoDiff/include/BipedalLocomotion/AutoDiff/CppAD.h</title>
<!-- Node1 -->
<g id="node1" class="node">
<title>Node1</title>
<g id="a_node1"><a xlink:title=" ">
<polygon fill="#bfbfbf" stroke="black" points="62,-67.5 62,-97.5 211,-97.5 211,-67.5 62,-67.5"/>
<text text-anchor="start" x="70" y="-85.5" font-family="Helvetica,sans-Serif" font-size="10.00">AutoDiff/include/Bipedal</text>
<text text-anchor="middle" x="136.5" y="-74.5" font-family="Helvetica,sans-Serif" font-size="10.00">Locomotion/AutoDiff/CppAD.h</text>
</a>
</g>
</g>
<!-- Node2 -->
<g id="node2" class="node">
<title>Node2</title>
<g id="a_node2"><a xlink:title=" ">
<polygon fill="none" stroke="#bfbfbf" points="0,-6 0,-25 73,-25 73,-6 0,-6"/>
<text text-anchor="middle" x="36.5" y="-13" font-family="Helvetica,sans-Serif" font-size="10.00">Eigen/Dense</text>
</a>
</g>
</g>
<!-- Node1&#45;&gt;Node2 -->
<g id="edge1" class="edge">
<title>Node1&#45;&gt;Node2</title>
<path fill="none" stroke="midnightblue" d="M114.8,-67.4C98.03,-56.5 74.93,-41.48 58.17,-30.58"/>
<polygon fill="midnightblue" stroke="midnightblue" points="59.88,-27.52 49.59,-25.01 56.06,-33.39 59.88,-27.52"/>
</g>
<!-- Node3 -->
<g id="node3" class="node">
<title>Node3</title>
<g id="a_node3"><a xlink:title=" ">
<polygon fill="none" stroke="#bfbfbf" points="91,-6 91,-25 182,-25 182,-6 91,-6"/>
<text text-anchor="middle" x="136.5" y="-13" font-family="Helvetica,sans-Serif" font-size="10.00">cppad/cppad.hpp</text>
</a>
</g>
</g>
<!-- Node1&#45;&gt;Node3 -->
<g id="edge2" class="edge">
<title>Node1&#45;&gt;Node3</title>
<path fill="none" stroke="midnightblue" d="M136.5,-67.4C136.5,-58.06 136.5,-45.71 136.5,-35.52"/>
<polygon fill="midnightblue" stroke="midnightblue" points="140,-35.19 136.5,-25.19 133,-35.19 140,-35.19"/>
</g>
<!-- Node4 -->
<g id="node4" class="node">
<title>Node4</title>
<g id="a_node4"><a xlink:title=" ">
<polygon fill="none" stroke="#bfbfbf" points="200.5,-0.5 200.5,-30.5 312.5,-30.5 312.5,-0.5 200.5,-0.5"/>
<text text-anchor="start" x="208.5" y="-18.5" font-family="Helvetica,sans-Serif" font-size="10.00">cppad/example/cppad</text>
<text text-anchor="middle" x="256.5" y="-7.5" font-family="Helvetica,sans-Serif" font-size="10.00">_eigen.hpp</text>
</a>
</g>
</g>
<!-- Node1&#45;&gt;Node4 -->
<g id="edge3" class="edge">
<title>Node1&#45;&gt;Node4</title>
<path fill="none" stroke="midnightblue" d="M162.54,-67.4C179.84,-58.03 202.75,-45.62 221.62,-35.39"/>
<polygon fill="midnightblue" stroke="midnightblue" points="223.39,-38.42 230.51,-30.58 220.05,-32.26 223.39,-38.42"/>
</g>
</g>
</svg>
