<?xml version="1.0" encoding="UTF-8" standalone="no"?>
<!DOCTYPE svg PUBLIC "-//W3C//DTD SVG 1.1//EN"
 "http://www.w3.org/Graphics/SVG/1.1/DTD/svg11.dtd">
<!-- Generated by graphviz version 2.43.0 (0)
 -->
<!-- Title: Planners/include/BipedalLocomotion/Planners/DCMPlanner.h Pages: 1 -->
<svg width="974pt" height="363pt"
 viewBox="0.00 0.00 974.00 363.00" xmlns="http://www.w3.org/2000/svg" xmlns:xlink="http://www.w3.org/1999/xlink">
<g id="graph0" class="graph" transform="scale(1 1) rotate(0) translate(4 359)">
<title>Planners/include/BipedalLocomotion/Planners/DCMPlanner.h</title>
<!-- Node1 -->
<g id="node1" class="node">
<title>Node1</title>
<g id="a_node1"><a xlink:title=" ">
<polygon fill="#bfbfbf" stroke="black" points="561.5,-324.5 561.5,-354.5 736.5,-354.5 736.5,-324.5 561.5,-324.5"/>
<text text-anchor="start" x="569.5" y="-342.5" font-family="Helvetica,sans-Serif" font-size="10.00">Planners/include/Bipedal</text>
<text text-anchor="middle" x="649" y="-331.5" font-family="Helvetica,sans-Serif" font-size="10.00">Locomotion/Planners/DCMPlanner.h</text>
</a>
</g>
</g>
<!-- Node2 -->
<g id="node2" class="node">
<title>Node2</title>
<g id="a_node2"><a xlink:title=" ">
<polygon fill="none" stroke="#bfbfbf" points="0,-129 0,-148 52,-148 52,-129 0,-129"/>
<text text-anchor="middle" x="26" y="-136" font-family="Helvetica,sans-Serif" font-size="10.00">memory</text>
</a>
</g>
</g>
<!-- Node1&#45;&gt;Node2 -->
<g id="edge1" class="edge">
<title>Node1&#45;&gt;Node2</title>
<path fill="none" stroke="midnightblue" d="M561.45,-331.42C455.53,-320.02 274.12,-291.24 135,-221 99.22,-202.93 63,-173.03 42.63,-154.9"/>
<polygon fill="midnightblue" stroke="midnightblue" points="44.92,-152.26 35.16,-148.14 40.23,-157.45 44.92,-152.26"/>
</g>
<!-- Node3 -->
<g id="node3" class="node">
<title>Node3</title>
<g id="a_node3"><a xlink:title=" ">
<polygon fill="none" stroke="#bfbfbf" points="738.5,-263 738.5,-282 811.5,-282 811.5,-263 738.5,-263"/>
<text text-anchor="middle" x="775" y="-270" font-family="Helvetica,sans-Serif" font-size="10.00">Eigen/Dense</text>
</a>
</g>
</g>
<!-- Node1&#45;&gt;Node3 -->
<g id="edge2" class="edge">
<title>Node1&#45;&gt;Node3</title>
<path fill="none" stroke="midnightblue" d="M676.34,-324.4C698.06,-313.19 728.2,-297.64 749.44,-286.69"/>
<polygon fill="midnightblue" stroke="midnightblue" points="751.23,-289.7 758.51,-282.01 748.02,-283.48 751.23,-289.7"/>
</g>
<!-- Node4 -->
<g id="node4" class="node">
<title>Node4</title>
<g id="a_node4"><a xlink:href="IParametersHandler_8h.html" target="_top" xlink:title=" ">
<polygon fill="none" stroke="black" points="366,-257.5 366,-287.5 518,-287.5 518,-257.5 366,-257.5"/>
<text text-anchor="start" x="374" y="-275.5" font-family="Helvetica,sans-Serif" font-size="10.00">BipedalLocomotion/Parameters</text>
<text text-anchor="middle" x="442" y="-264.5" font-family="Helvetica,sans-Serif" font-size="10.00">Handler/IParametersHandler.h</text>
</a>
</g>
</g>
<!-- Node1&#45;&gt;Node4 -->
<g id="edge3" class="edge">
<title>Node1&#45;&gt;Node4</title>
<path fill="none" stroke="midnightblue" d="M604.34,-324.48C572.75,-314.56 530.22,-301.2 496.61,-290.65"/>
<polygon fill="midnightblue" stroke="midnightblue" points="497.53,-287.27 486.94,-287.61 495.43,-293.95 497.53,-287.27"/>
</g>
<!-- Node16 -->
<g id="node16" class="node">
<title>Node16</title>
<g id="a_node16"><a xlink:href="ContactPhaseList_8h_source.html" target="_top" xlink:title=" ">
<polygon fill="none" stroke="black" points="578,-257.5 578,-287.5 720,-287.5 720,-257.5 578,-257.5"/>
<text text-anchor="start" x="586" y="-275.5" font-family="Helvetica,sans-Serif" font-size="10.00">BipedalLocomotion/Contacts</text>
<text text-anchor="middle" x="649" y="-264.5" font-family="Helvetica,sans-Serif" font-size="10.00">/ContactPhaseList.h</text>
</a>
</g>
</g>
<!-- Node1&#45;&gt;Node16 -->
<g id="edge18" class="edge">
<title>Node1&#45;&gt;Node16</title>
<path fill="none" stroke="midnightblue" d="M649,-324.4C649,-316.64 649,-306.81 649,-297.86"/>
<polygon fill="midnightblue" stroke="midnightblue" points="652.5,-297.58 649,-287.58 645.5,-297.58 652.5,-297.58"/>
</g>
<!-- Node25 -->
<g id="node25" class="node">
<title>Node25</title>
<g id="a_node25"><a xlink:href="Advanceable_8h.html" target="_top" xlink:title=" ">
<polygon fill="none" stroke="black" points="830,-257.5 830,-287.5 966,-287.5 966,-257.5 830,-257.5"/>
<text text-anchor="start" x="838" y="-275.5" font-family="Helvetica,sans-Serif" font-size="10.00">BipedalLocomotion/System</text>
<text text-anchor="middle" x="898" y="-264.5" font-family="Helvetica,sans-Serif" font-size="10.00">/Advanceable.h</text>
</a>
</g>
</g>
<!-- Node1&#45;&gt;Node25 -->
<g id="edge36" class="edge">
<title>Node1&#45;&gt;Node25</title>
<path fill="none" stroke="midnightblue" d="M702.72,-324.48C741.29,-314.41 793.42,-300.8 834.12,-290.17"/>
<polygon fill="midnightblue" stroke="midnightblue" points="835.15,-293.52 843.94,-287.61 833.38,-286.75 835.15,-293.52"/>
</g>
<!-- Node4&#45;&gt;Node2 -->
<g id="edge4" class="edge">
<title>Node4&#45;&gt;Node2</title>
<path fill="none" stroke="midnightblue" d="M365.85,-257.59C322.59,-248.85 267.7,-236.32 220,-221 158.54,-201.26 89.49,-169.94 52.61,-152.43"/>
<polygon fill="midnightblue" stroke="midnightblue" points="54.06,-149.24 43.53,-148.09 51.04,-155.56 54.06,-149.24"/>
</g>
<!-- Node5 -->
<g id="node5" class="node">
<title>Node5</title>
<g id="a_node5"><a xlink:title=" ">
<polygon fill="none" stroke="#bfbfbf" points="659.5,-0.5 659.5,-19.5 700.5,-19.5 700.5,-0.5 659.5,-0.5"/>
<text text-anchor="middle" x="680" y="-7.5" font-family="Helvetica,sans-Serif" font-size="10.00">string</text>
</a>
</g>
</g>
<!-- Node4&#45;&gt;Node5 -->
<g id="edge5" class="edge">
<title>Node4&#45;&gt;Node5</title>
<path fill="none" stroke="midnightblue" d="M449.72,-257.36C470.4,-220.48 530.32,-119.85 602,-56 616.6,-43 635.54,-31.96 651.11,-24.07"/>
<polygon fill="midnightblue" stroke="midnightblue" points="652.85,-27.12 660.29,-19.58 649.77,-20.83 652.85,-27.12"/>
</g>
<!-- Node6 -->
<g id="node6" class="node">
<title>Node6</title>
<g id="a_node6"><a xlink:title=" ">
<polygon fill="none" stroke="#bfbfbf" points="545,-196 545,-215 589,-215 589,-196 545,-196"/>
<text text-anchor="middle" x="567" y="-203" font-family="Helvetica,sans-Serif" font-size="10.00">vector</text>
</a>
</g>
</g>
<!-- Node4&#45;&gt;Node6 -->
<g id="edge6" class="edge">
<title>Node4&#45;&gt;Node6</title>
<path fill="none" stroke="midnightblue" d="M469.12,-257.4C490.67,-246.19 520.57,-230.64 541.64,-219.69"/>
<polygon fill="midnightblue" stroke="midnightblue" points="543.38,-222.73 550.64,-215.01 540.15,-216.52 543.38,-222.73"/>
</g>
<!-- Node7 -->
<g id="node7" class="node">
<title>Node7</title>
<g id="a_node7"><a xlink:href="Vector_8h_source.html" target="_top" xlink:title=" ">
<polygon fill="none" stroke="black" points="229,-190.5 229,-220.5 365,-220.5 365,-190.5 229,-190.5"/>
<text text-anchor="start" x="237" y="-208.5" font-family="Helvetica,sans-Serif" font-size="10.00">BipedalLocomotion/Generic</text>
<text text-anchor="middle" x="297" y="-197.5" font-family="Helvetica,sans-Serif" font-size="10.00">Container/Vector.h</text>
</a>
</g>
</g>
<!-- Node4&#45;&gt;Node7 -->
<g id="edge7" class="edge">
<title>Node4&#45;&gt;Node7</title>
<path fill="none" stroke="midnightblue" d="M410.54,-257.4C389.16,-247.81 360.69,-235.05 337.6,-224.7"/>
<polygon fill="midnightblue" stroke="midnightblue" points="338.96,-221.47 328.4,-220.58 336.09,-227.86 338.96,-221.47"/>
</g>
<!-- Node9 -->
<g id="node9" class="node">
<title>Node9</title>
<g id="a_node9"><a xlink:href="TemplateHelpers_8h_source.html" target="_top" xlink:title=" ">
<polygon fill="none" stroke="black" points="342.5,-123.5 342.5,-153.5 485.5,-153.5 485.5,-123.5 342.5,-123.5"/>
<text text-anchor="start" x="350.5" y="-141.5" font-family="Helvetica,sans-Serif" font-size="10.00">BipedalLocomotion/Generic</text>
<text text-anchor="middle" x="414" y="-130.5" font-family="Helvetica,sans-Serif" font-size="10.00">Container/TemplateHelpers.h</text>
</a>
</g>
</g>
<!-- Node4&#45;&gt;Node9 -->
<g id="edge17" class="edge">
<title>Node4&#45;&gt;Node9</title>
<path fill="none" stroke="midnightblue" d="M439,-257.37C434.25,-234.94 424.91,-190.92 419.09,-163.49"/>
<polygon fill="midnightblue" stroke="midnightblue" points="422.47,-162.58 416.97,-153.52 415.63,-164.03 422.47,-162.58"/>
</g>
<!-- Node7&#45;&gt;Node2 -->
<g id="edge16" class="edge">
<title>Node7&#45;&gt;Node2</title>
<path fill="none" stroke="midnightblue" d="M228.76,-193.3C181.17,-184.66 116.51,-171.28 61,-154 58.86,-153.33 56.66,-152.59 54.47,-151.79"/>
<polygon fill="midnightblue" stroke="midnightblue" points="55.61,-148.48 45.02,-148.12 53.07,-155 55.61,-148.48"/>
</g>
<!-- Node8 -->
<g id="node8" class="node">
<title>Node8</title>
<g id="a_node8"><a xlink:title=" ">
<polygon fill="none" stroke="#bfbfbf" points="70,-129 70,-148 184,-148 184,-129 70,-129"/>
<text text-anchor="middle" x="127" y="-136" font-family="Helvetica,sans-Serif" font-size="10.00">iDynTree/Core/Span.h</text>
</a>
</g>
</g>
<!-- Node7&#45;&gt;Node8 -->
<g id="edge8" class="edge">
<title>Node7&#45;&gt;Node8</title>
<path fill="none" stroke="midnightblue" d="M260.11,-190.4C229.89,-178.84 187.56,-162.66 158.81,-151.66"/>
<polygon fill="midnightblue" stroke="midnightblue" points="159.84,-148.31 149.25,-148.01 157.34,-154.85 159.84,-148.31"/>
</g>
<!-- Node7&#45;&gt;Node9 -->
<g id="edge9" class="edge">
<title>Node7&#45;&gt;Node9</title>
<path fill="none" stroke="midnightblue" d="M322.39,-190.4C339.18,-181.07 361.39,-168.73 379.74,-158.53"/>
<polygon fill="midnightblue" stroke="midnightblue" points="381.62,-161.49 388.66,-153.58 378.22,-155.37 381.62,-161.49"/>
</g>
<!-- Node13 -->
<g id="node13" class="node">
<title>Node13</title>
<g id="a_node13"><a xlink:title=" ">
<polygon fill="none" stroke="#bfbfbf" points="464.5,-62 464.5,-81 523.5,-81 523.5,-62 464.5,-62"/>
<text text-anchor="middle" x="494" y="-69" font-family="Helvetica,sans-Serif" font-size="10.00">functional</text>
</a>
</g>
</g>
<!-- Node7&#45;&gt;Node13 -->
<g id="edge13" class="edge">
<title>Node7&#45;&gt;Node13</title>
<path fill="none" stroke="midnightblue" d="M365.08,-195.98C415.5,-188.11 478.09,-174.5 494,-154 507.86,-136.14 504.42,-108.84 499.88,-90.83"/>
<polygon fill="midnightblue" stroke="midnightblue" points="503.24,-89.86 497.12,-81.21 496.51,-91.79 503.24,-89.86"/>
</g>
<!-- Node14 -->
<g id="node14" class="node">
<title>Node14</title>
<g id="a_node14"><a xlink:title=" ">
<polygon fill="none" stroke="#bfbfbf" points="202.5,-129 202.5,-148 251.5,-148 251.5,-129 202.5,-129"/>
<text text-anchor="middle" x="227" y="-136" font-family="Helvetica,sans-Serif" font-size="10.00">cassert</text>
</a>
</g>
</g>
<!-- Node7&#45;&gt;Node14 -->
<g id="edge14" class="edge">
<title>Node7&#45;&gt;Node14</title>
<path fill="none" stroke="midnightblue" d="M281.81,-190.4C270.68,-180.06 255.56,-166.02 244.03,-155.31"/>
<polygon fill="midnightblue" stroke="midnightblue" points="246.07,-152.43 236.36,-148.19 241.31,-157.56 246.07,-152.43"/>
</g>
<!-- Node15 -->
<g id="node15" class="node">
<title>Node15</title>
<g id="a_node15"><a xlink:title=" ">
<polygon fill="none" stroke="#bfbfbf" points="270,-129 270,-148 324,-148 324,-129 270,-129"/>
<text text-anchor="middle" x="297" y="-136" font-family="Helvetica,sans-Serif" font-size="10.00">iostream</text>
</a>
</g>
</g>
<!-- Node7&#45;&gt;Node15 -->
<g id="edge15" class="edge">
<title>Node7&#45;&gt;Node15</title>
<path fill="none" stroke="midnightblue" d="M297,-190.4C297,-181.06 297,-168.71 297,-158.52"/>
<polygon fill="midnightblue" stroke="midnightblue" points="300.5,-158.19 297,-148.19 293.5,-158.19 300.5,-158.19"/>
</g>
<!-- Node10 -->
<g id="node10" class="node">
<title>Node10</title>
<g id="a_node10"><a xlink:title=" ">
<polygon fill="none" stroke="#bfbfbf" points="384,-62 384,-81 446,-81 446,-62 384,-62"/>
<text text-anchor="middle" x="415" y="-69" font-family="Helvetica,sans-Serif" font-size="10.00">type_traits</text>
</a>
</g>
</g>
<!-- Node9&#45;&gt;Node10 -->
<g id="edge10" class="edge">
<title>Node9&#45;&gt;Node10</title>
<path fill="none" stroke="midnightblue" d="M414.22,-123.4C414.36,-114.06 414.55,-101.71 414.71,-91.52"/>
<polygon fill="midnightblue" stroke="midnightblue" points="418.21,-91.25 414.87,-81.19 411.21,-91.14 418.21,-91.25"/>
</g>
<!-- Node11 -->
<g id="node11" class="node">
<title>Node11</title>
<g id="a_node11"><a xlink:title=" ">
<polygon fill="none" stroke="#bfbfbf" points="216,-62 216,-81 282,-81 282,-62 216,-62"/>
<text text-anchor="middle" x="249" y="-69" font-family="Helvetica,sans-Serif" font-size="10.00">string_view</text>
</a>
</g>
</g>
<!-- Node9&#45;&gt;Node11 -->
<g id="edge11" class="edge">
<title>Node9&#45;&gt;Node11</title>
<path fill="none" stroke="midnightblue" d="M378.2,-123.4C348.99,-111.89 308.14,-95.8 280.24,-84.81"/>
<polygon fill="midnightblue" stroke="midnightblue" points="281.18,-81.42 270.59,-81.01 278.62,-87.93 281.18,-81.42"/>
</g>
<!-- Node12 -->
<g id="node12" class="node">
<title>Node12</title>
<g id="a_node12"><a xlink:title=" ">
<polygon fill="none" stroke="#bfbfbf" points="300.5,-62 300.5,-81 365.5,-81 365.5,-62 300.5,-62"/>
<text text-anchor="middle" x="333" y="-69" font-family="Helvetica,sans-Serif" font-size="10.00">Eigen/Core</text>
</a>
</g>
</g>
<!-- Node9&#45;&gt;Node12 -->
<g id="edge12" class="edge">
<title>Node9&#45;&gt;Node12</title>
<path fill="none" stroke="midnightblue" d="M396.42,-123.4C383.29,-112.86 365.37,-98.48 351.93,-87.69"/>
<polygon fill="midnightblue" stroke="midnightblue" points="353.82,-84.72 343.83,-81.19 349.44,-90.18 353.82,-84.72"/>
</g>
<!-- Node16&#45;&gt;Node6 -->
<g id="edge35" class="edge">
<title>Node16&#45;&gt;Node6</title>
<path fill="none" stroke="midnightblue" d="M631.21,-257.4C617.92,-246.86 599.77,-232.48 586.16,-221.69"/>
<polygon fill="midnightblue" stroke="midnightblue" points="587.98,-218.66 577.97,-215.19 583.63,-224.15 587.98,-218.66"/>
</g>
<!-- Node17 -->
<g id="node17" class="node">
<title>Node17</title>
<g id="a_node17"><a xlink:href="Contact_8h.html" target="_top" xlink:title=" ">
<polygon fill="none" stroke="black" points="798,-56.5 798,-86.5 940,-86.5 940,-56.5 798,-56.5"/>
<text text-anchor="start" x="806" y="-74.5" font-family="Helvetica,sans-Serif" font-size="10.00">BipedalLocomotion/Contacts</text>
<text text-anchor="middle" x="869" y="-63.5" font-family="Helvetica,sans-Serif" font-size="10.00">/Contact.h</text>
</a>
</g>
</g>
<!-- Node16&#45;&gt;Node17 -->
<g id="edge19" class="edge">
<title>Node16&#45;&gt;Node17</title>
<path fill="none" stroke="midnightblue" d="M720.3,-258.38C795.12,-244.47 902.44,-224.11 906,-221 939.72,-191.6 947.88,-163.56 929,-123 923.33,-110.82 913.13,-100.54 902.72,-92.49"/>
<polygon fill="midnightblue" stroke="midnightblue" points="904.58,-89.51 894.41,-86.52 900.49,-95.19 904.58,-89.51"/>
</g>
<!-- Node19 -->
<g id="node19" class="node">
<title>Node19</title>
<g id="a_node19"><a xlink:href="ContactList_8h.html" target="_top" xlink:title=" ">
<polygon fill="none" stroke="black" points="585,-123.5 585,-153.5 727,-153.5 727,-123.5 585,-123.5"/>
<text text-anchor="start" x="593" y="-141.5" font-family="Helvetica,sans-Serif" font-size="10.00">BipedalLocomotion/Contacts</text>
<text text-anchor="middle" x="656" y="-130.5" font-family="Helvetica,sans-Serif" font-size="10.00">/ContactList.h</text>
</a>
</g>
</g>
<!-- Node16&#45;&gt;Node19 -->
<g id="edge22" class="edge">
<title>Node16&#45;&gt;Node19</title>
<path fill="none" stroke="midnightblue" d="M643.75,-257.32C638.41,-241.03 631.52,-213.5 636,-190 637.75,-180.81 641.15,-171.16 644.65,-162.79"/>
<polygon fill="midnightblue" stroke="midnightblue" points="647.85,-164.21 648.72,-153.65 641.46,-161.36 647.85,-164.21"/>
</g>
<!-- Node22 -->
<g id="node22" class="node">
<title>Node22</title>
<g id="a_node22"><a xlink:href="ContactPhase_8h.html" target="_top" xlink:title=" ">
<polygon fill="none" stroke="black" points="737,-190.5 737,-220.5 879,-220.5 879,-190.5 737,-190.5"/>
<text text-anchor="start" x="745" y="-208.5" font-family="Helvetica,sans-Serif" font-size="10.00">BipedalLocomotion/Contacts</text>
<text text-anchor="middle" x="808" y="-197.5" font-family="Helvetica,sans-Serif" font-size="10.00">/ContactPhase.h</text>
</a>
</g>
</g>
<!-- Node16&#45;&gt;Node22 -->
<g id="edge28" class="edge">
<title>Node16&#45;&gt;Node22</title>
<path fill="none" stroke="midnightblue" d="M683.5,-257.4C707.15,-247.73 738.72,-234.82 764.15,-224.43"/>
<polygon fill="midnightblue" stroke="midnightblue" points="765.63,-227.6 773.57,-220.58 762.99,-221.12 765.63,-227.6"/>
</g>
<!-- Node23 -->
<g id="node23" class="node">
<title>Node23</title>
<g id="a_node23"><a xlink:title=" ">
<polygon fill="none" stroke="#bfbfbf" points="836.5,-129 836.5,-148 919.5,-148 919.5,-129 836.5,-129"/>
<text text-anchor="middle" x="878" y="-136" font-family="Helvetica,sans-Serif" font-size="10.00">unordered_map</text>
</a>
</g>
</g>
<!-- Node16&#45;&gt;Node23 -->
<g id="edge33" class="edge">
<title>Node16&#45;&gt;Node23</title>
<path fill="none" stroke="midnightblue" d="M720.27,-257.55C789.72,-243.79 885.29,-224.35 888,-221 902.48,-203.14 894.75,-175.45 887.04,-157.39"/>
<polygon fill="midnightblue" stroke="midnightblue" points="890.18,-155.84 882.79,-148.25 883.84,-158.79 890.18,-155.84"/>
</g>
<!-- Node24 -->
<g id="node24" class="node">
<title>Node24</title>
<g id="a_node24"><a xlink:title=" ">
<polygon fill="none" stroke="#bfbfbf" points="645.5,-196 645.5,-215 718.5,-215 718.5,-196 645.5,-196"/>
<text text-anchor="middle" x="682" y="-203" font-family="Helvetica,sans-Serif" font-size="10.00">initializer_list</text>
</a>
</g>
</g>
<!-- Node16&#45;&gt;Node24 -->
<g id="edge34" class="edge">
<title>Node16&#45;&gt;Node24</title>
<path fill="none" stroke="midnightblue" d="M656.16,-257.4C661.1,-247.66 667.71,-234.65 673.01,-224.21"/>
<polygon fill="midnightblue" stroke="midnightblue" points="676.18,-225.7 677.59,-215.19 669.94,-222.53 676.18,-225.7"/>
</g>
<!-- Node17&#45;&gt;Node5 -->
<g id="edge21" class="edge">
<title>Node17&#45;&gt;Node5</title>
<path fill="none" stroke="midnightblue" d="M824.21,-56.4C789.1,-45.35 741.19,-30.26 710.42,-20.58"/>
<polygon fill="midnightblue" stroke="midnightblue" points="711.27,-17.18 700.68,-17.51 709.17,-23.85 711.27,-17.18"/>
</g>
<!-- Node18 -->
<g id="node18" class="node">
<title>Node18</title>
<g id="a_node18"><a xlink:title=" ">
<polygon fill="none" stroke="#bfbfbf" points="833.5,-0.5 833.5,-19.5 904.5,-19.5 904.5,-0.5 833.5,-0.5"/>
<text text-anchor="middle" x="869" y="-7.5" font-family="Helvetica,sans-Serif" font-size="10.00">manif/SE3.h</text>
</a>
</g>
</g>
<!-- Node17&#45;&gt;Node18 -->
<g id="edge20" class="edge">
<title>Node17&#45;&gt;Node18</title>
<path fill="none" stroke="midnightblue" d="M869,-56.4C869,-48.47 869,-38.46 869,-29.86"/>
<polygon fill="midnightblue" stroke="midnightblue" points="872.5,-29.66 869,-19.66 865.5,-29.66 872.5,-29.66"/>
</g>
<!-- Node19&#45;&gt;Node5 -->
<g id="edge26" class="edge">
<title>Node19&#45;&gt;Node5</title>
<path fill="none" stroke="midnightblue" d="M638.14,-123.46C619.86,-107.3 595.85,-79.9 609,-56 617.71,-40.16 634.62,-29.12 649.74,-21.93"/>
<polygon fill="midnightblue" stroke="midnightblue" points="651.56,-24.96 659.33,-17.76 648.76,-18.54 651.56,-24.96"/>
</g>
<!-- Node19&#45;&gt;Node13 -->
<g id="edge27" class="edge">
<title>Node19&#45;&gt;Node13</title>
<path fill="none" stroke="midnightblue" d="M620.85,-123.4C592.17,-111.89 552.06,-95.8 524.67,-84.81"/>
<polygon fill="midnightblue" stroke="midnightblue" points="525.79,-81.48 515.2,-81.01 523.18,-87.98 525.79,-81.48"/>
</g>
<!-- Node19&#45;&gt;Node17 -->
<g id="edge23" class="edge">
<title>Node19&#45;&gt;Node17</title>
<path fill="none" stroke="midnightblue" d="M701.96,-123.48C734.46,-113.56 778.23,-100.2 812.81,-89.65"/>
<polygon fill="midnightblue" stroke="midnightblue" points="814.22,-92.88 822.76,-86.61 812.17,-86.18 814.22,-92.88"/>
</g>
<!-- Node20 -->
<g id="node20" class="node">
<title>Node20</title>
<g id="a_node20"><a xlink:title=" ">
<polygon fill="none" stroke="#bfbfbf" points="618,-62 618,-81 694,-81 694,-62 618,-62"/>
<text text-anchor="middle" x="656" y="-69" font-family="Helvetica,sans-Serif" font-size="10.00">manif/manif.h</text>
</a>
</g>
</g>
<!-- Node19&#45;&gt;Node20 -->
<g id="edge24" class="edge">
<title>Node19&#45;&gt;Node20</title>
<path fill="none" stroke="midnightblue" d="M656,-123.4C656,-114.06 656,-101.71 656,-91.52"/>
<polygon fill="midnightblue" stroke="midnightblue" points="659.5,-91.19 656,-81.19 652.5,-91.19 659.5,-91.19"/>
</g>
<!-- Node21 -->
<g id="node21" class="node">
<title>Node21</title>
<g id="a_node21"><a xlink:title=" ">
<polygon fill="none" stroke="#bfbfbf" points="712,-62 712,-81 742,-81 742,-62 712,-62"/>
<text text-anchor="middle" x="727" y="-69" font-family="Helvetica,sans-Serif" font-size="10.00">set</text>
</a>
</g>
</g>
<!-- Node19&#45;&gt;Node21 -->
<g id="edge25" class="edge">
<title>Node19&#45;&gt;Node21</title>
<path fill="none" stroke="midnightblue" d="M671.41,-123.4C682.81,-112.96 698.33,-98.75 710.07,-88"/>
<polygon fill="midnightblue" stroke="midnightblue" points="712.49,-90.53 717.5,-81.19 707.76,-85.37 712.49,-90.53"/>
</g>
<!-- Node22&#45;&gt;Node5 -->
<g id="edge32" class="edge">
<title>Node22&#45;&gt;Node5</title>
<path fill="none" stroke="midnightblue" d="M805.64,-190.32C800.33,-162.02 785.12,-97.66 751,-56 739.85,-42.39 723.45,-31.61 709.22,-24.02"/>
<polygon fill="midnightblue" stroke="midnightblue" points="710.77,-20.88 700.26,-19.5 707.61,-27.13 710.77,-20.88"/>
</g>
<!-- Node22&#45;&gt;Node17 -->
<g id="edge29" class="edge">
<title>Node22&#45;&gt;Node17</title>
<path fill="none" stroke="midnightblue" d="M809.3,-190.28C811.29,-173.46 816.07,-144.99 827,-123 832.16,-112.63 839.83,-102.54 847.21,-94.14"/>
<polygon fill="midnightblue" stroke="midnightblue" points="849.91,-96.38 854.11,-86.65 844.76,-91.64 849.91,-96.38"/>
</g>
<!-- Node22&#45;&gt;Node19 -->
<g id="edge30" class="edge">
<title>Node22&#45;&gt;Node19</title>
<path fill="none" stroke="midnightblue" d="M775.02,-190.4C752.51,-180.77 722.5,-167.94 698.24,-157.56"/>
<polygon fill="midnightblue" stroke="midnightblue" points="699.49,-154.29 688.92,-153.58 696.74,-160.73 699.49,-154.29"/>
</g>
<!-- Node22&#45;&gt;Node23 -->
<g id="edge31" class="edge">
<title>Node22&#45;&gt;Node23</title>
<path fill="none" stroke="midnightblue" d="M823.19,-190.4C834.32,-180.06 849.44,-166.02 860.97,-155.31"/>
<polygon fill="midnightblue" stroke="midnightblue" points="863.69,-157.56 868.64,-148.19 858.93,-152.43 863.69,-157.56"/>
</g>
</g>
</svg>
