<?xml version="1.0" encoding="UTF-8" standalone="no"?>
<!DOCTYPE svg PUBLIC "-//W3C//DTD SVG 1.1//EN"
 "http://www.w3.org/Graphics/SVG/1.1/DTD/svg11.dtd">
<!-- Generated by graphviz version 2.43.0 (0)
 -->
<!-- Title: Planners/include/BipedalLocomotion/Planners/DCMPlanner.h Pages: 1 -->
<svg width="340pt" height="184pt"
 viewBox="0.00 0.00 340.00 184.00" xmlns="http://www.w3.org/2000/svg" xmlns:xlink="http://www.w3.org/1999/xlink">
<g id="graph0" class="graph" transform="scale(1 1) rotate(0) translate(4 180)">
<title>Planners/include/BipedalLocomotion/Planners/DCMPlanner.h</title>
<!-- Node1 -->
<g id="node1" class="node">
<title>Node1</title>
<g id="a_node1"><a xlink:title=" ">
<polygon fill="#bfbfbf" stroke="black" points="82,-145.5 82,-175.5 257,-175.5 257,-145.5 82,-145.5"/>
<text text-anchor="start" x="90" y="-163.5" font-family="Helvetica,sans-Serif" font-size="10.00">Planners/include/Bipedal</text>
<text text-anchor="middle" x="169.5" y="-152.5" font-family="Helvetica,sans-Serif" font-size="10.00">Locomotion/Planners/DCMPlanner.h</text>
</a>
</g>
</g>
<!-- Node2 -->
<g id="node2" class="node">
<title>Node2</title>
<g id="a_node2"><a xlink:href="TimeVaryingDCMPlanner_8h.html" target="_top" xlink:title=" ">
<polygon fill="none" stroke="black" points="0,-67.5 0,-108.5 165,-108.5 165,-67.5 0,-67.5"/>
<text text-anchor="start" x="8" y="-96.5" font-family="Helvetica,sans-Serif" font-size="10.00">Planners/include/Bipedal</text>
<text text-anchor="start" x="8" y="-85.5" font-family="Helvetica,sans-Serif" font-size="10.00">Locomotion/Planners/TimeVarying</text>
<text text-anchor="middle" x="82.5" y="-74.5" font-family="Helvetica,sans-Serif" font-size="10.00">DCMPlanner.h</text>
</a>
</g>
</g>
<!-- Node1&#45;&gt;Node2 -->
<g id="edge1" class="edge">
<title>Node1&#45;&gt;Node2</title>
<path fill="none" stroke="midnightblue" d="M144.12,-138.93C132.31,-129.36 118.33,-118.03 106.67,-108.59"/>
<polygon fill="midnightblue" stroke="midnightblue" points="141.92,-141.66 151.89,-145.23 146.33,-136.22 141.92,-141.66"/>
</g>
<!-- Node4 -->
<g id="node4" class="node">
<title>Node4</title>
<g id="a_node4"><a xlink:href="DCMPlanner_8cpp.html" target="_top" xlink:title=" ">
<polygon fill="none" stroke="black" points="183,-78.5 183,-97.5 332,-97.5 332,-78.5 183,-78.5"/>
<text text-anchor="middle" x="257.5" y="-85.5" font-family="Helvetica,sans-Serif" font-size="10.00">Planners/src/DCMPlanner.cpp</text>
</a>
</g>
</g>
<!-- Node1&#45;&gt;Node4 -->
<g id="edge3" class="edge">
<title>Node1&#45;&gt;Node4</title>
<path fill="none" stroke="midnightblue" d="M195.24,-138.88C212.22,-125.27 233.62,-108.13 246.4,-97.89"/>
<polygon fill="midnightblue" stroke="midnightblue" points="192.92,-136.25 187.31,-145.23 197.3,-141.71 192.92,-136.25"/>
</g>
<!-- Node3 -->
<g id="node3" class="node">
<title>Node3</title>
<g id="a_node3"><a xlink:href="TimeVaryingDCMPlanner_8cpp.html" target="_top" xlink:title=" ">
<polygon fill="none" stroke="black" points="18.5,-0.5 18.5,-30.5 146.5,-30.5 146.5,-0.5 18.5,-0.5"/>
<text text-anchor="start" x="26.5" y="-18.5" font-family="Helvetica,sans-Serif" font-size="10.00">Planners/src/TimeVarying</text>
<text text-anchor="middle" x="82.5" y="-7.5" font-family="Helvetica,sans-Serif" font-size="10.00">DCMPlanner.cpp</text>
</a>
</g>
</g>
<!-- Node2&#45;&gt;Node3 -->
<g id="edge2" class="edge">
<title>Node2&#45;&gt;Node3</title>
<path fill="none" stroke="midnightblue" d="M82.5,-57.08C82.5,-48.01 82.5,-38.45 82.5,-30.89"/>
<polygon fill="midnightblue" stroke="midnightblue" points="79,-57.36 82.5,-67.36 86,-57.36 79,-57.36"/>
</g>
</g>
</svg>
