<?xml version="1.0" encoding="UTF-8" standalone="no"?>
<!DOCTYPE svg PUBLIC "-//W3C//DTD SVG 1.1//EN"
 "http://www.w3.org/Graphics/SVG/1.1/DTD/svg11.dtd">
<!-- Generated by graphviz version 2.43.0 (0)
 -->
<!-- Title: Planners/src Pages: 1 -->
<svg width="232pt" height="367pt"
 viewBox="0.00 0.00 231.96 367.00" xmlns="http://www.w3.org/2000/svg" xmlns:xlink="http://www.w3.org/1999/xlink">
<g id="graph0" class="graph" transform="scale(1 1) rotate(0) translate(4 363)">
<title>Planners/src</title>
<g id="clust1" class="cluster">
<title>clusterdir_cc5a7ea599a1eb2a878dda3f918ab084</title>
<g id="a_clust1"><a xlink:href="dir_cc5a7ea599a1eb2a878dda3f918ab084.html" target="_top" xlink:title="Planners">
<polygon fill="#ddddee" stroke="black" points="89.16,-280 89.16,-351 159.16,-351 159.16,-280 89.16,-280"/>
<text text-anchor="middle" x="124.16" y="-339" font-family="Helvetica,sans-Serif" font-size="10.00">Planners</text>
</a>
</g>
</g>
<!-- dir_7db49aa183034495a2794b7f72164f5b -->
<g id="node1" class="node">
<title>dir_7db49aa183034495a2794b7f72164f5b</title>
<g id="a_node1"><a xlink:href="dir_7db49aa183034495a2794b7f72164f5b.html" target="_top" xlink:title="src">
<polygon fill="#eeeeff" stroke="black" points="151.16,-324 97.16,-324 97.16,-288 151.16,-288 151.16,-324"/>
<text text-anchor="middle" x="124.16" y="-303.5" font-family="Helvetica,sans-Serif" font-size="10.00">src</text>
</a>
</g>
</g>
<!-- dir_ef68f1e1f5148ff8ef7fb1c955106c3c -->
<g id="node2" class="node">
<title>dir_ef68f1e1f5148ff8ef7fb1c955106c3c</title>
<g id="a_node2"><a xlink:href="dir_ef68f1e1f5148ff8ef7fb1c955106c3c.html" target="_top" xlink:title="System">
<polygon fill="none" stroke="red" points="179.16,-108 125.16,-108 125.16,-72 179.16,-72 179.16,-108"/>
<text text-anchor="middle" x="152.16" y="-87.5" font-family="Helvetica,sans-Serif" font-size="10.00">System</text>
</a>
</g>
</g>
<!-- dir_7db49aa183034495a2794b7f72164f5b&#45;&gt;dir_ef68f1e1f5148ff8ef7fb1c955106c3c -->
<g id="edge2" class="edge">
<title>dir_7db49aa183034495a2794b7f72164f5b&#45;&gt;dir_ef68f1e1f5148ff8ef7fb1c955106c3c</title>
<path fill="none" stroke="black" d="M151.45,-297.34C172.98,-289.7 201.58,-275.62 215.16,-252 241.22,-206.66 202.62,-148.46 175.31,-115.91"/>
<polygon fill="black" stroke="black" points="177.84,-113.48 168.66,-108.21 172.55,-118.06 177.84,-113.48"/>
<g id="a_edge2&#45;headlabel"><a xlink:href="dir_000060_000071.html" target="_top" xlink:title="1">
<text text-anchor="middle" x="182.34" y="-111.85" font-family="Helvetica,sans-Serif" font-size="10.00">1</text>
</a>
</g>
</g>
<!-- dir_4118ae531ffdde861fee1c6efaa3009d -->
<g id="node3" class="node">
<title>dir_4118ae531ffdde861fee1c6efaa3009d</title>
<g id="a_node3"><a xlink:href="dir_4118ae531ffdde861fee1c6efaa3009d.html" target="_top" xlink:title="TextLogging">
<polygon fill="none" stroke="red" points="95.66,-252 26.66,-252 26.66,-216 95.66,-216 95.66,-252"/>
<text text-anchor="middle" x="61.16" y="-231.5" font-family="Helvetica,sans-Serif" font-size="10.00">TextLogging</text>
</a>
</g>
</g>
<!-- dir_7db49aa183034495a2794b7f72164f5b&#45;&gt;dir_4118ae531ffdde861fee1c6efaa3009d -->
<g id="edge3" class="edge">
<title>dir_7db49aa183034495a2794b7f72164f5b&#45;&gt;dir_4118ae531ffdde861fee1c6efaa3009d</title>
<path fill="none" stroke="black" d="M108.59,-287.7C100.96,-279.22 91.64,-268.86 83.28,-259.58"/>
<polygon fill="black" stroke="black" points="85.84,-257.2 76.55,-252.1 80.64,-261.88 85.84,-257.2"/>
<g id="a_edge3&#45;headlabel"><a xlink:href="dir_000060_000076.html" target="_top" xlink:title="1">
<text text-anchor="middle" x="90.36" y="-255.47" font-family="Helvetica,sans-Serif" font-size="10.00">1</text>
</a>
</g>
</g>
<!-- dir_3813464283bee2267f39dcf080a84d74 -->
<g id="node4" class="node">
<title>dir_3813464283bee2267f39dcf080a84d74</title>
<g id="a_node4"><a xlink:href="dir_3813464283bee2267f39dcf080a84d74.html" target="_top" xlink:title="Math">
<polygon fill="none" stroke="red" points="88.16,-36 34.16,-36 34.16,0 88.16,0 88.16,-36"/>
<text text-anchor="middle" x="61.16" y="-15.5" font-family="Helvetica,sans-Serif" font-size="10.00">Math</text>
</a>
</g>
</g>
<!-- dir_7db49aa183034495a2794b7f72164f5b&#45;&gt;dir_3813464283bee2267f39dcf080a84d74 -->
<g id="edge4" class="edge">
<title>dir_7db49aa183034495a2794b7f72164f5b&#45;&gt;dir_3813464283bee2267f39dcf080a84d74</title>
<path fill="none" stroke="black" d="M96.72,-299.88C71.14,-293.5 34.43,-279.83 17.16,-252 -23.78,-186.04 19.48,-90.82 45.1,-45.24"/>
<polygon fill="black" stroke="black" points="48.29,-46.71 50.26,-36.3 42.23,-43.21 48.29,-46.71"/>
<g id="a_edge4&#45;headlabel"><a xlink:href="dir_000060_000041.html" target="_top" xlink:title="1">
<text text-anchor="middle" x="48.95" y="-48.74" font-family="Helvetica,sans-Serif" font-size="10.00">1</text>
</a>
</g>
</g>
<!-- dir_50541d64f188ef934de78ba6c49ffdbe -->
<g id="node5" class="node">
<title>dir_50541d64f188ef934de78ba6c49ffdbe</title>
<g id="a_node5"><a xlink:href="dir_50541d64f188ef934de78ba6c49ffdbe.html" target="_top" xlink:title="Contacts">
<polygon fill="none" stroke="red" points="152.16,-180 96.16,-180 96.16,-144 152.16,-144 152.16,-180"/>
<text text-anchor="middle" x="124.16" y="-159.5" font-family="Helvetica,sans-Serif" font-size="10.00">Contacts</text>
</a>
</g>
</g>
<!-- dir_7db49aa183034495a2794b7f72164f5b&#45;&gt;dir_50541d64f188ef934de78ba6c49ffdbe -->
<g id="edge5" class="edge">
<title>dir_7db49aa183034495a2794b7f72164f5b&#45;&gt;dir_50541d64f188ef934de78ba6c49ffdbe</title>
<path fill="none" stroke="black" d="M124.16,-287.87C124.16,-263.67 124.16,-219.21 124.16,-190.39"/>
<polygon fill="black" stroke="black" points="127.66,-190.19 124.16,-180.19 120.66,-190.19 127.66,-190.19"/>
<g id="a_edge5&#45;headlabel"><a xlink:href="dir_000060_000011.html" target="_top" xlink:title="1">
<text text-anchor="middle" x="130.5" y="-191.28" font-family="Helvetica,sans-Serif" font-size="10.00">1</text>
</a>
</g>
</g>
<!-- dir_47af31f393480a5d6889a54234fa11ed -->
<g id="node6" class="node">
<title>dir_47af31f393480a5d6889a54234fa11ed</title>
<g id="a_node6"><a xlink:href="dir_47af31f393480a5d6889a54234fa11ed.html" target="_top" xlink:title="include">
<polygon fill="none" stroke="red" points="206.16,-252 152.16,-252 152.16,-216 206.16,-216 206.16,-252"/>
<text text-anchor="middle" x="179.16" y="-231.5" font-family="Helvetica,sans-Serif" font-size="10.00">include</text>
</a>
</g>
</g>
<!-- dir_7db49aa183034495a2794b7f72164f5b&#45;&gt;dir_47af31f393480a5d6889a54234fa11ed -->
<g id="edge6" class="edge">
<title>dir_7db49aa183034495a2794b7f72164f5b&#45;&gt;dir_47af31f393480a5d6889a54234fa11ed</title>
<path fill="none" stroke="black" d="M137.75,-287.7C144.28,-279.39 152.23,-269.28 159.41,-260.14"/>
<polygon fill="black" stroke="black" points="162.29,-262.13 165.72,-252.1 156.79,-257.81 162.29,-262.13"/>
<g id="a_edge6&#45;headlabel"><a xlink:href="dir_000060_000057.html" target="_top" xlink:title="7">
<text text-anchor="middle" x="162.31" y="-264.21" font-family="Helvetica,sans-Serif" font-size="10.00">7</text>
</a>
</g>
</g>
<!-- dir_ef68f1e1f5148ff8ef7fb1c955106c3c&#45;&gt;dir_3813464283bee2267f39dcf080a84d74 -->
<g id="edge1" class="edge">
<title>dir_ef68f1e1f5148ff8ef7fb1c955106c3c&#45;&gt;dir_3813464283bee2267f39dcf080a84d74</title>
<path fill="none" stroke="black" d="M129.66,-71.7C118.2,-62.88 104.1,-52.03 91.68,-42.47"/>
<polygon fill="black" stroke="black" points="93.46,-39.43 83.39,-36.1 89.19,-44.98 93.46,-39.43"/>
<g id="a_edge1&#45;headlabel"><a xlink:href="dir_000071_000041.html" target="_top" xlink:title="1">
<text text-anchor="middle" x="98.04" y="-36.87" font-family="Helvetica,sans-Serif" font-size="10.00">1</text>
</a>
</g>
</g>
<!-- dir_50541d64f188ef934de78ba6c49ffdbe&#45;&gt;dir_ef68f1e1f5148ff8ef7fb1c955106c3c -->
<g id="edge7" class="edge">
<title>dir_50541d64f188ef934de78ba6c49ffdbe&#45;&gt;dir_ef68f1e1f5148ff8ef7fb1c955106c3c</title>
<path fill="none" stroke="black" d="M131.08,-143.7C134.23,-135.81 138.04,-126.3 141.54,-117.55"/>
<polygon fill="black" stroke="black" points="144.85,-118.69 145.32,-108.1 138.35,-116.09 144.85,-118.69"/>
<g id="a_edge7&#45;headlabel"><a xlink:href="dir_000011_000071.html" target="_top" xlink:title="1">
<text text-anchor="middle" x="146.15" y="-120.58" font-family="Helvetica,sans-Serif" font-size="10.00">1</text>
</a>
</g>
</g>
<!-- dir_47af31f393480a5d6889a54234fa11ed&#45;&gt;dir_ef68f1e1f5148ff8ef7fb1c955106c3c -->
<g id="edge8" class="edge">
<title>dir_47af31f393480a5d6889a54234fa11ed&#45;&gt;dir_ef68f1e1f5148ff8ef7fb1c955106c3c</title>
<path fill="none" stroke="black" d="M175.9,-215.87C171.3,-191.67 162.85,-147.21 157.37,-118.39"/>
<polygon fill="black" stroke="black" points="160.73,-117.36 155.43,-108.19 153.86,-118.67 160.73,-117.36"/>
<g id="a_edge8&#45;headlabel"><a xlink:href="dir_000057_000071.html" target="_top" xlink:title="4">
<text text-anchor="middle" x="164.19" y="-117.86" font-family="Helvetica,sans-Serif" font-size="10.00">4</text>
</a>
</g>
</g>
<!-- dir_47af31f393480a5d6889a54234fa11ed&#45;&gt;dir_50541d64f188ef934de78ba6c49ffdbe -->
<g id="edge9" class="edge">
<title>dir_47af31f393480a5d6889a54234fa11ed&#45;&gt;dir_50541d64f188ef934de78ba6c49ffdbe</title>
<path fill="none" stroke="black" d="M165.56,-215.7C159.04,-207.39 151.09,-197.28 143.91,-188.14"/>
<polygon fill="black" stroke="black" points="146.53,-185.81 137.6,-180.1 141.02,-190.13 146.53,-185.81"/>
<g id="a_edge9&#45;headlabel"><a xlink:href="dir_000057_000011.html" target="_top" xlink:title="1">
<text text-anchor="middle" x="150.98" y="-184.38" font-family="Helvetica,sans-Serif" font-size="10.00">1</text>
</a>
</g>
</g>
</g>
</svg>
