<?xml version="1.0" encoding="UTF-8" standalone="no"?>
<!DOCTYPE svg PUBLIC "-//W3C//DTD SVG 1.1//EN"
 "http://www.w3.org/Graphics/SVG/1.1/DTD/svg11.dtd">
<!-- Generated by graphviz version 2.43.0 (0)
 -->
<!-- Title: ContactModels/src Pages: 1 -->
<svg width="114pt" height="223pt"
 viewBox="0.00 0.00 113.50 223.00" xmlns="http://www.w3.org/2000/svg" xmlns:xlink="http://www.w3.org/1999/xlink">
<g id="graph0" class="graph" transform="scale(1 1) rotate(0) translate(4 219)">
<title>ContactModels/src</title>
<g id="clust1" class="cluster">
<title>clusterdir_ddacabcd4572cd422cd722a5b78176ea</title>
<g id="a_clust1"><a xlink:href="dir_ddacabcd4572cd422cd722a5b78176ea.html" target="_top" xlink:title="ContactModels">
<polygon fill="#ddddee" stroke="black" points="10.5,-136 10.5,-207 93.5,-207 93.5,-136 10.5,-136"/>
<text text-anchor="middle" x="52" y="-195" font-family="Helvetica,sans-Serif" font-size="10.00">ContactModels</text>
</a>
</g>
</g>
<!-- dir_af3c263f52a1f0e4f3bb2c699015ebc8 -->
<g id="node1" class="node">
<title>dir_af3c263f52a1f0e4f3bb2c699015ebc8</title>
<g id="a_node1"><a xlink:href="dir_af3c263f52a1f0e4f3bb2c699015ebc8.html" target="_top" xlink:title="src">
<polygon fill="#eeeeff" stroke="black" points="78.5,-180 24.5,-180 24.5,-144 78.5,-144 78.5,-180"/>
<text text-anchor="middle" x="51.5" y="-159.5" font-family="Helvetica,sans-Serif" font-size="10.00">src</text>
</a>
</g>
</g>
<!-- dir_995a11a27ec5ce2fce465ebbab555255 -->
<g id="node2" class="node">
<title>dir_995a11a27ec5ce2fce465ebbab555255</title>
<g id="a_node2"><a xlink:href="dir_995a11a27ec5ce2fce465ebbab555255.html" target="_top" xlink:title="ParametersHandler">
<polygon fill="none" stroke="red" points="101,-36 0,-36 0,0 101,0 101,-36"/>
<text text-anchor="middle" x="50.5" y="-15.5" font-family="Helvetica,sans-Serif" font-size="10.00">ParametersHandler</text>
</a>
</g>
</g>
<!-- dir_af3c263f52a1f0e4f3bb2c699015ebc8&#45;&gt;dir_995a11a27ec5ce2fce465ebbab555255 -->
<g id="edge1" class="edge">
<title>dir_af3c263f52a1f0e4f3bb2c699015ebc8&#45;&gt;dir_995a11a27ec5ce2fce465ebbab555255</title>
<path fill="none" stroke="black" d="M47.85,-143.91C45.82,-133.57 43.52,-120.09 42.5,-108 41.16,-92.06 41.3,-87.96 42.5,-72 43.14,-63.52 44.34,-54.34 45.62,-46.04"/>
<polygon fill="black" stroke="black" points="49.08,-46.55 47.25,-36.11 42.18,-45.41 49.08,-46.55"/>
<g id="a_edge1&#45;headlabel"><a xlink:href="dir_000010_000046.html" target="_top" xlink:title="1">
<text text-anchor="middle" x="51.3" y="-48.05" font-family="Helvetica,sans-Serif" font-size="10.00">1</text>
</a>
</g>
</g>
<!-- dir_240d6632492a47ba12224b412d58f533 -->
<g id="node3" class="node">
<title>dir_240d6632492a47ba12224b412d58f533</title>
<g id="a_node3"><a xlink:href="dir_240d6632492a47ba12224b412d58f533.html" target="_top" xlink:title="include">
<polygon fill="none" stroke="red" points="105.5,-108 51.5,-108 51.5,-72 105.5,-72 105.5,-108"/>
<text text-anchor="middle" x="78.5" y="-87.5" font-family="Helvetica,sans-Serif" font-size="10.00">include</text>
</a>
</g>
</g>
<!-- dir_af3c263f52a1f0e4f3bb2c699015ebc8&#45;&gt;dir_240d6632492a47ba12224b412d58f533 -->
<g id="edge2" class="edge">
<title>dir_af3c263f52a1f0e4f3bb2c699015ebc8&#45;&gt;dir_240d6632492a47ba12224b412d58f533</title>
<path fill="none" stroke="black" d="M58.17,-143.7C61.21,-135.81 64.88,-126.3 68.26,-117.55"/>
<polygon fill="black" stroke="black" points="71.57,-118.69 71.9,-108.1 65.04,-116.17 71.57,-118.69"/>
<g id="a_edge2&#45;headlabel"><a xlink:href="dir_000010_000007.html" target="_top" xlink:title="2">
<text text-anchor="middle" x="72.92" y="-120.57" font-family="Helvetica,sans-Serif" font-size="10.00">2</text>
</a>
</g>
</g>
<!-- dir_240d6632492a47ba12224b412d58f533&#45;&gt;dir_995a11a27ec5ce2fce465ebbab555255 -->
<g id="edge3" class="edge">
<title>dir_240d6632492a47ba12224b412d58f533&#45;&gt;dir_995a11a27ec5ce2fce465ebbab555255</title>
<path fill="none" stroke="black" d="M71.58,-71.7C68.43,-63.81 64.62,-54.3 61.12,-45.55"/>
<polygon fill="black" stroke="black" points="64.31,-44.09 57.34,-36.1 57.81,-46.69 64.31,-44.09"/>
<g id="a_edge3&#45;headlabel"><a xlink:href="dir_000007_000046.html" target="_top" xlink:title="2">
<text text-anchor="middle" x="68.28" y="-43.87" font-family="Helvetica,sans-Serif" font-size="10.00">2</text>
</a>
</g>
</g>
</g>
</svg>
