<?xml version="1.0" encoding="UTF-8" standalone="no"?>
<!DOCTYPE svg PUBLIC "-//W3C//DTD SVG 1.1//EN"
 "http://www.w3.org/Graphics/SVG/1.1/DTD/svg11.dtd">
<!-- Generated by graphviz version 2.43.0 (0)
 -->
<!-- Title: Estimators/include/BipedalLocomotion Pages: 1 -->
<svg width="378pt" height="303pt"
 viewBox="0.00 0.00 378.00 303.00" xmlns="http://www.w3.org/2000/svg" xmlns:xlink="http://www.w3.org/1999/xlink">
<g id="graph0" class="graph" transform="scale(1 1) rotate(0) translate(4 299)">
<title>Estimators/include/BipedalLocomotion</title>
<g id="clust1" class="cluster">
<title>clusterdir_83e72bb223dd52ca9520cbeb993359a4</title>
<g id="a_clust1"><a xlink:href="dir_83e72bb223dd52ca9520cbeb993359a4.html" target="_top" xlink:title="include">
<polygon fill="#ddddee" stroke="black" points="8,-200 8,-287 362,-287 362,-200 8,-200"/>
<text text-anchor="middle" x="185" y="-275" font-family="Helvetica,sans-Serif" font-size="10.00">include</text>
</a>
</g>
</g>
<g id="clust2" class="cluster">
<title>clusterdir_76b3c42c31613a4250722fde83b07506</title>
<g id="a_clust2"><a xlink:href="dir_76b3c42c31613a4250722fde83b07506.html" target="_top">
<polygon fill="#eeeeff" stroke="black" points="16,-208 16,-260 354,-260 354,-208 16,-208"/>
</a>
</g>
</g>
<!-- dir_76b3c42c31613a4250722fde83b07506 -->
<g id="node1" class="node">
<title>dir_76b3c42c31613a4250722fde83b07506</title>
<text text-anchor="middle" x="296" y="-231.5" font-family="Helvetica,sans-Serif" font-size="10.00">BipedalLocomotion</text>
</g>
<!-- dir_ee07514d2807e20bc45d06fa42085a9b -->
<g id="node2" class="node">
<title>dir_ee07514d2807e20bc45d06fa42085a9b</title>
<g id="a_node2"><a xlink:href="dir_ee07514d2807e20bc45d06fa42085a9b.html" target="_top" xlink:title="Estimators">
<polygon fill="white" stroke="black" points="228,-252 164,-252 164,-216 228,-216 228,-252"/>
<text text-anchor="middle" x="196" y="-231.5" font-family="Helvetica,sans-Serif" font-size="10.00">Estimators</text>
</a>
</g>
</g>
<!-- dir_ef68f1e1f5148ff8ef7fb1c955106c3c -->
<g id="node4" class="node">
<title>dir_ef68f1e1f5148ff8ef7fb1c955106c3c</title>
<g id="a_node4"><a xlink:href="dir_ef68f1e1f5148ff8ef7fb1c955106c3c.html" target="_top" xlink:title="System">
<polygon fill="none" stroke="red" points="168,-108 114,-108 114,-72 168,-72 168,-108"/>
<text text-anchor="middle" x="141" y="-87.5" font-family="Helvetica,sans-Serif" font-size="10.00">System</text>
</a>
</g>
</g>
<!-- dir_ee07514d2807e20bc45d06fa42085a9b&#45;&gt;dir_ef68f1e1f5148ff8ef7fb1c955106c3c -->
<g id="edge2" class="edge">
<title>dir_ee07514d2807e20bc45d06fa42085a9b&#45;&gt;dir_ef68f1e1f5148ff8ef7fb1c955106c3c</title>
<path fill="none" stroke="black" d="M189.37,-215.87C179.91,-191.46 162.47,-146.43 151.32,-117.64"/>
<polygon fill="black" stroke="black" points="154.53,-116.25 147.66,-108.19 148.01,-118.78 154.53,-116.25"/>
<g id="a_edge2&#45;headlabel"><a xlink:href="dir_000024_000071.html" target="_top" xlink:title="1">
<text text-anchor="middle" x="158.48" y="-116.08" font-family="Helvetica,sans-Serif" font-size="10.00">1</text>
</a>
</g>
</g>
<!-- dir_995a11a27ec5ce2fce465ebbab555255 -->
<g id="node5" class="node">
<title>dir_995a11a27ec5ce2fce465ebbab555255</title>
<g id="a_node5"><a xlink:href="dir_995a11a27ec5ce2fce465ebbab555255.html" target="_top" xlink:title="ParametersHandler">
<polygon fill="none" stroke="red" points="163.5,-36 62.5,-36 62.5,0 163.5,0 163.5,-36"/>
<text text-anchor="middle" x="113" y="-15.5" font-family="Helvetica,sans-Serif" font-size="10.00">ParametersHandler</text>
</a>
</g>
</g>
<!-- dir_ee07514d2807e20bc45d06fa42085a9b&#45;&gt;dir_995a11a27ec5ce2fce465ebbab555255 -->
<g id="edge3" class="edge">
<title>dir_ee07514d2807e20bc45d06fa42085a9b&#45;&gt;dir_995a11a27ec5ce2fce465ebbab555255</title>
<path fill="none" stroke="black" d="M197.96,-215.78C200.64,-184.91 202.56,-118.97 177,-72 170.69,-60.4 160.71,-50.32 150.49,-42.16"/>
<polygon fill="black" stroke="black" points="152.41,-39.22 142.31,-36.03 148.21,-44.82 152.41,-39.22"/>
<g id="a_edge3&#45;headlabel"><a xlink:href="dir_000024_000046.html" target="_top" xlink:title="1">
<text text-anchor="middle" x="156.99" y="-36.61" font-family="Helvetica,sans-Serif" font-size="10.00">1</text>
</a>
</g>
</g>
<!-- dir_eb2aee06d54bf141ab9a7f577cd1a1c7 -->
<g id="node3" class="node">
<title>dir_eb2aee06d54bf141ab9a7f577cd1a1c7</title>
<g id="a_node3"><a xlink:href="dir_eb2aee06d54bf141ab9a7f577cd1a1c7.html" target="_top" xlink:title="FloatingBaseEstimators">
<polygon fill="white" stroke="black" points="145.5,-252 24.5,-252 24.5,-216 145.5,-216 145.5,-252"/>
<text text-anchor="middle" x="85" y="-231.5" font-family="Helvetica,sans-Serif" font-size="10.00">FloatingBaseEstimators</text>
</a>
</g>
</g>
<!-- dir_eb2aee06d54bf141ab9a7f577cd1a1c7&#45;&gt;dir_ef68f1e1f5148ff8ef7fb1c955106c3c -->
<g id="edge4" class="edge">
<title>dir_eb2aee06d54bf141ab9a7f577cd1a1c7&#45;&gt;dir_ef68f1e1f5148ff8ef7fb1c955106c3c</title>
<path fill="none" stroke="black" d="M99.57,-215.91C107.31,-206.01 116.37,-192.97 122,-180 130.59,-160.23 135.42,-136.25 138.06,-118.16"/>
<polygon fill="black" stroke="black" points="141.56,-118.39 139.4,-108.01 134.62,-117.47 141.56,-118.39"/>
<g id="a_edge4&#45;headlabel"><a xlink:href="dir_000025_000071.html" target="_top" xlink:title="1">
<text text-anchor="middle" x="143.9" y="-119.82" font-family="Helvetica,sans-Serif" font-size="10.00">1</text>
</a>
</g>
</g>
<!-- dir_eb2aee06d54bf141ab9a7f577cd1a1c7&#45;&gt;dir_995a11a27ec5ce2fce465ebbab555255 -->
<g id="edge5" class="edge">
<title>dir_eb2aee06d54bf141ab9a7f577cd1a1c7&#45;&gt;dir_995a11a27ec5ce2fce465ebbab555255</title>
<path fill="none" stroke="black" d="M68.96,-215.85C60.99,-206.12 52.17,-193.27 48,-180 43.2,-164.74 44.2,-159.54 48,-144 57.01,-107.13 78.98,-69.03 94.89,-44.74"/>
<polygon fill="black" stroke="black" points="97.99,-46.39 100.65,-36.13 92.18,-42.5 97.99,-46.39"/>
<g id="a_edge5&#45;headlabel"><a xlink:href="dir_000025_000046.html" target="_top" xlink:title="2">
<text text-anchor="middle" x="98.35" y="-48.46" font-family="Helvetica,sans-Serif" font-size="10.00">2</text>
</a>
</g>
</g>
<!-- dir_50541d64f188ef934de78ba6c49ffdbe -->
<g id="node6" class="node">
<title>dir_50541d64f188ef934de78ba6c49ffdbe</title>
<g id="a_node6"><a xlink:href="dir_50541d64f188ef934de78ba6c49ffdbe.html" target="_top" xlink:title="Contacts">
<polygon fill="none" stroke="red" points="113,-180 57,-180 57,-144 113,-144 113,-180"/>
<text text-anchor="middle" x="85" y="-159.5" font-family="Helvetica,sans-Serif" font-size="10.00">Contacts</text>
</a>
</g>
</g>
<!-- dir_eb2aee06d54bf141ab9a7f577cd1a1c7&#45;&gt;dir_50541d64f188ef934de78ba6c49ffdbe -->
<g id="edge6" class="edge">
<title>dir_eb2aee06d54bf141ab9a7f577cd1a1c7&#45;&gt;dir_50541d64f188ef934de78ba6c49ffdbe</title>
<path fill="none" stroke="black" d="M85,-215.7C85,-207.98 85,-198.71 85,-190.11"/>
<polygon fill="black" stroke="black" points="88.5,-190.1 85,-180.1 81.5,-190.1 88.5,-190.1"/>
<g id="a_edge6&#45;headlabel"><a xlink:href="dir_000025_000011.html" target="_top" xlink:title="1">
<text text-anchor="middle" x="91.34" y="-191.2" font-family="Helvetica,sans-Serif" font-size="10.00">1</text>
</a>
</g>
</g>
<!-- dir_ef68f1e1f5148ff8ef7fb1c955106c3c&#45;&gt;dir_995a11a27ec5ce2fce465ebbab555255 -->
<g id="edge1" class="edge">
<title>dir_ef68f1e1f5148ff8ef7fb1c955106c3c&#45;&gt;dir_995a11a27ec5ce2fce465ebbab555255</title>
<path fill="none" stroke="black" d="M134.08,-71.7C130.93,-63.81 127.12,-54.3 123.62,-45.55"/>
<polygon fill="black" stroke="black" points="126.81,-44.09 119.84,-36.1 120.31,-46.69 126.81,-44.09"/>
<g id="a_edge1&#45;headlabel"><a xlink:href="dir_000071_000046.html" target="_top" xlink:title="3">
<text text-anchor="middle" x="130.78" y="-43.87" font-family="Helvetica,sans-Serif" font-size="10.00">3</text>
</a>
</g>
</g>
<!-- dir_50541d64f188ef934de78ba6c49ffdbe&#45;&gt;dir_ef68f1e1f5148ff8ef7fb1c955106c3c -->
<g id="edge7" class="edge">
<title>dir_50541d64f188ef934de78ba6c49ffdbe&#45;&gt;dir_ef68f1e1f5148ff8ef7fb1c955106c3c</title>
<path fill="none" stroke="black" d="M98.84,-143.7C105.49,-135.39 113.58,-125.28 120.89,-116.14"/>
<polygon fill="black" stroke="black" points="123.8,-118.1 127.32,-108.1 118.34,-113.73 123.8,-118.1"/>
<g id="a_edge7&#45;headlabel"><a xlink:href="dir_000011_000071.html" target="_top" xlink:title="1">
<text text-anchor="middle" x="123.77" y="-120.18" font-family="Helvetica,sans-Serif" font-size="10.00">1</text>
</a>
</g>
</g>
<!-- dir_50541d64f188ef934de78ba6c49ffdbe&#45;&gt;dir_995a11a27ec5ce2fce465ebbab555255 -->
<g id="edge8" class="edge">
<title>dir_50541d64f188ef934de78ba6c49ffdbe&#45;&gt;dir_995a11a27ec5ce2fce465ebbab555255</title>
<path fill="none" stroke="black" d="M88.38,-143.87C93.17,-119.56 101.99,-74.82 107.67,-46.01"/>
<polygon fill="black" stroke="black" points="111.11,-46.68 109.61,-36.19 104.24,-45.32 111.11,-46.68"/>
<g id="a_edge8&#45;headlabel"><a xlink:href="dir_000011_000046.html" target="_top" xlink:title="1">
<text text-anchor="middle" x="113.2" y="-48.25" font-family="Helvetica,sans-Serif" font-size="10.00">1</text>
</a>
</g>
</g>
</g>
</svg>
