<?xml version="1.0" encoding="UTF-8" standalone="no"?>
<!DOCTYPE svg PUBLIC "-//W3C//DTD SVG 1.1//EN"
 "http://www.w3.org/Graphics/SVG/1.1/DTD/svg11.dtd">
<!-- Generated by graphviz version 2.43.0 (0)
 -->
<!-- Title: TSID/src Pages: 1 -->
<svg width="152pt" height="151pt"
 viewBox="0.00 0.00 151.50 151.00" xmlns="http://www.w3.org/2000/svg" xmlns:xlink="http://www.w3.org/1999/xlink">
<g id="graph0" class="graph" transform="scale(1 1) rotate(0) translate(4 147)">
<title>TSID/src</title>
<g id="clust1" class="cluster">
<title>clusterdir_de4f433f8e8737405f5d27169f100f21</title>
<g id="a_clust1"><a xlink:href="dir_de4f433f8e8737405f5d27169f100f21.html" target="_top" xlink:title="TSID">
<polygon fill="#ddddee" stroke="black" points="40.5,-64 40.5,-135 110.5,-135 110.5,-64 40.5,-64"/>
<text text-anchor="middle" x="75.5" y="-123" font-family="Helvetica,sans-Serif" font-size="10.00">TSID</text>
</a>
</g>
</g>
<!-- dir_07065c84b9485f7d9476634ae8bd8fb1 -->
<g id="node1" class="node">
<title>dir_07065c84b9485f7d9476634ae8bd8fb1</title>
<g id="a_node1"><a xlink:href="dir_07065c84b9485f7d9476634ae8bd8fb1.html" target="_top" xlink:title="src">
<polygon fill="#eeeeff" stroke="black" points="102.5,-108 48.5,-108 48.5,-72 102.5,-72 102.5,-108"/>
<text text-anchor="middle" x="75.5" y="-87.5" font-family="Helvetica,sans-Serif" font-size="10.00">src</text>
</a>
</g>
</g>
<!-- dir_67ecbf5b3dd37b0be5aedd0167f75fa8 -->
<g id="node2" class="node">
<title>dir_67ecbf5b3dd37b0be5aedd0167f75fa8</title>
<g id="a_node2"><a xlink:href="dir_67ecbf5b3dd37b0be5aedd0167f75fa8.html" target="_top" xlink:title="Conversions">
<polygon fill="none" stroke="red" points="71,-36 0,-36 0,0 71,0 71,-36"/>
<text text-anchor="middle" x="35.5" y="-15.5" font-family="Helvetica,sans-Serif" font-size="10.00">Conversions</text>
</a>
</g>
</g>
<!-- dir_07065c84b9485f7d9476634ae8bd8fb1&#45;&gt;dir_67ecbf5b3dd37b0be5aedd0167f75fa8 -->
<g id="edge1" class="edge">
<title>dir_07065c84b9485f7d9476634ae8bd8fb1&#45;&gt;dir_67ecbf5b3dd37b0be5aedd0167f75fa8</title>
<path fill="none" stroke="black" d="M65.61,-71.7C61.01,-63.64 55.44,-53.89 50.35,-44.98"/>
<polygon fill="black" stroke="black" points="53.27,-43.05 45.27,-36.1 47.2,-46.52 53.27,-43.05"/>
<g id="a_edge1&#45;headlabel"><a xlink:href="dir_000040_000017.html" target="_top" xlink:title="1">
<text text-anchor="middle" x="57.52" y="-42.26" font-family="Helvetica,sans-Serif" font-size="10.00">1</text>
</a>
</g>
</g>
<!-- dir_b3fde19edb359d87d45749a75c85f30a -->
<g id="node3" class="node">
<title>dir_b3fde19edb359d87d45749a75c85f30a</title>
<g id="a_node3"><a xlink:href="dir_b3fde19edb359d87d45749a75c85f30a.html" target="_top" xlink:title="include">
<polygon fill="none" stroke="red" points="143.5,-36 89.5,-36 89.5,0 143.5,0 143.5,-36"/>
<text text-anchor="middle" x="116.5" y="-15.5" font-family="Helvetica,sans-Serif" font-size="10.00">include</text>
</a>
</g>
</g>
<!-- dir_07065c84b9485f7d9476634ae8bd8fb1&#45;&gt;dir_b3fde19edb359d87d45749a75c85f30a -->
<g id="edge2" class="edge">
<title>dir_07065c84b9485f7d9476634ae8bd8fb1&#45;&gt;dir_b3fde19edb359d87d45749a75c85f30a</title>
<path fill="none" stroke="black" d="M85.63,-71.7C90.35,-63.64 96.06,-53.89 101.28,-44.98"/>
<polygon fill="black" stroke="black" points="104.45,-46.5 106.48,-36.1 98.41,-42.96 104.45,-46.5"/>
<g id="a_edge2&#45;headlabel"><a xlink:href="dir_000040_000036.html" target="_top" xlink:title="5">
<text text-anchor="middle" x="105.08" y="-48.54" font-family="Helvetica,sans-Serif" font-size="10.00">5</text>
</a>
</g>
</g>
</g>
</svg>
