<?xml version="1.0" encoding="UTF-8" standalone="no"?>
<!DOCTYPE svg PUBLIC "-//W3C//DTD SVG 1.1//EN"
 "http://www.w3.org/Graphics/SVG/1.1/DTD/svg11.dtd">
<!-- Generated by graphviz version 2.43.0 (0)
 -->
<!-- Title: System/src Pages: 1 -->
<svg width="224pt" height="151pt"
 viewBox="0.00 0.00 223.50 151.00" xmlns="http://www.w3.org/2000/svg" xmlns:xlink="http://www.w3.org/1999/xlink">
<g id="graph0" class="graph" transform="scale(1 1) rotate(0) translate(4 147)">
<title>System/src</title>
<g id="clust1" class="cluster">
<title>clusterdir_ef68f1e1f5148ff8ef7fb1c955106c3c</title>
<g id="a_clust1"><a xlink:href="dir_ef68f1e1f5148ff8ef7fb1c955106c3c.html" target="_top" xlink:title="System">
<polygon fill="#ddddee" stroke="black" points="64,-64 64,-135 134,-135 134,-64 64,-64"/>
<text text-anchor="middle" x="99" y="-123" font-family="Helvetica,sans-Serif" font-size="10.00">System</text>
</a>
</g>
</g>
<!-- dir_5f44df30490d7d577c379553603dbaeb -->
<g id="node1" class="node">
<title>dir_5f44df30490d7d577c379553603dbaeb</title>
<g id="a_node1"><a xlink:href="dir_5f44df30490d7d577c379553603dbaeb.html" target="_top" xlink:title="src">
<polygon fill="#eeeeff" stroke="black" points="126,-108 72,-108 72,-72 126,-72 126,-108"/>
<text text-anchor="middle" x="99" y="-87.5" font-family="Helvetica,sans-Serif" font-size="10.00">src</text>
</a>
</g>
</g>
<!-- dir_3813464283bee2267f39dcf080a84d74 -->
<g id="node2" class="node">
<title>dir_3813464283bee2267f39dcf080a84d74</title>
<g id="a_node2"><a xlink:href="dir_3813464283bee2267f39dcf080a84d74.html" target="_top" xlink:title="Math">
<polygon fill="none" stroke="red" points="54,-36 0,-36 0,0 54,0 54,-36"/>
<text text-anchor="middle" x="27" y="-15.5" font-family="Helvetica,sans-Serif" font-size="10.00">Math</text>
</a>
</g>
</g>
<!-- dir_5f44df30490d7d577c379553603dbaeb&#45;&gt;dir_3813464283bee2267f39dcf080a84d74 -->
<g id="edge1" class="edge">
<title>dir_5f44df30490d7d577c379553603dbaeb&#45;&gt;dir_3813464283bee2267f39dcf080a84d74</title>
<path fill="none" stroke="black" d="M81.2,-71.7C72.4,-63.14 61.62,-52.66 52,-43.3"/>
<polygon fill="black" stroke="black" points="54.2,-40.57 44.59,-36.1 49.32,-45.58 54.2,-40.57"/>
<g id="a_edge1&#45;headlabel"><a xlink:href="dir_000075_000041.html" target="_top" xlink:title="1">
<text text-anchor="middle" x="58.76" y="-38.54" font-family="Helvetica,sans-Serif" font-size="10.00">1</text>
</a>
</g>
</g>
<!-- dir_543817dc0abe17961f66d6d58373e100 -->
<g id="node3" class="node">
<title>dir_543817dc0abe17961f66d6d58373e100</title>
<g id="a_node3"><a xlink:href="dir_543817dc0abe17961f66d6d58373e100.html" target="_top" xlink:title="include">
<polygon fill="none" stroke="red" points="126,-36 72,-36 72,0 126,0 126,-36"/>
<text text-anchor="middle" x="99" y="-15.5" font-family="Helvetica,sans-Serif" font-size="10.00">include</text>
</a>
</g>
</g>
<!-- dir_5f44df30490d7d577c379553603dbaeb&#45;&gt;dir_543817dc0abe17961f66d6d58373e100 -->
<g id="edge2" class="edge">
<title>dir_5f44df30490d7d577c379553603dbaeb&#45;&gt;dir_543817dc0abe17961f66d6d58373e100</title>
<path fill="none" stroke="black" d="M99,-71.7C99,-63.98 99,-54.71 99,-46.11"/>
<polygon fill="black" stroke="black" points="102.5,-46.1 99,-36.1 95.5,-46.1 102.5,-46.1"/>
<g id="a_edge2&#45;headlabel"><a xlink:href="dir_000075_000072.html" target="_top" xlink:title="5">
<text text-anchor="middle" x="105.34" y="-47.2" font-family="Helvetica,sans-Serif" font-size="10.00">5</text>
</a>
</g>
</g>
<!-- dir_67ecbf5b3dd37b0be5aedd0167f75fa8 -->
<g id="node4" class="node">
<title>dir_67ecbf5b3dd37b0be5aedd0167f75fa8</title>
<g id="a_node4"><a xlink:href="dir_67ecbf5b3dd37b0be5aedd0167f75fa8.html" target="_top" xlink:title="Conversions">
<polygon fill="none" stroke="red" points="215.5,-36 144.5,-36 144.5,0 215.5,0 215.5,-36"/>
<text text-anchor="middle" x="180" y="-15.5" font-family="Helvetica,sans-Serif" font-size="10.00">Conversions</text>
</a>
</g>
</g>
<!-- dir_5f44df30490d7d577c379553603dbaeb&#45;&gt;dir_67ecbf5b3dd37b0be5aedd0167f75fa8 -->
<g id="edge3" class="edge">
<title>dir_5f44df30490d7d577c379553603dbaeb&#45;&gt;dir_67ecbf5b3dd37b0be5aedd0167f75fa8</title>
<path fill="none" stroke="black" d="M119.02,-71.7C129.13,-62.97 141.54,-52.24 152.52,-42.75"/>
<polygon fill="black" stroke="black" points="154.93,-45.29 160.21,-36.1 150.35,-39.99 154.93,-45.29"/>
<g id="a_edge3&#45;headlabel"><a xlink:href="dir_000075_000017.html" target="_top" xlink:title="1">
<text text-anchor="middle" x="154.07" y="-47.29" font-family="Helvetica,sans-Serif" font-size="10.00">1</text>
</a>
</g>
</g>
</g>
</svg>
