<?xml version="1.0" encoding="UTF-8" standalone="no"?>
<!DOCTYPE svg PUBLIC "-//W3C//DTD SVG 1.1//EN"
 "http://www.w3.org/Graphics/SVG/1.1/DTD/svg11.dtd">
<!-- Generated by graphviz version 2.43.0 (0)
 -->
<!-- Title: Planners/include/BipedalLocomotion/Planners Pages: 1 -->
<svg width="149pt" height="295pt"
 viewBox="0.00 0.00 149.00 295.00" xmlns="http://www.w3.org/2000/svg" xmlns:xlink="http://www.w3.org/1999/xlink">
<g id="graph0" class="graph" transform="scale(1 1) rotate(0) translate(4 291)">
<title>Planners/include/BipedalLocomotion/Planners</title>
<g id="clust1" class="cluster">
<title>clusterdir_ca39150e121c2f7552b8919c494e6981</title>
<g id="a_clust1"><a xlink:href="dir_ca39150e121c2f7552b8919c494e6981.html" target="_top" xlink:title="BipedalLocomotion">
<polygon fill="#ddddee" stroke="black" points="8,-208 8,-279 107,-279 107,-208 8,-208"/>
<text text-anchor="middle" x="57.5" y="-267" font-family="Helvetica,sans-Serif" font-size="10.00">BipedalLocomotion</text>
</a>
</g>
</g>
<!-- dir_9a2340c01aedb0f76560dc44ac9c4ec3 -->
<g id="node1" class="node">
<title>dir_9a2340c01aedb0f76560dc44ac9c4ec3</title>
<g id="a_node1"><a xlink:href="dir_9a2340c01aedb0f76560dc44ac9c4ec3.html" target="_top" xlink:title="Planners">
<polygon fill="#eeeeff" stroke="black" points="84.5,-252 29.5,-252 29.5,-216 84.5,-216 84.5,-252"/>
<text text-anchor="middle" x="57" y="-231.5" font-family="Helvetica,sans-Serif" font-size="10.00">Planners</text>
</a>
</g>
</g>
<!-- dir_ef68f1e1f5148ff8ef7fb1c955106c3c -->
<g id="node2" class="node">
<title>dir_ef68f1e1f5148ff8ef7fb1c955106c3c</title>
<g id="a_node2"><a xlink:href="dir_ef68f1e1f5148ff8ef7fb1c955106c3c.html" target="_top" xlink:title="System">
<polygon fill="none" stroke="red" points="93,-108 39,-108 39,-72 93,-72 93,-108"/>
<text text-anchor="middle" x="66" y="-87.5" font-family="Helvetica,sans-Serif" font-size="10.00">System</text>
</a>
</g>
</g>
<!-- dir_9a2340c01aedb0f76560dc44ac9c4ec3&#45;&gt;dir_ef68f1e1f5148ff8ef7fb1c955106c3c -->
<g id="edge2" class="edge">
<title>dir_9a2340c01aedb0f76560dc44ac9c4ec3&#45;&gt;dir_ef68f1e1f5148ff8ef7fb1c955106c3c</title>
<path fill="none" stroke="black" d="M58.09,-215.87C59.62,-191.67 62.44,-147.21 64.26,-118.39"/>
<polygon fill="black" stroke="black" points="67.77,-118.39 64.91,-108.19 60.78,-117.95 67.77,-118.39"/>
<g id="a_edge2&#45;headlabel"><a xlink:href="dir_000059_000071.html" target="_top" xlink:title="4">
<text text-anchor="middle" x="70.38" y="-119.66" font-family="Helvetica,sans-Serif" font-size="10.00">4</text>
</a>
</g>
</g>
<!-- dir_995a11a27ec5ce2fce465ebbab555255 -->
<g id="node3" class="node">
<title>dir_995a11a27ec5ce2fce465ebbab555255</title>
<g id="a_node3"><a xlink:href="dir_995a11a27ec5ce2fce465ebbab555255.html" target="_top" xlink:title="ParametersHandler">
<polygon fill="none" stroke="red" points="116.5,-36 15.5,-36 15.5,0 116.5,0 116.5,-36"/>
<text text-anchor="middle" x="66" y="-15.5" font-family="Helvetica,sans-Serif" font-size="10.00">ParametersHandler</text>
</a>
</g>
</g>
<!-- dir_9a2340c01aedb0f76560dc44ac9c4ec3&#45;&gt;dir_995a11a27ec5ce2fce465ebbab555255 -->
<g id="edge3" class="edge">
<title>dir_9a2340c01aedb0f76560dc44ac9c4ec3&#45;&gt;dir_995a11a27ec5ce2fce465ebbab555255</title>
<path fill="none" stroke="black" d="M48.98,-215.74C36.24,-185.88 14.34,-122.93 30,-72 33.01,-62.22 38.51,-52.62 44.32,-44.33"/>
<polygon fill="black" stroke="black" points="47.19,-46.33 50.39,-36.23 41.59,-42.13 47.19,-46.33"/>
<g id="a_edge3&#45;headlabel"><a xlink:href="dir_000059_000046.html" target="_top" xlink:title="2">
<text text-anchor="middle" x="47.31" y="-48.41" font-family="Helvetica,sans-Serif" font-size="10.00">2</text>
</a>
</g>
</g>
<!-- dir_50541d64f188ef934de78ba6c49ffdbe -->
<g id="node4" class="node">
<title>dir_50541d64f188ef934de78ba6c49ffdbe</title>
<g id="a_node4"><a xlink:href="dir_50541d64f188ef934de78ba6c49ffdbe.html" target="_top" xlink:title="Contacts">
<polygon fill="none" stroke="red" points="141,-180 85,-180 85,-144 141,-144 141,-180"/>
<text text-anchor="middle" x="113" y="-159.5" font-family="Helvetica,sans-Serif" font-size="10.00">Contacts</text>
</a>
</g>
</g>
<!-- dir_9a2340c01aedb0f76560dc44ac9c4ec3&#45;&gt;dir_50541d64f188ef934de78ba6c49ffdbe -->
<g id="edge4" class="edge">
<title>dir_9a2340c01aedb0f76560dc44ac9c4ec3&#45;&gt;dir_50541d64f188ef934de78ba6c49ffdbe</title>
<path fill="none" stroke="black" d="M70.84,-215.7C77.49,-207.39 85.58,-197.28 92.89,-188.14"/>
<polygon fill="black" stroke="black" points="95.8,-190.1 99.32,-180.1 90.34,-185.73 95.8,-190.1"/>
<g id="a_edge4&#45;headlabel"><a xlink:href="dir_000059_000011.html" target="_top" xlink:title="1">
<text text-anchor="middle" x="95.77" y="-192.18" font-family="Helvetica,sans-Serif" font-size="10.00">1</text>
</a>
</g>
</g>
<!-- dir_ef68f1e1f5148ff8ef7fb1c955106c3c&#45;&gt;dir_995a11a27ec5ce2fce465ebbab555255 -->
<g id="edge1" class="edge">
<title>dir_ef68f1e1f5148ff8ef7fb1c955106c3c&#45;&gt;dir_995a11a27ec5ce2fce465ebbab555255</title>
<path fill="none" stroke="black" d="M66,-71.7C66,-63.98 66,-54.71 66,-46.11"/>
<polygon fill="black" stroke="black" points="69.5,-46.1 66,-36.1 62.5,-46.1 69.5,-46.1"/>
<g id="a_edge1&#45;headlabel"><a xlink:href="dir_000071_000046.html" target="_top" xlink:title="3">
<text text-anchor="middle" x="72.34" y="-47.2" font-family="Helvetica,sans-Serif" font-size="10.00">3</text>
</a>
</g>
</g>
<!-- dir_50541d64f188ef934de78ba6c49ffdbe&#45;&gt;dir_ef68f1e1f5148ff8ef7fb1c955106c3c -->
<g id="edge5" class="edge">
<title>dir_50541d64f188ef934de78ba6c49ffdbe&#45;&gt;dir_ef68f1e1f5148ff8ef7fb1c955106c3c</title>
<path fill="none" stroke="black" d="M101.38,-143.7C95.86,-135.47 89.15,-125.48 83.07,-116.42"/>
<polygon fill="black" stroke="black" points="85.96,-114.46 77.48,-108.1 80.15,-118.36 85.96,-114.46"/>
<g id="a_edge5&#45;headlabel"><a xlink:href="dir_000011_000071.html" target="_top" xlink:title="1">
<text text-anchor="middle" x="90.33" y="-113.36" font-family="Helvetica,sans-Serif" font-size="10.00">1</text>
</a>
</g>
</g>
<!-- dir_50541d64f188ef934de78ba6c49ffdbe&#45;&gt;dir_995a11a27ec5ce2fce465ebbab555255 -->
<g id="edge6" class="edge">
<title>dir_50541d64f188ef934de78ba6c49ffdbe&#45;&gt;dir_995a11a27ec5ce2fce465ebbab555255</title>
<path fill="none" stroke="black" d="M113.24,-143.7C112.95,-125.34 110.94,-95.75 102,-72 98.4,-62.42 92.73,-52.88 86.95,-44.58"/>
<polygon fill="black" stroke="black" points="89.71,-42.43 80.97,-36.44 84.07,-46.58 89.71,-42.43"/>
<g id="a_edge6&#45;headlabel"><a xlink:href="dir_000011_000046.html" target="_top" xlink:title="1">
<text text-anchor="middle" x="94.13" y="-41.15" font-family="Helvetica,sans-Serif" font-size="10.00">1</text>
</a>
</g>
</g>
</g>
</svg>
