<?xml version="1.0" encoding="UTF-8" standalone="no"?>
<!DOCTYPE svg PUBLIC "-//W3C//DTD SVG 1.1//EN"
 "http://www.w3.org/Graphics/SVG/1.1/DTD/svg11.dtd">
<!-- Generated by graphviz version 2.43.0 (0)
 -->
<!-- Title: Contacts/include/BipedalLocomotion/ContactDetectors Pages: 1 -->
<svg width="171pt" height="223pt"
 viewBox="0.00 0.00 171.00 223.00" xmlns="http://www.w3.org/2000/svg" xmlns:xlink="http://www.w3.org/1999/xlink">
<g id="graph0" class="graph" transform="scale(1 1) rotate(0) translate(4 219)">
<title>Contacts/include/BipedalLocomotion/ContactDetectors</title>
<g id="clust1" class="cluster">
<title>clusterdir_3f05e5bb63a57bd72eccc7af5274c138</title>
<g id="a_clust1"><a xlink:href="dir_3f05e5bb63a57bd72eccc7af5274c138.html" target="_top" xlink:title="BipedalLocomotion">
<polygon fill="#ddddee" stroke="black" points="45,-136 45,-207 155,-207 155,-136 45,-136"/>
<text text-anchor="middle" x="100" y="-195" font-family="Helvetica,sans-Serif" font-size="10.00">BipedalLocomotion</text>
</a>
</g>
</g>
<!-- dir_9d58fc40fd8815ed25424a9bc5b3d249 -->
<g id="node1" class="node">
<title>dir_9d58fc40fd8815ed25424a9bc5b3d249</title>
<g id="a_node1"><a xlink:href="dir_9d58fc40fd8815ed25424a9bc5b3d249.html" target="_top" xlink:title="ContactDetectors">
<polygon fill="#eeeeff" stroke="black" points="147,-180 53,-180 53,-144 147,-144 147,-180"/>
<text text-anchor="middle" x="100" y="-159.5" font-family="Helvetica,sans-Serif" font-size="10.00">ContactDetectors</text>
</a>
</g>
</g>
<!-- dir_ef68f1e1f5148ff8ef7fb1c955106c3c -->
<g id="node2" class="node">
<title>dir_ef68f1e1f5148ff8ef7fb1c955106c3c</title>
<g id="a_node2"><a xlink:href="dir_ef68f1e1f5148ff8ef7fb1c955106c3c.html" target="_top" xlink:title="System">
<polygon fill="none" stroke="red" points="54,-108 0,-108 0,-72 54,-72 54,-108"/>
<text text-anchor="middle" x="27" y="-87.5" font-family="Helvetica,sans-Serif" font-size="10.00">System</text>
</a>
</g>
</g>
<!-- dir_9d58fc40fd8815ed25424a9bc5b3d249&#45;&gt;dir_ef68f1e1f5148ff8ef7fb1c955106c3c -->
<g id="edge2" class="edge">
<title>dir_9d58fc40fd8815ed25424a9bc5b3d249&#45;&gt;dir_ef68f1e1f5148ff8ef7fb1c955106c3c</title>
<path fill="none" stroke="black" d="M81.96,-143.7C72.94,-135.05 61.88,-124.45 52.06,-115.03"/>
<polygon fill="black" stroke="black" points="54.48,-112.5 44.84,-108.1 49.63,-117.55 54.48,-112.5"/>
<g id="a_edge2&#45;headlabel"><a xlink:href="dir_000014_000071.html" target="_top" xlink:title="1">
<text text-anchor="middle" x="59.04" y="-110.44" font-family="Helvetica,sans-Serif" font-size="10.00">1</text>
</a>
</g>
</g>
<!-- dir_16fec6c370e9d5c39f9aa413b0bfb552 -->
<g id="node3" class="node">
<title>dir_16fec6c370e9d5c39f9aa413b0bfb552</title>
<g id="a_node3"><a xlink:href="dir_16fec6c370e9d5c39f9aa413b0bfb552.html" target="_top" xlink:title="Contacts">
<polygon fill="none" stroke="black" points="128,-108 72,-108 72,-72 128,-72 128,-108"/>
<text text-anchor="middle" x="100" y="-87.5" font-family="Helvetica,sans-Serif" font-size="10.00">Contacts</text>
</a>
</g>
</g>
<!-- dir_9d58fc40fd8815ed25424a9bc5b3d249&#45;&gt;dir_16fec6c370e9d5c39f9aa413b0bfb552 -->
<g id="edge3" class="edge">
<title>dir_9d58fc40fd8815ed25424a9bc5b3d249&#45;&gt;dir_16fec6c370e9d5c39f9aa413b0bfb552</title>
<path fill="none" stroke="black" d="M100,-143.7C100,-135.98 100,-126.71 100,-118.11"/>
<polygon fill="black" stroke="black" points="103.5,-118.1 100,-108.1 96.5,-118.1 103.5,-118.1"/>
<g id="a_edge3&#45;headlabel"><a xlink:href="dir_000014_000015.html" target="_top" xlink:title="1">
<text text-anchor="middle" x="106.34" y="-119.2" font-family="Helvetica,sans-Serif" font-size="10.00">1</text>
</a>
</g>
</g>
<!-- dir_995a11a27ec5ce2fce465ebbab555255 -->
<g id="node4" class="node">
<title>dir_995a11a27ec5ce2fce465ebbab555255</title>
<g id="a_node4"><a xlink:href="dir_995a11a27ec5ce2fce465ebbab555255.html" target="_top" xlink:title="ParametersHandler">
<polygon fill="none" stroke="red" points="141.5,-36 40.5,-36 40.5,0 141.5,0 141.5,-36"/>
<text text-anchor="middle" x="91" y="-15.5" font-family="Helvetica,sans-Serif" font-size="10.00">ParametersHandler</text>
</a>
</g>
</g>
<!-- dir_9d58fc40fd8815ed25424a9bc5b3d249&#45;&gt;dir_995a11a27ec5ce2fce465ebbab555255 -->
<g id="edge4" class="edge">
<title>dir_9d58fc40fd8815ed25424a9bc5b3d249&#45;&gt;dir_995a11a27ec5ce2fce465ebbab555255</title>
<path fill="none" stroke="black" d="M116.04,-143.85C124.01,-134.12 132.83,-121.27 137,-108 141.8,-92.74 142.6,-86.99 137,-72 133.12,-61.62 126.2,-51.93 118.88,-43.74"/>
<polygon fill="black" stroke="black" points="121.27,-41.18 111.82,-36.38 116.22,-46.03 121.27,-41.18"/>
<g id="a_edge4&#45;headlabel"><a xlink:href="dir_000014_000046.html" target="_top" xlink:title="1">
<text text-anchor="middle" x="125.81" y="-39.31" font-family="Helvetica,sans-Serif" font-size="10.00">1</text>
</a>
</g>
</g>
<!-- dir_ef68f1e1f5148ff8ef7fb1c955106c3c&#45;&gt;dir_995a11a27ec5ce2fce465ebbab555255 -->
<g id="edge1" class="edge">
<title>dir_ef68f1e1f5148ff8ef7fb1c955106c3c&#45;&gt;dir_995a11a27ec5ce2fce465ebbab555255</title>
<path fill="none" stroke="black" d="M42.82,-71.7C50.57,-63.22 60.04,-52.86 68.52,-43.58"/>
<polygon fill="black" stroke="black" points="71.2,-45.85 75.36,-36.1 66.03,-41.12 71.2,-45.85"/>
<g id="a_edge1&#45;headlabel"><a xlink:href="dir_000071_000046.html" target="_top" xlink:title="3">
<text text-anchor="middle" x="70.87" y="-47.92" font-family="Helvetica,sans-Serif" font-size="10.00">3</text>
</a>
</g>
</g>
</g>
</svg>
