<?xml version="1.0" encoding="UTF-8" standalone="no"?>
<!DOCTYPE svg PUBLIC "-//W3C//DTD SVG 1.1//EN"
 "http://www.w3.org/Graphics/SVG/1.1/DTD/svg11.dtd">
<!-- Generated by graphviz version 2.43.0 (0)
 -->
<!-- Title: RobotInterface/YarpImplementation/include/BipedalLocomotion Pages: 1 -->
<svg width="272pt" height="231pt"
 viewBox="0.00 0.00 272.00 231.00" xmlns="http://www.w3.org/2000/svg" xmlns:xlink="http://www.w3.org/1999/xlink">
<g id="graph0" class="graph" transform="scale(1 1) rotate(0) translate(4 227)">
<title>RobotInterface/YarpImplementation/include/BipedalLocomotion</title>
<g id="clust1" class="cluster">
<title>clusterdir_c9ecf35bb6ca9c90f7c8106eb0f248ed</title>
<g id="a_clust1"><a xlink:href="dir_c9ecf35bb6ca9c90f7c8106eb0f248ed.html" target="_top" xlink:title="include">
<polygon fill="#ddddee" stroke="black" points="25,-128 25,-215 256,-215 256,-128 25,-128"/>
<text text-anchor="middle" x="140.5" y="-203" font-family="Helvetica,sans-Serif" font-size="10.00">include</text>
</a>
</g>
</g>
<g id="clust2" class="cluster">
<title>clusterdir_6d7a1fbb1996e04a5d9e5687233f00d1</title>
<g id="a_clust2"><a xlink:href="dir_6d7a1fbb1996e04a5d9e5687233f00d1.html" target="_top">
<polygon fill="#eeeeff" stroke="black" points="33,-136 33,-188 248,-188 248,-136 33,-136"/>
</a>
</g>
</g>
<!-- dir_6d7a1fbb1996e04a5d9e5687233f00d1 -->
<g id="node1" class="node">
<title>dir_6d7a1fbb1996e04a5d9e5687233f00d1</title>
<text text-anchor="middle" x="190" y="-159.5" font-family="Helvetica,sans-Serif" font-size="10.00">BipedalLocomotion</text>
</g>
<!-- dir_c3a15aafaca1b50380f5f9f32b075f72 -->
<g id="node2" class="node">
<title>dir_c3a15aafaca1b50380f5f9f32b075f72</title>
<g id="a_node2"><a xlink:href="dir_c3a15aafaca1b50380f5f9f32b075f72.html" target="_top" xlink:title="RobotInterface">
<polygon fill="white" stroke="black" points="122.5,-180 41.5,-180 41.5,-144 122.5,-144 122.5,-180"/>
<text text-anchor="middle" x="82" y="-159.5" font-family="Helvetica,sans-Serif" font-size="10.00">RobotInterface</text>
</a>
</g>
</g>
<!-- dir_ef68f1e1f5148ff8ef7fb1c955106c3c -->
<g id="node3" class="node">
<title>dir_ef68f1e1f5148ff8ef7fb1c955106c3c</title>
<g id="a_node3"><a xlink:href="dir_ef68f1e1f5148ff8ef7fb1c955106c3c.html" target="_top" xlink:title="System">
<polygon fill="none" stroke="red" points="54,-108 0,-108 0,-72 54,-72 54,-108"/>
<text text-anchor="middle" x="27" y="-87.5" font-family="Helvetica,sans-Serif" font-size="10.00">System</text>
</a>
</g>
</g>
<!-- dir_c3a15aafaca1b50380f5f9f32b075f72&#45;&gt;dir_ef68f1e1f5148ff8ef7fb1c955106c3c -->
<g id="edge2" class="edge">
<title>dir_c3a15aafaca1b50380f5f9f32b075f72&#45;&gt;dir_ef68f1e1f5148ff8ef7fb1c955106c3c</title>
<path fill="none" stroke="black" d="M68.4,-143.7C61.88,-135.39 53.93,-125.28 46.75,-116.14"/>
<polygon fill="black" stroke="black" points="49.37,-113.81 40.44,-108.1 43.87,-118.13 49.37,-113.81"/>
<g id="a_edge2&#45;headlabel"><a xlink:href="dir_000069_000071.html" target="_top" xlink:title="1">
<text text-anchor="middle" x="53.82" y="-112.38" font-family="Helvetica,sans-Serif" font-size="10.00">1</text>
</a>
</g>
</g>
<!-- dir_995a11a27ec5ce2fce465ebbab555255 -->
<g id="node4" class="node">
<title>dir_995a11a27ec5ce2fce465ebbab555255</title>
<g id="a_node4"><a xlink:href="dir_995a11a27ec5ce2fce465ebbab555255.html" target="_top" xlink:title="ParametersHandler">
<polygon fill="none" stroke="red" points="132.5,-36 31.5,-36 31.5,0 132.5,0 132.5,-36"/>
<text text-anchor="middle" x="82" y="-15.5" font-family="Helvetica,sans-Serif" font-size="10.00">ParametersHandler</text>
</a>
</g>
</g>
<!-- dir_c3a15aafaca1b50380f5f9f32b075f72&#45;&gt;dir_995a11a27ec5ce2fce465ebbab555255 -->
<g id="edge3" class="edge">
<title>dir_c3a15aafaca1b50380f5f9f32b075f72&#45;&gt;dir_995a11a27ec5ce2fce465ebbab555255</title>
<path fill="none" stroke="black" d="M82,-143.87C82,-119.67 82,-75.21 82,-46.39"/>
<polygon fill="black" stroke="black" points="85.5,-46.19 82,-36.19 78.5,-46.19 85.5,-46.19"/>
<g id="a_edge3&#45;headlabel"><a xlink:href="dir_000069_000046.html" target="_top" xlink:title="1">
<text text-anchor="middle" x="88.34" y="-47.28" font-family="Helvetica,sans-Serif" font-size="10.00">1</text>
</a>
</g>
</g>
<!-- dir_2ddfa6bbaecaa13cbf0c44c7a8ab174d -->
<g id="node5" class="node">
<title>dir_2ddfa6bbaecaa13cbf0c44c7a8ab174d</title>
<g id="a_node5"><a xlink:href="dir_2ddfa6bbaecaa13cbf0c44c7a8ab174d.html" target="_top" xlink:title="include">
<polygon fill="none" stroke="red" points="164,-108 110,-108 110,-72 164,-72 164,-108"/>
<text text-anchor="middle" x="137" y="-87.5" font-family="Helvetica,sans-Serif" font-size="10.00">include</text>
</a>
</g>
</g>
<!-- dir_c3a15aafaca1b50380f5f9f32b075f72&#45;&gt;dir_2ddfa6bbaecaa13cbf0c44c7a8ab174d -->
<g id="edge4" class="edge">
<title>dir_c3a15aafaca1b50380f5f9f32b075f72&#45;&gt;dir_2ddfa6bbaecaa13cbf0c44c7a8ab174d</title>
<path fill="none" stroke="black" d="M95.6,-143.7C102.12,-135.39 110.07,-125.28 117.25,-116.14"/>
<polygon fill="black" stroke="black" points="120.13,-118.13 123.56,-108.1 114.63,-113.81 120.13,-118.13"/>
<g id="a_edge4&#45;headlabel"><a xlink:href="dir_000069_000062.html" target="_top" xlink:title="2">
<text text-anchor="middle" x="120.15" y="-120.21" font-family="Helvetica,sans-Serif" font-size="10.00">2</text>
</a>
</g>
</g>
<!-- dir_ef68f1e1f5148ff8ef7fb1c955106c3c&#45;&gt;dir_995a11a27ec5ce2fce465ebbab555255 -->
<g id="edge1" class="edge">
<title>dir_ef68f1e1f5148ff8ef7fb1c955106c3c&#45;&gt;dir_995a11a27ec5ce2fce465ebbab555255</title>
<path fill="none" stroke="black" d="M40.6,-71.7C47.12,-63.39 55.07,-53.28 62.25,-44.14"/>
<polygon fill="black" stroke="black" points="65.13,-46.13 68.56,-36.1 59.63,-41.81 65.13,-46.13"/>
<g id="a_edge1&#45;headlabel"><a xlink:href="dir_000071_000046.html" target="_top" xlink:title="3">
<text text-anchor="middle" x="65.15" y="-48.21" font-family="Helvetica,sans-Serif" font-size="10.00">3</text>
</a>
</g>
</g>
<!-- dir_2ddfa6bbaecaa13cbf0c44c7a8ab174d&#45;&gt;dir_995a11a27ec5ce2fce465ebbab555255 -->
<g id="edge5" class="edge">
<title>dir_2ddfa6bbaecaa13cbf0c44c7a8ab174d&#45;&gt;dir_995a11a27ec5ce2fce465ebbab555255</title>
<path fill="none" stroke="black" d="M123.4,-71.7C116.88,-63.39 108.93,-53.28 101.75,-44.14"/>
<polygon fill="black" stroke="black" points="104.37,-41.81 95.44,-36.1 98.87,-46.13 104.37,-41.81"/>
<g id="a_edge5&#45;headlabel"><a xlink:href="dir_000062_000046.html" target="_top" xlink:title="2">
<text text-anchor="middle" x="108.82" y="-40.38" font-family="Helvetica,sans-Serif" font-size="10.00">2</text>
</a>
</g>
</g>
</g>
</svg>
