<?xml version="1.0" encoding="UTF-8" standalone="no"?>
<!DOCTYPE svg PUBLIC "-//W3C//DTD SVG 1.1//EN"
 "http://www.w3.org/Graphics/SVG/1.1/DTD/svg11.dtd">
<!-- Generated by graphviz version 2.43.0 (0)
 -->
<!-- Title: IK/src Pages: 1 -->
<svg width="239pt" height="151pt"
 viewBox="0.00 0.00 239.00 151.00" xmlns="http://www.w3.org/2000/svg" xmlns:xlink="http://www.w3.org/1999/xlink">
<g id="graph0" class="graph" transform="scale(1 1) rotate(0) translate(4 147)">
<title>IK/src</title>
<g id="clust1" class="cluster">
<title>clusterdir_66c66c13cf9158c1f22f6cf6d3ba76a2</title>
<g id="a_clust1"><a xlink:href="dir_66c66c13cf9158c1f22f6cf6d3ba76a2.html" target="_top" xlink:title="IK">
<polygon fill="#ddddee" stroke="black" points="79.5,-64 79.5,-135 149.5,-135 149.5,-64 79.5,-64"/>
<text text-anchor="middle" x="114.5" y="-123" font-family="Helvetica,sans-Serif" font-size="10.00">IK</text>
</a>
</g>
</g>
<!-- dir_13d238e9d5ba4cdcfd0b66121a5bbe03 -->
<g id="node1" class="node">
<title>dir_13d238e9d5ba4cdcfd0b66121a5bbe03</title>
<g id="a_node1"><a xlink:href="dir_13d238e9d5ba4cdcfd0b66121a5bbe03.html" target="_top" xlink:title="src">
<polygon fill="#eeeeff" stroke="black" points="141.5,-108 87.5,-108 87.5,-72 141.5,-72 141.5,-108"/>
<text text-anchor="middle" x="114.5" y="-87.5" font-family="Helvetica,sans-Serif" font-size="10.00">src</text>
</a>
</g>
</g>
<!-- dir_4118ae531ffdde861fee1c6efaa3009d -->
<g id="node2" class="node">
<title>dir_4118ae531ffdde861fee1c6efaa3009d</title>
<g id="a_node2"><a xlink:href="dir_4118ae531ffdde861fee1c6efaa3009d.html" target="_top" xlink:title="TextLogging">
<polygon fill="none" stroke="red" points="69,-36 0,-36 0,0 69,0 69,-36"/>
<text text-anchor="middle" x="34.5" y="-15.5" font-family="Helvetica,sans-Serif" font-size="10.00">TextLogging</text>
</a>
</g>
</g>
<!-- dir_13d238e9d5ba4cdcfd0b66121a5bbe03&#45;&gt;dir_4118ae531ffdde861fee1c6efaa3009d -->
<g id="edge1" class="edge">
<title>dir_13d238e9d5ba4cdcfd0b66121a5bbe03&#45;&gt;dir_4118ae531ffdde861fee1c6efaa3009d</title>
<path fill="none" stroke="black" d="M94.72,-71.7C84.75,-62.97 72.49,-52.24 61.64,-42.75"/>
<polygon fill="black" stroke="black" points="63.88,-40.06 54.05,-36.1 59.27,-45.32 63.88,-40.06"/>
<g id="a_edge1&#45;headlabel"><a xlink:href="dir_000039_000076.html" target="_top" xlink:title="5">
<text text-anchor="middle" x="68.45" y="-37.79" font-family="Helvetica,sans-Serif" font-size="10.00">5</text>
</a>
</g>
</g>
<!-- dir_67dd381f86eec7791e9db8646ed74f67 -->
<g id="node3" class="node">
<title>dir_67dd381f86eec7791e9db8646ed74f67</title>
<g id="a_node3"><a xlink:href="dir_67dd381f86eec7791e9db8646ed74f67.html" target="_top" xlink:title="include">
<polygon fill="none" stroke="red" points="141.5,-36 87.5,-36 87.5,0 141.5,0 141.5,-36"/>
<text text-anchor="middle" x="114.5" y="-15.5" font-family="Helvetica,sans-Serif" font-size="10.00">include</text>
</a>
</g>
</g>
<!-- dir_13d238e9d5ba4cdcfd0b66121a5bbe03&#45;&gt;dir_67dd381f86eec7791e9db8646ed74f67 -->
<g id="edge2" class="edge">
<title>dir_13d238e9d5ba4cdcfd0b66121a5bbe03&#45;&gt;dir_67dd381f86eec7791e9db8646ed74f67</title>
<path fill="none" stroke="black" d="M114.5,-71.7C114.5,-63.98 114.5,-54.71 114.5,-46.11"/>
<polygon fill="black" stroke="black" points="118,-46.1 114.5,-36.1 111,-46.1 118,-46.1"/>
<g id="a_edge2&#45;headlabel"><a xlink:href="dir_000039_000032.html" target="_top" xlink:title="7">
<text text-anchor="middle" x="120.84" y="-47.2" font-family="Helvetica,sans-Serif" font-size="10.00">7</text>
</a>
</g>
</g>
<!-- dir_67ecbf5b3dd37b0be5aedd0167f75fa8 -->
<g id="node4" class="node">
<title>dir_67ecbf5b3dd37b0be5aedd0167f75fa8</title>
<g id="a_node4"><a xlink:href="dir_67ecbf5b3dd37b0be5aedd0167f75fa8.html" target="_top" xlink:title="Conversions">
<polygon fill="none" stroke="red" points="231,-36 160,-36 160,0 231,0 231,-36"/>
<text text-anchor="middle" x="195.5" y="-15.5" font-family="Helvetica,sans-Serif" font-size="10.00">Conversions</text>
</a>
</g>
</g>
<!-- dir_13d238e9d5ba4cdcfd0b66121a5bbe03&#45;&gt;dir_67ecbf5b3dd37b0be5aedd0167f75fa8 -->
<g id="edge3" class="edge">
<title>dir_13d238e9d5ba4cdcfd0b66121a5bbe03&#45;&gt;dir_67ecbf5b3dd37b0be5aedd0167f75fa8</title>
<path fill="none" stroke="black" d="M134.52,-71.7C144.63,-62.97 157.04,-52.24 168.02,-42.75"/>
<polygon fill="black" stroke="black" points="170.43,-45.29 175.71,-36.1 165.85,-39.99 170.43,-45.29"/>
<g id="a_edge3&#45;headlabel"><a xlink:href="dir_000039_000017.html" target="_top" xlink:title="3">
<text text-anchor="middle" x="169.57" y="-47.29" font-family="Helvetica,sans-Serif" font-size="10.00">3</text>
</a>
</g>
</g>
</g>
</svg>
