<?xml version="1.0" encoding="UTF-8" standalone="no"?>
<!DOCTYPE svg PUBLIC "-//W3C//DTD SVG 1.1//EN"
 "http://www.w3.org/Graphics/SVG/1.1/DTD/svg11.dtd">
<!-- Generated by graphviz version 2.43.0 (0)
 -->
<!-- Title: TSID Pages: 1 -->
<svg width="226pt" height="276pt"
 viewBox="0.00 0.00 225.50 276.00" xmlns="http://www.w3.org/2000/svg" xmlns:xlink="http://www.w3.org/1999/xlink">
<g id="graph0" class="graph" transform="scale(1 1) rotate(0) translate(4 272)">
<title>TSID</title>
<g id="clust1" class="cluster">
<title>clusterdir_de4f433f8e8737405f5d27169f100f21</title>
<g id="a_clust1"><a xlink:href="dir_de4f433f8e8737405f5d27169f100f21.html" target="_top">
<polygon fill="#eeeeff" stroke="black" points="67.5,-136 67.5,-260 209.5,-260 209.5,-136 67.5,-136"/>
</a>
</g>
</g>
<!-- dir_de4f433f8e8737405f5d27169f100f21 -->
<g id="node1" class="node">
<title>dir_de4f433f8e8737405f5d27169f100f21</title>
<text text-anchor="middle" x="174.5" y="-231.5" font-family="Helvetica,sans-Serif" font-size="10.00">TSID</text>
</g>
<!-- dir_b3fde19edb359d87d45749a75c85f30a -->
<g id="node2" class="node">
<title>dir_b3fde19edb359d87d45749a75c85f30a</title>
<g id="a_node2"><a xlink:href="dir_b3fde19edb359d87d45749a75c85f30a.html" target="_top" xlink:title="include">
<polygon fill="white" stroke="red" points="129.5,-180 75.5,-180 75.5,-144 129.5,-144 129.5,-180"/>
<text text-anchor="middle" x="102.5" y="-159.5" font-family="Helvetica,sans-Serif" font-size="10.00">include</text>
</a>
</g>
</g>
<!-- dir_ef68f1e1f5148ff8ef7fb1c955106c3c -->
<g id="node4" class="node">
<title>dir_ef68f1e1f5148ff8ef7fb1c955106c3c</title>
<g id="a_node4"><a xlink:href="dir_ef68f1e1f5148ff8ef7fb1c955106c3c.html" target="_top" xlink:title="System">
<polygon fill="none" stroke="red" points="129.5,-108 75.5,-108 75.5,-72 129.5,-72 129.5,-108"/>
<text text-anchor="middle" x="102.5" y="-87.5" font-family="Helvetica,sans-Serif" font-size="10.00">System</text>
</a>
</g>
</g>
<!-- dir_b3fde19edb359d87d45749a75c85f30a&#45;&gt;dir_ef68f1e1f5148ff8ef7fb1c955106c3c -->
<g id="edge5" class="edge">
<title>dir_b3fde19edb359d87d45749a75c85f30a&#45;&gt;dir_ef68f1e1f5148ff8ef7fb1c955106c3c</title>
<path fill="none" stroke="black" d="M102.5,-143.7C102.5,-135.98 102.5,-126.71 102.5,-118.11"/>
<polygon fill="black" stroke="black" points="106,-118.1 102.5,-108.1 99,-118.1 106,-118.1"/>
<g id="a_edge5&#45;headlabel"><a xlink:href="dir_000036_000071.html" target="_top" xlink:title="1">
<text text-anchor="middle" x="108.84" y="-119.2" font-family="Helvetica,sans-Serif" font-size="10.00">1</text>
</a>
</g>
</g>
<!-- dir_995a11a27ec5ce2fce465ebbab555255 -->
<g id="node6" class="node">
<title>dir_995a11a27ec5ce2fce465ebbab555255</title>
<g id="a_node6"><a xlink:href="dir_995a11a27ec5ce2fce465ebbab555255.html" target="_top" xlink:title="ParametersHandler">
<polygon fill="none" stroke="red" points="101,-36 0,-36 0,0 101,0 101,-36"/>
<text text-anchor="middle" x="50.5" y="-15.5" font-family="Helvetica,sans-Serif" font-size="10.00">ParametersHandler</text>
</a>
</g>
</g>
<!-- dir_b3fde19edb359d87d45749a75c85f30a&#45;&gt;dir_995a11a27ec5ce2fce465ebbab555255 -->
<g id="edge6" class="edge">
<title>dir_b3fde19edb359d87d45749a75c85f30a&#45;&gt;dir_995a11a27ec5ce2fce465ebbab555255</title>
<path fill="none" stroke="black" d="M88.17,-143.92C80.6,-134.02 71.79,-120.98 66.5,-108 58.46,-88.29 54.45,-64.48 52.45,-46.45"/>
<polygon fill="black" stroke="black" points="55.92,-45.94 51.47,-36.32 48.95,-46.61 55.92,-45.94"/>
<g id="a_edge6&#45;headlabel"><a xlink:href="dir_000036_000046.html" target="_top" xlink:title="1">
<text text-anchor="middle" x="59.09" y="-46.74" font-family="Helvetica,sans-Serif" font-size="10.00">1</text>
</a>
</g>
</g>
<!-- dir_07065c84b9485f7d9476634ae8bd8fb1 -->
<g id="node3" class="node">
<title>dir_07065c84b9485f7d9476634ae8bd8fb1</title>
<g id="a_node3"><a xlink:href="dir_07065c84b9485f7d9476634ae8bd8fb1.html" target="_top" xlink:title="src">
<polygon fill="white" stroke="black" points="129.5,-252 75.5,-252 75.5,-216 129.5,-216 129.5,-252"/>
<text text-anchor="middle" x="102.5" y="-231.5" font-family="Helvetica,sans-Serif" font-size="10.00">src</text>
</a>
</g>
</g>
<!-- dir_07065c84b9485f7d9476634ae8bd8fb1&#45;&gt;dir_b3fde19edb359d87d45749a75c85f30a -->
<g id="edge4" class="edge">
<title>dir_07065c84b9485f7d9476634ae8bd8fb1&#45;&gt;dir_b3fde19edb359d87d45749a75c85f30a</title>
<path fill="none" stroke="black" d="M102.5,-215.7C102.5,-207.98 102.5,-198.71 102.5,-190.11"/>
<polygon fill="black" stroke="black" points="106,-190.1 102.5,-180.1 99,-190.1 106,-190.1"/>
<g id="a_edge4&#45;headlabel"><a xlink:href="dir_000040_000036.html" target="_top" xlink:title="5">
<text text-anchor="middle" x="108.84" y="-191.2" font-family="Helvetica,sans-Serif" font-size="10.00">5</text>
</a>
</g>
</g>
<!-- dir_67ecbf5b3dd37b0be5aedd0167f75fa8 -->
<g id="node5" class="node">
<title>dir_67ecbf5b3dd37b0be5aedd0167f75fa8</title>
<g id="a_node5"><a xlink:href="dir_67ecbf5b3dd37b0be5aedd0167f75fa8.html" target="_top" xlink:title="Conversions">
<polygon fill="none" stroke="red" points="191,-36 120,-36 120,0 191,0 191,-36"/>
<text text-anchor="middle" x="155.5" y="-15.5" font-family="Helvetica,sans-Serif" font-size="10.00">Conversions</text>
</a>
</g>
</g>
<!-- dir_07065c84b9485f7d9476634ae8bd8fb1&#45;&gt;dir_67ecbf5b3dd37b0be5aedd0167f75fa8 -->
<g id="edge3" class="edge">
<title>dir_07065c84b9485f7d9476634ae8bd8fb1&#45;&gt;dir_67ecbf5b3dd37b0be5aedd0167f75fa8</title>
<path fill="none" stroke="black" d="M117.56,-215.59C125.16,-205.79 133.76,-192.95 138.5,-180 154.91,-135.18 157.03,-78.99 156.6,-46.22"/>
<polygon fill="black" stroke="black" points="160.09,-45.98 156.37,-36.06 153.09,-46.14 160.09,-45.98"/>
<g id="a_edge3&#45;headlabel"><a xlink:href="dir_000040_000017.html" target="_top" xlink:title="1">
<text text-anchor="middle" x="163.01" y="-47.01" font-family="Helvetica,sans-Serif" font-size="10.00">1</text>
</a>
</g>
</g>
<!-- dir_ef68f1e1f5148ff8ef7fb1c955106c3c&#45;&gt;dir_67ecbf5b3dd37b0be5aedd0167f75fa8 -->
<g id="edge1" class="edge">
<title>dir_ef68f1e1f5148ff8ef7fb1c955106c3c&#45;&gt;dir_67ecbf5b3dd37b0be5aedd0167f75fa8</title>
<path fill="none" stroke="black" d="M115.6,-71.7C121.89,-63.39 129.55,-53.28 136.46,-44.14"/>
<polygon fill="black" stroke="black" points="139.3,-46.19 142.55,-36.1 133.72,-41.96 139.3,-46.19"/>
<g id="a_edge1&#45;headlabel"><a xlink:href="dir_000071_000017.html" target="_top" xlink:title="1">
<text text-anchor="middle" x="139.4" y="-48.27" font-family="Helvetica,sans-Serif" font-size="10.00">1</text>
</a>
</g>
</g>
<!-- dir_ef68f1e1f5148ff8ef7fb1c955106c3c&#45;&gt;dir_995a11a27ec5ce2fce465ebbab555255 -->
<g id="edge2" class="edge">
<title>dir_ef68f1e1f5148ff8ef7fb1c955106c3c&#45;&gt;dir_995a11a27ec5ce2fce465ebbab555255</title>
<path fill="none" stroke="black" d="M89.65,-71.7C83.47,-63.39 75.96,-53.28 69.18,-44.14"/>
<polygon fill="black" stroke="black" points="71.98,-42.04 63.21,-36.1 66.36,-46.22 71.98,-42.04"/>
<g id="a_edge2&#45;headlabel"><a xlink:href="dir_000071_000046.html" target="_top" xlink:title="3">
<text text-anchor="middle" x="76.4" y="-40.74" font-family="Helvetica,sans-Serif" font-size="10.00">3</text>
</a>
</g>
</g>
</g>
</svg>
