<?xml version="1.0" encoding="UTF-8" standalone="no"?>
<!DOCTYPE svg PUBLIC "-//W3C//DTD SVG 1.1//EN"
 "http://www.w3.org/Graphics/SVG/1.1/DTD/svg11.dtd">
<!-- Generated by graphviz version 2.43.0 (0)
 -->
<!-- Title: Estimators/include Pages: 1 -->
<svg width="228pt" height="303pt"
 viewBox="0.00 0.00 228.00 303.00" xmlns="http://www.w3.org/2000/svg" xmlns:xlink="http://www.w3.org/1999/xlink">
<g id="graph0" class="graph" transform="scale(1 1) rotate(0) translate(4 299)">
<title>Estimators/include</title>
<g id="clust1" class="cluster">
<title>clusterdir_941407157475547b8b358a98f0692190</title>
<g id="a_clust1"><a xlink:href="dir_941407157475547b8b358a98f0692190.html" target="_top" xlink:title="Estimators">
<polygon fill="#ddddee" stroke="black" points="8,-200 8,-287 212,-287 212,-200 8,-200"/>
<text text-anchor="middle" x="110" y="-275" font-family="Helvetica,sans-Serif" font-size="10.00">Estimators</text>
</a>
</g>
</g>
<g id="clust2" class="cluster">
<title>clusterdir_83e72bb223dd52ca9520cbeb993359a4</title>
<g id="a_clust2"><a xlink:href="dir_83e72bb223dd52ca9520cbeb993359a4.html" target="_top">
<polygon fill="#eeeeff" stroke="black" points="16,-208 16,-260 204,-260 204,-208 16,-208"/>
</a>
</g>
</g>
<!-- dir_83e72bb223dd52ca9520cbeb993359a4 -->
<g id="node1" class="node">
<title>dir_83e72bb223dd52ca9520cbeb993359a4</title>
<text text-anchor="middle" x="169" y="-231.5" font-family="Helvetica,sans-Serif" font-size="10.00">include</text>
</g>
<!-- dir_76b3c42c31613a4250722fde83b07506 -->
<g id="node2" class="node">
<title>dir_76b3c42c31613a4250722fde83b07506</title>
<g id="a_node2"><a xlink:href="dir_76b3c42c31613a4250722fde83b07506.html" target="_top" xlink:title="BipedalLocomotion">
<polygon fill="white" stroke="red" points="123.5,-252 24.5,-252 24.5,-216 123.5,-216 123.5,-252"/>
<text text-anchor="middle" x="74" y="-231.5" font-family="Helvetica,sans-Serif" font-size="10.00">BipedalLocomotion</text>
</a>
</g>
</g>
<!-- dir_ef68f1e1f5148ff8ef7fb1c955106c3c -->
<g id="node3" class="node">
<title>dir_ef68f1e1f5148ff8ef7fb1c955106c3c</title>
<g id="a_node3"><a xlink:href="dir_ef68f1e1f5148ff8ef7fb1c955106c3c.html" target="_top" xlink:title="System">
<polygon fill="none" stroke="red" points="110,-108 56,-108 56,-72 110,-72 110,-108"/>
<text text-anchor="middle" x="83" y="-87.5" font-family="Helvetica,sans-Serif" font-size="10.00">System</text>
</a>
</g>
</g>
<!-- dir_76b3c42c31613a4250722fde83b07506&#45;&gt;dir_ef68f1e1f5148ff8ef7fb1c955106c3c -->
<g id="edge4" class="edge">
<title>dir_76b3c42c31613a4250722fde83b07506&#45;&gt;dir_ef68f1e1f5148ff8ef7fb1c955106c3c</title>
<path fill="none" stroke="black" d="M75.09,-215.87C76.62,-191.67 79.44,-147.21 81.26,-118.39"/>
<polygon fill="black" stroke="black" points="84.77,-118.39 81.91,-108.19 77.78,-117.95 84.77,-118.39"/>
<g id="a_edge4&#45;headlabel"><a xlink:href="dir_000023_000071.html" target="_top" xlink:title="2">
<text text-anchor="middle" x="87.38" y="-119.66" font-family="Helvetica,sans-Serif" font-size="10.00">2</text>
</a>
</g>
</g>
<!-- dir_995a11a27ec5ce2fce465ebbab555255 -->
<g id="node4" class="node">
<title>dir_995a11a27ec5ce2fce465ebbab555255</title>
<g id="a_node4"><a xlink:href="dir_995a11a27ec5ce2fce465ebbab555255.html" target="_top" xlink:title="ParametersHandler">
<polygon fill="none" stroke="red" points="133.5,-36 32.5,-36 32.5,0 133.5,0 133.5,-36"/>
<text text-anchor="middle" x="83" y="-15.5" font-family="Helvetica,sans-Serif" font-size="10.00">ParametersHandler</text>
</a>
</g>
</g>
<!-- dir_76b3c42c31613a4250722fde83b07506&#45;&gt;dir_995a11a27ec5ce2fce465ebbab555255 -->
<g id="edge5" class="edge">
<title>dir_76b3c42c31613a4250722fde83b07506&#45;&gt;dir_995a11a27ec5ce2fce465ebbab555255</title>
<path fill="none" stroke="black" d="M65.98,-215.74C53.24,-185.88 31.34,-122.93 47,-72 50.01,-62.22 55.51,-52.62 61.32,-44.33"/>
<polygon fill="black" stroke="black" points="64.19,-46.33 67.39,-36.23 58.59,-42.13 64.19,-46.33"/>
<g id="a_edge5&#45;headlabel"><a xlink:href="dir_000023_000046.html" target="_top" xlink:title="3">
<text text-anchor="middle" x="64.31" y="-48.41" font-family="Helvetica,sans-Serif" font-size="10.00">3</text>
</a>
</g>
</g>
<!-- dir_50541d64f188ef934de78ba6c49ffdbe -->
<g id="node5" class="node">
<title>dir_50541d64f188ef934de78ba6c49ffdbe</title>
<g id="a_node5"><a xlink:href="dir_50541d64f188ef934de78ba6c49ffdbe.html" target="_top" xlink:title="Contacts">
<polygon fill="none" stroke="red" points="158,-180 102,-180 102,-144 158,-144 158,-180"/>
<text text-anchor="middle" x="130" y="-159.5" font-family="Helvetica,sans-Serif" font-size="10.00">Contacts</text>
</a>
</g>
</g>
<!-- dir_76b3c42c31613a4250722fde83b07506&#45;&gt;dir_50541d64f188ef934de78ba6c49ffdbe -->
<g id="edge6" class="edge">
<title>dir_76b3c42c31613a4250722fde83b07506&#45;&gt;dir_50541d64f188ef934de78ba6c49ffdbe</title>
<path fill="none" stroke="black" d="M87.84,-215.7C94.49,-207.39 102.58,-197.28 109.89,-188.14"/>
<polygon fill="black" stroke="black" points="112.8,-190.1 116.32,-180.1 107.34,-185.73 112.8,-190.1"/>
<g id="a_edge6&#45;headlabel"><a xlink:href="dir_000023_000011.html" target="_top" xlink:title="1">
<text text-anchor="middle" x="112.77" y="-192.18" font-family="Helvetica,sans-Serif" font-size="10.00">1</text>
</a>
</g>
</g>
<!-- dir_ef68f1e1f5148ff8ef7fb1c955106c3c&#45;&gt;dir_995a11a27ec5ce2fce465ebbab555255 -->
<g id="edge1" class="edge">
<title>dir_ef68f1e1f5148ff8ef7fb1c955106c3c&#45;&gt;dir_995a11a27ec5ce2fce465ebbab555255</title>
<path fill="none" stroke="black" d="M83,-71.7C83,-63.98 83,-54.71 83,-46.11"/>
<polygon fill="black" stroke="black" points="86.5,-46.1 83,-36.1 79.5,-46.1 86.5,-46.1"/>
<g id="a_edge1&#45;headlabel"><a xlink:href="dir_000071_000046.html" target="_top" xlink:title="3">
<text text-anchor="middle" x="89.34" y="-47.2" font-family="Helvetica,sans-Serif" font-size="10.00">3</text>
</a>
</g>
</g>
<!-- dir_50541d64f188ef934de78ba6c49ffdbe&#45;&gt;dir_ef68f1e1f5148ff8ef7fb1c955106c3c -->
<g id="edge2" class="edge">
<title>dir_50541d64f188ef934de78ba6c49ffdbe&#45;&gt;dir_ef68f1e1f5148ff8ef7fb1c955106c3c</title>
<path fill="none" stroke="black" d="M118.38,-143.7C112.86,-135.47 106.15,-125.48 100.07,-116.42"/>
<polygon fill="black" stroke="black" points="102.96,-114.46 94.48,-108.1 97.15,-118.36 102.96,-114.46"/>
<g id="a_edge2&#45;headlabel"><a xlink:href="dir_000011_000071.html" target="_top" xlink:title="1">
<text text-anchor="middle" x="107.33" y="-113.36" font-family="Helvetica,sans-Serif" font-size="10.00">1</text>
</a>
</g>
</g>
<!-- dir_50541d64f188ef934de78ba6c49ffdbe&#45;&gt;dir_995a11a27ec5ce2fce465ebbab555255 -->
<g id="edge3" class="edge">
<title>dir_50541d64f188ef934de78ba6c49ffdbe&#45;&gt;dir_995a11a27ec5ce2fce465ebbab555255</title>
<path fill="none" stroke="black" d="M130.24,-143.7C129.95,-125.34 127.94,-95.75 119,-72 115.4,-62.42 109.73,-52.88 103.95,-44.58"/>
<polygon fill="black" stroke="black" points="106.71,-42.43 97.97,-36.44 101.07,-46.58 106.71,-42.43"/>
<g id="a_edge3&#45;headlabel"><a xlink:href="dir_000011_000046.html" target="_top" xlink:title="1">
<text text-anchor="middle" x="111.13" y="-41.15" font-family="Helvetica,sans-Serif" font-size="10.00">1</text>
</a>
</g>
</g>
</g>
</svg>
