<?xml version="1.0" encoding="UTF-8" standalone="no"?>
<!DOCTYPE svg PUBLIC "-//W3C//DTD SVG 1.1//EN"
 "http://www.w3.org/Graphics/SVG/1.1/DTD/svg11.dtd">
<!-- Generated by graphviz version 2.43.0 (0)
 -->
<!-- Title: Planners/include/BipedalLocomotion Pages: 1 -->
<svg width="229pt" height="303pt"
 viewBox="0.00 0.00 229.00 303.00" xmlns="http://www.w3.org/2000/svg" xmlns:xlink="http://www.w3.org/1999/xlink">
<g id="graph0" class="graph" transform="scale(1 1) rotate(0) translate(4 299)">
<title>Planners/include/BipedalLocomotion</title>
<g id="clust1" class="cluster">
<title>clusterdir_47af31f393480a5d6889a54234fa11ed</title>
<g id="a_clust1"><a xlink:href="dir_47af31f393480a5d6889a54234fa11ed.html" target="_top" xlink:title="include">
<polygon fill="#ddddee" stroke="black" points="8,-200 8,-287 213,-287 213,-200 8,-200"/>
<text text-anchor="middle" x="110.5" y="-275" font-family="Helvetica,sans-Serif" font-size="10.00">include</text>
</a>
</g>
</g>
<g id="clust2" class="cluster">
<title>clusterdir_ca39150e121c2f7552b8919c494e6981</title>
<g id="a_clust2"><a xlink:href="dir_ca39150e121c2f7552b8919c494e6981.html" target="_top">
<polygon fill="#eeeeff" stroke="black" points="16,-208 16,-260 205,-260 205,-208 16,-208"/>
</a>
</g>
</g>
<!-- dir_ca39150e121c2f7552b8919c494e6981 -->
<g id="node1" class="node">
<title>dir_ca39150e121c2f7552b8919c494e6981</title>
<text text-anchor="middle" x="147" y="-231.5" font-family="Helvetica,sans-Serif" font-size="10.00">BipedalLocomotion</text>
</g>
<!-- dir_9a2340c01aedb0f76560dc44ac9c4ec3 -->
<g id="node2" class="node">
<title>dir_9a2340c01aedb0f76560dc44ac9c4ec3</title>
<g id="a_node2"><a xlink:href="dir_9a2340c01aedb0f76560dc44ac9c4ec3.html" target="_top" xlink:title="Planners">
<polygon fill="white" stroke="black" points="79.5,-252 24.5,-252 24.5,-216 79.5,-216 79.5,-252"/>
<text text-anchor="middle" x="52" y="-231.5" font-family="Helvetica,sans-Serif" font-size="10.00">Planners</text>
</a>
</g>
</g>
<!-- dir_ef68f1e1f5148ff8ef7fb1c955106c3c -->
<g id="node3" class="node">
<title>dir_ef68f1e1f5148ff8ef7fb1c955106c3c</title>
<g id="a_node3"><a xlink:href="dir_ef68f1e1f5148ff8ef7fb1c955106c3c.html" target="_top" xlink:title="System">
<polygon fill="none" stroke="red" points="88,-108 34,-108 34,-72 88,-72 88,-108"/>
<text text-anchor="middle" x="61" y="-87.5" font-family="Helvetica,sans-Serif" font-size="10.00">System</text>
</a>
</g>
</g>
<!-- dir_9a2340c01aedb0f76560dc44ac9c4ec3&#45;&gt;dir_ef68f1e1f5148ff8ef7fb1c955106c3c -->
<g id="edge2" class="edge">
<title>dir_9a2340c01aedb0f76560dc44ac9c4ec3&#45;&gt;dir_ef68f1e1f5148ff8ef7fb1c955106c3c</title>
<path fill="none" stroke="black" d="M53.09,-215.87C54.62,-191.67 57.44,-147.21 59.26,-118.39"/>
<polygon fill="black" stroke="black" points="62.77,-118.39 59.91,-108.19 55.78,-117.95 62.77,-118.39"/>
<g id="a_edge2&#45;headlabel"><a xlink:href="dir_000059_000071.html" target="_top" xlink:title="4">
<text text-anchor="middle" x="65.38" y="-119.66" font-family="Helvetica,sans-Serif" font-size="10.00">4</text>
</a>
</g>
</g>
<!-- dir_995a11a27ec5ce2fce465ebbab555255 -->
<g id="node4" class="node">
<title>dir_995a11a27ec5ce2fce465ebbab555255</title>
<g id="a_node4"><a xlink:href="dir_995a11a27ec5ce2fce465ebbab555255.html" target="_top" xlink:title="ParametersHandler">
<polygon fill="none" stroke="red" points="111.5,-36 10.5,-36 10.5,0 111.5,0 111.5,-36"/>
<text text-anchor="middle" x="61" y="-15.5" font-family="Helvetica,sans-Serif" font-size="10.00">ParametersHandler</text>
</a>
</g>
</g>
<!-- dir_9a2340c01aedb0f76560dc44ac9c4ec3&#45;&gt;dir_995a11a27ec5ce2fce465ebbab555255 -->
<g id="edge3" class="edge">
<title>dir_9a2340c01aedb0f76560dc44ac9c4ec3&#45;&gt;dir_995a11a27ec5ce2fce465ebbab555255</title>
<path fill="none" stroke="black" d="M43.98,-215.74C31.24,-185.88 9.34,-122.93 25,-72 28.01,-62.22 33.51,-52.62 39.32,-44.33"/>
<polygon fill="black" stroke="black" points="42.19,-46.33 45.39,-36.23 36.59,-42.13 42.19,-46.33"/>
<g id="a_edge3&#45;headlabel"><a xlink:href="dir_000059_000046.html" target="_top" xlink:title="2">
<text text-anchor="middle" x="42.31" y="-48.41" font-family="Helvetica,sans-Serif" font-size="10.00">2</text>
</a>
</g>
</g>
<!-- dir_50541d64f188ef934de78ba6c49ffdbe -->
<g id="node5" class="node">
<title>dir_50541d64f188ef934de78ba6c49ffdbe</title>
<g id="a_node5"><a xlink:href="dir_50541d64f188ef934de78ba6c49ffdbe.html" target="_top" xlink:title="Contacts">
<polygon fill="none" stroke="red" points="136,-180 80,-180 80,-144 136,-144 136,-180"/>
<text text-anchor="middle" x="108" y="-159.5" font-family="Helvetica,sans-Serif" font-size="10.00">Contacts</text>
</a>
</g>
</g>
<!-- dir_9a2340c01aedb0f76560dc44ac9c4ec3&#45;&gt;dir_50541d64f188ef934de78ba6c49ffdbe -->
<g id="edge4" class="edge">
<title>dir_9a2340c01aedb0f76560dc44ac9c4ec3&#45;&gt;dir_50541d64f188ef934de78ba6c49ffdbe</title>
<path fill="none" stroke="black" d="M65.84,-215.7C72.49,-207.39 80.58,-197.28 87.89,-188.14"/>
<polygon fill="black" stroke="black" points="90.8,-190.1 94.32,-180.1 85.34,-185.73 90.8,-190.1"/>
<g id="a_edge4&#45;headlabel"><a xlink:href="dir_000059_000011.html" target="_top" xlink:title="1">
<text text-anchor="middle" x="90.77" y="-192.18" font-family="Helvetica,sans-Serif" font-size="10.00">1</text>
</a>
</g>
</g>
<!-- dir_ef68f1e1f5148ff8ef7fb1c955106c3c&#45;&gt;dir_995a11a27ec5ce2fce465ebbab555255 -->
<g id="edge1" class="edge">
<title>dir_ef68f1e1f5148ff8ef7fb1c955106c3c&#45;&gt;dir_995a11a27ec5ce2fce465ebbab555255</title>
<path fill="none" stroke="black" d="M61,-71.7C61,-63.98 61,-54.71 61,-46.11"/>
<polygon fill="black" stroke="black" points="64.5,-46.1 61,-36.1 57.5,-46.1 64.5,-46.1"/>
<g id="a_edge1&#45;headlabel"><a xlink:href="dir_000071_000046.html" target="_top" xlink:title="3">
<text text-anchor="middle" x="67.34" y="-47.2" font-family="Helvetica,sans-Serif" font-size="10.00">3</text>
</a>
</g>
</g>
<!-- dir_50541d64f188ef934de78ba6c49ffdbe&#45;&gt;dir_ef68f1e1f5148ff8ef7fb1c955106c3c -->
<g id="edge5" class="edge">
<title>dir_50541d64f188ef934de78ba6c49ffdbe&#45;&gt;dir_ef68f1e1f5148ff8ef7fb1c955106c3c</title>
<path fill="none" stroke="black" d="M96.38,-143.7C90.86,-135.47 84.15,-125.48 78.07,-116.42"/>
<polygon fill="black" stroke="black" points="80.96,-114.46 72.48,-108.1 75.15,-118.36 80.96,-114.46"/>
<g id="a_edge5&#45;headlabel"><a xlink:href="dir_000011_000071.html" target="_top" xlink:title="1">
<text text-anchor="middle" x="85.33" y="-113.36" font-family="Helvetica,sans-Serif" font-size="10.00">1</text>
</a>
</g>
</g>
<!-- dir_50541d64f188ef934de78ba6c49ffdbe&#45;&gt;dir_995a11a27ec5ce2fce465ebbab555255 -->
<g id="edge6" class="edge">
<title>dir_50541d64f188ef934de78ba6c49ffdbe&#45;&gt;dir_995a11a27ec5ce2fce465ebbab555255</title>
<path fill="none" stroke="black" d="M108.24,-143.7C107.95,-125.34 105.94,-95.75 97,-72 93.4,-62.42 87.73,-52.88 81.95,-44.58"/>
<polygon fill="black" stroke="black" points="84.71,-42.43 75.97,-36.44 79.07,-46.58 84.71,-42.43"/>
<g id="a_edge6&#45;headlabel"><a xlink:href="dir_000011_000046.html" target="_top" xlink:title="1">
<text text-anchor="middle" x="89.13" y="-41.15" font-family="Helvetica,sans-Serif" font-size="10.00">1</text>
</a>
</g>
</g>
</g>
</svg>
