<?xml version="1.0" encoding="UTF-8" standalone="no"?>
<!DOCTYPE svg PUBLIC "-//W3C//DTD SVG 1.1//EN"
 "http://www.w3.org/Graphics/SVG/1.1/DTD/svg11.dtd">
<!-- Generated by graphviz version 2.43.0 (0)
 -->
<!-- Title: System/include/BipedalLocomotion/System Pages: 1 -->
<svg width="143pt" height="223pt"
 viewBox="0.00 0.00 142.50 223.00" xmlns="http://www.w3.org/2000/svg" xmlns:xlink="http://www.w3.org/1999/xlink">
<g id="graph0" class="graph" transform="scale(1 1) rotate(0) translate(4 219)">
<title>System/include/BipedalLocomotion/System</title>
<g id="clust1" class="cluster">
<title>clusterdir_851e45f592bcaa6147ca4dae8a337a6d</title>
<g id="a_clust1"><a xlink:href="dir_851e45f592bcaa6147ca4dae8a337a6d.html" target="_top" xlink:title="BipedalLocomotion">
<polygon fill="#ddddee" stroke="black" points="27.5,-136 27.5,-207 126.5,-207 126.5,-136 27.5,-136"/>
<text text-anchor="middle" x="77" y="-195" font-family="Helvetica,sans-Serif" font-size="10.00">BipedalLocomotion</text>
</a>
</g>
</g>
<!-- dir_1a41e7752d0b8c023e1d3ecf18af98b7 -->
<g id="node1" class="node">
<title>dir_1a41e7752d0b8c023e1d3ecf18af98b7</title>
<g id="a_node1"><a xlink:href="dir_1a41e7752d0b8c023e1d3ecf18af98b7.html" target="_top" xlink:title="System">
<polygon fill="#eeeeff" stroke="black" points="103.5,-180 49.5,-180 49.5,-144 103.5,-144 103.5,-180"/>
<text text-anchor="middle" x="76.5" y="-159.5" font-family="Helvetica,sans-Serif" font-size="10.00">System</text>
</a>
</g>
</g>
<!-- dir_ddacabcd4572cd422cd722a5b78176ea -->
<g id="node2" class="node">
<title>dir_ddacabcd4572cd422cd722a5b78176ea</title>
<g id="a_node2"><a xlink:href="dir_ddacabcd4572cd422cd722a5b78176ea.html" target="_top" xlink:title="ContactModels">
<polygon fill="none" stroke="red" points="83,-108 0,-108 0,-72 83,-72 83,-108"/>
<text text-anchor="middle" x="41.5" y="-87.5" font-family="Helvetica,sans-Serif" font-size="10.00">ContactModels</text>
</a>
</g>
</g>
<!-- dir_1a41e7752d0b8c023e1d3ecf18af98b7&#45;&gt;dir_ddacabcd4572cd422cd722a5b78176ea -->
<g id="edge2" class="edge">
<title>dir_1a41e7752d0b8c023e1d3ecf18af98b7&#45;&gt;dir_ddacabcd4572cd422cd722a5b78176ea</title>
<path fill="none" stroke="black" d="M67.85,-143.7C63.86,-135.73 59.05,-126.1 54.63,-117.26"/>
<polygon fill="black" stroke="black" points="57.65,-115.48 50.05,-108.1 51.39,-118.61 57.65,-115.48"/>
<g id="a_edge2&#45;headlabel"><a xlink:href="dir_000074_000006.html" target="_top" xlink:title="1">
<text text-anchor="middle" x="61.8" y="-114.93" font-family="Helvetica,sans-Serif" font-size="10.00">1</text>
</a>
</g>
</g>
<!-- dir_995a11a27ec5ce2fce465ebbab555255 -->
<g id="node3" class="node">
<title>dir_995a11a27ec5ce2fce465ebbab555255</title>
<g id="a_node3"><a xlink:href="dir_995a11a27ec5ce2fce465ebbab555255.html" target="_top" xlink:title="ParametersHandler">
<polygon fill="none" stroke="red" points="127,-36 26,-36 26,0 127,0 127,-36"/>
<text text-anchor="middle" x="76.5" y="-15.5" font-family="Helvetica,sans-Serif" font-size="10.00">ParametersHandler</text>
</a>
</g>
</g>
<!-- dir_1a41e7752d0b8c023e1d3ecf18af98b7&#45;&gt;dir_995a11a27ec5ce2fce465ebbab555255 -->
<g id="edge3" class="edge">
<title>dir_1a41e7752d0b8c023e1d3ecf18af98b7&#45;&gt;dir_995a11a27ec5ce2fce465ebbab555255</title>
<path fill="none" stroke="black" d="M83.15,-143.63C86.7,-133.42 90.7,-120.17 92.5,-108 94.84,-92.17 94.84,-87.83 92.5,-72 91.22,-63.35 88.83,-54.15 86.28,-45.89"/>
<polygon fill="black" stroke="black" points="89.6,-44.78 83.15,-36.37 82.95,-46.96 89.6,-44.78"/>
<g id="a_edge3&#45;headlabel"><a xlink:href="dir_000074_000046.html" target="_top" xlink:title="3">
<text text-anchor="middle" x="93.42" y="-44.81" font-family="Helvetica,sans-Serif" font-size="10.00">3</text>
</a>
</g>
</g>
<!-- dir_ddacabcd4572cd422cd722a5b78176ea&#45;&gt;dir_995a11a27ec5ce2fce465ebbab555255 -->
<g id="edge1" class="edge">
<title>dir_ddacabcd4572cd422cd722a5b78176ea&#45;&gt;dir_995a11a27ec5ce2fce465ebbab555255</title>
<path fill="none" stroke="black" d="M50.15,-71.7C54.14,-63.73 58.95,-54.1 63.37,-45.26"/>
<polygon fill="black" stroke="black" points="66.61,-46.61 67.95,-36.1 60.35,-43.48 66.61,-46.61"/>
<g id="a_edge1&#45;headlabel"><a xlink:href="dir_000006_000046.html" target="_top" xlink:title="3">
<text text-anchor="middle" x="67.54" y="-48.6" font-family="Helvetica,sans-Serif" font-size="10.00">3</text>
</a>
</g>
</g>
</g>
</svg>
