<?xml version="1.0" encoding="UTF-8" standalone="no"?>
<!DOCTYPE svg PUBLIC "-//W3C//DTD SVG 1.1//EN"
 "http://www.w3.org/Graphics/SVG/1.1/DTD/svg11.dtd">
<!-- Generated by graphviz version 2.43.0 (0)
 -->
<!-- Title: Estimators Pages: 1 -->
<svg width="219pt" height="348pt"
 viewBox="0.00 0.00 218.50 348.00" xmlns="http://www.w3.org/2000/svg" xmlns:xlink="http://www.w3.org/1999/xlink">
<g id="graph0" class="graph" transform="scale(1 1) rotate(0) translate(4 344)">
<title>Estimators</title>
<g id="clust1" class="cluster">
<title>clusterdir_941407157475547b8b358a98f0692190</title>
<g id="a_clust1"><a xlink:href="dir_941407157475547b8b358a98f0692190.html" target="_top">
<polygon fill="#eeeeff" stroke="black" points="50.5,-208 50.5,-332 202.5,-332 202.5,-208 50.5,-208"/>
</a>
</g>
</g>
<!-- dir_941407157475547b8b358a98f0692190 -->
<g id="node1" class="node">
<title>dir_941407157475547b8b358a98f0692190</title>
<text text-anchor="middle" x="162.5" y="-303.5" font-family="Helvetica,sans-Serif" font-size="10.00">Estimators</text>
</g>
<!-- dir_83e72bb223dd52ca9520cbeb993359a4 -->
<g id="node2" class="node">
<title>dir_83e72bb223dd52ca9520cbeb993359a4</title>
<g id="a_node2"><a xlink:href="dir_83e72bb223dd52ca9520cbeb993359a4.html" target="_top" xlink:title="include">
<polygon fill="white" stroke="red" points="112.5,-252 58.5,-252 58.5,-216 112.5,-216 112.5,-252"/>
<text text-anchor="middle" x="85.5" y="-231.5" font-family="Helvetica,sans-Serif" font-size="10.00">include</text>
</a>
</g>
</g>
<!-- dir_ef68f1e1f5148ff8ef7fb1c955106c3c -->
<g id="node4" class="node">
<title>dir_ef68f1e1f5148ff8ef7fb1c955106c3c</title>
<g id="a_node4"><a xlink:href="dir_ef68f1e1f5148ff8ef7fb1c955106c3c.html" target="_top" xlink:title="System">
<polygon fill="none" stroke="red" points="132.5,-108 78.5,-108 78.5,-72 132.5,-72 132.5,-108"/>
<text text-anchor="middle" x="105.5" y="-87.5" font-family="Helvetica,sans-Serif" font-size="10.00">System</text>
</a>
</g>
</g>
<!-- dir_83e72bb223dd52ca9520cbeb993359a4&#45;&gt;dir_ef68f1e1f5148ff8ef7fb1c955106c3c -->
<g id="edge5" class="edge">
<title>dir_83e72bb223dd52ca9520cbeb993359a4&#45;&gt;dir_ef68f1e1f5148ff8ef7fb1c955106c3c</title>
<path fill="none" stroke="black" d="M92.88,-215.69C96.84,-205.5 101.34,-192.25 103.5,-180 107.11,-159.58 107.48,-136.12 107.02,-118.42"/>
<polygon fill="black" stroke="black" points="110.51,-118.08 106.65,-108.21 103.52,-118.34 110.51,-118.08"/>
<g id="a_edge5&#45;headlabel"><a xlink:href="dir_000022_000071.html" target="_top" xlink:title="2">
<text text-anchor="middle" x="113.48" y="-119.07" font-family="Helvetica,sans-Serif" font-size="10.00">2</text>
</a>
</g>
</g>
<!-- dir_995a11a27ec5ce2fce465ebbab555255 -->
<g id="node6" class="node">
<title>dir_995a11a27ec5ce2fce465ebbab555255</title>
<g id="a_node6"><a xlink:href="dir_995a11a27ec5ce2fce465ebbab555255.html" target="_top" xlink:title="ParametersHandler">
<polygon fill="none" stroke="red" points="101,-36 0,-36 0,0 101,0 101,-36"/>
<text text-anchor="middle" x="50.5" y="-15.5" font-family="Helvetica,sans-Serif" font-size="10.00">ParametersHandler</text>
</a>
</g>
</g>
<!-- dir_83e72bb223dd52ca9520cbeb993359a4&#45;&gt;dir_995a11a27ec5ce2fce465ebbab555255 -->
<g id="edge6" class="edge">
<title>dir_83e72bb223dd52ca9520cbeb993359a4&#45;&gt;dir_995a11a27ec5ce2fce465ebbab555255</title>
<path fill="none" stroke="black" d="M59.38,-215.82C47.92,-206.69 35.69,-194.39 29.5,-180 10.41,-135.65 26.27,-78.58 38.85,-45.66"/>
<polygon fill="black" stroke="black" points="42.15,-46.84 42.61,-36.26 35.65,-44.24 42.15,-46.84"/>
<g id="a_edge6&#45;headlabel"><a xlink:href="dir_000022_000046.html" target="_top" xlink:title="3">
<text text-anchor="middle" x="43.45" y="-48.73" font-family="Helvetica,sans-Serif" font-size="10.00">3</text>
</a>
</g>
</g>
<!-- dir_50541d64f188ef934de78ba6c49ffdbe -->
<g id="node7" class="node">
<title>dir_50541d64f188ef934de78ba6c49ffdbe</title>
<g id="a_node7"><a xlink:href="dir_50541d64f188ef934de78ba6c49ffdbe.html" target="_top" xlink:title="Contacts">
<polygon fill="none" stroke="red" points="94.5,-180 38.5,-180 38.5,-144 94.5,-144 94.5,-180"/>
<text text-anchor="middle" x="66.5" y="-159.5" font-family="Helvetica,sans-Serif" font-size="10.00">Contacts</text>
</a>
</g>
</g>
<!-- dir_83e72bb223dd52ca9520cbeb993359a4&#45;&gt;dir_50541d64f188ef934de78ba6c49ffdbe -->
<g id="edge7" class="edge">
<title>dir_83e72bb223dd52ca9520cbeb993359a4&#45;&gt;dir_50541d64f188ef934de78ba6c49ffdbe</title>
<path fill="none" stroke="black" d="M80.8,-215.7C78.69,-207.9 76.14,-198.51 73.78,-189.83"/>
<polygon fill="black" stroke="black" points="77.14,-188.84 71.14,-180.1 70.38,-190.67 77.14,-188.84"/>
<g id="a_edge7&#45;headlabel"><a xlink:href="dir_000022_000011.html" target="_top" xlink:title="1">
<text text-anchor="middle" x="80.82" y="-189.06" font-family="Helvetica,sans-Serif" font-size="10.00">1</text>
</a>
</g>
</g>
<!-- dir_e8748f12afc033586b9763e57373849f -->
<g id="node3" class="node">
<title>dir_e8748f12afc033586b9763e57373849f</title>
<g id="a_node3"><a xlink:href="dir_e8748f12afc033586b9763e57373849f.html" target="_top" xlink:title="src">
<polygon fill="white" stroke="black" points="112.5,-324 58.5,-324 58.5,-288 112.5,-288 112.5,-324"/>
<text text-anchor="middle" x="85.5" y="-303.5" font-family="Helvetica,sans-Serif" font-size="10.00">src</text>
</a>
</g>
</g>
<!-- dir_e8748f12afc033586b9763e57373849f&#45;&gt;dir_83e72bb223dd52ca9520cbeb993359a4 -->
<g id="edge3" class="edge">
<title>dir_e8748f12afc033586b9763e57373849f&#45;&gt;dir_83e72bb223dd52ca9520cbeb993359a4</title>
<path fill="none" stroke="black" d="M85.5,-287.7C85.5,-279.98 85.5,-270.71 85.5,-262.11"/>
<polygon fill="black" stroke="black" points="89,-262.1 85.5,-252.1 82,-262.1 89,-262.1"/>
<g id="a_edge3&#45;headlabel"><a xlink:href="dir_000026_000022.html" target="_top" xlink:title="5">
<text text-anchor="middle" x="91.84" y="-263.2" font-family="Helvetica,sans-Serif" font-size="10.00">5</text>
</a>
</g>
</g>
<!-- dir_67ecbf5b3dd37b0be5aedd0167f75fa8 -->
<g id="node5" class="node">
<title>dir_67ecbf5b3dd37b0be5aedd0167f75fa8</title>
<g id="a_node5"><a xlink:href="dir_67ecbf5b3dd37b0be5aedd0167f75fa8.html" target="_top" xlink:title="Conversions">
<polygon fill="none" stroke="red" points="193,-36 122,-36 122,0 193,0 193,-36"/>
<text text-anchor="middle" x="157.5" y="-15.5" font-family="Helvetica,sans-Serif" font-size="10.00">Conversions</text>
</a>
</g>
</g>
<!-- dir_e8748f12afc033586b9763e57373849f&#45;&gt;dir_67ecbf5b3dd37b0be5aedd0167f75fa8 -->
<g id="edge4" class="edge">
<title>dir_e8748f12afc033586b9763e57373849f&#45;&gt;dir_67ecbf5b3dd37b0be5aedd0167f75fa8</title>
<path fill="none" stroke="black" d="M99.95,-287.97C107.57,-278.08 116.37,-265.04 121.5,-252 149.34,-181.28 155.73,-90.56 157.14,-46.07"/>
<polygon fill="black" stroke="black" points="160.64,-46.13 157.4,-36.04 153.65,-45.95 160.64,-46.13"/>
<g id="a_edge4&#45;headlabel"><a xlink:href="dir_000026_000017.html" target="_top" xlink:title="2">
<text text-anchor="middle" x="163.39" y="-47.29" font-family="Helvetica,sans-Serif" font-size="10.00">2</text>
</a>
</g>
</g>
<!-- dir_ef68f1e1f5148ff8ef7fb1c955106c3c&#45;&gt;dir_67ecbf5b3dd37b0be5aedd0167f75fa8 -->
<g id="edge1" class="edge">
<title>dir_ef68f1e1f5148ff8ef7fb1c955106c3c&#45;&gt;dir_67ecbf5b3dd37b0be5aedd0167f75fa8</title>
<path fill="none" stroke="black" d="M118.35,-71.7C124.53,-63.39 132.04,-53.28 138.82,-44.14"/>
<polygon fill="black" stroke="black" points="141.64,-46.22 144.79,-36.1 136.02,-42.04 141.64,-46.22"/>
<g id="a_edge1&#45;headlabel"><a xlink:href="dir_000071_000017.html" target="_top" xlink:title="1">
<text text-anchor="middle" x="141.78" y="-48.3" font-family="Helvetica,sans-Serif" font-size="10.00">1</text>
</a>
</g>
</g>
<!-- dir_ef68f1e1f5148ff8ef7fb1c955106c3c&#45;&gt;dir_995a11a27ec5ce2fce465ebbab555255 -->
<g id="edge2" class="edge">
<title>dir_ef68f1e1f5148ff8ef7fb1c955106c3c&#45;&gt;dir_995a11a27ec5ce2fce465ebbab555255</title>
<path fill="none" stroke="black" d="M91.9,-71.7C85.38,-63.39 77.43,-53.28 70.25,-44.14"/>
<polygon fill="black" stroke="black" points="72.87,-41.81 63.94,-36.1 67.37,-46.13 72.87,-41.81"/>
<g id="a_edge2&#45;headlabel"><a xlink:href="dir_000071_000046.html" target="_top" xlink:title="3">
<text text-anchor="middle" x="77.32" y="-40.38" font-family="Helvetica,sans-Serif" font-size="10.00">3</text>
</a>
</g>
</g>
<!-- dir_50541d64f188ef934de78ba6c49ffdbe&#45;&gt;dir_ef68f1e1f5148ff8ef7fb1c955106c3c -->
<g id="edge8" class="edge">
<title>dir_50541d64f188ef934de78ba6c49ffdbe&#45;&gt;dir_ef68f1e1f5148ff8ef7fb1c955106c3c</title>
<path fill="none" stroke="black" d="M76.14,-143.7C80.63,-135.64 86.06,-125.89 91.02,-116.98"/>
<polygon fill="black" stroke="black" points="94.16,-118.54 95.97,-108.1 88.05,-115.14 94.16,-118.54"/>
<g id="a_edge8&#45;headlabel"><a xlink:href="dir_000011_000071.html" target="_top" xlink:title="1">
<text text-anchor="middle" x="94.89" y="-120.57" font-family="Helvetica,sans-Serif" font-size="10.00">1</text>
</a>
</g>
</g>
<!-- dir_50541d64f188ef934de78ba6c49ffdbe&#45;&gt;dir_995a11a27ec5ce2fce465ebbab555255 -->
<g id="edge9" class="edge">
<title>dir_50541d64f188ef934de78ba6c49ffdbe&#45;&gt;dir_995a11a27ec5ce2fce465ebbab555255</title>
<path fill="none" stroke="black" d="M64.57,-143.87C61.84,-119.67 56.83,-75.21 53.59,-46.39"/>
<polygon fill="black" stroke="black" points="57.03,-45.73 52.44,-36.19 50.08,-46.52 57.03,-45.73"/>
<g id="a_edge9&#45;headlabel"><a xlink:href="dir_000011_000046.html" target="_top" xlink:title="1">
<text text-anchor="middle" x="60.26" y="-46.49" font-family="Helvetica,sans-Serif" font-size="10.00">1</text>
</a>
</g>
</g>
</g>
</svg>
