<?xml version="1.0" encoding="UTF-8" standalone="no"?>
<!DOCTYPE svg PUBLIC "-//W3C//DTD SVG 1.1//EN"
 "http://www.w3.org/Graphics/SVG/1.1/DTD/svg11.dtd">
<!-- Generated by graphviz version 2.43.0 (0)
 -->
<!-- Title: ParametersHandler/YarpImplementation Pages: 1 -->
<svg width="232pt" height="303pt"
 viewBox="0.00 0.00 232.00 303.00" xmlns="http://www.w3.org/2000/svg" xmlns:xlink="http://www.w3.org/1999/xlink">
<g id="graph0" class="graph" transform="scale(1 1) rotate(0) translate(4 299)">
<title>ParametersHandler/YarpImplementation</title>
<g id="clust1" class="cluster">
<title>clusterdir_995a11a27ec5ce2fce465ebbab555255</title>
<g id="a_clust1"><a xlink:href="dir_995a11a27ec5ce2fce465ebbab555255.html" target="_top" xlink:title="ParametersHandler">
<polygon fill="#ddddee" stroke="black" points="8,-128 8,-287 216,-287 216,-128 8,-128"/>
<text text-anchor="middle" x="112" y="-275" font-family="Helvetica,sans-Serif" font-size="10.00">ParametersHandler</text>
</a>
</g>
</g>
<g id="clust2" class="cluster">
<title>clusterdir_6a34c73d6eb3da898e93a79ffdd09be5</title>
<g id="a_clust2"><a xlink:href="dir_6a34c73d6eb3da898e93a79ffdd09be5.html" target="_top">
<polygon fill="#eeeeff" stroke="black" points="16,-136 16,-260 208,-260 208,-136 16,-136"/>
</a>
</g>
</g>
<!-- dir_6a34c73d6eb3da898e93a79ffdd09be5 -->
<g id="node1" class="node">
<title>dir_6a34c73d6eb3da898e93a79ffdd09be5</title>
<text text-anchor="middle" x="148" y="-231.5" font-family="Helvetica,sans-Serif" font-size="10.00">YarpImplementation</text>
</g>
<!-- dir_63c44988ed8fd0278ad843c09d683190 -->
<g id="node2" class="node">
<title>dir_63c44988ed8fd0278ad843c09d683190</title>
<g id="a_node2"><a xlink:href="dir_63c44988ed8fd0278ad843c09d683190.html" target="_top" xlink:title="include">
<polygon fill="white" stroke="red" points="78,-180 24,-180 24,-144 78,-144 78,-180"/>
<text text-anchor="middle" x="51" y="-159.5" font-family="Helvetica,sans-Serif" font-size="10.00">include</text>
</a>
</g>
</g>
<!-- dir_c2ff16d22970d8b79330500bc8a01502 -->
<g id="node4" class="node">
<title>dir_c2ff16d22970d8b79330500bc8a01502</title>
<g id="a_node4"><a xlink:href="dir_c2ff16d22970d8b79330500bc8a01502.html" target="_top" xlink:title="include">
<polygon fill="none" stroke="red" points="77,-36 23,-36 23,0 77,0 77,-36"/>
<text text-anchor="middle" x="50" y="-15.5" font-family="Helvetica,sans-Serif" font-size="10.00">include</text>
</a>
</g>
</g>
<!-- dir_63c44988ed8fd0278ad843c09d683190&#45;&gt;dir_c2ff16d22970d8b79330500bc8a01502 -->
<g id="edge3" class="edge">
<title>dir_63c44988ed8fd0278ad843c09d683190&#45;&gt;dir_c2ff16d22970d8b79330500bc8a01502</title>
<path fill="none" stroke="black" d="M46.13,-143.98C43.44,-133.67 40.36,-120.19 39,-108 37.22,-92.1 37.37,-87.92 39,-72 39.88,-63.46 41.53,-54.26 43.29,-45.96"/>
<polygon fill="black" stroke="black" points="46.74,-46.57 45.54,-36.05 39.92,-45.03 46.74,-46.57"/>
<g id="a_edge3&#45;headlabel"><a xlink:href="dir_000052_000047.html" target="_top" xlink:title="1">
<text text-anchor="middle" x="48.72" y="-48.21" font-family="Helvetica,sans-Serif" font-size="10.00">1</text>
</a>
</g>
</g>
<!-- dir_9f4ce4849845ca54ac66640ab17f25ff -->
<g id="node5" class="node">
<title>dir_9f4ce4849845ca54ac66640ab17f25ff</title>
<g id="a_node5"><a xlink:href="dir_9f4ce4849845ca54ac66640ab17f25ff.html" target="_top" xlink:title="YarpUtilities">
<polygon fill="none" stroke="red" points="116.5,-108 47.5,-108 47.5,-72 116.5,-72 116.5,-108"/>
<text text-anchor="middle" x="82" y="-87.5" font-family="Helvetica,sans-Serif" font-size="10.00">YarpUtilities</text>
</a>
</g>
</g>
<!-- dir_63c44988ed8fd0278ad843c09d683190&#45;&gt;dir_9f4ce4849845ca54ac66640ab17f25ff -->
<g id="edge4" class="edge">
<title>dir_63c44988ed8fd0278ad843c09d683190&#45;&gt;dir_9f4ce4849845ca54ac66640ab17f25ff</title>
<path fill="none" stroke="black" d="M58.66,-143.7C62.19,-135.73 66.46,-126.1 70.37,-117.26"/>
<polygon fill="black" stroke="black" points="73.58,-118.67 74.43,-108.1 67.18,-115.83 73.58,-118.67"/>
<g id="a_edge4&#45;headlabel"><a xlink:href="dir_000052_000081.html" target="_top" xlink:title="1">
<text text-anchor="middle" x="74.72" y="-120.6" font-family="Helvetica,sans-Serif" font-size="10.00">1</text>
</a>
</g>
</g>
<!-- dir_5de7b4db2057cbdfdd5db3942fa052ea -->
<g id="node3" class="node">
<title>dir_5de7b4db2057cbdfdd5db3942fa052ea</title>
<g id="a_node3"><a xlink:href="dir_5de7b4db2057cbdfdd5db3942fa052ea.html" target="_top" xlink:title="src">
<polygon fill="white" stroke="black" points="78,-252 24,-252 24,-216 78,-216 78,-252"/>
<text text-anchor="middle" x="51" y="-231.5" font-family="Helvetica,sans-Serif" font-size="10.00">src</text>
</a>
</g>
</g>
<!-- dir_5de7b4db2057cbdfdd5db3942fa052ea&#45;&gt;dir_63c44988ed8fd0278ad843c09d683190 -->
<g id="edge1" class="edge">
<title>dir_5de7b4db2057cbdfdd5db3942fa052ea&#45;&gt;dir_63c44988ed8fd0278ad843c09d683190</title>
<path fill="none" stroke="black" d="M51,-215.7C51,-207.98 51,-198.71 51,-190.11"/>
<polygon fill="black" stroke="black" points="54.5,-190.1 51,-180.1 47.5,-190.1 54.5,-190.1"/>
<g id="a_edge1&#45;headlabel"><a xlink:href="dir_000055_000052.html" target="_top" xlink:title="1">
<text text-anchor="middle" x="57.34" y="-191.2" font-family="Helvetica,sans-Serif" font-size="10.00">1</text>
</a>
</g>
</g>
<!-- dir_9f4ce4849845ca54ac66640ab17f25ff&#45;&gt;dir_c2ff16d22970d8b79330500bc8a01502 -->
<g id="edge2" class="edge">
<title>dir_9f4ce4849845ca54ac66640ab17f25ff&#45;&gt;dir_c2ff16d22970d8b79330500bc8a01502</title>
<path fill="none" stroke="black" d="M74.09,-71.7C70.45,-63.73 66.05,-54.1 62.01,-45.26"/>
<polygon fill="black" stroke="black" points="65.16,-43.74 57.82,-36.1 58.79,-46.65 65.16,-43.74"/>
<g id="a_edge2&#45;headlabel"><a xlink:href="dir_000081_000047.html" target="_top" xlink:title="1">
<text text-anchor="middle" x="69.24" y="-43.33" font-family="Helvetica,sans-Serif" font-size="10.00">1</text>
</a>
</g>
</g>
</g>
</svg>
