<?xml version="1.0" encoding="UTF-8" standalone="no"?>
<!DOCTYPE svg PUBLIC "-//W3C//DTD SVG 1.1//EN"
 "http://www.w3.org/Graphics/SVG/1.1/DTD/svg11.dtd">
<!-- Generated by graphviz version 2.43.0 (0)
 -->
<!-- Title: IK/include/BipedalLocomotion Pages: 1 -->
<svg width="232pt" height="231pt"
 viewBox="0.00 0.00 232.00 231.00" xmlns="http://www.w3.org/2000/svg" xmlns:xlink="http://www.w3.org/1999/xlink">
<g id="graph0" class="graph" transform="scale(1 1) rotate(0) translate(4 227)">
<title>IK/include/BipedalLocomotion</title>
<g id="clust1" class="cluster">
<title>clusterdir_67dd381f86eec7791e9db8646ed74f67</title>
<g id="a_clust1"><a xlink:href="dir_67dd381f86eec7791e9db8646ed74f67.html" target="_top" xlink:title="include">
<polygon fill="#ddddee" stroke="black" points="12,-128 12,-215 216,-215 216,-128 12,-128"/>
<text text-anchor="middle" x="114" y="-203" font-family="Helvetica,sans-Serif" font-size="10.00">include</text>
</a>
</g>
</g>
<g id="clust2" class="cluster">
<title>clusterdir_f8b8ea7f56d76964f7730cc9a74ce99f</title>
<g id="a_clust2"><a xlink:href="dir_f8b8ea7f56d76964f7730cc9a74ce99f.html" target="_top">
<polygon fill="#eeeeff" stroke="black" points="20,-136 20,-188 208,-188 208,-136 20,-136"/>
</a>
</g>
</g>
<!-- dir_f8b8ea7f56d76964f7730cc9a74ce99f -->
<g id="node1" class="node">
<title>dir_f8b8ea7f56d76964f7730cc9a74ce99f</title>
<text text-anchor="middle" x="150" y="-159.5" font-family="Helvetica,sans-Serif" font-size="10.00">BipedalLocomotion</text>
</g>
<!-- dir_4d873cee532edd16134c6568eb998b0c -->
<g id="node2" class="node">
<title>dir_4d873cee532edd16134c6568eb998b0c</title>
<g id="a_node2"><a xlink:href="dir_4d873cee532edd16134c6568eb998b0c.html" target="_top" xlink:title="IK">
<polygon fill="white" stroke="black" points="82,-180 28,-180 28,-144 82,-144 82,-180"/>
<text text-anchor="middle" x="55" y="-159.5" font-family="Helvetica,sans-Serif" font-size="10.00">IK</text>
</a>
</g>
</g>
<!-- dir_ef68f1e1f5148ff8ef7fb1c955106c3c -->
<g id="node3" class="node">
<title>dir_ef68f1e1f5148ff8ef7fb1c955106c3c</title>
<g id="a_node3"><a xlink:href="dir_ef68f1e1f5148ff8ef7fb1c955106c3c.html" target="_top" xlink:title="System">
<polygon fill="none" stroke="red" points="54,-108 0,-108 0,-72 54,-72 54,-108"/>
<text text-anchor="middle" x="27" y="-87.5" font-family="Helvetica,sans-Serif" font-size="10.00">System</text>
</a>
</g>
</g>
<!-- dir_4d873cee532edd16134c6568eb998b0c&#45;&gt;dir_ef68f1e1f5148ff8ef7fb1c955106c3c -->
<g id="edge2" class="edge">
<title>dir_4d873cee532edd16134c6568eb998b0c&#45;&gt;dir_ef68f1e1f5148ff8ef7fb1c955106c3c</title>
<path fill="none" stroke="black" d="M48.08,-143.7C44.93,-135.81 41.12,-126.3 37.62,-117.55"/>
<polygon fill="black" stroke="black" points="40.81,-116.09 33.84,-108.1 34.31,-118.69 40.81,-116.09"/>
<g id="a_edge2&#45;headlabel"><a xlink:href="dir_000034_000071.html" target="_top" xlink:title="3">
<text text-anchor="middle" x="44.78" y="-115.87" font-family="Helvetica,sans-Serif" font-size="10.00">3</text>
</a>
</g>
</g>
<!-- dir_995a11a27ec5ce2fce465ebbab555255 -->
<g id="node4" class="node">
<title>dir_995a11a27ec5ce2fce465ebbab555255</title>
<g id="a_node4"><a xlink:href="dir_995a11a27ec5ce2fce465ebbab555255.html" target="_top" xlink:title="ParametersHandler">
<polygon fill="none" stroke="red" points="104.5,-36 3.5,-36 3.5,0 104.5,0 104.5,-36"/>
<text text-anchor="middle" x="54" y="-15.5" font-family="Helvetica,sans-Serif" font-size="10.00">ParametersHandler</text>
</a>
</g>
</g>
<!-- dir_4d873cee532edd16134c6568eb998b0c&#45;&gt;dir_995a11a27ec5ce2fce465ebbab555255 -->
<g id="edge3" class="edge">
<title>dir_4d873cee532edd16134c6568eb998b0c&#45;&gt;dir_995a11a27ec5ce2fce465ebbab555255</title>
<path fill="none" stroke="black" d="M58.25,-143.89C60.05,-133.54 62.09,-120.06 63,-108 64.2,-92.04 64.34,-87.94 63,-72 62.28,-63.5 60.93,-54.31 59.49,-46.01"/>
<polygon fill="black" stroke="black" points="62.91,-45.29 57.65,-36.09 56.03,-46.56 62.91,-45.29"/>
<g id="a_edge3&#45;headlabel"><a xlink:href="dir_000034_000046.html" target="_top" xlink:title="3">
<text text-anchor="middle" x="66.36" y="-45.81" font-family="Helvetica,sans-Serif" font-size="10.00">3</text>
</a>
</g>
</g>
<!-- dir_ef68f1e1f5148ff8ef7fb1c955106c3c&#45;&gt;dir_995a11a27ec5ce2fce465ebbab555255 -->
<g id="edge1" class="edge">
<title>dir_ef68f1e1f5148ff8ef7fb1c955106c3c&#45;&gt;dir_995a11a27ec5ce2fce465ebbab555255</title>
<path fill="none" stroke="black" d="M33.67,-71.7C36.71,-63.81 40.38,-54.3 43.76,-45.55"/>
<polygon fill="black" stroke="black" points="47.07,-46.69 47.4,-36.1 40.54,-44.17 47.07,-46.69"/>
<g id="a_edge1&#45;headlabel"><a xlink:href="dir_000071_000046.html" target="_top" xlink:title="3">
<text text-anchor="middle" x="48.42" y="-48.57" font-family="Helvetica,sans-Serif" font-size="10.00">3</text>
</a>
</g>
</g>
</g>
</svg>
