<?xml version="1.0" encoding="UTF-8" standalone="no"?>
<!DOCTYPE svg PUBLIC "-//W3C//DTD SVG 1.1//EN"
 "http://www.w3.org/Graphics/SVG/1.1/DTD/svg11.dtd">
<!-- Generated by graphviz version 2.43.0 (0)
 -->
<!-- Title: ParametersHandler/src Pages: 1 -->
<svg width="125pt" height="223pt"
 viewBox="0.00 0.00 125.00 223.00" xmlns="http://www.w3.org/2000/svg" xmlns:xlink="http://www.w3.org/1999/xlink">
<g id="graph0" class="graph" transform="scale(1 1) rotate(0) translate(4 219)">
<title>ParametersHandler/src</title>
<g id="clust1" class="cluster">
<title>clusterdir_995a11a27ec5ce2fce465ebbab555255</title>
<g id="a_clust1"><a xlink:href="dir_995a11a27ec5ce2fce465ebbab555255.html" target="_top" xlink:title="ParametersHandler">
<polygon fill="#ddddee" stroke="black" points="8,-136 8,-207 109,-207 109,-136 8,-136"/>
<text text-anchor="middle" x="58.5" y="-195" font-family="Helvetica,sans-Serif" font-size="10.00">ParametersHandler</text>
</a>
</g>
</g>
<!-- dir_c0d5990a54af58a8d638adaf50280d31 -->
<g id="node1" class="node">
<title>dir_c0d5990a54af58a8d638adaf50280d31</title>
<g id="a_node1"><a xlink:href="dir_c0d5990a54af58a8d638adaf50280d31.html" target="_top" xlink:title="src">
<polygon fill="#eeeeff" stroke="black" points="85,-180 31,-180 31,-144 85,-144 85,-180"/>
<text text-anchor="middle" x="58" y="-159.5" font-family="Helvetica,sans-Serif" font-size="10.00">src</text>
</a>
</g>
</g>
<!-- dir_4118ae531ffdde861fee1c6efaa3009d -->
<g id="node2" class="node">
<title>dir_4118ae531ffdde861fee1c6efaa3009d</title>
<g id="a_node2"><a xlink:href="dir_4118ae531ffdde861fee1c6efaa3009d.html" target="_top" xlink:title="TextLogging">
<polygon fill="none" stroke="red" points="91.5,-36 22.5,-36 22.5,0 91.5,0 91.5,-36"/>
<text text-anchor="middle" x="57" y="-15.5" font-family="Helvetica,sans-Serif" font-size="10.00">TextLogging</text>
</a>
</g>
</g>
<!-- dir_c0d5990a54af58a8d638adaf50280d31&#45;&gt;dir_4118ae531ffdde861fee1c6efaa3009d -->
<g id="edge2" class="edge">
<title>dir_c0d5990a54af58a8d638adaf50280d31&#45;&gt;dir_4118ae531ffdde861fee1c6efaa3009d</title>
<path fill="none" stroke="black" d="M54.35,-143.91C52.32,-133.57 50.02,-120.09 49,-108 47.66,-92.06 47.8,-87.96 49,-72 49.64,-63.52 50.84,-54.34 52.12,-46.04"/>
<polygon fill="black" stroke="black" points="55.58,-46.55 53.75,-36.11 48.68,-45.41 55.58,-46.55"/>
<g id="a_edge2&#45;headlabel"><a xlink:href="dir_000050_000076.html" target="_top" xlink:title="1">
<text text-anchor="middle" x="57.8" y="-48.05" font-family="Helvetica,sans-Serif" font-size="10.00">1</text>
</a>
</g>
</g>
<!-- dir_c2ff16d22970d8b79330500bc8a01502 -->
<g id="node3" class="node">
<title>dir_c2ff16d22970d8b79330500bc8a01502</title>
<g id="a_node3"><a xlink:href="dir_c2ff16d22970d8b79330500bc8a01502.html" target="_top" xlink:title="include">
<polygon fill="none" stroke="red" points="112,-108 58,-108 58,-72 112,-72 112,-108"/>
<text text-anchor="middle" x="85" y="-87.5" font-family="Helvetica,sans-Serif" font-size="10.00">include</text>
</a>
</g>
</g>
<!-- dir_c0d5990a54af58a8d638adaf50280d31&#45;&gt;dir_c2ff16d22970d8b79330500bc8a01502 -->
<g id="edge3" class="edge">
<title>dir_c0d5990a54af58a8d638adaf50280d31&#45;&gt;dir_c2ff16d22970d8b79330500bc8a01502</title>
<path fill="none" stroke="black" d="M64.67,-143.7C67.71,-135.81 71.38,-126.3 74.76,-117.55"/>
<polygon fill="black" stroke="black" points="78.07,-118.69 78.4,-108.1 71.54,-116.17 78.07,-118.69"/>
<g id="a_edge3&#45;headlabel"><a xlink:href="dir_000050_000047.html" target="_top" xlink:title="1">
<text text-anchor="middle" x="79.42" y="-120.57" font-family="Helvetica,sans-Serif" font-size="10.00">1</text>
</a>
</g>
</g>
<!-- dir_c2ff16d22970d8b79330500bc8a01502&#45;&gt;dir_4118ae531ffdde861fee1c6efaa3009d -->
<g id="edge1" class="edge">
<title>dir_c2ff16d22970d8b79330500bc8a01502&#45;&gt;dir_4118ae531ffdde861fee1c6efaa3009d</title>
<path fill="none" stroke="black" d="M78.08,-71.7C74.93,-63.81 71.12,-54.3 67.62,-45.55"/>
<polygon fill="black" stroke="black" points="70.81,-44.09 63.84,-36.1 64.31,-46.69 70.81,-44.09"/>
<g id="a_edge1&#45;headlabel"><a xlink:href="dir_000047_000076.html" target="_top" xlink:title="1">
<text text-anchor="middle" x="74.78" y="-43.87" font-family="Helvetica,sans-Serif" font-size="10.00">1</text>
</a>
</g>
</g>
</g>
</svg>
