<?xml version="1.0" encoding="UTF-8" standalone="no"?>
<!DOCTYPE svg PUBLIC "-//W3C//DTD SVG 1.1//EN"
 "http://www.w3.org/Graphics/SVG/1.1/DTD/svg11.dtd">
<!-- Generated by graphviz version 2.43.0 (0)
 -->
<!-- Title: Estimators/include/BipedalLocomotion/Estimators Pages: 1 -->
<svg width="123pt" height="223pt"
 viewBox="0.00 0.00 123.00 223.00" xmlns="http://www.w3.org/2000/svg" xmlns:xlink="http://www.w3.org/1999/xlink">
<g id="graph0" class="graph" transform="scale(1 1) rotate(0) translate(4 219)">
<title>Estimators/include/BipedalLocomotion/Estimators</title>
<g id="clust1" class="cluster">
<title>clusterdir_76b3c42c31613a4250722fde83b07506</title>
<g id="a_clust1"><a xlink:href="dir_76b3c42c31613a4250722fde83b07506.html" target="_top" xlink:title="BipedalLocomotion">
<polygon fill="#ddddee" stroke="black" points="8,-136 8,-207 107,-207 107,-136 8,-136"/>
<text text-anchor="middle" x="57.5" y="-195" font-family="Helvetica,sans-Serif" font-size="10.00">BipedalLocomotion</text>
</a>
</g>
</g>
<!-- dir_ee07514d2807e20bc45d06fa42085a9b -->
<g id="node1" class="node">
<title>dir_ee07514d2807e20bc45d06fa42085a9b</title>
<g id="a_node1"><a xlink:href="dir_ee07514d2807e20bc45d06fa42085a9b.html" target="_top" xlink:title="Estimators">
<polygon fill="#eeeeff" stroke="black" points="89,-180 25,-180 25,-144 89,-144 89,-180"/>
<text text-anchor="middle" x="57" y="-159.5" font-family="Helvetica,sans-Serif" font-size="10.00">Estimators</text>
</a>
</g>
</g>
<!-- dir_ef68f1e1f5148ff8ef7fb1c955106c3c -->
<g id="node2" class="node">
<title>dir_ef68f1e1f5148ff8ef7fb1c955106c3c</title>
<g id="a_node2"><a xlink:href="dir_ef68f1e1f5148ff8ef7fb1c955106c3c.html" target="_top" xlink:title="System">
<polygon fill="none" stroke="red" points="56,-108 2,-108 2,-72 56,-72 56,-108"/>
<text text-anchor="middle" x="29" y="-87.5" font-family="Helvetica,sans-Serif" font-size="10.00">System</text>
</a>
</g>
</g>
<!-- dir_ee07514d2807e20bc45d06fa42085a9b&#45;&gt;dir_ef68f1e1f5148ff8ef7fb1c955106c3c -->
<g id="edge2" class="edge">
<title>dir_ee07514d2807e20bc45d06fa42085a9b&#45;&gt;dir_ef68f1e1f5148ff8ef7fb1c955106c3c</title>
<path fill="none" stroke="black" d="M50.08,-143.7C46.93,-135.81 43.12,-126.3 39.62,-117.55"/>
<polygon fill="black" stroke="black" points="42.81,-116.09 35.84,-108.1 36.31,-118.69 42.81,-116.09"/>
<g id="a_edge2&#45;headlabel"><a xlink:href="dir_000024_000071.html" target="_top" xlink:title="1">
<text text-anchor="middle" x="46.78" y="-115.87" font-family="Helvetica,sans-Serif" font-size="10.00">1</text>
</a>
</g>
</g>
<!-- dir_995a11a27ec5ce2fce465ebbab555255 -->
<g id="node3" class="node">
<title>dir_995a11a27ec5ce2fce465ebbab555255</title>
<g id="a_node3"><a xlink:href="dir_995a11a27ec5ce2fce465ebbab555255.html" target="_top" xlink:title="ParametersHandler">
<polygon fill="none" stroke="red" points="106.5,-36 5.5,-36 5.5,0 106.5,0 106.5,-36"/>
<text text-anchor="middle" x="56" y="-15.5" font-family="Helvetica,sans-Serif" font-size="10.00">ParametersHandler</text>
</a>
</g>
</g>
<!-- dir_ee07514d2807e20bc45d06fa42085a9b&#45;&gt;dir_995a11a27ec5ce2fce465ebbab555255 -->
<g id="edge3" class="edge">
<title>dir_ee07514d2807e20bc45d06fa42085a9b&#45;&gt;dir_995a11a27ec5ce2fce465ebbab555255</title>
<path fill="none" stroke="black" d="M60.25,-143.89C62.05,-133.54 64.09,-120.06 65,-108 66.2,-92.04 66.34,-87.94 65,-72 64.28,-63.5 62.93,-54.31 61.49,-46.01"/>
<polygon fill="black" stroke="black" points="64.91,-45.29 59.65,-36.09 58.03,-46.56 64.91,-45.29"/>
<g id="a_edge3&#45;headlabel"><a xlink:href="dir_000024_000046.html" target="_top" xlink:title="1">
<text text-anchor="middle" x="68.36" y="-45.81" font-family="Helvetica,sans-Serif" font-size="10.00">1</text>
</a>
</g>
</g>
<!-- dir_ef68f1e1f5148ff8ef7fb1c955106c3c&#45;&gt;dir_995a11a27ec5ce2fce465ebbab555255 -->
<g id="edge1" class="edge">
<title>dir_ef68f1e1f5148ff8ef7fb1c955106c3c&#45;&gt;dir_995a11a27ec5ce2fce465ebbab555255</title>
<path fill="none" stroke="black" d="M35.67,-71.7C38.71,-63.81 42.38,-54.3 45.76,-45.55"/>
<polygon fill="black" stroke="black" points="49.07,-46.69 49.4,-36.1 42.54,-44.17 49.07,-46.69"/>
<g id="a_edge1&#45;headlabel"><a xlink:href="dir_000071_000046.html" target="_top" xlink:title="3">
<text text-anchor="middle" x="50.42" y="-48.57" font-family="Helvetica,sans-Serif" font-size="10.00">3</text>
</a>
</g>
</g>
</g>
</svg>
