<?xml version="1.0" encoding="UTF-8" standalone="no"?>
<!DOCTYPE svg PUBLIC "-//W3C//DTD SVG 1.1//EN"
 "http://www.w3.org/Graphics/SVG/1.1/DTD/svg11.dtd">
<!-- Generated by graphviz version 2.43.0 (0)
 -->
<!-- Title: Estimators/include/BipedalLocomotion/FloatingBaseEstimators Pages: 1 -->
<svg width="169pt" height="295pt"
 viewBox="0.00 0.00 169.00 295.00" xmlns="http://www.w3.org/2000/svg" xmlns:xlink="http://www.w3.org/1999/xlink">
<g id="graph0" class="graph" transform="scale(1 1) rotate(0) translate(4 291)">
<title>Estimators/include/BipedalLocomotion/FloatingBaseEstimators</title>
<g id="clust1" class="cluster">
<title>clusterdir_76b3c42c31613a4250722fde83b07506</title>
<g id="a_clust1"><a xlink:href="dir_76b3c42c31613a4250722fde83b07506.html" target="_top" xlink:title="BipedalLocomotion">
<polygon fill="#ddddee" stroke="black" points="8,-208 8,-279 146,-279 146,-208 8,-208"/>
<text text-anchor="middle" x="77" y="-267" font-family="Helvetica,sans-Serif" font-size="10.00">BipedalLocomotion</text>
</a>
</g>
</g>
<!-- dir_eb2aee06d54bf141ab9a7f577cd1a1c7 -->
<g id="node1" class="node">
<title>dir_eb2aee06d54bf141ab9a7f577cd1a1c7</title>
<g id="a_node1"><a xlink:href="dir_eb2aee06d54bf141ab9a7f577cd1a1c7.html" target="_top" xlink:title="FloatingBaseEstimators">
<polygon fill="#eeeeff" stroke="black" points="137.5,-252 16.5,-252 16.5,-216 137.5,-216 137.5,-252"/>
<text text-anchor="middle" x="77" y="-231.5" font-family="Helvetica,sans-Serif" font-size="10.00">FloatingBaseEstimators</text>
</a>
</g>
</g>
<!-- dir_ef68f1e1f5148ff8ef7fb1c955106c3c -->
<g id="node2" class="node">
<title>dir_ef68f1e1f5148ff8ef7fb1c955106c3c</title>
<g id="a_node2"><a xlink:href="dir_ef68f1e1f5148ff8ef7fb1c955106c3c.html" target="_top" xlink:title="System">
<polygon fill="none" stroke="red" points="113,-108 59,-108 59,-72 113,-72 113,-108"/>
<text text-anchor="middle" x="86" y="-87.5" font-family="Helvetica,sans-Serif" font-size="10.00">System</text>
</a>
</g>
</g>
<!-- dir_eb2aee06d54bf141ab9a7f577cd1a1c7&#45;&gt;dir_ef68f1e1f5148ff8ef7fb1c955106c3c -->
<g id="edge2" class="edge">
<title>dir_eb2aee06d54bf141ab9a7f577cd1a1c7&#45;&gt;dir_ef68f1e1f5148ff8ef7fb1c955106c3c</title>
<path fill="none" stroke="black" d="M78.09,-215.87C79.62,-191.67 82.44,-147.21 84.26,-118.39"/>
<polygon fill="black" stroke="black" points="87.77,-118.39 84.91,-108.19 80.78,-117.95 87.77,-118.39"/>
<g id="a_edge2&#45;headlabel"><a xlink:href="dir_000025_000071.html" target="_top" xlink:title="1">
<text text-anchor="middle" x="90.38" y="-119.66" font-family="Helvetica,sans-Serif" font-size="10.00">1</text>
</a>
</g>
</g>
<!-- dir_995a11a27ec5ce2fce465ebbab555255 -->
<g id="node3" class="node">
<title>dir_995a11a27ec5ce2fce465ebbab555255</title>
<g id="a_node3"><a xlink:href="dir_995a11a27ec5ce2fce465ebbab555255.html" target="_top" xlink:title="ParametersHandler">
<polygon fill="none" stroke="red" points="136.5,-36 35.5,-36 35.5,0 136.5,0 136.5,-36"/>
<text text-anchor="middle" x="86" y="-15.5" font-family="Helvetica,sans-Serif" font-size="10.00">ParametersHandler</text>
</a>
</g>
</g>
<!-- dir_eb2aee06d54bf141ab9a7f577cd1a1c7&#45;&gt;dir_995a11a27ec5ce2fce465ebbab555255 -->
<g id="edge3" class="edge">
<title>dir_eb2aee06d54bf141ab9a7f577cd1a1c7&#45;&gt;dir_995a11a27ec5ce2fce465ebbab555255</title>
<path fill="none" stroke="black" d="M68.98,-215.74C56.24,-185.88 34.34,-122.93 50,-72 53.01,-62.22 58.51,-52.62 64.32,-44.33"/>
<polygon fill="black" stroke="black" points="67.19,-46.33 70.39,-36.23 61.59,-42.13 67.19,-46.33"/>
<g id="a_edge3&#45;headlabel"><a xlink:href="dir_000025_000046.html" target="_top" xlink:title="2">
<text text-anchor="middle" x="67.31" y="-48.41" font-family="Helvetica,sans-Serif" font-size="10.00">2</text>
</a>
</g>
</g>
<!-- dir_50541d64f188ef934de78ba6c49ffdbe -->
<g id="node4" class="node">
<title>dir_50541d64f188ef934de78ba6c49ffdbe</title>
<g id="a_node4"><a xlink:href="dir_50541d64f188ef934de78ba6c49ffdbe.html" target="_top" xlink:title="Contacts">
<polygon fill="none" stroke="red" points="161,-180 105,-180 105,-144 161,-144 161,-180"/>
<text text-anchor="middle" x="133" y="-159.5" font-family="Helvetica,sans-Serif" font-size="10.00">Contacts</text>
</a>
</g>
</g>
<!-- dir_eb2aee06d54bf141ab9a7f577cd1a1c7&#45;&gt;dir_50541d64f188ef934de78ba6c49ffdbe -->
<g id="edge4" class="edge">
<title>dir_eb2aee06d54bf141ab9a7f577cd1a1c7&#45;&gt;dir_50541d64f188ef934de78ba6c49ffdbe</title>
<path fill="none" stroke="black" d="M90.84,-215.7C97.49,-207.39 105.58,-197.28 112.89,-188.14"/>
<polygon fill="black" stroke="black" points="115.8,-190.1 119.32,-180.1 110.34,-185.73 115.8,-190.1"/>
<g id="a_edge4&#45;headlabel"><a xlink:href="dir_000025_000011.html" target="_top" xlink:title="1">
<text text-anchor="middle" x="115.77" y="-192.18" font-family="Helvetica,sans-Serif" font-size="10.00">1</text>
</a>
</g>
</g>
<!-- dir_ef68f1e1f5148ff8ef7fb1c955106c3c&#45;&gt;dir_995a11a27ec5ce2fce465ebbab555255 -->
<g id="edge1" class="edge">
<title>dir_ef68f1e1f5148ff8ef7fb1c955106c3c&#45;&gt;dir_995a11a27ec5ce2fce465ebbab555255</title>
<path fill="none" stroke="black" d="M86,-71.7C86,-63.98 86,-54.71 86,-46.11"/>
<polygon fill="black" stroke="black" points="89.5,-46.1 86,-36.1 82.5,-46.1 89.5,-46.1"/>
<g id="a_edge1&#45;headlabel"><a xlink:href="dir_000071_000046.html" target="_top" xlink:title="3">
<text text-anchor="middle" x="92.34" y="-47.2" font-family="Helvetica,sans-Serif" font-size="10.00">3</text>
</a>
</g>
</g>
<!-- dir_50541d64f188ef934de78ba6c49ffdbe&#45;&gt;dir_ef68f1e1f5148ff8ef7fb1c955106c3c -->
<g id="edge5" class="edge">
<title>dir_50541d64f188ef934de78ba6c49ffdbe&#45;&gt;dir_ef68f1e1f5148ff8ef7fb1c955106c3c</title>
<path fill="none" stroke="black" d="M121.38,-143.7C115.86,-135.47 109.15,-125.48 103.07,-116.42"/>
<polygon fill="black" stroke="black" points="105.96,-114.46 97.48,-108.1 100.15,-118.36 105.96,-114.46"/>
<g id="a_edge5&#45;headlabel"><a xlink:href="dir_000011_000071.html" target="_top" xlink:title="1">
<text text-anchor="middle" x="110.33" y="-113.36" font-family="Helvetica,sans-Serif" font-size="10.00">1</text>
</a>
</g>
</g>
<!-- dir_50541d64f188ef934de78ba6c49ffdbe&#45;&gt;dir_995a11a27ec5ce2fce465ebbab555255 -->
<g id="edge6" class="edge">
<title>dir_50541d64f188ef934de78ba6c49ffdbe&#45;&gt;dir_995a11a27ec5ce2fce465ebbab555255</title>
<path fill="none" stroke="black" d="M133.24,-143.7C132.95,-125.34 130.94,-95.75 122,-72 118.4,-62.42 112.73,-52.88 106.95,-44.58"/>
<polygon fill="black" stroke="black" points="109.71,-42.43 100.97,-36.44 104.07,-46.58 109.71,-42.43"/>
<g id="a_edge6&#45;headlabel"><a xlink:href="dir_000011_000046.html" target="_top" xlink:title="1">
<text text-anchor="middle" x="114.13" y="-41.15" font-family="Helvetica,sans-Serif" font-size="10.00">1</text>
</a>
</g>
</g>
</g>
</svg>
