<?xml version="1.0" encoding="UTF-8" standalone="no"?>
<!DOCTYPE svg PUBLIC "-//W3C//DTD SVG 1.1//EN"
 "http://www.w3.org/Graphics/SVG/1.1/DTD/svg11.dtd">
<!-- Generated by graphviz version 2.43.0 (0)
 -->
<!-- Title: System Pages: 1 -->
<svg width="310pt" height="276pt"
 viewBox="0.00 0.00 309.50 276.00" xmlns="http://www.w3.org/2000/svg" xmlns:xlink="http://www.w3.org/1999/xlink">
<g id="graph0" class="graph" transform="scale(1 1) rotate(0) translate(4 272)">
<title>System</title>
<g id="clust1" class="cluster">
<title>clusterdir_ef68f1e1f5148ff8ef7fb1c955106c3c</title>
<g id="a_clust1"><a xlink:href="dir_ef68f1e1f5148ff8ef7fb1c955106c3c.html" target="_top">
<polygon fill="#eeeeff" stroke="black" points="8,-136 8,-260 150,-260 150,-136 8,-136"/>
</a>
</g>
</g>
<!-- dir_ef68f1e1f5148ff8ef7fb1c955106c3c -->
<g id="node1" class="node">
<title>dir_ef68f1e1f5148ff8ef7fb1c955106c3c</title>
<text text-anchor="middle" x="115" y="-231.5" font-family="Helvetica,sans-Serif" font-size="10.00">System</text>
</g>
<!-- dir_543817dc0abe17961f66d6d58373e100 -->
<g id="node2" class="node">
<title>dir_543817dc0abe17961f66d6d58373e100</title>
<g id="a_node2"><a xlink:href="dir_543817dc0abe17961f66d6d58373e100.html" target="_top" xlink:title="include">
<polygon fill="white" stroke="red" points="87,-180 33,-180 33,-144 87,-144 87,-180"/>
<text text-anchor="middle" x="60" y="-159.5" font-family="Helvetica,sans-Serif" font-size="10.00">include</text>
</a>
</g>
</g>
<!-- dir_ddacabcd4572cd422cd722a5b78176ea -->
<g id="node4" class="node">
<title>dir_ddacabcd4572cd422cd722a5b78176ea</title>
<g id="a_node4"><a xlink:href="dir_ddacabcd4572cd422cd722a5b78176ea.html" target="_top" xlink:title="ContactModels">
<polygon fill="none" stroke="red" points="101.5,-108 18.5,-108 18.5,-72 101.5,-72 101.5,-108"/>
<text text-anchor="middle" x="60" y="-87.5" font-family="Helvetica,sans-Serif" font-size="10.00">ContactModels</text>
</a>
</g>
</g>
<!-- dir_543817dc0abe17961f66d6d58373e100&#45;&gt;dir_ddacabcd4572cd422cd722a5b78176ea -->
<g id="edge6" class="edge">
<title>dir_543817dc0abe17961f66d6d58373e100&#45;&gt;dir_ddacabcd4572cd422cd722a5b78176ea</title>
<path fill="none" stroke="black" d="M60,-143.7C60,-135.98 60,-126.71 60,-118.11"/>
<polygon fill="black" stroke="black" points="63.5,-118.1 60,-108.1 56.5,-118.1 63.5,-118.1"/>
<g id="a_edge6&#45;headlabel"><a xlink:href="dir_000072_000006.html" target="_top" xlink:title="1">
<text text-anchor="middle" x="66.34" y="-119.2" font-family="Helvetica,sans-Serif" font-size="10.00">1</text>
</a>
</g>
</g>
<!-- dir_995a11a27ec5ce2fce465ebbab555255 -->
<g id="node7" class="node">
<title>dir_995a11a27ec5ce2fce465ebbab555255</title>
<g id="a_node7"><a xlink:href="dir_995a11a27ec5ce2fce465ebbab555255.html" target="_top" xlink:title="ParametersHandler">
<polygon fill="none" stroke="red" points="180.5,-36 79.5,-36 79.5,0 180.5,0 180.5,-36"/>
<text text-anchor="middle" x="130" y="-15.5" font-family="Helvetica,sans-Serif" font-size="10.00">ParametersHandler</text>
</a>
</g>
</g>
<!-- dir_543817dc0abe17961f66d6d58373e100&#45;&gt;dir_995a11a27ec5ce2fce465ebbab555255 -->
<g id="edge7" class="edge">
<title>dir_543817dc0abe17961f66d6d58373e100&#45;&gt;dir_995a11a27ec5ce2fce465ebbab555255</title>
<path fill="none" stroke="black" d="M80.8,-143.84C91.06,-134.3 102.76,-121.63 110,-108 120.19,-88.83 125.2,-64.67 127.66,-46.36"/>
<polygon fill="black" stroke="black" points="131.15,-46.68 128.83,-36.34 124.19,-45.86 131.15,-46.68"/>
<g id="a_edge7&#45;headlabel"><a xlink:href="dir_000072_000046.html" target="_top" xlink:title="3">
<text text-anchor="middle" x="133.55" y="-48.07" font-family="Helvetica,sans-Serif" font-size="10.00">3</text>
</a>
</g>
</g>
<!-- dir_5f44df30490d7d577c379553603dbaeb -->
<g id="node3" class="node">
<title>dir_5f44df30490d7d577c379553603dbaeb</title>
<g id="a_node3"><a xlink:href="dir_5f44df30490d7d577c379553603dbaeb.html" target="_top" xlink:title="src">
<polygon fill="white" stroke="black" points="70,-252 16,-252 16,-216 70,-216 70,-252"/>
<text text-anchor="middle" x="43" y="-231.5" font-family="Helvetica,sans-Serif" font-size="10.00">src</text>
</a>
</g>
</g>
<!-- dir_5f44df30490d7d577c379553603dbaeb&#45;&gt;dir_543817dc0abe17961f66d6d58373e100 -->
<g id="edge3" class="edge">
<title>dir_5f44df30490d7d577c379553603dbaeb&#45;&gt;dir_543817dc0abe17961f66d6d58373e100</title>
<path fill="none" stroke="black" d="M47.2,-215.7C49.1,-207.9 51.38,-198.51 53.48,-189.83"/>
<polygon fill="black" stroke="black" points="56.89,-190.65 55.85,-180.1 50.08,-189 56.89,-190.65"/>
<g id="a_edge3&#45;headlabel"><a xlink:href="dir_000075_000072.html" target="_top" xlink:title="5">
<text text-anchor="middle" x="58.8" y="-192.31" font-family="Helvetica,sans-Serif" font-size="10.00">5</text>
</a>
</g>
</g>
<!-- dir_3813464283bee2267f39dcf080a84d74 -->
<g id="node5" class="node">
<title>dir_3813464283bee2267f39dcf080a84d74</title>
<g id="a_node5"><a xlink:href="dir_3813464283bee2267f39dcf080a84d74.html" target="_top" xlink:title="Math">
<polygon fill="none" stroke="red" points="212,-180 158,-180 158,-144 212,-144 212,-180"/>
<text text-anchor="middle" x="185" y="-159.5" font-family="Helvetica,sans-Serif" font-size="10.00">Math</text>
</a>
</g>
</g>
<!-- dir_5f44df30490d7d577c379553603dbaeb&#45;&gt;dir_3813464283bee2267f39dcf080a84d74 -->
<g id="edge2" class="edge">
<title>dir_5f44df30490d7d577c379553603dbaeb&#45;&gt;dir_3813464283bee2267f39dcf080a84d74</title>
<path fill="none" stroke="black" d="M70.23,-220.1C95.13,-208.28 130.45,-191.49 148.82,-182.49"/>
<polygon fill="black" stroke="black" points="150.61,-185.52 158,-177.92 147.48,-179.25 150.61,-185.52"/>
<g id="a_edge2&#45;headlabel"><a xlink:href="dir_000075_000041.html" target="_top" xlink:title="1">
<text text-anchor="middle" x="148.65" y="-187.16" font-family="Helvetica,sans-Serif" font-size="10.00">1</text>
</a>
</g>
</g>
<!-- dir_67ecbf5b3dd37b0be5aedd0167f75fa8 -->
<g id="node6" class="node">
<title>dir_67ecbf5b3dd37b0be5aedd0167f75fa8</title>
<g id="a_node6"><a xlink:href="dir_67ecbf5b3dd37b0be5aedd0167f75fa8.html" target="_top" xlink:title="Conversions">
<polygon fill="none" stroke="red" points="301.5,-180 230.5,-180 230.5,-144 301.5,-144 301.5,-180"/>
<text text-anchor="middle" x="266" y="-159.5" font-family="Helvetica,sans-Serif" font-size="10.00">Conversions</text>
</a>
</g>
</g>
<!-- dir_5f44df30490d7d577c379553603dbaeb&#45;&gt;dir_67ecbf5b3dd37b0be5aedd0167f75fa8 -->
<g id="edge4" class="edge">
<title>dir_5f44df30490d7d577c379553603dbaeb&#45;&gt;dir_67ecbf5b3dd37b0be5aedd0167f75fa8</title>
<path fill="none" stroke="black" d="M70.29,-219.45C73.2,-218.2 76.14,-217.03 79,-216 137.4,-195.03 157.05,-199.08 220.57,-179.92"/>
<polygon fill="black" stroke="black" points="221.75,-183.22 230.27,-176.92 219.68,-176.53 221.75,-183.22"/>
<g id="a_edge4&#45;headlabel"><a xlink:href="dir_000075_000017.html" target="_top" xlink:title="1">
<text text-anchor="middle" x="219.15" y="-184.49" font-family="Helvetica,sans-Serif" font-size="10.00">1</text>
</a>
</g>
</g>
<!-- dir_ddacabcd4572cd422cd722a5b78176ea&#45;&gt;dir_995a11a27ec5ce2fce465ebbab555255 -->
<g id="edge1" class="edge">
<title>dir_ddacabcd4572cd422cd722a5b78176ea&#45;&gt;dir_995a11a27ec5ce2fce465ebbab555255</title>
<path fill="none" stroke="black" d="M77.3,-71.7C85.86,-63.14 96.34,-52.66 105.7,-43.3"/>
<polygon fill="black" stroke="black" points="108.3,-45.65 112.9,-36.1 103.35,-40.7 108.3,-45.65"/>
<g id="a_edge1&#45;headlabel"><a xlink:href="dir_000006_000046.html" target="_top" xlink:title="3">
<text text-anchor="middle" x="107.77" y="-47.7" font-family="Helvetica,sans-Serif" font-size="10.00">3</text>
</a>
</g>
</g>
<!-- dir_3813464283bee2267f39dcf080a84d74&#45;&gt;dir_995a11a27ec5ce2fce465ebbab555255 -->
<g id="edge5" class="edge">
<title>dir_3813464283bee2267f39dcf080a84d74&#45;&gt;dir_995a11a27ec5ce2fce465ebbab555255</title>
<path fill="none" stroke="black" d="M178.37,-143.87C168.91,-119.46 151.47,-74.43 140.32,-45.64"/>
<polygon fill="black" stroke="black" points="143.53,-44.25 136.66,-36.19 137.01,-46.78 143.53,-44.25"/>
<g id="a_edge5&#45;headlabel"><a xlink:href="dir_000041_000046.html" target="_top" xlink:title="1">
<text text-anchor="middle" x="147.48" y="-44.08" font-family="Helvetica,sans-Serif" font-size="10.00">1</text>
</a>
</g>
</g>
</g>
</svg>
