<?xml version="1.0" encoding="UTF-8" standalone="no"?>
<!DOCTYPE svg PUBLIC "-//W3C//DTD SVG 1.1//EN"
 "http://www.w3.org/Graphics/SVG/1.1/DTD/svg11.dtd">
<!-- Generated by graphviz version 2.43.0 (0)
 -->
<!-- Title: IK Pages: 1 -->
<svg width="222pt" height="348pt"
 viewBox="0.00 0.00 222.00 348.00" xmlns="http://www.w3.org/2000/svg" xmlns:xlink="http://www.w3.org/1999/xlink">
<g id="graph0" class="graph" transform="scale(1 1) rotate(0) translate(4 344)">
<title>IK</title>
<g id="clust1" class="cluster">
<title>clusterdir_66c66c13cf9158c1f22f6cf6d3ba76a2</title>
<g id="a_clust1"><a xlink:href="dir_66c66c13cf9158c1f22f6cf6d3ba76a2.html" target="_top">
<polygon fill="#eeeeff" stroke="black" points="61.5,-208 61.5,-332 203.5,-332 203.5,-208 61.5,-208"/>
</a>
</g>
</g>
<!-- dir_66c66c13cf9158c1f22f6cf6d3ba76a2 -->
<g id="node1" class="node">
<title>dir_66c66c13cf9158c1f22f6cf6d3ba76a2</title>
<text text-anchor="middle" x="168.5" y="-303.5" font-family="Helvetica,sans-Serif" font-size="10.00">IK</text>
</g>
<!-- dir_67dd381f86eec7791e9db8646ed74f67 -->
<g id="node2" class="node">
<title>dir_67dd381f86eec7791e9db8646ed74f67</title>
<g id="a_node2"><a xlink:href="dir_67dd381f86eec7791e9db8646ed74f67.html" target="_top" xlink:title="include">
<polygon fill="white" stroke="red" points="123.5,-252 69.5,-252 69.5,-216 123.5,-216 123.5,-252"/>
<text text-anchor="middle" x="96.5" y="-231.5" font-family="Helvetica,sans-Serif" font-size="10.00">include</text>
</a>
</g>
</g>
<!-- dir_ef68f1e1f5148ff8ef7fb1c955106c3c -->
<g id="node4" class="node">
<title>dir_ef68f1e1f5148ff8ef7fb1c955106c3c</title>
<g id="a_node4"><a xlink:href="dir_ef68f1e1f5148ff8ef7fb1c955106c3c.html" target="_top" xlink:title="System">
<polygon fill="none" stroke="red" points="150.5,-180 96.5,-180 96.5,-144 150.5,-144 150.5,-180"/>
<text text-anchor="middle" x="123.5" y="-159.5" font-family="Helvetica,sans-Serif" font-size="10.00">System</text>
</a>
</g>
</g>
<!-- dir_67dd381f86eec7791e9db8646ed74f67&#45;&gt;dir_ef68f1e1f5148ff8ef7fb1c955106c3c -->
<g id="edge6" class="edge">
<title>dir_67dd381f86eec7791e9db8646ed74f67&#45;&gt;dir_ef68f1e1f5148ff8ef7fb1c955106c3c</title>
<path fill="none" stroke="black" d="M103.17,-215.7C106.21,-207.81 109.88,-198.3 113.26,-189.55"/>
<polygon fill="black" stroke="black" points="116.57,-190.69 116.9,-180.1 110.04,-188.17 116.57,-190.69"/>
<g id="a_edge6&#45;headlabel"><a xlink:href="dir_000032_000071.html" target="_top" xlink:title="3">
<text text-anchor="middle" x="117.92" y="-192.57" font-family="Helvetica,sans-Serif" font-size="10.00">3</text>
</a>
</g>
</g>
<!-- dir_995a11a27ec5ce2fce465ebbab555255 -->
<g id="node7" class="node">
<title>dir_995a11a27ec5ce2fce465ebbab555255</title>
<g id="a_node7"><a xlink:href="dir_995a11a27ec5ce2fce465ebbab555255.html" target="_top" xlink:title="ParametersHandler">
<polygon fill="none" stroke="red" points="125,-108 24,-108 24,-72 125,-72 125,-108"/>
<text text-anchor="middle" x="74.5" y="-87.5" font-family="Helvetica,sans-Serif" font-size="10.00">ParametersHandler</text>
</a>
</g>
</g>
<!-- dir_67dd381f86eec7791e9db8646ed74f67&#45;&gt;dir_995a11a27ec5ce2fce465ebbab555255 -->
<g id="edge7" class="edge">
<title>dir_67dd381f86eec7791e9db8646ed74f67&#45;&gt;dir_995a11a27ec5ce2fce465ebbab555255</title>
<path fill="none" stroke="black" d="M93.48,-215.83C91.68,-205.46 89.39,-191.98 87.5,-180 84.23,-159.31 80.82,-135.86 78.31,-118.23"/>
<polygon fill="black" stroke="black" points="81.74,-117.49 76.88,-108.08 74.81,-118.47 81.74,-117.49"/>
<g id="a_edge7&#45;headlabel"><a xlink:href="dir_000032_000046.html" target="_top" xlink:title="3">
<text text-anchor="middle" x="85.06" y="-118.15" font-family="Helvetica,sans-Serif" font-size="10.00">3</text>
</a>
</g>
</g>
<!-- dir_13d238e9d5ba4cdcfd0b66121a5bbe03 -->
<g id="node3" class="node">
<title>dir_13d238e9d5ba4cdcfd0b66121a5bbe03</title>
<g id="a_node3"><a xlink:href="dir_13d238e9d5ba4cdcfd0b66121a5bbe03.html" target="_top" xlink:title="src">
<polygon fill="white" stroke="black" points="123.5,-324 69.5,-324 69.5,-288 123.5,-288 123.5,-324"/>
<text text-anchor="middle" x="96.5" y="-303.5" font-family="Helvetica,sans-Serif" font-size="10.00">src</text>
</a>
</g>
</g>
<!-- dir_13d238e9d5ba4cdcfd0b66121a5bbe03&#45;&gt;dir_67dd381f86eec7791e9db8646ed74f67 -->
<g id="edge4" class="edge">
<title>dir_13d238e9d5ba4cdcfd0b66121a5bbe03&#45;&gt;dir_67dd381f86eec7791e9db8646ed74f67</title>
<path fill="none" stroke="black" d="M96.5,-287.7C96.5,-279.98 96.5,-270.71 96.5,-262.11"/>
<polygon fill="black" stroke="black" points="100,-262.1 96.5,-252.1 93,-262.1 100,-262.1"/>
<g id="a_edge4&#45;headlabel"><a xlink:href="dir_000039_000032.html" target="_top" xlink:title="7">
<text text-anchor="middle" x="102.84" y="-263.2" font-family="Helvetica,sans-Serif" font-size="10.00">7</text>
</a>
</g>
</g>
<!-- dir_4118ae531ffdde861fee1c6efaa3009d -->
<g id="node5" class="node">
<title>dir_4118ae531ffdde861fee1c6efaa3009d</title>
<g id="a_node5"><a xlink:href="dir_4118ae531ffdde861fee1c6efaa3009d.html" target="_top" xlink:title="TextLogging">
<polygon fill="none" stroke="red" points="69,-36 0,-36 0,0 69,0 69,-36"/>
<text text-anchor="middle" x="34.5" y="-15.5" font-family="Helvetica,sans-Serif" font-size="10.00">TextLogging</text>
</a>
</g>
</g>
<!-- dir_13d238e9d5ba4cdcfd0b66121a5bbe03&#45;&gt;dir_4118ae531ffdde861fee1c6efaa3009d -->
<g id="edge3" class="edge">
<title>dir_13d238e9d5ba4cdcfd0b66121a5bbe03&#45;&gt;dir_4118ae531ffdde861fee1c6efaa3009d</title>
<path fill="none" stroke="black" d="M82.82,-287.63C75.45,-277.64 66.63,-264.6 60.5,-252 31.1,-191.59 24.85,-174.38 14.5,-108 12.04,-92.19 11.63,-87.74 14.5,-72 16.11,-63.2 19.1,-53.95 22.29,-45.7"/>
<polygon fill="black" stroke="black" points="25.62,-46.79 26.19,-36.21 19.15,-44.12 25.62,-46.79"/>
<g id="a_edge3&#45;headlabel"><a xlink:href="dir_000039_000076.html" target="_top" xlink:title="5">
<text text-anchor="middle" x="26.88" y="-48.7" font-family="Helvetica,sans-Serif" font-size="10.00">5</text>
</a>
</g>
</g>
<!-- dir_67ecbf5b3dd37b0be5aedd0167f75fa8 -->
<g id="node6" class="node">
<title>dir_67ecbf5b3dd37b0be5aedd0167f75fa8</title>
<g id="a_node6"><a xlink:href="dir_67ecbf5b3dd37b0be5aedd0167f75fa8.html" target="_top" xlink:title="Conversions">
<polygon fill="none" stroke="red" points="214,-108 143,-108 143,-72 214,-72 214,-108"/>
<text text-anchor="middle" x="178.5" y="-87.5" font-family="Helvetica,sans-Serif" font-size="10.00">Conversions</text>
</a>
</g>
</g>
<!-- dir_13d238e9d5ba4cdcfd0b66121a5bbe03&#45;&gt;dir_67ecbf5b3dd37b0be5aedd0167f75fa8 -->
<g id="edge5" class="edge">
<title>dir_13d238e9d5ba4cdcfd0b66121a5bbe03&#45;&gt;dir_67ecbf5b3dd37b0be5aedd0167f75fa8</title>
<path fill="none" stroke="black" d="M109.59,-287.98C116.95,-277.89 125.95,-264.64 132.5,-252 155.19,-208.16 168.02,-151.65 174.09,-118.56"/>
<polygon fill="black" stroke="black" points="177.61,-118.74 175.89,-108.29 170.71,-117.53 177.61,-118.74"/>
<g id="a_edge5&#45;headlabel"><a xlink:href="dir_000039_000017.html" target="_top" xlink:title="3">
<text text-anchor="middle" x="179.78" y="-120.27" font-family="Helvetica,sans-Serif" font-size="10.00">3</text>
</a>
</g>
</g>
<!-- dir_ef68f1e1f5148ff8ef7fb1c955106c3c&#45;&gt;dir_67ecbf5b3dd37b0be5aedd0167f75fa8 -->
<g id="edge1" class="edge">
<title>dir_ef68f1e1f5148ff8ef7fb1c955106c3c&#45;&gt;dir_67ecbf5b3dd37b0be5aedd0167f75fa8</title>
<path fill="none" stroke="black" d="M137.1,-143.7C143.62,-135.39 151.57,-125.28 158.75,-116.14"/>
<polygon fill="black" stroke="black" points="161.63,-118.13 165.06,-108.1 156.13,-113.81 161.63,-118.13"/>
<g id="a_edge1&#45;headlabel"><a xlink:href="dir_000071_000017.html" target="_top" xlink:title="1">
<text text-anchor="middle" x="161.65" y="-120.21" font-family="Helvetica,sans-Serif" font-size="10.00">1</text>
</a>
</g>
</g>
<!-- dir_ef68f1e1f5148ff8ef7fb1c955106c3c&#45;&gt;dir_995a11a27ec5ce2fce465ebbab555255 -->
<g id="edge2" class="edge">
<title>dir_ef68f1e1f5148ff8ef7fb1c955106c3c&#45;&gt;dir_995a11a27ec5ce2fce465ebbab555255</title>
<path fill="none" stroke="black" d="M111.39,-143.7C105.63,-135.47 98.64,-125.48 92.29,-116.42"/>
<polygon fill="black" stroke="black" points="95.08,-114.29 86.47,-108.1 89.34,-118.3 95.08,-114.29"/>
<g id="a_edge2&#45;headlabel"><a xlink:href="dir_000071_000046.html" target="_top" xlink:title="3">
<text text-anchor="middle" x="99.46" y="-113.11" font-family="Helvetica,sans-Serif" font-size="10.00">3</text>
</a>
</g>
</g>
<!-- dir_995a11a27ec5ce2fce465ebbab555255&#45;&gt;dir_4118ae531ffdde861fee1c6efaa3009d -->
<g id="edge8" class="edge">
<title>dir_995a11a27ec5ce2fce465ebbab555255&#45;&gt;dir_4118ae531ffdde861fee1c6efaa3009d</title>
<path fill="none" stroke="black" d="M64.61,-71.7C60.01,-63.64 54.44,-53.89 49.35,-44.98"/>
<polygon fill="black" stroke="black" points="52.27,-43.05 44.27,-36.1 46.2,-46.52 52.27,-43.05"/>
<g id="a_edge8&#45;headlabel"><a xlink:href="dir_000046_000076.html" target="_top" xlink:title="2">
<text text-anchor="middle" x="56.52" y="-42.26" font-family="Helvetica,sans-Serif" font-size="10.00">2</text>
</a>
</g>
</g>
</g>
</svg>
