<?xml version="1.0" encoding="UTF-8" standalone="no"?>
<!DOCTYPE svg PUBLIC "-//W3C//DTD SVG 1.1//EN"
 "http://www.w3.org/Graphics/SVG/1.1/DTD/svg11.dtd">
<!-- Generated by graphviz version 2.43.0 (0)
 -->
<!-- Title: Planners Pages: 1 -->
<!--zoomable 492 -->
<svg id="main" version="1.1" xmlns="http://www.w3.org/2000/svg" xmlns:xlink="http://www.w3.org/1999/xlink" xml:space="preserve" onload="init(evt)">
<style type="text/css"><![CDATA[
.edge:hover path { stroke: red; }
.edge:hover polygon { stroke: red; fill: red; }
]]></style>
<script type="text/javascript"><![CDATA[
var edges = document.getElementsByTagName('g');
if (edges && edges.length) {
  for (var i=0;i<edges.length;i++) {
    if (edges[i].id.substr(0,4)=='edge') {
      edges[i].setAttribute('class','edge');
    }
  }
}
]]></script>
        <defs>
                <circle id="rim" cx="0" cy="0" r="7"/>
                <circle id="rim2" cx="0" cy="0" r="3.5"/>
                <g id="zoomPlus">
                        <use xlink:href="#rim" fill="#404040">
                                <set attributeName="fill" to="#808080" begin="zoomplus.mouseover" end="zoomplus.mouseout"/>
                        </use>
                        <path d="M-4,0h8M0,-4v8" fill="none" stroke="white" stroke-width="1.5" pointer-events="none"/>
                </g>
                <g id="zoomMin">
                        <use xlink:href="#rim" fill="#404040">
                                <set attributeName="fill" to="#808080" begin="zoomminus.mouseover" end="zoomminus.mouseout"/>
                        </use>
                        <path d="M-4,0h8" fill="none" stroke="white" stroke-width="1.5" pointer-events="none"/>
                </g>
                <g id="dirArrow">
                        <path fill="none" stroke="white" stroke-width="1.5" d="M0,-3.0v7 M-2.5,-0.5L0,-3.0L2.5,-0.5"/>
                </g>
               <g id="resetDef">
                       <use xlink:href="#rim2" fill="#404040">
                               <set attributeName="fill" to="#808080" begin="reset.mouseover" end="reset.mouseout"/>
                       </use>
               </g>
        </defs>

<script type="text/javascript">
var viewWidth = 244;
var viewHeight = 492;
var sectionId = 'dynsection-0';
</script>
<script xlink:href="svgpan.js"/>
<svg id="graph" class="graph">
<g id="viewport">
<title>Planners</title>
<g id="clust1" class="cluster">
<title>clusterdir_cc5a7ea599a1eb2a878dda3f918ab084</title>
<g id="a_clust1"><a xlink:href="dir_cc5a7ea599a1eb2a878dda3f918ab084.html" target="_top">
<polygon fill="#eeeeff" stroke="black" points="41,-352 41,-476 185,-476 185,-352 41,-352"/>
</a>
</g>
</g>
<!-- dir_cc5a7ea599a1eb2a878dda3f918ab084 -->
<g id="node1" class="node">
<title>dir_cc5a7ea599a1eb2a878dda3f918ab084</title>
<text text-anchor="middle" x="149" y="-447.5" font-family="Helvetica,sans-Serif" font-size="10.00">Planners</text>
</g>
<!-- dir_47af31f393480a5d6889a54234fa11ed -->
<g id="node2" class="node">
<title>dir_47af31f393480a5d6889a54234fa11ed</title>
<g id="a_node2"><a xlink:href="dir_47af31f393480a5d6889a54234fa11ed.html" target="_top" xlink:title="include">
<polygon fill="white" stroke="red" points="167,-396 113,-396 113,-360 167,-360 167,-396"/>
<text text-anchor="middle" x="140" y="-375.5" font-family="Helvetica,sans-Serif" font-size="10.00">include</text>
</a>
</g>
</g>
<!-- dir_ef68f1e1f5148ff8ef7fb1c955106c3c -->
<g id="node4" class="node">
<title>dir_ef68f1e1f5148ff8ef7fb1c955106c3c</title>
<g id="a_node4"><a xlink:href="dir_ef68f1e1f5148ff8ef7fb1c955106c3c.html" target="_top" xlink:title="System">
<polygon fill="none" stroke="red" points="124,-252 70,-252 70,-216 124,-216 124,-252"/>
<text text-anchor="middle" x="97" y="-231.5" font-family="Helvetica,sans-Serif" font-size="10.00">System</text>
</a>
</g>
</g>
<!-- dir_47af31f393480a5d6889a54234fa11ed&#45;&gt;dir_ef68f1e1f5148ff8ef7fb1c955106c3c -->
<g id="edge12" class="edge">
<title>dir_47af31f393480a5d6889a54234fa11ed&#45;&gt;dir_ef68f1e1f5148ff8ef7fb1c955106c3c</title>
<path fill="none" stroke="black" d="M134.81,-359.87C127.45,-335.56 113.9,-290.82 105.18,-262.01"/>
<polygon fill="black" stroke="black" points="108.45,-260.75 102.21,-252.19 101.75,-262.77 108.45,-260.75"/>
<g id="a_edge12&#45;headlabel"><a xlink:href="dir_000057_000071.html" target="_top" xlink:title="4">
<text text-anchor="middle" x="112.21" y="-260.86" font-family="Helvetica,sans-Serif" font-size="10.00">4</text>
</a>
</g>
</g>
<!-- dir_995a11a27ec5ce2fce465ebbab555255 -->
<g id="node7" class="node">
<title>dir_995a11a27ec5ce2fce465ebbab555255</title>
<g id="a_node7"><a xlink:href="dir_995a11a27ec5ce2fce465ebbab555255.html" target="_top" xlink:title="ParametersHandler">
<polygon fill="none" stroke="red" points="162.5,-108 61.5,-108 61.5,-72 162.5,-72 162.5,-108"/>
<text text-anchor="middle" x="112" y="-87.5" font-family="Helvetica,sans-Serif" font-size="10.00">ParametersHandler</text>
</a>
</g>
</g>
<!-- dir_47af31f393480a5d6889a54234fa11ed&#45;&gt;dir_995a11a27ec5ce2fce465ebbab555255 -->
<g id="edge13" class="edge">
<title>dir_47af31f393480a5d6889a54234fa11ed&#45;&gt;dir_995a11a27ec5ce2fce465ebbab555255</title>
<path fill="none" stroke="black" d="M139.94,-359.56C139.69,-329.95 138.48,-268.03 133,-216 129.43,-182.11 122.49,-143.47 117.57,-118.24"/>
<polygon fill="black" stroke="black" points="120.98,-117.43 115.6,-108.3 114.11,-118.79 120.98,-117.43"/>
<g id="a_edge13&#45;headlabel"><a xlink:href="dir_000057_000046.html" target="_top" xlink:title="2">
<text text-anchor="middle" x="124.46" y="-117.9" font-family="Helvetica,sans-Serif" font-size="10.00">2</text>
</a>
</g>
</g>
<!-- dir_50541d64f188ef934de78ba6c49ffdbe -->
<g id="node8" class="node">
<title>dir_50541d64f188ef934de78ba6c49ffdbe</title>
<g id="a_node8"><a xlink:href="dir_50541d64f188ef934de78ba6c49ffdbe.html" target="_top" xlink:title="Contacts">
<polygon fill="none" stroke="red" points="236,-324 180,-324 180,-288 236,-288 236,-324"/>
<text text-anchor="middle" x="208" y="-303.5" font-family="Helvetica,sans-Serif" font-size="10.00">Contacts</text>
</a>
</g>
</g>
<!-- dir_47af31f393480a5d6889a54234fa11ed&#45;&gt;dir_50541d64f188ef934de78ba6c49ffdbe -->
<g id="edge14" class="edge">
<title>dir_47af31f393480a5d6889a54234fa11ed&#45;&gt;dir_50541d64f188ef934de78ba6c49ffdbe</title>
<path fill="none" stroke="black" d="M156.81,-359.7C165.13,-351.14 175.31,-340.66 184.39,-331.3"/>
<polygon fill="black" stroke="black" points="186.93,-333.72 191.38,-324.1 181.91,-328.84 186.93,-333.72"/>
<g id="a_edge14&#45;headlabel"><a xlink:href="dir_000057_000011.html" target="_top" xlink:title="1">
<text text-anchor="middle" x="186.46" y="-335.77" font-family="Helvetica,sans-Serif" font-size="10.00">1</text>
</a>
</g>
</g>
<!-- dir_7db49aa183034495a2794b7f72164f5b -->
<g id="node3" class="node">
<title>dir_7db49aa183034495a2794b7f72164f5b</title>
<g id="a_node3"><a xlink:href="dir_7db49aa183034495a2794b7f72164f5b.html" target="_top" xlink:title="src">
<polygon fill="white" stroke="black" points="103,-468 49,-468 49,-432 103,-432 103,-468"/>
<text text-anchor="middle" x="76" y="-447.5" font-family="Helvetica,sans-Serif" font-size="10.00">src</text>
</a>
</g>
</g>
<!-- dir_7db49aa183034495a2794b7f72164f5b&#45;&gt;dir_47af31f393480a5d6889a54234fa11ed -->
<g id="edge8" class="edge">
<title>dir_7db49aa183034495a2794b7f72164f5b&#45;&gt;dir_47af31f393480a5d6889a54234fa11ed</title>
<path fill="none" stroke="black" d="M91.82,-431.7C99.57,-423.22 109.04,-412.86 117.52,-403.58"/>
<polygon fill="black" stroke="black" points="120.2,-405.85 124.36,-396.1 115.03,-401.12 120.2,-405.85"/>
<g id="a_edge8&#45;headlabel"><a xlink:href="dir_000060_000057.html" target="_top" xlink:title="7">
<text text-anchor="middle" x="119.87" y="-407.92" font-family="Helvetica,sans-Serif" font-size="10.00">7</text>
</a>
</g>
</g>
<!-- dir_7db49aa183034495a2794b7f72164f5b&#45;&gt;dir_ef68f1e1f5148ff8ef7fb1c955106c3c -->
<g id="edge4" class="edge">
<title>dir_7db49aa183034495a2794b7f72164f5b&#45;&gt;dir_ef68f1e1f5148ff8ef7fb1c955106c3c</title>
<path fill="none" stroke="black" d="M77.68,-431.85C81.32,-394.83 89.92,-307.18 94.31,-262.39"/>
<polygon fill="black" stroke="black" points="97.82,-262.53 95.31,-252.23 90.85,-261.84 97.82,-262.53"/>
<g id="a_edge4&#45;headlabel"><a xlink:href="dir_000060_000071.html" target="_top" xlink:title="1">
<text text-anchor="middle" x="100.29" y="-263.88" font-family="Helvetica,sans-Serif" font-size="10.00">1</text>
</a>
</g>
</g>
<!-- dir_4118ae531ffdde861fee1c6efaa3009d -->
<g id="node5" class="node">
<title>dir_4118ae531ffdde861fee1c6efaa3009d</title>
<g id="a_node5"><a xlink:href="dir_4118ae531ffdde861fee1c6efaa3009d.html" target="_top" xlink:title="TextLogging">
<polygon fill="none" stroke="red" points="89.5,-36 20.5,-36 20.5,0 89.5,0 89.5,-36"/>
<text text-anchor="middle" x="55" y="-15.5" font-family="Helvetica,sans-Serif" font-size="10.00">TextLogging</text>
</a>
</g>
</g>
<!-- dir_7db49aa183034495a2794b7f72164f5b&#45;&gt;dir_4118ae531ffdde861fee1c6efaa3009d -->
<g id="edge5" class="edge">
<title>dir_7db49aa183034495a2794b7f72164f5b&#45;&gt;dir_4118ae531ffdde861fee1c6efaa3009d</title>
<path fill="none" stroke="black" d="M59.51,-431.77C37.16,-406.53 0,-357.05 0,-307 0,-307 0,-307 0,-161 0,-118.01 22.19,-72.34 38.38,-44.74"/>
<polygon fill="black" stroke="black" points="41.43,-46.47 43.6,-36.1 35.44,-42.85 41.43,-46.47"/>
<g id="a_edge5&#45;headlabel"><a xlink:href="dir_000060_000076.html" target="_top" xlink:title="1">
<text text-anchor="middle" x="42" y="-48.51" font-family="Helvetica,sans-Serif" font-size="10.00">1</text>
</a>
</g>
</g>
<!-- dir_3813464283bee2267f39dcf080a84d74 -->
<g id="node6" class="node">
<title>dir_3813464283bee2267f39dcf080a84d74</title>
<g id="a_node6"><a xlink:href="dir_3813464283bee2267f39dcf080a84d74.html" target="_top" xlink:title="Math">
<polygon fill="none" stroke="red" points="84,-180 30,-180 30,-144 84,-144 84,-180"/>
<text text-anchor="middle" x="57" y="-159.5" font-family="Helvetica,sans-Serif" font-size="10.00">Math</text>
</a>
</g>
</g>
<!-- dir_7db49aa183034495a2794b7f72164f5b&#45;&gt;dir_3813464283bee2267f39dcf080a84d74 -->
<g id="edge6" class="edge">
<title>dir_7db49aa183034495a2794b7f72164f5b&#45;&gt;dir_3813464283bee2267f39dcf080a84d74</title>
<path fill="none" stroke="black" d="M74.52,-431.88C71.6,-397.71 65.03,-318.59 61,-252 59.75,-231.29 58.71,-207.84 58,-190.22"/>
<polygon fill="black" stroke="black" points="61.5,-189.93 57.61,-180.07 54.5,-190.2 61.5,-189.93"/>
<g id="a_edge6&#45;headlabel"><a xlink:href="dir_000060_000041.html" target="_top" xlink:title="1">
<text text-anchor="middle" x="64.47" y="-190.91" font-family="Helvetica,sans-Serif" font-size="10.00">1</text>
</a>
</g>
</g>
<!-- dir_7db49aa183034495a2794b7f72164f5b&#45;&gt;dir_50541d64f188ef934de78ba6c49ffdbe -->
<g id="edge7" class="edge">
<title>dir_7db49aa183034495a2794b7f72164f5b&#45;&gt;dir_50541d64f188ef934de78ba6c49ffdbe</title>
<path fill="none" stroke="black" d="M103.16,-435.87C130.93,-422.25 170.71,-402.11 176,-396 191.16,-378.52 199.32,-353.32 203.6,-334.19"/>
<polygon fill="black" stroke="black" points="207.06,-334.77 205.6,-324.28 200.19,-333.39 207.06,-334.77"/>
<g id="a_edge7&#45;headlabel"><a xlink:href="dir_000060_000011.html" target="_top" xlink:title="1">
<text text-anchor="middle" x="209.13" y="-336.36" font-family="Helvetica,sans-Serif" font-size="10.00">1</text>
</a>
</g>
</g>
<!-- dir_ef68f1e1f5148ff8ef7fb1c955106c3c&#45;&gt;dir_3813464283bee2267f39dcf080a84d74 -->
<g id="edge1" class="edge">
<title>dir_ef68f1e1f5148ff8ef7fb1c955106c3c&#45;&gt;dir_3813464283bee2267f39dcf080a84d74</title>
<path fill="none" stroke="black" d="M87.11,-215.7C82.51,-207.64 76.94,-197.89 71.85,-188.98"/>
<polygon fill="black" stroke="black" points="74.77,-187.05 66.77,-180.1 68.7,-190.52 74.77,-187.05"/>
<g id="a_edge1&#45;headlabel"><a xlink:href="dir_000071_000041.html" target="_top" xlink:title="1">
<text text-anchor="middle" x="79.02" y="-186.26" font-family="Helvetica,sans-Serif" font-size="10.00">1</text>
</a>
</g>
</g>
<!-- dir_ef68f1e1f5148ff8ef7fb1c955106c3c&#45;&gt;dir_995a11a27ec5ce2fce465ebbab555255 -->
<g id="edge2" class="edge">
<title>dir_ef68f1e1f5148ff8ef7fb1c955106c3c&#45;&gt;dir_995a11a27ec5ce2fce465ebbab555255</title>
<path fill="none" stroke="black" d="M98.81,-215.87C101.37,-191.67 106.06,-147.21 109.11,-118.39"/>
<polygon fill="black" stroke="black" points="112.61,-118.5 110.18,-108.19 105.65,-117.77 112.61,-118.5"/>
<g id="a_edge2&#45;headlabel"><a xlink:href="dir_000071_000046.html" target="_top" xlink:title="3">
<text text-anchor="middle" x="115.06" y="-119.87" font-family="Helvetica,sans-Serif" font-size="10.00">3</text>
</a>
</g>
</g>
<!-- dir_3813464283bee2267f39dcf080a84d74&#45;&gt;dir_995a11a27ec5ce2fce465ebbab555255 -->
<g id="edge3" class="edge">
<title>dir_3813464283bee2267f39dcf080a84d74&#45;&gt;dir_995a11a27ec5ce2fce465ebbab555255</title>
<path fill="none" stroke="black" d="M70.6,-143.7C77.12,-135.39 85.07,-125.28 92.25,-116.14"/>
<polygon fill="black" stroke="black" points="95.13,-118.13 98.56,-108.1 89.63,-113.81 95.13,-118.13"/>
<g id="a_edge3&#45;headlabel"><a xlink:href="dir_000041_000046.html" target="_top" xlink:title="1">
<text text-anchor="middle" x="95.15" y="-120.21" font-family="Helvetica,sans-Serif" font-size="10.00">1</text>
</a>
</g>
</g>
<!-- dir_995a11a27ec5ce2fce465ebbab555255&#45;&gt;dir_4118ae531ffdde861fee1c6efaa3009d -->
<g id="edge9" class="edge">
<title>dir_995a11a27ec5ce2fce465ebbab555255&#45;&gt;dir_4118ae531ffdde861fee1c6efaa3009d</title>
<path fill="none" stroke="black" d="M97.91,-71.7C91.08,-63.3 82.74,-53.07 75.24,-43.86"/>
<polygon fill="black" stroke="black" points="77.96,-41.65 68.93,-36.1 72.53,-46.07 77.96,-41.65"/>
<g id="a_edge9&#45;headlabel"><a xlink:href="dir_000046_000076.html" target="_top" xlink:title="2">
<text text-anchor="middle" x="82.43" y="-40.14" font-family="Helvetica,sans-Serif" font-size="10.00">2</text>
</a>
</g>
</g>
<!-- dir_50541d64f188ef934de78ba6c49ffdbe&#45;&gt;dir_ef68f1e1f5148ff8ef7fb1c955106c3c -->
<g id="edge10" class="edge">
<title>dir_50541d64f188ef934de78ba6c49ffdbe&#45;&gt;dir_ef68f1e1f5148ff8ef7fb1c955106c3c</title>
<path fill="none" stroke="black" d="M180.85,-287.88C166.47,-278.81 148.62,-267.55 133.09,-257.76"/>
<polygon fill="black" stroke="black" points="134.58,-254.56 124.26,-252.19 130.85,-260.48 134.58,-254.56"/>
<g id="a_edge10&#45;headlabel"><a xlink:href="dir_000011_000071.html" target="_top" xlink:title="1">
<text text-anchor="middle" x="139.14" y="-251.58" font-family="Helvetica,sans-Serif" font-size="10.00">1</text>
</a>
</g>
</g>
<!-- dir_50541d64f188ef934de78ba6c49ffdbe&#45;&gt;dir_995a11a27ec5ce2fce465ebbab555255 -->
<g id="edge11" class="edge">
<title>dir_50541d64f188ef934de78ba6c49ffdbe&#45;&gt;dir_995a11a27ec5ce2fce465ebbab555255</title>
<path fill="none" stroke="black" d="M206.55,-287.88C203.32,-257.17 193.51,-191.49 166,-144 159.84,-133.36 150.97,-123.42 142.19,-115.08"/>
<polygon fill="black" stroke="black" points="144.33,-112.31 134.57,-108.2 139.64,-117.5 144.33,-112.31"/>
<g id="a_edge11&#45;headlabel"><a xlink:href="dir_000011_000046.html" target="_top" xlink:title="1">
<text text-anchor="middle" x="148.9" y="-110.11" font-family="Helvetica,sans-Serif" font-size="10.00">1</text>
</a>
</g>
</g>
</g>
</svg>
        <g id="navigator" transform="translate(0 0)" fill="#404254">
                <rect fill="#f2f5e9" fill-opacity="0.5" stroke="#606060" stroke-width=".5" x="0" y="0" width="60" height="60"/>
                <use id="zoomplus" xlink:href="#zoomPlus" x="17" y="9" onmousedown="handleZoom(evt,'in')"/>
                <use id="zoomminus" xlink:href="#zoomMin" x="42" y="9" onmousedown="handleZoom(evt,'out')"/>
                <use id="reset" xlink:href="#resetDef" x="30" y="36" onmousedown="handleReset()"/>
                <g id="arrowUp" xlink:href="#dirArrow" transform="translate(30 24)" onmousedown="handlePan(0,-1)">
                  <use xlink:href="#rim" fill="#404040">
                        <set attributeName="fill" to="#808080" begin="arrowUp.mouseover" end="arrowUp.mouseout"/>
                  </use>
                  <path fill="none" stroke="white" stroke-width="1.5" d="M0,-3.0v7 M-2.5,-0.5L0,-3.0L2.5,-0.5"/>
                </g>
                <g id="arrowRight" xlink:href="#dirArrow" transform="rotate(90) translate(36 -43)" onmousedown="handlePan(1,0)">
                  <use xlink:href="#rim" fill="#404040">
                        <set attributeName="fill" to="#808080" begin="arrowRight.mouseover" end="arrowRight.mouseout"/>
                  </use>
                  <path fill="none" stroke="white" stroke-width="1.5" d="M0,-3.0v7 M-2.5,-0.5L0,-3.0L2.5,-0.5"/>
                </g>
                <g id="arrowDown" xlink:href="#dirArrow" transform="rotate(180) translate(-30 -48)" onmousedown="handlePan(0,1)">
                  <use xlink:href="#rim" fill="#404040">
                        <set attributeName="fill" to="#808080" begin="arrowDown.mouseover" end="arrowDown.mouseout"/>
                  </use>
                  <path fill="none" stroke="white" stroke-width="1.5" d="M0,-3.0v7 M-2.5,-0.5L0,-3.0L2.5,-0.5"/>
                </g>
                <g id="arrowLeft" xlink:href="#dirArrow" transform="rotate(270) translate(-36 17)" onmousedown="handlePan(-1,0)">
                  <use xlink:href="#rim" fill="#404040">
                        <set attributeName="fill" to="#808080" begin="arrowLeft.mouseover" end="arrowLeft.mouseout"/>
                  </use>
                  <path fill="none" stroke="white" stroke-width="1.5" d="M0,-3.0v7 M-2.5,-0.5L0,-3.0L2.5,-0.5"/>
                </g>
        </g>
        <svg viewBox="0 0 15 15" width="100%" height="30px" preserveAspectRatio="xMaxYMin meet">
         <g id="arrow_out" transform="scale(0.3 0.3)">
          <a xlink:href="dir_cc5a7ea599a1eb2a878dda3f918ab084_dep_org.svg" target="_base">
           <rect id="button" ry="5" rx="5" y="6" x="6" height="38" width="38"
                fill="#f2f5e9" fill-opacity="0.5" stroke="#606060" stroke-width="1.0"/>
           <path id="arrow"
             d="M 11.500037,31.436501 C 11.940474,20.09759 22.043105,11.32322 32.158766,21.979434 L 37.068811,17.246167 C 37.068811,17.246167 37.088388,32 37.088388,32 L 22.160133,31.978069 C 22.160133,31.978069 26.997745,27.140456 26.997745,27.140456 C 18.528582,18.264221 13.291696,25.230495 11.500037,31.436501 z"
             style="fill:#404040;"/>
          </a>
         </g>
        </svg>
</svg>
