<?xml version="1.0" encoding="UTF-8" standalone="no"?>
<!DOCTYPE svg PUBLIC "-//W3C//DTD SVG 1.1//EN"
 "http://www.w3.org/Graphics/SVG/1.1/DTD/svg11.dtd">
<!-- Generated by graphviz version 2.43.0 (0)
 -->
<!-- Title: Estimators/src Pages: 1 -->
<svg width="152pt" height="151pt"
 viewBox="0.00 0.00 151.50 151.00" xmlns="http://www.w3.org/2000/svg" xmlns:xlink="http://www.w3.org/1999/xlink">
<g id="graph0" class="graph" transform="scale(1 1) rotate(0) translate(4 147)">
<title>Estimators/src</title>
<g id="clust1" class="cluster">
<title>clusterdir_941407157475547b8b358a98f0692190</title>
<g id="a_clust1"><a xlink:href="dir_941407157475547b8b358a98f0692190.html" target="_top" xlink:title="Estimators">
<polygon fill="#ddddee" stroke="black" points="32,-64 32,-135 102,-135 102,-64 32,-64"/>
<text text-anchor="middle" x="67" y="-123" font-family="Helvetica,sans-Serif" font-size="10.00">Estimators</text>
</a>
</g>
</g>
<!-- dir_e8748f12afc033586b9763e57373849f -->
<g id="node1" class="node">
<title>dir_e8748f12afc033586b9763e57373849f</title>
<g id="a_node1"><a xlink:href="dir_e8748f12afc033586b9763e57373849f.html" target="_top" xlink:title="src">
<polygon fill="#eeeeff" stroke="black" points="94,-108 40,-108 40,-72 94,-72 94,-108"/>
<text text-anchor="middle" x="67" y="-87.5" font-family="Helvetica,sans-Serif" font-size="10.00">src</text>
</a>
</g>
</g>
<!-- dir_83e72bb223dd52ca9520cbeb993359a4 -->
<g id="node2" class="node">
<title>dir_83e72bb223dd52ca9520cbeb993359a4</title>
<g id="a_node2"><a xlink:href="dir_83e72bb223dd52ca9520cbeb993359a4.html" target="_top" xlink:title="include">
<polygon fill="none" stroke="red" points="54,-36 0,-36 0,0 54,0 54,-36"/>
<text text-anchor="middle" x="27" y="-15.5" font-family="Helvetica,sans-Serif" font-size="10.00">include</text>
</a>
</g>
</g>
<!-- dir_e8748f12afc033586b9763e57373849f&#45;&gt;dir_83e72bb223dd52ca9520cbeb993359a4 -->
<g id="edge1" class="edge">
<title>dir_e8748f12afc033586b9763e57373849f&#45;&gt;dir_83e72bb223dd52ca9520cbeb993359a4</title>
<path fill="none" stroke="black" d="M57.11,-71.7C52.51,-63.64 46.94,-53.89 41.85,-44.98"/>
<polygon fill="black" stroke="black" points="44.77,-43.05 36.77,-36.1 38.7,-46.52 44.77,-43.05"/>
<g id="a_edge1&#45;headlabel"><a xlink:href="dir_000026_000022.html" target="_top" xlink:title="5">
<text text-anchor="middle" x="49.02" y="-42.26" font-family="Helvetica,sans-Serif" font-size="10.00">5</text>
</a>
</g>
</g>
<!-- dir_67ecbf5b3dd37b0be5aedd0167f75fa8 -->
<g id="node3" class="node">
<title>dir_67ecbf5b3dd37b0be5aedd0167f75fa8</title>
<g id="a_node3"><a xlink:href="dir_67ecbf5b3dd37b0be5aedd0167f75fa8.html" target="_top" xlink:title="Conversions">
<polygon fill="none" stroke="red" points="143.5,-36 72.5,-36 72.5,0 143.5,0 143.5,-36"/>
<text text-anchor="middle" x="108" y="-15.5" font-family="Helvetica,sans-Serif" font-size="10.00">Conversions</text>
</a>
</g>
</g>
<!-- dir_e8748f12afc033586b9763e57373849f&#45;&gt;dir_67ecbf5b3dd37b0be5aedd0167f75fa8 -->
<g id="edge2" class="edge">
<title>dir_e8748f12afc033586b9763e57373849f&#45;&gt;dir_67ecbf5b3dd37b0be5aedd0167f75fa8</title>
<path fill="none" stroke="black" d="M77.13,-71.7C81.85,-63.64 87.56,-53.89 92.78,-44.98"/>
<polygon fill="black" stroke="black" points="95.95,-46.5 97.98,-36.1 89.91,-42.96 95.95,-46.5"/>
<g id="a_edge2&#45;headlabel"><a xlink:href="dir_000026_000017.html" target="_top" xlink:title="2">
<text text-anchor="middle" x="96.58" y="-48.54" font-family="Helvetica,sans-Serif" font-size="10.00">2</text>
</a>
</g>
</g>
</g>
</svg>
