<?xml version="1.0" encoding="UTF-8" standalone="no"?>
<!DOCTYPE svg PUBLIC "-//W3C//DTD SVG 1.1//EN"
 "http://www.w3.org/Graphics/SVG/1.1/DTD/svg11.dtd">
<!-- Generated by graphviz version 2.43.0 (0)
 -->
<!-- Title: ParametersHandler/YarpImplementation/include/BipedalLocomotion Pages: 1 -->
<svg width="275pt" height="231pt"
 viewBox="0.00 0.00 275.00 231.00" xmlns="http://www.w3.org/2000/svg" xmlns:xlink="http://www.w3.org/1999/xlink">
<g id="graph0" class="graph" transform="scale(1 1) rotate(0) translate(4 227)">
<title>ParametersHandler/YarpImplementation/include/BipedalLocomotion</title>
<g id="clust1" class="cluster">
<title>clusterdir_63c44988ed8fd0278ad843c09d683190</title>
<g id="a_clust1"><a xlink:href="dir_63c44988ed8fd0278ad843c09d683190.html" target="_top" xlink:title="include">
<polygon fill="#ddddee" stroke="black" points="8,-128 8,-215 259,-215 259,-128 8,-128"/>
<text text-anchor="middle" x="133.5" y="-203" font-family="Helvetica,sans-Serif" font-size="10.00">include</text>
</a>
</g>
</g>
<g id="clust2" class="cluster">
<title>clusterdir_07a2b64e573b6e689d7d67e42a30668b</title>
<g id="a_clust2"><a xlink:href="dir_07a2b64e573b6e689d7d67e42a30668b.html" target="_top">
<polygon fill="#eeeeff" stroke="black" points="16,-136 16,-188 251,-188 251,-136 16,-136"/>
</a>
</g>
</g>
<!-- dir_07a2b64e573b6e689d7d67e42a30668b -->
<g id="node1" class="node">
<title>dir_07a2b64e573b6e689d7d67e42a30668b</title>
<text text-anchor="middle" x="193" y="-159.5" font-family="Helvetica,sans-Serif" font-size="10.00">BipedalLocomotion</text>
</g>
<!-- dir_99be4c3d2da6bd084380a7aad5b94c0a -->
<g id="node2" class="node">
<title>dir_99be4c3d2da6bd084380a7aad5b94c0a</title>
<g id="a_node2"><a xlink:href="dir_99be4c3d2da6bd084380a7aad5b94c0a.html" target="_top" xlink:title="ParametersHandler">
<polygon fill="white" stroke="black" points="125.5,-180 24.5,-180 24.5,-144 125.5,-144 125.5,-180"/>
<text text-anchor="middle" x="75" y="-159.5" font-family="Helvetica,sans-Serif" font-size="10.00">ParametersHandler</text>
</a>
</g>
</g>
<!-- dir_c2ff16d22970d8b79330500bc8a01502 -->
<g id="node3" class="node">
<title>dir_c2ff16d22970d8b79330500bc8a01502</title>
<g id="a_node3"><a xlink:href="dir_c2ff16d22970d8b79330500bc8a01502.html" target="_top" xlink:title="include">
<polygon fill="none" stroke="red" points="101,-36 47,-36 47,0 101,0 101,-36"/>
<text text-anchor="middle" x="74" y="-15.5" font-family="Helvetica,sans-Serif" font-size="10.00">include</text>
</a>
</g>
</g>
<!-- dir_99be4c3d2da6bd084380a7aad5b94c0a&#45;&gt;dir_c2ff16d22970d8b79330500bc8a01502 -->
<g id="edge1" class="edge">
<title>dir_99be4c3d2da6bd084380a7aad5b94c0a&#45;&gt;dir_c2ff16d22970d8b79330500bc8a01502</title>
<path fill="none" stroke="black" d="M70.13,-143.98C67.44,-133.67 64.36,-120.19 63,-108 61.22,-92.1 61.37,-87.92 63,-72 63.88,-63.46 65.53,-54.26 67.29,-45.96"/>
<polygon fill="black" stroke="black" points="70.74,-46.57 69.54,-36.05 63.92,-45.03 70.74,-46.57"/>
<g id="a_edge1&#45;headlabel"><a xlink:href="dir_000054_000047.html" target="_top" xlink:title="1">
<text text-anchor="middle" x="72.72" y="-48.21" font-family="Helvetica,sans-Serif" font-size="10.00">1</text>
</a>
</g>
</g>
<!-- dir_9f4ce4849845ca54ac66640ab17f25ff -->
<g id="node4" class="node">
<title>dir_9f4ce4849845ca54ac66640ab17f25ff</title>
<g id="a_node4"><a xlink:href="dir_9f4ce4849845ca54ac66640ab17f25ff.html" target="_top" xlink:title="YarpUtilities">
<polygon fill="none" stroke="red" points="140.5,-108 71.5,-108 71.5,-72 140.5,-72 140.5,-108"/>
<text text-anchor="middle" x="106" y="-87.5" font-family="Helvetica,sans-Serif" font-size="10.00">YarpUtilities</text>
</a>
</g>
</g>
<!-- dir_99be4c3d2da6bd084380a7aad5b94c0a&#45;&gt;dir_9f4ce4849845ca54ac66640ab17f25ff -->
<g id="edge2" class="edge">
<title>dir_99be4c3d2da6bd084380a7aad5b94c0a&#45;&gt;dir_9f4ce4849845ca54ac66640ab17f25ff</title>
<path fill="none" stroke="black" d="M82.66,-143.7C86.19,-135.73 90.46,-126.1 94.37,-117.26"/>
<polygon fill="black" stroke="black" points="97.58,-118.67 98.43,-108.1 91.18,-115.83 97.58,-118.67"/>
<g id="a_edge2&#45;headlabel"><a xlink:href="dir_000054_000081.html" target="_top" xlink:title="1">
<text text-anchor="middle" x="98.72" y="-120.6" font-family="Helvetica,sans-Serif" font-size="10.00">1</text>
</a>
</g>
</g>
<!-- dir_9f4ce4849845ca54ac66640ab17f25ff&#45;&gt;dir_c2ff16d22970d8b79330500bc8a01502 -->
<g id="edge3" class="edge">
<title>dir_9f4ce4849845ca54ac66640ab17f25ff&#45;&gt;dir_c2ff16d22970d8b79330500bc8a01502</title>
<path fill="none" stroke="black" d="M98.09,-71.7C94.45,-63.73 90.05,-54.1 86.01,-45.26"/>
<polygon fill="black" stroke="black" points="89.16,-43.74 81.82,-36.1 82.79,-46.65 89.16,-43.74"/>
<g id="a_edge3&#45;headlabel"><a xlink:href="dir_000081_000047.html" target="_top" xlink:title="1">
<text text-anchor="middle" x="93.24" y="-43.33" font-family="Helvetica,sans-Serif" font-size="10.00">1</text>
</a>
</g>
</g>
</g>
</svg>
