<?xml version="1.0" encoding="UTF-8" standalone="no"?>
<!DOCTYPE svg PUBLIC "-//W3C//DTD SVG 1.1//EN"
 "http://www.w3.org/Graphics/SVG/1.1/DTD/svg11.dtd">
<!-- Generated by graphviz version 2.43.0 (0)
 -->
<!-- Title: ParametersHandler/YarpImplementation/include Pages: 1 -->
<svg width="228pt" height="231pt"
 viewBox="0.00 0.00 228.00 231.00" xmlns="http://www.w3.org/2000/svg" xmlns:xlink="http://www.w3.org/1999/xlink">
<g id="graph0" class="graph" transform="scale(1 1) rotate(0) translate(4 227)">
<title>ParametersHandler/YarpImplementation/include</title>
<g id="clust1" class="cluster">
<title>clusterdir_6a34c73d6eb3da898e93a79ffdd09be5</title>
<g id="a_clust1"><a xlink:href="dir_6a34c73d6eb3da898e93a79ffdd09be5.html" target="_top" xlink:title="YarpImplementation">
<polygon fill="#ddddee" stroke="black" points="8,-128 8,-215 212,-215 212,-128 8,-128"/>
<text text-anchor="middle" x="110" y="-203" font-family="Helvetica,sans-Serif" font-size="10.00">YarpImplementation</text>
</a>
</g>
</g>
<g id="clust2" class="cluster">
<title>clusterdir_63c44988ed8fd0278ad843c09d683190</title>
<g id="a_clust2"><a xlink:href="dir_63c44988ed8fd0278ad843c09d683190.html" target="_top">
<polygon fill="#eeeeff" stroke="black" points="16,-136 16,-188 204,-188 204,-136 16,-136"/>
</a>
</g>
</g>
<!-- dir_63c44988ed8fd0278ad843c09d683190 -->
<g id="node1" class="node">
<title>dir_63c44988ed8fd0278ad843c09d683190</title>
<text text-anchor="middle" x="169" y="-159.5" font-family="Helvetica,sans-Serif" font-size="10.00">include</text>
</g>
<!-- dir_07a2b64e573b6e689d7d67e42a30668b -->
<g id="node2" class="node">
<title>dir_07a2b64e573b6e689d7d67e42a30668b</title>
<g id="a_node2"><a xlink:href="dir_07a2b64e573b6e689d7d67e42a30668b.html" target="_top" xlink:title="BipedalLocomotion">
<polygon fill="white" stroke="red" points="123.5,-180 24.5,-180 24.5,-144 123.5,-144 123.5,-180"/>
<text text-anchor="middle" x="74" y="-159.5" font-family="Helvetica,sans-Serif" font-size="10.00">BipedalLocomotion</text>
</a>
</g>
</g>
<!-- dir_c2ff16d22970d8b79330500bc8a01502 -->
<g id="node3" class="node">
<title>dir_c2ff16d22970d8b79330500bc8a01502</title>
<g id="a_node3"><a xlink:href="dir_c2ff16d22970d8b79330500bc8a01502.html" target="_top" xlink:title="include">
<polygon fill="none" stroke="red" points="100,-36 46,-36 46,0 100,0 100,-36"/>
<text text-anchor="middle" x="73" y="-15.5" font-family="Helvetica,sans-Serif" font-size="10.00">include</text>
</a>
</g>
</g>
<!-- dir_07a2b64e573b6e689d7d67e42a30668b&#45;&gt;dir_c2ff16d22970d8b79330500bc8a01502 -->
<g id="edge1" class="edge">
<title>dir_07a2b64e573b6e689d7d67e42a30668b&#45;&gt;dir_c2ff16d22970d8b79330500bc8a01502</title>
<path fill="none" stroke="black" d="M69.13,-143.98C66.44,-133.67 63.36,-120.19 62,-108 60.22,-92.1 60.37,-87.92 62,-72 62.88,-63.46 64.53,-54.26 66.29,-45.96"/>
<polygon fill="black" stroke="black" points="69.74,-46.57 68.54,-36.05 62.92,-45.03 69.74,-46.57"/>
<g id="a_edge1&#45;headlabel"><a xlink:href="dir_000053_000047.html" target="_top" xlink:title="1">
<text text-anchor="middle" x="71.72" y="-48.21" font-family="Helvetica,sans-Serif" font-size="10.00">1</text>
</a>
</g>
</g>
<!-- dir_9f4ce4849845ca54ac66640ab17f25ff -->
<g id="node4" class="node">
<title>dir_9f4ce4849845ca54ac66640ab17f25ff</title>
<g id="a_node4"><a xlink:href="dir_9f4ce4849845ca54ac66640ab17f25ff.html" target="_top" xlink:title="YarpUtilities">
<polygon fill="none" stroke="red" points="139.5,-108 70.5,-108 70.5,-72 139.5,-72 139.5,-108"/>
<text text-anchor="middle" x="105" y="-87.5" font-family="Helvetica,sans-Serif" font-size="10.00">YarpUtilities</text>
</a>
</g>
</g>
<!-- dir_07a2b64e573b6e689d7d67e42a30668b&#45;&gt;dir_9f4ce4849845ca54ac66640ab17f25ff -->
<g id="edge2" class="edge">
<title>dir_07a2b64e573b6e689d7d67e42a30668b&#45;&gt;dir_9f4ce4849845ca54ac66640ab17f25ff</title>
<path fill="none" stroke="black" d="M81.66,-143.7C85.19,-135.73 89.46,-126.1 93.37,-117.26"/>
<polygon fill="black" stroke="black" points="96.58,-118.67 97.43,-108.1 90.18,-115.83 96.58,-118.67"/>
<g id="a_edge2&#45;headlabel"><a xlink:href="dir_000053_000081.html" target="_top" xlink:title="1">
<text text-anchor="middle" x="97.72" y="-120.6" font-family="Helvetica,sans-Serif" font-size="10.00">1</text>
</a>
</g>
</g>
<!-- dir_9f4ce4849845ca54ac66640ab17f25ff&#45;&gt;dir_c2ff16d22970d8b79330500bc8a01502 -->
<g id="edge3" class="edge">
<title>dir_9f4ce4849845ca54ac66640ab17f25ff&#45;&gt;dir_c2ff16d22970d8b79330500bc8a01502</title>
<path fill="none" stroke="black" d="M97.09,-71.7C93.45,-63.73 89.05,-54.1 85.01,-45.26"/>
<polygon fill="black" stroke="black" points="88.16,-43.74 80.82,-36.1 81.79,-46.65 88.16,-43.74"/>
<g id="a_edge3&#45;headlabel"><a xlink:href="dir_000081_000047.html" target="_top" xlink:title="1">
<text text-anchor="middle" x="92.24" y="-43.33" font-family="Helvetica,sans-Serif" font-size="10.00">1</text>
</a>
</g>
</g>
</g>
</svg>
