<?xml version="1.0" encoding="UTF-8" standalone="no"?>
<!DOCTYPE svg PUBLIC "-//W3C//DTD SVG 1.1//EN"
 "http://www.w3.org/Graphics/SVG/1.1/DTD/svg11.dtd">
<!-- Generated by graphviz version 2.43.0 (0)
 -->
<!-- Title: Contacts/include/BipedalLocomotion Pages: 1 -->
<svg width="373pt" height="231pt"
 viewBox="0.00 0.00 372.50 231.00" xmlns="http://www.w3.org/2000/svg" xmlns:xlink="http://www.w3.org/1999/xlink">
<g id="graph0" class="graph" transform="scale(1 1) rotate(0) translate(4 227)">
<title>Contacts/include/BipedalLocomotion</title>
<g id="clust1" class="cluster">
<title>clusterdir_8b8b9ea914891d9a3d7877d38bac2629</title>
<g id="a_clust1"><a xlink:href="dir_8b8b9ea914891d9a3d7877d38bac2629.html" target="_top" xlink:title="include">
<polygon fill="#ddddee" stroke="black" points="8,-56 8,-215 252,-215 252,-56 8,-56"/>
<text text-anchor="middle" x="130" y="-203" font-family="Helvetica,sans-Serif" font-size="10.00">include</text>
</a>
</g>
</g>
<g id="clust2" class="cluster">
<title>clusterdir_3f05e5bb63a57bd72eccc7af5274c138</title>
<g id="a_clust2"><a xlink:href="dir_3f05e5bb63a57bd72eccc7af5274c138.html" target="_top">
<polygon fill="#eeeeff" stroke="black" points="16,-64 16,-188 244,-188 244,-64 16,-64"/>
</a>
</g>
</g>
<!-- dir_3f05e5bb63a57bd72eccc7af5274c138 -->
<g id="node1" class="node">
<title>dir_3f05e5bb63a57bd72eccc7af5274c138</title>
<text text-anchor="middle" x="186" y="-159.5" font-family="Helvetica,sans-Serif" font-size="10.00">BipedalLocomotion</text>
</g>
<!-- dir_9d58fc40fd8815ed25424a9bc5b3d249 -->
<g id="node2" class="node">
<title>dir_9d58fc40fd8815ed25424a9bc5b3d249</title>
<g id="a_node2"><a xlink:href="dir_9d58fc40fd8815ed25424a9bc5b3d249.html" target="_top" xlink:title="ContactDetectors">
<polygon fill="white" stroke="black" points="118,-180 24,-180 24,-144 118,-144 118,-180"/>
<text text-anchor="middle" x="71" y="-159.5" font-family="Helvetica,sans-Serif" font-size="10.00">ContactDetectors</text>
</a>
</g>
</g>
<!-- dir_16fec6c370e9d5c39f9aa413b0bfb552 -->
<g id="node3" class="node">
<title>dir_16fec6c370e9d5c39f9aa413b0bfb552</title>
<g id="a_node3"><a xlink:href="dir_16fec6c370e9d5c39f9aa413b0bfb552.html" target="_top" xlink:title="Contacts">
<polygon fill="white" stroke="black" points="99,-108 43,-108 43,-72 99,-72 99,-108"/>
<text text-anchor="middle" x="71" y="-87.5" font-family="Helvetica,sans-Serif" font-size="10.00">Contacts</text>
</a>
</g>
</g>
<!-- dir_9d58fc40fd8815ed25424a9bc5b3d249&#45;&gt;dir_16fec6c370e9d5c39f9aa413b0bfb552 -->
<g id="edge3" class="edge">
<title>dir_9d58fc40fd8815ed25424a9bc5b3d249&#45;&gt;dir_16fec6c370e9d5c39f9aa413b0bfb552</title>
<path fill="none" stroke="black" d="M71,-143.7C71,-135.98 71,-126.71 71,-118.11"/>
<polygon fill="black" stroke="black" points="74.5,-118.1 71,-108.1 67.5,-118.1 74.5,-118.1"/>
<g id="a_edge3&#45;headlabel"><a xlink:href="dir_000014_000015.html" target="_top" xlink:title="1">
<text text-anchor="middle" x="77.34" y="-119.2" font-family="Helvetica,sans-Serif" font-size="10.00">1</text>
</a>
</g>
</g>
<!-- dir_ef68f1e1f5148ff8ef7fb1c955106c3c -->
<g id="node4" class="node">
<title>dir_ef68f1e1f5148ff8ef7fb1c955106c3c</title>
<g id="a_node4"><a xlink:href="dir_ef68f1e1f5148ff8ef7fb1c955106c3c.html" target="_top" xlink:title="System">
<polygon fill="none" stroke="red" points="314,-108 260,-108 260,-72 314,-72 314,-108"/>
<text text-anchor="middle" x="287" y="-87.5" font-family="Helvetica,sans-Serif" font-size="10.00">System</text>
</a>
</g>
</g>
<!-- dir_9d58fc40fd8815ed25424a9bc5b3d249&#45;&gt;dir_ef68f1e1f5148ff8ef7fb1c955106c3c -->
<g id="edge2" class="edge">
<title>dir_9d58fc40fd8815ed25424a9bc5b3d249&#45;&gt;dir_ef68f1e1f5148ff8ef7fb1c955106c3c</title>
<path fill="none" stroke="black" d="M118.05,-146.7C121.08,-145.78 124.08,-144.88 127,-144 180.73,-127.85 195.3,-127.25 248,-108 248.85,-107.69 249.71,-107.37 250.57,-107.04"/>
<polygon fill="black" stroke="black" points="251.91,-110.28 259.9,-103.32 249.31,-103.78 251.91,-110.28"/>
<g id="a_edge2&#45;headlabel"><a xlink:href="dir_000014_000071.html" target="_top" xlink:title="1">
<text text-anchor="middle" x="249.62" y="-111.75" font-family="Helvetica,sans-Serif" font-size="10.00">1</text>
</a>
</g>
</g>
<!-- dir_995a11a27ec5ce2fce465ebbab555255 -->
<g id="node5" class="node">
<title>dir_995a11a27ec5ce2fce465ebbab555255</title>
<g id="a_node5"><a xlink:href="dir_995a11a27ec5ce2fce465ebbab555255.html" target="_top" xlink:title="ParametersHandler">
<polygon fill="none" stroke="red" points="364.5,-36 263.5,-36 263.5,0 364.5,0 364.5,-36"/>
<text text-anchor="middle" x="314" y="-15.5" font-family="Helvetica,sans-Serif" font-size="10.00">ParametersHandler</text>
</a>
</g>
</g>
<!-- dir_9d58fc40fd8815ed25424a9bc5b3d249&#45;&gt;dir_995a11a27ec5ce2fce465ebbab555255 -->
<g id="edge4" class="edge">
<title>dir_9d58fc40fd8815ed25424a9bc5b3d249&#45;&gt;dir_995a11a27ec5ce2fce465ebbab555255</title>
<path fill="none" stroke="black" d="M118.25,-146.24C121.2,-145.45 124.14,-144.7 127,-144 170.03,-133.55 294.66,-142.02 323,-108 337.22,-90.93 332.74,-65.14 326.01,-45.71"/>
<polygon fill="black" stroke="black" points="329.22,-44.3 322.38,-36.21 322.68,-46.8 329.22,-44.3"/>
<g id="a_edge4&#45;headlabel"><a xlink:href="dir_000014_000046.html" target="_top" xlink:title="1">
<text text-anchor="middle" x="333.16" y="-44.15" font-family="Helvetica,sans-Serif" font-size="10.00">1</text>
</a>
</g>
</g>
<!-- dir_ef68f1e1f5148ff8ef7fb1c955106c3c&#45;&gt;dir_995a11a27ec5ce2fce465ebbab555255 -->
<g id="edge1" class="edge">
<title>dir_ef68f1e1f5148ff8ef7fb1c955106c3c&#45;&gt;dir_995a11a27ec5ce2fce465ebbab555255</title>
<path fill="none" stroke="black" d="M293.67,-71.7C296.71,-63.81 300.38,-54.3 303.76,-45.55"/>
<polygon fill="black" stroke="black" points="307.07,-46.69 307.4,-36.1 300.54,-44.17 307.07,-46.69"/>
<g id="a_edge1&#45;headlabel"><a xlink:href="dir_000071_000046.html" target="_top" xlink:title="3">
<text text-anchor="middle" x="308.42" y="-48.57" font-family="Helvetica,sans-Serif" font-size="10.00">3</text>
</a>
</g>
</g>
</g>
</svg>
