<?xml version="1.0" encoding="UTF-8" standalone="no"?>
<!DOCTYPE svg PUBLIC "-//W3C//DTD SVG 1.1//EN"
 "http://www.w3.org/Graphics/SVG/1.1/DTD/svg11.dtd">
<!-- Generated by graphviz version 2.43.0 (0)
 -->
<!-- Title: YarpUtilities Pages: 1 -->
<svg width="190pt" height="204pt"
 viewBox="0.00 0.00 189.50 204.00" xmlns="http://www.w3.org/2000/svg" xmlns:xlink="http://www.w3.org/1999/xlink">
<g id="graph0" class="graph" transform="scale(1 1) rotate(0) translate(4 200)">
<title>YarpUtilities</title>
<g id="clust1" class="cluster">
<title>clusterdir_9f4ce4849845ca54ac66640ab17f25ff</title>
<g id="a_clust1"><a xlink:href="dir_9f4ce4849845ca54ac66640ab17f25ff.html" target="_top">
<polygon fill="#eeeeff" stroke="black" points="15.5,-64 15.5,-188 173.5,-188 173.5,-64 15.5,-64"/>
</a>
</g>
</g>
<!-- dir_9f4ce4849845ca54ac66640ab17f25ff -->
<g id="node1" class="node">
<title>dir_9f4ce4849845ca54ac66640ab17f25ff</title>
<text text-anchor="middle" x="130.5" y="-159.5" font-family="Helvetica,sans-Serif" font-size="10.00">YarpUtilities</text>
</g>
<!-- dir_12b71a80e2ec12f6f36343f858596976 -->
<g id="node2" class="node">
<title>dir_12b71a80e2ec12f6f36343f858596976</title>
<g id="a_node2"><a xlink:href="dir_12b71a80e2ec12f6f36343f858596976.html" target="_top" xlink:title="include">
<polygon fill="white" stroke="red" points="77.5,-108 23.5,-108 23.5,-72 77.5,-72 77.5,-108"/>
<text text-anchor="middle" x="50.5" y="-87.5" font-family="Helvetica,sans-Serif" font-size="10.00">include</text>
</a>
</g>
</g>
<!-- dir_995a11a27ec5ce2fce465ebbab555255 -->
<g id="node4" class="node">
<title>dir_995a11a27ec5ce2fce465ebbab555255</title>
<g id="a_node4"><a xlink:href="dir_995a11a27ec5ce2fce465ebbab555255.html" target="_top" xlink:title="ParametersHandler">
<polygon fill="none" stroke="red" points="101,-36 0,-36 0,0 101,0 101,-36"/>
<text text-anchor="middle" x="50.5" y="-15.5" font-family="Helvetica,sans-Serif" font-size="10.00">ParametersHandler</text>
</a>
</g>
</g>
<!-- dir_12b71a80e2ec12f6f36343f858596976&#45;&gt;dir_995a11a27ec5ce2fce465ebbab555255 -->
<g id="edge2" class="edge">
<title>dir_12b71a80e2ec12f6f36343f858596976&#45;&gt;dir_995a11a27ec5ce2fce465ebbab555255</title>
<path fill="none" stroke="black" d="M44.58,-71.7C43.79,-63.98 43.56,-54.71 43.9,-46.11"/>
<polygon fill="black" stroke="black" points="47.4,-46.32 44.6,-36.1 40.42,-45.84 47.4,-46.32"/>
<g id="a_edge2&#45;headlabel"><a xlink:href="dir_000082_000046.html" target="_top" xlink:title="1">
<text text-anchor="middle" x="49.98" y="-47.61" font-family="Helvetica,sans-Serif" font-size="10.00">1</text>
</a>
</g>
</g>
<!-- dir_fc0b33c5c53303c947304efe3c65cac1 -->
<g id="node3" class="node">
<title>dir_fc0b33c5c53303c947304efe3c65cac1</title>
<g id="a_node3"><a xlink:href="dir_fc0b33c5c53303c947304efe3c65cac1.html" target="_top" xlink:title="src">
<polygon fill="white" stroke="black" points="77.5,-180 23.5,-180 23.5,-144 77.5,-144 77.5,-180"/>
<text text-anchor="middle" x="50.5" y="-159.5" font-family="Helvetica,sans-Serif" font-size="10.00">src</text>
</a>
</g>
</g>
<!-- dir_fc0b33c5c53303c947304efe3c65cac1&#45;&gt;dir_12b71a80e2ec12f6f36343f858596976 -->
<g id="edge1" class="edge">
<title>dir_fc0b33c5c53303c947304efe3c65cac1&#45;&gt;dir_12b71a80e2ec12f6f36343f858596976</title>
<path fill="none" stroke="black" d="M50.5,-143.7C50.5,-135.98 50.5,-126.71 50.5,-118.11"/>
<polygon fill="black" stroke="black" points="54,-118.1 50.5,-108.1 47,-118.1 54,-118.1"/>
<g id="a_edge1&#45;headlabel"><a xlink:href="dir_000085_000082.html" target="_top" xlink:title="2">
<text text-anchor="middle" x="56.84" y="-119.2" font-family="Helvetica,sans-Serif" font-size="10.00">2</text>
</a>
</g>
</g>
<!-- dir_995a11a27ec5ce2fce465ebbab555255&#45;&gt;dir_12b71a80e2ec12f6f36343f858596976 -->
<g id="edge3" class="edge">
<title>dir_995a11a27ec5ce2fce465ebbab555255&#45;&gt;dir_12b71a80e2ec12f6f36343f858596976</title>
<path fill="none" stroke="black" d="M56.4,-36.1C57.2,-43.79 57.44,-53.05 57.1,-61.67"/>
<polygon fill="black" stroke="black" points="53.61,-61.48 56.42,-71.7 60.59,-61.96 53.61,-61.48"/>
<g id="a_edge3&#45;headlabel"><a xlink:href="dir_000046_000082.html" target="_top" xlink:title="1">
<text text-anchor="middle" x="51.02" y="-55.2" font-family="Helvetica,sans-Serif" font-size="10.00">1</text>
</a>
</g>
</g>
</g>
</svg>
