<?xml version="1.0" encoding="UTF-8" standalone="no"?>
<!DOCTYPE svg PUBLIC "-//W3C//DTD SVG 1.1//EN"
 "http://www.w3.org/Graphics/SVG/1.1/DTD/svg11.dtd">
<!-- Generated by graphviz version 2.43.0 (0)
 -->
<!-- Title: ParametersHandler Pages: 1 -->
<svg width="405pt" height="204pt"
 viewBox="0.00 0.00 404.50 204.00" xmlns="http://www.w3.org/2000/svg" xmlns:xlink="http://www.w3.org/1999/xlink">
<g id="graph0" class="graph" transform="scale(1 1) rotate(0) translate(4 200)">
<title>ParametersHandler</title>
<g id="clust1" class="cluster">
<title>clusterdir_995a11a27ec5ce2fce465ebbab555255</title>
<g id="a_clust1"><a xlink:href="dir_995a11a27ec5ce2fce465ebbab555255.html" target="_top">
<polygon fill="#eeeeff" stroke="black" points="8,-64 8,-188 319,-188 319,-64 8,-64"/>
</a>
</g>
</g>
<!-- dir_995a11a27ec5ce2fce465ebbab555255 -->
<g id="node1" class="node">
<title>dir_995a11a27ec5ce2fce465ebbab555255</title>
<text text-anchor="middle" x="260" y="-159.5" font-family="Helvetica,sans-Serif" font-size="10.00">ParametersHandler</text>
</g>
<!-- dir_c2ff16d22970d8b79330500bc8a01502 -->
<g id="node2" class="node">
<title>dir_c2ff16d22970d8b79330500bc8a01502</title>
<g id="a_node2"><a xlink:href="dir_c2ff16d22970d8b79330500bc8a01502.html" target="_top" xlink:title="include">
<polygon fill="white" stroke="red" points="118,-108 64,-108 64,-72 118,-72 118,-108"/>
<text text-anchor="middle" x="91" y="-87.5" font-family="Helvetica,sans-Serif" font-size="10.00">include</text>
</a>
</g>
</g>
<!-- dir_4118ae531ffdde861fee1c6efaa3009d -->
<g id="node5" class="node">
<title>dir_4118ae531ffdde861fee1c6efaa3009d</title>
<g id="a_node5"><a xlink:href="dir_4118ae531ffdde861fee1c6efaa3009d.html" target="_top" xlink:title="TextLogging">
<polygon fill="none" stroke="red" points="152.5,-36 83.5,-36 83.5,0 152.5,0 152.5,-36"/>
<text text-anchor="middle" x="118" y="-15.5" font-family="Helvetica,sans-Serif" font-size="10.00">TextLogging</text>
</a>
</g>
</g>
<!-- dir_c2ff16d22970d8b79330500bc8a01502&#45;&gt;dir_4118ae531ffdde861fee1c6efaa3009d -->
<g id="edge1" class="edge">
<title>dir_c2ff16d22970d8b79330500bc8a01502&#45;&gt;dir_4118ae531ffdde861fee1c6efaa3009d</title>
<path fill="none" stroke="black" d="M97.67,-71.7C100.71,-63.81 104.38,-54.3 107.76,-45.55"/>
<polygon fill="black" stroke="black" points="111.07,-46.69 111.4,-36.1 104.54,-44.17 111.07,-46.69"/>
<g id="a_edge1&#45;headlabel"><a xlink:href="dir_000047_000076.html" target="_top" xlink:title="1">
<text text-anchor="middle" x="112.42" y="-48.57" font-family="Helvetica,sans-Serif" font-size="10.00">1</text>
</a>
</g>
</g>
<!-- dir_c0d5990a54af58a8d638adaf50280d31 -->
<g id="node3" class="node">
<title>dir_c0d5990a54af58a8d638adaf50280d31</title>
<g id="a_node3"><a xlink:href="dir_c0d5990a54af58a8d638adaf50280d31.html" target="_top" xlink:title="src">
<polygon fill="white" stroke="black" points="70,-180 16,-180 16,-144 70,-144 70,-180"/>
<text text-anchor="middle" x="43" y="-159.5" font-family="Helvetica,sans-Serif" font-size="10.00">src</text>
</a>
</g>
</g>
<!-- dir_c0d5990a54af58a8d638adaf50280d31&#45;&gt;dir_c2ff16d22970d8b79330500bc8a01502 -->
<g id="edge6" class="edge">
<title>dir_c0d5990a54af58a8d638adaf50280d31&#45;&gt;dir_c2ff16d22970d8b79330500bc8a01502</title>
<path fill="none" stroke="black" d="M54.87,-143.7C60.5,-135.47 67.35,-125.48 73.57,-116.42"/>
<polygon fill="black" stroke="black" points="76.5,-118.33 79.27,-108.1 70.73,-114.37 76.5,-118.33"/>
<g id="a_edge6&#45;headlabel"><a xlink:href="dir_000050_000047.html" target="_top" xlink:title="1">
<text text-anchor="middle" x="76.81" y="-120.4" font-family="Helvetica,sans-Serif" font-size="10.00">1</text>
</a>
</g>
</g>
<!-- dir_c0d5990a54af58a8d638adaf50280d31&#45;&gt;dir_4118ae531ffdde861fee1c6efaa3009d -->
<g id="edge5" class="edge">
<title>dir_c0d5990a54af58a8d638adaf50280d31&#45;&gt;dir_4118ae531ffdde861fee1c6efaa3009d</title>
<path fill="none" stroke="black" d="M70.19,-147.55C92.24,-136.01 120.67,-119.48 127,-108 137.44,-89.07 133.86,-64.41 128.43,-45.84"/>
<polygon fill="black" stroke="black" points="131.72,-44.66 125.29,-36.24 125.07,-46.83 131.72,-44.66"/>
<g id="a_edge5&#45;headlabel"><a xlink:href="dir_000050_000076.html" target="_top" xlink:title="1">
<text text-anchor="middle" x="135.54" y="-44.7" font-family="Helvetica,sans-Serif" font-size="10.00">1</text>
</a>
</g>
</g>
<!-- dir_6a34c73d6eb3da898e93a79ffdd09be5 -->
<g id="node4" class="node">
<title>dir_6a34c73d6eb3da898e93a79ffdd09be5</title>
<g id="a_node4"><a xlink:href="dir_6a34c73d6eb3da898e93a79ffdd09be5.html" target="_top" xlink:title="YarpImplementation">
<polygon fill="white" stroke="red" points="191.5,-180 88.5,-180 88.5,-144 191.5,-144 191.5,-180"/>
<text text-anchor="middle" x="140" y="-159.5" font-family="Helvetica,sans-Serif" font-size="10.00">YarpImplementation</text>
</a>
</g>
</g>
<!-- dir_6a34c73d6eb3da898e93a79ffdd09be5&#45;&gt;dir_c2ff16d22970d8b79330500bc8a01502 -->
<g id="edge2" class="edge">
<title>dir_6a34c73d6eb3da898e93a79ffdd09be5&#45;&gt;dir_c2ff16d22970d8b79330500bc8a01502</title>
<path fill="none" stroke="black" d="M127.89,-143.7C122.13,-135.47 115.14,-125.48 108.79,-116.42"/>
<polygon fill="black" stroke="black" points="111.58,-114.29 102.97,-108.1 105.84,-118.3 111.58,-114.29"/>
<g id="a_edge2&#45;headlabel"><a xlink:href="dir_000051_000047.html" target="_top" xlink:title="1">
<text text-anchor="middle" x="115.96" y="-113.11" font-family="Helvetica,sans-Serif" font-size="10.00">1</text>
</a>
</g>
</g>
<!-- dir_9f4ce4849845ca54ac66640ab17f25ff -->
<g id="node6" class="node">
<title>dir_9f4ce4849845ca54ac66640ab17f25ff</title>
<g id="a_node6"><a xlink:href="dir_9f4ce4849845ca54ac66640ab17f25ff.html" target="_top" xlink:title="YarpUtilities">
<polygon fill="none" stroke="red" points="396.5,-108 327.5,-108 327.5,-72 396.5,-72 396.5,-108"/>
<text text-anchor="middle" x="362" y="-87.5" font-family="Helvetica,sans-Serif" font-size="10.00">YarpUtilities</text>
</a>
</g>
</g>
<!-- dir_6a34c73d6eb3da898e93a79ffdd09be5&#45;&gt;dir_9f4ce4849845ca54ac66640ab17f25ff -->
<g id="edge3" class="edge">
<title>dir_6a34c73d6eb3da898e93a79ffdd09be5&#45;&gt;dir_9f4ce4849845ca54ac66640ab17f25ff</title>
<path fill="none" stroke="black" d="M191.73,-146.39C234.54,-134.24 291.93,-117.83 317.6,-109.64"/>
<polygon fill="black" stroke="black" points="318.85,-112.92 327.22,-106.43 316.63,-106.28 318.85,-112.92"/>
<g id="a_edge3&#45;headlabel"><a xlink:href="dir_000051_000081.html" target="_top" xlink:title="1">
<text text-anchor="middle" x="316.34" y="-114.25" font-family="Helvetica,sans-Serif" font-size="10.00">1</text>
</a>
</g>
</g>
<!-- dir_9f4ce4849845ca54ac66640ab17f25ff&#45;&gt;dir_c2ff16d22970d8b79330500bc8a01502 -->
<g id="edge4" class="edge">
<title>dir_9f4ce4849845ca54ac66640ab17f25ff&#45;&gt;dir_c2ff16d22970d8b79330500bc8a01502</title>
<path fill="none" stroke="black" d="M327.25,-90C260.99,-90 194.72,-90 128.46,-90"/>
<polygon fill="black" stroke="black" points="128.26,-86.5 118.26,-90 128.26,-93.5 128.26,-86.5"/>
<g id="a_edge4&#45;headlabel"><a xlink:href="dir_000081_000047.html" target="_top" xlink:title="1">
<text text-anchor="middle" x="131.85" y="-81.16" font-family="Helvetica,sans-Serif" font-size="10.00">1</text>
</a>
</g>
</g>
</g>
</svg>
