<?xml version="1.0" encoding="UTF-8" standalone="no"?>
<!DOCTYPE svg PUBLIC "-//W3C//DTD SVG 1.1//EN"
 "http://www.w3.org/Graphics/SVG/1.1/DTD/svg11.dtd">
<!-- Generated by graphviz version 2.43.0 (0)
 -->
<!-- Title: RobotInterface Pages: 1 -->
<svg width="393pt" height="204pt"
 viewBox="0.00 0.00 392.50 204.00" xmlns="http://www.w3.org/2000/svg" xmlns:xlink="http://www.w3.org/1999/xlink">
<g id="graph0" class="graph" transform="scale(1 1) rotate(0) translate(4 200)">
<title>RobotInterface</title>
<g id="clust1" class="cluster">
<title>clusterdir_b758cc06ecf5ffd178e3392fd03c4d77</title>
<g id="a_clust1"><a xlink:href="dir_b758cc06ecf5ffd178e3392fd03c4d77.html" target="_top">
<polygon fill="#eeeeff" stroke="black" points="8,-64 8,-188 299,-188 299,-64 8,-64"/>
</a>
</g>
</g>
<!-- dir_b758cc06ecf5ffd178e3392fd03c4d77 -->
<g id="node1" class="node">
<title>dir_b758cc06ecf5ffd178e3392fd03c4d77</title>
<text text-anchor="middle" x="250" y="-159.5" font-family="Helvetica,sans-Serif" font-size="10.00">RobotInterface</text>
</g>
<!-- dir_2ddfa6bbaecaa13cbf0c44c7a8ab174d -->
<g id="node2" class="node">
<title>dir_2ddfa6bbaecaa13cbf0c44c7a8ab174d</title>
<g id="a_node2"><a xlink:href="dir_2ddfa6bbaecaa13cbf0c44c7a8ab174d.html" target="_top" xlink:title="include">
<polygon fill="white" stroke="red" points="167,-108 113,-108 113,-72 167,-72 167,-108"/>
<text text-anchor="middle" x="140" y="-87.5" font-family="Helvetica,sans-Serif" font-size="10.00">include</text>
</a>
</g>
</g>
<!-- dir_995a11a27ec5ce2fce465ebbab555255 -->
<g id="node6" class="node">
<title>dir_995a11a27ec5ce2fce465ebbab555255</title>
<g id="a_node6"><a xlink:href="dir_995a11a27ec5ce2fce465ebbab555255.html" target="_top" xlink:title="ParametersHandler">
<polygon fill="none" stroke="red" points="384.5,-36 283.5,-36 283.5,0 384.5,0 384.5,-36"/>
<text text-anchor="middle" x="334" y="-15.5" font-family="Helvetica,sans-Serif" font-size="10.00">ParametersHandler</text>
</a>
</g>
</g>
<!-- dir_2ddfa6bbaecaa13cbf0c44c7a8ab174d&#45;&gt;dir_995a11a27ec5ce2fce465ebbab555255 -->
<g id="edge6" class="edge">
<title>dir_2ddfa6bbaecaa13cbf0c44c7a8ab174d&#45;&gt;dir_995a11a27ec5ce2fce465ebbab555255</title>
<path fill="none" stroke="black" d="M167.38,-79.12C195.76,-68.88 240.95,-52.58 277.11,-39.53"/>
<polygon fill="black" stroke="black" points="278.35,-42.8 286.57,-36.12 275.97,-36.22 278.35,-42.8"/>
<g id="a_edge6&#45;headlabel"><a xlink:href="dir_000062_000046.html" target="_top" xlink:title="2">
<text text-anchor="middle" x="275.93" y="-44.19" font-family="Helvetica,sans-Serif" font-size="10.00">2</text>
</a>
</g>
</g>
<!-- dir_12c4a4ce89df8d2e75d20f9936947c6f -->
<g id="node3" class="node">
<title>dir_12c4a4ce89df8d2e75d20f9936947c6f</title>
<g id="a_node3"><a xlink:href="dir_12c4a4ce89df8d2e75d20f9936947c6f.html" target="_top" xlink:title="src">
<polygon fill="white" stroke="black" points="70,-180 16,-180 16,-144 70,-144 70,-180"/>
<text text-anchor="middle" x="43" y="-159.5" font-family="Helvetica,sans-Serif" font-size="10.00">src</text>
</a>
</g>
</g>
<!-- dir_12c4a4ce89df8d2e75d20f9936947c6f&#45;&gt;dir_2ddfa6bbaecaa13cbf0c44c7a8ab174d -->
<g id="edge2" class="edge">
<title>dir_12c4a4ce89df8d2e75d20f9936947c6f&#45;&gt;dir_2ddfa6bbaecaa13cbf0c44c7a8ab174d</title>
<path fill="none" stroke="black" d="M66.98,-143.7C79.31,-134.8 94.52,-123.82 107.85,-114.2"/>
<polygon fill="black" stroke="black" points="110.24,-116.79 116.3,-108.1 106.14,-111.12 110.24,-116.79"/>
<g id="a_edge2&#45;headlabel"><a xlink:href="dir_000065_000062.html" target="_top" xlink:title="1">
<text text-anchor="middle" x="108.98" y="-118.7" font-family="Helvetica,sans-Serif" font-size="10.00">1</text>
</a>
</g>
</g>
<!-- dir_3e94d037e35e99e0f94aa79b0e410f47 -->
<g id="node4" class="node">
<title>dir_3e94d037e35e99e0f94aa79b0e410f47</title>
<g id="a_node4"><a xlink:href="dir_3e94d037e35e99e0f94aa79b0e410f47.html" target="_top" xlink:title="YarpImplementation">
<polygon fill="white" stroke="red" points="191.5,-180 88.5,-180 88.5,-144 191.5,-144 191.5,-180"/>
<text text-anchor="middle" x="140" y="-159.5" font-family="Helvetica,sans-Serif" font-size="10.00">YarpImplementation</text>
</a>
</g>
</g>
<!-- dir_3e94d037e35e99e0f94aa79b0e410f47&#45;&gt;dir_2ddfa6bbaecaa13cbf0c44c7a8ab174d -->
<g id="edge5" class="edge">
<title>dir_3e94d037e35e99e0f94aa79b0e410f47&#45;&gt;dir_2ddfa6bbaecaa13cbf0c44c7a8ab174d</title>
<path fill="none" stroke="black" d="M140,-143.7C140,-135.98 140,-126.71 140,-118.11"/>
<polygon fill="black" stroke="black" points="143.5,-118.1 140,-108.1 136.5,-118.1 143.5,-118.1"/>
<g id="a_edge5&#45;headlabel"><a xlink:href="dir_000066_000062.html" target="_top" xlink:title="2">
<text text-anchor="middle" x="146.34" y="-119.2" font-family="Helvetica,sans-Serif" font-size="10.00">2</text>
</a>
</g>
</g>
<!-- dir_ef68f1e1f5148ff8ef7fb1c955106c3c -->
<g id="node5" class="node">
<title>dir_ef68f1e1f5148ff8ef7fb1c955106c3c</title>
<g id="a_node5"><a xlink:href="dir_ef68f1e1f5148ff8ef7fb1c955106c3c.html" target="_top" xlink:title="System">
<polygon fill="none" stroke="red" points="361,-108 307,-108 307,-72 361,-72 361,-108"/>
<text text-anchor="middle" x="334" y="-87.5" font-family="Helvetica,sans-Serif" font-size="10.00">System</text>
</a>
</g>
</g>
<!-- dir_3e94d037e35e99e0f94aa79b0e410f47&#45;&gt;dir_ef68f1e1f5148ff8ef7fb1c955106c3c -->
<g id="edge3" class="edge">
<title>dir_3e94d037e35e99e0f94aa79b0e410f47&#45;&gt;dir_ef68f1e1f5148ff8ef7fb1c955106c3c</title>
<path fill="none" stroke="black" d="M191.76,-145.33C226.81,-134.52 270.92,-120.51 297.26,-110.2"/>
<polygon fill="black" stroke="black" points="298.83,-113.34 306.75,-106.3 296.17,-106.86 298.83,-113.34"/>
<g id="a_edge3&#45;headlabel"><a xlink:href="dir_000066_000071.html" target="_top" xlink:title="1">
<text text-anchor="middle" x="296.59" y="-114.83" font-family="Helvetica,sans-Serif" font-size="10.00">1</text>
</a>
</g>
</g>
<!-- dir_3e94d037e35e99e0f94aa79b0e410f47&#45;&gt;dir_995a11a27ec5ce2fce465ebbab555255 -->
<g id="edge4" class="edge">
<title>dir_3e94d037e35e99e0f94aa79b0e410f47&#45;&gt;dir_995a11a27ec5ce2fce465ebbab555255</title>
<path fill="none" stroke="black" d="M191.53,-146.4C194.73,-145.57 197.9,-144.76 201,-144 275.58,-125.68 321.68,-167.69 370,-108 382.3,-92.8 376.47,-82.45 370,-64 367.5,-56.86 363.33,-50.01 358.7,-43.91"/>
<polygon fill="black" stroke="black" points="361.29,-41.55 352.22,-36.08 355.9,-46.01 361.29,-41.55"/>
<g id="a_edge4&#45;headlabel"><a xlink:href="dir_000066_000046.html" target="_top" xlink:title="1">
<text text-anchor="middle" x="365.77" y="-40" font-family="Helvetica,sans-Serif" font-size="10.00">1</text>
</a>
</g>
</g>
<!-- dir_ef68f1e1f5148ff8ef7fb1c955106c3c&#45;&gt;dir_995a11a27ec5ce2fce465ebbab555255 -->
<g id="edge1" class="edge">
<title>dir_ef68f1e1f5148ff8ef7fb1c955106c3c&#45;&gt;dir_995a11a27ec5ce2fce465ebbab555255</title>
<path fill="none" stroke="black" d="M334,-71.7C334,-63.98 334,-54.71 334,-46.11"/>
<polygon fill="black" stroke="black" points="337.5,-46.1 334,-36.1 330.5,-46.1 337.5,-46.1"/>
<g id="a_edge1&#45;headlabel"><a xlink:href="dir_000071_000046.html" target="_top" xlink:title="3">
<text text-anchor="middle" x="340.34" y="-47.2" font-family="Helvetica,sans-Serif" font-size="10.00">3</text>
</a>
</g>
</g>
</g>
</svg>
