<?xml version="1.0" encoding="UTF-8" standalone="no"?>
<!DOCTYPE svg PUBLIC "-//W3C//DTD SVG 1.1//EN"
 "http://www.w3.org/Graphics/SVG/1.1/DTD/svg11.dtd">
<!-- Generated by graphviz version 2.43.0 (0)
 -->
<!-- Title: Contacts/include Pages: 1 -->
<svg width="228pt" height="231pt"
 viewBox="0.00 0.00 228.00 231.00" xmlns="http://www.w3.org/2000/svg" xmlns:xlink="http://www.w3.org/1999/xlink">
<g id="graph0" class="graph" transform="scale(1 1) rotate(0) translate(4 227)">
<title>Contacts/include</title>
<g id="clust1" class="cluster">
<title>clusterdir_50541d64f188ef934de78ba6c49ffdbe</title>
<g id="a_clust1"><a xlink:href="dir_50541d64f188ef934de78ba6c49ffdbe.html" target="_top" xlink:title="Contacts">
<polygon fill="#ddddee" stroke="black" points="8,-128 8,-215 212,-215 212,-128 8,-128"/>
<text text-anchor="middle" x="110" y="-203" font-family="Helvetica,sans-Serif" font-size="10.00">Contacts</text>
</a>
</g>
</g>
<g id="clust2" class="cluster">
<title>clusterdir_8b8b9ea914891d9a3d7877d38bac2629</title>
<g id="a_clust2"><a xlink:href="dir_8b8b9ea914891d9a3d7877d38bac2629.html" target="_top">
<polygon fill="#eeeeff" stroke="black" points="16,-136 16,-188 204,-188 204,-136 16,-136"/>
</a>
</g>
</g>
<!-- dir_8b8b9ea914891d9a3d7877d38bac2629 -->
<g id="node1" class="node">
<title>dir_8b8b9ea914891d9a3d7877d38bac2629</title>
<text text-anchor="middle" x="169" y="-159.5" font-family="Helvetica,sans-Serif" font-size="10.00">include</text>
</g>
<!-- dir_3f05e5bb63a57bd72eccc7af5274c138 -->
<g id="node2" class="node">
<title>dir_3f05e5bb63a57bd72eccc7af5274c138</title>
<g id="a_node2"><a xlink:href="dir_3f05e5bb63a57bd72eccc7af5274c138.html" target="_top" xlink:title="BipedalLocomotion">
<polygon fill="white" stroke="red" points="123.5,-180 24.5,-180 24.5,-144 123.5,-144 123.5,-180"/>
<text text-anchor="middle" x="74" y="-159.5" font-family="Helvetica,sans-Serif" font-size="10.00">BipedalLocomotion</text>
</a>
</g>
</g>
<!-- dir_ef68f1e1f5148ff8ef7fb1c955106c3c -->
<g id="node3" class="node">
<title>dir_ef68f1e1f5148ff8ef7fb1c955106c3c</title>
<g id="a_node3"><a xlink:href="dir_ef68f1e1f5148ff8ef7fb1c955106c3c.html" target="_top" xlink:title="System">
<polygon fill="none" stroke="red" points="73,-108 19,-108 19,-72 73,-72 73,-108"/>
<text text-anchor="middle" x="46" y="-87.5" font-family="Helvetica,sans-Serif" font-size="10.00">System</text>
</a>
</g>
</g>
<!-- dir_3f05e5bb63a57bd72eccc7af5274c138&#45;&gt;dir_ef68f1e1f5148ff8ef7fb1c955106c3c -->
<g id="edge2" class="edge">
<title>dir_3f05e5bb63a57bd72eccc7af5274c138&#45;&gt;dir_ef68f1e1f5148ff8ef7fb1c955106c3c</title>
<path fill="none" stroke="black" d="M67.08,-143.7C63.93,-135.81 60.12,-126.3 56.62,-117.55"/>
<polygon fill="black" stroke="black" points="59.81,-116.09 52.84,-108.1 53.31,-118.69 59.81,-116.09"/>
<g id="a_edge2&#45;headlabel"><a xlink:href="dir_000013_000071.html" target="_top" xlink:title="1">
<text text-anchor="middle" x="63.78" y="-115.87" font-family="Helvetica,sans-Serif" font-size="10.00">1</text>
</a>
</g>
</g>
<!-- dir_995a11a27ec5ce2fce465ebbab555255 -->
<g id="node4" class="node">
<title>dir_995a11a27ec5ce2fce465ebbab555255</title>
<g id="a_node4"><a xlink:href="dir_995a11a27ec5ce2fce465ebbab555255.html" target="_top" xlink:title="ParametersHandler">
<polygon fill="none" stroke="red" points="123.5,-36 22.5,-36 22.5,0 123.5,0 123.5,-36"/>
<text text-anchor="middle" x="73" y="-15.5" font-family="Helvetica,sans-Serif" font-size="10.00">ParametersHandler</text>
</a>
</g>
</g>
<!-- dir_3f05e5bb63a57bd72eccc7af5274c138&#45;&gt;dir_995a11a27ec5ce2fce465ebbab555255 -->
<g id="edge3" class="edge">
<title>dir_3f05e5bb63a57bd72eccc7af5274c138&#45;&gt;dir_995a11a27ec5ce2fce465ebbab555255</title>
<path fill="none" stroke="black" d="M77.25,-143.89C79.05,-133.54 81.09,-120.06 82,-108 83.2,-92.04 83.34,-87.94 82,-72 81.28,-63.5 79.93,-54.31 78.49,-46.01"/>
<polygon fill="black" stroke="black" points="81.91,-45.29 76.65,-36.09 75.03,-46.56 81.91,-45.29"/>
<g id="a_edge3&#45;headlabel"><a xlink:href="dir_000013_000046.html" target="_top" xlink:title="1">
<text text-anchor="middle" x="85.36" y="-45.81" font-family="Helvetica,sans-Serif" font-size="10.00">1</text>
</a>
</g>
</g>
<!-- dir_ef68f1e1f5148ff8ef7fb1c955106c3c&#45;&gt;dir_995a11a27ec5ce2fce465ebbab555255 -->
<g id="edge1" class="edge">
<title>dir_ef68f1e1f5148ff8ef7fb1c955106c3c&#45;&gt;dir_995a11a27ec5ce2fce465ebbab555255</title>
<path fill="none" stroke="black" d="M52.67,-71.7C55.71,-63.81 59.38,-54.3 62.76,-45.55"/>
<polygon fill="black" stroke="black" points="66.07,-46.69 66.4,-36.1 59.54,-44.17 66.07,-46.69"/>
<g id="a_edge1&#45;headlabel"><a xlink:href="dir_000071_000046.html" target="_top" xlink:title="3">
<text text-anchor="middle" x="67.42" y="-48.57" font-family="Helvetica,sans-Serif" font-size="10.00">3</text>
</a>
</g>
</g>
</g>
</svg>
