<?xml version="1.0" encoding="UTF-8" standalone="no"?>
<!DOCTYPE svg PUBLIC "-//W3C//DTD SVG 1.1//EN"
 "http://www.w3.org/Graphics/SVG/1.1/DTD/svg11.dtd">
<!-- Generated by graphviz version 2.43.0 (0)
 -->
<!-- Title: ParametersHandler/YarpImplementation/include/BipedalLocomotion/ParametersHandler Pages: 1 -->
<svg width="142pt" height="223pt"
 viewBox="0.00 0.00 142.00 223.00" xmlns="http://www.w3.org/2000/svg" xmlns:xlink="http://www.w3.org/1999/xlink">
<g id="graph0" class="graph" transform="scale(1 1) rotate(0) translate(4 219)">
<title>ParametersHandler/YarpImplementation/include/BipedalLocomotion/ParametersHandler</title>
<g id="clust1" class="cluster">
<title>clusterdir_07a2b64e573b6e689d7d67e42a30668b</title>
<g id="a_clust1"><a xlink:href="dir_07a2b64e573b6e689d7d67e42a30668b.html" target="_top" xlink:title="BipedalLocomotion">
<polygon fill="#ddddee" stroke="black" points="8,-136 8,-207 126,-207 126,-136 8,-136"/>
<text text-anchor="middle" x="67" y="-195" font-family="Helvetica,sans-Serif" font-size="10.00">BipedalLocomotion</text>
</a>
</g>
</g>
<!-- dir_99be4c3d2da6bd084380a7aad5b94c0a -->
<g id="node1" class="node">
<title>dir_99be4c3d2da6bd084380a7aad5b94c0a</title>
<g id="a_node1"><a xlink:href="dir_99be4c3d2da6bd084380a7aad5b94c0a.html" target="_top" xlink:title="ParametersHandler">
<polygon fill="#eeeeff" stroke="black" points="117.5,-180 16.5,-180 16.5,-144 117.5,-144 117.5,-180"/>
<text text-anchor="middle" x="67" y="-159.5" font-family="Helvetica,sans-Serif" font-size="10.00">ParametersHandler</text>
</a>
</g>
</g>
<!-- dir_c2ff16d22970d8b79330500bc8a01502 -->
<g id="node2" class="node">
<title>dir_c2ff16d22970d8b79330500bc8a01502</title>
<g id="a_node2"><a xlink:href="dir_c2ff16d22970d8b79330500bc8a01502.html" target="_top" xlink:title="include">
<polygon fill="none" stroke="red" points="93,-36 39,-36 39,0 93,0 93,-36"/>
<text text-anchor="middle" x="66" y="-15.5" font-family="Helvetica,sans-Serif" font-size="10.00">include</text>
</a>
</g>
</g>
<!-- dir_99be4c3d2da6bd084380a7aad5b94c0a&#45;&gt;dir_c2ff16d22970d8b79330500bc8a01502 -->
<g id="edge1" class="edge">
<title>dir_99be4c3d2da6bd084380a7aad5b94c0a&#45;&gt;dir_c2ff16d22970d8b79330500bc8a01502</title>
<path fill="none" stroke="black" d="M62.13,-143.98C59.44,-133.67 56.36,-120.19 55,-108 53.22,-92.1 53.37,-87.92 55,-72 55.88,-63.46 57.53,-54.26 59.29,-45.96"/>
<polygon fill="black" stroke="black" points="62.74,-46.57 61.54,-36.05 55.92,-45.03 62.74,-46.57"/>
<g id="a_edge1&#45;headlabel"><a xlink:href="dir_000054_000047.html" target="_top" xlink:title="1">
<text text-anchor="middle" x="64.72" y="-48.21" font-family="Helvetica,sans-Serif" font-size="10.00">1</text>
</a>
</g>
</g>
<!-- dir_9f4ce4849845ca54ac66640ab17f25ff -->
<g id="node3" class="node">
<title>dir_9f4ce4849845ca54ac66640ab17f25ff</title>
<g id="a_node3"><a xlink:href="dir_9f4ce4849845ca54ac66640ab17f25ff.html" target="_top" xlink:title="YarpUtilities">
<polygon fill="none" stroke="red" points="132.5,-108 63.5,-108 63.5,-72 132.5,-72 132.5,-108"/>
<text text-anchor="middle" x="98" y="-87.5" font-family="Helvetica,sans-Serif" font-size="10.00">YarpUtilities</text>
</a>
</g>
</g>
<!-- dir_99be4c3d2da6bd084380a7aad5b94c0a&#45;&gt;dir_9f4ce4849845ca54ac66640ab17f25ff -->
<g id="edge2" class="edge">
<title>dir_99be4c3d2da6bd084380a7aad5b94c0a&#45;&gt;dir_9f4ce4849845ca54ac66640ab17f25ff</title>
<path fill="none" stroke="black" d="M74.66,-143.7C78.19,-135.73 82.46,-126.1 86.37,-117.26"/>
<polygon fill="black" stroke="black" points="89.58,-118.67 90.43,-108.1 83.18,-115.83 89.58,-118.67"/>
<g id="a_edge2&#45;headlabel"><a xlink:href="dir_000054_000081.html" target="_top" xlink:title="1">
<text text-anchor="middle" x="90.72" y="-120.6" font-family="Helvetica,sans-Serif" font-size="10.00">1</text>
</a>
</g>
</g>
<!-- dir_9f4ce4849845ca54ac66640ab17f25ff&#45;&gt;dir_c2ff16d22970d8b79330500bc8a01502 -->
<g id="edge3" class="edge">
<title>dir_9f4ce4849845ca54ac66640ab17f25ff&#45;&gt;dir_c2ff16d22970d8b79330500bc8a01502</title>
<path fill="none" stroke="black" d="M90.09,-71.7C86.45,-63.73 82.05,-54.1 78.01,-45.26"/>
<polygon fill="black" stroke="black" points="81.16,-43.74 73.82,-36.1 74.79,-46.65 81.16,-43.74"/>
<g id="a_edge3&#45;headlabel"><a xlink:href="dir_000081_000047.html" target="_top" xlink:title="1">
<text text-anchor="middle" x="85.24" y="-43.33" font-family="Helvetica,sans-Serif" font-size="10.00">1</text>
</a>
</g>
</g>
</g>
</svg>
