<?xml version="1.0" encoding="UTF-8" standalone="no"?>
<!DOCTYPE svg PUBLIC "-//W3C//DTD SVG 1.1//EN"
 "http://www.w3.org/Graphics/SVG/1.1/DTD/svg11.dtd">
<!-- Generated by graphviz version 2.43.0 (0)
 -->
<!-- Title: System/include/BipedalLocomotion/System/DynamicalSystem.h Pages: 1 -->
<svg width="1238pt" height="307pt"
 viewBox="0.00 0.00 1238.00 307.00" xmlns="http://www.w3.org/2000/svg" xmlns:xlink="http://www.w3.org/1999/xlink">
<g id="graph0" class="graph" transform="scale(1 1) rotate(0) translate(4 303)">
<title>System/include/BipedalLocomotion/System/DynamicalSystem.h</title>
<!-- Node1 -->
<g id="node1" class="node">
<title>Node1</title>
<g id="a_node1"><a xlink:title=" ">
<polygon fill="#bfbfbf" stroke="black" points="349,-268.5 349,-298.5 519,-298.5 519,-268.5 349,-268.5"/>
<text text-anchor="start" x="357" y="-286.5" font-family="Helvetica,sans-Serif" font-size="10.00">System/include/BipedalLocomotion</text>
<text text-anchor="middle" x="434" y="-275.5" font-family="Helvetica,sans-Serif" font-size="10.00">/System/DynamicalSystem.h</text>
</a>
</g>
</g>
<!-- Node2 -->
<g id="node2" class="node">
<title>Node2</title>
<g id="a_node2"><a xlink:href="TimeVaryingDCMPlanner_8cpp.html" target="_top" xlink:title=" ">
<polygon fill="none" stroke="black" points="0,-201.5 0,-231.5 128,-231.5 128,-201.5 0,-201.5"/>
<text text-anchor="start" x="8" y="-219.5" font-family="Helvetica,sans-Serif" font-size="10.00">Planners/src/TimeVarying</text>
<text text-anchor="middle" x="64" y="-208.5" font-family="Helvetica,sans-Serif" font-size="10.00">DCMPlanner.cpp</text>
</a>
</g>
</g>
<!-- Node1&#45;&gt;Node2 -->
<g id="edge1" class="edge">
<title>Node1&#45;&gt;Node2</title>
<path fill="none" stroke="midnightblue" d="M338.82,-267C280.49,-257.34 204.34,-244.41 137,-232 134.08,-231.46 131.09,-230.9 128.07,-230.33"/>
<polygon fill="midnightblue" stroke="midnightblue" points="338.32,-270.47 348.75,-268.65 339.46,-263.56 338.32,-270.47"/>
</g>
<!-- Node3 -->
<g id="node3" class="node">
<title>Node3</title>
<g id="a_node3"><a xlink:href="DynamicalSystem_8tpp.html" target="_top" xlink:title=" ">
<polygon fill="none" stroke="black" points="146,-201.5 146,-231.5 316,-231.5 316,-201.5 146,-201.5"/>
<text text-anchor="start" x="154" y="-219.5" font-family="Helvetica,sans-Serif" font-size="10.00">System/include/BipedalLocomotion</text>
<text text-anchor="middle" x="231" y="-208.5" font-family="Helvetica,sans-Serif" font-size="10.00">/System/DynamicalSystem.tpp</text>
</a>
</g>
</g>
<!-- Node1&#45;&gt;Node3 -->
<g id="edge2" class="edge">
<title>Node1&#45;&gt;Node3</title>
<path fill="none" stroke="midnightblue" d="M374.71,-265.44C340.73,-254.91 299.13,-241.55 269.39,-231.61"/>
<polygon fill="midnightblue" stroke="midnightblue" points="373.95,-268.87 384.53,-268.48 376.01,-262.18 373.95,-268.87"/>
</g>
<!-- Node4 -->
<g id="node4" class="node">
<title>Node4</title>
<g id="a_node4"><a xlink:href="FloatingBaseSystemDynamics_8h.html" target="_top" xlink:title=" ">
<polygon fill="none" stroke="black" points="334,-201.5 334,-231.5 534,-231.5 534,-201.5 334,-201.5"/>
<text text-anchor="start" x="342" y="-219.5" font-family="Helvetica,sans-Serif" font-size="10.00">System/include/BipedalLocomotion</text>
<text text-anchor="middle" x="434" y="-208.5" font-family="Helvetica,sans-Serif" font-size="10.00">/System/FloatingBaseSystemDynamics.h</text>
</a>
</g>
</g>
<!-- Node1&#45;&gt;Node4 -->
<g id="edge4" class="edge">
<title>Node1&#45;&gt;Node4</title>
<path fill="none" stroke="midnightblue" d="M434,-258.11C434,-249.15 434,-239.32 434,-231.58"/>
<polygon fill="midnightblue" stroke="midnightblue" points="430.5,-258.4 434,-268.4 437.5,-258.4 430.5,-258.4"/>
</g>
<!-- Node6 -->
<g id="node6" class="node">
<title>Node6</title>
<g id="a_node6"><a xlink:href="FloatingBaseSystemKinematics_8h.html" target="_top" xlink:title=" ">
<polygon fill="none" stroke="black" points="552,-201.5 552,-231.5 756,-231.5 756,-201.5 552,-201.5"/>
<text text-anchor="start" x="560" y="-219.5" font-family="Helvetica,sans-Serif" font-size="10.00">System/include/BipedalLocomotion</text>
<text text-anchor="middle" x="654" y="-208.5" font-family="Helvetica,sans-Serif" font-size="10.00">/System/FloatingBaseSystemKinematics.h</text>
</a>
</g>
</g>
<!-- Node1&#45;&gt;Node6 -->
<g id="edge6" class="edge">
<title>Node1&#45;&gt;Node6</title>
<path fill="none" stroke="midnightblue" d="M491.27,-265.58C527,-255.02 572.46,-241.59 606.24,-231.61"/>
<polygon fill="midnightblue" stroke="midnightblue" points="490.06,-262.29 481.47,-268.48 492.05,-269 490.06,-262.29"/>
</g>
<!-- Node8 -->
<g id="node8" class="node">
<title>Node8</title>
<g id="a_node8"><a xlink:href="Integrator_8h.html" target="_top" xlink:title=" ">
<polygon fill="none" stroke="black" points="830,-201.5 830,-231.5 1000,-231.5 1000,-201.5 830,-201.5"/>
<text text-anchor="start" x="838" y="-219.5" font-family="Helvetica,sans-Serif" font-size="10.00">System/include/BipedalLocomotion</text>
<text text-anchor="middle" x="915" y="-208.5" font-family="Helvetica,sans-Serif" font-size="10.00">/System/Integrator.h</text>
</a>
</g>
</g>
<!-- Node1&#45;&gt;Node8 -->
<g id="edge8" class="edge">
<title>Node1&#45;&gt;Node8</title>
<path fill="none" stroke="midnightblue" d="M529.1,-269.65C616.72,-257.81 745.55,-240.4 829.85,-229.01"/>
<polygon fill="midnightblue" stroke="midnightblue" points="528.6,-266.18 519.16,-270.99 529.54,-273.12 528.6,-266.18"/>
</g>
<!-- Node14 -->
<g id="node14" class="node">
<title>Node14</title>
<g id="a_node14"><a xlink:href="LinearTimeInvariantSystem_8h.html" target="_top" xlink:title=" ">
<polygon fill="none" stroke="black" points="1046,-201.5 1046,-231.5 1230,-231.5 1230,-201.5 1046,-201.5"/>
<text text-anchor="start" x="1054" y="-219.5" font-family="Helvetica,sans-Serif" font-size="10.00">System/include/BipedalLocomotion</text>
<text text-anchor="middle" x="1138" y="-208.5" font-family="Helvetica,sans-Serif" font-size="10.00">/System/LinearTimeInvariantSystem.h</text>
</a>
</g>
</g>
<!-- Node1&#45;&gt;Node14 -->
<g id="edge17" class="edge">
<title>Node1&#45;&gt;Node14</title>
<path fill="none" stroke="midnightblue" d="M529.41,-274.84C643.54,-265.5 840.34,-248.88 1009,-232 1020.89,-230.81 1033.38,-229.49 1045.72,-228.15"/>
<polygon fill="midnightblue" stroke="midnightblue" points="528.99,-271.36 519.3,-275.66 529.56,-278.34 528.99,-271.36"/>
</g>
<!-- Node3&#45;&gt;Node1 -->
<g id="edge3" class="edge">
<title>Node3&#45;&gt;Node1</title>
<path fill="none" stroke="midnightblue" d="M290.45,-234.61C324.41,-245.14 365.94,-258.47 395.63,-268.4"/>
<polygon fill="midnightblue" stroke="midnightblue" points="291.22,-231.18 280.64,-231.58 289.16,-237.87 291.22,-231.18"/>
</g>
<!-- Node5 -->
<g id="node5" class="node">
<title>Node5</title>
<g id="a_node5"><a xlink:href="FloatingBaseSystemDynamics_8cpp.html" target="_top" xlink:title=" ">
<polygon fill="none" stroke="black" points="339.5,-134.5 339.5,-164.5 500.5,-164.5 500.5,-134.5 339.5,-134.5"/>
<text text-anchor="start" x="347.5" y="-152.5" font-family="Helvetica,sans-Serif" font-size="10.00">System/src/FloatingBaseSystem</text>
<text text-anchor="middle" x="420" y="-141.5" font-family="Helvetica,sans-Serif" font-size="10.00">Dynamics.cpp</text>
</a>
</g>
</g>
<!-- Node4&#45;&gt;Node5 -->
<g id="edge5" class="edge">
<title>Node4&#45;&gt;Node5</title>
<path fill="none" stroke="midnightblue" d="M428.81,-191.4C426.86,-182.37 424.72,-172.41 423.03,-164.58"/>
<polygon fill="midnightblue" stroke="midnightblue" points="425.44,-192.36 430.96,-201.4 432.28,-190.88 425.44,-192.36"/>
</g>
<!-- Node7 -->
<g id="node7" class="node">
<title>Node7</title>
<g id="a_node7"><a xlink:href="FloatingBaseSystemKinematics_8cpp.html" target="_top" xlink:title=" ">
<polygon fill="none" stroke="black" points="518.5,-134.5 518.5,-164.5 679.5,-164.5 679.5,-134.5 518.5,-134.5"/>
<text text-anchor="start" x="526.5" y="-152.5" font-family="Helvetica,sans-Serif" font-size="10.00">System/src/FloatingBaseSystem</text>
<text text-anchor="middle" x="599" y="-141.5" font-family="Helvetica,sans-Serif" font-size="10.00">Kinematics.cpp</text>
</a>
</g>
</g>
<!-- Node6&#45;&gt;Node7 -->
<g id="edge7" class="edge">
<title>Node6&#45;&gt;Node7</title>
<path fill="none" stroke="midnightblue" d="M635.58,-193.74C627.45,-184.12 618.11,-173.09 610.91,-164.58"/>
<polygon fill="midnightblue" stroke="midnightblue" points="632.93,-196.02 642.07,-201.4 638.28,-191.5 632.93,-196.02"/>
</g>
<!-- Node9 -->
<g id="node9" class="node">
<title>Node9</title>
<g id="a_node9"><a xlink:href="FixedStepIntegrator_8h.html" target="_top" xlink:title=" ">
<polygon fill="none" stroke="black" points="698,-134.5 698,-164.5 868,-164.5 868,-134.5 698,-134.5"/>
<text text-anchor="start" x="706" y="-152.5" font-family="Helvetica,sans-Serif" font-size="10.00">System/include/BipedalLocomotion</text>
<text text-anchor="middle" x="783" y="-141.5" font-family="Helvetica,sans-Serif" font-size="10.00">/System/FixedStepIntegrator.h</text>
</a>
</g>
</g>
<!-- Node8&#45;&gt;Node9 -->
<g id="edge9" class="edge">
<title>Node8&#45;&gt;Node9</title>
<path fill="none" stroke="midnightblue" d="M877.13,-196.85C856.26,-186.58 830.77,-174.03 811.59,-164.58"/>
<polygon fill="midnightblue" stroke="midnightblue" points="875.84,-200.12 886.36,-201.4 878.93,-193.84 875.84,-200.12"/>
</g>
<!-- Node13 -->
<g id="node13" class="node">
<title>Node13</title>
<g id="a_node13"><a xlink:href="Integrator_8tpp.html" target="_top" xlink:title=" ">
<polygon fill="none" stroke="black" points="886,-134.5 886,-164.5 1056,-164.5 1056,-134.5 886,-134.5"/>
<text text-anchor="start" x="894" y="-152.5" font-family="Helvetica,sans-Serif" font-size="10.00">System/include/BipedalLocomotion</text>
<text text-anchor="middle" x="971" y="-141.5" font-family="Helvetica,sans-Serif" font-size="10.00">/System/Integrator.tpp</text>
</a>
</g>
</g>
<!-- Node8&#45;&gt;Node13 -->
<g id="edge15" class="edge">
<title>Node8&#45;&gt;Node13</title>
<path fill="none" stroke="midnightblue" d="M927.57,-193.45C935.19,-183.9 944.83,-173 953.2,-164.58"/>
<polygon fill="midnightblue" stroke="midnightblue" points="924.78,-191.33 921.47,-201.4 930.34,-195.59 924.78,-191.33"/>
</g>
<!-- Node10 -->
<g id="node10" class="node">
<title>Node10</title>
<g id="a_node10"><a xlink:href="FixedStepIntegrator_8tpp.html" target="_top" xlink:title=" ">
<polygon fill="none" stroke="black" points="698,-67.5 698,-97.5 868,-97.5 868,-67.5 698,-67.5"/>
<text text-anchor="start" x="706" y="-85.5" font-family="Helvetica,sans-Serif" font-size="10.00">System/include/BipedalLocomotion</text>
<text text-anchor="middle" x="783" y="-74.5" font-family="Helvetica,sans-Serif" font-size="10.00">/System/FixedStepIntegrator.tpp</text>
</a>
</g>
</g>
<!-- Node9&#45;&gt;Node10 -->
<g id="edge10" class="edge">
<title>Node9&#45;&gt;Node10</title>
<path fill="none" stroke="midnightblue" d="M776.45,-124.4C776.01,-115.37 776.3,-105.41 777.33,-97.58"/>
<polygon fill="midnightblue" stroke="midnightblue" points="772.97,-124.74 777.32,-134.4 779.94,-124.13 772.97,-124.74"/>
</g>
<!-- Node11 -->
<g id="node11" class="node">
<title>Node11</title>
<g id="a_node11"><a xlink:href="ForwardEuler_8h.html" target="_top" xlink:title=" ">
<polygon fill="none" stroke="black" points="886,-67.5 886,-97.5 1056,-97.5 1056,-67.5 886,-67.5"/>
<text text-anchor="start" x="894" y="-85.5" font-family="Helvetica,sans-Serif" font-size="10.00">System/include/BipedalLocomotion</text>
<text text-anchor="middle" x="971" y="-74.5" font-family="Helvetica,sans-Serif" font-size="10.00">/System/ForwardEuler.h</text>
</a>
</g>
</g>
<!-- Node9&#45;&gt;Node11 -->
<g id="edge12" class="edge">
<title>Node9&#45;&gt;Node11</title>
<path fill="none" stroke="midnightblue" d="M833.35,-131.09C863.7,-120.6 901.85,-107.41 930.29,-97.58"/>
<polygon fill="midnightblue" stroke="midnightblue" points="832.1,-127.82 823.79,-134.4 834.39,-134.44 832.1,-127.82"/>
</g>
<!-- Node10&#45;&gt;Node9 -->
<g id="edge11" class="edge">
<title>Node10&#45;&gt;Node9</title>
<path fill="none" stroke="midnightblue" d="M789.54,-107.57C789.99,-116.6 789.71,-126.56 788.68,-134.4"/>
<polygon fill="midnightblue" stroke="midnightblue" points="793.03,-107.24 788.67,-97.58 786.05,-107.84 793.03,-107.24"/>
</g>
<!-- Node12 -->
<g id="node12" class="node">
<title>Node12</title>
<g id="a_node12"><a xlink:href="ForwardEuler_8tpp.html" target="_top" xlink:title=" ">
<polygon fill="none" stroke="black" points="886,-0.5 886,-30.5 1056,-30.5 1056,-0.5 886,-0.5"/>
<text text-anchor="start" x="894" y="-18.5" font-family="Helvetica,sans-Serif" font-size="10.00">System/include/BipedalLocomotion</text>
<text text-anchor="middle" x="971" y="-7.5" font-family="Helvetica,sans-Serif" font-size="10.00">/System/ForwardEuler.tpp</text>
</a>
</g>
</g>
<!-- Node11&#45;&gt;Node12 -->
<g id="edge13" class="edge">
<title>Node11&#45;&gt;Node12</title>
<path fill="none" stroke="midnightblue" d="M964.45,-57.4C964.01,-48.37 964.3,-38.41 965.33,-30.58"/>
<polygon fill="midnightblue" stroke="midnightblue" points="960.97,-57.74 965.32,-67.4 967.94,-57.13 960.97,-57.74"/>
</g>
<!-- Node12&#45;&gt;Node11 -->
<g id="edge14" class="edge">
<title>Node12&#45;&gt;Node11</title>
<path fill="none" stroke="midnightblue" d="M977.54,-40.57C977.99,-49.6 977.71,-59.56 976.68,-67.4"/>
<polygon fill="midnightblue" stroke="midnightblue" points="981.03,-40.24 976.67,-30.58 974.05,-40.84 981.03,-40.24"/>
</g>
<!-- Node13&#45;&gt;Node8 -->
<g id="edge16" class="edge">
<title>Node13&#45;&gt;Node8</title>
<path fill="none" stroke="midnightblue" d="M958.46,-172.52C950.84,-182.07 941.2,-192.96 932.83,-201.4"/>
<polygon fill="midnightblue" stroke="midnightblue" points="961.24,-174.64 964.55,-164.58 955.69,-170.38 961.24,-174.64"/>
</g>
<!-- Node15 -->
<g id="node15" class="node">
<title>Node15</title>
<g id="a_node15"><a xlink:href="LinearTimeInvariantSystem_8cpp.html" target="_top" xlink:title=" ">
<polygon fill="none" stroke="black" points="1074.5,-134.5 1074.5,-164.5 1229.5,-164.5 1229.5,-134.5 1074.5,-134.5"/>
<text text-anchor="start" x="1082.5" y="-152.5" font-family="Helvetica,sans-Serif" font-size="10.00">System/src/LinearTimeInvariant</text>
<text text-anchor="middle" x="1152" y="-141.5" font-family="Helvetica,sans-Serif" font-size="10.00">System.cpp</text>
</a>
</g>
</g>
<!-- Node14&#45;&gt;Node15 -->
<g id="edge18" class="edge">
<title>Node14&#45;&gt;Node15</title>
<path fill="none" stroke="midnightblue" d="M1143.19,-191.4C1145.14,-182.37 1147.28,-172.41 1148.97,-164.58"/>
<polygon fill="midnightblue" stroke="midnightblue" points="1139.72,-190.88 1141.04,-201.4 1146.56,-192.36 1139.72,-190.88"/>
</g>
</g>
</svg>
