<?xml version="1.0" encoding="UTF-8" standalone="no"?>
<!DOCTYPE svg PUBLIC "-//W3C//DTD SVG 1.1//EN"
 "http://www.w3.org/Graphics/SVG/1.1/DTD/svg11.dtd">
<!-- Generated by graphviz version 2.43.0 (0)
 -->
<!-- Title: System/include/BipedalLocomotion/System/DynamicalSystem.tpp Pages: 1 -->
<svg width="1050pt" height="374pt"
 viewBox="0.00 0.00 1050.00 374.00" xmlns="http://www.w3.org/2000/svg" xmlns:xlink="http://www.w3.org/1999/xlink">
<g id="graph0" class="graph" transform="scale(1 1) rotate(0) translate(4 370)">
<title>System/include/BipedalLocomotion/System/DynamicalSystem.tpp</title>
<!-- Node1 -->
<g id="node1" class="node">
<title>Node1</title>
<g id="a_node1"><a xlink:title=" ">
<polygon fill="#bfbfbf" stroke="black" points="381,-335.5 381,-365.5 551,-365.5 551,-335.5 381,-335.5"/>
<text text-anchor="start" x="389" y="-353.5" font-family="Helvetica,sans-Serif" font-size="10.00">System/include/BipedalLocomotion</text>
<text text-anchor="middle" x="466" y="-342.5" font-family="Helvetica,sans-Serif" font-size="10.00">/System/DynamicalSystem.tpp</text>
</a>
</g>
</g>
<!-- Node2 -->
<g id="node2" class="node">
<title>Node2</title>
<g id="a_node2"><a xlink:href="DynamicalSystem_8h.html" target="_top" xlink:title=" ">
<polygon fill="none" stroke="black" points="381,-268.5 381,-298.5 551,-298.5 551,-268.5 381,-268.5"/>
<text text-anchor="start" x="389" y="-286.5" font-family="Helvetica,sans-Serif" font-size="10.00">System/include/BipedalLocomotion</text>
<text text-anchor="middle" x="466" y="-275.5" font-family="Helvetica,sans-Serif" font-size="10.00">/System/DynamicalSystem.h</text>
</a>
</g>
</g>
<!-- Node1&#45;&gt;Node2 -->
<g id="edge1" class="edge">
<title>Node1&#45;&gt;Node2</title>
<path fill="none" stroke="midnightblue" d="M459.45,-325.4C459.01,-316.37 459.3,-306.41 460.33,-298.58"/>
<polygon fill="midnightblue" stroke="midnightblue" points="455.97,-325.74 460.32,-335.4 462.94,-325.13 455.97,-325.74"/>
</g>
<!-- Node2&#45;&gt;Node1 -->
<g id="edge3" class="edge">
<title>Node2&#45;&gt;Node1</title>
<path fill="none" stroke="midnightblue" d="M472.54,-308.57C472.99,-317.6 472.71,-327.56 471.68,-335.4"/>
<polygon fill="midnightblue" stroke="midnightblue" points="476.03,-308.24 471.67,-298.58 469.05,-308.84 476.03,-308.24"/>
</g>
<!-- Node3 -->
<g id="node3" class="node">
<title>Node3</title>
<g id="a_node3"><a xlink:href="TimeVaryingDCMPlanner_8cpp.html" target="_top" xlink:title=" ">
<polygon fill="none" stroke="black" points="0,-201.5 0,-231.5 128,-231.5 128,-201.5 0,-201.5"/>
<text text-anchor="start" x="8" y="-219.5" font-family="Helvetica,sans-Serif" font-size="10.00">Planners/src/TimeVarying</text>
<text text-anchor="middle" x="64" y="-208.5" font-family="Helvetica,sans-Serif" font-size="10.00">DCMPlanner.cpp</text>
</a>
</g>
</g>
<!-- Node2&#45;&gt;Node3 -->
<g id="edge2" class="edge">
<title>Node2&#45;&gt;Node3</title>
<path fill="none" stroke="midnightblue" d="M371.02,-269.05C305.21,-259.45 215.63,-245.84 137,-232 134.07,-231.48 131.08,-230.95 128.06,-230.39"/>
<polygon fill="midnightblue" stroke="midnightblue" points="370.57,-272.52 380.97,-270.49 371.57,-265.59 370.57,-272.52"/>
</g>
<!-- Node4 -->
<g id="node4" class="node">
<title>Node4</title>
<g id="a_node4"><a xlink:href="FloatingBaseSystemDynamics_8h.html" target="_top" xlink:title=" ">
<polygon fill="none" stroke="black" points="146,-201.5 146,-231.5 346,-231.5 346,-201.5 146,-201.5"/>
<text text-anchor="start" x="154" y="-219.5" font-family="Helvetica,sans-Serif" font-size="10.00">System/include/BipedalLocomotion</text>
<text text-anchor="middle" x="246" y="-208.5" font-family="Helvetica,sans-Serif" font-size="10.00">/System/FloatingBaseSystemDynamics.h</text>
</a>
</g>
</g>
<!-- Node2&#45;&gt;Node4 -->
<g id="edge4" class="edge">
<title>Node2&#45;&gt;Node4</title>
<path fill="none" stroke="midnightblue" d="M408.73,-265.58C373,-255.02 327.54,-241.59 293.76,-231.61"/>
<polygon fill="midnightblue" stroke="midnightblue" points="407.95,-269 418.53,-268.48 409.94,-262.29 407.95,-269"/>
</g>
<!-- Node6 -->
<g id="node6" class="node">
<title>Node6</title>
<g id="a_node6"><a xlink:href="FloatingBaseSystemKinematics_8h.html" target="_top" xlink:title=" ">
<polygon fill="none" stroke="black" points="364,-201.5 364,-231.5 568,-231.5 568,-201.5 364,-201.5"/>
<text text-anchor="start" x="372" y="-219.5" font-family="Helvetica,sans-Serif" font-size="10.00">System/include/BipedalLocomotion</text>
<text text-anchor="middle" x="466" y="-208.5" font-family="Helvetica,sans-Serif" font-size="10.00">/System/FloatingBaseSystemKinematics.h</text>
</a>
</g>
</g>
<!-- Node2&#45;&gt;Node6 -->
<g id="edge6" class="edge">
<title>Node2&#45;&gt;Node6</title>
<path fill="none" stroke="midnightblue" d="M466,-258.11C466,-249.15 466,-239.32 466,-231.58"/>
<polygon fill="midnightblue" stroke="midnightblue" points="462.5,-258.4 466,-268.4 469.5,-258.4 462.5,-258.4"/>
</g>
<!-- Node8 -->
<g id="node8" class="node">
<title>Node8</title>
<g id="a_node8"><a xlink:href="Integrator_8h.html" target="_top" xlink:title=" ">
<polygon fill="none" stroke="black" points="642,-201.5 642,-231.5 812,-231.5 812,-201.5 642,-201.5"/>
<text text-anchor="start" x="650" y="-219.5" font-family="Helvetica,sans-Serif" font-size="10.00">System/include/BipedalLocomotion</text>
<text text-anchor="middle" x="727" y="-208.5" font-family="Helvetica,sans-Serif" font-size="10.00">/System/Integrator.h</text>
</a>
</g>
</g>
<!-- Node2&#45;&gt;Node8 -->
<g id="edge8" class="edge">
<title>Node2&#45;&gt;Node8</title>
<path fill="none" stroke="midnightblue" d="M532.05,-266.05C574.72,-255.43 629.66,-241.74 670.34,-231.61"/>
<polygon fill="midnightblue" stroke="midnightblue" points="531.17,-262.66 522.31,-268.48 532.86,-269.46 531.17,-262.66"/>
</g>
<!-- Node14 -->
<g id="node14" class="node">
<title>Node14</title>
<g id="a_node14"><a xlink:href="LinearTimeInvariantSystem_8h.html" target="_top" xlink:title=" ">
<polygon fill="none" stroke="black" points="858,-201.5 858,-231.5 1042,-231.5 1042,-201.5 858,-201.5"/>
<text text-anchor="start" x="866" y="-219.5" font-family="Helvetica,sans-Serif" font-size="10.00">System/include/BipedalLocomotion</text>
<text text-anchor="middle" x="950" y="-208.5" font-family="Helvetica,sans-Serif" font-size="10.00">/System/LinearTimeInvariantSystem.h</text>
</a>
</g>
</g>
<!-- Node2&#45;&gt;Node14 -->
<g id="edge17" class="edge">
<title>Node2&#45;&gt;Node14</title>
<path fill="none" stroke="midnightblue" d="M561.16,-269.72C647.14,-258.17 772.9,-241.28 857.92,-229.87"/>
<polygon fill="midnightblue" stroke="midnightblue" points="560.58,-266.27 551.14,-271.07 561.51,-273.2 560.58,-266.27"/>
</g>
<!-- Node5 -->
<g id="node5" class="node">
<title>Node5</title>
<g id="a_node5"><a xlink:href="FloatingBaseSystemDynamics_8cpp.html" target="_top" xlink:title=" ">
<polygon fill="none" stroke="black" points="151.5,-134.5 151.5,-164.5 312.5,-164.5 312.5,-134.5 151.5,-134.5"/>
<text text-anchor="start" x="159.5" y="-152.5" font-family="Helvetica,sans-Serif" font-size="10.00">System/src/FloatingBaseSystem</text>
<text text-anchor="middle" x="232" y="-141.5" font-family="Helvetica,sans-Serif" font-size="10.00">Dynamics.cpp</text>
</a>
</g>
</g>
<!-- Node4&#45;&gt;Node5 -->
<g id="edge5" class="edge">
<title>Node4&#45;&gt;Node5</title>
<path fill="none" stroke="midnightblue" d="M240.81,-191.4C238.86,-182.37 236.72,-172.41 235.03,-164.58"/>
<polygon fill="midnightblue" stroke="midnightblue" points="237.44,-192.36 242.96,-201.4 244.28,-190.88 237.44,-192.36"/>
</g>
<!-- Node7 -->
<g id="node7" class="node">
<title>Node7</title>
<g id="a_node7"><a xlink:href="FloatingBaseSystemKinematics_8cpp.html" target="_top" xlink:title=" ">
<polygon fill="none" stroke="black" points="330.5,-134.5 330.5,-164.5 491.5,-164.5 491.5,-134.5 330.5,-134.5"/>
<text text-anchor="start" x="338.5" y="-152.5" font-family="Helvetica,sans-Serif" font-size="10.00">System/src/FloatingBaseSystem</text>
<text text-anchor="middle" x="411" y="-141.5" font-family="Helvetica,sans-Serif" font-size="10.00">Kinematics.cpp</text>
</a>
</g>
</g>
<!-- Node6&#45;&gt;Node7 -->
<g id="edge7" class="edge">
<title>Node6&#45;&gt;Node7</title>
<path fill="none" stroke="midnightblue" d="M447.58,-193.74C439.45,-184.12 430.11,-173.09 422.91,-164.58"/>
<polygon fill="midnightblue" stroke="midnightblue" points="444.93,-196.02 454.07,-201.4 450.28,-191.5 444.93,-196.02"/>
</g>
<!-- Node9 -->
<g id="node9" class="node">
<title>Node9</title>
<g id="a_node9"><a xlink:href="FixedStepIntegrator_8h.html" target="_top" xlink:title=" ">
<polygon fill="none" stroke="black" points="510,-134.5 510,-164.5 680,-164.5 680,-134.5 510,-134.5"/>
<text text-anchor="start" x="518" y="-152.5" font-family="Helvetica,sans-Serif" font-size="10.00">System/include/BipedalLocomotion</text>
<text text-anchor="middle" x="595" y="-141.5" font-family="Helvetica,sans-Serif" font-size="10.00">/System/FixedStepIntegrator.h</text>
</a>
</g>
</g>
<!-- Node8&#45;&gt;Node9 -->
<g id="edge9" class="edge">
<title>Node8&#45;&gt;Node9</title>
<path fill="none" stroke="midnightblue" d="M689.13,-196.85C668.26,-186.58 642.77,-174.03 623.59,-164.58"/>
<polygon fill="midnightblue" stroke="midnightblue" points="687.84,-200.12 698.36,-201.4 690.93,-193.84 687.84,-200.12"/>
</g>
<!-- Node13 -->
<g id="node13" class="node">
<title>Node13</title>
<g id="a_node13"><a xlink:href="Integrator_8tpp.html" target="_top" xlink:title=" ">
<polygon fill="none" stroke="black" points="698,-134.5 698,-164.5 868,-164.5 868,-134.5 698,-134.5"/>
<text text-anchor="start" x="706" y="-152.5" font-family="Helvetica,sans-Serif" font-size="10.00">System/include/BipedalLocomotion</text>
<text text-anchor="middle" x="783" y="-141.5" font-family="Helvetica,sans-Serif" font-size="10.00">/System/Integrator.tpp</text>
</a>
</g>
</g>
<!-- Node8&#45;&gt;Node13 -->
<g id="edge15" class="edge">
<title>Node8&#45;&gt;Node13</title>
<path fill="none" stroke="midnightblue" d="M739.57,-193.45C747.19,-183.9 756.83,-173 765.2,-164.58"/>
<polygon fill="midnightblue" stroke="midnightblue" points="736.78,-191.33 733.47,-201.4 742.34,-195.59 736.78,-191.33"/>
</g>
<!-- Node10 -->
<g id="node10" class="node">
<title>Node10</title>
<g id="a_node10"><a xlink:href="FixedStepIntegrator_8tpp.html" target="_top" xlink:title=" ">
<polygon fill="none" stroke="black" points="510,-67.5 510,-97.5 680,-97.5 680,-67.5 510,-67.5"/>
<text text-anchor="start" x="518" y="-85.5" font-family="Helvetica,sans-Serif" font-size="10.00">System/include/BipedalLocomotion</text>
<text text-anchor="middle" x="595" y="-74.5" font-family="Helvetica,sans-Serif" font-size="10.00">/System/FixedStepIntegrator.tpp</text>
</a>
</g>
</g>
<!-- Node9&#45;&gt;Node10 -->
<g id="edge10" class="edge">
<title>Node9&#45;&gt;Node10</title>
<path fill="none" stroke="midnightblue" d="M588.45,-124.4C588.01,-115.37 588.3,-105.41 589.33,-97.58"/>
<polygon fill="midnightblue" stroke="midnightblue" points="584.97,-124.74 589.32,-134.4 591.94,-124.13 584.97,-124.74"/>
</g>
<!-- Node11 -->
<g id="node11" class="node">
<title>Node11</title>
<g id="a_node11"><a xlink:href="ForwardEuler_8h.html" target="_top" xlink:title=" ">
<polygon fill="none" stroke="black" points="698,-67.5 698,-97.5 868,-97.5 868,-67.5 698,-67.5"/>
<text text-anchor="start" x="706" y="-85.5" font-family="Helvetica,sans-Serif" font-size="10.00">System/include/BipedalLocomotion</text>
<text text-anchor="middle" x="783" y="-74.5" font-family="Helvetica,sans-Serif" font-size="10.00">/System/ForwardEuler.h</text>
</a>
</g>
</g>
<!-- Node9&#45;&gt;Node11 -->
<g id="edge12" class="edge">
<title>Node9&#45;&gt;Node11</title>
<path fill="none" stroke="midnightblue" d="M645.35,-131.09C675.7,-120.6 713.85,-107.41 742.29,-97.58"/>
<polygon fill="midnightblue" stroke="midnightblue" points="644.1,-127.82 635.79,-134.4 646.39,-134.44 644.1,-127.82"/>
</g>
<!-- Node10&#45;&gt;Node9 -->
<g id="edge11" class="edge">
<title>Node10&#45;&gt;Node9</title>
<path fill="none" stroke="midnightblue" d="M601.54,-107.57C601.99,-116.6 601.71,-126.56 600.68,-134.4"/>
<polygon fill="midnightblue" stroke="midnightblue" points="605.03,-107.24 600.67,-97.58 598.05,-107.84 605.03,-107.24"/>
</g>
<!-- Node12 -->
<g id="node12" class="node">
<title>Node12</title>
<g id="a_node12"><a xlink:href="ForwardEuler_8tpp.html" target="_top" xlink:title=" ">
<polygon fill="none" stroke="black" points="698,-0.5 698,-30.5 868,-30.5 868,-0.5 698,-0.5"/>
<text text-anchor="start" x="706" y="-18.5" font-family="Helvetica,sans-Serif" font-size="10.00">System/include/BipedalLocomotion</text>
<text text-anchor="middle" x="783" y="-7.5" font-family="Helvetica,sans-Serif" font-size="10.00">/System/ForwardEuler.tpp</text>
</a>
</g>
</g>
<!-- Node11&#45;&gt;Node12 -->
<g id="edge13" class="edge">
<title>Node11&#45;&gt;Node12</title>
<path fill="none" stroke="midnightblue" d="M776.45,-57.4C776.01,-48.37 776.3,-38.41 777.33,-30.58"/>
<polygon fill="midnightblue" stroke="midnightblue" points="772.97,-57.74 777.32,-67.4 779.94,-57.13 772.97,-57.74"/>
</g>
<!-- Node12&#45;&gt;Node11 -->
<g id="edge14" class="edge">
<title>Node12&#45;&gt;Node11</title>
<path fill="none" stroke="midnightblue" d="M789.54,-40.57C789.99,-49.6 789.71,-59.56 788.68,-67.4"/>
<polygon fill="midnightblue" stroke="midnightblue" points="793.03,-40.24 788.67,-30.58 786.05,-40.84 793.03,-40.24"/>
</g>
<!-- Node13&#45;&gt;Node8 -->
<g id="edge16" class="edge">
<title>Node13&#45;&gt;Node8</title>
<path fill="none" stroke="midnightblue" d="M770.46,-172.52C762.84,-182.07 753.2,-192.96 744.83,-201.4"/>
<polygon fill="midnightblue" stroke="midnightblue" points="773.24,-174.64 776.55,-164.58 767.69,-170.38 773.24,-174.64"/>
</g>
<!-- Node15 -->
<g id="node15" class="node">
<title>Node15</title>
<g id="a_node15"><a xlink:href="LinearTimeInvariantSystem_8cpp.html" target="_top" xlink:title=" ">
<polygon fill="none" stroke="black" points="886.5,-134.5 886.5,-164.5 1041.5,-164.5 1041.5,-134.5 886.5,-134.5"/>
<text text-anchor="start" x="894.5" y="-152.5" font-family="Helvetica,sans-Serif" font-size="10.00">System/src/LinearTimeInvariant</text>
<text text-anchor="middle" x="964" y="-141.5" font-family="Helvetica,sans-Serif" font-size="10.00">System.cpp</text>
</a>
</g>
</g>
<!-- Node14&#45;&gt;Node15 -->
<g id="edge18" class="edge">
<title>Node14&#45;&gt;Node15</title>
<path fill="none" stroke="midnightblue" d="M955.19,-191.4C957.14,-182.37 959.28,-172.41 960.97,-164.58"/>
<polygon fill="midnightblue" stroke="midnightblue" points="951.72,-190.88 953.04,-201.4 958.56,-192.36 951.72,-190.88"/>
</g>
</g>
</svg>
