<?xml version="1.0" encoding="UTF-8" standalone="no"?>
<!DOCTYPE svg PUBLIC "-//W3C//DTD SVG 1.1//EN"
 "http://www.w3.org/Graphics/SVG/1.1/DTD/svg11.dtd">
<!-- Generated by graphviz version 2.43.0 (0)
 -->
<!-- Title: System/include/BipedalLocomotion/System/FixedStepIntegrator.h Pages: 1 -->
<svg width="930pt" height="430pt"
 viewBox="0.00 0.00 929.57 430.00" xmlns="http://www.w3.org/2000/svg" xmlns:xlink="http://www.w3.org/1999/xlink">
<g id="graph0" class="graph" transform="scale(1 1) rotate(0) translate(4 426)">
<title>System/include/BipedalLocomotion/System/FixedStepIntegrator.h</title>
<!-- Node1 -->
<g id="node1" class="node">
<title>Node1</title>
<g id="a_node1"><a xlink:title=" ">
<polygon fill="#bfbfbf" stroke="black" points="740,-391.5 740,-421.5 910,-421.5 910,-391.5 740,-391.5"/>
<text text-anchor="start" x="748" y="-409.5" font-family="Helvetica,sans-Serif" font-size="10.00">System/include/BipedalLocomotion</text>
<text text-anchor="middle" x="825" y="-398.5" font-family="Helvetica,sans-Serif" font-size="10.00">/System/FixedStepIntegrator.h</text>
</a>
</g>
</g>
<!-- Node2 -->
<g id="node2" class="node">
<title>Node2</title>
<g id="a_node2"><a xlink:title=" ">
<polygon fill="none" stroke="#bfbfbf" points="552,-62 552,-81 604,-81 604,-62 552,-62"/>
<text text-anchor="middle" x="578" y="-69" font-family="Helvetica,sans-Serif" font-size="10.00">memory</text>
</a>
</g>
</g>
<!-- Node1&#45;&gt;Node2 -->
<g id="edge1" class="edge">
<title>Node1&#45;&gt;Node2</title>
<path fill="none" stroke="midnightblue" d="M857.41,-391.41C873.12,-383.01 890.92,-370.86 902,-355 923.3,-324.51 921,-310.69 921,-273.5 921,-273.5 921,-273.5 921,-204.5 921,-139.28 702.25,-94.04 614.14,-78.47"/>
<polygon fill="midnightblue" stroke="midnightblue" points="614.51,-74.98 604.06,-76.72 613.31,-81.88 614.51,-74.98"/>
</g>
<!-- Node3 -->
<g id="node3" class="node">
<title>Node3</title>
<g id="a_node3"><a xlink:title=" ">
<polygon fill="none" stroke="#bfbfbf" points="648,-196 648,-215 686,-215 686,-196 648,-196"/>
<text text-anchor="middle" x="667" y="-203" font-family="Helvetica,sans-Serif" font-size="10.00">tuple</text>
</a>
</g>
</g>
<!-- Node1&#45;&gt;Node3 -->
<g id="edge2" class="edge">
<title>Node1&#45;&gt;Node3</title>
<path fill="none" stroke="midnightblue" d="M794.64,-391.36C778.92,-382.74 760.47,-370.41 748,-355 718.62,-318.68 733.92,-297.12 710,-257 702.52,-244.45 691.9,-231.94 683.08,-222.51"/>
<polygon fill="midnightblue" stroke="midnightblue" points="685.38,-219.86 675.92,-215.09 680.35,-224.72 685.38,-219.86"/>
</g>
<!-- Node4 -->
<g id="node4" class="node">
<title>Node4</title>
<g id="a_node4"><a xlink:href="Integrator_8h.html" target="_top" xlink:title=" ">
<polygon fill="none" stroke="black" points="450,-324.5 450,-354.5 586,-354.5 586,-324.5 450,-324.5"/>
<text text-anchor="start" x="458" y="-342.5" font-family="Helvetica,sans-Serif" font-size="10.00">BipedalLocomotion/System</text>
<text text-anchor="middle" x="518" y="-331.5" font-family="Helvetica,sans-Serif" font-size="10.00">/Integrator.h</text>
</a>
</g>
</g>
<!-- Node1&#45;&gt;Node4 -->
<g id="edge3" class="edge">
<title>Node1&#45;&gt;Node4</title>
<path fill="none" stroke="midnightblue" d="M758.76,-391.48C710.43,-381.24 644.8,-367.35 594.28,-356.65"/>
<polygon fill="midnightblue" stroke="midnightblue" points="594.89,-353.2 584.38,-354.55 593.44,-360.05 594.89,-353.2"/>
</g>
<!-- Node20 -->
<g id="node20" class="node">
<title>Node20</title>
<g id="a_node20"><a xlink:href="FixedStepIntegrator_8tpp.html" target="_top" xlink:title=" ">
<polygon fill="none" stroke="black" points="757,-324.5 757,-354.5 893,-354.5 893,-324.5 757,-324.5"/>
<text text-anchor="start" x="765" y="-342.5" font-family="Helvetica,sans-Serif" font-size="10.00">BipedalLocomotion/System</text>
<text text-anchor="middle" x="825" y="-331.5" font-family="Helvetica,sans-Serif" font-size="10.00">/FixedStepIntegrator.tpp</text>
</a>
</g>
</g>
<!-- Node1&#45;&gt;Node20 -->
<g id="edge31" class="edge">
<title>Node1&#45;&gt;Node20</title>
<path fill="none" stroke="midnightblue" d="M819.32,-391.4C818.29,-383.56 818.01,-373.6 818.46,-364.57"/>
<polygon fill="midnightblue" stroke="midnightblue" points="821.95,-364.84 819.33,-354.58 814.97,-364.24 821.95,-364.84"/>
</g>
<!-- Node4&#45;&gt;Node2 -->
<g id="edge4" class="edge">
<title>Node4&#45;&gt;Node2</title>
<path fill="none" stroke="midnightblue" d="M520.11,-324.31C522.61,-308 527.07,-280.46 532,-257 544.88,-195.76 563.91,-124.05 572.92,-90.95"/>
<polygon fill="midnightblue" stroke="midnightblue" points="576.3,-91.85 575.56,-81.28 569.55,-90 576.3,-91.85"/>
</g>
<!-- Node4&#45;&gt;Node3 -->
<g id="edge5" class="edge">
<title>Node4&#45;&gt;Node3</title>
<path fill="none" stroke="midnightblue" d="M521.34,-324.35C526.2,-306.55 536.81,-276.01 556,-257 578.77,-234.44 613.42,-220.91 637.94,-213.61"/>
<polygon fill="midnightblue" stroke="midnightblue" points="639.08,-216.92 647.77,-210.85 637.19,-210.18 639.08,-216.92"/>
</g>
<!-- Node5 -->
<g id="node5" class="node">
<title>Node5</title>
<g id="a_node5"><a xlink:href="TemplateHelpers_8h_source.html" target="_top" xlink:title=" ">
<polygon fill="none" stroke="black" points="41.5,-56.5 41.5,-86.5 184.5,-86.5 184.5,-56.5 41.5,-56.5"/>
<text text-anchor="start" x="49.5" y="-74.5" font-family="Helvetica,sans-Serif" font-size="10.00">BipedalLocomotion/Generic</text>
<text text-anchor="middle" x="113" y="-63.5" font-family="Helvetica,sans-Serif" font-size="10.00">Container/TemplateHelpers.h</text>
</a>
</g>
</g>
<!-- Node4&#45;&gt;Node5 -->
<g id="edge6" class="edge">
<title>Node4&#45;&gt;Node5</title>
<path fill="none" stroke="midnightblue" d="M449.76,-328.55C346.19,-311.87 157.17,-274.74 118,-221 91.38,-184.48 98.85,-128.4 106.22,-96.63"/>
<polygon fill="midnightblue" stroke="midnightblue" points="109.64,-97.4 108.67,-86.85 102.85,-95.7 109.64,-97.4"/>
</g>
<!-- Node9 -->
<g id="node9" class="node">
<title>Node9</title>
<g id="a_node9"><a xlink:href="IParametersHandler_8h.html" target="_top" xlink:title=" ">
<polygon fill="none" stroke="black" points="127,-190.5 127,-220.5 279,-220.5 279,-190.5 127,-190.5"/>
<text text-anchor="start" x="135" y="-208.5" font-family="Helvetica,sans-Serif" font-size="10.00">BipedalLocomotion/Parameters</text>
<text text-anchor="middle" x="203" y="-197.5" font-family="Helvetica,sans-Serif" font-size="10.00">Handler/IParametersHandler.h</text>
</a>
</g>
</g>
<!-- Node4&#45;&gt;Node9 -->
<g id="edge10" class="edge">
<title>Node4&#45;&gt;Node9</title>
<path fill="none" stroke="midnightblue" d="M449.96,-326.3C412.39,-318.17 365.48,-305.69 326,-288 289.77,-271.77 252.33,-245.32 228.42,-226.98"/>
<polygon fill="midnightblue" stroke="midnightblue" points="230.3,-224 220.25,-220.62 226,-229.52 230.3,-224"/>
</g>
<!-- Node17 -->
<g id="node17" class="node">
<title>Node17</title>
<g id="a_node17"><a xlink:href="DynamicalSystem_8h.html" target="_top" xlink:title=" ">
<polygon fill="none" stroke="black" points="335,-257.5 335,-287.5 471,-287.5 471,-257.5 335,-257.5"/>
<text text-anchor="start" x="343" y="-275.5" font-family="Helvetica,sans-Serif" font-size="10.00">BipedalLocomotion/System</text>
<text text-anchor="middle" x="403" y="-264.5" font-family="Helvetica,sans-Serif" font-size="10.00">/DynamicalSystem.h</text>
</a>
</g>
</g>
<!-- Node4&#45;&gt;Node17 -->
<g id="edge22" class="edge">
<title>Node4&#45;&gt;Node17</title>
<path fill="none" stroke="midnightblue" d="M493.05,-324.4C476.62,-315.11 454.91,-302.84 436.92,-292.67"/>
<polygon fill="midnightblue" stroke="midnightblue" points="438.33,-289.45 427.9,-287.58 434.89,-295.54 438.33,-289.45"/>
</g>
<!-- Node19 -->
<g id="node19" class="node">
<title>Node19</title>
<g id="a_node19"><a xlink:href="Integrator_8tpp.html" target="_top" xlink:title=" ">
<polygon fill="none" stroke="black" points="565,-257.5 565,-287.5 701,-287.5 701,-257.5 565,-257.5"/>
<text text-anchor="start" x="573" y="-275.5" font-family="Helvetica,sans-Serif" font-size="10.00">BipedalLocomotion/System</text>
<text text-anchor="middle" x="633" y="-264.5" font-family="Helvetica,sans-Serif" font-size="10.00">/Integrator.tpp</text>
</a>
</g>
</g>
<!-- Node4&#45;&gt;Node19 -->
<g id="edge29" class="edge">
<title>Node4&#45;&gt;Node19</title>
<path fill="none" stroke="midnightblue" d="M537.27,-324.4C552.62,-315.03 574.41,-302.62 593.38,-292.39"/>
<polygon fill="midnightblue" stroke="midnightblue" points="595.24,-295.37 602.42,-287.58 591.95,-289.19 595.24,-295.37"/>
</g>
<!-- Node6 -->
<g id="node6" class="node">
<title>Node6</title>
<g id="a_node6"><a xlink:title=" ">
<polygon fill="none" stroke="#bfbfbf" points="0,-0.5 0,-19.5 62,-19.5 62,-0.5 0,-0.5"/>
<text text-anchor="middle" x="31" y="-7.5" font-family="Helvetica,sans-Serif" font-size="10.00">type_traits</text>
</a>
</g>
</g>
<!-- Node5&#45;&gt;Node6 -->
<g id="edge7" class="edge">
<title>Node5&#45;&gt;Node6</title>
<path fill="none" stroke="midnightblue" d="M93.57,-56.4C80.79,-47.13 64.11,-35.03 51.19,-25.65"/>
<polygon fill="midnightblue" stroke="midnightblue" points="53.08,-22.7 42.93,-19.66 48.97,-28.36 53.08,-22.7"/>
</g>
<!-- Node7 -->
<g id="node7" class="node">
<title>Node7</title>
<g id="a_node7"><a xlink:title=" ">
<polygon fill="none" stroke="#bfbfbf" points="80,-0.5 80,-19.5 146,-19.5 146,-0.5 80,-0.5"/>
<text text-anchor="middle" x="113" y="-7.5" font-family="Helvetica,sans-Serif" font-size="10.00">string_view</text>
</a>
</g>
</g>
<!-- Node5&#45;&gt;Node7 -->
<g id="edge8" class="edge">
<title>Node5&#45;&gt;Node7</title>
<path fill="none" stroke="midnightblue" d="M113,-56.4C113,-48.47 113,-38.46 113,-29.86"/>
<polygon fill="midnightblue" stroke="midnightblue" points="116.5,-29.66 113,-19.66 109.5,-29.66 116.5,-29.66"/>
</g>
<!-- Node8 -->
<g id="node8" class="node">
<title>Node8</title>
<g id="a_node8"><a xlink:title=" ">
<polygon fill="none" stroke="#bfbfbf" points="164.5,-0.5 164.5,-19.5 229.5,-19.5 229.5,-0.5 164.5,-0.5"/>
<text text-anchor="middle" x="197" y="-7.5" font-family="Helvetica,sans-Serif" font-size="10.00">Eigen/Core</text>
</a>
</g>
</g>
<!-- Node5&#45;&gt;Node8 -->
<g id="edge9" class="edge">
<title>Node5&#45;&gt;Node8</title>
<path fill="none" stroke="midnightblue" d="M132.91,-56.4C145.99,-47.13 163.08,-35.03 176.32,-25.65"/>
<polygon fill="midnightblue" stroke="midnightblue" points="178.64,-28.29 184.78,-19.66 174.59,-22.58 178.64,-28.29"/>
</g>
<!-- Node9&#45;&gt;Node2 -->
<g id="edge11" class="edge">
<title>Node9&#45;&gt;Node2</title>
<path fill="none" stroke="midnightblue" d="M279.09,-193.43C343.58,-183.38 430.61,-168.01 463,-154 484.62,-144.65 486.8,-136.65 506,-123 523.31,-110.69 543.07,-96.84 557.51,-86.77"/>
<polygon fill="midnightblue" stroke="midnightblue" points="559.54,-89.62 565.74,-81.03 555.53,-83.88 559.54,-89.62"/>
</g>
<!-- Node9&#45;&gt;Node5 -->
<g id="edge21" class="edge">
<title>Node9&#45;&gt;Node5</title>
<path fill="none" stroke="midnightblue" d="M215.39,-190.29C228.68,-173.24 246.09,-144.29 232,-123 222.32,-108.37 207.45,-97.97 191.48,-90.58"/>
<polygon fill="midnightblue" stroke="midnightblue" points="192.55,-87.23 181.97,-86.56 189.82,-93.68 192.55,-87.23"/>
</g>
<!-- Node10 -->
<g id="node10" class="node">
<title>Node10</title>
<g id="a_node10"><a xlink:title=" ">
<polygon fill="none" stroke="#bfbfbf" points="182.5,-129 182.5,-148 223.5,-148 223.5,-129 182.5,-129"/>
<text text-anchor="middle" x="203" y="-136" font-family="Helvetica,sans-Serif" font-size="10.00">string</text>
</a>
</g>
</g>
<!-- Node9&#45;&gt;Node10 -->
<g id="edge12" class="edge">
<title>Node9&#45;&gt;Node10</title>
<path fill="none" stroke="midnightblue" d="M203,-190.4C203,-181.06 203,-168.71 203,-158.52"/>
<polygon fill="midnightblue" stroke="midnightblue" points="206.5,-158.19 203,-148.19 199.5,-158.19 206.5,-158.19"/>
</g>
<!-- Node11 -->
<g id="node11" class="node">
<title>Node11</title>
<g id="a_node11"><a xlink:title=" ">
<polygon fill="none" stroke="#bfbfbf" points="120,-129 120,-148 164,-148 164,-129 120,-129"/>
<text text-anchor="middle" x="142" y="-136" font-family="Helvetica,sans-Serif" font-size="10.00">vector</text>
</a>
</g>
</g>
<!-- Node9&#45;&gt;Node11 -->
<g id="edge13" class="edge">
<title>Node9&#45;&gt;Node11</title>
<path fill="none" stroke="midnightblue" d="M189.76,-190.4C180.16,-180.16 167.15,-166.3 157.13,-155.62"/>
<polygon fill="midnightblue" stroke="midnightblue" points="159.55,-153.09 150.16,-148.19 154.45,-157.88 159.55,-153.09"/>
</g>
<!-- Node12 -->
<g id="node12" class="node">
<title>Node12</title>
<g id="a_node12"><a xlink:href="Vector_8h_source.html" target="_top" xlink:title=" ">
<polygon fill="none" stroke="black" points="318,-123.5 318,-153.5 454,-153.5 454,-123.5 318,-123.5"/>
<text text-anchor="start" x="326" y="-141.5" font-family="Helvetica,sans-Serif" font-size="10.00">BipedalLocomotion/Generic</text>
<text text-anchor="middle" x="386" y="-130.5" font-family="Helvetica,sans-Serif" font-size="10.00">Container/Vector.h</text>
</a>
</g>
</g>
<!-- Node9&#45;&gt;Node12 -->
<g id="edge14" class="edge">
<title>Node9&#45;&gt;Node12</title>
<path fill="none" stroke="midnightblue" d="M242.71,-190.4C270.29,-180.6 307.22,-167.48 336.69,-157.02"/>
<polygon fill="midnightblue" stroke="midnightblue" points="338.12,-160.22 346.37,-153.58 335.77,-153.63 338.12,-160.22"/>
</g>
<!-- Node12&#45;&gt;Node2 -->
<g id="edge20" class="edge">
<title>Node12&#45;&gt;Node2</title>
<path fill="none" stroke="midnightblue" d="M433.06,-123.46C464.42,-113.84 506.45,-100.42 543,-87 544.85,-86.32 546.75,-85.6 548.66,-84.86"/>
<polygon fill="midnightblue" stroke="midnightblue" points="550.14,-88.04 558.12,-81.06 547.54,-81.54 550.14,-88.04"/>
</g>
<!-- Node12&#45;&gt;Node5 -->
<g id="edge16" class="edge">
<title>Node12&#45;&gt;Node5</title>
<path fill="none" stroke="midnightblue" d="M327.1,-123.48C284.55,-113.34 226.93,-99.63 182.19,-88.97"/>
<polygon fill="midnightblue" stroke="midnightblue" points="182.8,-85.52 172.27,-86.61 181.18,-92.33 182.8,-85.52"/>
</g>
<!-- Node13 -->
<g id="node13" class="node">
<title>Node13</title>
<g id="a_node13"><a xlink:title=" ">
<polygon fill="none" stroke="#bfbfbf" points="203,-62 203,-81 317,-81 317,-62 203,-62"/>
<text text-anchor="middle" x="260" y="-69" font-family="Helvetica,sans-Serif" font-size="10.00">iDynTree/Core/Span.h</text>
</a>
</g>
</g>
<!-- Node12&#45;&gt;Node13 -->
<g id="edge15" class="edge">
<title>Node12&#45;&gt;Node13</title>
<path fill="none" stroke="midnightblue" d="M358.66,-123.4C336.94,-112.19 306.8,-96.64 285.56,-85.69"/>
<polygon fill="midnightblue" stroke="midnightblue" points="286.98,-82.48 276.49,-81.01 283.77,-88.7 286.98,-82.48"/>
</g>
<!-- Node14 -->
<g id="node14" class="node">
<title>Node14</title>
<g id="a_node14"><a xlink:title=" ">
<polygon fill="none" stroke="#bfbfbf" points="335.5,-62 335.5,-81 394.5,-81 394.5,-62 335.5,-62"/>
<text text-anchor="middle" x="365" y="-69" font-family="Helvetica,sans-Serif" font-size="10.00">functional</text>
</a>
</g>
</g>
<!-- Node12&#45;&gt;Node14 -->
<g id="edge17" class="edge">
<title>Node12&#45;&gt;Node14</title>
<path fill="none" stroke="midnightblue" d="M381.44,-123.4C378.36,-113.86 374.27,-101.18 370.93,-90.86"/>
<polygon fill="midnightblue" stroke="midnightblue" points="374.21,-89.63 367.81,-81.19 367.55,-91.79 374.21,-89.63"/>
</g>
<!-- Node15 -->
<g id="node15" class="node">
<title>Node15</title>
<g id="a_node15"><a xlink:title=" ">
<polygon fill="none" stroke="#bfbfbf" points="412.5,-62 412.5,-81 461.5,-81 461.5,-62 412.5,-62"/>
<text text-anchor="middle" x="437" y="-69" font-family="Helvetica,sans-Serif" font-size="10.00">cassert</text>
</a>
</g>
</g>
<!-- Node12&#45;&gt;Node15 -->
<g id="edge18" class="edge">
<title>Node12&#45;&gt;Node15</title>
<path fill="none" stroke="midnightblue" d="M397.07,-123.4C404.94,-113.36 415.55,-99.84 423.85,-89.25"/>
<polygon fill="midnightblue" stroke="midnightblue" points="426.76,-91.22 430.18,-81.19 421.25,-86.9 426.76,-91.22"/>
</g>
<!-- Node16 -->
<g id="node16" class="node">
<title>Node16</title>
<g id="a_node16"><a xlink:title=" ">
<polygon fill="none" stroke="#bfbfbf" points="480,-62 480,-81 534,-81 534,-62 480,-62"/>
<text text-anchor="middle" x="507" y="-69" font-family="Helvetica,sans-Serif" font-size="10.00">iostream</text>
</a>
</g>
</g>
<!-- Node12&#45;&gt;Node16 -->
<g id="edge19" class="edge">
<title>Node12&#45;&gt;Node16</title>
<path fill="none" stroke="midnightblue" d="M412.26,-123.4C433.02,-112.24 461.8,-96.78 482.18,-85.83"/>
<polygon fill="midnightblue" stroke="midnightblue" points="484.01,-88.82 491.16,-81.01 480.7,-82.66 484.01,-88.82"/>
</g>
<!-- Node17&#45;&gt;Node2 -->
<g id="edge23" class="edge">
<title>Node17&#45;&gt;Node2</title>
<path fill="none" stroke="midnightblue" d="M430.29,-257.32C445.99,-248.31 465.43,-235.6 480,-221 516.75,-184.18 515.25,-166.35 544,-123 551.44,-111.79 559.89,-99.24 566.5,-89.45"/>
<polygon fill="midnightblue" stroke="midnightblue" points="569.48,-91.3 572.19,-81.05 563.68,-87.37 569.48,-91.3"/>
</g>
<!-- Node17&#45;&gt;Node3 -->
<g id="edge24" class="edge">
<title>Node17&#45;&gt;Node3</title>
<path fill="none" stroke="midnightblue" d="M459.96,-257.48C514.71,-244 595.26,-224.16 637.95,-213.65"/>
<polygon fill="midnightblue" stroke="midnightblue" points="638.83,-217.04 647.71,-211.25 637.16,-210.24 638.83,-217.04"/>
</g>
<!-- Node17&#45;&gt;Node5 -->
<g id="edge25" class="edge">
<title>Node17&#45;&gt;Node5</title>
<path fill="none" stroke="midnightblue" d="M377.25,-257.48C361.53,-248.25 341.55,-235.27 326,-221 285.19,-183.54 293.75,-155.64 249,-123 228.97,-108.39 204.23,-97.55 181.38,-89.74"/>
<polygon fill="midnightblue" stroke="midnightblue" points="182.3,-86.36 171.71,-86.57 180.13,-93.01 182.3,-86.36"/>
</g>
<!-- Node17&#45;&gt;Node9 -->
<g id="edge26" class="edge">
<title>Node17&#45;&gt;Node9</title>
<path fill="none" stroke="midnightblue" d="M359.6,-257.4C329.2,-247.52 288.39,-234.25 256.06,-223.74"/>
<polygon fill="midnightblue" stroke="midnightblue" points="256.9,-220.34 246.31,-220.58 254.74,-227 256.9,-220.34"/>
</g>
<!-- Node18 -->
<g id="node18" class="node">
<title>Node18</title>
<g id="a_node18"><a xlink:href="DynamicalSystem_8tpp.html" target="_top" xlink:title=" ">
<polygon fill="none" stroke="black" points="335,-190.5 335,-220.5 471,-220.5 471,-190.5 335,-190.5"/>
<text text-anchor="start" x="343" y="-208.5" font-family="Helvetica,sans-Serif" font-size="10.00">BipedalLocomotion/System</text>
<text text-anchor="middle" x="403" y="-197.5" font-family="Helvetica,sans-Serif" font-size="10.00">/DynamicalSystem.tpp</text>
</a>
</g>
</g>
<!-- Node17&#45;&gt;Node18 -->
<g id="edge27" class="edge">
<title>Node17&#45;&gt;Node18</title>
<path fill="none" stroke="midnightblue" d="M397.32,-257.4C396.29,-249.56 396.01,-239.6 396.46,-230.57"/>
<polygon fill="midnightblue" stroke="midnightblue" points="399.95,-230.84 397.33,-220.58 392.97,-230.24 399.95,-230.84"/>
</g>
<!-- Node18&#45;&gt;Node17 -->
<g id="edge28" class="edge">
<title>Node18&#45;&gt;Node17</title>
<path fill="none" stroke="midnightblue" d="M408.67,-220.58C409.7,-228.41 409.99,-238.37 409.55,-247.4"/>
<polygon fill="midnightblue" stroke="midnightblue" points="406.06,-247.13 408.68,-257.4 413.03,-247.74 406.06,-247.13"/>
</g>
<!-- Node19&#45;&gt;Node4 -->
<g id="edge30" class="edge">
<title>Node19&#45;&gt;Node4</title>
<path fill="none" stroke="midnightblue" d="M613.77,-287.58C598.43,-296.94 576.65,-309.35 557.68,-319.57"/>
<polygon fill="midnightblue" stroke="midnightblue" points="555.81,-316.6 548.63,-324.4 559.1,-322.78 555.81,-316.6"/>
</g>
<!-- Node20&#45;&gt;Node1 -->
<g id="edge35" class="edge">
<title>Node20&#45;&gt;Node1</title>
<path fill="none" stroke="midnightblue" d="M830.67,-354.58C831.7,-362.41 831.99,-372.37 831.55,-381.4"/>
<polygon fill="midnightblue" stroke="midnightblue" points="828.06,-381.13 830.68,-391.4 835.03,-381.74 828.06,-381.13"/>
</g>
<!-- Node20&#45;&gt;Node2 -->
<g id="edge33" class="edge">
<title>Node20&#45;&gt;Node2</title>
<path fill="none" stroke="midnightblue" d="M835.18,-324.27C845.86,-307.45 859.6,-278.97 848,-257 798.04,-162.35 675.26,-107.06 613.99,-84.47"/>
<polygon fill="midnightblue" stroke="midnightblue" points="614.95,-81.1 604.35,-81.01 612.58,-87.69 614.95,-81.1"/>
</g>
<!-- Node20&#45;&gt;Node3 -->
<g id="edge34" class="edge">
<title>Node20&#45;&gt;Node3</title>
<path fill="none" stroke="midnightblue" d="M812.41,-324.39C796.92,-307.43 769.44,-278.57 743,-257 726.33,-243.4 705.96,-230.01 690.5,-220.45"/>
<polygon fill="midnightblue" stroke="midnightblue" points="691.95,-217.23 681.59,-215.01 688.31,-223.21 691.95,-217.23"/>
</g>
<!-- Node21 -->
<g id="node21" class="node">
<title>Node21</title>
<g id="a_node21"><a xlink:title=" ">
<polygon fill="none" stroke="#bfbfbf" points="795,-263 795,-282 839,-282 839,-263 795,-263"/>
<text text-anchor="middle" x="817" y="-270" font-family="Helvetica,sans-Serif" font-size="10.00">cmath</text>
</a>
</g>
</g>
<!-- Node20&#45;&gt;Node21 -->
<g id="edge32" class="edge">
<title>Node20&#45;&gt;Node21</title>
<path fill="none" stroke="midnightblue" d="M823.26,-324.4C822.1,-314.96 820.56,-302.45 819.3,-292.19"/>
<polygon fill="midnightblue" stroke="midnightblue" points="822.77,-291.69 818.07,-282.19 815.82,-292.55 822.77,-291.69"/>
</g>
</g>
</svg>
