<?xml version="1.0" encoding="UTF-8" standalone="no"?>
<!DOCTYPE svg PUBLIC "-//W3C//DTD SVG 1.1//EN"
 "http://www.w3.org/Graphics/SVG/1.1/DTD/svg11.dtd">
<!-- Generated by graphviz version 2.43.0 (0)
 -->
<!-- Title: System/include/BipedalLocomotion/System/FixedStepIntegrator.tpp Pages: 1 -->
<svg width="888pt" height="497pt"
 viewBox="0.00 0.00 888.00 497.00" xmlns="http://www.w3.org/2000/svg" xmlns:xlink="http://www.w3.org/1999/xlink">
<g id="graph0" class="graph" transform="scale(1 1) rotate(0) translate(4 493)">
<title>System/include/BipedalLocomotion/System/FixedStepIntegrator.tpp</title>
<!-- Node1 -->
<g id="node1" class="node">
<title>Node1</title>
<g id="a_node1"><a xlink:title=" ">
<polygon fill="#bfbfbf" stroke="black" points="661,-458.5 661,-488.5 831,-488.5 831,-458.5 661,-458.5"/>
<text text-anchor="start" x="669" y="-476.5" font-family="Helvetica,sans-Serif" font-size="10.00">System/include/BipedalLocomotion</text>
<text text-anchor="middle" x="746" y="-465.5" font-family="Helvetica,sans-Serif" font-size="10.00">/System/FixedStepIntegrator.tpp</text>
</a>
</g>
</g>
<!-- Node2 -->
<g id="node2" class="node">
<title>Node2</title>
<g id="a_node2"><a xlink:title=" ">
<polygon fill="none" stroke="#bfbfbf" points="616,-397 616,-416 660,-416 660,-397 616,-397"/>
<text text-anchor="middle" x="638" y="-404" font-family="Helvetica,sans-Serif" font-size="10.00">cmath</text>
</a>
</g>
</g>
<!-- Node1&#45;&gt;Node2 -->
<g id="edge1" class="edge">
<title>Node1&#45;&gt;Node2</title>
<path fill="none" stroke="midnightblue" d="M722.57,-458.4C704.29,-447.39 679.04,-432.2 660.9,-421.28"/>
<polygon fill="midnightblue" stroke="midnightblue" points="662.51,-418.16 652.13,-416.01 658.9,-424.16 662.51,-418.16"/>
</g>
<!-- Node3 -->
<g id="node3" class="node">
<title>Node3</title>
<g id="a_node3"><a xlink:title=" ">
<polygon fill="none" stroke="#bfbfbf" points="552,-62 552,-81 604,-81 604,-62 552,-62"/>
<text text-anchor="middle" x="578" y="-69" font-family="Helvetica,sans-Serif" font-size="10.00">memory</text>
</a>
</g>
</g>
<!-- Node1&#45;&gt;Node3 -->
<g id="edge2" class="edge">
<title>Node1&#45;&gt;Node3</title>
<path fill="none" stroke="midnightblue" d="M782.94,-458.36C801.22,-449.94 822.62,-437.79 838,-422 866.43,-392.81 880,-381.25 880,-340.5 880,-340.5 880,-340.5 880,-204.5 880,-89.64 694.31,-73.75 614.14,-72.24"/>
<polygon fill="midnightblue" stroke="midnightblue" points="614.05,-68.74 604.01,-72.12 613.97,-75.74 614.05,-68.74"/>
</g>
<!-- Node4 -->
<g id="node4" class="node">
<title>Node4</title>
<g id="a_node4"><a xlink:title=" ">
<polygon fill="none" stroke="#bfbfbf" points="728,-196 728,-215 766,-215 766,-196 728,-196"/>
<text text-anchor="middle" x="747" y="-203" font-family="Helvetica,sans-Serif" font-size="10.00">tuple</text>
</a>
</g>
</g>
<!-- Node1&#45;&gt;Node4 -->
<g id="edge3" class="edge">
<title>Node1&#45;&gt;Node4</title>
<path fill="none" stroke="midnightblue" d="M781.99,-458.35C797.55,-450.22 814.19,-438.32 823,-422 829.55,-409.88 825.67,-404.52 823,-391 810.26,-326.6 774.74,-256.45 757.14,-224.35"/>
<polygon fill="midnightblue" stroke="midnightblue" points="760.04,-222.35 752.11,-215.32 753.92,-225.76 760.04,-222.35"/>
</g>
<!-- Node5 -->
<g id="node5" class="node">
<title>Node5</title>
<g id="a_node5"><a xlink:href="FixedStepIntegrator_8h.html" target="_top" xlink:title=" ">
<polygon fill="none" stroke="black" points="678,-391.5 678,-421.5 814,-421.5 814,-391.5 678,-391.5"/>
<text text-anchor="start" x="686" y="-409.5" font-family="Helvetica,sans-Serif" font-size="10.00">BipedalLocomotion/System</text>
<text text-anchor="middle" x="746" y="-398.5" font-family="Helvetica,sans-Serif" font-size="10.00">/FixedStepIntegrator.h</text>
</a>
</g>
</g>
<!-- Node1&#45;&gt;Node5 -->
<g id="edge4" class="edge">
<title>Node1&#45;&gt;Node5</title>
<path fill="none" stroke="midnightblue" d="M740.32,-458.4C739.29,-450.56 739.01,-440.6 739.46,-431.57"/>
<polygon fill="midnightblue" stroke="midnightblue" points="742.95,-431.84 740.33,-421.58 735.97,-431.24 742.95,-431.84"/>
</g>
<!-- Node5&#45;&gt;Node1 -->
<g id="edge35" class="edge">
<title>Node5&#45;&gt;Node1</title>
<path fill="none" stroke="midnightblue" d="M751.67,-421.58C752.7,-429.41 752.99,-439.37 752.55,-448.4"/>
<polygon fill="midnightblue" stroke="midnightblue" points="749.06,-448.13 751.68,-458.4 756.03,-448.74 749.06,-448.13"/>
</g>
<!-- Node5&#45;&gt;Node3 -->
<g id="edge5" class="edge">
<title>Node5&#45;&gt;Node3</title>
<path fill="none" stroke="midnightblue" d="M753.54,-391.26C771.63,-355 813.22,-257.29 775,-190 740.46,-129.19 660.61,-96.52 613.86,-81.99"/>
<polygon fill="midnightblue" stroke="midnightblue" points="614.72,-78.6 604.13,-79.08 612.71,-85.3 614.72,-78.6"/>
</g>
<!-- Node5&#45;&gt;Node4 -->
<g id="edge6" class="edge">
<title>Node5&#45;&gt;Node4</title>
<path fill="none" stroke="midnightblue" d="M746.07,-391.19C746.25,-355.99 746.71,-265.17 746.9,-225.51"/>
<polygon fill="midnightblue" stroke="midnightblue" points="750.41,-225.38 746.96,-215.36 743.41,-225.34 750.41,-225.38"/>
</g>
<!-- Node6 -->
<g id="node6" class="node">
<title>Node6</title>
<g id="a_node6"><a xlink:href="Integrator_8h.html" target="_top" xlink:title=" ">
<polygon fill="none" stroke="black" points="516,-324.5 516,-354.5 652,-354.5 652,-324.5 516,-324.5"/>
<text text-anchor="start" x="524" y="-342.5" font-family="Helvetica,sans-Serif" font-size="10.00">BipedalLocomotion/System</text>
<text text-anchor="middle" x="584" y="-331.5" font-family="Helvetica,sans-Serif" font-size="10.00">/Integrator.h</text>
</a>
</g>
</g>
<!-- Node5&#45;&gt;Node6 -->
<g id="edge7" class="edge">
<title>Node5&#45;&gt;Node6</title>
<path fill="none" stroke="midnightblue" d="M710.85,-391.4C686.75,-381.73 654.59,-368.82 628.68,-358.43"/>
<polygon fill="midnightblue" stroke="midnightblue" points="629.67,-355.05 619.08,-354.58 627.06,-361.55 629.67,-355.05"/>
</g>
<!-- Node6&#45;&gt;Node3 -->
<g id="edge8" class="edge">
<title>Node6&#45;&gt;Node3</title>
<path fill="none" stroke="midnightblue" d="M571.95,-324.34C559.25,-307.59 542.66,-279.18 555,-257 569.75,-230.49 598.25,-247.51 613,-221 619.7,-208.96 614.99,-203.63 613,-190 607.73,-153.82 593.77,-113.28 585.16,-90.53"/>
<polygon fill="midnightblue" stroke="midnightblue" points="588.4,-89.21 581.52,-81.15 581.87,-91.74 588.4,-89.21"/>
</g>
<!-- Node6&#45;&gt;Node4 -->
<g id="edge9" class="edge">
<title>Node6&#45;&gt;Node4</title>
<path fill="none" stroke="midnightblue" d="M643.92,-324.39C666.48,-316.67 691,-305.08 709,-288 727.09,-270.83 737.4,-243.35 742.6,-225.12"/>
<polygon fill="midnightblue" stroke="midnightblue" points="746,-225.93 745.14,-215.37 739.23,-224.16 746,-225.93"/>
</g>
<!-- Node7 -->
<g id="node7" class="node">
<title>Node7</title>
<g id="a_node7"><a xlink:href="TemplateHelpers_8h_source.html" target="_top" xlink:title=" ">
<polygon fill="none" stroke="black" points="41.5,-56.5 41.5,-86.5 184.5,-86.5 184.5,-56.5 41.5,-56.5"/>
<text text-anchor="start" x="49.5" y="-74.5" font-family="Helvetica,sans-Serif" font-size="10.00">BipedalLocomotion/Generic</text>
<text text-anchor="middle" x="113" y="-63.5" font-family="Helvetica,sans-Serif" font-size="10.00">Container/TemplateHelpers.h</text>
</a>
</g>
</g>
<!-- Node6&#45;&gt;Node7 -->
<g id="edge10" class="edge">
<title>Node6&#45;&gt;Node7</title>
<path fill="none" stroke="midnightblue" d="M515.7,-332.23C432.58,-321.59 291.4,-293.53 195,-221 163.53,-197.32 155.88,-188.56 137,-154 127.2,-136.05 120.97,-113.64 117.33,-96.87"/>
<polygon fill="midnightblue" stroke="midnightblue" points="120.7,-95.87 115.29,-86.76 113.83,-97.25 120.7,-95.87"/>
</g>
<!-- Node11 -->
<g id="node11" class="node">
<title>Node11</title>
<g id="a_node11"><a xlink:href="IParametersHandler_8h.html" target="_top" xlink:title=" ">
<polygon fill="none" stroke="black" points="260,-190.5 260,-220.5 412,-220.5 412,-190.5 260,-190.5"/>
<text text-anchor="start" x="268" y="-208.5" font-family="Helvetica,sans-Serif" font-size="10.00">BipedalLocomotion/Parameters</text>
<text text-anchor="middle" x="336" y="-197.5" font-family="Helvetica,sans-Serif" font-size="10.00">Handler/IParametersHandler.h</text>
</a>
</g>
</g>
<!-- Node6&#45;&gt;Node11 -->
<g id="edge14" class="edge">
<title>Node6&#45;&gt;Node11</title>
<path fill="none" stroke="midnightblue" d="M515.73,-330.31C459.38,-322.24 385.21,-308.19 363,-288 346.86,-273.33 340.35,-248.82 337.74,-230.49"/>
<polygon fill="midnightblue" stroke="midnightblue" points="341.21,-230.08 336.6,-220.54 334.26,-230.88 341.21,-230.08"/>
</g>
<!-- Node19 -->
<g id="node19" class="node">
<title>Node19</title>
<g id="a_node19"><a xlink:href="DynamicalSystem_8h.html" target="_top" xlink:title=" ">
<polygon fill="none" stroke="black" points="372,-257.5 372,-287.5 508,-287.5 508,-257.5 372,-257.5"/>
<text text-anchor="start" x="380" y="-275.5" font-family="Helvetica,sans-Serif" font-size="10.00">BipedalLocomotion/System</text>
<text text-anchor="middle" x="440" y="-264.5" font-family="Helvetica,sans-Serif" font-size="10.00">/DynamicalSystem.h</text>
</a>
</g>
</g>
<!-- Node6&#45;&gt;Node19 -->
<g id="edge26" class="edge">
<title>Node6&#45;&gt;Node19</title>
<path fill="none" stroke="midnightblue" d="M552.75,-324.4C531.53,-314.81 503.25,-302.05 480.32,-291.7"/>
<polygon fill="midnightblue" stroke="midnightblue" points="481.74,-288.5 471.18,-287.58 478.86,-294.88 481.74,-288.5"/>
</g>
<!-- Node21 -->
<g id="node21" class="node">
<title>Node21</title>
<g id="a_node21"><a xlink:href="Integrator_8tpp.html" target="_top" xlink:title=" ">
<polygon fill="none" stroke="black" points="564,-257.5 564,-287.5 700,-287.5 700,-257.5 564,-257.5"/>
<text text-anchor="start" x="572" y="-275.5" font-family="Helvetica,sans-Serif" font-size="10.00">BipedalLocomotion/System</text>
<text text-anchor="middle" x="632" y="-264.5" font-family="Helvetica,sans-Serif" font-size="10.00">/Integrator.tpp</text>
</a>
</g>
</g>
<!-- Node6&#45;&gt;Node21 -->
<g id="edge33" class="edge">
<title>Node6&#45;&gt;Node21</title>
<path fill="none" stroke="midnightblue" d="M588.74,-324.4C593.86,-315.96 601.65,-305.07 609.31,-295.52"/>
<polygon fill="midnightblue" stroke="midnightblue" points="612.22,-297.5 615.93,-287.58 606.84,-293.02 612.22,-297.5"/>
</g>
<!-- Node8 -->
<g id="node8" class="node">
<title>Node8</title>
<g id="a_node8"><a xlink:title=" ">
<polygon fill="none" stroke="#bfbfbf" points="0,-0.5 0,-19.5 62,-19.5 62,-0.5 0,-0.5"/>
<text text-anchor="middle" x="31" y="-7.5" font-family="Helvetica,sans-Serif" font-size="10.00">type_traits</text>
</a>
</g>
</g>
<!-- Node7&#45;&gt;Node8 -->
<g id="edge11" class="edge">
<title>Node7&#45;&gt;Node8</title>
<path fill="none" stroke="midnightblue" d="M93.57,-56.4C80.79,-47.13 64.11,-35.03 51.19,-25.65"/>
<polygon fill="midnightblue" stroke="midnightblue" points="53.08,-22.7 42.93,-19.66 48.97,-28.36 53.08,-22.7"/>
</g>
<!-- Node9 -->
<g id="node9" class="node">
<title>Node9</title>
<g id="a_node9"><a xlink:title=" ">
<polygon fill="none" stroke="#bfbfbf" points="80,-0.5 80,-19.5 146,-19.5 146,-0.5 80,-0.5"/>
<text text-anchor="middle" x="113" y="-7.5" font-family="Helvetica,sans-Serif" font-size="10.00">string_view</text>
</a>
</g>
</g>
<!-- Node7&#45;&gt;Node9 -->
<g id="edge12" class="edge">
<title>Node7&#45;&gt;Node9</title>
<path fill="none" stroke="midnightblue" d="M113,-56.4C113,-48.47 113,-38.46 113,-29.86"/>
<polygon fill="midnightblue" stroke="midnightblue" points="116.5,-29.66 113,-19.66 109.5,-29.66 116.5,-29.66"/>
</g>
<!-- Node10 -->
<g id="node10" class="node">
<title>Node10</title>
<g id="a_node10"><a xlink:title=" ">
<polygon fill="none" stroke="#bfbfbf" points="164.5,-0.5 164.5,-19.5 229.5,-19.5 229.5,-0.5 164.5,-0.5"/>
<text text-anchor="middle" x="197" y="-7.5" font-family="Helvetica,sans-Serif" font-size="10.00">Eigen/Core</text>
</a>
</g>
</g>
<!-- Node7&#45;&gt;Node10 -->
<g id="edge13" class="edge">
<title>Node7&#45;&gt;Node10</title>
<path fill="none" stroke="midnightblue" d="M132.91,-56.4C145.99,-47.13 163.08,-35.03 176.32,-25.65"/>
<polygon fill="midnightblue" stroke="midnightblue" points="178.64,-28.29 184.78,-19.66 174.59,-22.58 178.64,-28.29"/>
</g>
<!-- Node11&#45;&gt;Node3 -->
<g id="edge15" class="edge">
<title>Node11&#45;&gt;Node3</title>
<path fill="none" stroke="midnightblue" d="M391.82,-190.49C419.94,-182.14 453.93,-170.02 482,-154 498.83,-144.4 538.37,-109.03 561.11,-88.17"/>
<polygon fill="midnightblue" stroke="midnightblue" points="563.67,-90.57 568.65,-81.22 558.93,-85.42 563.67,-90.57"/>
</g>
<!-- Node11&#45;&gt;Node7 -->
<g id="edge25" class="edge">
<title>Node11&#45;&gt;Node7</title>
<path fill="none" stroke="midnightblue" d="M288.43,-190.48C262.98,-181.9 231.67,-169.57 206,-154 178.21,-137.15 150.77,-111.73 132.98,-93.77"/>
<polygon fill="midnightblue" stroke="midnightblue" points="135.46,-91.3 125.97,-86.57 130.44,-96.18 135.46,-91.3"/>
</g>
<!-- Node12 -->
<g id="node12" class="node">
<title>Node12</title>
<g id="a_node12"><a xlink:title=" ">
<polygon fill="none" stroke="#bfbfbf" points="369.5,-129 369.5,-148 410.5,-148 410.5,-129 369.5,-129"/>
<text text-anchor="middle" x="390" y="-136" font-family="Helvetica,sans-Serif" font-size="10.00">string</text>
</a>
</g>
</g>
<!-- Node11&#45;&gt;Node12 -->
<g id="edge16" class="edge">
<title>Node11&#45;&gt;Node12</title>
<path fill="none" stroke="midnightblue" d="M347.72,-190.4C356.14,-180.26 367.51,-166.57 376.34,-155.94"/>
<polygon fill="midnightblue" stroke="midnightblue" points="379.08,-158.12 382.78,-148.19 373.69,-153.65 379.08,-158.12"/>
</g>
<!-- Node13 -->
<g id="node13" class="node">
<title>Node13</title>
<g id="a_node13"><a xlink:title=" ">
<polygon fill="none" stroke="#bfbfbf" points="429,-129 429,-148 473,-148 473,-129 429,-129"/>
<text text-anchor="middle" x="451" y="-136" font-family="Helvetica,sans-Serif" font-size="10.00">vector</text>
</a>
</g>
</g>
<!-- Node11&#45;&gt;Node13 -->
<g id="edge17" class="edge">
<title>Node11&#45;&gt;Node13</title>
<path fill="none" stroke="midnightblue" d="M360.95,-190.4C380.6,-179.29 407.79,-163.92 427.15,-152.98"/>
<polygon fill="midnightblue" stroke="midnightblue" points="428.97,-155.97 435.95,-148.01 425.52,-149.88 428.97,-155.97"/>
</g>
<!-- Node14 -->
<g id="node14" class="node">
<title>Node14</title>
<g id="a_node14"><a xlink:href="Vector_8h_source.html" target="_top" xlink:title=" ">
<polygon fill="none" stroke="black" points="215,-123.5 215,-153.5 351,-153.5 351,-123.5 215,-123.5"/>
<text text-anchor="start" x="223" y="-141.5" font-family="Helvetica,sans-Serif" font-size="10.00">BipedalLocomotion/Generic</text>
<text text-anchor="middle" x="283" y="-130.5" font-family="Helvetica,sans-Serif" font-size="10.00">Container/Vector.h</text>
</a>
</g>
</g>
<!-- Node11&#45;&gt;Node14 -->
<g id="edge18" class="edge">
<title>Node11&#45;&gt;Node14</title>
<path fill="none" stroke="midnightblue" d="M324.5,-190.4C317.62,-181.96 308.74,-171.07 300.96,-161.52"/>
<polygon fill="midnightblue" stroke="midnightblue" points="303.51,-159.11 294.48,-153.58 298.08,-163.54 303.51,-159.11"/>
</g>
<!-- Node14&#45;&gt;Node3 -->
<g id="edge24" class="edge">
<title>Node14&#45;&gt;Node3</title>
<path fill="none" stroke="midnightblue" d="M351.16,-124.54C424.76,-110.5 532.8,-89.72 542,-87 544.43,-86.28 546.92,-85.46 549.41,-84.58"/>
<polygon fill="midnightblue" stroke="midnightblue" points="550.7,-87.84 558.81,-81.01 548.22,-81.29 550.7,-87.84"/>
</g>
<!-- Node14&#45;&gt;Node7 -->
<g id="edge20" class="edge">
<title>Node14&#45;&gt;Node7</title>
<path fill="none" stroke="midnightblue" d="M246.11,-123.4C220.61,-113.64 186.48,-100.59 159.17,-90.15"/>
<polygon fill="midnightblue" stroke="midnightblue" points="160.41,-86.88 149.82,-86.58 157.91,-93.42 160.41,-86.88"/>
</g>
<!-- Node15 -->
<g id="node15" class="node">
<title>Node15</title>
<g id="a_node15"><a xlink:title=" ">
<polygon fill="none" stroke="#bfbfbf" points="419,-62 419,-81 533,-81 533,-62 419,-62"/>
<text text-anchor="middle" x="476" y="-69" font-family="Helvetica,sans-Serif" font-size="10.00">iDynTree/Core/Span.h</text>
</a>
</g>
</g>
<!-- Node14&#45;&gt;Node15 -->
<g id="edge19" class="edge">
<title>Node14&#45;&gt;Node15</title>
<path fill="none" stroke="midnightblue" d="M324.88,-123.4C359.64,-111.69 408.51,-95.23 441.16,-84.23"/>
<polygon fill="midnightblue" stroke="midnightblue" points="442.38,-87.52 450.74,-81.01 440.15,-80.88 442.38,-87.52"/>
</g>
<!-- Node16 -->
<g id="node16" class="node">
<title>Node16</title>
<g id="a_node16"><a xlink:title=" ">
<polygon fill="none" stroke="#bfbfbf" points="202.5,-62 202.5,-81 261.5,-81 261.5,-62 202.5,-62"/>
<text text-anchor="middle" x="232" y="-69" font-family="Helvetica,sans-Serif" font-size="10.00">functional</text>
</a>
</g>
</g>
<!-- Node14&#45;&gt;Node16 -->
<g id="edge21" class="edge">
<title>Node14&#45;&gt;Node16</title>
<path fill="none" stroke="midnightblue" d="M271.93,-123.4C264.06,-113.36 253.45,-99.84 245.15,-89.25"/>
<polygon fill="midnightblue" stroke="midnightblue" points="247.75,-86.9 238.82,-81.19 242.24,-91.22 247.75,-86.9"/>
</g>
<!-- Node17 -->
<g id="node17" class="node">
<title>Node17</title>
<g id="a_node17"><a xlink:title=" ">
<polygon fill="none" stroke="#bfbfbf" points="279.5,-62 279.5,-81 328.5,-81 328.5,-62 279.5,-62"/>
<text text-anchor="middle" x="304" y="-69" font-family="Helvetica,sans-Serif" font-size="10.00">cassert</text>
</a>
</g>
</g>
<!-- Node14&#45;&gt;Node17 -->
<g id="edge22" class="edge">
<title>Node14&#45;&gt;Node17</title>
<path fill="none" stroke="midnightblue" d="M287.56,-123.4C290.64,-113.86 294.73,-101.18 298.07,-90.86"/>
<polygon fill="midnightblue" stroke="midnightblue" points="301.45,-91.79 301.19,-81.19 294.79,-89.63 301.45,-91.79"/>
</g>
<!-- Node18 -->
<g id="node18" class="node">
<title>Node18</title>
<g id="a_node18"><a xlink:title=" ">
<polygon fill="none" stroke="#bfbfbf" points="347,-62 347,-81 401,-81 401,-62 347,-62"/>
<text text-anchor="middle" x="374" y="-69" font-family="Helvetica,sans-Serif" font-size="10.00">iostream</text>
</a>
</g>
</g>
<!-- Node14&#45;&gt;Node18 -->
<g id="edge23" class="edge">
<title>Node14&#45;&gt;Node18</title>
<path fill="none" stroke="midnightblue" d="M302.75,-123.4C317.86,-112.6 338.64,-97.76 353.86,-86.89"/>
<polygon fill="midnightblue" stroke="midnightblue" points="355.99,-89.67 362.09,-81.01 351.92,-83.97 355.99,-89.67"/>
</g>
<!-- Node19&#45;&gt;Node3 -->
<g id="edge27" class="edge">
<title>Node19&#45;&gt;Node3</title>
<path fill="none" stroke="midnightblue" d="M440.16,-257.23C441.01,-239.85 444.68,-210.3 459,-190 476.05,-165.82 493.19,-174 515,-154 536.24,-134.52 555.71,-107.27 567.21,-89.75"/>
<polygon fill="midnightblue" stroke="midnightblue" points="570.29,-91.44 572.75,-81.13 564.4,-87.65 570.29,-91.44"/>
</g>
<!-- Node19&#45;&gt;Node4 -->
<g id="edge28" class="edge">
<title>Node19&#45;&gt;Node4</title>
<path fill="none" stroke="midnightblue" d="M506.24,-257.48C571.95,-243.56 669.61,-222.88 717.86,-212.67"/>
<polygon fill="midnightblue" stroke="midnightblue" points="718.87,-216.03 727.92,-210.54 717.42,-209.19 718.87,-216.03"/>
</g>
<!-- Node19&#45;&gt;Node7 -->
<g id="edge29" class="edge">
<title>Node19&#45;&gt;Node7</title>
<path fill="none" stroke="midnightblue" d="M371.68,-259.95C334.71,-252.07 288.97,-239.62 251,-221 206.86,-199.36 195.97,-190.46 163,-154 147.08,-136.4 133.35,-113.04 124.33,-95.85"/>
<polygon fill="midnightblue" stroke="midnightblue" points="127.24,-93.85 119.58,-86.52 121,-97.02 127.24,-93.85"/>
</g>
<!-- Node19&#45;&gt;Node11 -->
<g id="edge30" class="edge">
<title>Node19&#45;&gt;Node11</title>
<path fill="none" stroke="midnightblue" d="M417.43,-257.4C402.71,-248.2 383.31,-236.07 367.13,-225.95"/>
<polygon fill="midnightblue" stroke="midnightblue" points="368.86,-222.91 358.52,-220.58 365.15,-228.84 368.86,-222.91"/>
</g>
<!-- Node20 -->
<g id="node20" class="node">
<title>Node20</title>
<g id="a_node20"><a xlink:href="DynamicalSystem_8tpp.html" target="_top" xlink:title=" ">
<polygon fill="none" stroke="black" points="468,-190.5 468,-220.5 604,-220.5 604,-190.5 468,-190.5"/>
<text text-anchor="start" x="476" y="-208.5" font-family="Helvetica,sans-Serif" font-size="10.00">BipedalLocomotion/System</text>
<text text-anchor="middle" x="536" y="-197.5" font-family="Helvetica,sans-Serif" font-size="10.00">/DynamicalSystem.tpp</text>
</a>
</g>
</g>
<!-- Node19&#45;&gt;Node20 -->
<g id="edge31" class="edge">
<title>Node19&#45;&gt;Node20</title>
<path fill="none" stroke="midnightblue" d="M455.15,-257.4C467.53,-248.2 485.26,-236.07 501.03,-225.95"/>
<polygon fill="midnightblue" stroke="midnightblue" points="502.95,-228.88 509.54,-220.58 499.21,-222.96 502.95,-228.88"/>
</g>
<!-- Node20&#45;&gt;Node19 -->
<g id="edge32" class="edge">
<title>Node20&#45;&gt;Node19</title>
<path fill="none" stroke="midnightblue" d="M520.88,-220.58C508.52,-229.77 490.79,-241.9 475.02,-252.02"/>
<polygon fill="midnightblue" stroke="midnightblue" points="473.09,-249.09 466.51,-257.4 476.83,-255.01 473.09,-249.09"/>
</g>
<!-- Node21&#45;&gt;Node6 -->
<g id="edge34" class="edge">
<title>Node21&#45;&gt;Node6</title>
<path fill="none" stroke="midnightblue" d="M627.28,-287.58C622.16,-296 614.37,-306.9 606.72,-316.45"/>
<polygon fill="midnightblue" stroke="midnightblue" points="603.8,-314.47 600.09,-324.4 609.18,-318.95 603.8,-314.47"/>
</g>
</g>
</svg>
