<?xml version="1.0" encoding="UTF-8" standalone="no"?>
<!DOCTYPE svg PUBLIC "-//W3C//DTD SVG 1.1//EN"
 "http://www.w3.org/Graphics/SVG/1.1/DTD/svg11.dtd">
<!-- Generated by graphviz version 2.43.0 (0)
 -->
<!-- Title: Estimators/include/BipedalLocomotion/FloatingBaseEstimators/FloatingBaseEstimator.h Pages: 1 -->
<svg width="1161pt" height="318pt"
 viewBox="0.00 0.00 1160.50 318.00" xmlns="http://www.w3.org/2000/svg" xmlns:xlink="http://www.w3.org/1999/xlink">
<g id="graph0" class="graph" transform="scale(1 1) rotate(0) translate(4 314)">
<title>Estimators/include/BipedalLocomotion/FloatingBaseEstimators/FloatingBaseEstimator.h</title>
<!-- Node1 -->
<g id="node1" class="node">
<title>Node1</title>
<g id="a_node1"><a xlink:title=" ">
<polygon fill="#bfbfbf" stroke="black" points="434,-268.5 434,-309.5 630,-309.5 630,-268.5 434,-268.5"/>
<text text-anchor="start" x="442" y="-297.5" font-family="Helvetica,sans-Serif" font-size="10.00">Estimators/include</text>
<text text-anchor="start" x="442" y="-286.5" font-family="Helvetica,sans-Serif" font-size="10.00">/BipedalLocomotion/Floating</text>
<text text-anchor="middle" x="532" y="-275.5" font-family="Helvetica,sans-Serif" font-size="10.00">BaseEstimators/FloatingBaseEstimator.h</text>
</a>
</g>
</g>
<!-- Node2 -->
<g id="node2" class="node">
<title>Node2</title>
<g id="a_node2"><a xlink:href="Advanceable_8h.html" target="_top" xlink:title=" ">
<polygon fill="none" stroke="black" points="0,-196 0,-226 136,-226 136,-196 0,-196"/>
<text text-anchor="start" x="8" y="-214" font-family="Helvetica,sans-Serif" font-size="10.00">BipedalLocomotion/System</text>
<text text-anchor="middle" x="68" y="-203" font-family="Helvetica,sans-Serif" font-size="10.00">/Advanceable.h</text>
</a>
</g>
</g>
<!-- Node1&#45;&gt;Node2 -->
<g id="edge1" class="edge">
<title>Node1&#45;&gt;Node2</title>
<path fill="none" stroke="midnightblue" d="M433.83,-276.18C356.42,-266.24 245.89,-250.68 150,-232 144.29,-230.89 138.37,-229.64 132.46,-228.32"/>
<polygon fill="midnightblue" stroke="midnightblue" points="133.07,-224.87 122.54,-226.06 131.51,-231.7 133.07,-224.87"/>
</g>
<!-- Node3 -->
<g id="node3" class="node">
<title>Node3</title>
<g id="a_node3"><a xlink:href="IParametersHandler_8h.html" target="_top" xlink:title=" ">
<polygon fill="none" stroke="black" points="274,-196 274,-226 426,-226 426,-196 274,-196"/>
<text text-anchor="start" x="282" y="-214" font-family="Helvetica,sans-Serif" font-size="10.00">BipedalLocomotion/Parameters</text>
<text text-anchor="middle" x="350" y="-203" font-family="Helvetica,sans-Serif" font-size="10.00">Handler/IParametersHandler.h</text>
</a>
</g>
</g>
<!-- Node1&#45;&gt;Node3 -->
<g id="edge2" class="edge">
<title>Node1&#45;&gt;Node3</title>
<path fill="none" stroke="midnightblue" d="M485.13,-268.43C456.77,-256.59 420.87,-241.59 393.2,-230.04"/>
<polygon fill="midnightblue" stroke="midnightblue" points="394.36,-226.73 383.78,-226.11 391.66,-233.19 394.36,-226.73"/>
</g>
<!-- Node4 -->
<g id="node4" class="node">
<title>Node4</title>
<g id="a_node4"><a xlink:title=" ">
<polygon fill="none" stroke="#bfbfbf" points="109,-62 109,-81 161,-81 161,-62 109,-62"/>
<text text-anchor="middle" x="135" y="-69" font-family="Helvetica,sans-Serif" font-size="10.00">memory</text>
</a>
</g>
</g>
<!-- Node1&#45;&gt;Node4 -->
<g id="edge28" class="edge">
<title>Node1&#45;&gt;Node4</title>
<path fill="none" stroke="midnightblue" d="M433.91,-280.09C381.51,-272.82 317.24,-258.84 265,-232 219.39,-208.57 211.7,-194.3 180,-154 164.28,-134.01 150.88,-107.8 142.89,-90.58"/>
<polygon fill="midnightblue" stroke="midnightblue" points="145.94,-88.82 138.65,-81.14 139.56,-91.7 145.94,-88.82"/>
</g>
<!-- Node15 -->
<g id="node15" class="node">
<title>Node15</title>
<g id="a_node15"><a xlink:title=" ">
<polygon fill="none" stroke="#bfbfbf" points="618,-62 618,-81 672,-81 672,-62 618,-62"/>
<text text-anchor="middle" x="645" y="-69" font-family="Helvetica,sans-Serif" font-size="10.00">iostream</text>
</a>
</g>
</g>
<!-- Node1&#45;&gt;Node15 -->
<g id="edge27" class="edge">
<title>Node1&#45;&gt;Node15</title>
<path fill="none" stroke="midnightblue" d="M533.04,-268.37C534.74,-247.96 539.22,-215.48 551,-190 570.06,-148.79 606.56,-109.38 628.04,-88.32"/>
<polygon fill="midnightblue" stroke="midnightblue" points="630.69,-90.63 635.47,-81.18 625.84,-85.58 630.69,-90.63"/>
</g>
<!-- Node16 -->
<g id="node16" class="node">
<title>Node16</title>
<g id="a_node16"><a xlink:href="FloatingBaseEstimatorParams_8h.html" target="_top" xlink:title=" ">
<polygon fill="none" stroke="black" points="560,-190.5 560,-231.5 748,-231.5 748,-190.5 560,-190.5"/>
<text text-anchor="start" x="568" y="-219.5" font-family="Helvetica,sans-Serif" font-size="10.00">BipedalLocomotion/Floating</text>
<text text-anchor="start" x="568" y="-208.5" font-family="Helvetica,sans-Serif" font-size="10.00">BaseEstimators/FloatingBaseEstimator</text>
<text text-anchor="middle" x="654" y="-197.5" font-family="Helvetica,sans-Serif" font-size="10.00">Params.h</text>
</a>
</g>
</g>
<!-- Node1&#45;&gt;Node16 -->
<g id="edge17" class="edge">
<title>Node1&#45;&gt;Node16</title>
<path fill="none" stroke="midnightblue" d="M563.42,-268.43C578.79,-258.85 597.46,-247.22 613.85,-237.01"/>
<polygon fill="midnightblue" stroke="midnightblue" points="616.05,-239.76 622.69,-231.51 612.35,-233.82 616.05,-239.76"/>
</g>
<!-- Node18 -->
<g id="node18" class="node">
<title>Node18</title>
<g id="a_node18"><a xlink:href="FloatingBaseEstimatorIO_8h.html" target="_top" xlink:title=" ">
<polygon fill="none" stroke="black" points="766.5,-196 766.5,-226 973.5,-226 973.5,-196 766.5,-196"/>
<text text-anchor="start" x="774.5" y="-214" font-family="Helvetica,sans-Serif" font-size="10.00">BipedalLocomotion/Floating</text>
<text text-anchor="middle" x="870" y="-203" font-family="Helvetica,sans-Serif" font-size="10.00">BaseEstimators/FloatingBaseEstimatorIO.h</text>
</a>
</g>
</g>
<!-- Node1&#45;&gt;Node18 -->
<g id="edge19" class="edge">
<title>Node1&#45;&gt;Node18</title>
<path fill="none" stroke="midnightblue" d="M619.04,-268.43C674.45,-255.97 745.35,-240.03 797.66,-228.27"/>
<polygon fill="midnightblue" stroke="midnightblue" points="798.54,-231.66 807.53,-226.05 797,-224.83 798.54,-231.66"/>
</g>
<!-- Node23 -->
<g id="node23" class="node">
<title>Node23</title>
<g id="a_node23"><a xlink:title=" ">
<polygon fill="none" stroke="#bfbfbf" points="991.5,-201.5 991.5,-220.5 1152.5,-220.5 1152.5,-201.5 991.5,-201.5"/>
<text text-anchor="middle" x="1072" y="-208.5" font-family="Helvetica,sans-Serif" font-size="10.00">iDynTree/KinDynComputations.h</text>
</a>
</g>
</g>
<!-- Node1&#45;&gt;Node23 -->
<g id="edge26" class="edge">
<title>Node1&#45;&gt;Node23</title>
<path fill="none" stroke="midnightblue" d="M630.06,-278.61C721.69,-269.18 862.13,-253.03 983,-232 997.56,-229.47 1013.34,-226.12 1027.51,-222.89"/>
<polygon fill="midnightblue" stroke="midnightblue" points="1028.55,-226.24 1037.5,-220.58 1026.97,-219.43 1028.55,-226.24"/>
</g>
<!-- Node3&#45;&gt;Node4 -->
<g id="edge3" class="edge">
<title>Node3&#45;&gt;Node4</title>
<path fill="none" stroke="midnightblue" d="M307.74,-195.93C281.6,-186.21 247.99,-171.84 221,-154 192.69,-135.28 165.14,-106.84 149.14,-88.98"/>
<polygon fill="midnightblue" stroke="midnightblue" points="151.49,-86.35 142.26,-81.15 146.23,-90.97 151.49,-86.35"/>
</g>
<!-- Node5 -->
<g id="node5" class="node">
<title>Node5</title>
<g id="a_node5"><a xlink:title=" ">
<polygon fill="none" stroke="#bfbfbf" points="690.5,-62 690.5,-81 731.5,-81 731.5,-62 690.5,-62"/>
<text text-anchor="middle" x="711" y="-69" font-family="Helvetica,sans-Serif" font-size="10.00">string</text>
</a>
</g>
</g>
<!-- Node3&#45;&gt;Node5 -->
<g id="edge4" class="edge">
<title>Node3&#45;&gt;Node5</title>
<path fill="none" stroke="midnightblue" d="M391.52,-195.99C454.71,-174.35 578.51,-130.7 681,-87 682.2,-86.49 683.42,-85.96 684.64,-85.41"/>
<polygon fill="midnightblue" stroke="midnightblue" points="686.4,-88.45 693.99,-81.06 683.45,-82.1 686.4,-88.45"/>
</g>
<!-- Node6 -->
<g id="node6" class="node">
<title>Node6</title>
<g id="a_node6"><a xlink:title=" ">
<polygon fill="none" stroke="#bfbfbf" points="230,-129 230,-148 274,-148 274,-129 230,-129"/>
<text text-anchor="middle" x="252" y="-136" font-family="Helvetica,sans-Serif" font-size="10.00">vector</text>
</a>
</g>
</g>
<!-- Node3&#45;&gt;Node6 -->
<g id="edge5" class="edge">
<title>Node3&#45;&gt;Node6</title>
<path fill="none" stroke="midnightblue" d="M330.17,-195.73C313.31,-183.6 289.2,-166.26 272.23,-154.05"/>
<polygon fill="midnightblue" stroke="midnightblue" points="274.24,-151.19 264.08,-148.19 270.15,-156.87 274.24,-151.19"/>
</g>
<!-- Node7 -->
<g id="node7" class="node">
<title>Node7</title>
<g id="a_node7"><a xlink:href="Vector_8h_source.html" target="_top" xlink:title=" ">
<polygon fill="none" stroke="black" points="330,-123.5 330,-153.5 466,-153.5 466,-123.5 330,-123.5"/>
<text text-anchor="start" x="338" y="-141.5" font-family="Helvetica,sans-Serif" font-size="10.00">BipedalLocomotion/Generic</text>
<text text-anchor="middle" x="398" y="-130.5" font-family="Helvetica,sans-Serif" font-size="10.00">Container/Vector.h</text>
</a>
</g>
</g>
<!-- Node3&#45;&gt;Node7 -->
<g id="edge6" class="edge">
<title>Node3&#45;&gt;Node7</title>
<path fill="none" stroke="midnightblue" d="M359.71,-195.73C366.28,-186.08 375.1,-173.13 382.62,-162.09"/>
<polygon fill="midnightblue" stroke="midnightblue" points="385.57,-163.98 388.3,-153.75 379.78,-160.04 385.57,-163.98"/>
</g>
<!-- Node9 -->
<g id="node9" class="node">
<title>Node9</title>
<g id="a_node9"><a xlink:href="TemplateHelpers_8h_source.html" target="_top" xlink:title=" ">
<polygon fill="none" stroke="black" points="179.5,-56.5 179.5,-86.5 322.5,-86.5 322.5,-56.5 179.5,-56.5"/>
<text text-anchor="start" x="187.5" y="-74.5" font-family="Helvetica,sans-Serif" font-size="10.00">BipedalLocomotion/Generic</text>
<text text-anchor="middle" x="251" y="-63.5" font-family="Helvetica,sans-Serif" font-size="10.00">Container/TemplateHelpers.h</text>
</a>
</g>
</g>
<!-- Node3&#45;&gt;Node9 -->
<g id="edge16" class="edge">
<title>Node3&#45;&gt;Node9</title>
<path fill="none" stroke="midnightblue" d="M339.78,-195.8C322.59,-171.92 287.75,-123.54 267.2,-95"/>
<polygon fill="midnightblue" stroke="midnightblue" points="270,-92.9 261.31,-86.83 264.32,-96.99 270,-92.9"/>
</g>
<!-- Node7&#45;&gt;Node4 -->
<g id="edge15" class="edge">
<title>Node7&#45;&gt;Node4</title>
<path fill="none" stroke="midnightblue" d="M329.84,-125.64C284.1,-116.89 222.78,-103.64 170,-87 167.86,-86.33 165.67,-85.57 163.48,-84.78"/>
<polygon fill="midnightblue" stroke="midnightblue" points="164.62,-81.46 154.03,-81.09 162.08,-87.99 164.62,-81.46"/>
</g>
<!-- Node8 -->
<g id="node8" class="node">
<title>Node8</title>
<g id="a_node8"><a xlink:title=" ">
<polygon fill="none" stroke="#bfbfbf" points="341,-62 341,-81 455,-81 455,-62 341,-62"/>
<text text-anchor="middle" x="398" y="-69" font-family="Helvetica,sans-Serif" font-size="10.00">iDynTree/Core/Span.h</text>
</a>
</g>
</g>
<!-- Node7&#45;&gt;Node8 -->
<g id="edge7" class="edge">
<title>Node7&#45;&gt;Node8</title>
<path fill="none" stroke="midnightblue" d="M398,-123.4C398,-114.06 398,-101.71 398,-91.52"/>
<polygon fill="midnightblue" stroke="midnightblue" points="401.5,-91.19 398,-81.19 394.5,-91.19 401.5,-91.19"/>
</g>
<!-- Node7&#45;&gt;Node9 -->
<g id="edge8" class="edge">
<title>Node7&#45;&gt;Node9</title>
<path fill="none" stroke="midnightblue" d="M366.1,-123.4C344.43,-113.81 315.57,-101.05 292.16,-90.7"/>
<polygon fill="midnightblue" stroke="midnightblue" points="293.4,-87.42 282.83,-86.58 290.56,-93.82 293.4,-87.42"/>
</g>
<!-- Node13 -->
<g id="node13" class="node">
<title>Node13</title>
<g id="a_node13"><a xlink:title=" ">
<polygon fill="none" stroke="#bfbfbf" points="473.5,-62 473.5,-81 532.5,-81 532.5,-62 473.5,-62"/>
<text text-anchor="middle" x="503" y="-69" font-family="Helvetica,sans-Serif" font-size="10.00">functional</text>
</a>
</g>
</g>
<!-- Node7&#45;&gt;Node13 -->
<g id="edge12" class="edge">
<title>Node7&#45;&gt;Node13</title>
<path fill="none" stroke="midnightblue" d="M420.78,-123.4C438.55,-112.39 463.1,-97.2 480.74,-86.28"/>
<polygon fill="midnightblue" stroke="midnightblue" points="482.6,-89.25 489.26,-81.01 478.91,-83.29 482.6,-89.25"/>
</g>
<!-- Node14 -->
<g id="node14" class="node">
<title>Node14</title>
<g id="a_node14"><a xlink:title=" ">
<polygon fill="none" stroke="#bfbfbf" points="550.5,-62 550.5,-81 599.5,-81 599.5,-62 550.5,-62"/>
<text text-anchor="middle" x="575" y="-69" font-family="Helvetica,sans-Serif" font-size="10.00">cassert</text>
</a>
</g>
</g>
<!-- Node7&#45;&gt;Node14 -->
<g id="edge13" class="edge">
<title>Node7&#45;&gt;Node14</title>
<path fill="none" stroke="midnightblue" d="M439.87,-123.5C468.51,-113.73 507.26,-100.14 541,-87 542.6,-86.38 544.24,-85.72 545.9,-85.06"/>
<polygon fill="midnightblue" stroke="midnightblue" points="547.42,-88.21 555.31,-81.15 544.73,-81.75 547.42,-88.21"/>
</g>
<!-- Node7&#45;&gt;Node15 -->
<g id="edge14" class="edge">
<title>Node7&#45;&gt;Node15</title>
<path fill="none" stroke="midnightblue" d="M466.27,-123.58C507.66,-114.52 561.32,-101.68 608,-87 610.28,-86.28 612.61,-85.5 614.95,-84.67"/>
<polygon fill="midnightblue" stroke="midnightblue" points="616.29,-87.91 624.44,-81.14 613.84,-81.35 616.29,-87.91"/>
</g>
<!-- Node10 -->
<g id="node10" class="node">
<title>Node10</title>
<g id="a_node10"><a xlink:title=" ">
<polygon fill="none" stroke="#bfbfbf" points="138,-0.5 138,-19.5 200,-19.5 200,-0.5 138,-0.5"/>
<text text-anchor="middle" x="169" y="-7.5" font-family="Helvetica,sans-Serif" font-size="10.00">type_traits</text>
</a>
</g>
</g>
<!-- Node9&#45;&gt;Node10 -->
<g id="edge9" class="edge">
<title>Node9&#45;&gt;Node10</title>
<path fill="none" stroke="midnightblue" d="M231.57,-56.4C218.79,-47.13 202.11,-35.03 189.19,-25.65"/>
<polygon fill="midnightblue" stroke="midnightblue" points="191.08,-22.7 180.93,-19.66 186.97,-28.36 191.08,-22.7"/>
</g>
<!-- Node11 -->
<g id="node11" class="node">
<title>Node11</title>
<g id="a_node11"><a xlink:title=" ">
<polygon fill="none" stroke="#bfbfbf" points="218,-0.5 218,-19.5 284,-19.5 284,-0.5 218,-0.5"/>
<text text-anchor="middle" x="251" y="-7.5" font-family="Helvetica,sans-Serif" font-size="10.00">string_view</text>
</a>
</g>
</g>
<!-- Node9&#45;&gt;Node11 -->
<g id="edge10" class="edge">
<title>Node9&#45;&gt;Node11</title>
<path fill="none" stroke="midnightblue" d="M251,-56.4C251,-48.47 251,-38.46 251,-29.86"/>
<polygon fill="midnightblue" stroke="midnightblue" points="254.5,-29.66 251,-19.66 247.5,-29.66 254.5,-29.66"/>
</g>
<!-- Node12 -->
<g id="node12" class="node">
<title>Node12</title>
<g id="a_node12"><a xlink:title=" ">
<polygon fill="none" stroke="#bfbfbf" points="302.5,-0.5 302.5,-19.5 367.5,-19.5 367.5,-0.5 302.5,-0.5"/>
<text text-anchor="middle" x="335" y="-7.5" font-family="Helvetica,sans-Serif" font-size="10.00">Eigen/Core</text>
</a>
</g>
</g>
<!-- Node9&#45;&gt;Node12 -->
<g id="edge11" class="edge">
<title>Node9&#45;&gt;Node12</title>
<path fill="none" stroke="midnightblue" d="M270.91,-56.4C283.99,-47.13 301.08,-35.03 314.32,-25.65"/>
<polygon fill="midnightblue" stroke="midnightblue" points="316.64,-28.29 322.78,-19.66 312.59,-22.58 316.64,-28.29"/>
</g>
<!-- Node17 -->
<g id="node17" class="node">
<title>Node17</title>
<g id="a_node17"><a xlink:title=" ">
<polygon fill="none" stroke="#bfbfbf" points="617.5,-129 617.5,-148 690.5,-148 690.5,-129 617.5,-129"/>
<text text-anchor="middle" x="654" y="-136" font-family="Helvetica,sans-Serif" font-size="10.00">Eigen/Dense</text>
</a>
</g>
</g>
<!-- Node16&#45;&gt;Node17 -->
<g id="edge18" class="edge">
<title>Node16&#45;&gt;Node17</title>
<path fill="none" stroke="midnightblue" d="M654,-190.36C654,-180.3 654,-168.1 654,-158.18"/>
<polygon fill="midnightblue" stroke="midnightblue" points="657.5,-158.17 654,-148.17 650.5,-158.17 657.5,-158.17"/>
</g>
<!-- Node18&#45;&gt;Node17 -->
<g id="edge20" class="edge">
<title>Node18&#45;&gt;Node17</title>
<path fill="none" stroke="midnightblue" d="M827.07,-195.99C786.86,-182.86 727.47,-163.48 689.77,-151.17"/>
<polygon fill="midnightblue" stroke="midnightblue" points="690.8,-147.83 680.21,-148.05 688.63,-154.49 690.8,-147.83"/>
</g>
<!-- Node19 -->
<g id="node19" class="node">
<title>Node19</title>
<g id="a_node19"><a xlink:title=" ">
<polygon fill="none" stroke="#bfbfbf" points="869,-129 869,-148 945,-148 945,-129 869,-129"/>
<text text-anchor="middle" x="907" y="-136" font-family="Helvetica,sans-Serif" font-size="10.00">manif/manif.h</text>
</a>
</g>
</g>
<!-- Node18&#45;&gt;Node19 -->
<g id="edge21" class="edge">
<title>Node18&#45;&gt;Node19</title>
<path fill="none" stroke="midnightblue" d="M877.49,-195.73C883.29,-184.67 891.38,-169.27 897.62,-157.38"/>
<polygon fill="midnightblue" stroke="midnightblue" points="900.78,-158.87 902.33,-148.39 894.59,-155.62 900.78,-158.87"/>
</g>
<!-- Node20 -->
<g id="node20" class="node">
<title>Node20</title>
<g id="a_node20"><a xlink:href="Contact_8h.html" target="_top" xlink:title=" ">
<polygon fill="none" stroke="black" points="709,-123.5 709,-153.5 851,-153.5 851,-123.5 709,-123.5"/>
<text text-anchor="start" x="717" y="-141.5" font-family="Helvetica,sans-Serif" font-size="10.00">BipedalLocomotion/Contacts</text>
<text text-anchor="middle" x="780" y="-130.5" font-family="Helvetica,sans-Serif" font-size="10.00">/Contact.h</text>
</a>
</g>
</g>
<!-- Node18&#45;&gt;Node20 -->
<g id="edge22" class="edge">
<title>Node18&#45;&gt;Node20</title>
<path fill="none" stroke="midnightblue" d="M851.79,-195.73C838.65,-185.44 820.72,-171.4 806.07,-159.92"/>
<polygon fill="midnightblue" stroke="midnightblue" points="807.91,-156.92 797.88,-153.5 803.59,-162.43 807.91,-156.92"/>
</g>
<!-- Node22 -->
<g id="node22" class="node">
<title>Node22</title>
<g id="a_node22"><a xlink:title=" ">
<polygon fill="none" stroke="#bfbfbf" points="963.5,-129 963.5,-148 998.5,-148 998.5,-129 963.5,-129"/>
<text text-anchor="middle" x="981" y="-136" font-family="Helvetica,sans-Serif" font-size="10.00">map</text>
</a>
</g>
</g>
<!-- Node18&#45;&gt;Node22 -->
<g id="edge25" class="edge">
<title>Node18&#45;&gt;Node22</title>
<path fill="none" stroke="midnightblue" d="M892.2,-195.9C911.64,-183.55 939.74,-165.71 959.09,-153.41"/>
<polygon fill="midnightblue" stroke="midnightblue" points="961,-156.35 967.56,-148.03 957.25,-150.44 961,-156.35"/>
</g>
<!-- Node20&#45;&gt;Node5 -->
<g id="edge24" class="edge">
<title>Node20&#45;&gt;Node5</title>
<path fill="none" stroke="midnightblue" d="M765.03,-123.4C754.06,-113.06 739.16,-99.02 727.78,-88.31"/>
<polygon fill="midnightblue" stroke="midnightblue" points="729.91,-85.5 720.23,-81.19 725.11,-90.6 729.91,-85.5"/>
</g>
<!-- Node21 -->
<g id="node21" class="node">
<title>Node21</title>
<g id="a_node21"><a xlink:title=" ">
<polygon fill="none" stroke="#bfbfbf" points="749.5,-62 749.5,-81 820.5,-81 820.5,-62 749.5,-62"/>
<text text-anchor="middle" x="785" y="-69" font-family="Helvetica,sans-Serif" font-size="10.00">manif/SE3.h</text>
</a>
</g>
</g>
<!-- Node20&#45;&gt;Node21 -->
<g id="edge23" class="edge">
<title>Node20&#45;&gt;Node21</title>
<path fill="none" stroke="midnightblue" d="M781.08,-123.4C781.81,-113.96 782.77,-101.45 783.56,-91.19"/>
<polygon fill="midnightblue" stroke="midnightblue" points="787.05,-91.43 784.33,-81.19 780.07,-90.9 787.05,-91.43"/>
</g>
</g>
</svg>
