<?xml version="1.0" encoding="UTF-8" standalone="no"?>
<!DOCTYPE svg PUBLIC "-//W3C//DTD SVG 1.1//EN"
 "http://www.w3.org/Graphics/SVG/1.1/DTD/svg11.dtd">
<!-- Generated by graphviz version 2.43.0 (0)
 -->
<!-- Title: System/include/BipedalLocomotion/System/FloatingBaseSystemDynamics.h Pages: 1 -->
<!--zoomable 430 -->
<svg id="main" version="1.1" xmlns="http://www.w3.org/2000/svg" xmlns:xlink="http://www.w3.org/1999/xlink" xml:space="preserve" onload="init(evt)">
<style type="text/css"><![CDATA[
.edge:hover path { stroke: red; }
.edge:hover polygon { stroke: red; fill: red; }
]]></style>
<script type="text/javascript"><![CDATA[
var edges = document.getElementsByTagName('g');
if (edges && edges.length) {
  for (var i=0;i<edges.length;i++) {
    if (edges[i].id.substr(0,4)=='edge') {
      edges[i].setAttribute('class','edge');
    }
  }
}
]]></script>
        <defs>
                <circle id="rim" cx="0" cy="0" r="7"/>
                <circle id="rim2" cx="0" cy="0" r="3.5"/>
                <g id="zoomPlus">
                        <use xlink:href="#rim" fill="#404040">
                                <set attributeName="fill" to="#808080" begin="zoomplus.mouseover" end="zoomplus.mouseout"/>
                        </use>
                        <path d="M-4,0h8M0,-4v8" fill="none" stroke="white" stroke-width="1.5" pointer-events="none"/>
                </g>
                <g id="zoomMin">
                        <use xlink:href="#rim" fill="#404040">
                                <set attributeName="fill" to="#808080" begin="zoomminus.mouseover" end="zoomminus.mouseout"/>
                        </use>
                        <path d="M-4,0h8" fill="none" stroke="white" stroke-width="1.5" pointer-events="none"/>
                </g>
                <g id="dirArrow">
                        <path fill="none" stroke="white" stroke-width="1.5" d="M0,-3.0v7 M-2.5,-0.5L0,-3.0L2.5,-0.5"/>
                </g>
               <g id="resetDef">
                       <use xlink:href="#rim2" fill="#404040">
                               <set attributeName="fill" to="#808080" begin="reset.mouseover" end="reset.mouseout"/>
                       </use>
               </g>
        </defs>

<script type="text/javascript">
var viewWidth = 1687;
var viewHeight = 430;
var sectionId = 'dynsection-0';
</script>
<script xlink:href="svgpan.js"/>
<svg id="graph" class="graph">
<g id="viewport">
<title>System/include/BipedalLocomotion/System/FloatingBaseSystemDynamics.h</title>
<!-- Node1 -->
<g id="node1" class="node">
<title>Node1</title>
<g id="a_node1"><a xlink:title=" ">
<polygon fill="#bfbfbf" stroke="black" points="278,-391.5 278,-421.5 478,-421.5 478,-391.5 278,-391.5"/>
<text text-anchor="start" x="286" y="-409.5" font-family="Helvetica,sans-Serif" font-size="10.00">System/include/BipedalLocomotion</text>
<text text-anchor="middle" x="378" y="-398.5" font-family="Helvetica,sans-Serif" font-size="10.00">/System/FloatingBaseSystemDynamics.h</text>
</a>
</g>
</g>
<!-- Node2 -->
<g id="node2" class="node">
<title>Node2</title>
<g id="a_node2"><a xlink:title=" ">
<polygon fill="none" stroke="#bfbfbf" points="357,-62 357,-81 409,-81 409,-62 357,-62"/>
<text text-anchor="middle" x="383" y="-69" font-family="Helvetica,sans-Serif" font-size="10.00">memory</text>
</a>
</g>
</g>
<!-- Node1&#45;&gt;Node2 -->
<g id="edge1" class="edge">
<title>Node1&#45;&gt;Node2</title>
<path fill="none" stroke="midnightblue" d="M282.61,-391.5C170.64,-372.32 0,-333.28 0,-273.5 0,-273.5 0,-273.5 0,-204.5 0,-131.54 251.56,-90.14 346.93,-77.07"/>
<polygon fill="midnightblue" stroke="midnightblue" points="347.53,-80.52 356.98,-75.72 346.6,-73.58 347.53,-80.52"/>
</g>
<!-- Node3 -->
<g id="node3" class="node">
<title>Node3</title>
<g id="a_node3"><a xlink:title=" ">
<polygon fill="none" stroke="#bfbfbf" points="354,-129 354,-148 398,-148 398,-129 354,-129"/>
<text text-anchor="middle" x="376" y="-136" font-family="Helvetica,sans-Serif" font-size="10.00">vector</text>
</a>
</g>
</g>
<!-- Node1&#45;&gt;Node3 -->
<g id="edge2" class="edge">
<title>Node1&#45;&gt;Node3</title>
<path fill="none" stroke="midnightblue" d="M327.78,-391.42C227.14,-360.83 16.85,-283.44 95,-190 126.4,-152.45 276.61,-142.78 343.61,-140.32"/>
<polygon fill="midnightblue" stroke="midnightblue" points="344.11,-143.81 353.99,-139.98 343.88,-136.81 344.11,-143.81"/>
</g>
<!-- Node4 -->
<g id="node4" class="node">
<title>Node4</title>
<g id="a_node4"><a xlink:href="DynamicalSystem_8h.html" target="_top" xlink:title=" ">
<polygon fill="none" stroke="black" points="209,-257.5 209,-287.5 345,-287.5 345,-257.5 209,-257.5"/>
<text text-anchor="start" x="217" y="-275.5" font-family="Helvetica,sans-Serif" font-size="10.00">BipedalLocomotion/System</text>
<text text-anchor="middle" x="277" y="-264.5" font-family="Helvetica,sans-Serif" font-size="10.00">/DynamicalSystem.h</text>
</a>
</g>
</g>
<!-- Node1&#45;&gt;Node4 -->
<g id="edge3" class="edge">
<title>Node1&#45;&gt;Node4</title>
<path fill="none" stroke="midnightblue" d="M367.19,-391.37C349.65,-368.45 314.85,-322.97 293.98,-295.69"/>
<polygon fill="midnightblue" stroke="midnightblue" points="296.59,-293.34 287.73,-287.52 291.03,-297.59 296.59,-293.34"/>
</g>
<!-- Node18 -->
<g id="node18" class="node">
<title>Node18</title>
<g id="a_node18"><a xlink:href="ContactWrench_8h.html" target="_top" xlink:title=" ">
<polygon fill="none" stroke="black" points="464,-324.5 464,-354.5 600,-354.5 600,-324.5 464,-324.5"/>
<text text-anchor="start" x="472" y="-342.5" font-family="Helvetica,sans-Serif" font-size="10.00">BipedalLocomotion/System</text>
<text text-anchor="middle" x="532" y="-331.5" font-family="Helvetica,sans-Serif" font-size="10.00">/ContactWrench.h</text>
</a>
</g>
</g>
<!-- Node1&#45;&gt;Node18 -->
<g id="edge24" class="edge">
<title>Node1&#45;&gt;Node18</title>
<path fill="none" stroke="midnightblue" d="M411.42,-391.4C434.22,-381.77 464.63,-368.94 489.2,-358.56"/>
<polygon fill="midnightblue" stroke="midnightblue" points="490.8,-361.69 498.65,-354.58 488.08,-355.24 490.8,-361.69"/>
</g>
<!-- Node29 -->
<g id="node29" class="node">
<title>Node29</title>
<g id="a_node29"><a xlink:title=" ">
<polygon fill="none" stroke="#bfbfbf" points="618.5,-330 618.5,-349 691.5,-349 691.5,-330 618.5,-330"/>
<text text-anchor="middle" x="655" y="-337" font-family="Helvetica,sans-Serif" font-size="10.00">Eigen/Dense</text>
</a>
</g>
</g>
<!-- Node1&#45;&gt;Node29 -->
<g id="edge39" class="edge">
<title>Node1&#45;&gt;Node29</title>
<path fill="none" stroke="midnightblue" d="M450.2,-391.46C495.95,-382.13 556.24,-369.05 609,-355 612.42,-354.09 615.97,-353.08 619.5,-352.04"/>
<polygon fill="midnightblue" stroke="midnightblue" points="620.79,-355.31 629.33,-349.04 618.74,-348.61 620.79,-355.31"/>
</g>
<!-- Node30 -->
<g id="node30" class="node">
<title>Node30</title>
<g id="a_node30"><a xlink:title=" ">
<polygon fill="none" stroke="#bfbfbf" points="709.5,-330 709.5,-349 870.5,-349 870.5,-330 709.5,-330"/>
<text text-anchor="middle" x="790" y="-337" font-family="Helvetica,sans-Serif" font-size="10.00">iDynTree/KinDynComputations.h</text>
</a>
</g>
</g>
<!-- Node1&#45;&gt;Node30 -->
<g id="edge40" class="edge">
<title>Node1&#45;&gt;Node30</title>
<path fill="none" stroke="midnightblue" d="M468.87,-391.45C533.61,-381.41 622.67,-367.5 701,-355 709.65,-353.62 718.77,-352.15 727.74,-350.7"/>
<polygon fill="midnightblue" stroke="midnightblue" points="728.46,-354.12 737.77,-349.07 727.34,-347.21 728.46,-354.12"/>
</g>
<!-- Node4&#45;&gt;Node2 -->
<g id="edge4" class="edge">
<title>Node4&#45;&gt;Node2</title>
<path fill="none" stroke="midnightblue" d="M208.75,-265.43C144.91,-256.82 63.72,-236.55 95,-190 152.21,-104.87 283.05,-81.38 346.78,-74.93"/>
<polygon fill="midnightblue" stroke="midnightblue" points="347.14,-78.41 356.78,-74 346.5,-71.44 347.14,-78.41"/>
</g>
<!-- Node5 -->
<g id="node5" class="node">
<title>Node5</title>
<g id="a_node5"><a xlink:title=" ">
<polygon fill="none" stroke="#bfbfbf" points="258,-196 258,-215 296,-215 296,-196 258,-196"/>
<text text-anchor="middle" x="277" y="-203" font-family="Helvetica,sans-Serif" font-size="10.00">tuple</text>
</a>
</g>
</g>
<!-- Node4&#45;&gt;Node5 -->
<g id="edge5" class="edge">
<title>Node4&#45;&gt;Node5</title>
<path fill="none" stroke="midnightblue" d="M277,-257.4C277,-248.06 277,-235.71 277,-225.52"/>
<polygon fill="midnightblue" stroke="midnightblue" points="280.5,-225.19 277,-215.19 273.5,-225.19 280.5,-225.19"/>
</g>
<!-- Node6 -->
<g id="node6" class="node">
<title>Node6</title>
<g id="a_node6"><a xlink:href="TemplateHelpers_8h_source.html" target="_top" xlink:title=" ">
<polygon fill="none" stroke="black" points="427.5,-56.5 427.5,-86.5 570.5,-86.5 570.5,-56.5 427.5,-56.5"/>
<text text-anchor="start" x="435.5" y="-74.5" font-family="Helvetica,sans-Serif" font-size="10.00">BipedalLocomotion/Generic</text>
<text text-anchor="middle" x="499" y="-63.5" font-family="Helvetica,sans-Serif" font-size="10.00">Container/TemplateHelpers.h</text>
</a>
</g>
</g>
<!-- Node4&#45;&gt;Node6 -->
<g id="edge6" class="edge">
<title>Node4&#45;&gt;Node6</title>
<path fill="none" stroke="midnightblue" d="M285.55,-257.15C291.35,-247.18 299.02,-233.48 305,-221 325.33,-178.58 310.58,-155.07 345,-123 357.89,-110.99 395.02,-98.65 429.59,-89.17"/>
<polygon fill="midnightblue" stroke="midnightblue" points="430.5,-92.55 439.25,-86.57 428.68,-85.79 430.5,-92.55"/>
</g>
<!-- Node10 -->
<g id="node10" class="node">
<title>Node10</title>
<g id="a_node10"><a xlink:href="IParametersHandler_8h.html" target="_top" xlink:title=" ">
<polygon fill="none" stroke="black" points="352,-190.5 352,-220.5 504,-220.5 504,-190.5 352,-190.5"/>
<text text-anchor="start" x="360" y="-208.5" font-family="Helvetica,sans-Serif" font-size="10.00">BipedalLocomotion/Parameters</text>
<text text-anchor="middle" x="428" y="-197.5" font-family="Helvetica,sans-Serif" font-size="10.00">Handler/IParametersHandler.h</text>
</a>
</g>
</g>
<!-- Node4&#45;&gt;Node10 -->
<g id="edge10" class="edge">
<title>Node4&#45;&gt;Node10</title>
<path fill="none" stroke="midnightblue" d="M309.76,-257.4C332.12,-247.77 361.94,-234.94 386.04,-224.56"/>
<polygon fill="midnightblue" stroke="midnightblue" points="387.5,-227.75 395.3,-220.58 384.73,-221.32 387.5,-227.75"/>
</g>
<!-- Node17 -->
<g id="node17" class="node">
<title>Node17</title>
<g id="a_node17"><a xlink:href="DynamicalSystem_8tpp.html" target="_top" xlink:title=" ">
<polygon fill="none" stroke="black" points="104,-190.5 104,-220.5 240,-220.5 240,-190.5 104,-190.5"/>
<text text-anchor="start" x="112" y="-208.5" font-family="Helvetica,sans-Serif" font-size="10.00">BipedalLocomotion/System</text>
<text text-anchor="middle" x="172" y="-197.5" font-family="Helvetica,sans-Serif" font-size="10.00">/DynamicalSystem.tpp</text>
</a>
</g>
</g>
<!-- Node4&#45;&gt;Node17 -->
<g id="edge22" class="edge">
<title>Node4&#45;&gt;Node17</title>
<path fill="none" stroke="midnightblue" d="M248.54,-257.4C232.62,-248.28 213.05,-236.29 197.62,-226.24"/>
<polygon fill="midnightblue" stroke="midnightblue" points="199.34,-223.18 189.06,-220.58 195.47,-229.01 199.34,-223.18"/>
</g>
<!-- Node7 -->
<g id="node7" class="node">
<title>Node7</title>
<g id="a_node7"><a xlink:title=" ">
<polygon fill="none" stroke="#bfbfbf" points="386,-0.5 386,-19.5 448,-19.5 448,-0.5 386,-0.5"/>
<text text-anchor="middle" x="417" y="-7.5" font-family="Helvetica,sans-Serif" font-size="10.00">type_traits</text>
</a>
</g>
</g>
<!-- Node6&#45;&gt;Node7 -->
<g id="edge7" class="edge">
<title>Node6&#45;&gt;Node7</title>
<path fill="none" stroke="midnightblue" d="M479.57,-56.4C466.79,-47.13 450.11,-35.03 437.19,-25.65"/>
<polygon fill="midnightblue" stroke="midnightblue" points="439.08,-22.7 428.93,-19.66 434.97,-28.36 439.08,-22.7"/>
</g>
<!-- Node8 -->
<g id="node8" class="node">
<title>Node8</title>
<g id="a_node8"><a xlink:title=" ">
<polygon fill="none" stroke="#bfbfbf" points="466,-0.5 466,-19.5 532,-19.5 532,-0.5 466,-0.5"/>
<text text-anchor="middle" x="499" y="-7.5" font-family="Helvetica,sans-Serif" font-size="10.00">string_view</text>
</a>
</g>
</g>
<!-- Node6&#45;&gt;Node8 -->
<g id="edge8" class="edge">
<title>Node6&#45;&gt;Node8</title>
<path fill="none" stroke="midnightblue" d="M499,-56.4C499,-48.47 499,-38.46 499,-29.86"/>
<polygon fill="midnightblue" stroke="midnightblue" points="502.5,-29.66 499,-19.66 495.5,-29.66 502.5,-29.66"/>
</g>
<!-- Node9 -->
<g id="node9" class="node">
<title>Node9</title>
<g id="a_node9"><a xlink:title=" ">
<polygon fill="none" stroke="#bfbfbf" points="550.5,-0.5 550.5,-19.5 615.5,-19.5 615.5,-0.5 550.5,-0.5"/>
<text text-anchor="middle" x="583" y="-7.5" font-family="Helvetica,sans-Serif" font-size="10.00">Eigen/Core</text>
</a>
</g>
</g>
<!-- Node6&#45;&gt;Node9 -->
<g id="edge9" class="edge">
<title>Node6&#45;&gt;Node9</title>
<path fill="none" stroke="midnightblue" d="M518.91,-56.4C531.99,-47.13 549.08,-35.03 562.32,-25.65"/>
<polygon fill="midnightblue" stroke="midnightblue" points="564.64,-28.29 570.78,-19.66 560.59,-22.58 564.64,-28.29"/>
</g>
<!-- Node10&#45;&gt;Node2 -->
<g id="edge11" class="edge">
<title>Node10&#45;&gt;Node2</title>
<path fill="none" stroke="midnightblue" d="M425.23,-190.41C421.8,-173.96 415.37,-146.08 407,-123 402.97,-111.88 397.33,-99.89 392.54,-90.4"/>
<polygon fill="midnightblue" stroke="midnightblue" points="395.49,-88.48 387.78,-81.22 389.27,-91.71 395.49,-88.48"/>
</g>
<!-- Node10&#45;&gt;Node3 -->
<g id="edge13" class="edge">
<title>Node10&#45;&gt;Node3</title>
<path fill="none" stroke="midnightblue" d="M416.72,-190.4C408.69,-180.36 397.87,-166.84 389.4,-156.25"/>
<polygon fill="midnightblue" stroke="midnightblue" points="391.94,-153.82 382.96,-148.19 386.47,-158.19 391.94,-153.82"/>
</g>
<!-- Node10&#45;&gt;Node6 -->
<g id="edge21" class="edge">
<title>Node10&#45;&gt;Node6</title>
<path fill="none" stroke="midnightblue" d="M435.6,-190.37C447.82,-167.65 471.97,-122.75 486.68,-95.4"/>
<polygon fill="midnightblue" stroke="midnightblue" points="489.8,-96.99 491.46,-86.52 483.64,-93.67 489.8,-96.99"/>
</g>
<!-- Node11 -->
<g id="node11" class="node">
<title>Node11</title>
<g id="a_node11"><a xlink:title=" ">
<polygon fill="none" stroke="#bfbfbf" points="938.5,-129 938.5,-148 979.5,-148 979.5,-129 938.5,-129"/>
<text text-anchor="middle" x="959" y="-136" font-family="Helvetica,sans-Serif" font-size="10.00">string</text>
</a>
</g>
</g>
<!-- Node10&#45;&gt;Node11 -->
<g id="edge12" class="edge">
<title>Node10&#45;&gt;Node11</title>
<path fill="none" stroke="midnightblue" d="M504.4,-191.38C507.64,-190.9 510.85,-190.44 514,-190 660.58,-169.69 698.04,-171.34 845,-154 873.22,-150.67 905.33,-146.56 928.27,-143.56"/>
<polygon fill="midnightblue" stroke="midnightblue" points="928.96,-147 938.42,-142.23 928.05,-140.06 928.96,-147"/>
</g>
<!-- Node12 -->
<g id="node12" class="node">
<title>Node12</title>
<g id="a_node12"><a xlink:href="Vector_8h_source.html" target="_top" xlink:title=" ">
<polygon fill="none" stroke="black" points="700,-123.5 700,-153.5 836,-153.5 836,-123.5 700,-123.5"/>
<text text-anchor="start" x="708" y="-141.5" font-family="Helvetica,sans-Serif" font-size="10.00">BipedalLocomotion/Generic</text>
<text text-anchor="middle" x="768" y="-130.5" font-family="Helvetica,sans-Serif" font-size="10.00">Container/Vector.h</text>
</a>
</g>
</g>
<!-- Node10&#45;&gt;Node12 -->
<g id="edge14" class="edge">
<title>Node10&#45;&gt;Node12</title>
<path fill="none" stroke="midnightblue" d="M501.36,-190.48C556.97,-179.84 633.25,-165.26 689.98,-154.42"/>
<polygon fill="midnightblue" stroke="midnightblue" points="690.81,-157.82 699.98,-152.5 689.5,-150.94 690.81,-157.82"/>
</g>
<!-- Node12&#45;&gt;Node2 -->
<g id="edge20" class="edge">
<title>Node12&#45;&gt;Node2</title>
<path fill="none" stroke="midnightblue" d="M699.58,-125.18C694.99,-124.42 690.43,-123.69 686,-123 567.25,-104.53 534.04,-118.26 418,-87 415.55,-86.34 413.05,-85.55 410.57,-84.69"/>
<polygon fill="midnightblue" stroke="midnightblue" points="411.81,-81.41 401.22,-81.09 409.29,-87.95 411.81,-81.41"/>
</g>
<!-- Node12&#45;&gt;Node6 -->
<g id="edge16" class="edge">
<title>Node12&#45;&gt;Node6</title>
<path fill="none" stroke="midnightblue" d="M709.96,-123.48C668.03,-113.34 611.26,-99.63 567.17,-88.97"/>
<polygon fill="midnightblue" stroke="midnightblue" points="567.94,-85.56 557.4,-86.61 566.3,-92.36 567.94,-85.56"/>
</g>
<!-- Node13 -->
<g id="node13" class="node">
<title>Node13</title>
<g id="a_node13"><a xlink:title=" ">
<polygon fill="none" stroke="#bfbfbf" points="603,-62 603,-81 717,-81 717,-62 603,-62"/>
<text text-anchor="middle" x="660" y="-69" font-family="Helvetica,sans-Serif" font-size="10.00">iDynTree/Core/Span.h</text>
</a>
</g>
</g>
<!-- Node12&#45;&gt;Node13 -->
<g id="edge15" class="edge">
<title>Node12&#45;&gt;Node13</title>
<path fill="none" stroke="midnightblue" d="M744.57,-123.4C726.29,-112.39 701.04,-97.2 682.9,-86.28"/>
<polygon fill="midnightblue" stroke="midnightblue" points="684.51,-83.16 674.13,-81.01 680.9,-89.16 684.51,-83.16"/>
</g>
<!-- Node14 -->
<g id="node14" class="node">
<title>Node14</title>
<g id="a_node14"><a xlink:title=" ">
<polygon fill="none" stroke="#bfbfbf" points="735.5,-62 735.5,-81 794.5,-81 794.5,-62 735.5,-62"/>
<text text-anchor="middle" x="765" y="-69" font-family="Helvetica,sans-Serif" font-size="10.00">functional</text>
</a>
</g>
</g>
<!-- Node12&#45;&gt;Node14 -->
<g id="edge17" class="edge">
<title>Node12&#45;&gt;Node14</title>
<path fill="none" stroke="midnightblue" d="M767.35,-123.4C766.91,-113.96 766.34,-101.45 765.86,-91.19"/>
<polygon fill="midnightblue" stroke="midnightblue" points="769.36,-91.02 765.4,-81.19 762.37,-91.35 769.36,-91.02"/>
</g>
<!-- Node15 -->
<g id="node15" class="node">
<title>Node15</title>
<g id="a_node15"><a xlink:title=" ">
<polygon fill="none" stroke="#bfbfbf" points="812.5,-62 812.5,-81 861.5,-81 861.5,-62 812.5,-62"/>
<text text-anchor="middle" x="837" y="-69" font-family="Helvetica,sans-Serif" font-size="10.00">cassert</text>
</a>
</g>
</g>
<!-- Node12&#45;&gt;Node15 -->
<g id="edge18" class="edge">
<title>Node12&#45;&gt;Node15</title>
<path fill="none" stroke="midnightblue" d="M782.97,-123.4C793.94,-113.06 808.84,-99.02 820.22,-88.31"/>
<polygon fill="midnightblue" stroke="midnightblue" points="822.89,-90.6 827.77,-81.19 818.09,-85.5 822.89,-90.6"/>
</g>
<!-- Node16 -->
<g id="node16" class="node">
<title>Node16</title>
<g id="a_node16"><a xlink:title=" ">
<polygon fill="none" stroke="#bfbfbf" points="880,-62 880,-81 934,-81 934,-62 880,-62"/>
<text text-anchor="middle" x="907" y="-69" font-family="Helvetica,sans-Serif" font-size="10.00">iostream</text>
</a>
</g>
</g>
<!-- Node12&#45;&gt;Node16 -->
<g id="edge19" class="edge">
<title>Node12&#45;&gt;Node16</title>
<path fill="none" stroke="midnightblue" d="M798.16,-123.4C822.44,-112.04 856.28,-96.22 879.75,-85.24"/>
<polygon fill="midnightblue" stroke="midnightblue" points="881.23,-88.41 888.81,-81.01 878.27,-82.07 881.23,-88.41"/>
</g>
<!-- Node17&#45;&gt;Node4 -->
<g id="edge23" class="edge">
<title>Node17&#45;&gt;Node4</title>
<path fill="none" stroke="midnightblue" d="M200.41,-220.58C216.32,-229.68 235.89,-241.68 251.34,-251.73"/>
<polygon fill="midnightblue" stroke="midnightblue" points="249.62,-254.8 259.89,-257.4 253.49,-248.96 249.62,-254.8"/>
</g>
<!-- Node19 -->
<g id="node19" class="node">
<title>Node19</title>
<g id="a_node19"><a xlink:title=" ">
<polygon fill="none" stroke="#bfbfbf" points="522.5,-196 522.5,-215 647.5,-215 647.5,-196 522.5,-196"/>
<text text-anchor="middle" x="585" y="-203" font-family="Helvetica,sans-Serif" font-size="10.00">iDynTree/Core/Wrench.h</text>
</a>
</g>
</g>
<!-- Node18&#45;&gt;Node19 -->
<g id="edge25" class="edge">
<title>Node18&#45;&gt;Node19</title>
<path fill="none" stroke="midnightblue" d="M537.67,-324.37C547.34,-300.29 567.01,-251.31 577.69,-224.7"/>
<polygon fill="midnightblue" stroke="midnightblue" points="581.07,-225.68 581.55,-215.1 574.57,-223.07 581.07,-225.68"/>
</g>
<!-- Node20 -->
<g id="node20" class="node">
<title>Node20</title>
<g id="a_node20"><a xlink:title=" ">
<polygon fill="none" stroke="#bfbfbf" points="1001,-263 1001,-282 1129,-282 1129,-263 1001,-263"/>
<text text-anchor="middle" x="1065" y="-270" font-family="Helvetica,sans-Serif" font-size="10.00">iDynTree/Model/Indices.h</text>
</a>
</g>
</g>
<!-- Node18&#45;&gt;Node20 -->
<g id="edge26" class="edge">
<title>Node18&#45;&gt;Node20</title>
<path fill="none" stroke="midnightblue" d="M600.01,-325.49C603.38,-324.96 606.73,-324.46 610,-324 778.89,-300.39 823.26,-312.64 992,-288 999.73,-286.87 1007.88,-285.47 1015.83,-283.98"/>
<polygon fill="midnightblue" stroke="midnightblue" points="1016.57,-287.4 1025.73,-282.07 1015.24,-280.53 1016.57,-287.4"/>
</g>
<!-- Node21 -->
<g id="node21" class="node">
<title>Node21</title>
<g id="a_node21"><a xlink:href="ContactModel_8h.html" target="_top" xlink:title=" ">
<polygon fill="none" stroke="black" points="845.5,-257.5 845.5,-287.5 982.5,-287.5 982.5,-257.5 845.5,-257.5"/>
<text text-anchor="start" x="853.5" y="-275.5" font-family="Helvetica,sans-Serif" font-size="10.00">BipedalLocomotion/Contact</text>
<text text-anchor="middle" x="914" y="-264.5" font-family="Helvetica,sans-Serif" font-size="10.00">Models/ContactModel.h</text>
</a>
</g>
</g>
<!-- Node18&#45;&gt;Node21 -->
<g id="edge27" class="edge">
<title>Node18&#45;&gt;Node21</title>
<path fill="none" stroke="midnightblue" d="M600.05,-325.77C603.41,-325.17 606.74,-324.57 610,-324 686.49,-310.54 773.99,-296.1 835.41,-286.13"/>
<polygon fill="midnightblue" stroke="midnightblue" points="836.11,-289.56 845.42,-284.51 834.99,-282.65 836.11,-289.56"/>
</g>
<!-- Node21&#45;&gt;Node2 -->
<g id="edge29" class="edge">
<title>Node21&#45;&gt;Node2</title>
<path fill="none" stroke="midnightblue" d="M845.1,-263.52C800.85,-256.5 743.06,-243.71 696,-221 676.06,-211.38 676.01,-201.35 657,-190 645.78,-183.3 481.57,-113.97 412.87,-85.06"/>
<polygon fill="midnightblue" stroke="midnightblue" points="414.03,-81.75 403.46,-81.1 411.32,-88.2 414.03,-81.75"/>
</g>
<!-- Node21&#45;&gt;Node10 -->
<g id="edge38" class="edge">
<title>Node21&#45;&gt;Node10</title>
<path fill="none" stroke="midnightblue" d="M845.23,-263.7C767.54,-254.68 637.09,-238.95 514.36,-221.01"/>
<polygon fill="midnightblue" stroke="midnightblue" points="514.81,-217.54 504.41,-219.55 513.79,-224.47 514.81,-217.54"/>
</g>
<!-- Node21&#45;&gt;Node11 -->
<g id="edge30" class="edge">
<title>Node21&#45;&gt;Node11</title>
<path fill="none" stroke="midnightblue" d="M956.33,-257.3C973.02,-249.39 990.45,-237.68 1000,-221 1012.71,-198.79 993.05,-172.15 976.81,-155.52"/>
<polygon fill="midnightblue" stroke="midnightblue" points="978.89,-152.67 969.27,-148.23 974.02,-157.7 978.89,-152.67"/>
</g>
<!-- Node21&#45;&gt;Node19 -->
<g id="edge37" class="edge">
<title>Node21&#45;&gt;Node19</title>
<path fill="none" stroke="midnightblue" d="M845.43,-257.95C783.91,-245.8 694.88,-228.21 638.49,-217.07"/>
<polygon fill="midnightblue" stroke="midnightblue" points="638.84,-213.57 628.35,-215.06 637.48,-220.44 638.84,-213.57"/>
</g>
<!-- Node22 -->
<g id="node22" class="node">
<title>Node22</title>
<g id="a_node22"><a xlink:title=" ">
<polygon fill="none" stroke="#bfbfbf" points="1047,-196 1047,-215 1079,-215 1079,-196 1047,-196"/>
<text text-anchor="middle" x="1063" y="-203" font-family="Helvetica,sans-Serif" font-size="10.00">any</text>
</a>
</g>
</g>
<!-- Node21&#45;&gt;Node22 -->
<g id="edge28" class="edge">
<title>Node21&#45;&gt;Node22</title>
<path fill="none" stroke="midnightblue" d="M948.3,-257.46C972.18,-247.57 1004.69,-233.84 1033,-221 1034.56,-220.29 1036.16,-219.56 1037.76,-218.81"/>
<polygon fill="midnightblue" stroke="midnightblue" points="1039.35,-221.93 1046.88,-214.47 1036.34,-215.61 1039.35,-221.93"/>
</g>
<!-- Node23 -->
<g id="node23" class="node">
<title>Node23</title>
<g id="a_node23"><a xlink:title=" ">
<polygon fill="none" stroke="#bfbfbf" points="1097.5,-196 1097.5,-215 1180.5,-215 1180.5,-196 1097.5,-196"/>
<text text-anchor="middle" x="1139" y="-203" font-family="Helvetica,sans-Serif" font-size="10.00">unordered_map</text>
</a>
</g>
</g>
<!-- Node21&#45;&gt;Node23 -->
<g id="edge31" class="edge">
<title>Node21&#45;&gt;Node23</title>
<path fill="none" stroke="midnightblue" d="M962.54,-257.48C1003.58,-245.62 1061.61,-228.86 1099.75,-217.84"/>
<polygon fill="midnightblue" stroke="midnightblue" points="1100.84,-221.17 1109.48,-215.03 1098.9,-214.44 1100.84,-221.17"/>
</g>
<!-- Node24 -->
<g id="node24" class="node">
<title>Node24</title>
<g id="a_node24"><a xlink:title=" ">
<polygon fill="none" stroke="#bfbfbf" points="1199,-196 1199,-215 1355,-215 1355,-196 1199,-196"/>
<text text-anchor="middle" x="1277" y="-203" font-family="Helvetica,sans-Serif" font-size="10.00">iDynTree/Core/MatrixDynSize.h</text>
</a>
</g>
</g>
<!-- Node21&#45;&gt;Node24 -->
<g id="edge32" class="edge">
<title>Node21&#45;&gt;Node24</title>
<path fill="none" stroke="midnightblue" d="M982.9,-258.66C985.97,-258.1 989.02,-257.54 992,-257 1070.12,-242.82 1160.39,-226.9 1218.04,-216.8"/>
<polygon fill="midnightblue" stroke="midnightblue" points="1218.81,-220.22 1228.06,-215.04 1217.61,-213.32 1218.81,-220.22"/>
</g>
<!-- Node25 -->
<g id="node25" class="node">
<title>Node25</title>
<g id="a_node25"><a xlink:title=" ">
<polygon fill="none" stroke="#bfbfbf" points="1373,-196 1373,-215 1525,-215 1525,-196 1373,-196"/>
<text text-anchor="middle" x="1449" y="-203" font-family="Helvetica,sans-Serif" font-size="10.00">iDynTree/Core/MatrixFixSize.h</text>
</a>
</g>
</g>
<!-- Node21&#45;&gt;Node25 -->
<g id="edge33" class="edge">
<title>Node21&#45;&gt;Node25</title>
<path fill="none" stroke="midnightblue" d="M982.85,-258.36C985.94,-257.88 989,-257.42 992,-257 1156.48,-233.8 1199.36,-242.98 1364,-221 1373.36,-219.75 1383.27,-218.24 1392.89,-216.66"/>
<polygon fill="midnightblue" stroke="midnightblue" points="1393.49,-220.11 1402.77,-215.01 1392.33,-213.21 1393.49,-220.11"/>
</g>
<!-- Node26 -->
<g id="node26" class="node">
<title>Node26</title>
<g id="a_node26"><a xlink:title=" ">
<polygon fill="none" stroke="#bfbfbf" points="1543,-196 1543,-215 1679,-215 1679,-196 1543,-196"/>
<text text-anchor="middle" x="1611" y="-203" font-family="Helvetica,sans-Serif" font-size="10.00">iDynTree/Core/Transform.h</text>
</a>
</g>
</g>
<!-- Node21&#45;&gt;Node26 -->
<g id="edge34" class="edge">
<title>Node21&#45;&gt;Node26</title>
<path fill="none" stroke="midnightblue" d="M982.83,-258.25C985.93,-257.8 988.99,-257.38 992,-257 1231.53,-226.89 1294.5,-251.39 1534,-221 1542.73,-219.89 1551.96,-218.42 1560.88,-216.84"/>
<polygon fill="midnightblue" stroke="midnightblue" points="1561.58,-220.27 1570.78,-215.02 1560.31,-213.38 1561.58,-220.27"/>
</g>
<!-- Node27 -->
<g id="node27" class="node">
<title>Node27</title>
<g id="a_node27"><a xlink:title=" ">
<polygon fill="none" stroke="#bfbfbf" points="704.5,-196 704.5,-215 819.5,-215 819.5,-196 704.5,-196"/>
<text text-anchor="middle" x="762" y="-203" font-family="Helvetica,sans-Serif" font-size="10.00">iDynTree/Core/Twist.h</text>
</a>
</g>
</g>
<!-- Node21&#45;&gt;Node27 -->
<g id="edge35" class="edge">
<title>Node21&#45;&gt;Node27</title>
<path fill="none" stroke="midnightblue" d="M881.02,-257.4C854.23,-245.94 816.81,-229.94 791.12,-218.95"/>
<polygon fill="midnightblue" stroke="midnightblue" points="792.46,-215.72 781.89,-215.01 789.71,-222.16 792.46,-215.72"/>
</g>
<!-- Node28 -->
<g id="node28" class="node">
<title>Node28</title>
<g id="a_node28"><a xlink:title=" ">
<polygon fill="none" stroke="#bfbfbf" points="837.5,-196 837.5,-215 990.5,-215 990.5,-196 837.5,-196"/>
<text text-anchor="middle" x="914" y="-203" font-family="Helvetica,sans-Serif" font-size="10.00">iDynTree/Core/VectorFixSize.h</text>
</a>
</g>
</g>
<!-- Node21&#45;&gt;Node28 -->
<g id="edge36" class="edge">
<title>Node21&#45;&gt;Node28</title>
<path fill="none" stroke="midnightblue" d="M914,-257.4C914,-248.06 914,-235.71 914,-225.52"/>
<polygon fill="midnightblue" stroke="midnightblue" points="917.5,-225.19 914,-215.19 910.5,-225.19 917.5,-225.19"/>
</g>
</g>
</svg>
        <g id="navigator" transform="translate(0 0)" fill="#404254">
                <rect fill="#f2f5e9" fill-opacity="0.5" stroke="#606060" stroke-width=".5" x="0" y="0" width="60" height="60"/>
                <use id="zoomplus" xlink:href="#zoomPlus" x="17" y="9" onmousedown="handleZoom(evt,'in')"/>
                <use id="zoomminus" xlink:href="#zoomMin" x="42" y="9" onmousedown="handleZoom(evt,'out')"/>
                <use id="reset" xlink:href="#resetDef" x="30" y="36" onmousedown="handleReset()"/>
                <g id="arrowUp" xlink:href="#dirArrow" transform="translate(30 24)" onmousedown="handlePan(0,-1)">
                  <use xlink:href="#rim" fill="#404040">
                        <set attributeName="fill" to="#808080" begin="arrowUp.mouseover" end="arrowUp.mouseout"/>
                  </use>
                  <path fill="none" stroke="white" stroke-width="1.5" d="M0,-3.0v7 M-2.5,-0.5L0,-3.0L2.5,-0.5"/>
                </g>
                <g id="arrowRight" xlink:href="#dirArrow" transform="rotate(90) translate(36 -43)" onmousedown="handlePan(1,0)">
                  <use xlink:href="#rim" fill="#404040">
                        <set attributeName="fill" to="#808080" begin="arrowRight.mouseover" end="arrowRight.mouseout"/>
                  </use>
                  <path fill="none" stroke="white" stroke-width="1.5" d="M0,-3.0v7 M-2.5,-0.5L0,-3.0L2.5,-0.5"/>
                </g>
                <g id="arrowDown" xlink:href="#dirArrow" transform="rotate(180) translate(-30 -48)" onmousedown="handlePan(0,1)">
                  <use xlink:href="#rim" fill="#404040">
                        <set attributeName="fill" to="#808080" begin="arrowDown.mouseover" end="arrowDown.mouseout"/>
                  </use>
                  <path fill="none" stroke="white" stroke-width="1.5" d="M0,-3.0v7 M-2.5,-0.5L0,-3.0L2.5,-0.5"/>
                </g>
                <g id="arrowLeft" xlink:href="#dirArrow" transform="rotate(270) translate(-36 17)" onmousedown="handlePan(-1,0)">
                  <use xlink:href="#rim" fill="#404040">
                        <set attributeName="fill" to="#808080" begin="arrowLeft.mouseover" end="arrowLeft.mouseout"/>
                  </use>
                  <path fill="none" stroke="white" stroke-width="1.5" d="M0,-3.0v7 M-2.5,-0.5L0,-3.0L2.5,-0.5"/>
                </g>
        </g>
        <svg viewBox="0 0 15 15" width="100%" height="30px" preserveAspectRatio="xMaxYMin meet">
         <g id="arrow_out" transform="scale(0.3 0.3)">
          <a xlink:href="FloatingBaseSystemDynamics_8h__incl_org.svg" target="_base">
           <rect id="button" ry="5" rx="5" y="6" x="6" height="38" width="38"
                fill="#f2f5e9" fill-opacity="0.5" stroke="#606060" stroke-width="1.0"/>
           <path id="arrow"
             d="M 11.500037,31.436501 C 11.940474,20.09759 22.043105,11.32322 32.158766,21.979434 L 37.068811,17.246167 C 37.068811,17.246167 37.088388,32 37.088388,32 L 22.160133,31.978069 C 22.160133,31.978069 26.997745,27.140456 26.997745,27.140456 C 18.528582,18.264221 13.291696,25.230495 11.500037,31.436501 z"
             style="fill:#404040;"/>
          </a>
         </g>
        </svg>
</svg>
