<?xml version="1.0" encoding="UTF-8" standalone="no"?>
<!DOCTYPE svg PUBLIC "-//W3C//DTD SVG 1.1//EN"
 "http://www.w3.org/Graphics/SVG/1.1/DTD/svg11.dtd">
<!-- Generated by graphviz version 2.43.0 (0)
 -->
<!-- Title: System/include/BipedalLocomotion/System/FloatingBaseSystemKinematics.h Pages: 1 -->
<svg width="1687pt" height="430pt"
 viewBox="0.00 0.00 1686.50 430.00" xmlns="http://www.w3.org/2000/svg" xmlns:xlink="http://www.w3.org/1999/xlink">
<g id="graph0" class="graph" transform="scale(1 1) rotate(0) translate(4 426)">
<title>System/include/BipedalLocomotion/System/FloatingBaseSystemKinematics.h</title>
<!-- Node1 -->
<g id="node1" class="node">
<title>Node1</title>
<g id="a_node1"><a xlink:title=" ">
<polygon fill="#bfbfbf" stroke="black" points="274,-391.5 274,-421.5 478,-421.5 478,-391.5 274,-391.5"/>
<text text-anchor="start" x="282" y="-409.5" font-family="Helvetica,sans-Serif" font-size="10.00">System/include/BipedalLocomotion</text>
<text text-anchor="middle" x="376" y="-398.5" font-family="Helvetica,sans-Serif" font-size="10.00">/System/FloatingBaseSystemKinematics.h</text>
</a>
</g>
</g>
<!-- Node2 -->
<g id="node2" class="node">
<title>Node2</title>
<g id="a_node2"><a xlink:title=" ">
<polygon fill="none" stroke="#bfbfbf" points="285,-62 285,-81 337,-81 337,-62 285,-62"/>
<text text-anchor="middle" x="311" y="-69" font-family="Helvetica,sans-Serif" font-size="10.00">memory</text>
</a>
</g>
</g>
<!-- Node1&#45;&gt;Node2 -->
<g id="edge1" class="edge">
<title>Node1&#45;&gt;Node2</title>
<path fill="none" stroke="midnightblue" d="M281.6,-391.49C170.23,-372.25 0,-333.08 0,-273.5 0,-273.5 0,-273.5 0,-204.5 0,-86.36 192.53,-72.41 274.62,-71.83"/>
<polygon fill="midnightblue" stroke="midnightblue" points="274.75,-75.33 284.75,-71.82 274.75,-68.33 274.75,-75.33"/>
</g>
<!-- Node3 -->
<g id="node3" class="node">
<title>Node3</title>
<g id="a_node3"><a xlink:title=" ">
<polygon fill="none" stroke="#bfbfbf" points="335,-129 335,-148 379,-148 379,-129 335,-129"/>
<text text-anchor="middle" x="357" y="-136" font-family="Helvetica,sans-Serif" font-size="10.00">vector</text>
</a>
</g>
</g>
<!-- Node1&#45;&gt;Node3 -->
<g id="edge2" class="edge">
<title>Node1&#45;&gt;Node3</title>
<path fill="none" stroke="midnightblue" d="M371.01,-391.4C359.46,-357.03 332.64,-266.13 343,-190 344.48,-179.13 347.67,-167.29 350.64,-157.81"/>
<polygon fill="midnightblue" stroke="midnightblue" points="353.97,-158.88 353.78,-148.29 347.32,-156.69 353.97,-158.88"/>
</g>
<!-- Node4 -->
<g id="node4" class="node">
<title>Node4</title>
<g id="a_node4"><a xlink:href="DynamicalSystem_8h.html" target="_top" xlink:title=" ">
<polygon fill="none" stroke="black" points="122,-257.5 122,-287.5 258,-287.5 258,-257.5 122,-257.5"/>
<text text-anchor="start" x="130" y="-275.5" font-family="Helvetica,sans-Serif" font-size="10.00">BipedalLocomotion/System</text>
<text text-anchor="middle" x="190" y="-264.5" font-family="Helvetica,sans-Serif" font-size="10.00">/DynamicalSystem.h</text>
</a>
</g>
</g>
<!-- Node1&#45;&gt;Node4 -->
<g id="edge3" class="edge">
<title>Node1&#45;&gt;Node4</title>
<path fill="none" stroke="midnightblue" d="M356.09,-391.37C322.95,-367.85 256.35,-320.59 218.32,-293.6"/>
<polygon fill="midnightblue" stroke="midnightblue" points="219.94,-290.46 209.76,-287.52 215.89,-296.17 219.94,-290.46"/>
</g>
<!-- Node10 -->
<g id="node10" class="node">
<title>Node10</title>
<g id="a_node10"><a xlink:href="IParametersHandler_8h.html" target="_top" xlink:title=" ">
<polygon fill="none" stroke="black" points="352,-190.5 352,-220.5 504,-220.5 504,-190.5 352,-190.5"/>
<text text-anchor="start" x="360" y="-208.5" font-family="Helvetica,sans-Serif" font-size="10.00">BipedalLocomotion/Parameters</text>
<text text-anchor="middle" x="428" y="-197.5" font-family="Helvetica,sans-Serif" font-size="10.00">Handler/IParametersHandler.h</text>
</a>
</g>
</g>
<!-- Node1&#45;&gt;Node10 -->
<g id="edge39" class="edge">
<title>Node1&#45;&gt;Node10</title>
<path fill="none" stroke="midnightblue" d="M379.74,-391.19C388.57,-357.41 410.77,-272.44 421.71,-230.57"/>
<polygon fill="midnightblue" stroke="midnightblue" points="425.15,-231.24 424.29,-220.68 418.38,-229.47 425.15,-231.24"/>
</g>
<!-- Node18 -->
<g id="node18" class="node">
<title>Node18</title>
<g id="a_node18"><a xlink:href="ContactWrench_8h.html" target="_top" xlink:title=" ">
<polygon fill="none" stroke="black" points="829,-324.5 829,-354.5 965,-354.5 965,-324.5 829,-324.5"/>
<text text-anchor="start" x="837" y="-342.5" font-family="Helvetica,sans-Serif" font-size="10.00">BipedalLocomotion/System</text>
<text text-anchor="middle" x="897" y="-331.5" font-family="Helvetica,sans-Serif" font-size="10.00">/ContactWrench.h</text>
</a>
</g>
</g>
<!-- Node1&#45;&gt;Node18 -->
<g id="edge24" class="edge">
<title>Node1&#45;&gt;Node18</title>
<path fill="none" stroke="midnightblue" d="M478,-392.77C577.94,-380.31 728.08,-361.57 818.89,-350.25"/>
<polygon fill="midnightblue" stroke="midnightblue" points="819.35,-353.71 828.84,-349 818.49,-346.77 819.35,-353.71"/>
</g>
<!-- Node29 -->
<g id="node29" class="node">
<title>Node29</title>
<g id="a_node29"><a xlink:title=" ">
<polygon fill="none" stroke="#bfbfbf" points="983.5,-330 983.5,-349 1056.5,-349 1056.5,-330 983.5,-330"/>
<text text-anchor="middle" x="1020" y="-337" font-family="Helvetica,sans-Serif" font-size="10.00">Eigen/Dense</text>
</a>
</g>
</g>
<!-- Node1&#45;&gt;Node29 -->
<g id="edge40" class="edge">
<title>Node1&#45;&gt;Node29</title>
<path fill="none" stroke="midnightblue" d="M478.26,-403.72C598.1,-400.06 802.15,-388.91 974,-355 978.16,-354.18 982.47,-353.12 986.72,-351.94"/>
<polygon fill="midnightblue" stroke="midnightblue" points="987.81,-355.26 996.39,-349.04 985.8,-348.56 987.81,-355.26"/>
</g>
<!-- Node4&#45;&gt;Node2 -->
<g id="edge4" class="edge">
<title>Node4&#45;&gt;Node2</title>
<path fill="none" stroke="midnightblue" d="M154.01,-257.35C138.45,-249.22 121.81,-237.32 113,-221 106.45,-208.88 106.18,-201.97 113,-190 147.73,-129 227.99,-96.4 274.97,-81.94"/>
<polygon fill="midnightblue" stroke="midnightblue" points="276.14,-85.24 284.74,-79.04 274.16,-78.53 276.14,-85.24"/>
</g>
<!-- Node5 -->
<g id="node5" class="node">
<title>Node5</title>
<g id="a_node5"><a xlink:title=" ">
<polygon fill="none" stroke="#bfbfbf" points="28,-196 28,-215 66,-215 66,-196 28,-196"/>
<text text-anchor="middle" x="47" y="-203" font-family="Helvetica,sans-Serif" font-size="10.00">tuple</text>
</a>
</g>
</g>
<!-- Node4&#45;&gt;Node5 -->
<g id="edge5" class="edge">
<title>Node4&#45;&gt;Node5</title>
<path fill="none" stroke="midnightblue" d="M158.97,-257.4C133.99,-246.04 99.18,-230.22 75.04,-219.24"/>
<polygon fill="midnightblue" stroke="midnightblue" points="76.27,-215.96 65.72,-215.01 73.37,-222.33 76.27,-215.96"/>
</g>
<!-- Node6 -->
<g id="node6" class="node">
<title>Node6</title>
<g id="a_node6"><a xlink:href="TemplateHelpers_8h_source.html" target="_top" xlink:title=" ">
<polygon fill="none" stroke="black" points="355.5,-56.5 355.5,-86.5 498.5,-86.5 498.5,-56.5 355.5,-56.5"/>
<text text-anchor="start" x="363.5" y="-74.5" font-family="Helvetica,sans-Serif" font-size="10.00">BipedalLocomotion/Generic</text>
<text text-anchor="middle" x="427" y="-63.5" font-family="Helvetica,sans-Serif" font-size="10.00">Container/TemplateHelpers.h</text>
</a>
</g>
</g>
<!-- Node4&#45;&gt;Node6 -->
<g id="edge6" class="edge">
<title>Node4&#45;&gt;Node6</title>
<path fill="none" stroke="midnightblue" d="M217.86,-257.31C233.56,-248.37 252.81,-235.75 267,-221 302.25,-184.36 288.67,-157.52 326,-123 340.57,-109.52 359.42,-98.81 376.88,-90.78"/>
<polygon fill="midnightblue" stroke="midnightblue" points="378.65,-93.82 386.4,-86.59 375.83,-87.41 378.65,-93.82"/>
</g>
<!-- Node4&#45;&gt;Node10 -->
<g id="edge10" class="edge">
<title>Node4&#45;&gt;Node10</title>
<path fill="none" stroke="midnightblue" d="M241.35,-257.48C277.98,-247.47 327.41,-233.97 366.2,-223.38"/>
<polygon fill="midnightblue" stroke="midnightblue" points="367.61,-226.62 376.33,-220.61 365.76,-219.87 367.61,-226.62"/>
</g>
<!-- Node17 -->
<g id="node17" class="node">
<title>Node17</title>
<g id="a_node17"><a xlink:href="DynamicalSystem_8tpp.html" target="_top" xlink:title=" ">
<polygon fill="none" stroke="black" points="122,-190.5 122,-220.5 258,-220.5 258,-190.5 122,-190.5"/>
<text text-anchor="start" x="130" y="-208.5" font-family="Helvetica,sans-Serif" font-size="10.00">BipedalLocomotion/System</text>
<text text-anchor="middle" x="190" y="-197.5" font-family="Helvetica,sans-Serif" font-size="10.00">/DynamicalSystem.tpp</text>
</a>
</g>
</g>
<!-- Node4&#45;&gt;Node17 -->
<g id="edge22" class="edge">
<title>Node4&#45;&gt;Node17</title>
<path fill="none" stroke="midnightblue" d="M184.32,-257.4C183.29,-249.56 183.01,-239.6 183.46,-230.57"/>
<polygon fill="midnightblue" stroke="midnightblue" points="186.95,-230.84 184.33,-220.58 179.97,-230.24 186.95,-230.84"/>
</g>
<!-- Node7 -->
<g id="node7" class="node">
<title>Node7</title>
<g id="a_node7"><a xlink:title=" ">
<polygon fill="none" stroke="#bfbfbf" points="314,-0.5 314,-19.5 376,-19.5 376,-0.5 314,-0.5"/>
<text text-anchor="middle" x="345" y="-7.5" font-family="Helvetica,sans-Serif" font-size="10.00">type_traits</text>
</a>
</g>
</g>
<!-- Node6&#45;&gt;Node7 -->
<g id="edge7" class="edge">
<title>Node6&#45;&gt;Node7</title>
<path fill="none" stroke="midnightblue" d="M407.57,-56.4C394.79,-47.13 378.11,-35.03 365.19,-25.65"/>
<polygon fill="midnightblue" stroke="midnightblue" points="367.08,-22.7 356.93,-19.66 362.97,-28.36 367.08,-22.7"/>
</g>
<!-- Node8 -->
<g id="node8" class="node">
<title>Node8</title>
<g id="a_node8"><a xlink:title=" ">
<polygon fill="none" stroke="#bfbfbf" points="394,-0.5 394,-19.5 460,-19.5 460,-0.5 394,-0.5"/>
<text text-anchor="middle" x="427" y="-7.5" font-family="Helvetica,sans-Serif" font-size="10.00">string_view</text>
</a>
</g>
</g>
<!-- Node6&#45;&gt;Node8 -->
<g id="edge8" class="edge">
<title>Node6&#45;&gt;Node8</title>
<path fill="none" stroke="midnightblue" d="M427,-56.4C427,-48.47 427,-38.46 427,-29.86"/>
<polygon fill="midnightblue" stroke="midnightblue" points="430.5,-29.66 427,-19.66 423.5,-29.66 430.5,-29.66"/>
</g>
<!-- Node9 -->
<g id="node9" class="node">
<title>Node9</title>
<g id="a_node9"><a xlink:title=" ">
<polygon fill="none" stroke="#bfbfbf" points="478.5,-0.5 478.5,-19.5 543.5,-19.5 543.5,-0.5 478.5,-0.5"/>
<text text-anchor="middle" x="511" y="-7.5" font-family="Helvetica,sans-Serif" font-size="10.00">Eigen/Core</text>
</a>
</g>
</g>
<!-- Node6&#45;&gt;Node9 -->
<g id="edge9" class="edge">
<title>Node6&#45;&gt;Node9</title>
<path fill="none" stroke="midnightblue" d="M446.91,-56.4C459.99,-47.13 477.08,-35.03 490.32,-25.65"/>
<polygon fill="midnightblue" stroke="midnightblue" points="492.64,-28.29 498.78,-19.66 488.59,-22.58 492.64,-28.29"/>
</g>
<!-- Node10&#45;&gt;Node2 -->
<g id="edge11" class="edge">
<title>Node10&#45;&gt;Node2</title>
<path fill="none" stroke="midnightblue" d="M423.7,-190.5C417.83,-173.13 405.94,-143.32 388,-123 374.2,-107.37 354.48,-94.56 338.45,-85.75"/>
<polygon fill="midnightblue" stroke="midnightblue" points="339.99,-82.61 329.51,-81.04 336.73,-88.8 339.99,-82.61"/>
</g>
<!-- Node10&#45;&gt;Node3 -->
<g id="edge13" class="edge">
<title>Node10&#45;&gt;Node3</title>
<path fill="none" stroke="midnightblue" d="M412.59,-190.4C401.19,-179.96 385.67,-165.75 373.93,-155"/>
<polygon fill="midnightblue" stroke="midnightblue" points="376.24,-152.37 366.5,-148.19 371.51,-157.53 376.24,-152.37"/>
</g>
<!-- Node10&#45;&gt;Node6 -->
<g id="edge21" class="edge">
<title>Node10&#45;&gt;Node6</title>
<path fill="none" stroke="midnightblue" d="M429.17,-190.36C430.37,-174.11 431.93,-146.63 431,-123 430.66,-114.45 430,-105.09 429.31,-96.79"/>
<polygon fill="midnightblue" stroke="midnightblue" points="432.78,-96.29 428.42,-86.63 425.81,-96.9 432.78,-96.29"/>
</g>
<!-- Node11 -->
<g id="node11" class="node">
<title>Node11</title>
<g id="a_node11"><a xlink:title=" ">
<polygon fill="none" stroke="#bfbfbf" points="783.5,-129 783.5,-148 824.5,-148 824.5,-129 783.5,-129"/>
<text text-anchor="middle" x="804" y="-136" font-family="Helvetica,sans-Serif" font-size="10.00">string</text>
</a>
</g>
</g>
<!-- Node10&#45;&gt;Node11 -->
<g id="edge12" class="edge">
<title>Node10&#45;&gt;Node11</title>
<path fill="none" stroke="midnightblue" d="M504.09,-191.35C586.71,-177.06 714.68,-154.94 773.06,-144.85"/>
<polygon fill="midnightblue" stroke="midnightblue" points="773.87,-148.26 783.13,-143.11 772.68,-141.36 773.87,-148.26"/>
</g>
<!-- Node12 -->
<g id="node12" class="node">
<title>Node12</title>
<g id="a_node12"><a xlink:href="Vector_8h_source.html" target="_top" xlink:title=" ">
<polygon fill="none" stroke="black" points="559,-123.5 559,-153.5 695,-153.5 695,-123.5 559,-123.5"/>
<text text-anchor="start" x="567" y="-141.5" font-family="Helvetica,sans-Serif" font-size="10.00">BipedalLocomotion/Generic</text>
<text text-anchor="middle" x="627" y="-130.5" font-family="Helvetica,sans-Serif" font-size="10.00">Container/Vector.h</text>
</a>
</g>
</g>
<!-- Node10&#45;&gt;Node12 -->
<g id="edge14" class="edge">
<title>Node10&#45;&gt;Node12</title>
<path fill="none" stroke="midnightblue" d="M471.18,-190.4C501.43,-180.52 542.03,-167.25 574.21,-156.74"/>
<polygon fill="midnightblue" stroke="midnightblue" points="575.49,-160.01 583.9,-153.58 573.31,-153.35 575.49,-160.01"/>
</g>
<!-- Node12&#45;&gt;Node2 -->
<g id="edge20" class="edge">
<title>Node12&#45;&gt;Node2</title>
<path fill="none" stroke="midnightblue" d="M558.78,-129.17C501.53,-121.24 417.96,-107.46 347,-87 344.56,-86.3 342.07,-85.49 339.58,-84.62"/>
<polygon fill="midnightblue" stroke="midnightblue" points="340.77,-81.33 330.18,-81.07 338.29,-87.88 340.77,-81.33"/>
</g>
<!-- Node12&#45;&gt;Node6 -->
<g id="edge16" class="edge">
<title>Node12&#45;&gt;Node6</title>
<path fill="none" stroke="midnightblue" d="M583.6,-123.4C553.2,-113.52 512.39,-100.25 480.06,-89.74"/>
<polygon fill="midnightblue" stroke="midnightblue" points="480.9,-86.34 470.31,-86.58 478.74,-93 480.9,-86.34"/>
</g>
<!-- Node13 -->
<g id="node13" class="node">
<title>Node13</title>
<g id="a_node13"><a xlink:title=" ">
<polygon fill="none" stroke="#bfbfbf" points="517,-62 517,-81 631,-81 631,-62 517,-62"/>
<text text-anchor="middle" x="574" y="-69" font-family="Helvetica,sans-Serif" font-size="10.00">iDynTree/Core/Span.h</text>
</a>
</g>
</g>
<!-- Node12&#45;&gt;Node13 -->
<g id="edge15" class="edge">
<title>Node12&#45;&gt;Node13</title>
<path fill="none" stroke="midnightblue" d="M615.5,-123.4C607.32,-113.36 596.29,-99.84 587.66,-89.25"/>
<polygon fill="midnightblue" stroke="midnightblue" points="590.12,-86.73 581.09,-81.19 584.7,-91.16 590.12,-86.73"/>
</g>
<!-- Node14 -->
<g id="node14" class="node">
<title>Node14</title>
<g id="a_node14"><a xlink:title=" ">
<polygon fill="none" stroke="#bfbfbf" points="649.5,-62 649.5,-81 708.5,-81 708.5,-62 649.5,-62"/>
<text text-anchor="middle" x="679" y="-69" font-family="Helvetica,sans-Serif" font-size="10.00">functional</text>
</a>
</g>
</g>
<!-- Node12&#45;&gt;Node14 -->
<g id="edge17" class="edge">
<title>Node12&#45;&gt;Node14</title>
<path fill="none" stroke="midnightblue" d="M638.28,-123.4C646.31,-113.36 657.13,-99.84 665.6,-89.25"/>
<polygon fill="midnightblue" stroke="midnightblue" points="668.53,-91.19 672.04,-81.19 663.06,-86.82 668.53,-91.19"/>
</g>
<!-- Node15 -->
<g id="node15" class="node">
<title>Node15</title>
<g id="a_node15"><a xlink:title=" ">
<polygon fill="none" stroke="#bfbfbf" points="726.5,-62 726.5,-81 775.5,-81 775.5,-62 726.5,-62"/>
<text text-anchor="middle" x="751" y="-69" font-family="Helvetica,sans-Serif" font-size="10.00">cassert</text>
</a>
</g>
</g>
<!-- Node12&#45;&gt;Node15 -->
<g id="edge18" class="edge">
<title>Node12&#45;&gt;Node15</title>
<path fill="none" stroke="midnightblue" d="M653.91,-123.4C675.28,-112.19 704.95,-96.64 725.85,-85.69"/>
<polygon fill="midnightblue" stroke="midnightblue" points="727.54,-88.75 734.77,-81.01 724.29,-82.55 727.54,-88.75"/>
</g>
<!-- Node16 -->
<g id="node16" class="node">
<title>Node16</title>
<g id="a_node16"><a xlink:title=" ">
<polygon fill="none" stroke="#bfbfbf" points="794,-62 794,-81 848,-81 848,-62 794,-62"/>
<text text-anchor="middle" x="821" y="-69" font-family="Helvetica,sans-Serif" font-size="10.00">iostream</text>
</a>
</g>
</g>
<!-- Node12&#45;&gt;Node16 -->
<g id="edge19" class="edge">
<title>Node12&#45;&gt;Node16</title>
<path fill="none" stroke="midnightblue" d="M673.97,-123.48C705.56,-113.81 748.02,-100.34 785,-87 786.9,-86.31 788.85,-85.59 790.81,-84.85"/>
<polygon fill="midnightblue" stroke="midnightblue" points="792.5,-87.94 800.54,-81.04 789.95,-81.42 792.5,-87.94"/>
</g>
<!-- Node17&#45;&gt;Node4 -->
<g id="edge23" class="edge">
<title>Node17&#45;&gt;Node4</title>
<path fill="none" stroke="midnightblue" d="M195.67,-220.58C196.7,-228.41 196.99,-238.37 196.55,-247.4"/>
<polygon fill="midnightblue" stroke="midnightblue" points="193.06,-247.13 195.68,-257.4 200.03,-247.74 193.06,-247.13"/>
</g>
<!-- Node19 -->
<g id="node19" class="node">
<title>Node19</title>
<g id="a_node19"><a xlink:title=" ">
<polygon fill="none" stroke="#bfbfbf" points="1553.5,-196 1553.5,-215 1678.5,-215 1678.5,-196 1553.5,-196"/>
<text text-anchor="middle" x="1616" y="-203" font-family="Helvetica,sans-Serif" font-size="10.00">iDynTree/Core/Wrench.h</text>
</a>
</g>
</g>
<!-- Node18&#45;&gt;Node19 -->
<g id="edge25" class="edge">
<title>Node18&#45;&gt;Node19</title>
<path fill="none" stroke="midnightblue" d="M965.06,-325.83C968.42,-325.21 971.75,-324.6 975,-324 1227.78,-277.63 1291.57,-269.26 1544,-221 1550.56,-219.75 1557.46,-218.4 1564.27,-217.04"/>
<polygon fill="midnightblue" stroke="midnightblue" points="1565.03,-220.46 1574.15,-215.07 1563.66,-213.6 1565.03,-220.46"/>
</g>
<!-- Node20 -->
<g id="node20" class="node">
<title>Node20</title>
<g id="a_node20"><a xlink:title=" ">
<polygon fill="none" stroke="#bfbfbf" points="984,-263 984,-282 1112,-282 1112,-263 984,-263"/>
<text text-anchor="middle" x="1048" y="-270" font-family="Helvetica,sans-Serif" font-size="10.00">iDynTree/Model/Indices.h</text>
</a>
</g>
</g>
<!-- Node18&#45;&gt;Node20 -->
<g id="edge26" class="edge">
<title>Node18&#45;&gt;Node20</title>
<path fill="none" stroke="midnightblue" d="M929.76,-324.4C956.26,-312.99 993.22,-297.08 1018.73,-286.1"/>
<polygon fill="midnightblue" stroke="midnightblue" points="1020.44,-289.18 1028.24,-282.01 1017.67,-282.75 1020.44,-289.18"/>
</g>
<!-- Node21 -->
<g id="node21" class="node">
<title>Node21</title>
<g id="a_node21"><a xlink:href="ContactModel_8h.html" target="_top" xlink:title=" ">
<polygon fill="none" stroke="black" points="828.5,-257.5 828.5,-287.5 965.5,-287.5 965.5,-257.5 828.5,-257.5"/>
<text text-anchor="start" x="836.5" y="-275.5" font-family="Helvetica,sans-Serif" font-size="10.00">BipedalLocomotion/Contact</text>
<text text-anchor="middle" x="897" y="-264.5" font-family="Helvetica,sans-Serif" font-size="10.00">Models/ContactModel.h</text>
</a>
</g>
</g>
<!-- Node18&#45;&gt;Node21 -->
<g id="edge27" class="edge">
<title>Node18&#45;&gt;Node21</title>
<path fill="none" stroke="midnightblue" d="M897,-324.4C897,-316.64 897,-306.81 897,-297.86"/>
<polygon fill="midnightblue" stroke="midnightblue" points="900.5,-297.58 897,-287.58 893.5,-297.58 900.5,-297.58"/>
</g>
<!-- Node21&#45;&gt;Node2 -->
<g id="edge29" class="edge">
<title>Node21&#45;&gt;Node2</title>
<path fill="none" stroke="midnightblue" d="M828.35,-271.84C756.6,-269.86 642.14,-260.01 552,-221 531.68,-212.2 530.91,-203.02 513,-190 469.43,-158.32 458.62,-149.98 412,-123 387.98,-109.1 359.64,-95.13 339.1,-85.41"/>
<polygon fill="midnightblue" stroke="midnightblue" points="340.52,-82.21 329.98,-81.14 337.54,-88.55 340.52,-82.21"/>
</g>
<!-- Node21&#45;&gt;Node10 -->
<g id="edge38" class="edge">
<title>Node21&#45;&gt;Node10</title>
<path fill="none" stroke="midnightblue" d="M828.45,-262.94C752.48,-253.31 626.36,-236.95 518,-221 516.72,-220.81 515.44,-220.62 514.14,-220.43"/>
<polygon fill="midnightblue" stroke="midnightblue" points="514.5,-216.94 504.09,-218.91 513.45,-223.86 514.5,-216.94"/>
</g>
<!-- Node21&#45;&gt;Node11 -->
<g id="edge30" class="edge">
<title>Node21&#45;&gt;Node11</title>
<path fill="none" stroke="midnightblue" d="M891.62,-257.44C884.78,-240.53 871.93,-211.71 856,-190 846.48,-177.03 833.51,-164.42 822.9,-155.05"/>
<polygon fill="midnightblue" stroke="midnightblue" points="824.87,-152.13 815.01,-148.28 820.32,-157.45 824.87,-152.13"/>
</g>
<!-- Node21&#45;&gt;Node19 -->
<g id="edge37" class="edge">
<title>Node21&#45;&gt;Node19</title>
<path fill="none" stroke="midnightblue" d="M965.83,-258.24C968.93,-257.79 971.99,-257.37 975,-257 1226.46,-225.79 1292.78,-254.09 1544,-221 1551.91,-219.96 1560.26,-218.56 1568.35,-217.04"/>
<polygon fill="midnightblue" stroke="midnightblue" points="1569.28,-220.42 1578.42,-215.07 1567.93,-213.56 1569.28,-220.42"/>
</g>
<!-- Node22 -->
<g id="node22" class="node">
<title>Node22</title>
<g id="a_node22"><a xlink:title=" ">
<polygon fill="none" stroke="#bfbfbf" points="903,-196 903,-215 935,-215 935,-196 903,-196"/>
<text text-anchor="middle" x="919" y="-203" font-family="Helvetica,sans-Serif" font-size="10.00">any</text>
</a>
</g>
</g>
<!-- Node21&#45;&gt;Node22 -->
<g id="edge28" class="edge">
<title>Node21&#45;&gt;Node22</title>
<path fill="none" stroke="midnightblue" d="M901.77,-257.4C905,-247.86 909.29,-235.18 912.79,-224.86"/>
<polygon fill="midnightblue" stroke="midnightblue" points="916.17,-225.79 916.06,-215.19 909.54,-223.54 916.17,-225.79"/>
</g>
<!-- Node23 -->
<g id="node23" class="node">
<title>Node23</title>
<g id="a_node23"><a xlink:title=" ">
<polygon fill="none" stroke="#bfbfbf" points="953.5,-196 953.5,-215 1036.5,-215 1036.5,-196 953.5,-196"/>
<text text-anchor="middle" x="995" y="-203" font-family="Helvetica,sans-Serif" font-size="10.00">unordered_map</text>
</a>
</g>
</g>
<!-- Node21&#45;&gt;Node23 -->
<g id="edge31" class="edge">
<title>Node21&#45;&gt;Node23</title>
<path fill="none" stroke="midnightblue" d="M918.26,-257.4C934.7,-246.5 957.34,-231.48 973.77,-220.58"/>
<polygon fill="midnightblue" stroke="midnightblue" points="975.78,-223.45 982.17,-215.01 971.91,-217.62 975.78,-223.45"/>
</g>
<!-- Node24 -->
<g id="node24" class="node">
<title>Node24</title>
<g id="a_node24"><a xlink:title=" ">
<polygon fill="none" stroke="#bfbfbf" points="1055,-196 1055,-215 1211,-215 1211,-196 1055,-196"/>
<text text-anchor="middle" x="1133" y="-203" font-family="Helvetica,sans-Serif" font-size="10.00">iDynTree/Core/MatrixDynSize.h</text>
</a>
</g>
</g>
<!-- Node21&#45;&gt;Node24 -->
<g id="edge32" class="edge">
<title>Node21&#45;&gt;Node24</title>
<path fill="none" stroke="midnightblue" d="M947.92,-257.48C991.14,-245.57 1052.34,-228.72 1092.34,-217.7"/>
<polygon fill="midnightblue" stroke="midnightblue" points="1093.32,-221.06 1102.03,-215.03 1091.46,-214.31 1093.32,-221.06"/>
</g>
<!-- Node25 -->
<g id="node25" class="node">
<title>Node25</title>
<g id="a_node25"><a xlink:title=" ">
<polygon fill="none" stroke="#bfbfbf" points="1229,-196 1229,-215 1381,-215 1381,-196 1229,-196"/>
<text text-anchor="middle" x="1305" y="-203" font-family="Helvetica,sans-Serif" font-size="10.00">iDynTree/Core/MatrixFixSize.h</text>
</a>
</g>
</g>
<!-- Node21&#45;&gt;Node25 -->
<g id="edge33" class="edge">
<title>Node21&#45;&gt;Node25</title>
<path fill="none" stroke="midnightblue" d="M965.88,-258.55C968.96,-258.02 972.01,-257.5 975,-257 1083.57,-238.94 1111.3,-238.25 1220,-221 1228.4,-219.67 1237.25,-218.21 1245.94,-216.76"/>
<polygon fill="midnightblue" stroke="midnightblue" points="1246.76,-220.17 1256.04,-215.05 1245.6,-213.26 1246.76,-220.17"/>
</g>
<!-- Node26 -->
<g id="node26" class="node">
<title>Node26</title>
<g id="a_node26"><a xlink:title=" ">
<polygon fill="none" stroke="#bfbfbf" points="1399,-196 1399,-215 1535,-215 1535,-196 1399,-196"/>
<text text-anchor="middle" x="1467" y="-203" font-family="Helvetica,sans-Serif" font-size="10.00">iDynTree/Core/Transform.h</text>
</a>
</g>
</g>
<!-- Node21&#45;&gt;Node26 -->
<g id="edge34" class="edge">
<title>Node21&#45;&gt;Node26</title>
<path fill="none" stroke="midnightblue" d="M965.84,-258.33C968.93,-257.85 972,-257.41 975,-257 1158.45,-232.05 1206.58,-246.16 1390,-221 1398.43,-219.84 1407.33,-218.39 1415.98,-216.85"/>
<polygon fill="midnightblue" stroke="midnightblue" points="1416.76,-220.26 1425.96,-215.01 1415.5,-213.38 1416.76,-220.26"/>
</g>
<!-- Node27 -->
<g id="node27" class="node">
<title>Node27</title>
<g id="a_node27"><a xlink:title=" ">
<polygon fill="none" stroke="#bfbfbf" points="560.5,-196 560.5,-215 675.5,-215 675.5,-196 560.5,-196"/>
<text text-anchor="middle" x="618" y="-203" font-family="Helvetica,sans-Serif" font-size="10.00">iDynTree/Core/Twist.h</text>
</a>
</g>
</g>
<!-- Node21&#45;&gt;Node27 -->
<g id="edge35" class="edge">
<title>Node21&#45;&gt;Node27</title>
<path fill="none" stroke="midnightblue" d="M836.8,-257.48C785.17,-245.45 711.82,-228.36 664.57,-217.35"/>
<polygon fill="midnightblue" stroke="midnightblue" points="665.14,-213.89 654.61,-215.03 663.55,-220.71 665.14,-213.89"/>
</g>
<!-- Node28 -->
<g id="node28" class="node">
<title>Node28</title>
<g id="a_node28"><a xlink:title=" ">
<polygon fill="none" stroke="#bfbfbf" points="693.5,-196 693.5,-215 846.5,-215 846.5,-196 693.5,-196"/>
<text text-anchor="middle" x="770" y="-203" font-family="Helvetica,sans-Serif" font-size="10.00">iDynTree/Core/VectorFixSize.h</text>
</a>
</g>
</g>
<!-- Node21&#45;&gt;Node28 -->
<g id="edge36" class="edge">
<title>Node21&#45;&gt;Node28</title>
<path fill="none" stroke="midnightblue" d="M869.44,-257.4C847.55,-246.19 817.17,-230.64 795.76,-219.69"/>
<polygon fill="midnightblue" stroke="midnightblue" points="797.12,-216.45 786.62,-215.01 793.93,-222.68 797.12,-216.45"/>
</g>
</g>
</svg>
