<?xml version="1.0" encoding="UTF-8" standalone="no"?>
<!DOCTYPE svg PUBLIC "-//W3C//DTD SVG 1.1//EN"
 "http://www.w3.org/Graphics/SVG/1.1/DTD/svg11.dtd">
<!-- Generated by graphviz version 2.43.0 (0)
 -->
<!-- Title: Estimators/src/FloatingBaseEstimator.cpp Pages: 1 -->
<!--zoomable 374 -->
<svg id="main" version="1.1" xmlns="http://www.w3.org/2000/svg" xmlns:xlink="http://www.w3.org/1999/xlink" xml:space="preserve" onload="init(evt)">
<style type="text/css"><![CDATA[
.edge:hover path { stroke: red; }
.edge:hover polygon { stroke: red; fill: red; }
]]></style>
<script type="text/javascript"><![CDATA[
var edges = document.getElementsByTagName('g');
if (edges && edges.length) {
  for (var i=0;i<edges.length;i++) {
    if (edges[i].id.substr(0,4)=='edge') {
      edges[i].setAttribute('class','edge');
    }
  }
}
]]></script>
        <defs>
                <circle id="rim" cx="0" cy="0" r="7"/>
                <circle id="rim2" cx="0" cy="0" r="3.5"/>
                <g id="zoomPlus">
                        <use xlink:href="#rim" fill="#404040">
                                <set attributeName="fill" to="#808080" begin="zoomplus.mouseover" end="zoomplus.mouseout"/>
                        </use>
                        <path d="M-4,0h8M0,-4v8" fill="none" stroke="white" stroke-width="1.5" pointer-events="none"/>
                </g>
                <g id="zoomMin">
                        <use xlink:href="#rim" fill="#404040">
                                <set attributeName="fill" to="#808080" begin="zoomminus.mouseover" end="zoomminus.mouseout"/>
                        </use>
                        <path d="M-4,0h8" fill="none" stroke="white" stroke-width="1.5" pointer-events="none"/>
                </g>
                <g id="dirArrow">
                        <path fill="none" stroke="white" stroke-width="1.5" d="M0,-3.0v7 M-2.5,-0.5L0,-3.0L2.5,-0.5"/>
                </g>
               <g id="resetDef">
                       <use xlink:href="#rim2" fill="#404040">
                               <set attributeName="fill" to="#808080" begin="reset.mouseover" end="reset.mouseout"/>
                       </use>
               </g>
        </defs>

<script type="text/javascript">
var viewWidth = 1512;
var viewHeight = 374;
var sectionId = 'dynsection-0';
</script>
<script xlink:href="svgpan.js"/>
<svg id="graph" class="graph">
<g id="viewport">
<title>Estimators/src/FloatingBaseEstimator.cpp</title>
<!-- Node1 -->
<g id="node1" class="node">
<title>Node1</title>
<g id="a_node1"><a xlink:title=" ">
<polygon fill="#bfbfbf" stroke="black" points="1214,-335.5 1214,-365.5 1354,-365.5 1354,-335.5 1214,-335.5"/>
<text text-anchor="start" x="1222" y="-353.5" font-family="Helvetica,sans-Serif" font-size="10.00">Estimators/src/FloatingBase</text>
<text text-anchor="middle" x="1284" y="-342.5" font-family="Helvetica,sans-Serif" font-size="10.00">Estimator.cpp</text>
</a>
</g>
</g>
<!-- Node2 -->
<g id="node2" class="node">
<title>Node2</title>
<g id="a_node2"><a xlink:href="FloatingBaseEstimator_8h.html" target="_top" xlink:title=" ">
<polygon fill="none" stroke="black" points="453,-268.5 453,-298.5 649,-298.5 649,-268.5 453,-268.5"/>
<text text-anchor="start" x="461" y="-286.5" font-family="Helvetica,sans-Serif" font-size="10.00">BipedalLocomotion/Floating</text>
<text text-anchor="middle" x="551" y="-275.5" font-family="Helvetica,sans-Serif" font-size="10.00">BaseEstimators/FloatingBaseEstimator.h</text>
</a>
</g>
</g>
<!-- Node1&#45;&gt;Node2 -->
<g id="edge1" class="edge">
<title>Node1&#45;&gt;Node2</title>
<path fill="none" stroke="midnightblue" d="M1213.72,-343.27C1085.25,-331.88 811.76,-307.62 659.33,-294.11"/>
<polygon fill="midnightblue" stroke="midnightblue" points="659.29,-290.59 649.02,-293.19 658.67,-297.56 659.29,-290.59"/>
</g>
<!-- Node25 -->
<g id="node25" class="node">
<title>Node25</title>
<g id="a_node25"><a xlink:href="ManifConversions_8h.html" target="_top" xlink:title=" ">
<polygon fill="none" stroke="black" points="1205.5,-268.5 1205.5,-298.5 1362.5,-298.5 1362.5,-268.5 1205.5,-268.5"/>
<text text-anchor="start" x="1213.5" y="-286.5" font-family="Helvetica,sans-Serif" font-size="10.00">BipedalLocomotion/Conversions</text>
<text text-anchor="middle" x="1284" y="-275.5" font-family="Helvetica,sans-Serif" font-size="10.00">/ManifConversions.h</text>
</a>
</g>
</g>
<!-- Node1&#45;&gt;Node25 -->
<g id="edge30" class="edge">
<title>Node1&#45;&gt;Node25</title>
<path fill="none" stroke="midnightblue" d="M1284,-335.4C1284,-327.64 1284,-317.81 1284,-308.86"/>
<polygon fill="midnightblue" stroke="midnightblue" points="1287.5,-308.58 1284,-298.58 1280.5,-308.58 1287.5,-308.58"/>
</g>
<!-- Node28 -->
<g id="node28" class="node">
<title>Node28</title>
<g id="a_node28"><a xlink:title=" ">
<polygon fill="none" stroke="#bfbfbf" points="1380.5,-274 1380.5,-293 1503.5,-293 1503.5,-274 1380.5,-274"/>
<text text-anchor="middle" x="1442" y="-281" font-family="Helvetica,sans-Serif" font-size="10.00">iDynTree/Model/Model.h</text>
</a>
</g>
</g>
<!-- Node1&#45;&gt;Node28 -->
<g id="edge34" class="edge">
<title>Node1&#45;&gt;Node28</title>
<path fill="none" stroke="midnightblue" d="M1318.28,-335.4C1346.13,-323.94 1385.03,-307.94 1411.73,-296.95"/>
<polygon fill="midnightblue" stroke="midnightblue" points="1413.41,-300.05 1421.32,-293.01 1410.74,-293.57 1413.41,-300.05"/>
</g>
<!-- Node3 -->
<g id="node3" class="node">
<title>Node3</title>
<g id="a_node3"><a xlink:href="Advanceable_8h.html" target="_top" xlink:title=" ">
<polygon fill="none" stroke="black" points="0,-196 0,-226 136,-226 136,-196 0,-196"/>
<text text-anchor="start" x="8" y="-214" font-family="Helvetica,sans-Serif" font-size="10.00">BipedalLocomotion/System</text>
<text text-anchor="middle" x="68" y="-203" font-family="Helvetica,sans-Serif" font-size="10.00">/Advanceable.h</text>
</a>
</g>
</g>
<!-- Node2&#45;&gt;Node3 -->
<g id="edge2" class="edge">
<title>Node2&#45;&gt;Node3</title>
<path fill="none" stroke="midnightblue" d="M452.88,-273.3C371.39,-264.9 252.65,-250.92 150,-232 143.95,-230.88 137.67,-229.6 131.41,-228.22"/>
<polygon fill="midnightblue" stroke="midnightblue" points="132.15,-224.8 121.62,-226.01 130.6,-231.63 132.15,-224.8"/>
</g>
<!-- Node4 -->
<g id="node4" class="node">
<title>Node4</title>
<g id="a_node4"><a xlink:href="IParametersHandler_8h.html" target="_top" xlink:title=" ">
<polygon fill="none" stroke="black" points="268,-196 268,-226 420,-226 420,-196 268,-196"/>
<text text-anchor="start" x="276" y="-214" font-family="Helvetica,sans-Serif" font-size="10.00">BipedalLocomotion/Parameters</text>
<text text-anchor="middle" x="344" y="-203" font-family="Helvetica,sans-Serif" font-size="10.00">Handler/IParametersHandler.h</text>
</a>
</g>
</g>
<!-- Node2&#45;&gt;Node4 -->
<g id="edge3" class="edge">
<title>Node2&#45;&gt;Node4</title>
<path fill="none" stroke="midnightblue" d="M509.61,-268.4C476.61,-257.16 430.24,-241.37 394.96,-229.36"/>
<polygon fill="midnightblue" stroke="midnightblue" points="395.91,-225.98 385.32,-226.07 393.66,-232.61 395.91,-225.98"/>
</g>
<!-- Node5 -->
<g id="node5" class="node">
<title>Node5</title>
<g id="a_node5"><a xlink:title=" ">
<polygon fill="none" stroke="#bfbfbf" points="140,-62 140,-81 192,-81 192,-62 140,-62"/>
<text text-anchor="middle" x="166" y="-69" font-family="Helvetica,sans-Serif" font-size="10.00">memory</text>
</a>
</g>
</g>
<!-- Node2&#45;&gt;Node5 -->
<g id="edge29" class="edge">
<title>Node2&#45;&gt;Node5</title>
<path fill="none" stroke="midnightblue" d="M452.99,-272.65C381.48,-264.16 291.62,-250.35 259,-232 218.92,-209.45 213.34,-194.2 191,-154 179.79,-133.84 172.97,-108.02 169.34,-90.9"/>
<polygon fill="midnightblue" stroke="midnightblue" points="172.77,-90.19 167.4,-81.06 165.9,-91.54 172.77,-90.19"/>
</g>
<!-- Node16 -->
<g id="node16" class="node">
<title>Node16</title>
<g id="a_node16"><a xlink:title=" ">
<polygon fill="none" stroke="#bfbfbf" points="649,-62 649,-81 703,-81 703,-62 649,-62"/>
<text text-anchor="middle" x="676" y="-69" font-family="Helvetica,sans-Serif" font-size="10.00">iostream</text>
</a>
</g>
</g>
<!-- Node2&#45;&gt;Node16 -->
<g id="edge28" class="edge">
<title>Node2&#45;&gt;Node16</title>
<path fill="none" stroke="midnightblue" d="M534.59,-268.4C525.12,-259.14 514.12,-246.16 509,-232 502.65,-214.45 500.9,-206.82 509,-190 523.58,-159.71 608.22,-109.81 651.1,-85.98"/>
<polygon fill="midnightblue" stroke="midnightblue" points="653,-88.93 660.07,-81.04 649.62,-82.8 653,-88.93"/>
</g>
<!-- Node17 -->
<g id="node17" class="node">
<title>Node17</title>
<g id="a_node17"><a xlink:href="FloatingBaseEstimatorParams_8h.html" target="_top" xlink:title=" ">
<polygon fill="none" stroke="black" points="518,-190.5 518,-231.5 706,-231.5 706,-190.5 518,-190.5"/>
<text text-anchor="start" x="526" y="-219.5" font-family="Helvetica,sans-Serif" font-size="10.00">BipedalLocomotion/Floating</text>
<text text-anchor="start" x="526" y="-208.5" font-family="Helvetica,sans-Serif" font-size="10.00">BaseEstimators/FloatingBaseEstimator</text>
<text text-anchor="middle" x="612" y="-197.5" font-family="Helvetica,sans-Serif" font-size="10.00">Params.h</text>
</a>
</g>
</g>
<!-- Node2&#45;&gt;Node17 -->
<g id="edge18" class="edge">
<title>Node2&#45;&gt;Node17</title>
<path fill="none" stroke="midnightblue" d="M563.34,-268.23C570.54,-259.92 579.86,-249.15 588.41,-239.26"/>
<polygon fill="midnightblue" stroke="midnightblue" points="591.15,-241.44 595.05,-231.59 585.86,-236.86 591.15,-241.44"/>
</g>
<!-- Node19 -->
<g id="node19" class="node">
<title>Node19</title>
<g id="a_node19"><a xlink:href="FloatingBaseEstimatorIO_8h.html" target="_top" xlink:title=" ">
<polygon fill="none" stroke="black" points="724.5,-196 724.5,-226 931.5,-226 931.5,-196 724.5,-196"/>
<text text-anchor="start" x="732.5" y="-214" font-family="Helvetica,sans-Serif" font-size="10.00">BipedalLocomotion/Floating</text>
<text text-anchor="middle" x="828" y="-203" font-family="Helvetica,sans-Serif" font-size="10.00">BaseEstimators/FloatingBaseEstimatorIO.h</text>
</a>
</g>
</g>
<!-- Node2&#45;&gt;Node19 -->
<g id="edge20" class="edge">
<title>Node2&#45;&gt;Node19</title>
<path fill="none" stroke="midnightblue" d="M606.06,-268.49C651.13,-257.02 715,-240.76 762.66,-228.63"/>
<polygon fill="midnightblue" stroke="midnightblue" points="763.75,-231.97 772.57,-226.11 762.02,-225.18 763.75,-231.97"/>
</g>
<!-- Node24 -->
<g id="node24" class="node">
<title>Node24</title>
<g id="a_node24"><a xlink:title=" ">
<polygon fill="none" stroke="#bfbfbf" points="949.5,-201.5 949.5,-220.5 1110.5,-220.5 1110.5,-201.5 949.5,-201.5"/>
<text text-anchor="middle" x="1030" y="-208.5" font-family="Helvetica,sans-Serif" font-size="10.00">iDynTree/KinDynComputations.h</text>
</a>
</g>
</g>
<!-- Node2&#45;&gt;Node24 -->
<g id="edge27" class="edge">
<title>Node2&#45;&gt;Node24</title>
<path fill="none" stroke="midnightblue" d="M649.29,-272.21C728.16,-263.35 841.57,-249.29 940,-232 954.72,-229.42 970.67,-226.06 984.99,-222.83"/>
<polygon fill="midnightblue" stroke="midnightblue" points="986.13,-226.16 995.1,-220.52 984.57,-219.34 986.13,-226.16"/>
</g>
<!-- Node4&#45;&gt;Node5 -->
<g id="edge4" class="edge">
<title>Node4&#45;&gt;Node5</title>
<path fill="none" stroke="midnightblue" d="M297.93,-195.9C273.24,-186.74 243.39,-172.94 221,-154 199.99,-136.22 183.62,-108.5 174.39,-90.42"/>
<polygon fill="midnightblue" stroke="midnightblue" points="177.45,-88.7 169.9,-81.27 171.16,-91.79 177.45,-88.7"/>
</g>
<!-- Node6 -->
<g id="node6" class="node">
<title>Node6</title>
<g id="a_node6"><a xlink:title=" ">
<polygon fill="none" stroke="#bfbfbf" points="729.5,-62 729.5,-81 770.5,-81 770.5,-62 729.5,-62"/>
<text text-anchor="middle" x="750" y="-69" font-family="Helvetica,sans-Serif" font-size="10.00">string</text>
</a>
</g>
</g>
<!-- Node4&#45;&gt;Node6 -->
<g id="edge5" class="edge">
<title>Node4&#45;&gt;Node6</title>
<path fill="none" stroke="midnightblue" d="M382.64,-195.93C431.45,-178.28 518.11,-147.4 593,-123 645.54,-105.88 659.71,-104.86 712,-87 714.54,-86.13 717.17,-85.2 719.8,-84.24"/>
<polygon fill="midnightblue" stroke="midnightblue" points="721.04,-87.52 729.19,-80.74 718.6,-80.96 721.04,-87.52"/>
</g>
<!-- Node7 -->
<g id="node7" class="node">
<title>Node7</title>
<g id="a_node7"><a xlink:title=" ">
<polygon fill="none" stroke="#bfbfbf" points="230,-129 230,-148 274,-148 274,-129 230,-129"/>
<text text-anchor="middle" x="252" y="-136" font-family="Helvetica,sans-Serif" font-size="10.00">vector</text>
</a>
</g>
</g>
<!-- Node4&#45;&gt;Node7 -->
<g id="edge6" class="edge">
<title>Node4&#45;&gt;Node7</title>
<path fill="none" stroke="midnightblue" d="M325.38,-195.73C309.7,-183.72 287.34,-166.58 271.43,-154.39"/>
<polygon fill="midnightblue" stroke="midnightblue" points="273.41,-151.5 263.34,-148.19 269.15,-157.05 273.41,-151.5"/>
</g>
<!-- Node8 -->
<g id="node8" class="node">
<title>Node8</title>
<g id="a_node8"><a xlink:href="Vector_8h_source.html" target="_top" xlink:title=" ">
<polygon fill="none" stroke="black" points="330,-123.5 330,-153.5 466,-153.5 466,-123.5 330,-123.5"/>
<text text-anchor="start" x="338" y="-141.5" font-family="Helvetica,sans-Serif" font-size="10.00">BipedalLocomotion/Generic</text>
<text text-anchor="middle" x="398" y="-130.5" font-family="Helvetica,sans-Serif" font-size="10.00">Container/Vector.h</text>
</a>
</g>
</g>
<!-- Node4&#45;&gt;Node8 -->
<g id="edge7" class="edge">
<title>Node4&#45;&gt;Node8</title>
<path fill="none" stroke="midnightblue" d="M354.93,-195.73C362.39,-185.99 372.44,-172.87 380.95,-161.76"/>
<polygon fill="midnightblue" stroke="midnightblue" points="383.79,-163.81 387.09,-153.75 378.23,-159.56 383.79,-163.81"/>
</g>
<!-- Node10 -->
<g id="node10" class="node">
<title>Node10</title>
<g id="a_node10"><a xlink:href="TemplateHelpers_8h_source.html" target="_top" xlink:title=" ">
<polygon fill="none" stroke="black" points="210.5,-56.5 210.5,-86.5 353.5,-86.5 353.5,-56.5 210.5,-56.5"/>
<text text-anchor="start" x="218.5" y="-74.5" font-family="Helvetica,sans-Serif" font-size="10.00">BipedalLocomotion/Generic</text>
<text text-anchor="middle" x="282" y="-63.5" font-family="Helvetica,sans-Serif" font-size="10.00">Container/TemplateHelpers.h</text>
</a>
</g>
</g>
<!-- Node4&#45;&gt;Node10 -->
<g id="edge17" class="edge">
<title>Node4&#45;&gt;Node10</title>
<path fill="none" stroke="midnightblue" d="M337.6,-195.8C326.97,-172.23 305.58,-124.79 292.65,-96.12"/>
<polygon fill="midnightblue" stroke="midnightblue" points="295.76,-94.5 288.46,-86.83 289.38,-97.38 295.76,-94.5"/>
</g>
<!-- Node8&#45;&gt;Node5 -->
<g id="edge16" class="edge">
<title>Node8&#45;&gt;Node5</title>
<path fill="none" stroke="midnightblue" d="M333.9,-123.5C295.05,-114.41 244.71,-101.57 201,-87 199.08,-86.36 197.12,-85.66 195.15,-84.94"/>
<polygon fill="midnightblue" stroke="midnightblue" points="196.02,-81.52 185.44,-81.13 193.47,-88.04 196.02,-81.52"/>
</g>
<!-- Node9 -->
<g id="node9" class="node">
<title>Node9</title>
<g id="a_node9"><a xlink:title=" ">
<polygon fill="none" stroke="#bfbfbf" points="439,-62 439,-81 553,-81 553,-62 439,-62"/>
<text text-anchor="middle" x="496" y="-69" font-family="Helvetica,sans-Serif" font-size="10.00">iDynTree/Core/Span.h</text>
</a>
</g>
</g>
<!-- Node8&#45;&gt;Node9 -->
<g id="edge8" class="edge">
<title>Node8&#45;&gt;Node9</title>
<path fill="none" stroke="midnightblue" d="M419.26,-123.4C435.7,-112.5 458.34,-97.48 474.77,-86.58"/>
<polygon fill="midnightblue" stroke="midnightblue" points="476.78,-89.45 483.17,-81.01 472.91,-83.62 476.78,-89.45"/>
</g>
<!-- Node8&#45;&gt;Node10 -->
<g id="edge9" class="edge">
<title>Node8&#45;&gt;Node10</title>
<path fill="none" stroke="midnightblue" d="M372.83,-123.4C356.26,-114.11 334.36,-101.84 316.22,-91.67"/>
<polygon fill="midnightblue" stroke="midnightblue" points="317.56,-88.41 307.12,-86.58 314.13,-94.52 317.56,-88.41"/>
</g>
<!-- Node14 -->
<g id="node14" class="node">
<title>Node14</title>
<g id="a_node14"><a xlink:title=" ">
<polygon fill="none" stroke="#bfbfbf" points="571.5,-62 571.5,-81 630.5,-81 630.5,-62 571.5,-62"/>
<text text-anchor="middle" x="601" y="-69" font-family="Helvetica,sans-Serif" font-size="10.00">functional</text>
</a>
</g>
</g>
<!-- Node8&#45;&gt;Node14 -->
<g id="edge13" class="edge">
<title>Node8&#45;&gt;Node14</title>
<path fill="none" stroke="midnightblue" d="M446.31,-123.42C479.1,-113.66 523.35,-100.12 562,-87 564.39,-86.19 566.86,-85.33 569.34,-84.44"/>
<polygon fill="midnightblue" stroke="midnightblue" points="570.6,-87.71 578.8,-81 568.21,-81.13 570.6,-87.71"/>
</g>
<!-- Node15 -->
<g id="node15" class="node">
<title>Node15</title>
<g id="a_node15"><a xlink:title=" ">
<polygon fill="none" stroke="#bfbfbf" points="371.5,-62 371.5,-81 420.5,-81 420.5,-62 371.5,-62"/>
<text text-anchor="middle" x="396" y="-69" font-family="Helvetica,sans-Serif" font-size="10.00">cassert</text>
</a>
</g>
</g>
<!-- Node8&#45;&gt;Node15 -->
<g id="edge14" class="edge">
<title>Node8&#45;&gt;Node15</title>
<path fill="none" stroke="midnightblue" d="M397.57,-123.4C397.28,-114.06 396.9,-101.71 396.59,-91.52"/>
<polygon fill="midnightblue" stroke="midnightblue" points="400.07,-91.08 396.27,-81.19 393.08,-91.3 400.07,-91.08"/>
</g>
<!-- Node8&#45;&gt;Node16 -->
<g id="edge15" class="edge">
<title>Node8&#45;&gt;Node16</title>
<path fill="none" stroke="midnightblue" d="M466.11,-124.55C525.6,-112.99 607.25,-96.47 639,-87 641.43,-86.27 643.92,-85.46 646.41,-84.59"/>
<polygon fill="midnightblue" stroke="midnightblue" points="647.7,-87.85 655.86,-81.1 645.26,-81.29 647.7,-87.85"/>
</g>
<!-- Node11 -->
<g id="node11" class="node">
<title>Node11</title>
<g id="a_node11"><a xlink:title=" ">
<polygon fill="none" stroke="#bfbfbf" points="169,-0.5 169,-19.5 231,-19.5 231,-0.5 169,-0.5"/>
<text text-anchor="middle" x="200" y="-7.5" font-family="Helvetica,sans-Serif" font-size="10.00">type_traits</text>
</a>
</g>
</g>
<!-- Node10&#45;&gt;Node11 -->
<g id="edge10" class="edge">
<title>Node10&#45;&gt;Node11</title>
<path fill="none" stroke="midnightblue" d="M262.57,-56.4C249.79,-47.13 233.11,-35.03 220.19,-25.65"/>
<polygon fill="midnightblue" stroke="midnightblue" points="222.08,-22.7 211.93,-19.66 217.97,-28.36 222.08,-22.7"/>
</g>
<!-- Node12 -->
<g id="node12" class="node">
<title>Node12</title>
<g id="a_node12"><a xlink:title=" ">
<polygon fill="none" stroke="#bfbfbf" points="249,-0.5 249,-19.5 315,-19.5 315,-0.5 249,-0.5"/>
<text text-anchor="middle" x="282" y="-7.5" font-family="Helvetica,sans-Serif" font-size="10.00">string_view</text>
</a>
</g>
</g>
<!-- Node10&#45;&gt;Node12 -->
<g id="edge11" class="edge">
<title>Node10&#45;&gt;Node12</title>
<path fill="none" stroke="midnightblue" d="M282,-56.4C282,-48.47 282,-38.46 282,-29.86"/>
<polygon fill="midnightblue" stroke="midnightblue" points="285.5,-29.66 282,-19.66 278.5,-29.66 285.5,-29.66"/>
</g>
<!-- Node13 -->
<g id="node13" class="node">
<title>Node13</title>
<g id="a_node13"><a xlink:title=" ">
<polygon fill="none" stroke="#bfbfbf" points="333.5,-0.5 333.5,-19.5 398.5,-19.5 398.5,-0.5 333.5,-0.5"/>
<text text-anchor="middle" x="366" y="-7.5" font-family="Helvetica,sans-Serif" font-size="10.00">Eigen/Core</text>
</a>
</g>
</g>
<!-- Node10&#45;&gt;Node13 -->
<g id="edge12" class="edge">
<title>Node10&#45;&gt;Node13</title>
<path fill="none" stroke="midnightblue" d="M301.91,-56.4C314.99,-47.13 332.08,-35.03 345.32,-25.65"/>
<polygon fill="midnightblue" stroke="midnightblue" points="347.64,-28.29 353.78,-19.66 343.59,-22.58 347.64,-28.29"/>
</g>
<!-- Node18 -->
<g id="node18" class="node">
<title>Node18</title>
<g id="a_node18"><a xlink:title=" ">
<polygon fill="none" stroke="#bfbfbf" points="602.5,-129 602.5,-148 675.5,-148 675.5,-129 602.5,-129"/>
<text text-anchor="middle" x="639" y="-136" font-family="Helvetica,sans-Serif" font-size="10.00">Eigen/Dense</text>
</a>
</g>
</g>
<!-- Node17&#45;&gt;Node18 -->
<g id="edge19" class="edge">
<title>Node17&#45;&gt;Node18</title>
<path fill="none" stroke="midnightblue" d="M619.52,-190.36C623.46,-180.08 628.25,-167.58 632.09,-157.54"/>
<polygon fill="midnightblue" stroke="midnightblue" points="635.37,-158.76 635.68,-148.17 628.83,-156.26 635.37,-158.76"/>
</g>
<!-- Node19&#45;&gt;Node18 -->
<g id="edge21" class="edge">
<title>Node19&#45;&gt;Node18</title>
<path fill="none" stroke="midnightblue" d="M790.21,-195.9C755.45,-182.94 704.46,-163.92 671.49,-151.62"/>
<polygon fill="midnightblue" stroke="midnightblue" points="672.47,-148.25 661.88,-148.03 670.02,-154.81 672.47,-148.25"/>
</g>
<!-- Node20 -->
<g id="node20" class="node">
<title>Node20</title>
<g id="a_node20"><a xlink:title=" ">
<polygon fill="none" stroke="#bfbfbf" points="1170,-129 1170,-148 1246,-148 1246,-129 1170,-129"/>
<text text-anchor="middle" x="1208" y="-136" font-family="Helvetica,sans-Serif" font-size="10.00">manif/manif.h</text>
</a>
</g>
</g>
<!-- Node19&#45;&gt;Node20 -->
<g id="edge22" class="edge">
<title>Node19&#45;&gt;Node20</title>
<path fill="none" stroke="midnightblue" d="M903.53,-195.99C979.86,-181.83 1095.47,-160.38 1160.05,-148.4"/>
<polygon fill="midnightblue" stroke="midnightblue" points="1160.77,-151.82 1169.97,-146.56 1159.5,-144.94 1160.77,-151.82"/>
</g>
<!-- Node21 -->
<g id="node21" class="node">
<title>Node21</title>
<g id="a_node21"><a xlink:href="Contact_8h.html" target="_top" xlink:title=" ">
<polygon fill="none" stroke="black" points="757,-123.5 757,-153.5 899,-153.5 899,-123.5 757,-123.5"/>
<text text-anchor="start" x="765" y="-141.5" font-family="Helvetica,sans-Serif" font-size="10.00">BipedalLocomotion/Contacts</text>
<text text-anchor="middle" x="828" y="-130.5" font-family="Helvetica,sans-Serif" font-size="10.00">/Contact.h</text>
</a>
</g>
</g>
<!-- Node19&#45;&gt;Node21 -->
<g id="edge23" class="edge">
<title>Node19&#45;&gt;Node21</title>
<path fill="none" stroke="midnightblue" d="M828,-195.73C828,-186.66 828,-174.66 828,-164.08"/>
<polygon fill="midnightblue" stroke="midnightblue" points="831.5,-163.75 828,-153.75 824.5,-163.75 831.5,-163.75"/>
</g>
<!-- Node23 -->
<g id="node23" class="node">
<title>Node23</title>
<g id="a_node23"><a xlink:title=" ">
<polygon fill="none" stroke="#bfbfbf" points="703.5,-129 703.5,-148 738.5,-148 738.5,-129 703.5,-129"/>
<text text-anchor="middle" x="721" y="-136" font-family="Helvetica,sans-Serif" font-size="10.00">map</text>
</a>
</g>
</g>
<!-- Node19&#45;&gt;Node23 -->
<g id="edge26" class="edge">
<title>Node19&#45;&gt;Node23</title>
<path fill="none" stroke="midnightblue" d="M806.6,-195.9C787.95,-183.61 761.02,-165.87 742.37,-153.58"/>
<polygon fill="midnightblue" stroke="midnightblue" points="744.23,-150.61 733.95,-148.03 740.38,-156.46 744.23,-150.61"/>
</g>
<!-- Node21&#45;&gt;Node6 -->
<g id="edge25" class="edge">
<title>Node21&#45;&gt;Node6</title>
<path fill="none" stroke="midnightblue" d="M811.08,-123.4C798.43,-112.86 781.17,-98.48 768.23,-87.69"/>
<polygon fill="midnightblue" stroke="midnightblue" points="770.36,-84.91 760.43,-81.19 765.88,-90.29 770.36,-84.91"/>
</g>
<!-- Node22 -->
<g id="node22" class="node">
<title>Node22</title>
<g id="a_node22"><a xlink:title=" ">
<polygon fill="none" stroke="#bfbfbf" points="792.5,-62 792.5,-81 863.5,-81 863.5,-62 792.5,-62"/>
<text text-anchor="middle" x="828" y="-69" font-family="Helvetica,sans-Serif" font-size="10.00">manif/SE3.h</text>
</a>
</g>
</g>
<!-- Node21&#45;&gt;Node22 -->
<g id="edge24" class="edge">
<title>Node21&#45;&gt;Node22</title>
<path fill="none" stroke="midnightblue" d="M828,-123.4C828,-114.06 828,-101.71 828,-91.52"/>
<polygon fill="midnightblue" stroke="midnightblue" points="831.5,-91.19 828,-81.19 824.5,-91.19 831.5,-91.19"/>
</g>
<!-- Node25&#45;&gt;Node20 -->
<g id="edge33" class="edge">
<title>Node25&#45;&gt;Node20</title>
<path fill="none" stroke="midnightblue" d="M1354.85,-268.41C1391.63,-259.51 1431.13,-246.88 1442,-232 1453.01,-216.92 1453.72,-204.52 1442,-190 1419.17,-161.72 1318.33,-148.51 1256.72,-142.98"/>
<polygon fill="midnightblue" stroke="midnightblue" points="1256.7,-139.47 1246.44,-142.1 1256.1,-146.44 1256.7,-139.47"/>
</g>
<!-- Node26 -->
<g id="node26" class="node">
<title>Node26</title>
<g id="a_node26"><a xlink:title=" ">
<polygon fill="none" stroke="#bfbfbf" points="1297,-201.5 1297,-220.5 1433,-220.5 1433,-201.5 1297,-201.5"/>
<text text-anchor="middle" x="1365" y="-208.5" font-family="Helvetica,sans-Serif" font-size="10.00">iDynTree/Core/Transform.h</text>
</a>
</g>
</g>
<!-- Node25&#45;&gt;Node26 -->
<g id="edge31" class="edge">
<title>Node25&#45;&gt;Node26</title>
<path fill="none" stroke="midnightblue" d="M1300.39,-268.23C1313.87,-256.5 1332.94,-239.9 1346.87,-227.78"/>
<polygon fill="midnightblue" stroke="midnightblue" points="1349.54,-230.1 1354.78,-220.89 1344.94,-224.82 1349.54,-230.1"/>
</g>
<!-- Node27 -->
<g id="node27" class="node">
<title>Node27</title>
<g id="a_node27"><a xlink:title=" ">
<polygon fill="none" stroke="#bfbfbf" points="1129,-201.5 1129,-220.5 1279,-220.5 1279,-201.5 1129,-201.5"/>
<text text-anchor="middle" x="1204" y="-208.5" font-family="Helvetica,sans-Serif" font-size="10.00">iDynTree/Core/EigenHelpers.h</text>
</a>
</g>
</g>
<!-- Node25&#45;&gt;Node27 -->
<g id="edge32" class="edge">
<title>Node25&#45;&gt;Node27</title>
<path fill="none" stroke="midnightblue" d="M1267.81,-268.23C1254.5,-256.5 1235.66,-239.9 1221.91,-227.78"/>
<polygon fill="midnightblue" stroke="midnightblue" points="1223.91,-224.88 1214.09,-220.89 1219.28,-230.13 1223.91,-224.88"/>
</g>
</g>
</svg>
        <g id="navigator" transform="translate(0 0)" fill="#404254">
                <rect fill="#f2f5e9" fill-opacity="0.5" stroke="#606060" stroke-width=".5" x="0" y="0" width="60" height="60"/>
                <use id="zoomplus" xlink:href="#zoomPlus" x="17" y="9" onmousedown="handleZoom(evt,'in')"/>
                <use id="zoomminus" xlink:href="#zoomMin" x="42" y="9" onmousedown="handleZoom(evt,'out')"/>
                <use id="reset" xlink:href="#resetDef" x="30" y="36" onmousedown="handleReset()"/>
                <g id="arrowUp" xlink:href="#dirArrow" transform="translate(30 24)" onmousedown="handlePan(0,-1)">
                  <use xlink:href="#rim" fill="#404040">
                        <set attributeName="fill" to="#808080" begin="arrowUp.mouseover" end="arrowUp.mouseout"/>
                  </use>
                  <path fill="none" stroke="white" stroke-width="1.5" d="M0,-3.0v7 M-2.5,-0.5L0,-3.0L2.5,-0.5"/>
                </g>
                <g id="arrowRight" xlink:href="#dirArrow" transform="rotate(90) translate(36 -43)" onmousedown="handlePan(1,0)">
                  <use xlink:href="#rim" fill="#404040">
                        <set attributeName="fill" to="#808080" begin="arrowRight.mouseover" end="arrowRight.mouseout"/>
                  </use>
                  <path fill="none" stroke="white" stroke-width="1.5" d="M0,-3.0v7 M-2.5,-0.5L0,-3.0L2.5,-0.5"/>
                </g>
                <g id="arrowDown" xlink:href="#dirArrow" transform="rotate(180) translate(-30 -48)" onmousedown="handlePan(0,1)">
                  <use xlink:href="#rim" fill="#404040">
                        <set attributeName="fill" to="#808080" begin="arrowDown.mouseover" end="arrowDown.mouseout"/>
                  </use>
                  <path fill="none" stroke="white" stroke-width="1.5" d="M0,-3.0v7 M-2.5,-0.5L0,-3.0L2.5,-0.5"/>
                </g>
                <g id="arrowLeft" xlink:href="#dirArrow" transform="rotate(270) translate(-36 17)" onmousedown="handlePan(-1,0)">
                  <use xlink:href="#rim" fill="#404040">
                        <set attributeName="fill" to="#808080" begin="arrowLeft.mouseover" end="arrowLeft.mouseout"/>
                  </use>
                  <path fill="none" stroke="white" stroke-width="1.5" d="M0,-3.0v7 M-2.5,-0.5L0,-3.0L2.5,-0.5"/>
                </g>
        </g>
        <svg viewBox="0 0 15 15" width="100%" height="30px" preserveAspectRatio="xMaxYMin meet">
         <g id="arrow_out" transform="scale(0.3 0.3)">
          <a xlink:href="FloatingBaseEstimator_8cpp__incl_org.svg" target="_base">
           <rect id="button" ry="5" rx="5" y="6" x="6" height="38" width="38"
                fill="#f2f5e9" fill-opacity="0.5" stroke="#606060" stroke-width="1.0"/>
           <path id="arrow"
             d="M 11.500037,31.436501 C 11.940474,20.09759 22.043105,11.32322 32.158766,21.979434 L 37.068811,17.246167 C 37.068811,17.246167 37.088388,32 37.088388,32 L 22.160133,31.978069 C 22.160133,31.978069 26.997745,27.140456 26.997745,27.140456 C 18.528582,18.264221 13.291696,25.230495 11.500037,31.436501 z"
             style="fill:#404040;"/>
          </a>
         </g>
        </svg>
</svg>
