<?xml version="1.0" encoding="UTF-8" standalone="no"?>
<!DOCTYPE svg PUBLIC "-//W3C//DTD SVG 1.1//EN"
 "http://www.w3.org/Graphics/SVG/1.1/DTD/svg11.dtd">
<!-- Generated by graphviz version 2.43.0 (0)
 -->
<!-- Title: System/src/FloatingBaseSystemDynamics.cpp Pages: 1 -->
<svg width="2255pt" height="497pt"
 viewBox="0.00 0.00 2255.00 497.00" xmlns="http://www.w3.org/2000/svg" xmlns:xlink="http://www.w3.org/1999/xlink">
<g id="graph0" class="graph" transform="scale(1 1) rotate(0) translate(4 493)">
<title>System/src/FloatingBaseSystemDynamics.cpp</title>
<!-- Node1 -->
<g id="node1" class="node">
<title>Node1</title>
<g id="a_node1"><a xlink:title=" ">
<polygon fill="#bfbfbf" stroke="black" points="362,-458.5 362,-488.5 523,-488.5 523,-458.5 362,-458.5"/>
<text text-anchor="start" x="370" y="-476.5" font-family="Helvetica,sans-Serif" font-size="10.00">System/src/FloatingBaseSystem</text>
<text text-anchor="middle" x="442.5" y="-465.5" font-family="Helvetica,sans-Serif" font-size="10.00">Dynamics.cpp</text>
</a>
</g>
</g>
<!-- Node2 -->
<g id="node2" class="node">
<title>Node2</title>
<g id="a_node2"><a xlink:title=" ">
<polygon fill="none" stroke="#bfbfbf" points="0,-397 0,-416 123,-416 123,-397 0,-397"/>
<text text-anchor="middle" x="61.5" y="-404" font-family="Helvetica,sans-Serif" font-size="10.00">iDynTree/Model/Model.h</text>
</a>
</g>
</g>
<!-- Node1&#45;&gt;Node2 -->
<g id="edge1" class="edge">
<title>Node1&#45;&gt;Node2</title>
<path fill="none" stroke="midnightblue" d="M361.79,-460.37C298.91,-450.69 209.5,-436.4 131.5,-422 124.86,-420.77 117.88,-419.41 111,-418.03"/>
<polygon fill="midnightblue" stroke="midnightblue" points="111.55,-414.57 101.05,-416 110.15,-421.43 111.55,-414.57"/>
</g>
<!-- Node3 -->
<g id="node3" class="node">
<title>Node3</title>
<g id="a_node3"><a xlink:title=" ">
<polygon fill="none" stroke="#bfbfbf" points="601,-196 601,-215 716,-215 716,-196 601,-196"/>
<text text-anchor="middle" x="658.5" y="-203" font-family="Helvetica,sans-Serif" font-size="10.00">iDynTree/Core/Twist.h</text>
</a>
</g>
</g>
<!-- Node1&#45;&gt;Node3 -->
<g id="edge2" class="edge">
<title>Node1&#45;&gt;Node3</title>
<path fill="none" stroke="midnightblue" d="M452.86,-458.4C459.82,-448.53 468.9,-434.86 475.5,-422 496.84,-380.44 485.98,-361.75 513.5,-324 547.02,-278 602.81,-239.81 634.53,-220.36"/>
<polygon fill="midnightblue" stroke="midnightblue" points="636.41,-223.32 643.17,-215.16 632.8,-217.32 636.41,-223.32"/>
</g>
<!-- Node4 -->
<g id="node4" class="node">
<title>Node4</title>
<g id="a_node4"><a xlink:title=" ">
<polygon fill="none" stroke="#bfbfbf" points="316.5,-397 316.5,-416 466.5,-416 466.5,-397 316.5,-397"/>
<text text-anchor="middle" x="391.5" y="-404" font-family="Helvetica,sans-Serif" font-size="10.00">iDynTree/Core/EigenHelpers.h</text>
</a>
</g>
</g>
<!-- Node1&#45;&gt;Node4 -->
<g id="edge3" class="edge">
<title>Node1&#45;&gt;Node4</title>
<path fill="none" stroke="midnightblue" d="M431.43,-458.4C423.56,-448.36 412.95,-434.84 404.65,-424.25"/>
<polygon fill="midnightblue" stroke="midnightblue" points="407.25,-421.9 398.32,-416.19 401.74,-426.22 407.25,-421.9"/>
</g>
<!-- Node5 -->
<g id="node5" class="node">
<title>Node5</title>
<g id="a_node5"><a xlink:href="CommonConversions_8h.html" target="_top" xlink:title=" ">
<polygon fill="none" stroke="black" points="141,-391.5 141,-421.5 298,-421.5 298,-391.5 141,-391.5"/>
<text text-anchor="start" x="149" y="-409.5" font-family="Helvetica,sans-Serif" font-size="10.00">BipedalLocomotion/Conversions</text>
<text text-anchor="middle" x="219.5" y="-398.5" font-family="Helvetica,sans-Serif" font-size="10.00">/CommonConversions.h</text>
</a>
</g>
</g>
<!-- Node1&#45;&gt;Node5 -->
<g id="edge4" class="edge">
<title>Node1&#45;&gt;Node5</title>
<path fill="none" stroke="midnightblue" d="M394.39,-458.48C360.21,-448.51 314.14,-435.09 277.87,-424.51"/>
<polygon fill="midnightblue" stroke="midnightblue" points="278.49,-421.05 267.91,-421.61 276.53,-427.77 278.49,-421.05"/>
</g>
<!-- Node7 -->
<g id="node7" class="node">
<title>Node7</title>
<g id="a_node7"><a xlink:href="FloatingBaseSystemDynamics_8h.html" target="_top" xlink:title=" ">
<polygon fill="none" stroke="black" points="577,-391.5 577,-421.5 740,-421.5 740,-391.5 577,-391.5"/>
<text text-anchor="start" x="585" y="-409.5" font-family="Helvetica,sans-Serif" font-size="10.00">BipedalLocomotion/System</text>
<text text-anchor="middle" x="658.5" y="-398.5" font-family="Helvetica,sans-Serif" font-size="10.00">/FloatingBaseSystemDynamics.h</text>
</a>
</g>
</g>
<!-- Node1&#45;&gt;Node7 -->
<g id="edge6" class="edge">
<title>Node1&#45;&gt;Node7</title>
<path fill="none" stroke="midnightblue" d="M489.1,-458.48C522.2,-448.51 566.83,-435.09 601.97,-424.51"/>
<polygon fill="midnightblue" stroke="midnightblue" points="603.04,-427.84 611.61,-421.61 601.02,-421.14 603.04,-427.84"/>
</g>
<!-- Node35 -->
<g id="node35" class="node">
<title>Node35</title>
<g id="a_node35"><a xlink:href="Constants_8h.html" target="_top" xlink:title=" ">
<polygon fill="none" stroke="black" points="758.5,-391.5 758.5,-421.5 882.5,-421.5 882.5,-391.5 758.5,-391.5"/>
<text text-anchor="start" x="766.5" y="-409.5" font-family="Helvetica,sans-Serif" font-size="10.00">BipedalLocomotion/Math</text>
<text text-anchor="middle" x="820.5" y="-398.5" font-family="Helvetica,sans-Serif" font-size="10.00">/Constants.h</text>
</a>
</g>
</g>
<!-- Node1&#45;&gt;Node35 -->
<g id="edge47" class="edge">
<title>Node1&#45;&gt;Node35</title>
<path fill="none" stroke="midnightblue" d="M523.17,-459.98C584.95,-450.2 672.23,-435.97 748.5,-422 748.6,-421.98 748.7,-421.96 748.81,-421.94"/>
<polygon fill="midnightblue" stroke="midnightblue" points="749.29,-425.41 758.47,-420.14 748,-418.53 749.29,-425.41"/>
</g>
<!-- Node6 -->
<g id="node6" class="node">
<title>Node6</title>
<g id="a_node6"><a xlink:title=" ">
<polygon fill="none" stroke="#bfbfbf" points="288,-330 288,-349 361,-349 361,-330 288,-330"/>
<text text-anchor="middle" x="324.5" y="-337" font-family="Helvetica,sans-Serif" font-size="10.00">Eigen/Dense</text>
</a>
</g>
</g>
<!-- Node5&#45;&gt;Node6 -->
<g id="edge5" class="edge">
<title>Node5&#45;&gt;Node6</title>
<path fill="none" stroke="midnightblue" d="M242.28,-391.4C260.05,-380.39 284.6,-365.2 302.24,-354.28"/>
<polygon fill="midnightblue" stroke="midnightblue" points="304.1,-357.25 310.76,-349.01 300.41,-351.29 304.1,-357.25"/>
</g>
<!-- Node7&#45;&gt;Node6 -->
<g id="edge45" class="edge">
<title>Node7&#45;&gt;Node6</title>
<path fill="none" stroke="midnightblue" d="M586.44,-391.48C521.27,-378.79 427.21,-360.49 371.32,-349.61"/>
<polygon fill="midnightblue" stroke="midnightblue" points="371.83,-346.15 361.35,-347.67 370.49,-353.02 371.83,-346.15"/>
</g>
<!-- Node8 -->
<g id="node8" class="node">
<title>Node8</title>
<g id="a_node8"><a xlink:title=" ">
<polygon fill="none" stroke="#bfbfbf" points="1639.5,-62 1639.5,-81 1691.5,-81 1691.5,-62 1639.5,-62"/>
<text text-anchor="middle" x="1665.5" y="-69" font-family="Helvetica,sans-Serif" font-size="10.00">memory</text>
</a>
</g>
</g>
<!-- Node7&#45;&gt;Node8 -->
<g id="edge7" class="edge">
<title>Node7&#45;&gt;Node8</title>
<path fill="none" stroke="midnightblue" d="M671.48,-391.39C684.76,-375.16 702.18,-347.7 692.5,-324 664.3,-254.96 541.72,-245.53 591.5,-190 662.44,-110.88 1449.42,-79.76 1629.11,-73.66"/>
<polygon fill="midnightblue" stroke="midnightblue" points="1629.48,-77.15 1639.35,-73.32 1629.24,-70.15 1629.48,-77.15"/>
</g>
<!-- Node9 -->
<g id="node9" class="node">
<title>Node9</title>
<g id="a_node9"><a xlink:title=" ">
<polygon fill="none" stroke="#bfbfbf" points="2064.5,-129 2064.5,-148 2108.5,-148 2108.5,-129 2064.5,-129"/>
<text text-anchor="middle" x="2086.5" y="-136" font-family="Helvetica,sans-Serif" font-size="10.00">vector</text>
</a>
</g>
</g>
<!-- Node7&#45;&gt;Node9 -->
<g id="edge8" class="edge">
<title>Node7&#45;&gt;Node9</title>
<path fill="none" stroke="midnightblue" d="M740.31,-392.12C743.41,-391.73 746.48,-391.35 749.5,-391 970.83,-365.45 1027.3,-371.3 1249.5,-355 1448.85,-340.38 2010.52,-434.51 2146.5,-288 2176.13,-256.08 2164.88,-229.49 2146.5,-190 2139.31,-174.55 2124.82,-162.14 2111.87,-153.49"/>
<polygon fill="midnightblue" stroke="midnightblue" points="2113.61,-150.44 2103.27,-148.11 2109.89,-156.38 2113.61,-150.44"/>
</g>
<!-- Node10 -->
<g id="node10" class="node">
<title>Node10</title>
<g id="a_node10"><a xlink:href="DynamicalSystem_8h.html" target="_top" xlink:title=" ">
<polygon fill="none" stroke="black" points="2001.5,-257.5 2001.5,-287.5 2137.5,-287.5 2137.5,-257.5 2001.5,-257.5"/>
<text text-anchor="start" x="2009.5" y="-275.5" font-family="Helvetica,sans-Serif" font-size="10.00">BipedalLocomotion/System</text>
<text text-anchor="middle" x="2069.5" y="-264.5" font-family="Helvetica,sans-Serif" font-size="10.00">/DynamicalSystem.h</text>
</a>
</g>
</g>
<!-- Node7&#45;&gt;Node10 -->
<g id="edge9" class="edge">
<title>Node7&#45;&gt;Node10</title>
<path fill="none" stroke="midnightblue" d="M740.31,-392.19C743.41,-391.77 746.48,-391.37 749.5,-391 1219.34,-332.73 1786.72,-292.22 1991.27,-278.56"/>
<polygon fill="midnightblue" stroke="midnightblue" points="1991.57,-282.05 2001.31,-277.9 1991.1,-275.07 1991.57,-282.05"/>
</g>
<!-- Node24 -->
<g id="node24" class="node">
<title>Node24</title>
<g id="a_node24"><a xlink:href="ContactWrench_8h.html" target="_top" xlink:title=" ">
<polygon fill="none" stroke="black" points="793.5,-324.5 793.5,-354.5 929.5,-354.5 929.5,-324.5 793.5,-324.5"/>
<text text-anchor="start" x="801.5" y="-342.5" font-family="Helvetica,sans-Serif" font-size="10.00">BipedalLocomotion/System</text>
<text text-anchor="middle" x="861.5" y="-331.5" font-family="Helvetica,sans-Serif" font-size="10.00">/ContactWrench.h</text>
</a>
</g>
</g>
<!-- Node7&#45;&gt;Node24 -->
<g id="edge30" class="edge">
<title>Node7&#45;&gt;Node24</title>
<path fill="none" stroke="midnightblue" d="M702.55,-391.4C733.41,-381.52 774.83,-368.25 807.65,-357.74"/>
<polygon fill="midnightblue" stroke="midnightblue" points="809.08,-360.96 817.54,-354.58 806.95,-354.29 809.08,-360.96"/>
</g>
<!-- Node34 -->
<g id="node34" class="node">
<title>Node34</title>
<g id="a_node34"><a xlink:title=" ">
<polygon fill="none" stroke="#bfbfbf" points="523,-330 523,-349 684,-349 684,-330 523,-330"/>
<text text-anchor="middle" x="603.5" y="-337" font-family="Helvetica,sans-Serif" font-size="10.00">iDynTree/KinDynComputations.h</text>
</a>
</g>
</g>
<!-- Node7&#45;&gt;Node34 -->
<g id="edge46" class="edge">
<title>Node7&#45;&gt;Node34</title>
<path fill="none" stroke="midnightblue" d="M646.57,-391.4C637.99,-381.26 626.4,-367.57 617.41,-356.94"/>
<polygon fill="midnightblue" stroke="midnightblue" points="619.99,-354.57 610.86,-349.19 614.64,-359.09 619.99,-354.57"/>
</g>
<!-- Node10&#45;&gt;Node8 -->
<g id="edge10" class="edge">
<title>Node10&#45;&gt;Node8</title>
<path fill="none" stroke="midnightblue" d="M2105.49,-257.35C2121.05,-249.22 2137.69,-237.32 2146.5,-221 2168.08,-181.03 2154.35,-149.55 2117.5,-123 2042.21,-68.76 1791.75,-108.57 1701.5,-87 1698.83,-86.36 1696.09,-85.56 1693.38,-84.66"/>
<polygon fill="midnightblue" stroke="midnightblue" points="1694.43,-81.31 1683.84,-81.11 1691.99,-87.87 1694.43,-81.31"/>
</g>
<!-- Node11 -->
<g id="node11" class="node">
<title>Node11</title>
<g id="a_node11"><a xlink:title=" ">
<polygon fill="none" stroke="#bfbfbf" points="1945.5,-196 1945.5,-215 1983.5,-215 1983.5,-196 1945.5,-196"/>
<text text-anchor="middle" x="1964.5" y="-203" font-family="Helvetica,sans-Serif" font-size="10.00">tuple</text>
</a>
</g>
</g>
<!-- Node10&#45;&gt;Node11 -->
<g id="edge11" class="edge">
<title>Node10&#45;&gt;Node11</title>
<path fill="none" stroke="midnightblue" d="M2046.72,-257.4C2028.95,-246.39 2004.4,-231.2 1986.76,-220.28"/>
<polygon fill="midnightblue" stroke="midnightblue" points="1988.59,-217.29 1978.24,-215.01 1984.9,-223.25 1988.59,-217.29"/>
</g>
<!-- Node12 -->
<g id="node12" class="node">
<title>Node12</title>
<g id="a_node12"><a xlink:href="TemplateHelpers_8h_source.html" target="_top" xlink:title=" ">
<polygon fill="none" stroke="black" points="2059,-56.5 2059,-86.5 2202,-86.5 2202,-56.5 2059,-56.5"/>
<text text-anchor="start" x="2067" y="-74.5" font-family="Helvetica,sans-Serif" font-size="10.00">BipedalLocomotion/Generic</text>
<text text-anchor="middle" x="2130.5" y="-63.5" font-family="Helvetica,sans-Serif" font-size="10.00">Container/TemplateHelpers.h</text>
</a>
</g>
</g>
<!-- Node10&#45;&gt;Node12 -->
<g id="edge12" class="edge">
<title>Node10&#45;&gt;Node12</title>
<path fill="none" stroke="midnightblue" d="M2130.49,-257.46C2149.47,-249.92 2168.33,-238.42 2179.5,-221 2203.01,-184.34 2195.86,-163.36 2179.5,-123 2174.92,-111.7 2166.47,-101.54 2157.86,-93.35"/>
<polygon fill="midnightblue" stroke="midnightblue" points="2160.14,-90.7 2150.34,-86.67 2155.49,-95.93 2160.14,-90.7"/>
</g>
<!-- Node16 -->
<g id="node16" class="node">
<title>Node16</title>
<g id="a_node16"><a xlink:href="IParametersHandler_8h.html" target="_top" xlink:title=" ">
<polygon fill="none" stroke="black" points="1775.5,-190.5 1775.5,-220.5 1927.5,-220.5 1927.5,-190.5 1775.5,-190.5"/>
<text text-anchor="start" x="1783.5" y="-208.5" font-family="Helvetica,sans-Serif" font-size="10.00">BipedalLocomotion/Parameters</text>
<text text-anchor="middle" x="1851.5" y="-197.5" font-family="Helvetica,sans-Serif" font-size="10.00">Handler/IParametersHandler.h</text>
</a>
</g>
</g>
<!-- Node10&#45;&gt;Node16 -->
<g id="edge16" class="edge">
<title>Node10&#45;&gt;Node16</title>
<path fill="none" stroke="midnightblue" d="M2022.47,-257.48C1989.06,-247.51 1944.02,-234.09 1908.56,-223.51"/>
<polygon fill="midnightblue" stroke="midnightblue" points="1909.41,-220.11 1898.83,-220.61 1907.41,-226.82 1909.41,-220.11"/>
</g>
<!-- Node23 -->
<g id="node23" class="node">
<title>Node23</title>
<g id="a_node23"><a xlink:href="DynamicalSystem_8tpp.html" target="_top" xlink:title=" ">
<polygon fill="none" stroke="black" points="2001.5,-190.5 2001.5,-220.5 2137.5,-220.5 2137.5,-190.5 2001.5,-190.5"/>
<text text-anchor="start" x="2009.5" y="-208.5" font-family="Helvetica,sans-Serif" font-size="10.00">BipedalLocomotion/System</text>
<text text-anchor="middle" x="2069.5" y="-197.5" font-family="Helvetica,sans-Serif" font-size="10.00">/DynamicalSystem.tpp</text>
</a>
</g>
</g>
<!-- Node10&#45;&gt;Node23 -->
<g id="edge28" class="edge">
<title>Node10&#45;&gt;Node23</title>
<path fill="none" stroke="midnightblue" d="M2063.82,-257.4C2062.79,-249.56 2062.51,-239.6 2062.96,-230.57"/>
<polygon fill="midnightblue" stroke="midnightblue" points="2066.45,-230.84 2063.83,-220.58 2059.47,-230.24 2066.45,-230.84"/>
</g>
<!-- Node13 -->
<g id="node13" class="node">
<title>Node13</title>
<g id="a_node13"><a xlink:title=" ">
<polygon fill="none" stroke="#bfbfbf" points="2017.5,-0.5 2017.5,-19.5 2079.5,-19.5 2079.5,-0.5 2017.5,-0.5"/>
<text text-anchor="middle" x="2048.5" y="-7.5" font-family="Helvetica,sans-Serif" font-size="10.00">type_traits</text>
</a>
</g>
</g>
<!-- Node12&#45;&gt;Node13 -->
<g id="edge13" class="edge">
<title>Node12&#45;&gt;Node13</title>
<path fill="none" stroke="midnightblue" d="M2111.07,-56.4C2098.29,-47.13 2081.61,-35.03 2068.69,-25.65"/>
<polygon fill="midnightblue" stroke="midnightblue" points="2070.58,-22.7 2060.43,-19.66 2066.47,-28.36 2070.58,-22.7"/>
</g>
<!-- Node14 -->
<g id="node14" class="node">
<title>Node14</title>
<g id="a_node14"><a xlink:title=" ">
<polygon fill="none" stroke="#bfbfbf" points="2097.5,-0.5 2097.5,-19.5 2163.5,-19.5 2163.5,-0.5 2097.5,-0.5"/>
<text text-anchor="middle" x="2130.5" y="-7.5" font-family="Helvetica,sans-Serif" font-size="10.00">string_view</text>
</a>
</g>
</g>
<!-- Node12&#45;&gt;Node14 -->
<g id="edge14" class="edge">
<title>Node12&#45;&gt;Node14</title>
<path fill="none" stroke="midnightblue" d="M2130.5,-56.4C2130.5,-48.47 2130.5,-38.46 2130.5,-29.86"/>
<polygon fill="midnightblue" stroke="midnightblue" points="2134,-29.66 2130.5,-19.66 2127,-29.66 2134,-29.66"/>
</g>
<!-- Node15 -->
<g id="node15" class="node">
<title>Node15</title>
<g id="a_node15"><a xlink:title=" ">
<polygon fill="none" stroke="#bfbfbf" points="2182,-0.5 2182,-19.5 2247,-19.5 2247,-0.5 2182,-0.5"/>
<text text-anchor="middle" x="2214.5" y="-7.5" font-family="Helvetica,sans-Serif" font-size="10.00">Eigen/Core</text>
</a>
</g>
</g>
<!-- Node12&#45;&gt;Node15 -->
<g id="edge15" class="edge">
<title>Node12&#45;&gt;Node15</title>
<path fill="none" stroke="midnightblue" d="M2150.41,-56.4C2163.49,-47.13 2180.58,-35.03 2193.82,-25.65"/>
<polygon fill="midnightblue" stroke="midnightblue" points="2196.14,-28.29 2202.28,-19.66 2192.09,-22.58 2196.14,-28.29"/>
</g>
<!-- Node16&#45;&gt;Node8 -->
<g id="edge17" class="edge">
<title>Node16&#45;&gt;Node8</title>
<path fill="none" stroke="midnightblue" d="M1829.35,-190.49C1813.83,-180.54 1792.7,-166.75 1774.5,-154 1742.36,-131.47 1706.03,-103.87 1684.49,-87.26"/>
<polygon fill="midnightblue" stroke="midnightblue" points="1686.53,-84.41 1676.48,-81.06 1682.24,-89.95 1686.53,-84.41"/>
</g>
<!-- Node16&#45;&gt;Node9 -->
<g id="edge19" class="edge">
<title>Node16&#45;&gt;Node9</title>
<path fill="none" stroke="midnightblue" d="M1902.2,-190.48C1948.4,-177.7 2015.23,-159.21 2054.44,-148.37"/>
<polygon fill="midnightblue" stroke="midnightblue" points="2055.55,-151.69 2064.25,-145.65 2053.68,-144.95 2055.55,-151.69"/>
</g>
<!-- Node16&#45;&gt;Node12 -->
<g id="edge27" class="edge">
<title>Node16&#45;&gt;Node12</title>
<path fill="none" stroke="midnightblue" d="M1881.09,-190.5C1931.74,-166.54 2035.01,-117.68 2091.48,-90.96"/>
<polygon fill="midnightblue" stroke="midnightblue" points="2093.25,-94 2100.79,-86.56 2090.25,-87.67 2093.25,-94"/>
</g>
<!-- Node17 -->
<g id="node17" class="node">
<title>Node17</title>
<g id="a_node17"><a xlink:title=" ">
<polygon fill="none" stroke="#bfbfbf" points="1489,-129 1489,-148 1530,-148 1530,-129 1489,-129"/>
<text text-anchor="middle" x="1509.5" y="-136" font-family="Helvetica,sans-Serif" font-size="10.00">string</text>
</a>
</g>
</g>
<!-- Node16&#45;&gt;Node17 -->
<g id="edge18" class="edge">
<title>Node16&#45;&gt;Node17</title>
<path fill="none" stroke="midnightblue" d="M1777.71,-190.48C1703.68,-176.41 1593.24,-155.42 1540.16,-145.33"/>
<polygon fill="midnightblue" stroke="midnightblue" points="1540.51,-141.83 1530.03,-143.4 1539.2,-148.71 1540.51,-141.83"/>
</g>
<!-- Node18 -->
<g id="node18" class="node">
<title>Node18</title>
<g id="a_node18"><a xlink:href="Vector_8h_source.html" target="_top" xlink:title=" ">
<polygon fill="none" stroke="black" points="1783.5,-123.5 1783.5,-153.5 1919.5,-153.5 1919.5,-123.5 1783.5,-123.5"/>
<text text-anchor="start" x="1791.5" y="-141.5" font-family="Helvetica,sans-Serif" font-size="10.00">BipedalLocomotion/Generic</text>
<text text-anchor="middle" x="1851.5" y="-130.5" font-family="Helvetica,sans-Serif" font-size="10.00">Container/Vector.h</text>
</a>
</g>
</g>
<!-- Node16&#45;&gt;Node18 -->
<g id="edge20" class="edge">
<title>Node16&#45;&gt;Node18</title>
<path fill="none" stroke="midnightblue" d="M1851.5,-190.4C1851.5,-182.64 1851.5,-172.81 1851.5,-163.86"/>
<polygon fill="midnightblue" stroke="midnightblue" points="1855,-163.58 1851.5,-153.58 1848,-163.58 1855,-163.58"/>
</g>
<!-- Node18&#45;&gt;Node8 -->
<g id="edge26" class="edge">
<title>Node18&#45;&gt;Node8</title>
<path fill="none" stroke="midnightblue" d="M1807.62,-123.47C1777.58,-113.69 1736.94,-100.09 1701.5,-87 1699.65,-86.32 1697.75,-85.6 1695.85,-84.87"/>
<polygon fill="midnightblue" stroke="midnightblue" points="1696.95,-81.54 1686.36,-81.14 1694.39,-88.06 1696.95,-81.54"/>
</g>
<!-- Node18&#45;&gt;Node12 -->
<g id="edge22" class="edge">
<title>Node18&#45;&gt;Node12</title>
<path fill="none" stroke="midnightblue" d="M1911.7,-123.48C1955.27,-113.32 2014.31,-99.57 2060.08,-88.91"/>
<polygon fill="midnightblue" stroke="midnightblue" points="2060.99,-92.29 2069.93,-86.61 2059.4,-85.47 2060.99,-92.29"/>
</g>
<!-- Node19 -->
<g id="node19" class="node">
<title>Node19</title>
<g id="a_node19"><a xlink:title=" ">
<polygon fill="none" stroke="#bfbfbf" points="1926.5,-62 1926.5,-81 2040.5,-81 2040.5,-62 1926.5,-62"/>
<text text-anchor="middle" x="1983.5" y="-69" font-family="Helvetica,sans-Serif" font-size="10.00">iDynTree/Core/Span.h</text>
</a>
</g>
</g>
<!-- Node18&#45;&gt;Node19 -->
<g id="edge21" class="edge">
<title>Node18&#45;&gt;Node19</title>
<path fill="none" stroke="midnightblue" d="M1880.14,-123.4C1903,-112.14 1934.76,-96.5 1957.02,-85.54"/>
<polygon fill="midnightblue" stroke="midnightblue" points="1958.8,-88.56 1966.22,-81.01 1955.71,-82.28 1958.8,-88.56"/>
</g>
<!-- Node20 -->
<g id="node20" class="node">
<title>Node20</title>
<g id="a_node20"><a xlink:title=" ">
<polygon fill="none" stroke="#bfbfbf" points="1710,-62 1710,-81 1769,-81 1769,-62 1710,-62"/>
<text text-anchor="middle" x="1739.5" y="-69" font-family="Helvetica,sans-Serif" font-size="10.00">functional</text>
</a>
</g>
</g>
<!-- Node18&#45;&gt;Node20 -->
<g id="edge23" class="edge">
<title>Node18&#45;&gt;Node20</title>
<path fill="none" stroke="midnightblue" d="M1827.2,-123.4C1808.15,-112.34 1781.82,-97.06 1762.99,-86.13"/>
<polygon fill="midnightblue" stroke="midnightblue" points="1764.56,-83 1754.16,-81.01 1761.05,-89.05 1764.56,-83"/>
</g>
<!-- Node21 -->
<g id="node21" class="node">
<title>Node21</title>
<g id="a_node21"><a xlink:title=" ">
<polygon fill="none" stroke="#bfbfbf" points="1787,-62 1787,-81 1836,-81 1836,-62 1787,-62"/>
<text text-anchor="middle" x="1811.5" y="-69" font-family="Helvetica,sans-Serif" font-size="10.00">cassert</text>
</a>
</g>
</g>
<!-- Node18&#45;&gt;Node21 -->
<g id="edge24" class="edge">
<title>Node18&#45;&gt;Node21</title>
<path fill="none" stroke="midnightblue" d="M1842.82,-123.4C1836.77,-113.56 1828.66,-100.38 1822.2,-89.89"/>
<polygon fill="midnightblue" stroke="midnightblue" points="1825.07,-87.88 1816.85,-81.19 1819.11,-91.55 1825.07,-87.88"/>
</g>
<!-- Node22 -->
<g id="node22" class="node">
<title>Node22</title>
<g id="a_node22"><a xlink:title=" ">
<polygon fill="none" stroke="#bfbfbf" points="1854.5,-62 1854.5,-81 1908.5,-81 1908.5,-62 1854.5,-62"/>
<text text-anchor="middle" x="1881.5" y="-69" font-family="Helvetica,sans-Serif" font-size="10.00">iostream</text>
</a>
</g>
</g>
<!-- Node18&#45;&gt;Node22 -->
<g id="edge25" class="edge">
<title>Node18&#45;&gt;Node22</title>
<path fill="none" stroke="midnightblue" d="M1858.01,-123.4C1862.46,-113.76 1868.39,-100.91 1873.18,-90.54"/>
<polygon fill="midnightblue" stroke="midnightblue" points="1876.47,-91.74 1877.49,-81.19 1870.12,-88.81 1876.47,-91.74"/>
</g>
<!-- Node23&#45;&gt;Node10 -->
<g id="edge29" class="edge">
<title>Node23&#45;&gt;Node10</title>
<path fill="none" stroke="midnightblue" d="M2075.17,-220.58C2076.2,-228.41 2076.49,-238.37 2076.05,-247.4"/>
<polygon fill="midnightblue" stroke="midnightblue" points="2072.56,-247.13 2075.18,-257.4 2079.53,-247.74 2072.56,-247.13"/>
</g>
<!-- Node25 -->
<g id="node25" class="node">
<title>Node25</title>
<g id="a_node25"><a xlink:title=" ">
<polygon fill="none" stroke="#bfbfbf" points="734,-196 734,-215 859,-215 859,-196 734,-196"/>
<text text-anchor="middle" x="796.5" y="-203" font-family="Helvetica,sans-Serif" font-size="10.00">iDynTree/Core/Wrench.h</text>
</a>
</g>
</g>
<!-- Node24&#45;&gt;Node25 -->
<g id="edge31" class="edge">
<title>Node24&#45;&gt;Node25</title>
<path fill="none" stroke="midnightblue" d="M844.7,-324.19C834.79,-314.85 822.78,-301.86 815.5,-288 805.07,-268.15 800.31,-242.6 798.17,-225.45"/>
<polygon fill="midnightblue" stroke="midnightblue" points="801.61,-224.66 797.08,-215.09 794.65,-225.4 801.61,-224.66"/>
</g>
<!-- Node26 -->
<g id="node26" class="node">
<title>Node26</title>
<g id="a_node26"><a xlink:title=" ">
<polygon fill="none" stroke="#bfbfbf" points="824.5,-263 824.5,-282 952.5,-282 952.5,-263 824.5,-263"/>
<text text-anchor="middle" x="888.5" y="-270" font-family="Helvetica,sans-Serif" font-size="10.00">iDynTree/Model/Indices.h</text>
</a>
</g>
</g>
<!-- Node24&#45;&gt;Node26 -->
<g id="edge32" class="edge">
<title>Node24&#45;&gt;Node26</title>
<path fill="none" stroke="midnightblue" d="M867.36,-324.4C871.36,-314.76 876.7,-301.91 881.01,-291.54"/>
<polygon fill="midnightblue" stroke="midnightblue" points="884.28,-292.77 884.89,-282.19 877.82,-290.09 884.28,-292.77"/>
</g>
<!-- Node27 -->
<g id="node27" class="node">
<title>Node27</title>
<g id="a_node27"><a xlink:href="ContactModel_8h.html" target="_top" xlink:title=" ">
<polygon fill="none" stroke="black" points="1125,-257.5 1125,-287.5 1262,-287.5 1262,-257.5 1125,-257.5"/>
<text text-anchor="start" x="1133" y="-275.5" font-family="Helvetica,sans-Serif" font-size="10.00">BipedalLocomotion/Contact</text>
<text text-anchor="middle" x="1193.5" y="-264.5" font-family="Helvetica,sans-Serif" font-size="10.00">Models/ContactModel.h</text>
</a>
</g>
</g>
<!-- Node24&#45;&gt;Node27 -->
<g id="edge33" class="edge">
<title>Node24&#45;&gt;Node27</title>
<path fill="none" stroke="midnightblue" d="M929.89,-325.11C983.7,-314.58 1058.73,-299.89 1114.99,-288.87"/>
<polygon fill="midnightblue" stroke="midnightblue" points="1115.77,-292.28 1124.92,-286.93 1114.43,-285.41 1115.77,-292.28"/>
</g>
<!-- Node27&#45;&gt;Node3 -->
<g id="edge41" class="edge">
<title>Node27&#45;&gt;Node3</title>
<path fill="none" stroke="midnightblue" d="M1124.83,-266.46C1033.17,-259.21 865.94,-244.08 724.5,-221 717.81,-219.91 710.78,-218.57 703.9,-217.15"/>
<polygon fill="midnightblue" stroke="midnightblue" points="704.5,-213.7 693.99,-215.04 703.04,-220.55 704.5,-213.7"/>
</g>
<!-- Node27&#45;&gt;Node8 -->
<g id="edge35" class="edge">
<title>Node27&#45;&gt;Node8</title>
<path fill="none" stroke="midnightblue" d="M1262.21,-258.94C1294.66,-251.11 1333.08,-239.02 1364.5,-221 1381.96,-210.99 1382.33,-203.22 1397.5,-190 1433.25,-158.86 1438.29,-144.59 1480.5,-123 1528.86,-98.26 1590.73,-84.54 1629.24,-77.85"/>
<polygon fill="midnightblue" stroke="midnightblue" points="1630.16,-81.24 1639.45,-76.14 1629.01,-74.34 1630.16,-81.24"/>
</g>
<!-- Node27&#45;&gt;Node16 -->
<g id="edge44" class="edge">
<title>Node27&#45;&gt;Node16</title>
<path fill="none" stroke="midnightblue" d="M1262.05,-267.26C1367.85,-260.32 1577.47,-244.99 1765.04,-221.12"/>
<polygon fill="midnightblue" stroke="midnightblue" points="1765.62,-224.58 1775.09,-219.84 1764.72,-217.64 1765.62,-224.58"/>
</g>
<!-- Node27&#45;&gt;Node17 -->
<g id="edge36" class="edge">
<title>Node27&#45;&gt;Node17</title>
<path fill="none" stroke="midnightblue" d="M1262.33,-261.31C1302.97,-253.64 1354.67,-240.95 1397.5,-221 1398.77,-220.41 1457.61,-177.44 1489.48,-154.14"/>
<polygon fill="midnightblue" stroke="midnightblue" points="1491.68,-156.87 1497.69,-148.14 1487.55,-151.22 1491.68,-156.87"/>
</g>
<!-- Node27&#45;&gt;Node25 -->
<g id="edge43" class="edge">
<title>Node27&#45;&gt;Node25</title>
<path fill="none" stroke="midnightblue" d="M1124.88,-261.74C1059,-252.16 956.76,-236.74 868.5,-221 861.67,-219.78 854.49,-218.43 847.41,-217.05"/>
<polygon fill="midnightblue" stroke="midnightblue" points="847.67,-213.53 837.18,-215.02 846.31,-220.4 847.67,-213.53"/>
</g>
<!-- Node28 -->
<g id="node28" class="node">
<title>Node28</title>
<g id="a_node28"><a xlink:title=" ">
<polygon fill="none" stroke="#bfbfbf" points="877.5,-196 877.5,-215 909.5,-215 909.5,-196 877.5,-196"/>
<text text-anchor="middle" x="893.5" y="-203" font-family="Helvetica,sans-Serif" font-size="10.00">any</text>
</a>
</g>
</g>
<!-- Node27&#45;&gt;Node28 -->
<g id="edge34" class="edge">
<title>Node27&#45;&gt;Node28</title>
<path fill="none" stroke="midnightblue" d="M1124.81,-265.5C1068.1,-259 986.24,-246 918.5,-221 917.46,-220.62 916.42,-220.19 915.38,-219.74"/>
<polygon fill="midnightblue" stroke="midnightblue" points="916.81,-216.54 906.32,-215.06 913.6,-222.76 916.81,-216.54"/>
</g>
<!-- Node29 -->
<g id="node29" class="node">
<title>Node29</title>
<g id="a_node29"><a xlink:title=" ">
<polygon fill="none" stroke="#bfbfbf" points="928,-196 928,-215 1011,-215 1011,-196 928,-196"/>
<text text-anchor="middle" x="969.5" y="-203" font-family="Helvetica,sans-Serif" font-size="10.00">unordered_map</text>
</a>
</g>
</g>
<!-- Node27&#45;&gt;Node29 -->
<g id="edge37" class="edge">
<title>Node27&#45;&gt;Node29</title>
<path fill="none" stroke="midnightblue" d="M1145.17,-257.48C1104.32,-245.62 1046.55,-228.86 1008.57,-217.84"/>
<polygon fill="midnightblue" stroke="midnightblue" points="1009.47,-214.45 998.89,-215.03 1007.52,-221.18 1009.47,-214.45"/>
</g>
<!-- Node30 -->
<g id="node30" class="node">
<title>Node30</title>
<g id="a_node30"><a xlink:title=" ">
<polygon fill="none" stroke="#bfbfbf" points="1029.5,-196 1029.5,-215 1185.5,-215 1185.5,-196 1029.5,-196"/>
<text text-anchor="middle" x="1107.5" y="-203" font-family="Helvetica,sans-Serif" font-size="10.00">iDynTree/Core/MatrixDynSize.h</text>
</a>
</g>
</g>
<!-- Node27&#45;&gt;Node30 -->
<g id="edge38" class="edge">
<title>Node27&#45;&gt;Node30</title>
<path fill="none" stroke="midnightblue" d="M1174.84,-257.4C1160.77,-246.76 1141.51,-232.2 1127.19,-221.38"/>
<polygon fill="midnightblue" stroke="midnightblue" points="1129.09,-218.43 1119,-215.19 1124.87,-224.02 1129.09,-218.43"/>
</g>
<!-- Node31 -->
<g id="node31" class="node">
<title>Node31</title>
<g id="a_node31"><a xlink:title=" ">
<polygon fill="none" stroke="#bfbfbf" points="1203.5,-196 1203.5,-215 1355.5,-215 1355.5,-196 1203.5,-196"/>
<text text-anchor="middle" x="1279.5" y="-203" font-family="Helvetica,sans-Serif" font-size="10.00">iDynTree/Core/MatrixFixSize.h</text>
</a>
</g>
</g>
<!-- Node27&#45;&gt;Node31 -->
<g id="edge39" class="edge">
<title>Node27&#45;&gt;Node31</title>
<path fill="none" stroke="midnightblue" d="M1212.16,-257.4C1226.23,-246.76 1245.49,-232.2 1259.81,-221.38"/>
<polygon fill="midnightblue" stroke="midnightblue" points="1262.13,-224.02 1268,-215.19 1257.91,-218.43 1262.13,-224.02"/>
</g>
<!-- Node32 -->
<g id="node32" class="node">
<title>Node32</title>
<g id="a_node32"><a xlink:title=" ">
<polygon fill="none" stroke="#bfbfbf" points="1449.5,-196 1449.5,-215 1585.5,-215 1585.5,-196 1449.5,-196"/>
<text text-anchor="middle" x="1517.5" y="-203" font-family="Helvetica,sans-Serif" font-size="10.00">iDynTree/Core/Transform.h</text>
</a>
</g>
</g>
<!-- Node27&#45;&gt;Node32 -->
<g id="edge40" class="edge">
<title>Node27&#45;&gt;Node32</title>
<path fill="none" stroke="midnightblue" d="M1262.21,-257.72C1322.72,-245.58 1409.56,-228.15 1464.74,-217.08"/>
<polygon fill="midnightblue" stroke="midnightblue" points="1465.55,-220.49 1474.66,-215.09 1464.17,-213.63 1465.55,-220.49"/>
</g>
<!-- Node33 -->
<g id="node33" class="node">
<title>Node33</title>
<g id="a_node33"><a xlink:title=" ">
<polygon fill="none" stroke="#bfbfbf" points="1604,-196 1604,-215 1757,-215 1757,-196 1604,-196"/>
<text text-anchor="middle" x="1680.5" y="-203" font-family="Helvetica,sans-Serif" font-size="10.00">iDynTree/Core/VectorFixSize.h</text>
</a>
</g>
</g>
<!-- Node27&#45;&gt;Node33 -->
<g id="edge42" class="edge">
<title>Node27&#45;&gt;Node33</title>
<path fill="none" stroke="midnightblue" d="M1262.09,-263.75C1342.03,-254.5 1478.05,-238.14 1594.5,-221 1603.41,-219.69 1612.82,-218.2 1622.02,-216.7"/>
<polygon fill="midnightblue" stroke="midnightblue" points="1622.6,-220.15 1631.89,-215.06 1621.45,-213.24 1622.6,-220.15"/>
</g>
</g>
</svg>
