<?xml version="1.0" encoding="UTF-8" standalone="no"?>
<!DOCTYPE svg PUBLIC "-//W3C//DTD SVG 1.1//EN"
 "http://www.w3.org/Graphics/SVG/1.1/DTD/svg11.dtd">
<!-- Generated by graphviz version 2.43.0 (0)
 -->
<!-- Title: System/include/BipedalLocomotion/System/ForwardEuler.h Pages: 1 -->
<!--zoomable 497 -->
<svg id="main" version="1.1" xmlns="http://www.w3.org/2000/svg" xmlns:xlink="http://www.w3.org/1999/xlink" xml:space="preserve" onload="init(evt)">
<style type="text/css"><![CDATA[
.edge:hover path { stroke: red; }
.edge:hover polygon { stroke: red; fill: red; }
]]></style>
<script type="text/javascript"><![CDATA[
var edges = document.getElementsByTagName('g');
if (edges && edges.length) {
  for (var i=0;i<edges.length;i++) {
    if (edges[i].id.substr(0,4)=='edge') {
      edges[i].setAttribute('class','edge');
    }
  }
}
]]></script>
        <defs>
                <circle id="rim" cx="0" cy="0" r="7"/>
                <circle id="rim2" cx="0" cy="0" r="3.5"/>
                <g id="zoomPlus">
                        <use xlink:href="#rim" fill="#404040">
                                <set attributeName="fill" to="#808080" begin="zoomplus.mouseover" end="zoomplus.mouseout"/>
                        </use>
                        <path d="M-4,0h8M0,-4v8" fill="none" stroke="white" stroke-width="1.5" pointer-events="none"/>
                </g>
                <g id="zoomMin">
                        <use xlink:href="#rim" fill="#404040">
                                <set attributeName="fill" to="#808080" begin="zoomminus.mouseover" end="zoomminus.mouseout"/>
                        </use>
                        <path d="M-4,0h8" fill="none" stroke="white" stroke-width="1.5" pointer-events="none"/>
                </g>
                <g id="dirArrow">
                        <path fill="none" stroke="white" stroke-width="1.5" d="M0,-3.0v7 M-2.5,-0.5L0,-3.0L2.5,-0.5"/>
                </g>
               <g id="resetDef">
                       <use xlink:href="#rim2" fill="#404040">
                               <set attributeName="fill" to="#808080" begin="reset.mouseover" end="reset.mouseout"/>
                       </use>
               </g>
        </defs>

<script type="text/javascript">
var viewWidth = 1256;
var viewHeight = 497;
var sectionId = 'dynsection-0';
</script>
<script xlink:href="svgpan.js"/>
<svg id="graph" class="graph">
<g id="viewport">
<title>System/include/BipedalLocomotion/System/ForwardEuler.h</title>
<!-- Node1 -->
<g id="node1" class="node">
<title>Node1</title>
<g id="a_node1"><a xlink:title=" ">
<polygon fill="#bfbfbf" stroke="black" points="881.5,-458.5 881.5,-488.5 1051.5,-488.5 1051.5,-458.5 881.5,-458.5"/>
<text text-anchor="start" x="889.5" y="-476.5" font-family="Helvetica,sans-Serif" font-size="10.00">System/include/BipedalLocomotion</text>
<text text-anchor="middle" x="966.5" y="-465.5" font-family="Helvetica,sans-Serif" font-size="10.00">/System/ForwardEuler.h</text>
</a>
</g>
</g>
<!-- Node2 -->
<g id="node2" class="node">
<title>Node2</title>
<g id="a_node2"><a xlink:title=" ">
<polygon fill="none" stroke="#bfbfbf" points="628.5,-196 628.5,-215 666.5,-215 666.5,-196 628.5,-196"/>
<text text-anchor="middle" x="647.5" y="-203" font-family="Helvetica,sans-Serif" font-size="10.00">tuple</text>
</a>
</g>
</g>
<!-- Node1&#45;&gt;Node2 -->
<g id="edge1" class="edge">
<title>Node1&#45;&gt;Node2</title>
<path fill="none" stroke="midnightblue" d="M881.33,-465.82C814.91,-458.89 729.8,-445.64 704.5,-422 647.89,-369.12 644.96,-267.17 646.37,-225.23"/>
<polygon fill="midnightblue" stroke="midnightblue" points="649.88,-225.23 646.85,-215.08 642.88,-224.9 649.88,-225.23"/>
</g>
<!-- Node3 -->
<g id="node3" class="node">
<title>Node3</title>
<g id="a_node3"><a xlink:title=" ">
<polygon fill="none" stroke="#bfbfbf" points="501.5,-0.5 501.5,-19.5 563.5,-19.5 563.5,-0.5 501.5,-0.5"/>
<text text-anchor="middle" x="532.5" y="-7.5" font-family="Helvetica,sans-Serif" font-size="10.00">type_traits</text>
</a>
</g>
</g>
<!-- Node1&#45;&gt;Node3 -->
<g id="edge2" class="edge">
<title>Node1&#45;&gt;Node3</title>
<path fill="none" stroke="midnightblue" d="M955.6,-458.2C948.65,-448.46 939.96,-435.02 934.5,-422 920.12,-387.7 915.5,-377.69 915.5,-340.5 915.5,-340.5 915.5,-340.5 915.5,-137.5 915.5,-66.06 672.22,-28.14 573.44,-15.69"/>
<polygon fill="midnightblue" stroke="midnightblue" points="573.87,-12.22 563.52,-14.46 573.01,-19.16 573.87,-12.22"/>
</g>
<!-- Node4 -->
<g id="node4" class="node">
<title>Node4</title>
<g id="a_node4"><a xlink:title=" ">
<polygon fill="none" stroke="#bfbfbf" points="943.5,-397 943.5,-416 1093.5,-416 1093.5,-397 943.5,-397"/>
<text text-anchor="middle" x="1018.5" y="-404" font-family="Helvetica,sans-Serif" font-size="10.00">iDynTree/Core/EigenHelpers.h</text>
</a>
</g>
</g>
<!-- Node1&#45;&gt;Node4 -->
<g id="edge3" class="edge">
<title>Node1&#45;&gt;Node4</title>
<path fill="none" stroke="midnightblue" d="M977.78,-458.4C985.81,-448.36 996.63,-434.84 1005.1,-424.25"/>
<polygon fill="midnightblue" stroke="midnightblue" points="1008.03,-426.19 1011.54,-416.19 1002.56,-421.82 1008.03,-426.19"/>
</g>
<!-- Node5 -->
<g id="node5" class="node">
<title>Node5</title>
<g id="a_node5"><a xlink:href="FixedStepIntegrator_8h.html" target="_top" xlink:title=" ">
<polygon fill="none" stroke="black" points="713.5,-391.5 713.5,-421.5 849.5,-421.5 849.5,-391.5 713.5,-391.5"/>
<text text-anchor="start" x="721.5" y="-409.5" font-family="Helvetica,sans-Serif" font-size="10.00">BipedalLocomotion/System</text>
<text text-anchor="middle" x="781.5" y="-398.5" font-family="Helvetica,sans-Serif" font-size="10.00">/FixedStepIntegrator.h</text>
</a>
</g>
</g>
<!-- Node1&#45;&gt;Node5 -->
<g id="edge4" class="edge">
<title>Node1&#45;&gt;Node5</title>
<path fill="none" stroke="midnightblue" d="M926.36,-458.4C898.48,-448.6 861.14,-435.48 831.35,-425.02"/>
<polygon fill="midnightblue" stroke="midnightblue" points="832.16,-421.59 821.56,-421.58 829.84,-428.19 832.16,-421.59"/>
</g>
<!-- Node24 -->
<g id="node24" class="node">
<title>Node24</title>
<g id="a_node24"><a xlink:href="ForwardEuler_8tpp.html" target="_top" xlink:title=" ">
<polygon fill="none" stroke="black" points="1111.5,-391.5 1111.5,-421.5 1247.5,-421.5 1247.5,-391.5 1111.5,-391.5"/>
<text text-anchor="start" x="1119.5" y="-409.5" font-family="Helvetica,sans-Serif" font-size="10.00">BipedalLocomotion/System</text>
<text text-anchor="middle" x="1179.5" y="-398.5" font-family="Helvetica,sans-Serif" font-size="10.00">/ForwardEuler.tpp</text>
</a>
</g>
</g>
<!-- Node1&#45;&gt;Node24 -->
<g id="edge40" class="edge">
<title>Node1&#45;&gt;Node24</title>
<path fill="none" stroke="midnightblue" d="M1006.79,-458.48C1038.11,-448.51 1082,-435.09 1117.74,-424.51"/>
<polygon fill="midnightblue" stroke="midnightblue" points="1118.98,-427.8 1127.58,-421.61 1117,-421.08 1118.98,-427.8"/>
</g>
<!-- Node5&#45;&gt;Node2 -->
<g id="edge6" class="edge">
<title>Node5&#45;&gt;Node2</title>
<path fill="none" stroke="midnightblue" d="M751.12,-391.38C735.39,-382.76 716.94,-370.43 704.5,-355 672.38,-315.15 656.89,-255.18 650.79,-225.09"/>
<polygon fill="midnightblue" stroke="midnightblue" points="654.2,-224.3 648.9,-215.13 647.33,-225.61 654.2,-224.3"/>
</g>
<!-- Node6 -->
<g id="node6" class="node">
<title>Node6</title>
<g id="a_node6"><a xlink:title=" ">
<polygon fill="none" stroke="#bfbfbf" points="513.5,-62 513.5,-81 565.5,-81 565.5,-62 513.5,-62"/>
<text text-anchor="middle" x="539.5" y="-69" font-family="Helvetica,sans-Serif" font-size="10.00">memory</text>
</a>
</g>
</g>
<!-- Node5&#45;&gt;Node6 -->
<g id="edge5" class="edge">
<title>Node5&#45;&gt;Node6</title>
<path fill="none" stroke="midnightblue" d="M813.91,-391.41C829.62,-383.01 847.42,-370.86 858.5,-355 879.8,-324.51 877.5,-310.69 877.5,-273.5 877.5,-273.5 877.5,-273.5 877.5,-204.5 877.5,-140.26 662.95,-94.59 575.72,-78.68"/>
<polygon fill="midnightblue" stroke="midnightblue" points="576.2,-75.21 565.74,-76.89 574.97,-82.1 576.2,-75.21"/>
</g>
<!-- Node7 -->
<g id="node7" class="node">
<title>Node7</title>
<g id="a_node7"><a xlink:href="Integrator_8h.html" target="_top" xlink:title=" ">
<polygon fill="none" stroke="black" points="397.5,-324.5 397.5,-354.5 533.5,-354.5 533.5,-324.5 397.5,-324.5"/>
<text text-anchor="start" x="405.5" y="-342.5" font-family="Helvetica,sans-Serif" font-size="10.00">BipedalLocomotion/System</text>
<text text-anchor="middle" x="465.5" y="-331.5" font-family="Helvetica,sans-Serif" font-size="10.00">/Integrator.h</text>
</a>
</g>
</g>
<!-- Node5&#45;&gt;Node7 -->
<g id="edge7" class="edge">
<title>Node5&#45;&gt;Node7</title>
<path fill="none" stroke="midnightblue" d="M713.32,-391.48C663.38,-381.2 595.51,-367.24 543.42,-356.53"/>
<polygon fill="midnightblue" stroke="midnightblue" points="544.06,-353.09 533.56,-354.5 542.65,-359.94 544.06,-353.09"/>
</g>
<!-- Node22 -->
<g id="node22" class="node">
<title>Node22</title>
<g id="a_node22"><a xlink:href="FixedStepIntegrator_8tpp.html" target="_top" xlink:title=" ">
<polygon fill="none" stroke="black" points="713.5,-324.5 713.5,-354.5 849.5,-354.5 849.5,-324.5 713.5,-324.5"/>
<text text-anchor="start" x="721.5" y="-342.5" font-family="Helvetica,sans-Serif" font-size="10.00">BipedalLocomotion/System</text>
<text text-anchor="middle" x="781.5" y="-331.5" font-family="Helvetica,sans-Serif" font-size="10.00">/FixedStepIntegrator.tpp</text>
</a>
</g>
</g>
<!-- Node5&#45;&gt;Node22 -->
<g id="edge35" class="edge">
<title>Node5&#45;&gt;Node22</title>
<path fill="none" stroke="midnightblue" d="M775.82,-391.4C774.79,-383.56 774.51,-373.6 774.96,-364.57"/>
<polygon fill="midnightblue" stroke="midnightblue" points="778.45,-364.84 775.83,-354.58 771.47,-364.24 778.45,-364.84"/>
</g>
<!-- Node7&#45;&gt;Node2 -->
<g id="edge9" class="edge">
<title>Node7&#45;&gt;Node2</title>
<path fill="none" stroke="midnightblue" d="M518.94,-324.46C542.55,-316.45 569.62,-304.62 590.5,-288 612.39,-270.58 629.4,-242.57 638.94,-224.35"/>
<polygon fill="midnightblue" stroke="midnightblue" points="642.09,-225.87 643.46,-215.36 635.84,-222.73 642.09,-225.87"/>
</g>
<!-- Node7&#45;&gt;Node6 -->
<g id="edge8" class="edge">
<title>Node7&#45;&gt;Node6</title>
<path fill="none" stroke="midnightblue" d="M453.12,-324.3C439.85,-307.26 422.45,-278.31 436.5,-257 458.86,-223.09 496.03,-253.42 520.5,-221 549.52,-182.55 546.48,-121.95 542.59,-91.42"/>
<polygon fill="midnightblue" stroke="midnightblue" points="546.02,-90.69 541.12,-81.29 539.09,-91.69 546.02,-90.69"/>
</g>
<!-- Node8 -->
<g id="node8" class="node">
<title>Node8</title>
<g id="a_node8"><a xlink:href="TemplateHelpers_8h_source.html" target="_top" xlink:title=" ">
<polygon fill="none" stroke="black" points="3,-56.5 3,-86.5 146,-86.5 146,-56.5 3,-56.5"/>
<text text-anchor="start" x="11" y="-74.5" font-family="Helvetica,sans-Serif" font-size="10.00">BipedalLocomotion/Generic</text>
<text text-anchor="middle" x="74.5" y="-63.5" font-family="Helvetica,sans-Serif" font-size="10.00">Container/TemplateHelpers.h</text>
</a>
</g>
</g>
<!-- Node7&#45;&gt;Node8 -->
<g id="edge10" class="edge">
<title>Node7&#45;&gt;Node8</title>
<path fill="none" stroke="midnightblue" d="M397.31,-334.77C343.25,-329.61 267,-317.31 206.5,-288 135.61,-253.66 117.87,-227.86 90.5,-154 83.59,-135.37 79.49,-113.18 77.17,-96.66"/>
<polygon fill="midnightblue" stroke="midnightblue" points="80.64,-96.19 75.89,-86.72 73.69,-97.08 80.64,-96.19"/>
</g>
<!-- Node11 -->
<g id="node11" class="node">
<title>Node11</title>
<g id="a_node11"><a xlink:href="IParametersHandler_8h.html" target="_top" xlink:title=" ">
<polygon fill="none" stroke="black" points="359.5,-190.5 359.5,-220.5 511.5,-220.5 511.5,-190.5 359.5,-190.5"/>
<text text-anchor="start" x="367.5" y="-208.5" font-family="Helvetica,sans-Serif" font-size="10.00">BipedalLocomotion/Parameters</text>
<text text-anchor="middle" x="435.5" y="-197.5" font-family="Helvetica,sans-Serif" font-size="10.00">Handler/IParametersHandler.h</text>
</a>
</g>
</g>
<!-- Node7&#45;&gt;Node11 -->
<g id="edge14" class="edge">
<title>Node7&#45;&gt;Node11</title>
<path fill="none" stroke="midnightblue" d="M438.94,-324.47C425.67,-315.88 410.89,-303.55 403.5,-288 394.17,-268.36 405.26,-245.22 416.86,-228.62"/>
<polygon fill="midnightblue" stroke="midnightblue" points="419.68,-230.7 422.87,-220.59 414.08,-226.5 419.68,-230.7"/>
</g>
<!-- Node19 -->
<g id="node19" class="node">
<title>Node19</title>
<g id="a_node19"><a xlink:href="DynamicalSystem_8h.html" target="_top" xlink:title=" ">
<polygon fill="none" stroke="black" points="215.5,-257.5 215.5,-287.5 351.5,-287.5 351.5,-257.5 215.5,-257.5"/>
<text text-anchor="start" x="223.5" y="-275.5" font-family="Helvetica,sans-Serif" font-size="10.00">BipedalLocomotion/System</text>
<text text-anchor="middle" x="283.5" y="-264.5" font-family="Helvetica,sans-Serif" font-size="10.00">/DynamicalSystem.h</text>
</a>
</g>
</g>
<!-- Node7&#45;&gt;Node19 -->
<g id="edge26" class="edge">
<title>Node7&#45;&gt;Node19</title>
<path fill="none" stroke="midnightblue" d="M426.01,-324.4C398.58,-314.6 361.85,-301.48 332.54,-291.02"/>
<polygon fill="midnightblue" stroke="midnightblue" points="333.51,-287.64 322.91,-287.58 331.15,-294.24 333.51,-287.64"/>
</g>
<!-- Node21 -->
<g id="node21" class="node">
<title>Node21</title>
<g id="a_node21"><a xlink:href="Integrator_8tpp.html" target="_top" xlink:title=" ">
<polygon fill="none" stroke="black" points="445.5,-257.5 445.5,-287.5 581.5,-287.5 581.5,-257.5 445.5,-257.5"/>
<text text-anchor="start" x="453.5" y="-275.5" font-family="Helvetica,sans-Serif" font-size="10.00">BipedalLocomotion/System</text>
<text text-anchor="middle" x="513.5" y="-264.5" font-family="Helvetica,sans-Serif" font-size="10.00">/Integrator.tpp</text>
</a>
</g>
</g>
<!-- Node7&#45;&gt;Node21 -->
<g id="edge33" class="edge">
<title>Node7&#45;&gt;Node21</title>
<path fill="none" stroke="midnightblue" d="M470.24,-324.4C475.36,-315.96 483.15,-305.07 490.81,-295.52"/>
<polygon fill="midnightblue" stroke="midnightblue" points="493.72,-297.5 497.43,-287.58 488.34,-293.02 493.72,-297.5"/>
</g>
<!-- Node8&#45;&gt;Node3 -->
<g id="edge11" class="edge">
<title>Node8&#45;&gt;Node3</title>
<path fill="none" stroke="midnightblue" d="M146.02,-57.46C149.22,-56.95 152.39,-56.46 155.5,-56 277.04,-37.88 421.5,-22.29 491.03,-15.15"/>
<polygon fill="midnightblue" stroke="midnightblue" points="491.55,-18.62 501.14,-14.12 490.83,-11.65 491.55,-18.62"/>
</g>
<!-- Node9 -->
<g id="node9" class="node">
<title>Node9</title>
<g id="a_node9"><a xlink:title=" ">
<polygon fill="none" stroke="#bfbfbf" points="83.5,-0.5 83.5,-19.5 149.5,-19.5 149.5,-0.5 83.5,-0.5"/>
<text text-anchor="middle" x="116.5" y="-7.5" font-family="Helvetica,sans-Serif" font-size="10.00">string_view</text>
</a>
</g>
</g>
<!-- Node8&#45;&gt;Node9 -->
<g id="edge12" class="edge">
<title>Node8&#45;&gt;Node9</title>
<path fill="none" stroke="midnightblue" d="M84.45,-56.4C90.49,-47.84 98.24,-36.87 104.6,-27.86"/>
<polygon fill="midnightblue" stroke="midnightblue" points="107.48,-29.85 110.39,-19.66 101.76,-25.81 107.48,-29.85"/>
</g>
<!-- Node10 -->
<g id="node10" class="node">
<title>Node10</title>
<g id="a_node10"><a xlink:title=" ">
<polygon fill="none" stroke="#bfbfbf" points="0,-0.5 0,-19.5 65,-19.5 65,-0.5 0,-0.5"/>
<text text-anchor="middle" x="32.5" y="-7.5" font-family="Helvetica,sans-Serif" font-size="10.00">Eigen/Core</text>
</a>
</g>
</g>
<!-- Node8&#45;&gt;Node10 -->
<g id="edge13" class="edge">
<title>Node8&#45;&gt;Node10</title>
<path fill="none" stroke="midnightblue" d="M64.55,-56.4C58.51,-47.84 50.76,-36.87 44.4,-27.86"/>
<polygon fill="midnightblue" stroke="midnightblue" points="47.24,-25.81 38.61,-19.66 41.52,-29.85 47.24,-25.81"/>
</g>
<!-- Node11&#45;&gt;Node6 -->
<g id="edge15" class="edge">
<title>Node11&#45;&gt;Node6</title>
<path fill="none" stroke="midnightblue" d="M449.63,-190.4C459.26,-180.52 472.11,-166.85 482.5,-154 499.56,-132.9 517.16,-106.99 528.2,-90.13"/>
<polygon fill="midnightblue" stroke="midnightblue" points="531.39,-91.65 533.89,-81.35 525.51,-87.84 531.39,-91.65"/>
</g>
<!-- Node11&#45;&gt;Node8 -->
<g id="edge25" class="edge">
<title>Node11&#45;&gt;Node8</title>
<path fill="none" stroke="midnightblue" d="M359.3,-194.6C292.64,-185.13 201.46,-169.95 168.5,-154 152.59,-146.3 118.59,-115.12 96.14,-93.64"/>
<polygon fill="midnightblue" stroke="midnightblue" points="98.36,-90.92 88.73,-86.5 93.5,-95.96 98.36,-90.92"/>
</g>
<!-- Node12 -->
<g id="node12" class="node">
<title>Node12</title>
<g id="a_node12"><a xlink:title=" ">
<polygon fill="none" stroke="#bfbfbf" points="432,-129 432,-148 473,-148 473,-129 432,-129"/>
<text text-anchor="middle" x="452.5" y="-136" font-family="Helvetica,sans-Serif" font-size="10.00">string</text>
</a>
</g>
</g>
<!-- Node11&#45;&gt;Node12 -->
<g id="edge16" class="edge">
<title>Node11&#45;&gt;Node12</title>
<path fill="none" stroke="midnightblue" d="M439.19,-190.4C441.66,-180.96 444.93,-168.45 447.61,-158.19"/>
<polygon fill="midnightblue" stroke="midnightblue" points="451.08,-158.75 450.23,-148.19 444.31,-156.98 451.08,-158.75"/>
</g>
<!-- Node13 -->
<g id="node13" class="node">
<title>Node13</title>
<g id="a_node13"><a xlink:title=" ">
<polygon fill="none" stroke="#bfbfbf" points="369.5,-129 369.5,-148 413.5,-148 413.5,-129 369.5,-129"/>
<text text-anchor="middle" x="391.5" y="-136" font-family="Helvetica,sans-Serif" font-size="10.00">vector</text>
</a>
</g>
</g>
<!-- Node11&#45;&gt;Node13 -->
<g id="edge17" class="edge">
<title>Node11&#45;&gt;Node13</title>
<path fill="none" stroke="midnightblue" d="M425.95,-190.4C419.23,-180.46 410.19,-167.11 403.06,-156.57"/>
<polygon fill="midnightblue" stroke="midnightblue" points="405.89,-154.51 397.39,-148.19 400.09,-158.44 405.89,-154.51"/>
</g>
<!-- Node14 -->
<g id="node14" class="node">
<title>Node14</title>
<g id="a_node14"><a xlink:href="Vector_8h_source.html" target="_top" xlink:title=" ">
<polygon fill="none" stroke="black" points="177.5,-123.5 177.5,-153.5 313.5,-153.5 313.5,-123.5 177.5,-123.5"/>
<text text-anchor="start" x="185.5" y="-141.5" font-family="Helvetica,sans-Serif" font-size="10.00">BipedalLocomotion/Generic</text>
<text text-anchor="middle" x="245.5" y="-130.5" font-family="Helvetica,sans-Serif" font-size="10.00">Container/Vector.h</text>
</a>
</g>
</g>
<!-- Node11&#45;&gt;Node14 -->
<g id="edge18" class="edge">
<title>Node11&#45;&gt;Node14</title>
<path fill="none" stroke="midnightblue" d="M394.27,-190.4C365.52,-180.56 326.96,-167.37 296.3,-156.88"/>
<polygon fill="midnightblue" stroke="midnightblue" points="297.24,-153.5 286.65,-153.58 294.98,-160.13 297.24,-153.5"/>
</g>
<!-- Node14&#45;&gt;Node6 -->
<g id="edge24" class="edge">
<title>Node14&#45;&gt;Node6</title>
<path fill="none" stroke="midnightblue" d="M313.55,-124.96C384.04,-111.85 486.41,-92.45 504.5,-87 506.78,-86.31 509.13,-85.53 511.46,-84.69"/>
<polygon fill="midnightblue" stroke="midnightblue" points="512.81,-87.92 520.86,-81.03 510.27,-81.39 512.81,-87.92"/>
</g>
<!-- Node14&#45;&gt;Node8 -->
<g id="edge20" class="edge">
<title>Node14&#45;&gt;Node8</title>
<path fill="none" stroke="midnightblue" d="M208.4,-123.4C182.74,-113.64 148.41,-100.59 120.94,-90.15"/>
<polygon fill="midnightblue" stroke="midnightblue" points="122.12,-86.86 111.53,-86.58 119.64,-93.4 122.12,-86.86"/>
</g>
<!-- Node15 -->
<g id="node15" class="node">
<title>Node15</title>
<g id="a_node15"><a xlink:title=" ">
<polygon fill="none" stroke="#bfbfbf" points="164.5,-62 164.5,-81 278.5,-81 278.5,-62 164.5,-62"/>
<text text-anchor="middle" x="221.5" y="-69" font-family="Helvetica,sans-Serif" font-size="10.00">iDynTree/Core/Span.h</text>
</a>
</g>
</g>
<!-- Node14&#45;&gt;Node15 -->
<g id="edge19" class="edge">
<title>Node14&#45;&gt;Node15</title>
<path fill="none" stroke="midnightblue" d="M240.29,-123.4C236.77,-113.86 232.09,-101.18 228.28,-90.86"/>
<polygon fill="midnightblue" stroke="midnightblue" points="231.46,-89.36 224.71,-81.19 224.89,-91.79 231.46,-89.36"/>
</g>
<!-- Node16 -->
<g id="node16" class="node">
<title>Node16</title>
<g id="a_node16"><a xlink:title=" ">
<polygon fill="none" stroke="#bfbfbf" points="297,-62 297,-81 356,-81 356,-62 297,-62"/>
<text text-anchor="middle" x="326.5" y="-69" font-family="Helvetica,sans-Serif" font-size="10.00">functional</text>
</a>
</g>
</g>
<!-- Node14&#45;&gt;Node16 -->
<g id="edge21" class="edge">
<title>Node14&#45;&gt;Node16</title>
<path fill="none" stroke="midnightblue" d="M263.08,-123.4C276.21,-112.86 294.13,-98.48 307.57,-87.69"/>
<polygon fill="midnightblue" stroke="midnightblue" points="310.06,-90.18 315.67,-81.19 305.68,-84.72 310.06,-90.18"/>
</g>
<!-- Node17 -->
<g id="node17" class="node">
<title>Node17</title>
<g id="a_node17"><a xlink:title=" ">
<polygon fill="none" stroke="#bfbfbf" points="374,-62 374,-81 423,-81 423,-62 374,-62"/>
<text text-anchor="middle" x="398.5" y="-69" font-family="Helvetica,sans-Serif" font-size="10.00">cassert</text>
</a>
</g>
</g>
<!-- Node14&#45;&gt;Node17 -->
<g id="edge22" class="edge">
<title>Node14&#45;&gt;Node17</title>
<path fill="none" stroke="midnightblue" d="M278.59,-123.48C302.47,-113.35 335.48,-99.34 364.5,-87 365.9,-86.4 367.34,-85.79 368.79,-85.18"/>
<polygon fill="midnightblue" stroke="midnightblue" points="370.54,-88.23 378.37,-81.09 367.79,-81.79 370.54,-88.23"/>
</g>
<!-- Node18 -->
<g id="node18" class="node">
<title>Node18</title>
<g id="a_node18"><a xlink:title=" ">
<polygon fill="none" stroke="#bfbfbf" points="441.5,-62 441.5,-81 495.5,-81 495.5,-62 441.5,-62"/>
<text text-anchor="middle" x="468.5" y="-69" font-family="Helvetica,sans-Serif" font-size="10.00">iostream</text>
</a>
</g>
</g>
<!-- Node14&#45;&gt;Node18 -->
<g id="edge23" class="edge">
<title>Node14&#45;&gt;Node18</title>
<path fill="none" stroke="midnightblue" d="M304.57,-123.47C341.64,-114.19 390.25,-101.16 432.5,-87 434.63,-86.29 436.81,-85.51 439,-84.71"/>
<polygon fill="midnightblue" stroke="midnightblue" points="440.4,-87.92 448.48,-81.06 437.89,-81.39 440.4,-87.92"/>
</g>
<!-- Node19&#45;&gt;Node2 -->
<g id="edge28" class="edge">
<title>Node19&#45;&gt;Node2</title>
<path fill="none" stroke="midnightblue" d="M351.54,-259.35C431.57,-245.06 560.8,-221.98 618.29,-211.72"/>
<polygon fill="midnightblue" stroke="midnightblue" points="619.26,-215.1 628.49,-209.9 618.03,-208.21 619.26,-215.1"/>
</g>
<!-- Node19&#45;&gt;Node6 -->
<g id="edge27" class="edge">
<title>Node19&#45;&gt;Node6</title>
<path fill="none" stroke="midnightblue" d="M291.88,-257.49C297.81,-247.43 305.86,-233.5 312.5,-221 335.26,-178.17 322.79,-153.5 360.5,-123 411.79,-81.51 441.86,-107.68 504.5,-87 506.42,-86.37 508.38,-85.68 510.35,-84.95"/>
<polygon fill="midnightblue" stroke="midnightblue" points="512.03,-88.05 520.07,-81.15 509.48,-81.53 512.03,-88.05"/>
</g>
<!-- Node19&#45;&gt;Node8 -->
<g id="edge29" class="edge">
<title>Node19&#45;&gt;Node8</title>
<path fill="none" stroke="midnightblue" d="M226.48,-257.42C203.42,-249.58 177.77,-237.9 158.5,-221 119.12,-186.46 94.06,-128.77 82.33,-96.4"/>
<polygon fill="midnightblue" stroke="midnightblue" points="85.59,-95.12 78.99,-86.84 78.98,-97.43 85.59,-95.12"/>
</g>
<!-- Node19&#45;&gt;Node11 -->
<g id="edge30" class="edge">
<title>Node19&#45;&gt;Node11</title>
<path fill="none" stroke="midnightblue" d="M316.48,-257.4C338.99,-247.77 369,-234.94 393.26,-224.56"/>
<polygon fill="midnightblue" stroke="midnightblue" points="394.76,-227.73 402.58,-220.58 392.01,-221.29 394.76,-227.73"/>
</g>
<!-- Node20 -->
<g id="node20" class="node">
<title>Node20</title>
<g id="a_node20"><a xlink:href="DynamicalSystem_8tpp.html" target="_top" xlink:title=" ">
<polygon fill="none" stroke="black" points="167.5,-190.5 167.5,-220.5 303.5,-220.5 303.5,-190.5 167.5,-190.5"/>
<text text-anchor="start" x="175.5" y="-208.5" font-family="Helvetica,sans-Serif" font-size="10.00">BipedalLocomotion/System</text>
<text text-anchor="middle" x="235.5" y="-197.5" font-family="Helvetica,sans-Serif" font-size="10.00">/DynamicalSystem.tpp</text>
</a>
</g>
</g>
<!-- Node19&#45;&gt;Node20 -->
<g id="edge31" class="edge">
<title>Node19&#45;&gt;Node20</title>
<path fill="none" stroke="midnightblue" d="M267.41,-257.4C260.22,-249.13 252.11,-238.51 245.73,-229.1"/>
<polygon fill="midnightblue" stroke="midnightblue" points="248.59,-227.08 240.22,-220.58 242.71,-230.88 248.59,-227.08"/>
</g>
<!-- Node20&#45;&gt;Node19 -->
<g id="edge32" class="edge">
<title>Node20&#45;&gt;Node19</title>
<path fill="none" stroke="midnightblue" d="M251.57,-220.58C258.75,-228.83 266.86,-239.46 273.25,-248.87"/>
<polygon fill="midnightblue" stroke="midnightblue" points="270.4,-250.9 278.76,-257.4 276.28,-247.1 270.4,-250.9"/>
</g>
<!-- Node21&#45;&gt;Node7 -->
<g id="edge34" class="edge">
<title>Node21&#45;&gt;Node7</title>
<path fill="none" stroke="midnightblue" d="M508.78,-287.58C503.66,-296 495.87,-306.9 488.22,-316.45"/>
<polygon fill="midnightblue" stroke="midnightblue" points="485.3,-314.47 481.59,-324.4 490.68,-318.95 485.3,-314.47"/>
</g>
<!-- Node22&#45;&gt;Node2 -->
<g id="edge38" class="edge">
<title>Node22&#45;&gt;Node2</title>
<path fill="none" stroke="midnightblue" d="M767.33,-324.32C751.02,-308.02 723.41,-280.49 699.5,-257 687.6,-245.31 674.08,-232.18 663.81,-222.25"/>
<polygon fill="midnightblue" stroke="midnightblue" points="665.99,-219.48 656.36,-215.05 661.12,-224.51 665.99,-219.48"/>
</g>
<!-- Node22&#45;&gt;Node5 -->
<g id="edge39" class="edge">
<title>Node22&#45;&gt;Node5</title>
<path fill="none" stroke="midnightblue" d="M787.17,-354.58C788.2,-362.41 788.49,-372.37 788.05,-381.4"/>
<polygon fill="midnightblue" stroke="midnightblue" points="784.56,-381.13 787.18,-391.4 791.53,-381.74 784.56,-381.13"/>
</g>
<!-- Node22&#45;&gt;Node6 -->
<g id="edge37" class="edge">
<title>Node22&#45;&gt;Node6</title>
<path fill="none" stroke="midnightblue" d="M791.65,-324.29C802.29,-307.49 816,-279.02 804.5,-257 755.46,-163.1 634.41,-107.29 574.39,-84.51"/>
<polygon fill="midnightblue" stroke="midnightblue" points="575.55,-81.2 564.96,-81.01 573.12,-87.77 575.55,-81.2"/>
</g>
<!-- Node23 -->
<g id="node23" class="node">
<title>Node23</title>
<g id="a_node23"><a xlink:title=" ">
<polygon fill="none" stroke="#bfbfbf" points="751.5,-263 751.5,-282 795.5,-282 795.5,-263 751.5,-263"/>
<text text-anchor="middle" x="773.5" y="-270" font-family="Helvetica,sans-Serif" font-size="10.00">cmath</text>
</a>
</g>
</g>
<!-- Node22&#45;&gt;Node23 -->
<g id="edge36" class="edge">
<title>Node22&#45;&gt;Node23</title>
<path fill="none" stroke="midnightblue" d="M779.76,-324.4C778.6,-314.96 777.06,-302.45 775.8,-292.19"/>
<polygon fill="midnightblue" stroke="midnightblue" points="779.27,-291.69 774.57,-282.19 772.32,-292.55 779.27,-291.69"/>
</g>
<!-- Node24&#45;&gt;Node1 -->
<g id="edge41" class="edge">
<title>Node24&#45;&gt;Node1</title>
<path fill="none" stroke="midnightblue" d="M1138.94,-421.61C1107.54,-431.59 1063.64,-445.02 1027.95,-455.58"/>
<polygon fill="midnightblue" stroke="midnightblue" points="1026.73,-452.29 1018.12,-458.48 1028.71,-459.01 1026.73,-452.29"/>
</g>
</g>
</svg>
        <g id="navigator" transform="translate(0 0)" fill="#404254">
                <rect fill="#f2f5e9" fill-opacity="0.5" stroke="#606060" stroke-width=".5" x="0" y="0" width="60" height="60"/>
                <use id="zoomplus" xlink:href="#zoomPlus" x="17" y="9" onmousedown="handleZoom(evt,'in')"/>
                <use id="zoomminus" xlink:href="#zoomMin" x="42" y="9" onmousedown="handleZoom(evt,'out')"/>
                <use id="reset" xlink:href="#resetDef" x="30" y="36" onmousedown="handleReset()"/>
                <g id="arrowUp" xlink:href="#dirArrow" transform="translate(30 24)" onmousedown="handlePan(0,-1)">
                  <use xlink:href="#rim" fill="#404040">
                        <set attributeName="fill" to="#808080" begin="arrowUp.mouseover" end="arrowUp.mouseout"/>
                  </use>
                  <path fill="none" stroke="white" stroke-width="1.5" d="M0,-3.0v7 M-2.5,-0.5L0,-3.0L2.5,-0.5"/>
                </g>
                <g id="arrowRight" xlink:href="#dirArrow" transform="rotate(90) translate(36 -43)" onmousedown="handlePan(1,0)">
                  <use xlink:href="#rim" fill="#404040">
                        <set attributeName="fill" to="#808080" begin="arrowRight.mouseover" end="arrowRight.mouseout"/>
                  </use>
                  <path fill="none" stroke="white" stroke-width="1.5" d="M0,-3.0v7 M-2.5,-0.5L0,-3.0L2.5,-0.5"/>
                </g>
                <g id="arrowDown" xlink:href="#dirArrow" transform="rotate(180) translate(-30 -48)" onmousedown="handlePan(0,1)">
                  <use xlink:href="#rim" fill="#404040">
                        <set attributeName="fill" to="#808080" begin="arrowDown.mouseover" end="arrowDown.mouseout"/>
                  </use>
                  <path fill="none" stroke="white" stroke-width="1.5" d="M0,-3.0v7 M-2.5,-0.5L0,-3.0L2.5,-0.5"/>
                </g>
                <g id="arrowLeft" xlink:href="#dirArrow" transform="rotate(270) translate(-36 17)" onmousedown="handlePan(-1,0)">
                  <use xlink:href="#rim" fill="#404040">
                        <set attributeName="fill" to="#808080" begin="arrowLeft.mouseover" end="arrowLeft.mouseout"/>
                  </use>
                  <path fill="none" stroke="white" stroke-width="1.5" d="M0,-3.0v7 M-2.5,-0.5L0,-3.0L2.5,-0.5"/>
                </g>
        </g>
        <svg viewBox="0 0 15 15" width="100%" height="30px" preserveAspectRatio="xMaxYMin meet">
         <g id="arrow_out" transform="scale(0.3 0.3)">
          <a xlink:href="ForwardEuler_8h__incl_org.svg" target="_base">
           <rect id="button" ry="5" rx="5" y="6" x="6" height="38" width="38"
                fill="#f2f5e9" fill-opacity="0.5" stroke="#606060" stroke-width="1.0"/>
           <path id="arrow"
             d="M 11.500037,31.436501 C 11.940474,20.09759 22.043105,11.32322 32.158766,21.979434 L 37.068811,17.246167 C 37.068811,17.246167 37.088388,32 37.088388,32 L 22.160133,31.978069 C 22.160133,31.978069 26.997745,27.140456 26.997745,27.140456 C 18.528582,18.264221 13.291696,25.230495 11.500037,31.436501 z"
             style="fill:#404040;"/>
          </a>
         </g>
        </svg>
</svg>
