<?xml version="1.0" encoding="UTF-8" standalone="no"?>
<!DOCTYPE svg PUBLIC "-//W3C//DTD SVG 1.1//EN"
 "http://www.w3.org/Graphics/SVG/1.1/DTD/svg11.dtd">
<!-- Generated by graphviz version 2.43.0 (0)
 -->
<!-- Title: YarpUtilities/include/BipedalLocomotion/YarpUtilities/Helper.tpp Pages: 1 -->
<svg width="584pt" height="240pt"
 viewBox="0.00 0.00 584.00 240.00" xmlns="http://www.w3.org/2000/svg" xmlns:xlink="http://www.w3.org/1999/xlink">
<g id="graph0" class="graph" transform="scale(1 1) rotate(0) translate(4 236)">
<title>YarpUtilities/include/BipedalLocomotion/YarpUtilities/Helper.tpp</title>
<!-- Node1 -->
<g id="node1" class="node">
<title>Node1</title>
<g id="a_node1"><a xlink:title=" ">
<polygon fill="#bfbfbf" stroke="black" points="35,-190.5 35,-231.5 193,-231.5 193,-190.5 35,-190.5"/>
<text text-anchor="start" x="43" y="-219.5" font-family="Helvetica,sans-Serif" font-size="10.00">YarpUtilities/include</text>
<text text-anchor="start" x="43" y="-208.5" font-family="Helvetica,sans-Serif" font-size="10.00">/BipedalLocomotion/YarpUtilities</text>
<text text-anchor="middle" x="114" y="-197.5" font-family="Helvetica,sans-Serif" font-size="10.00">/Helper.tpp</text>
</a>
</g>
</g>
<!-- Node2 -->
<g id="node2" class="node">
<title>Node2</title>
<g id="a_node2"><a xlink:title=" ">
<polygon fill="none" stroke="#bfbfbf" points="14,-62 14,-81 68,-81 68,-62 14,-62"/>
<text text-anchor="middle" x="41" y="-69" font-family="Helvetica,sans-Serif" font-size="10.00">iostream</text>
</a>
</g>
</g>
<!-- Node1&#45;&gt;Node2 -->
<g id="edge1" class="edge">
<title>Node1&#45;&gt;Node2</title>
<path fill="none" stroke="midnightblue" d="M103.54,-190.3C89.27,-163.42 63.92,-115.67 50.29,-90"/>
<polygon fill="midnightblue" stroke="midnightblue" points="53.31,-88.23 45.53,-81.04 47.13,-91.51 53.31,-88.23"/>
</g>
<!-- Node3 -->
<g id="node3" class="node">
<title>Node3</title>
<g id="a_node3"><a xlink:title=" ">
<polygon fill="none" stroke="#bfbfbf" points="0,-0.5 0,-19.5 62,-19.5 62,-0.5 0,-0.5"/>
<text text-anchor="middle" x="31" y="-7.5" font-family="Helvetica,sans-Serif" font-size="10.00">type_traits</text>
</a>
</g>
</g>
<!-- Node1&#45;&gt;Node3 -->
<g id="edge2" class="edge">
<title>Node1&#45;&gt;Node3</title>
<path fill="none" stroke="midnightblue" d="M87.8,-190.32C61.12,-168.48 21.43,-130.51 5,-87 0.13,-74.11 1.43,-69.31 5,-56 7.65,-46.1 13.07,-36.13 18.27,-28.1"/>
<polygon fill="midnightblue" stroke="midnightblue" points="21.29,-29.89 24.11,-19.68 15.54,-25.91 21.29,-29.89"/>
</g>
<!-- Node4 -->
<g id="node4" class="node">
<title>Node4</title>
<g id="a_node4"><a xlink:href="TemplateHelpers_8h_source.html" target="_top" xlink:title=" ">
<polygon fill="none" stroke="black" points="86.5,-56.5 86.5,-86.5 229.5,-86.5 229.5,-56.5 86.5,-56.5"/>
<text text-anchor="start" x="94.5" y="-74.5" font-family="Helvetica,sans-Serif" font-size="10.00">BipedalLocomotion/Generic</text>
<text text-anchor="middle" x="158" y="-63.5" font-family="Helvetica,sans-Serif" font-size="10.00">Container/TemplateHelpers.h</text>
</a>
</g>
</g>
<!-- Node1&#45;&gt;Node4 -->
<g id="edge3" class="edge">
<title>Node1&#45;&gt;Node4</title>
<path fill="none" stroke="midnightblue" d="M120.3,-190.3C128.23,-165.52 141.84,-123 150.35,-96.39"/>
<polygon fill="midnightblue" stroke="midnightblue" points="153.74,-97.31 153.45,-86.72 147.07,-95.17 153.74,-97.31"/>
</g>
<!-- Node7 -->
<g id="node7" class="node">
<title>Node7</title>
<g id="a_node7"><a xlink:href="Vector_8h_source.html" target="_top" xlink:title=" ">
<polygon fill="none" stroke="black" points="209,-123.5 209,-153.5 345,-153.5 345,-123.5 209,-123.5"/>
<text text-anchor="start" x="217" y="-141.5" font-family="Helvetica,sans-Serif" font-size="10.00">BipedalLocomotion/Generic</text>
<text text-anchor="middle" x="277" y="-130.5" font-family="Helvetica,sans-Serif" font-size="10.00">Container/Vector.h</text>
</a>
</g>
</g>
<!-- Node1&#45;&gt;Node7 -->
<g id="edge7" class="edge">
<title>Node1&#45;&gt;Node7</title>
<path fill="none" stroke="midnightblue" d="M159.4,-190.36C183.17,-180.08 212.06,-167.59 235.26,-157.55"/>
<polygon fill="midnightblue" stroke="midnightblue" points="236.7,-160.74 244.49,-153.56 233.93,-154.32 236.7,-160.74"/>
</g>
<!-- Node4&#45;&gt;Node3 -->
<g id="edge4" class="edge">
<title>Node4&#45;&gt;Node3</title>
<path fill="none" stroke="midnightblue" d="M127.9,-56.4C106.88,-46.55 79.03,-33.5 58.58,-23.92"/>
<polygon fill="midnightblue" stroke="midnightblue" points="60.02,-20.73 49.48,-19.66 57.05,-27.07 60.02,-20.73"/>
</g>
<!-- Node5 -->
<g id="node5" class="node">
<title>Node5</title>
<g id="a_node5"><a xlink:title=" ">
<polygon fill="none" stroke="#bfbfbf" points="167,-0.5 167,-19.5 233,-19.5 233,-0.5 167,-0.5"/>
<text text-anchor="middle" x="200" y="-7.5" font-family="Helvetica,sans-Serif" font-size="10.00">string_view</text>
</a>
</g>
</g>
<!-- Node4&#45;&gt;Node5 -->
<g id="edge5" class="edge">
<title>Node4&#45;&gt;Node5</title>
<path fill="none" stroke="midnightblue" d="M167.95,-56.4C173.99,-47.84 181.74,-36.87 188.1,-27.86"/>
<polygon fill="midnightblue" stroke="midnightblue" points="190.98,-29.85 193.89,-19.66 185.26,-25.81 190.98,-29.85"/>
</g>
<!-- Node6 -->
<g id="node6" class="node">
<title>Node6</title>
<g id="a_node6"><a xlink:title=" ">
<polygon fill="none" stroke="#bfbfbf" points="83.5,-0.5 83.5,-19.5 148.5,-19.5 148.5,-0.5 83.5,-0.5"/>
<text text-anchor="middle" x="116" y="-7.5" font-family="Helvetica,sans-Serif" font-size="10.00">Eigen/Core</text>
</a>
</g>
</g>
<!-- Node4&#45;&gt;Node6 -->
<g id="edge6" class="edge">
<title>Node4&#45;&gt;Node6</title>
<path fill="none" stroke="midnightblue" d="M148.05,-56.4C142.01,-47.84 134.26,-36.87 127.9,-27.86"/>
<polygon fill="midnightblue" stroke="midnightblue" points="130.74,-25.81 122.11,-19.66 125.02,-29.85 130.74,-25.81"/>
</g>
<!-- Node7&#45;&gt;Node2 -->
<g id="edge12" class="edge">
<title>Node7&#45;&gt;Node2</title>
<path fill="none" stroke="midnightblue" d="M213.24,-123.46C173.91,-114.28 122.62,-101.34 78,-87 75.73,-86.27 73.39,-85.47 71.06,-84.64"/>
<polygon fill="midnightblue" stroke="midnightblue" points="72.17,-81.32 61.58,-81.09 69.72,-87.87 72.17,-81.32"/>
</g>
<!-- Node7&#45;&gt;Node4 -->
<g id="edge9" class="edge">
<title>Node7&#45;&gt;Node4</title>
<path fill="none" stroke="midnightblue" d="M251.18,-123.4C234.03,-114.03 211.3,-101.62 192.59,-91.39"/>
<polygon fill="midnightblue" stroke="midnightblue" points="194.22,-88.3 183.77,-86.58 190.87,-94.44 194.22,-88.3"/>
</g>
<!-- Node8 -->
<g id="node8" class="node">
<title>Node8</title>
<g id="a_node8"><a xlink:title=" ">
<polygon fill="none" stroke="#bfbfbf" points="462,-62 462,-81 576,-81 576,-62 462,-62"/>
<text text-anchor="middle" x="519" y="-69" font-family="Helvetica,sans-Serif" font-size="10.00">iDynTree/Core/Span.h</text>
</a>
</g>
</g>
<!-- Node7&#45;&gt;Node8 -->
<g id="edge8" class="edge">
<title>Node7&#45;&gt;Node8</title>
<path fill="none" stroke="midnightblue" d="M329.21,-123.48C373.63,-111.55 436.56,-94.64 477.57,-83.63"/>
<polygon fill="midnightblue" stroke="midnightblue" points="478.5,-87 487.25,-81.03 476.68,-80.24 478.5,-87"/>
</g>
<!-- Node9 -->
<g id="node9" class="node">
<title>Node9</title>
<g id="a_node9"><a xlink:title=" ">
<polygon fill="none" stroke="#bfbfbf" points="247.5,-62 247.5,-81 306.5,-81 306.5,-62 247.5,-62"/>
<text text-anchor="middle" x="277" y="-69" font-family="Helvetica,sans-Serif" font-size="10.00">functional</text>
</a>
</g>
</g>
<!-- Node7&#45;&gt;Node9 -->
<g id="edge10" class="edge">
<title>Node7&#45;&gt;Node9</title>
<path fill="none" stroke="midnightblue" d="M277,-123.4C277,-114.06 277,-101.71 277,-91.52"/>
<polygon fill="midnightblue" stroke="midnightblue" points="280.5,-91.19 277,-81.19 273.5,-91.19 280.5,-91.19"/>
</g>
<!-- Node10 -->
<g id="node10" class="node">
<title>Node10</title>
<g id="a_node10"><a xlink:title=" ">
<polygon fill="none" stroke="#bfbfbf" points="324.5,-62 324.5,-81 373.5,-81 373.5,-62 324.5,-62"/>
<text text-anchor="middle" x="349" y="-69" font-family="Helvetica,sans-Serif" font-size="10.00">cassert</text>
</a>
</g>
</g>
<!-- Node7&#45;&gt;Node10 -->
<g id="edge11" class="edge">
<title>Node7&#45;&gt;Node10</title>
<path fill="none" stroke="midnightblue" d="M292.62,-123.4C304.18,-112.96 319.92,-98.75 331.83,-88"/>
<polygon fill="midnightblue" stroke="midnightblue" points="334.29,-90.49 339.37,-81.19 329.6,-85.3 334.29,-90.49"/>
</g>
<!-- Node11 -->
<g id="node11" class="node">
<title>Node11</title>
<g id="a_node11"><a xlink:title=" ">
<polygon fill="none" stroke="#bfbfbf" points="392,-62 392,-81 444,-81 444,-62 392,-62"/>
<text text-anchor="middle" x="418" y="-69" font-family="Helvetica,sans-Serif" font-size="10.00">memory</text>
</a>
</g>
</g>
<!-- Node7&#45;&gt;Node11 -->
<g id="edge13" class="edge">
<title>Node7&#45;&gt;Node11</title>
<path fill="none" stroke="midnightblue" d="M307.59,-123.4C332.23,-112.04 366.55,-96.22 390.36,-85.24"/>
<polygon fill="midnightblue" stroke="midnightblue" points="391.93,-88.37 399.55,-81.01 389,-82.02 391.93,-88.37"/>
</g>
</g>
</svg>
