<?xml version="1.0" encoding="UTF-8" standalone="no"?>
<!DOCTYPE svg PUBLIC "-//W3C//DTD SVG 1.1//EN"
 "http://www.w3.org/Graphics/SVG/1.1/DTD/svg11.dtd">
<!-- Generated by graphviz version 2.43.0 (0)
 -->
<!-- Title: YarpUtilities/include/BipedalLocomotion/YarpUtilities/Helper.tpp Pages: 1 -->
<svg width="384pt" height="351pt"
 viewBox="0.00 0.00 384.00 351.00" xmlns="http://www.w3.org/2000/svg" xmlns:xlink="http://www.w3.org/1999/xlink">
<g id="graph0" class="graph" transform="scale(1 1) rotate(0) translate(4 347)">
<title>YarpUtilities/include/BipedalLocomotion/YarpUtilities/Helper.tpp</title>
<!-- Node1 -->
<g id="node1" class="node">
<title>Node1</title>
<g id="a_node1"><a xlink:title=" ">
<polygon fill="#bfbfbf" stroke="black" points="130.5,-301.5 130.5,-342.5 288.5,-342.5 288.5,-301.5 130.5,-301.5"/>
<text text-anchor="start" x="138.5" y="-330.5" font-family="Helvetica,sans-Serif" font-size="10.00">YarpUtilities/include</text>
<text text-anchor="start" x="138.5" y="-319.5" font-family="Helvetica,sans-Serif" font-size="10.00">/BipedalLocomotion/YarpUtilities</text>
<text text-anchor="middle" x="209.5" y="-308.5" font-family="Helvetica,sans-Serif" font-size="10.00">/Helper.tpp</text>
</a>
</g>
</g>
<!-- Node2 -->
<g id="node2" class="node">
<title>Node2</title>
<g id="a_node2"><a xlink:href="Helper_8h.html" target="_top" xlink:title=" ">
<polygon fill="none" stroke="black" points="130.5,-223.5 130.5,-264.5 288.5,-264.5 288.5,-223.5 130.5,-223.5"/>
<text text-anchor="start" x="138.5" y="-252.5" font-family="Helvetica,sans-Serif" font-size="10.00">YarpUtilities/include</text>
<text text-anchor="start" x="138.5" y="-241.5" font-family="Helvetica,sans-Serif" font-size="10.00">/BipedalLocomotion/YarpUtilities</text>
<text text-anchor="middle" x="209.5" y="-230.5" font-family="Helvetica,sans-Serif" font-size="10.00">/Helper.h</text>
</a>
</g>
</g>
<!-- Node1&#45;&gt;Node2 -->
<g id="edge1" class="edge">
<title>Node1&#45;&gt;Node2</title>
<path fill="none" stroke="midnightblue" d="M209.5,-291.3C209.5,-282.3 209.5,-272.65 209.5,-264.51"/>
<polygon fill="midnightblue" stroke="midnightblue" points="206,-291.43 209.5,-301.43 213,-291.43 206,-291.43"/>
</g>
<!-- Node3 -->
<g id="node3" class="node">
<title>Node3</title>
<g id="a_node3"><a xlink:href="YarpImplementation_8tpp.html" target="_top" xlink:title=" ">
<polygon fill="none" stroke="black" points="0,-145.5 0,-186.5 223,-186.5 223,-145.5 0,-145.5"/>
<text text-anchor="start" x="8" y="-174.5" font-family="Helvetica,sans-Serif" font-size="10.00">ParametersHandler/YarpImplementation</text>
<text text-anchor="start" x="8" y="-163.5" font-family="Helvetica,sans-Serif" font-size="10.00">/include/BipedalLocomotion/ParametersHandler</text>
<text text-anchor="middle" x="111.5" y="-152.5" font-family="Helvetica,sans-Serif" font-size="10.00">/YarpImplementation.tpp</text>
</a>
</g>
</g>
<!-- Node2&#45;&gt;Node3 -->
<g id="edge2" class="edge">
<title>Node2&#45;&gt;Node3</title>
<path fill="none" stroke="midnightblue" d="M176.06,-217.06C163.15,-207.06 148.64,-195.8 136.65,-186.51"/>
<polygon fill="midnightblue" stroke="midnightblue" points="174.22,-220.07 184.26,-223.43 178.51,-214.53 174.22,-220.07"/>
</g>
<!-- Node6 -->
<g id="node6" class="node">
<title>Node6</title>
<g id="a_node6"><a xlink:href="Helper_8cpp.html" target="_top" xlink:title=" ">
<polygon fill="none" stroke="black" points="241,-156.5 241,-175.5 376,-175.5 376,-156.5 241,-156.5"/>
<text text-anchor="middle" x="308.5" y="-163.5" font-family="Helvetica,sans-Serif" font-size="10.00">YarpUtilities/src/Helper.cpp</text>
</a>
</g>
</g>
<!-- Node2&#45;&gt;Node6 -->
<g id="edge6" class="edge">
<title>Node2&#45;&gt;Node6</title>
<path fill="none" stroke="midnightblue" d="M243.1,-217.2C261.97,-202.72 284.28,-185.6 297.36,-175.55"/>
<polygon fill="midnightblue" stroke="midnightblue" points="240.8,-214.56 234.99,-223.43 245.06,-220.11 240.8,-214.56"/>
</g>
<!-- Node4 -->
<g id="node4" class="node">
<title>Node4</title>
<g id="a_node4"><a xlink:href="YarpImplementation_8h.html" target="_top" xlink:title=" ">
<polygon fill="none" stroke="black" points="0,-67.5 0,-108.5 223,-108.5 223,-67.5 0,-67.5"/>
<text text-anchor="start" x="8" y="-96.5" font-family="Helvetica,sans-Serif" font-size="10.00">ParametersHandler/YarpImplementation</text>
<text text-anchor="start" x="8" y="-85.5" font-family="Helvetica,sans-Serif" font-size="10.00">/include/BipedalLocomotion/ParametersHandler</text>
<text text-anchor="middle" x="111.5" y="-74.5" font-family="Helvetica,sans-Serif" font-size="10.00">/YarpImplementation.h</text>
</a>
</g>
</g>
<!-- Node3&#45;&gt;Node4 -->
<g id="edge3" class="edge">
<title>Node3&#45;&gt;Node4</title>
<path fill="none" stroke="midnightblue" d="M104.9,-135.3C104.58,-126.3 104.78,-116.65 105.52,-108.51"/>
<polygon fill="midnightblue" stroke="midnightblue" points="101.41,-135.66 105.51,-145.43 108.4,-135.23 101.41,-135.66"/>
</g>
<!-- Node4&#45;&gt;Node3 -->
<g id="edge4" class="edge">
<title>Node4&#45;&gt;Node3</title>
<path fill="none" stroke="midnightblue" d="M118.1,-118.63C118.42,-127.62 118.22,-137.27 117.49,-145.43"/>
<polygon fill="midnightblue" stroke="midnightblue" points="121.59,-118.27 117.48,-108.51 114.6,-118.7 121.59,-118.27"/>
</g>
<!-- Node5 -->
<g id="node5" class="node">
<title>Node5</title>
<g id="a_node5"><a xlink:href="YarpImplementation_8cpp.html" target="_top" xlink:title=" ">
<polygon fill="none" stroke="black" points="16.5,-0.5 16.5,-30.5 206.5,-30.5 206.5,-0.5 16.5,-0.5"/>
<text text-anchor="start" x="24.5" y="-18.5" font-family="Helvetica,sans-Serif" font-size="10.00">ParametersHandler/YarpImplementation</text>
<text text-anchor="middle" x="111.5" y="-7.5" font-family="Helvetica,sans-Serif" font-size="10.00">/src/YarpImplementation.cpp</text>
</a>
</g>
</g>
<!-- Node4&#45;&gt;Node5 -->
<g id="edge5" class="edge">
<title>Node4&#45;&gt;Node5</title>
<path fill="none" stroke="midnightblue" d="M111.5,-57.08C111.5,-48.01 111.5,-38.45 111.5,-30.89"/>
<polygon fill="midnightblue" stroke="midnightblue" points="108,-57.36 111.5,-67.36 115,-57.36 108,-57.36"/>
</g>
</g>
</svg>
