<?xml version="1.0" encoding="UTF-8" standalone="no"?>
<!DOCTYPE svg PUBLIC "-//W3C//DTD SVG 1.1//EN"
 "http://www.w3.org/Graphics/SVG/1.1/DTD/svg11.dtd">
<!-- Generated by graphviz version 2.43.0 (0)
 -->
<!-- Title: Graphical Class Hierarchy Pages: 1 -->
<svg width="270pt" height="254pt"
 viewBox="0.00 0.00 270.00 253.50" xmlns="http://www.w3.org/2000/svg" xmlns:xlink="http://www.w3.org/1999/xlink">
<g id="graph0" class="graph" transform="scale(1 1) rotate(0) translate(4 249.5)">
<title>Graphical Class Hierarchy</title>
<!-- Node0 -->
<g id="node1" class="node">
<title>Node0</title>
<g id="a_node1"><a xlink:href="https://en.cppreference.com/w/cpp/types/integral_constant.html" xlink:title=" ">
<polygon fill="none" stroke="black" points="0,-110.5 0,-129.5 81,-129.5 81,-110.5 0,-110.5"/>
<text text-anchor="middle" x="40.5" y="-117.5" font-family="Helvetica,sans-Serif" font-size="10.00">std::false_type</text>
</a>
</g>
</g>
<!-- Node1 -->
<g id="node2" class="node">
<title>Node1</title>
<g id="a_node2"><a xlink:href="structBipedalLocomotion_1_1GenericContainer_1_1is__span__constructible.html" target="_top" xlink:title="is_span_constructible is a utility metafunction to check if iDynTree::Span is constructible given a r...">
<polygon fill="none" stroke="black" points="134.5,-193 134.5,-245 244.5,-245 244.5,-193 134.5,-193"/>
<text text-anchor="start" x="142.5" y="-233" font-family="Helvetica,sans-Serif" font-size="10.00">BipedalLocomotion::</text>
<text text-anchor="start" x="142.5" y="-222" font-family="Helvetica,sans-Serif" font-size="10.00">GenericContainer::is</text>
<text text-anchor="start" x="142.5" y="-211" font-family="Helvetica,sans-Serif" font-size="10.00">_span_constructible&lt;</text>
<text text-anchor="middle" x="189.5" y="-200" font-family="Helvetica,sans-Serif" font-size="10.00"> Class, typename &gt;</text>
</a>
</g>
</g>
<!-- Node0&#45;&gt;Node1 -->
<g id="edge1" class="edge">
<title>Node0&#45;&gt;Node1</title>
<path fill="none" stroke="midnightblue" d="M59.05,-136.64C73.8,-150.12 95.81,-169.09 117,-183 122.46,-186.58 128.33,-190.07 134.26,-193.36"/>
<polygon fill="midnightblue" stroke="midnightblue" points="61.37,-134.01 51.65,-129.78 56.61,-139.15 61.37,-134.01"/>
</g>
<!-- Node2 -->
<g id="node3" class="node">
<title>Node2</title>
<g id="a_node3"><a xlink:href="structBipedalLocomotion_1_1GenericContainer_1_1is__vector.html" target="_top" xlink:title="is_vector is a utility metafunction used to check if T is a GenericContainer::Vector.">
<polygon fill="none" stroke="black" points="136.5,-132.5 136.5,-173.5 242.5,-173.5 242.5,-132.5 136.5,-132.5"/>
<text text-anchor="start" x="144.5" y="-161.5" font-family="Helvetica,sans-Serif" font-size="10.00">BipedalLocomotion::</text>
<text text-anchor="start" x="144.5" y="-150.5" font-family="Helvetica,sans-Serif" font-size="10.00">GenericContainer::is</text>
<text text-anchor="middle" x="189.5" y="-139.5" font-family="Helvetica,sans-Serif" font-size="10.00">_vector&lt; T &gt;</text>
</a>
</g>
</g>
<!-- Node0&#45;&gt;Node2 -->
<g id="edge2" class="edge">
<title>Node0&#45;&gt;Node2</title>
<path fill="none" stroke="midnightblue" d="M91.09,-131.13C105.62,-134.39 121.56,-137.97 136.25,-141.27"/>
<polygon fill="midnightblue" stroke="midnightblue" points="91.8,-127.71 81.28,-128.93 90.27,-134.54 91.8,-127.71"/>
</g>
<!-- Node3 -->
<g id="node4" class="node">
<title>Node3</title>
<g id="a_node4"><a xlink:href="structBipedalLocomotion_1_1GenericContainer_1_1is__vector__constructible.html" target="_top" xlink:title="is_vector_constructible is a utility metafunction to check if GenericContainer::Vector is constructib...">
<polygon fill="none" stroke="black" points="121,-61 121,-113 258,-113 258,-61 121,-61"/>
<text text-anchor="start" x="129" y="-101" font-family="Helvetica,sans-Serif" font-size="10.00">BipedalLocomotion::</text>
<text text-anchor="start" x="129" y="-90" font-family="Helvetica,sans-Serif" font-size="10.00">GenericContainer::is</text>
<text text-anchor="start" x="129" y="-79" font-family="Helvetica,sans-Serif" font-size="10.00">_vector_constructible</text>
<text text-anchor="middle" x="189.5" y="-68" font-family="Helvetica,sans-Serif" font-size="10.00">&lt; T, typename, typename &gt;</text>
</a>
</g>
</g>
<!-- Node0&#45;&gt;Node3 -->
<g id="edge3" class="edge">
<title>Node0&#45;&gt;Node3</title>
<path fill="none" stroke="midnightblue" d="M91.34,-108.81C100.86,-106.68 110.97,-104.41 120.93,-102.17"/>
<polygon fill="midnightblue" stroke="midnightblue" points="90.27,-105.46 81.28,-111.07 91.8,-112.29 90.27,-105.46"/>
</g>
<!-- Node4 -->
<g id="node5" class="node">
<title>Node4</title>
<g id="a_node5"><a xlink:href="structBipedalLocomotion_1_1has__square__bracket__operator.html" target="_top" xlink:title="has_square_bracket_operator is used to build a type&#45;dependent expression that check if an element has...">
<polygon fill="none" stroke="black" points="117,-0.5 117,-41.5 262,-41.5 262,-0.5 117,-0.5"/>
<text text-anchor="start" x="125" y="-29.5" font-family="Helvetica,sans-Serif" font-size="10.00">BipedalLocomotion::</text>
<text text-anchor="start" x="125" y="-18.5" font-family="Helvetica,sans-Serif" font-size="10.00">has_square_bracket_operator</text>
<text text-anchor="middle" x="189.5" y="-7.5" font-family="Helvetica,sans-Serif" font-size="10.00">&lt; T, typename &gt;</text>
</a>
</g>
</g>
<!-- Node0&#45;&gt;Node4 -->
<g id="edge4" class="edge">
<title>Node0&#45;&gt;Node4</title>
<path fill="none" stroke="midnightblue" d="M57.62,-102.59C72.09,-87.71 94.46,-66.48 117,-52 122.8,-48.27 129.13,-44.8 135.55,-41.62"/>
<polygon fill="midnightblue" stroke="midnightblue" points="54.82,-100.46 50.45,-110.12 59.88,-105.29 54.82,-100.46"/>
</g>
</g>
</svg>
