<?xml version="1.0" encoding="UTF-8" standalone="no"?>
<!DOCTYPE svg PUBLIC "-//W3C//DTD SVG 1.1//EN"
 "http://www.w3.org/Graphics/SVG/1.1/DTD/svg11.dtd">
<!-- Generated by graphviz version 2.43.0 (0)
 -->
<!-- Title: Graphical Class Hierarchy Pages: 1 -->
<svg width="465pt" height="50pt"
 viewBox="0.00 0.00 465.00 50.00" xmlns="http://www.w3.org/2000/svg" xmlns:xlink="http://www.w3.org/1999/xlink">
<g id="graph0" class="graph" transform="scale(1 1) rotate(0) translate(4 46)">
<title>Graphical Class Hierarchy</title>
<!-- Node0 -->
<g id="node1" class="node">
<title>Node0</title>
<g id="a_node1"><a xlink:href="classBipedalLocomotion_1_1System_1_1Advanceable.html" target="_top" xlink:title=" ">
<polygon fill="none" stroke="black" points="0,-0.5 0,-41.5 141,-41.5 141,-0.5 0,-0.5"/>
<text text-anchor="start" x="8" y="-29.5" font-family="Helvetica,sans-Serif" font-size="10.00">BipedalLocomotion::</text>
<text text-anchor="start" x="8" y="-18.5" font-family="Helvetica,sans-Serif" font-size="10.00">System::Advanceable</text>
<text text-anchor="middle" x="70.5" y="-7.5" font-family="Helvetica,sans-Serif" font-size="10.00">&lt; IntegrationBasedIKState &gt;</text>
</a>
</g>
</g>
<!-- Node1 -->
<g id="node2" class="node">
<title>Node1</title>
<g id="a_node2"><a xlink:href="classBipedalLocomotion_1_1IK_1_1IntegrationBasedIK.html" target="_top" xlink:title="IntegrationBasedInverseKinematics implements the interface for the integration base inverse kinematic...">
<polygon fill="none" stroke="black" points="177,-6 177,-36 293,-36 293,-6 177,-6"/>
<text text-anchor="start" x="185" y="-24" font-family="Helvetica,sans-Serif" font-size="10.00">BipedalLocomotion::</text>
<text text-anchor="middle" x="235" y="-13" font-family="Helvetica,sans-Serif" font-size="10.00">IK::IntegrationBasedIK</text>
</a>
</g>
</g>
<!-- Node0&#45;&gt;Node1 -->
<g id="edge1" class="edge">
<title>Node0&#45;&gt;Node1</title>
<path fill="none" stroke="midnightblue" d="M151.43,-21C160.04,-21 168.66,-21 176.92,-21"/>
<polygon fill="midnightblue" stroke="midnightblue" points="151.36,-17.5 141.36,-21 151.36,-24.5 151.36,-17.5"/>
</g>
<!-- Node2 -->
<g id="node3" class="node">
<title>Node2</title>
<g id="a_node3"><a xlink:href="classBipedalLocomotion_1_1IK_1_1QPInverseKinematics.html" target="_top" xlink:title="QPInverseKinematics is a concrete class and implements an integration base inverse kinematics.">
<polygon fill="none" stroke="black" points="329,-6 329,-36 457,-36 457,-6 329,-6"/>
<text text-anchor="start" x="337" y="-24" font-family="Helvetica,sans-Serif" font-size="10.00">BipedalLocomotion::</text>
<text text-anchor="middle" x="393" y="-13" font-family="Helvetica,sans-Serif" font-size="10.00">IK::QPInverseKinematics</text>
</a>
</g>
</g>
<!-- Node1&#45;&gt;Node2 -->
<g id="edge2" class="edge">
<title>Node1&#45;&gt;Node2</title>
<path fill="none" stroke="midnightblue" d="M303.37,-21C311.8,-21 320.39,-21 328.75,-21"/>
<polygon fill="midnightblue" stroke="midnightblue" points="303.2,-17.5 293.2,-21 303.2,-24.5 303.2,-17.5"/>
</g>
</g>
</svg>
