<?xml version="1.0" encoding="UTF-8" standalone="no"?>
<!DOCTYPE svg PUBLIC "-//W3C//DTD SVG 1.1//EN"
 "http://www.w3.org/Graphics/SVG/1.1/DTD/svg11.dtd">
<!-- Generated by graphviz version 2.43.0 (0)
 -->
<!-- Title: Graphical Class Hierarchy Pages: 1 -->
<svg width="330pt" height="100pt"
 viewBox="0.00 0.00 330.00 99.50" xmlns="http://www.w3.org/2000/svg" xmlns:xlink="http://www.w3.org/1999/xlink">
<g id="graph0" class="graph" transform="scale(1 1) rotate(0) translate(4 95.5)">
<title>Graphical Class Hierarchy</title>
<!-- Node116 -->
<g id="node1" class="node">
<title>Node116</title>
<g id="a_node1"><a xlink:href="classBipedalLocomotion_1_1System_1_1Advanceable.html" target="_top" xlink:title=" ">
<polygon fill="none" stroke="black" points="6.5,-50 6.5,-91 142.5,-91 142.5,-50 6.5,-50"/>
<text text-anchor="start" x="14.5" y="-79" font-family="Helvetica,sans-Serif" font-size="10.00">BipedalLocomotion::</text>
<text text-anchor="start" x="14.5" y="-68" font-family="Helvetica,sans-Serif" font-size="10.00">System::Advanceable</text>
<text text-anchor="middle" x="74.5" y="-57" font-family="Helvetica,sans-Serif" font-size="10.00">&lt; SensorBridgeMetaData &gt;</text>
</a>
</g>
</g>
<!-- Node1 -->
<g id="node2" class="node">
<title>Node1</title>
<g id="a_node2"><a xlink:href="classBipedalLocomotion_1_1RobotInterface_1_1YarpSensorBridge.html" target="_top" xlink:title="YarpSensorBridge Yarp implementation of the ISensorBridge interface Currently available interfaces.">
<polygon fill="none" stroke="black" points="185,-22 185,-63 322,-63 322,-22 185,-22"/>
<text text-anchor="start" x="193" y="-51" font-family="Helvetica,sans-Serif" font-size="10.00">BipedalLocomotion::</text>
<text text-anchor="start" x="193" y="-40" font-family="Helvetica,sans-Serif" font-size="10.00">RobotInterface::YarpSensor</text>
<text text-anchor="middle" x="253.5" y="-29" font-family="Helvetica,sans-Serif" font-size="10.00">Bridge</text>
</a>
</g>
</g>
<!-- Node116&#45;&gt;Node1 -->
<g id="edge1" class="edge">
<title>Node116&#45;&gt;Node1</title>
<path fill="none" stroke="midnightblue" d="M152.8,-58.27C163.45,-56.59 174.33,-54.87 184.79,-53.21"/>
<polygon fill="midnightblue" stroke="midnightblue" points="152,-54.85 142.67,-59.87 153.09,-61.77 152,-54.85"/>
</g>
<!-- Node0 -->
<g id="node3" class="node">
<title>Node0</title>
<g id="a_node3"><a xlink:href="classBipedalLocomotion_1_1RobotInterface_1_1ISensorBridge.html" target="_top" xlink:title="Sensor bridge interface.">
<polygon fill="none" stroke="black" points="0,-0.5 0,-30.5 149,-30.5 149,-0.5 0,-0.5"/>
<text text-anchor="start" x="8" y="-18.5" font-family="Helvetica,sans-Serif" font-size="10.00">BipedalLocomotion::</text>
<text text-anchor="middle" x="74.5" y="-7.5" font-family="Helvetica,sans-Serif" font-size="10.00">RobotInterface::ISensorBridge</text>
</a>
</g>
</g>
<!-- Node0&#45;&gt;Node1 -->
<g id="edge2" class="edge">
<title>Node0&#45;&gt;Node1</title>
<path fill="none" stroke="midnightblue" d="M159.11,-28.25C167.74,-29.57 176.44,-30.9 184.87,-32.18"/>
<polygon fill="midnightblue" stroke="midnightblue" points="159.44,-24.76 149.03,-26.72 158.38,-31.68 159.44,-24.76"/>
</g>
</g>
</svg>
