<?xml version="1.0" encoding="UTF-8" standalone="no"?>
<!DOCTYPE svg PUBLIC "-//W3C//DTD SVG 1.1//EN"
 "http://www.w3.org/Graphics/SVG/1.1/DTD/svg11.dtd">
<!-- Generated by graphviz version 2.43.0 (0)
 -->
<!-- Title: Graphical Class Hierarchy Pages: 1 -->
<svg width="521pt" height="50pt"
 viewBox="0.00 0.00 521.00 50.00" xmlns="http://www.w3.org/2000/svg" xmlns:xlink="http://www.w3.org/1999/xlink">
<g id="graph0" class="graph" transform="scale(1 1) rotate(0) translate(4 46)">
<title>Graphical Class Hierarchy</title>
<!-- Node0 -->
<g id="node1" class="node">
<title>Node0</title>
<g id="a_node1"><a xlink:href="classBipedalLocomotion_1_1System_1_1Integrator.html" target="_top" xlink:title="Integrator base class.">
<polygon fill="none" stroke="black" points="0,-0.5 0,-41.5 143,-41.5 143,-0.5 0,-0.5"/>
<text text-anchor="start" x="8" y="-29.5" font-family="Helvetica,sans-Serif" font-size="10.00">BipedalLocomotion::</text>
<text text-anchor="start" x="8" y="-18.5" font-family="Helvetica,sans-Serif" font-size="10.00">System::Integrator&lt;</text>
<text text-anchor="middle" x="71.5" y="-7.5" font-family="Helvetica,sans-Serif" font-size="10.00"> DynamicalSystemDerived &gt;</text>
</a>
</g>
</g>
<!-- Node1 -->
<g id="node2" class="node">
<title>Node1</title>
<g id="a_node2"><a xlink:href="classBipedalLocomotion_1_1System_1_1FixedStepIntegrator.html" target="_top" xlink:title="Fixed step integrator base class.">
<polygon fill="none" stroke="black" points="179,-0.5 179,-41.5 328,-41.5 328,-0.5 179,-0.5"/>
<text text-anchor="start" x="187" y="-29.5" font-family="Helvetica,sans-Serif" font-size="10.00">BipedalLocomotion::</text>
<text text-anchor="start" x="187" y="-18.5" font-family="Helvetica,sans-Serif" font-size="10.00">System::FixedStepIntegrator</text>
<text text-anchor="middle" x="253.5" y="-7.5" font-family="Helvetica,sans-Serif" font-size="10.00">&lt; DynamicalSystemDerived &gt;</text>
</a>
</g>
</g>
<!-- Node0&#45;&gt;Node1 -->
<g id="edge1" class="edge">
<title>Node0&#45;&gt;Node1</title>
<path fill="none" stroke="midnightblue" d="M153.38,-21C161.85,-21 170.43,-21 178.82,-21"/>
<polygon fill="midnightblue" stroke="midnightblue" points="153.12,-17.5 143.12,-21 153.12,-24.5 153.12,-17.5"/>
</g>
<!-- Node2 -->
<g id="node3" class="node">
<title>Node2</title>
<g id="a_node3"><a xlink:href="classBipedalLocomotion_1_1System_1_1ForwardEuler.html" target="_top" xlink:title="Forward Euler integration method.">
<polygon fill="none" stroke="black" points="364,-0.5 364,-41.5 513,-41.5 513,-0.5 364,-0.5"/>
<text text-anchor="start" x="372" y="-29.5" font-family="Helvetica,sans-Serif" font-size="10.00">BipedalLocomotion::</text>
<text text-anchor="start" x="372" y="-18.5" font-family="Helvetica,sans-Serif" font-size="10.00">System::ForwardEuler</text>
<text text-anchor="middle" x="438.5" y="-7.5" font-family="Helvetica,sans-Serif" font-size="10.00">&lt; DynamicalSystemDerived &gt;</text>
</a>
</g>
</g>
<!-- Node1&#45;&gt;Node2 -->
<g id="edge2" class="edge">
<title>Node1&#45;&gt;Node2</title>
<path fill="none" stroke="midnightblue" d="M338.39,-21C346.84,-21 355.38,-21 363.71,-21"/>
<polygon fill="midnightblue" stroke="midnightblue" points="338.14,-17.5 328.14,-21 338.14,-24.5 338.14,-17.5"/>
</g>
</g>
</svg>
