<?xml version="1.0" encoding="UTF-8" standalone="no"?>
<!DOCTYPE svg PUBLIC "-//W3C//DTD SVG 1.1//EN"
 "http://www.w3.org/Graphics/SVG/1.1/DTD/svg11.dtd">
<!-- Generated by graphviz version 2.43.0 (0)
 -->
<!-- Title: Graphical Class Hierarchy Pages: 1 -->
<svg width="528pt" height="100pt"
 viewBox="0.00 0.00 528.00 99.50" xmlns="http://www.w3.org/2000/svg" xmlns:xlink="http://www.w3.org/1999/xlink">
<g id="graph0" class="graph" transform="scale(1 1) rotate(0) translate(4 95.5)">
<title>Graphical Class Hierarchy</title>
<!-- Node0 -->
<g id="node1" class="node">
<title>Node0</title>
<g id="a_node1"><a xlink:href="classBipedalLocomotion_1_1System_1_1Advanceable.html" target="_top" xlink:title=" ">
<polygon fill="none" stroke="black" points="0,-16.5 0,-68.5 130,-68.5 130,-16.5 0,-16.5"/>
<text text-anchor="start" x="8" y="-56.5" font-family="Helvetica,sans-Serif" font-size="10.00">BipedalLocomotion::</text>
<text text-anchor="start" x="8" y="-45.5" font-family="Helvetica,sans-Serif" font-size="10.00">System::Advanceable</text>
<text text-anchor="start" x="8" y="-34.5" font-family="Helvetica,sans-Serif" font-size="10.00">&lt; FloatingBaseEstimators</text>
<text text-anchor="middle" x="65" y="-23.5" font-family="Helvetica,sans-Serif" font-size="10.00">::Output &gt;</text>
</a>
</g>
</g>
<!-- Node1 -->
<g id="node2" class="node">
<title>Node1</title>
<g id="a_node2"><a xlink:href="classBipedalLocomotion_1_1Estimators_1_1FloatingBaseEstimator.html" target="_top" xlink:title="FloatingBaseEstimator class contains the bare&#45;bones implementation for a LeggedOdometry based or Exte...">
<polygon fill="none" stroke="black" points="166,-27.5 166,-57.5 335,-57.5 335,-27.5 166,-27.5"/>
<text text-anchor="start" x="174" y="-45.5" font-family="Helvetica,sans-Serif" font-size="10.00">BipedalLocomotion::</text>
<text text-anchor="middle" x="250.5" y="-34.5" font-family="Helvetica,sans-Serif" font-size="10.00">Estimators::FloatingBaseEstimator</text>
</a>
</g>
</g>
<!-- Node0&#45;&gt;Node1 -->
<g id="edge1" class="edge">
<title>Node0&#45;&gt;Node1</title>
<path fill="none" stroke="midnightblue" d="M140.27,-42.5C148.64,-42.5 157.2,-42.5 165.68,-42.5"/>
<polygon fill="midnightblue" stroke="midnightblue" points="140.18,-39 130.18,-42.5 140.18,-46 140.18,-39"/>
</g>
<!-- Node2 -->
<g id="node3" class="node">
<title>Node2</title>
<g id="a_node3"><a xlink:href="classBipedalLocomotion_1_1Estimators_1_1InvariantEKFBaseEstimator.html" target="_top" xlink:title="InvariantEKFBaseEstimator class implements the Contact Aided Invariant EKF algorithm,...">
<polygon fill="none" stroke="black" points="371,-50 371,-91 520,-91 520,-50 371,-50"/>
<text text-anchor="start" x="379" y="-79" font-family="Helvetica,sans-Serif" font-size="10.00">BipedalLocomotion::</text>
<text text-anchor="start" x="379" y="-68" font-family="Helvetica,sans-Serif" font-size="10.00">Estimators::InvariantEKFBase</text>
<text text-anchor="middle" x="445.5" y="-57" font-family="Helvetica,sans-Serif" font-size="10.00">Estimator</text>
</a>
</g>
</g>
<!-- Node1&#45;&gt;Node2 -->
<g id="edge2" class="edge">
<title>Node1&#45;&gt;Node2</title>
<path fill="none" stroke="midnightblue" d="M345.13,-56.08C353.77,-57.34 362.43,-58.59 370.85,-59.82"/>
<polygon fill="midnightblue" stroke="midnightblue" points="345.43,-52.59 335.03,-54.62 344.42,-59.52 345.43,-52.59"/>
</g>
<!-- Node3 -->
<g id="node4" class="node">
<title>Node3</title>
<g id="a_node4"><a xlink:href="classBipedalLocomotion_1_1Estimators_1_1LeggedOdometry.html" target="_top" xlink:title="Floating base estimation algorithm using only kinematic measurements by assuming atleast one frame on...">
<polygon fill="none" stroke="black" points="373.5,-0.5 373.5,-30.5 517.5,-30.5 517.5,-0.5 373.5,-0.5"/>
<text text-anchor="start" x="381.5" y="-18.5" font-family="Helvetica,sans-Serif" font-size="10.00">BipedalLocomotion::</text>
<text text-anchor="middle" x="445.5" y="-7.5" font-family="Helvetica,sans-Serif" font-size="10.00">Estimators::LeggedOdometry</text>
</a>
</g>
</g>
<!-- Node1&#45;&gt;Node3 -->
<g id="edge3" class="edge">
<title>Node1&#45;&gt;Node3</title>
<path fill="none" stroke="midnightblue" d="M345.23,-29.39C354.65,-28.07 364.11,-26.75 373.25,-25.47"/>
<polygon fill="midnightblue" stroke="midnightblue" points="344.45,-25.96 335.03,-30.81 345.42,-32.9 344.45,-25.96"/>
</g>
</g>
</svg>
