<?xml version="1.0" encoding="UTF-8" standalone="no"?>
<!DOCTYPE svg PUBLIC "-//W3C//DTD SVG 1.1//EN"
 "http://www.w3.org/Graphics/SVG/1.1/DTD/svg11.dtd">
<!-- Generated by graphviz version 2.43.0 (0)
 -->
<!-- Title: System/include/BipedalLocomotion/System/Integrator.h Pages: 1 -->
<!--zoomable 363 -->
<svg id="main" version="1.1" xmlns="http://www.w3.org/2000/svg" xmlns:xlink="http://www.w3.org/1999/xlink" xml:space="preserve" onload="init(evt)">
<style type="text/css"><![CDATA[
.edge:hover path { stroke: red; }
.edge:hover polygon { stroke: red; fill: red; }
]]></style>
<script type="text/javascript"><![CDATA[
var edges = document.getElementsByTagName('g');
if (edges && edges.length) {
  for (var i=0;i<edges.length;i++) {
    if (edges[i].id.substr(0,4)=='edge') {
      edges[i].setAttribute('class','edge');
    }
  }
}
]]></script>
        <defs>
                <circle id="rim" cx="0" cy="0" r="7"/>
                <circle id="rim2" cx="0" cy="0" r="3.5"/>
                <g id="zoomPlus">
                        <use xlink:href="#rim" fill="#404040">
                                <set attributeName="fill" to="#808080" begin="zoomplus.mouseover" end="zoomplus.mouseout"/>
                        </use>
                        <path d="M-4,0h8M0,-4v8" fill="none" stroke="white" stroke-width="1.5" pointer-events="none"/>
                </g>
                <g id="zoomMin">
                        <use xlink:href="#rim" fill="#404040">
                                <set attributeName="fill" to="#808080" begin="zoomminus.mouseover" end="zoomminus.mouseout"/>
                        </use>
                        <path d="M-4,0h8" fill="none" stroke="white" stroke-width="1.5" pointer-events="none"/>
                </g>
                <g id="dirArrow">
                        <path fill="none" stroke="white" stroke-width="1.5" d="M0,-3.0v7 M-2.5,-0.5L0,-3.0L2.5,-0.5"/>
                </g>
               <g id="resetDef">
                       <use xlink:href="#rim2" fill="#404040">
                               <set attributeName="fill" to="#808080" begin="reset.mouseover" end="reset.mouseout"/>
                       </use>
               </g>
        </defs>

<script type="text/javascript">
var viewWidth = 699;
var viewHeight = 363;
var sectionId = 'dynsection-0';
</script>
<script xlink:href="svgpan.js"/>
<svg id="graph" class="graph">
<g id="viewport">
<title>System/include/BipedalLocomotion/System/Integrator.h</title>
<!-- Node1 -->
<g id="node1" class="node">
<title>Node1</title>
<g id="a_node1"><a xlink:title=" ">
<polygon fill="#bfbfbf" stroke="black" points="255.14,-324.5 255.14,-354.5 425.14,-354.5 425.14,-324.5 255.14,-324.5"/>
<text text-anchor="start" x="263.14" y="-342.5" font-family="Helvetica,sans-Serif" font-size="10.00">System/include/BipedalLocomotion</text>
<text text-anchor="middle" x="340.14" y="-331.5" font-family="Helvetica,sans-Serif" font-size="10.00">/System/Integrator.h</text>
</a>
</g>
</g>
<!-- Node2 -->
<g id="node2" class="node">
<title>Node2</title>
<g id="a_node2"><a xlink:title=" ">
<polygon fill="none" stroke="#bfbfbf" points="44.14,-62 44.14,-81 96.14,-81 96.14,-62 44.14,-62"/>
<text text-anchor="middle" x="70.14" y="-69" font-family="Helvetica,sans-Serif" font-size="10.00">memory</text>
</a>
</g>
</g>
<!-- Node1&#45;&gt;Node2 -->
<g id="edge1" class="edge">
<title>Node1&#45;&gt;Node2</title>
<path fill="none" stroke="midnightblue" d="M254.97,-328.96C208.41,-321.66 150.53,-309.13 102.14,-288 54.79,-267.33 30.92,-266.87 7.14,-221 -17.14,-174.16 28.44,-115.83 54.21,-88.3"/>
<polygon fill="midnightblue" stroke="midnightblue" points="56.74,-90.71 61.17,-81.08 51.71,-85.85 56.74,-90.71"/>
</g>
<!-- Node3 -->
<g id="node3" class="node">
<title>Node3</title>
<g id="a_node3"><a xlink:title=" ">
<polygon fill="none" stroke="#bfbfbf" points="16.14,-196 16.14,-215 54.14,-215 54.14,-196 16.14,-196"/>
<text text-anchor="middle" x="35.14" y="-203" font-family="Helvetica,sans-Serif" font-size="10.00">tuple</text>
</a>
</g>
</g>
<!-- Node1&#45;&gt;Node3 -->
<g id="edge2" class="edge">
<title>Node1&#45;&gt;Node3</title>
<path fill="none" stroke="midnightblue" d="M270.48,-324.4C236.08,-316.11 194.49,-304.07 159.14,-288 119.01,-269.75 77.12,-239.48 53.76,-221.41"/>
<polygon fill="midnightblue" stroke="midnightblue" points="55.78,-218.55 45.75,-215.14 51.47,-224.06 55.78,-218.55"/>
</g>
<!-- Node4 -->
<g id="node4" class="node">
<title>Node4</title>
<g id="a_node4"><a xlink:href="TemplateHelpers_8h_source.html" target="_top" xlink:title=" ">
<polygon fill="none" stroke="black" points="463.64,-56.5 463.64,-86.5 606.64,-86.5 606.64,-56.5 463.64,-56.5"/>
<text text-anchor="start" x="471.64" y="-74.5" font-family="Helvetica,sans-Serif" font-size="10.00">BipedalLocomotion/Generic</text>
<text text-anchor="middle" x="535.14" y="-63.5" font-family="Helvetica,sans-Serif" font-size="10.00">Container/TemplateHelpers.h</text>
</a>
</g>
</g>
<!-- Node1&#45;&gt;Node4 -->
<g id="edge3" class="edge">
<title>Node1&#45;&gt;Node4</title>
<path fill="none" stroke="midnightblue" d="M358.97,-324.32C394.99,-296.13 473.59,-229.2 513.14,-154 522.6,-136.02 528.27,-113.61 531.48,-96.85"/>
<polygon fill="midnightblue" stroke="midnightblue" points="534.97,-97.2 533.24,-86.75 528.07,-95.99 534.97,-97.2"/>
</g>
<!-- Node8 -->
<g id="node8" class="node">
<title>Node8</title>
<g id="a_node8"><a xlink:href="IParametersHandler_8h.html" target="_top" xlink:title=" ">
<polygon fill="none" stroke="black" points="264.14,-190.5 264.14,-220.5 416.14,-220.5 416.14,-190.5 264.14,-190.5"/>
<text text-anchor="start" x="272.14" y="-208.5" font-family="Helvetica,sans-Serif" font-size="10.00">BipedalLocomotion/Parameters</text>
<text text-anchor="middle" x="340.14" y="-197.5" font-family="Helvetica,sans-Serif" font-size="10.00">Handler/IParametersHandler.h</text>
</a>
</g>
</g>
<!-- Node1&#45;&gt;Node8 -->
<g id="edge7" class="edge">
<title>Node1&#45;&gt;Node8</title>
<path fill="none" stroke="midnightblue" d="M340.14,-324.37C340.14,-302.04 340.14,-258.31 340.14,-230.85"/>
<polygon fill="midnightblue" stroke="midnightblue" points="343.65,-230.52 340.14,-220.52 336.65,-230.52 343.65,-230.52"/>
</g>
<!-- Node16 -->
<g id="node16" class="node">
<title>Node16</title>
<g id="a_node16"><a xlink:href="DynamicalSystem_8h.html" target="_top" xlink:title=" ">
<polygon fill="none" stroke="black" points="168.14,-257.5 168.14,-287.5 304.14,-287.5 304.14,-257.5 168.14,-257.5"/>
<text text-anchor="start" x="176.14" y="-275.5" font-family="Helvetica,sans-Serif" font-size="10.00">BipedalLocomotion/System</text>
<text text-anchor="middle" x="236.14" y="-264.5" font-family="Helvetica,sans-Serif" font-size="10.00">/DynamicalSystem.h</text>
</a>
</g>
</g>
<!-- Node1&#45;&gt;Node16 -->
<g id="edge19" class="edge">
<title>Node1&#45;&gt;Node16</title>
<path fill="none" stroke="midnightblue" d="M317.58,-324.4C302.86,-315.2 283.45,-303.07 267.27,-292.95"/>
<polygon fill="midnightblue" stroke="midnightblue" points="269,-289.91 258.67,-287.58 265.29,-295.84 269,-289.91"/>
</g>
<!-- Node18 -->
<g id="node18" class="node">
<title>Node18</title>
<g id="a_node18"><a xlink:href="Integrator_8tpp.html" target="_top" xlink:title=" ">
<polygon fill="none" stroke="black" points="555.14,-257.5 555.14,-287.5 691.14,-287.5 691.14,-257.5 555.14,-257.5"/>
<text text-anchor="start" x="563.14" y="-275.5" font-family="Helvetica,sans-Serif" font-size="10.00">BipedalLocomotion/System</text>
<text text-anchor="middle" x="623.14" y="-264.5" font-family="Helvetica,sans-Serif" font-size="10.00">/Integrator.tpp</text>
</a>
</g>
</g>
<!-- Node1&#45;&gt;Node18 -->
<g id="edge26" class="edge">
<title>Node1&#45;&gt;Node18</title>
<path fill="none" stroke="midnightblue" d="M395.54,-324.48C438.56,-314.28 498.65,-300.46 546.31,-289.78"/>
<polygon fill="midnightblue" stroke="midnightblue" points="547.28,-293.15 556.28,-287.55 545.76,-286.32 547.28,-293.15"/>
</g>
<!-- Node5 -->
<g id="node5" class="node">
<title>Node5</title>
<g id="a_node5"><a xlink:title=" ">
<polygon fill="none" stroke="#bfbfbf" points="422.14,-0.5 422.14,-19.5 484.14,-19.5 484.14,-0.5 422.14,-0.5"/>
<text text-anchor="middle" x="453.14" y="-7.5" font-family="Helvetica,sans-Serif" font-size="10.00">type_traits</text>
</a>
</g>
</g>
<!-- Node4&#45;&gt;Node5 -->
<g id="edge4" class="edge">
<title>Node4&#45;&gt;Node5</title>
<path fill="none" stroke="midnightblue" d="M515.71,-56.4C502.94,-47.13 486.26,-35.03 473.33,-25.65"/>
<polygon fill="midnightblue" stroke="midnightblue" points="475.23,-22.7 465.08,-19.66 471.11,-28.36 475.23,-22.7"/>
</g>
<!-- Node6 -->
<g id="node6" class="node">
<title>Node6</title>
<g id="a_node6"><a xlink:title=" ">
<polygon fill="none" stroke="#bfbfbf" points="502.14,-0.5 502.14,-19.5 568.14,-19.5 568.14,-0.5 502.14,-0.5"/>
<text text-anchor="middle" x="535.14" y="-7.5" font-family="Helvetica,sans-Serif" font-size="10.00">string_view</text>
</a>
</g>
</g>
<!-- Node4&#45;&gt;Node6 -->
<g id="edge5" class="edge">
<title>Node4&#45;&gt;Node6</title>
<path fill="none" stroke="midnightblue" d="M535.14,-56.4C535.14,-48.47 535.14,-38.46 535.14,-29.86"/>
<polygon fill="midnightblue" stroke="midnightblue" points="538.65,-29.66 535.14,-19.66 531.65,-29.66 538.65,-29.66"/>
</g>
<!-- Node7 -->
<g id="node7" class="node">
<title>Node7</title>
<g id="a_node7"><a xlink:title=" ">
<polygon fill="none" stroke="#bfbfbf" points="586.64,-0.5 586.64,-19.5 651.64,-19.5 651.64,-0.5 586.64,-0.5"/>
<text text-anchor="middle" x="619.14" y="-7.5" font-family="Helvetica,sans-Serif" font-size="10.00">Eigen/Core</text>
</a>
</g>
</g>
<!-- Node4&#45;&gt;Node7 -->
<g id="edge6" class="edge">
<title>Node4&#45;&gt;Node7</title>
<path fill="none" stroke="midnightblue" d="M555.05,-56.4C568.14,-47.13 585.23,-35.03 598.47,-25.65"/>
<polygon fill="midnightblue" stroke="midnightblue" points="600.79,-28.29 606.92,-19.66 596.74,-22.58 600.79,-28.29"/>
</g>
<!-- Node8&#45;&gt;Node2 -->
<g id="edge8" class="edge">
<title>Node8&#45;&gt;Node2</title>
<path fill="none" stroke="midnightblue" d="M263.93,-192.34C229.48,-184.69 189.19,-172.62 156.14,-154 126.13,-137.09 98.58,-107.42 83.12,-88.93"/>
<polygon fill="midnightblue" stroke="midnightblue" points="85.75,-86.62 76.72,-81.08 80.32,-91.04 85.75,-86.62"/>
</g>
<!-- Node8&#45;&gt;Node4 -->
<g id="edge18" class="edge">
<title>Node8&#45;&gt;Node4</title>
<path fill="none" stroke="midnightblue" d="M349.37,-190.31C361.59,-172.46 384.73,-141.87 411.14,-123 430.75,-108.99 454.81,-98.05 476.5,-89.98"/>
<polygon fill="midnightblue" stroke="midnightblue" points="477.72,-93.26 485.95,-86.59 475.36,-86.67 477.72,-93.26"/>
</g>
<!-- Node9 -->
<g id="node9" class="node">
<title>Node9</title>
<g id="a_node9"><a xlink:title=" ">
<polygon fill="none" stroke="#bfbfbf" points="419.64,-129 419.64,-148 460.64,-148 460.64,-129 419.64,-129"/>
<text text-anchor="middle" x="440.14" y="-136" font-family="Helvetica,sans-Serif" font-size="10.00">string</text>
</a>
</g>
</g>
<!-- Node8&#45;&gt;Node9 -->
<g id="edge9" class="edge">
<title>Node8&#45;&gt;Node9</title>
<path fill="none" stroke="midnightblue" d="M361.84,-190.4C378.61,-179.5 401.72,-164.48 418.48,-153.58"/>
<polygon fill="midnightblue" stroke="midnightblue" points="420.58,-156.39 427.06,-148.01 416.77,-150.52 420.58,-156.39"/>
</g>
<!-- Node10 -->
<g id="node10" class="node">
<title>Node10</title>
<g id="a_node10"><a xlink:title=" ">
<polygon fill="none" stroke="#bfbfbf" points="165.14,-129 165.14,-148 209.14,-148 209.14,-129 165.14,-129"/>
<text text-anchor="middle" x="187.14" y="-136" font-family="Helvetica,sans-Serif" font-size="10.00">vector</text>
</a>
</g>
</g>
<!-- Node8&#45;&gt;Node10 -->
<g id="edge10" class="edge">
<title>Node8&#45;&gt;Node10</title>
<path fill="none" stroke="midnightblue" d="M305,-190.44C280.52,-180.53 247.2,-166.8 218.14,-154 216.95,-153.47 215.74,-152.93 214.51,-152.38"/>
<polygon fill="midnightblue" stroke="midnightblue" points="215.66,-149.06 205.11,-148.07 212.74,-155.42 215.66,-149.06"/>
</g>
<!-- Node11 -->
<g id="node11" class="node">
<title>Node11</title>
<g id="a_node11"><a xlink:href="Vector_8h_source.html" target="_top" xlink:title=" ">
<polygon fill="none" stroke="black" points="227.14,-123.5 227.14,-153.5 363.14,-153.5 363.14,-123.5 227.14,-123.5"/>
<text text-anchor="start" x="235.14" y="-141.5" font-family="Helvetica,sans-Serif" font-size="10.00">BipedalLocomotion/Generic</text>
<text text-anchor="middle" x="295.14" y="-130.5" font-family="Helvetica,sans-Serif" font-size="10.00">Container/Vector.h</text>
</a>
</g>
</g>
<!-- Node8&#45;&gt;Node11 -->
<g id="edge11" class="edge">
<title>Node8&#45;&gt;Node11</title>
<path fill="none" stroke="midnightblue" d="M330.38,-190.4C324.6,-182.05 317.15,-171.29 310.59,-161.81"/>
<polygon fill="midnightblue" stroke="midnightblue" points="313.46,-159.81 304.89,-153.58 307.7,-163.79 313.46,-159.81"/>
</g>
<!-- Node11&#45;&gt;Node2 -->
<g id="edge17" class="edge">
<title>Node11&#45;&gt;Node2</title>
<path fill="none" stroke="midnightblue" d="M234.21,-123.49C196.63,-114.32 147.66,-101.39 105.14,-87 103.23,-86.35 101.27,-85.65 99.3,-84.92"/>
<polygon fill="midnightblue" stroke="midnightblue" points="100.18,-81.5 89.59,-81.09 97.61,-88.01 100.18,-81.5"/>
</g>
<!-- Node11&#45;&gt;Node4 -->
<g id="edge13" class="edge">
<title>Node11&#45;&gt;Node4</title>
<path fill="none" stroke="midnightblue" d="M346.93,-123.48C384.02,-113.43 434.14,-99.86 473.33,-89.24"/>
<polygon fill="midnightblue" stroke="midnightblue" points="474.31,-92.6 483.04,-86.61 472.48,-85.85 474.31,-92.6"/>
</g>
<!-- Node12 -->
<g id="node12" class="node">
<title>Node12</title>
<g id="a_node12"><a xlink:title=" ">
<polygon fill="none" stroke="#bfbfbf" points="331.14,-62 331.14,-81 445.14,-81 445.14,-62 331.14,-62"/>
<text text-anchor="middle" x="388.14" y="-69" font-family="Helvetica,sans-Serif" font-size="10.00">iDynTree/Core/Span.h</text>
</a>
</g>
</g>
<!-- Node11&#45;&gt;Node12 -->
<g id="edge12" class="edge">
<title>Node11&#45;&gt;Node12</title>
<path fill="none" stroke="midnightblue" d="M315.32,-123.4C330.78,-112.6 352.01,-97.76 367.56,-86.89"/>
<polygon fill="midnightblue" stroke="midnightblue" points="369.78,-89.6 375.97,-81.01 365.77,-83.87 369.78,-89.6"/>
</g>
<!-- Node13 -->
<g id="node13" class="node">
<title>Node13</title>
<g id="a_node13"><a xlink:title=" ">
<polygon fill="none" stroke="#bfbfbf" points="114.64,-62 114.64,-81 173.64,-81 173.64,-62 114.64,-62"/>
<text text-anchor="middle" x="144.14" y="-69" font-family="Helvetica,sans-Serif" font-size="10.00">functional</text>
</a>
</g>
</g>
<!-- Node11&#45;&gt;Node13 -->
<g id="edge14" class="edge">
<title>Node11&#45;&gt;Node13</title>
<path fill="none" stroke="midnightblue" d="M262.38,-123.4C235.89,-111.99 198.92,-96.08 173.41,-85.1"/>
<polygon fill="midnightblue" stroke="midnightblue" points="174.48,-81.75 163.91,-81.01 171.71,-88.18 174.48,-81.75"/>
</g>
<!-- Node14 -->
<g id="node14" class="node">
<title>Node14</title>
<g id="a_node14"><a xlink:title=" ">
<polygon fill="none" stroke="#bfbfbf" points="191.64,-62 191.64,-81 240.64,-81 240.64,-62 191.64,-62"/>
<text text-anchor="middle" x="216.14" y="-69" font-family="Helvetica,sans-Serif" font-size="10.00">cassert</text>
</a>
</g>
</g>
<!-- Node11&#45;&gt;Node14 -->
<g id="edge15" class="edge">
<title>Node11&#45;&gt;Node14</title>
<path fill="none" stroke="midnightblue" d="M278,-123.4C265.2,-112.86 247.72,-98.48 234.6,-87.69"/>
<polygon fill="midnightblue" stroke="midnightblue" points="236.66,-84.85 226.71,-81.19 232.21,-90.25 236.66,-84.85"/>
</g>
<!-- Node15 -->
<g id="node15" class="node">
<title>Node15</title>
<g id="a_node15"><a xlink:title=" ">
<polygon fill="none" stroke="#bfbfbf" points="259.14,-62 259.14,-81 313.14,-81 313.14,-62 259.14,-62"/>
<text text-anchor="middle" x="286.14" y="-69" font-family="Helvetica,sans-Serif" font-size="10.00">iostream</text>
</a>
</g>
</g>
<!-- Node11&#45;&gt;Node15 -->
<g id="edge16" class="edge">
<title>Node11&#45;&gt;Node15</title>
<path fill="none" stroke="midnightblue" d="M293.19,-123.4C291.89,-113.96 290.15,-101.45 288.73,-91.19"/>
<polygon fill="midnightblue" stroke="midnightblue" points="292.19,-90.62 287.35,-81.19 285.25,-91.58 292.19,-90.62"/>
</g>
<!-- Node16&#45;&gt;Node2 -->
<g id="edge20" class="edge">
<title>Node16&#45;&gt;Node2</title>
<path fill="none" stroke="midnightblue" d="M236.74,-257.25C236.71,-239.34 233.94,-208.7 217.14,-190 184.74,-153.92 151.05,-185.46 114.14,-154 94.4,-137.17 82.07,-109.18 75.65,-90.79"/>
<polygon fill="midnightblue" stroke="midnightblue" points="78.96,-89.65 72.54,-81.22 72.3,-91.81 78.96,-89.65"/>
</g>
<!-- Node16&#45;&gt;Node3 -->
<g id="edge21" class="edge">
<title>Node16&#45;&gt;Node3</title>
<path fill="none" stroke="midnightblue" d="M177.53,-257.42C143.57,-248.51 100.32,-235.89 63.14,-221 61.94,-220.52 60.73,-220 59.51,-219.46"/>
<polygon fill="midnightblue" stroke="midnightblue" points="60.83,-216.21 50.3,-215.03 57.79,-222.52 60.83,-216.21"/>
</g>
<!-- Node16&#45;&gt;Node4 -->
<g id="edge22" class="edge">
<title>Node16&#45;&gt;Node4</title>
<path fill="none" stroke="midnightblue" d="M304.58,-264.43C342.68,-257.87 389.48,-245.25 425.14,-221 472.51,-188.79 507.31,-129.28 524.03,-96.22"/>
<polygon fill="midnightblue" stroke="midnightblue" points="527.36,-97.38 528.64,-86.86 521.08,-94.29 527.36,-97.38"/>
</g>
<!-- Node16&#45;&gt;Node8 -->
<g id="edge23" class="edge">
<title>Node16&#45;&gt;Node8</title>
<path fill="none" stroke="midnightblue" d="M258.71,-257.4C273.43,-248.2 292.84,-236.07 309.02,-225.95"/>
<polygon fill="midnightblue" stroke="midnightblue" points="311,-228.84 317.62,-220.58 307.29,-222.91 311,-228.84"/>
</g>
<!-- Node17 -->
<g id="node17" class="node">
<title>Node17</title>
<g id="a_node17"><a xlink:href="DynamicalSystem_8tpp.html" target="_top" xlink:title=" ">
<polygon fill="none" stroke="black" points="72.14,-190.5 72.14,-220.5 208.14,-220.5 208.14,-190.5 72.14,-190.5"/>
<text text-anchor="start" x="80.14" y="-208.5" font-family="Helvetica,sans-Serif" font-size="10.00">BipedalLocomotion/System</text>
<text text-anchor="middle" x="140.14" y="-197.5" font-family="Helvetica,sans-Serif" font-size="10.00">/DynamicalSystem.tpp</text>
</a>
</g>
</g>
<!-- Node16&#45;&gt;Node17 -->
<g id="edge24" class="edge">
<title>Node16&#45;&gt;Node17</title>
<path fill="none" stroke="midnightblue" d="M209.64,-257.4C195.12,-248.37 177.41,-236.51 163.42,-226.52"/>
<polygon fill="midnightblue" stroke="midnightblue" points="165.4,-223.63 155.26,-220.58 161.29,-229.29 165.4,-223.63"/>
</g>
<!-- Node17&#45;&gt;Node16 -->
<g id="edge25" class="edge">
<title>Node17&#45;&gt;Node16</title>
<path fill="none" stroke="midnightblue" d="M166.61,-220.58C181.12,-229.6 198.83,-241.45 212.82,-251.45"/>
<polygon fill="midnightblue" stroke="midnightblue" points="210.85,-254.34 220.99,-257.4 214.97,-248.68 210.85,-254.34"/>
</g>
<!-- Node18&#45;&gt;Node1 -->
<g id="edge27" class="edge">
<title>Node18&#45;&gt;Node1</title>
<path fill="none" stroke="midnightblue" d="M567.39,-287.61C524.34,-297.81 464.37,-311.6 416.82,-322.25"/>
<polygon fill="midnightblue" stroke="midnightblue" points="415.87,-318.88 406.87,-324.48 417.39,-325.71 415.87,-318.88"/>
</g>
</g>
</svg>
        <g id="navigator" transform="translate(0 0)" fill="#404254">
                <rect fill="#f2f5e9" fill-opacity="0.5" stroke="#606060" stroke-width=".5" x="0" y="0" width="60" height="60"/>
                <use id="zoomplus" xlink:href="#zoomPlus" x="17" y="9" onmousedown="handleZoom(evt,'in')"/>
                <use id="zoomminus" xlink:href="#zoomMin" x="42" y="9" onmousedown="handleZoom(evt,'out')"/>
                <use id="reset" xlink:href="#resetDef" x="30" y="36" onmousedown="handleReset()"/>
                <g id="arrowUp" xlink:href="#dirArrow" transform="translate(30 24)" onmousedown="handlePan(0,-1)">
                  <use xlink:href="#rim" fill="#404040">
                        <set attributeName="fill" to="#808080" begin="arrowUp.mouseover" end="arrowUp.mouseout"/>
                  </use>
                  <path fill="none" stroke="white" stroke-width="1.5" d="M0,-3.0v7 M-2.5,-0.5L0,-3.0L2.5,-0.5"/>
                </g>
                <g id="arrowRight" xlink:href="#dirArrow" transform="rotate(90) translate(36 -43)" onmousedown="handlePan(1,0)">
                  <use xlink:href="#rim" fill="#404040">
                        <set attributeName="fill" to="#808080" begin="arrowRight.mouseover" end="arrowRight.mouseout"/>
                  </use>
                  <path fill="none" stroke="white" stroke-width="1.5" d="M0,-3.0v7 M-2.5,-0.5L0,-3.0L2.5,-0.5"/>
                </g>
                <g id="arrowDown" xlink:href="#dirArrow" transform="rotate(180) translate(-30 -48)" onmousedown="handlePan(0,1)">
                  <use xlink:href="#rim" fill="#404040">
                        <set attributeName="fill" to="#808080" begin="arrowDown.mouseover" end="arrowDown.mouseout"/>
                  </use>
                  <path fill="none" stroke="white" stroke-width="1.5" d="M0,-3.0v7 M-2.5,-0.5L0,-3.0L2.5,-0.5"/>
                </g>
                <g id="arrowLeft" xlink:href="#dirArrow" transform="rotate(270) translate(-36 17)" onmousedown="handlePan(-1,0)">
                  <use xlink:href="#rim" fill="#404040">
                        <set attributeName="fill" to="#808080" begin="arrowLeft.mouseover" end="arrowLeft.mouseout"/>
                  </use>
                  <path fill="none" stroke="white" stroke-width="1.5" d="M0,-3.0v7 M-2.5,-0.5L0,-3.0L2.5,-0.5"/>
                </g>
        </g>
        <svg viewBox="0 0 15 15" width="100%" height="30px" preserveAspectRatio="xMaxYMin meet">
         <g id="arrow_out" transform="scale(0.3 0.3)">
          <a xlink:href="Integrator_8h__incl_org.svg" target="_base">
           <rect id="button" ry="5" rx="5" y="6" x="6" height="38" width="38"
                fill="#f2f5e9" fill-opacity="0.5" stroke="#606060" stroke-width="1.0"/>
           <path id="arrow"
             d="M 11.500037,31.436501 C 11.940474,20.09759 22.043105,11.32322 32.158766,21.979434 L 37.068811,17.246167 C 37.068811,17.246167 37.088388,32 37.088388,32 L 22.160133,31.978069 C 22.160133,31.978069 26.997745,27.140456 26.997745,27.140456 C 18.528582,18.264221 13.291696,25.230495 11.500037,31.436501 z"
             style="fill:#404040;"/>
          </a>
         </g>
        </svg>
</svg>
