<?xml version="1.0" encoding="UTF-8" standalone="no"?>
<!DOCTYPE svg PUBLIC "-//W3C//DTD SVG 1.1//EN"
 "http://www.w3.org/Graphics/SVG/1.1/DTD/svg11.dtd">
<!-- Generated by graphviz version 2.43.0 (0)
 -->
<!-- Title: System/include/BipedalLocomotion/System/Integrator.tpp Pages: 1 -->
<svg width="756pt" height="430pt"
 viewBox="0.00 0.00 755.91 430.00" xmlns="http://www.w3.org/2000/svg" xmlns:xlink="http://www.w3.org/1999/xlink">
<g id="graph0" class="graph" transform="scale(1 1) rotate(0) translate(4 426)">
<title>System/include/BipedalLocomotion/System/Integrator.tpp</title>
<!-- Node1 -->
<g id="node1" class="node">
<title>Node1</title>
<g id="a_node1"><a xlink:title=" ">
<polygon fill="#bfbfbf" stroke="black" points="80.41,-391.5 80.41,-421.5 250.41,-421.5 250.41,-391.5 80.41,-391.5"/>
<text text-anchor="start" x="88.41" y="-409.5" font-family="Helvetica,sans-Serif" font-size="10.00">System/include/BipedalLocomotion</text>
<text text-anchor="middle" x="165.41" y="-398.5" font-family="Helvetica,sans-Serif" font-size="10.00">/System/Integrator.tpp</text>
</a>
</g>
</g>
<!-- Node2 -->
<g id="node2" class="node">
<title>Node2</title>
<g id="a_node2"><a xlink:href="Integrator_8h.html" target="_top" xlink:title=" ">
<polygon fill="none" stroke="black" points="97.41,-324.5 97.41,-354.5 233.41,-354.5 233.41,-324.5 97.41,-324.5"/>
<text text-anchor="start" x="105.41" y="-342.5" font-family="Helvetica,sans-Serif" font-size="10.00">BipedalLocomotion/System</text>
<text text-anchor="middle" x="165.41" y="-331.5" font-family="Helvetica,sans-Serif" font-size="10.00">/Integrator.h</text>
</a>
</g>
</g>
<!-- Node1&#45;&gt;Node2 -->
<g id="edge1" class="edge">
<title>Node1&#45;&gt;Node2</title>
<path fill="none" stroke="midnightblue" d="M159.73,-391.4C158.71,-383.56 158.42,-373.6 158.87,-364.57"/>
<polygon fill="midnightblue" stroke="midnightblue" points="162.36,-364.84 159.74,-354.58 155.38,-364.24 162.36,-364.84"/>
</g>
<!-- Node2&#45;&gt;Node1 -->
<g id="edge27" class="edge">
<title>Node2&#45;&gt;Node1</title>
<path fill="none" stroke="midnightblue" d="M171.09,-354.58C172.12,-362.41 172.41,-372.37 171.96,-381.4"/>
<polygon fill="midnightblue" stroke="midnightblue" points="168.47,-381.13 171.09,-391.4 175.44,-381.74 168.47,-381.13"/>
</g>
<!-- Node3 -->
<g id="node3" class="node">
<title>Node3</title>
<g id="a_node3"><a xlink:title=" ">
<polygon fill="none" stroke="#bfbfbf" points="140.41,-62 140.41,-81 192.41,-81 192.41,-62 140.41,-62"/>
<text text-anchor="middle" x="166.41" y="-69" font-family="Helvetica,sans-Serif" font-size="10.00">memory</text>
</a>
</g>
</g>
<!-- Node2&#45;&gt;Node3 -->
<g id="edge2" class="edge">
<title>Node2&#45;&gt;Node3</title>
<path fill="none" stroke="midnightblue" d="M126.84,-324.39C70.37,-301.32 -24.9,-251.84 6.41,-190 33.18,-137.14 96.16,-102.28 134.64,-85.09"/>
<polygon fill="midnightblue" stroke="midnightblue" points="136.07,-88.28 143.86,-81.1 133.29,-81.86 136.07,-88.28"/>
</g>
<!-- Node4 -->
<g id="node4" class="node">
<title>Node4</title>
<g id="a_node4"><a xlink:title=" ">
<polygon fill="none" stroke="#bfbfbf" points="15.41,-196 15.41,-215 53.41,-215 53.41,-196 15.41,-196"/>
<text text-anchor="middle" x="34.41" y="-203" font-family="Helvetica,sans-Serif" font-size="10.00">tuple</text>
</a>
</g>
</g>
<!-- Node2&#45;&gt;Node4 -->
<g id="edge3" class="edge">
<title>Node2&#45;&gt;Node4</title>
<path fill="none" stroke="midnightblue" d="M138.52,-324.5C122.77,-315.45 103.14,-302.66 88.41,-288 69.2,-268.88 52.95,-241.91 43.44,-224.32"/>
<polygon fill="midnightblue" stroke="midnightblue" points="46.39,-222.4 38.64,-215.17 40.19,-225.65 46.39,-222.4"/>
</g>
<!-- Node5 -->
<g id="node5" class="node">
<title>Node5</title>
<g id="a_node5"><a xlink:href="TemplateHelpers_8h_source.html" target="_top" xlink:title=" ">
<polygon fill="none" stroke="black" points="559.91,-56.5 559.91,-86.5 702.91,-86.5 702.91,-56.5 559.91,-56.5"/>
<text text-anchor="start" x="567.91" y="-74.5" font-family="Helvetica,sans-Serif" font-size="10.00">BipedalLocomotion/Generic</text>
<text text-anchor="middle" x="631.41" y="-63.5" font-family="Helvetica,sans-Serif" font-size="10.00">Container/TemplateHelpers.h</text>
</a>
</g>
</g>
<!-- Node2&#45;&gt;Node5 -->
<g id="edge4" class="edge">
<title>Node2&#45;&gt;Node5</title>
<path fill="none" stroke="midnightblue" d="M233.49,-326.7C326.73,-307.07 493.62,-258.96 590.41,-154 605.85,-137.26 616.88,-113.61 623.58,-96.1"/>
<polygon fill="midnightblue" stroke="midnightblue" points="626.91,-97.19 627.03,-86.6 620.33,-94.8 626.91,-97.19"/>
</g>
<!-- Node9 -->
<g id="node9" class="node">
<title>Node9</title>
<g id="a_node9"><a xlink:href="IParametersHandler_8h.html" target="_top" xlink:title=" ">
<polygon fill="none" stroke="black" points="263.41,-190.5 263.41,-220.5 415.41,-220.5 415.41,-190.5 263.41,-190.5"/>
<text text-anchor="start" x="271.41" y="-208.5" font-family="Helvetica,sans-Serif" font-size="10.00">BipedalLocomotion/Parameters</text>
<text text-anchor="middle" x="339.41" y="-197.5" font-family="Helvetica,sans-Serif" font-size="10.00">Handler/IParametersHandler.h</text>
</a>
</g>
</g>
<!-- Node2&#45;&gt;Node9 -->
<g id="edge8" class="edge">
<title>Node2&#45;&gt;Node9</title>
<path fill="none" stroke="midnightblue" d="M188.47,-324.38C204.02,-314.62 224.84,-301.07 242.41,-288 268.51,-268.59 296.82,-244.41 316.08,-227.45"/>
<polygon fill="midnightblue" stroke="midnightblue" points="318.59,-229.9 323.75,-220.65 313.94,-224.66 318.59,-229.9"/>
</g>
<!-- Node17 -->
<g id="node17" class="node">
<title>Node17</title>
<g id="a_node17"><a xlink:href="DynamicalSystem_8h.html" target="_top" xlink:title=" ">
<polygon fill="none" stroke="black" points="97.41,-257.5 97.41,-287.5 233.41,-287.5 233.41,-257.5 97.41,-257.5"/>
<text text-anchor="start" x="105.41" y="-275.5" font-family="Helvetica,sans-Serif" font-size="10.00">BipedalLocomotion/System</text>
<text text-anchor="middle" x="165.41" y="-264.5" font-family="Helvetica,sans-Serif" font-size="10.00">/DynamicalSystem.h</text>
</a>
</g>
</g>
<!-- Node2&#45;&gt;Node17 -->
<g id="edge20" class="edge">
<title>Node2&#45;&gt;Node17</title>
<path fill="none" stroke="midnightblue" d="M165.41,-324.4C165.41,-316.64 165.41,-306.81 165.41,-297.86"/>
<polygon fill="midnightblue" stroke="midnightblue" points="168.91,-297.58 165.41,-287.58 161.91,-297.58 168.91,-297.58"/>
</g>
<!-- Node6 -->
<g id="node6" class="node">
<title>Node6</title>
<g id="a_node6"><a xlink:title=" ">
<polygon fill="none" stroke="#bfbfbf" points="518.41,-0.5 518.41,-19.5 580.41,-19.5 580.41,-0.5 518.41,-0.5"/>
<text text-anchor="middle" x="549.41" y="-7.5" font-family="Helvetica,sans-Serif" font-size="10.00">type_traits</text>
</a>
</g>
</g>
<!-- Node5&#45;&gt;Node6 -->
<g id="edge5" class="edge">
<title>Node5&#45;&gt;Node6</title>
<path fill="none" stroke="midnightblue" d="M611.98,-56.4C599.2,-47.13 582.52,-35.03 569.6,-25.65"/>
<polygon fill="midnightblue" stroke="midnightblue" points="571.49,-22.7 561.34,-19.66 567.38,-28.36 571.49,-22.7"/>
</g>
<!-- Node7 -->
<g id="node7" class="node">
<title>Node7</title>
<g id="a_node7"><a xlink:title=" ">
<polygon fill="none" stroke="#bfbfbf" points="598.41,-0.5 598.41,-19.5 664.41,-19.5 664.41,-0.5 598.41,-0.5"/>
<text text-anchor="middle" x="631.41" y="-7.5" font-family="Helvetica,sans-Serif" font-size="10.00">string_view</text>
</a>
</g>
</g>
<!-- Node5&#45;&gt;Node7 -->
<g id="edge6" class="edge">
<title>Node5&#45;&gt;Node7</title>
<path fill="none" stroke="midnightblue" d="M631.41,-56.4C631.41,-48.47 631.41,-38.46 631.41,-29.86"/>
<polygon fill="midnightblue" stroke="midnightblue" points="634.91,-29.66 631.41,-19.66 627.91,-29.66 634.91,-29.66"/>
</g>
<!-- Node8 -->
<g id="node8" class="node">
<title>Node8</title>
<g id="a_node8"><a xlink:title=" ">
<polygon fill="none" stroke="#bfbfbf" points="682.91,-0.5 682.91,-19.5 747.91,-19.5 747.91,-0.5 682.91,-0.5"/>
<text text-anchor="middle" x="715.41" y="-7.5" font-family="Helvetica,sans-Serif" font-size="10.00">Eigen/Core</text>
</a>
</g>
</g>
<!-- Node5&#45;&gt;Node8 -->
<g id="edge7" class="edge">
<title>Node5&#45;&gt;Node8</title>
<path fill="none" stroke="midnightblue" d="M651.32,-56.4C664.41,-47.13 681.49,-35.03 694.73,-25.65"/>
<polygon fill="midnightblue" stroke="midnightblue" points="697.05,-28.29 703.19,-19.66 693.01,-22.58 697.05,-28.29"/>
</g>
<!-- Node9&#45;&gt;Node3 -->
<g id="edge9" class="edge">
<title>Node9&#45;&gt;Node3</title>
<path fill="none" stroke="midnightblue" d="M307.86,-190.29C289.17,-181.18 265.48,-168.38 246.41,-154 220.43,-134.41 194.87,-106.43 179.88,-88.88"/>
<polygon fill="midnightblue" stroke="midnightblue" points="182.53,-86.59 173.42,-81.18 177.17,-91.09 182.53,-86.59"/>
</g>
<!-- Node9&#45;&gt;Node5 -->
<g id="edge19" class="edge">
<title>Node9&#45;&gt;Node5</title>
<path fill="none" stroke="midnightblue" d="M381.8,-190.46C406.18,-181.58 436.93,-168.95 462.41,-154 481.51,-142.8 482.21,-134.02 501.41,-123 524.67,-109.65 552.13,-98.4 575.81,-89.93"/>
<polygon fill="midnightblue" stroke="midnightblue" points="577.07,-93.2 585.36,-86.59 574.76,-86.59 577.07,-93.2"/>
</g>
<!-- Node10 -->
<g id="node10" class="node">
<title>Node10</title>
<g id="a_node10"><a xlink:title=" ">
<polygon fill="none" stroke="#bfbfbf" points="509.91,-129 509.91,-148 550.91,-148 550.91,-129 509.91,-129"/>
<text text-anchor="middle" x="530.41" y="-136" font-family="Helvetica,sans-Serif" font-size="10.00">string</text>
</a>
</g>
</g>
<!-- Node9&#45;&gt;Node10 -->
<g id="edge10" class="edge">
<title>Node9&#45;&gt;Node10</title>
<path fill="none" stroke="midnightblue" d="M386.16,-190.43C417.33,-180.8 459.08,-167.38 495.41,-154 497.26,-153.32 499.16,-152.6 501.07,-151.85"/>
<polygon fill="midnightblue" stroke="midnightblue" points="502.55,-155.03 510.53,-148.06 499.95,-148.53 502.55,-155.03"/>
</g>
<!-- Node11 -->
<g id="node11" class="node">
<title>Node11</title>
<g id="a_node11"><a xlink:title=" ">
<polygon fill="none" stroke="#bfbfbf" points="255.41,-129 255.41,-148 299.41,-148 299.41,-129 255.41,-129"/>
<text text-anchor="middle" x="277.41" y="-136" font-family="Helvetica,sans-Serif" font-size="10.00">vector</text>
</a>
</g>
</g>
<!-- Node9&#45;&gt;Node11 -->
<g id="edge11" class="edge">
<title>Node9&#45;&gt;Node11</title>
<path fill="none" stroke="midnightblue" d="M325.96,-190.4C316.2,-180.16 302.97,-166.3 292.79,-155.62"/>
<polygon fill="midnightblue" stroke="midnightblue" points="295.14,-153.01 285.7,-148.19 290.07,-157.85 295.14,-153.01"/>
</g>
<!-- Node12 -->
<g id="node12" class="node">
<title>Node12</title>
<g id="a_node12"><a xlink:href="Vector_8h_source.html" target="_top" xlink:title=" ">
<polygon fill="none" stroke="black" points="317.41,-123.5 317.41,-153.5 453.41,-153.5 453.41,-123.5 317.41,-123.5"/>
<text text-anchor="start" x="325.41" y="-141.5" font-family="Helvetica,sans-Serif" font-size="10.00">BipedalLocomotion/Generic</text>
<text text-anchor="middle" x="385.41" y="-130.5" font-family="Helvetica,sans-Serif" font-size="10.00">Container/Vector.h</text>
</a>
</g>
</g>
<!-- Node9&#45;&gt;Node12 -->
<g id="edge12" class="edge">
<title>Node9&#45;&gt;Node12</title>
<path fill="none" stroke="midnightblue" d="M349.39,-190.4C355.3,-182.05 362.92,-171.29 369.62,-161.81"/>
<polygon fill="midnightblue" stroke="midnightblue" points="372.53,-163.76 375.45,-153.58 366.82,-159.72 372.53,-163.76"/>
</g>
<!-- Node12&#45;&gt;Node3 -->
<g id="edge18" class="edge">
<title>Node12&#45;&gt;Node3</title>
<path fill="none" stroke="midnightblue" d="M328.03,-123.45C291.71,-114.12 243.94,-101.04 202.41,-87 200.29,-86.28 198.1,-85.5 195.91,-84.7"/>
<polygon fill="midnightblue" stroke="midnightblue" points="197.03,-81.37 186.44,-81.04 194.51,-87.9 197.03,-81.37"/>
</g>
<!-- Node12&#45;&gt;Node5 -->
<g id="edge14" class="edge">
<title>Node12&#45;&gt;Node5</title>
<path fill="none" stroke="midnightblue" d="M438.49,-123.48C476.59,-113.41 528.1,-99.8 568.31,-89.17"/>
<polygon fill="midnightblue" stroke="midnightblue" points="569.23,-92.55 578.01,-86.61 567.44,-85.78 569.23,-92.55"/>
</g>
<!-- Node13 -->
<g id="node13" class="node">
<title>Node13</title>
<g id="a_node13"><a xlink:title=" ">
<polygon fill="none" stroke="#bfbfbf" points="427.41,-62 427.41,-81 541.41,-81 541.41,-62 427.41,-62"/>
<text text-anchor="middle" x="484.41" y="-69" font-family="Helvetica,sans-Serif" font-size="10.00">iDynTree/Core/Span.h</text>
</a>
</g>
</g>
<!-- Node12&#45;&gt;Node13 -->
<g id="edge13" class="edge">
<title>Node12&#45;&gt;Node13</title>
<path fill="none" stroke="midnightblue" d="M406.89,-123.4C423.49,-112.5 446.37,-97.48 462.96,-86.58"/>
<polygon fill="midnightblue" stroke="midnightblue" points="465.02,-89.42 471.45,-81.01 461.17,-83.57 465.02,-89.42"/>
</g>
<!-- Node14 -->
<g id="node14" class="node">
<title>Node14</title>
<g id="a_node14"><a xlink:title=" ">
<polygon fill="none" stroke="#bfbfbf" points="210.91,-62 210.91,-81 269.91,-81 269.91,-62 210.91,-62"/>
<text text-anchor="middle" x="240.41" y="-69" font-family="Helvetica,sans-Serif" font-size="10.00">functional</text>
</a>
</g>
</g>
<!-- Node12&#45;&gt;Node14 -->
<g id="edge15" class="edge">
<title>Node12&#45;&gt;Node14</title>
<path fill="none" stroke="midnightblue" d="M353.95,-123.4C328.51,-111.99 293.01,-96.08 268.51,-85.1"/>
<polygon fill="midnightblue" stroke="midnightblue" points="269.95,-81.9 259.39,-81.01 267.08,-88.29 269.95,-81.9"/>
</g>
<!-- Node15 -->
<g id="node15" class="node">
<title>Node15</title>
<g id="a_node15"><a xlink:title=" ">
<polygon fill="none" stroke="#bfbfbf" points="287.91,-62 287.91,-81 336.91,-81 336.91,-62 287.91,-62"/>
<text text-anchor="middle" x="312.41" y="-69" font-family="Helvetica,sans-Serif" font-size="10.00">cassert</text>
</a>
</g>
</g>
<!-- Node12&#45;&gt;Node15 -->
<g id="edge16" class="edge">
<title>Node12&#45;&gt;Node15</title>
<path fill="none" stroke="midnightblue" d="M369.57,-123.4C357.85,-112.96 341.89,-98.75 329.82,-88"/>
<polygon fill="midnightblue" stroke="midnightblue" points="331.97,-85.23 322.18,-81.19 327.32,-90.46 331.97,-85.23"/>
</g>
<!-- Node16 -->
<g id="node16" class="node">
<title>Node16</title>
<g id="a_node16"><a xlink:title=" ">
<polygon fill="none" stroke="#bfbfbf" points="355.41,-62 355.41,-81 409.41,-81 409.41,-62 355.41,-62"/>
<text text-anchor="middle" x="382.41" y="-69" font-family="Helvetica,sans-Serif" font-size="10.00">iostream</text>
</a>
</g>
</g>
<!-- Node12&#45;&gt;Node16 -->
<g id="edge17" class="edge">
<title>Node12&#45;&gt;Node16</title>
<path fill="none" stroke="midnightblue" d="M384.76,-123.4C384.33,-113.96 383.75,-101.45 383.27,-91.19"/>
<polygon fill="midnightblue" stroke="midnightblue" points="386.77,-91.02 382.81,-81.19 379.78,-91.35 386.77,-91.02"/>
</g>
<!-- Node17&#45;&gt;Node3 -->
<g id="edge21" class="edge">
<title>Node17&#45;&gt;Node3</title>
<path fill="none" stroke="midnightblue" d="M186.04,-257.5C197.32,-248.54 210.22,-235.84 216.41,-221 221.72,-208.28 219.16,-203.5 216.41,-190 208.81,-152.7 188.91,-112.58 176.63,-90.2"/>
<polygon fill="midnightblue" stroke="midnightblue" points="179.55,-88.24 171.6,-81.24 173.44,-91.67 179.55,-88.24"/>
</g>
<!-- Node17&#45;&gt;Node4 -->
<g id="edge22" class="edge">
<title>Node17&#45;&gt;Node4</title>
<path fill="none" stroke="midnightblue" d="M136.02,-257.3C115.37,-247.28 87.13,-233.46 62.41,-221 61.6,-220.59 60.77,-220.17 59.94,-219.75"/>
<polygon fill="midnightblue" stroke="midnightblue" points="61.46,-216.6 50.96,-215.15 58.27,-222.82 61.46,-216.6"/>
</g>
<!-- Node17&#45;&gt;Node5 -->
<g id="edge23" class="edge">
<title>Node17&#45;&gt;Node5</title>
<path fill="none" stroke="midnightblue" d="M233.59,-266.09C318.1,-256.3 462.89,-229.05 560.41,-154 582.39,-137.08 602.66,-112.53 615.87,-94.8"/>
<polygon fill="midnightblue" stroke="midnightblue" points="618.7,-96.85 621.76,-86.71 613.04,-92.73 618.7,-96.85"/>
</g>
<!-- Node17&#45;&gt;Node9 -->
<g id="edge24" class="edge">
<title>Node17&#45;&gt;Node9</title>
<path fill="none" stroke="midnightblue" d="M203.17,-257.4C229.27,-247.64 264.2,-234.59 292.16,-224.15"/>
<polygon fill="midnightblue" stroke="midnightblue" points="293.59,-227.35 301.73,-220.58 291.14,-220.8 293.59,-227.35"/>
</g>
<!-- Node18 -->
<g id="node18" class="node">
<title>Node18</title>
<g id="a_node18"><a xlink:href="DynamicalSystem_8tpp.html" target="_top" xlink:title=" ">
<polygon fill="none" stroke="black" points="71.41,-190.5 71.41,-220.5 207.41,-220.5 207.41,-190.5 71.41,-190.5"/>
<text text-anchor="start" x="79.41" y="-208.5" font-family="Helvetica,sans-Serif" font-size="10.00">BipedalLocomotion/System</text>
<text text-anchor="middle" x="139.41" y="-197.5" font-family="Helvetica,sans-Serif" font-size="10.00">/DynamicalSystem.tpp</text>
</a>
</g>
</g>
<!-- Node17&#45;&gt;Node18 -->
<g id="edge25" class="edge">
<title>Node17&#45;&gt;Node18</title>
<path fill="none" stroke="midnightblue" d="M154.09,-257.4C149.88,-249.47 145.56,-239.38 142.39,-230.27"/>
<polygon fill="midnightblue" stroke="midnightblue" points="145.69,-229.08 139.37,-220.58 139,-231.17 145.69,-229.08"/>
</g>
<!-- Node18&#45;&gt;Node17 -->
<g id="edge26" class="edge">
<title>Node18&#45;&gt;Node17</title>
<path fill="none" stroke="midnightblue" d="M150.72,-220.58C154.92,-228.49 159.25,-238.59 162.42,-247.7"/>
<polygon fill="midnightblue" stroke="midnightblue" points="159.13,-248.89 165.45,-257.4 165.81,-246.81 159.13,-248.89"/>
</g>
</g>
</svg>
