<?xml version="1.0" encoding="UTF-8" standalone="no"?>
<!DOCTYPE svg PUBLIC "-//W3C//DTD SVG 1.1//EN"
 "http://www.w3.org/Graphics/SVG/1.1/DTD/svg11.dtd">
<!-- Generated by graphviz version 2.43.0 (0)
 -->
<!-- Title: IK/src/IntegrationBasedIK.cpp Pages: 1 -->
<!--zoomable 419 -->
<svg id="main" version="1.1" xmlns="http://www.w3.org/2000/svg" xmlns:xlink="http://www.w3.org/1999/xlink" xml:space="preserve" onload="init(evt)">
<style type="text/css"><![CDATA[
.edge:hover path { stroke: red; }
.edge:hover polygon { stroke: red; fill: red; }
]]></style>
<script type="text/javascript"><![CDATA[
var edges = document.getElementsByTagName('g');
if (edges && edges.length) {
  for (var i=0;i<edges.length;i++) {
    if (edges[i].id.substr(0,4)=='edge') {
      edges[i].setAttribute('class','edge');
    }
  }
}
]]></script>
        <defs>
                <circle id="rim" cx="0" cy="0" r="7"/>
                <circle id="rim2" cx="0" cy="0" r="3.5"/>
                <g id="zoomPlus">
                        <use xlink:href="#rim" fill="#404040">
                                <set attributeName="fill" to="#808080" begin="zoomplus.mouseover" end="zoomplus.mouseout"/>
                        </use>
                        <path d="M-4,0h8M0,-4v8" fill="none" stroke="white" stroke-width="1.5" pointer-events="none"/>
                </g>
                <g id="zoomMin">
                        <use xlink:href="#rim" fill="#404040">
                                <set attributeName="fill" to="#808080" begin="zoomminus.mouseover" end="zoomminus.mouseout"/>
                        </use>
                        <path d="M-4,0h8" fill="none" stroke="white" stroke-width="1.5" pointer-events="none"/>
                </g>
                <g id="dirArrow">
                        <path fill="none" stroke="white" stroke-width="1.5" d="M0,-3.0v7 M-2.5,-0.5L0,-3.0L2.5,-0.5"/>
                </g>
               <g id="resetDef">
                       <use xlink:href="#rim2" fill="#404040">
                               <set attributeName="fill" to="#808080" begin="reset.mouseover" end="reset.mouseout"/>
                       </use>
               </g>
        </defs>

<script type="text/javascript">
var viewWidth = 1200;
var viewHeight = 419;
var sectionId = 'dynsection-0';
</script>
<script xlink:href="svgpan.js"/>
<svg id="graph" class="graph">
<g id="viewport">
<title>IK/src/IntegrationBasedIK.cpp</title>
<!-- Node1 -->
<g id="node1" class="node">
<title>Node1</title>
<g id="a_node1"><a xlink:title=" ">
<polygon fill="#bfbfbf" stroke="black" points="674,-391.5 674,-410.5 822,-410.5 822,-391.5 674,-391.5"/>
<text text-anchor="middle" x="748" y="-398.5" font-family="Helvetica,sans-Serif" font-size="10.00">IK/src/IntegrationBasedIK.cpp</text>
</a>
</g>
</g>
<!-- Node2 -->
<g id="node2" class="node">
<title>Node2</title>
<g id="a_node2"><a xlink:href="IntegrationBasedIK_8h.html" target="_top" xlink:title=" ">
<polygon fill="none" stroke="black" points="692,-324.5 692,-354.5 804,-354.5 804,-324.5 692,-324.5"/>
<text text-anchor="start" x="700" y="-342.5" font-family="Helvetica,sans-Serif" font-size="10.00">BipedalLocomotion/IK</text>
<text text-anchor="middle" x="748" y="-331.5" font-family="Helvetica,sans-Serif" font-size="10.00">/IntegrationBasedIK.h</text>
</a>
</g>
</g>
<!-- Node1&#45;&gt;Node2 -->
<g id="edge1" class="edge">
<title>Node1&#45;&gt;Node2</title>
<path fill="none" stroke="midnightblue" d="M748,-391.48C748,-384.47 748,-374.19 748,-364.7"/>
<polygon fill="midnightblue" stroke="midnightblue" points="751.5,-364.52 748,-354.52 744.5,-364.52 751.5,-364.52"/>
</g>
<!-- Node3 -->
<g id="node3" class="node">
<title>Node3</title>
<g id="a_node3"><a xlink:title=" ">
<polygon fill="none" stroke="#bfbfbf" points="552,-62 552,-81 604,-81 604,-62 552,-62"/>
<text text-anchor="middle" x="578" y="-69" font-family="Helvetica,sans-Serif" font-size="10.00">memory</text>
</a>
</g>
</g>
<!-- Node2&#45;&gt;Node3 -->
<g id="edge2" class="edge">
<title>Node2&#45;&gt;Node3</title>
<path fill="none" stroke="midnightblue" d="M705.89,-324.38C663.71,-307.5 602.11,-274.6 581,-221 563.73,-177.16 569.59,-120.24 574.35,-91.25"/>
<polygon fill="midnightblue" stroke="midnightblue" points="577.82,-91.74 576.14,-81.28 570.93,-90.51 577.82,-91.74"/>
</g>
<!-- Node4 -->
<g id="node4" class="node">
<title>Node4</title>
<g id="a_node4"><a xlink:title=" ">
<polygon fill="none" stroke="#bfbfbf" points="495.5,-129 495.5,-148 536.5,-148 536.5,-129 495.5,-129"/>
<text text-anchor="middle" x="516" y="-136" font-family="Helvetica,sans-Serif" font-size="10.00">string</text>
</a>
</g>
</g>
<!-- Node2&#45;&gt;Node4 -->
<g id="edge3" class="edge">
<title>Node2&#45;&gt;Node4</title>
<path fill="none" stroke="midnightblue" d="M691.64,-330.99C639.68,-322.91 567.71,-308.42 548,-288 513.74,-252.51 512.46,-189.62 514.26,-158.3"/>
<polygon fill="midnightblue" stroke="midnightblue" points="517.75,-158.53 515,-148.3 510.77,-158.01 517.75,-158.53"/>
</g>
<!-- Node5 -->
<g id="node5" class="node">
<title>Node5</title>
<g id="a_node5"><a xlink:title=" ">
<polygon fill="none" stroke="#bfbfbf" points="818,-263 818,-282 868,-282 868,-263 818,-263"/>
<text text-anchor="middle" x="843" y="-270" font-family="Helvetica,sans-Serif" font-size="10.00">optional</text>
</a>
</g>
</g>
<!-- Node2&#45;&gt;Node5 -->
<g id="edge4" class="edge">
<title>Node2&#45;&gt;Node5</title>
<path fill="none" stroke="midnightblue" d="M768.61,-324.4C784.4,-313.6 806.09,-298.76 821.97,-287.89"/>
<polygon fill="midnightblue" stroke="midnightblue" points="824.29,-290.54 830.57,-282.01 820.34,-284.77 824.29,-290.54"/>
</g>
<!-- Node6 -->
<g id="node6" class="node">
<title>Node6</title>
<g id="a_node6"><a xlink:title=" ">
<polygon fill="none" stroke="#bfbfbf" points="1118.5,-196 1118.5,-215 1191.5,-215 1191.5,-196 1118.5,-196"/>
<text text-anchor="middle" x="1155" y="-203" font-family="Helvetica,sans-Serif" font-size="10.00">Eigen/Dense</text>
</a>
</g>
</g>
<!-- Node2&#45;&gt;Node6 -->
<g id="edge5" class="edge">
<title>Node2&#45;&gt;Node6</title>
<path fill="none" stroke="midnightblue" d="M754.1,-324.48C763.12,-305.61 781.91,-272.64 809,-257 925.68,-189.63 978.38,-249.79 1110,-221 1113.86,-220.16 1117.86,-219.12 1121.81,-217.99"/>
<polygon fill="midnightblue" stroke="midnightblue" points="1122.88,-221.32 1131.41,-215.04 1120.83,-214.63 1122.88,-221.32"/>
</g>
<!-- Node7 -->
<g id="node7" class="node">
<title>Node7</title>
<g id="a_node7"><a xlink:title=" ">
<polygon fill="none" stroke="#bfbfbf" points="886.5,-263 886.5,-282 957.5,-282 957.5,-263 886.5,-263"/>
<text text-anchor="middle" x="922" y="-270" font-family="Helvetica,sans-Serif" font-size="10.00">manif/SE3.h</text>
</a>
</g>
</g>
<!-- Node2&#45;&gt;Node7 -->
<g id="edge6" class="edge">
<title>Node2&#45;&gt;Node7</title>
<path fill="none" stroke="midnightblue" d="M785.76,-324.4C816.83,-312.79 860.39,-296.51 889.83,-285.52"/>
<polygon fill="midnightblue" stroke="midnightblue" points="891.08,-288.79 899.23,-282.01 888.63,-282.23 891.08,-288.79"/>
</g>
<!-- Node8 -->
<g id="node8" class="node">
<title>Node8</title>
<g id="a_node8"><a xlink:href="IParametersHandler_8h.html" target="_top" xlink:title=" ">
<polygon fill="none" stroke="black" points="344,-190.5 344,-220.5 496,-220.5 496,-190.5 344,-190.5"/>
<text text-anchor="start" x="352" y="-208.5" font-family="Helvetica,sans-Serif" font-size="10.00">BipedalLocomotion/Parameters</text>
<text text-anchor="middle" x="420" y="-197.5" font-family="Helvetica,sans-Serif" font-size="10.00">Handler/IParametersHandler.h</text>
</a>
</g>
</g>
<!-- Node2&#45;&gt;Node8 -->
<g id="edge7" class="edge">
<title>Node2&#45;&gt;Node8</title>
<path fill="none" stroke="midnightblue" d="M691.86,-334.89C641.8,-329.79 567.73,-317.51 510,-288 481.39,-273.38 454.94,-247.27 438.22,-228.54"/>
<polygon fill="midnightblue" stroke="midnightblue" points="440.67,-226.02 431.46,-220.77 435.39,-230.61 440.67,-226.02"/>
</g>
<!-- Node19 -->
<g id="node19" class="node">
<title>Node19</title>
<g id="a_node19"><a xlink:href="Advanceable_8h.html" target="_top" xlink:title=" ">
<polygon fill="none" stroke="black" points="976,-257.5 976,-287.5 1112,-287.5 1112,-257.5 976,-257.5"/>
<text text-anchor="start" x="984" y="-275.5" font-family="Helvetica,sans-Serif" font-size="10.00">BipedalLocomotion/System</text>
<text text-anchor="middle" x="1044" y="-264.5" font-family="Helvetica,sans-Serif" font-size="10.00">/Advanceable.h</text>
</a>
</g>
</g>
<!-- Node2&#45;&gt;Node19 -->
<g id="edge22" class="edge">
<title>Node2&#45;&gt;Node19</title>
<path fill="none" stroke="midnightblue" d="M804.02,-326.2C851.08,-315.86 918.7,-301.02 970.17,-289.71"/>
<polygon fill="midnightblue" stroke="midnightblue" points="971.22,-293.06 980.24,-287.5 969.72,-286.23 971.22,-293.06"/>
</g>
<!-- Node20 -->
<g id="node20" class="node">
<title>Node20</title>
<g id="a_node20"><a xlink:href="LinearTask_8h.html" target="_top" xlink:title=" ">
<polygon fill="none" stroke="black" points="650,-257.5 650,-287.5 762,-287.5 762,-257.5 650,-257.5"/>
<text text-anchor="start" x="658" y="-275.5" font-family="Helvetica,sans-Serif" font-size="10.00">BipedalLocomotion/IK</text>
<text text-anchor="middle" x="706" y="-264.5" font-family="Helvetica,sans-Serif" font-size="10.00">/LinearTask.h</text>
</a>
</g>
</g>
<!-- Node2&#45;&gt;Node20 -->
<g id="edge23" class="edge">
<title>Node2&#45;&gt;Node20</title>
<path fill="none" stroke="midnightblue" d="M738.89,-324.4C733.55,-316.13 726.68,-305.51 720.6,-296.1"/>
<polygon fill="midnightblue" stroke="midnightblue" points="723.46,-294.08 715.1,-287.58 717.58,-297.88 723.46,-294.08"/>
</g>
<!-- Node8&#45;&gt;Node3 -->
<g id="edge8" class="edge">
<title>Node8&#45;&gt;Node3</title>
<path fill="none" stroke="midnightblue" d="M428.89,-190.42C440.44,-172.97 461.97,-143.08 486,-123 504.69,-107.38 528.95,-94.3 547.87,-85.37"/>
<polygon fill="midnightblue" stroke="midnightblue" points="549.58,-88.44 557.21,-81.09 546.67,-82.07 549.58,-88.44"/>
</g>
<!-- Node8&#45;&gt;Node4 -->
<g id="edge9" class="edge">
<title>Node8&#45;&gt;Node4</title>
<path fill="none" stroke="midnightblue" d="M440.83,-190.4C456.78,-179.6 478.7,-164.76 494.75,-153.89"/>
<polygon fill="midnightblue" stroke="midnightblue" points="497.12,-156.51 503.44,-148.01 493.19,-150.72 497.12,-156.51"/>
</g>
<!-- Node9 -->
<g id="node9" class="node">
<title>Node9</title>
<g id="a_node9"><a xlink:title=" ">
<polygon fill="none" stroke="#bfbfbf" points="395,-129 395,-148 439,-148 439,-129 395,-129"/>
<text text-anchor="middle" x="417" y="-136" font-family="Helvetica,sans-Serif" font-size="10.00">vector</text>
</a>
</g>
</g>
<!-- Node8&#45;&gt;Node9 -->
<g id="edge10" class="edge">
<title>Node8&#45;&gt;Node9</title>
<path fill="none" stroke="midnightblue" d="M419.35,-190.4C418.91,-180.96 418.34,-168.45 417.86,-158.19"/>
<polygon fill="midnightblue" stroke="midnightblue" points="421.36,-158.02 417.4,-148.19 414.37,-158.35 421.36,-158.02"/>
</g>
<!-- Node10 -->
<g id="node10" class="node">
<title>Node10</title>
<g id="a_node10"><a xlink:href="Vector_8h_source.html" target="_top" xlink:title=" ">
<polygon fill="none" stroke="black" points="241,-123.5 241,-153.5 377,-153.5 377,-123.5 241,-123.5"/>
<text text-anchor="start" x="249" y="-141.5" font-family="Helvetica,sans-Serif" font-size="10.00">BipedalLocomotion/Generic</text>
<text text-anchor="middle" x="309" y="-130.5" font-family="Helvetica,sans-Serif" font-size="10.00">Container/Vector.h</text>
</a>
</g>
</g>
<!-- Node8&#45;&gt;Node10 -->
<g id="edge11" class="edge">
<title>Node8&#45;&gt;Node10</title>
<path fill="none" stroke="midnightblue" d="M395.91,-190.4C380.06,-181.11 359.11,-168.84 341.74,-158.67"/>
<polygon fill="midnightblue" stroke="midnightblue" points="343.44,-155.61 333.04,-153.58 339.9,-161.65 343.44,-155.61"/>
</g>
<!-- Node12 -->
<g id="node12" class="node">
<title>Node12</title>
<g id="a_node12"><a xlink:href="TemplateHelpers_8h_source.html" target="_top" xlink:title=" ">
<polygon fill="none" stroke="black" points="41.5,-56.5 41.5,-86.5 184.5,-86.5 184.5,-56.5 41.5,-56.5"/>
<text text-anchor="start" x="49.5" y="-74.5" font-family="Helvetica,sans-Serif" font-size="10.00">BipedalLocomotion/Generic</text>
<text text-anchor="middle" x="113" y="-63.5" font-family="Helvetica,sans-Serif" font-size="10.00">Container/TemplateHelpers.h</text>
</a>
</g>
</g>
<!-- Node8&#45;&gt;Node12 -->
<g id="edge21" class="edge">
<title>Node8&#45;&gt;Node12</title>
<path fill="none" stroke="midnightblue" d="M344.77,-190.42C309.55,-182.3 267.61,-170.39 232,-154 196.75,-137.77 160.57,-111.33 137.5,-92.98"/>
<polygon fill="midnightblue" stroke="midnightblue" points="139.6,-90.18 129.62,-86.62 135.21,-95.62 139.6,-90.18"/>
</g>
<!-- Node10&#45;&gt;Node3 -->
<g id="edge20" class="edge">
<title>Node10&#45;&gt;Node3</title>
<path fill="none" stroke="midnightblue" d="M377.14,-124.21C434.74,-112.72 512.6,-96.49 543,-87 545.14,-86.33 547.34,-85.58 549.53,-84.79"/>
<polygon fill="midnightblue" stroke="midnightblue" points="550.92,-88 558.97,-81.11 548.39,-81.48 550.92,-88"/>
</g>
<!-- Node11 -->
<g id="node11" class="node">
<title>Node11</title>
<g id="a_node11"><a xlink:title=" ">
<polygon fill="none" stroke="#bfbfbf" points="342,-62 342,-81 456,-81 456,-62 342,-62"/>
<text text-anchor="middle" x="399" y="-69" font-family="Helvetica,sans-Serif" font-size="10.00">iDynTree/Core/Span.h</text>
</a>
</g>
</g>
<!-- Node10&#45;&gt;Node11 -->
<g id="edge12" class="edge">
<title>Node10&#45;&gt;Node11</title>
<path fill="none" stroke="midnightblue" d="M328.53,-123.4C343.48,-112.6 364.03,-97.76 379.08,-86.89"/>
<polygon fill="midnightblue" stroke="midnightblue" points="381.16,-89.7 387.22,-81.01 377.07,-84.02 381.16,-89.7"/>
</g>
<!-- Node10&#45;&gt;Node12 -->
<g id="edge13" class="edge">
<title>Node10&#45;&gt;Node12</title>
<path fill="none" stroke="midnightblue" d="M266.47,-123.4C236.68,-113.52 196.68,-100.25 164.99,-89.74"/>
<polygon fill="midnightblue" stroke="midnightblue" points="166.04,-86.4 155.45,-86.58 163.84,-93.05 166.04,-86.4"/>
</g>
<!-- Node16 -->
<g id="node16" class="node">
<title>Node16</title>
<g id="a_node16"><a xlink:title=" ">
<polygon fill="none" stroke="#bfbfbf" points="474.5,-62 474.5,-81 533.5,-81 533.5,-62 474.5,-62"/>
<text text-anchor="middle" x="504" y="-69" font-family="Helvetica,sans-Serif" font-size="10.00">functional</text>
</a>
</g>
</g>
<!-- Node10&#45;&gt;Node16 -->
<g id="edge17" class="edge">
<title>Node10&#45;&gt;Node16</title>
<path fill="none" stroke="midnightblue" d="M354.23,-123.42C385.46,-113.56 427.89,-99.9 465,-87 467.25,-86.22 469.56,-85.4 471.88,-84.56"/>
<polygon fill="midnightblue" stroke="midnightblue" points="473.18,-87.82 481.37,-81.1 470.78,-81.24 473.18,-87.82"/>
</g>
<!-- Node17 -->
<g id="node17" class="node">
<title>Node17</title>
<g id="a_node17"><a xlink:title=" ">
<polygon fill="none" stroke="#bfbfbf" points="202.5,-62 202.5,-81 251.5,-81 251.5,-62 202.5,-62"/>
<text text-anchor="middle" x="227" y="-69" font-family="Helvetica,sans-Serif" font-size="10.00">cassert</text>
</a>
</g>
</g>
<!-- Node10&#45;&gt;Node17 -->
<g id="edge18" class="edge">
<title>Node10&#45;&gt;Node17</title>
<path fill="none" stroke="midnightblue" d="M291.21,-123.4C277.92,-112.86 259.77,-98.48 246.16,-87.69"/>
<polygon fill="midnightblue" stroke="midnightblue" points="247.98,-84.66 237.97,-81.19 243.63,-90.15 247.98,-84.66"/>
</g>
<!-- Node18 -->
<g id="node18" class="node">
<title>Node18</title>
<g id="a_node18"><a xlink:title=" ">
<polygon fill="none" stroke="#bfbfbf" points="270,-62 270,-81 324,-81 324,-62 270,-62"/>
<text text-anchor="middle" x="297" y="-69" font-family="Helvetica,sans-Serif" font-size="10.00">iostream</text>
</a>
</g>
</g>
<!-- Node10&#45;&gt;Node18 -->
<g id="edge19" class="edge">
<title>Node10&#45;&gt;Node18</title>
<path fill="none" stroke="midnightblue" d="M306.4,-123.4C304.65,-113.96 302.34,-101.45 300.45,-91.19"/>
<polygon fill="midnightblue" stroke="midnightblue" points="303.86,-90.39 298.61,-81.19 296.98,-91.66 303.86,-90.39"/>
</g>
<!-- Node13 -->
<g id="node13" class="node">
<title>Node13</title>
<g id="a_node13"><a xlink:title=" ">
<polygon fill="none" stroke="#bfbfbf" points="0,-0.5 0,-19.5 62,-19.5 62,-0.5 0,-0.5"/>
<text text-anchor="middle" x="31" y="-7.5" font-family="Helvetica,sans-Serif" font-size="10.00">type_traits</text>
</a>
</g>
</g>
<!-- Node12&#45;&gt;Node13 -->
<g id="edge14" class="edge">
<title>Node12&#45;&gt;Node13</title>
<path fill="none" stroke="midnightblue" d="M93.57,-56.4C80.79,-47.13 64.11,-35.03 51.19,-25.65"/>
<polygon fill="midnightblue" stroke="midnightblue" points="53.08,-22.7 42.93,-19.66 48.97,-28.36 53.08,-22.7"/>
</g>
<!-- Node14 -->
<g id="node14" class="node">
<title>Node14</title>
<g id="a_node14"><a xlink:title=" ">
<polygon fill="none" stroke="#bfbfbf" points="80,-0.5 80,-19.5 146,-19.5 146,-0.5 80,-0.5"/>
<text text-anchor="middle" x="113" y="-7.5" font-family="Helvetica,sans-Serif" font-size="10.00">string_view</text>
</a>
</g>
</g>
<!-- Node12&#45;&gt;Node14 -->
<g id="edge15" class="edge">
<title>Node12&#45;&gt;Node14</title>
<path fill="none" stroke="midnightblue" d="M113,-56.4C113,-48.47 113,-38.46 113,-29.86"/>
<polygon fill="midnightblue" stroke="midnightblue" points="116.5,-29.66 113,-19.66 109.5,-29.66 116.5,-29.66"/>
</g>
<!-- Node15 -->
<g id="node15" class="node">
<title>Node15</title>
<g id="a_node15"><a xlink:title=" ">
<polygon fill="none" stroke="#bfbfbf" points="164.5,-0.5 164.5,-19.5 229.5,-19.5 229.5,-0.5 164.5,-0.5"/>
<text text-anchor="middle" x="197" y="-7.5" font-family="Helvetica,sans-Serif" font-size="10.00">Eigen/Core</text>
</a>
</g>
</g>
<!-- Node12&#45;&gt;Node15 -->
<g id="edge16" class="edge">
<title>Node12&#45;&gt;Node15</title>
<path fill="none" stroke="midnightblue" d="M132.91,-56.4C145.99,-47.13 163.08,-35.03 176.32,-25.65"/>
<polygon fill="midnightblue" stroke="midnightblue" points="178.64,-28.29 184.78,-19.66 174.59,-22.58 178.64,-28.29"/>
</g>
<!-- Node20&#45;&gt;Node3 -->
<g id="edge24" class="edge">
<title>Node20&#45;&gt;Node3</title>
<path fill="none" stroke="midnightblue" d="M716.81,-257.37C723.49,-247.71 731.46,-234.29 735,-221 746.61,-177.46 740.9,-154.83 709,-123 683.34,-97.39 643.27,-84.5 614.21,-78.18"/>
<polygon fill="midnightblue" stroke="midnightblue" points="614.54,-74.68 604.04,-76.14 613.16,-81.54 614.54,-74.68"/>
</g>
<!-- Node20&#45;&gt;Node6 -->
<g id="edge25" class="edge">
<title>Node20&#45;&gt;Node6</title>
<path fill="none" stroke="midnightblue" d="M762.08,-259.39C766.78,-258.52 771.46,-257.71 776,-257 923.5,-233.83 963.96,-252.06 1110,-221 1113.86,-220.18 1117.87,-219.15 1121.82,-218.03"/>
<polygon fill="midnightblue" stroke="midnightblue" points="1122.88,-221.36 1131.42,-215.1 1120.84,-214.67 1122.88,-221.36"/>
</g>
<!-- Node20&#45;&gt;Node8 -->
<g id="edge28" class="edge">
<title>Node20&#45;&gt;Node8</title>
<path fill="none" stroke="midnightblue" d="M649.84,-258.74C604.56,-248.45 540.59,-233.91 491.63,-222.78"/>
<polygon fill="midnightblue" stroke="midnightblue" points="492.26,-219.33 481.74,-220.53 490.71,-226.16 492.26,-219.33"/>
</g>
<!-- Node21 -->
<g id="node21" class="node">
<title>Node21</title>
<g id="a_node21"><a xlink:title=" ">
<polygon fill="none" stroke="#bfbfbf" points="782.5,-196 782.5,-215 921.5,-215 921.5,-196 782.5,-196"/>
<text text-anchor="middle" x="852" y="-203" font-family="Helvetica,sans-Serif" font-size="10.00">iDynTree/Core/MatrixView.h</text>
</a>
</g>
</g>
<!-- Node20&#45;&gt;Node21 -->
<g id="edge26" class="edge">
<title>Node20&#45;&gt;Node21</title>
<path fill="none" stroke="midnightblue" d="M737.68,-257.4C763.3,-245.99 799.04,-230.08 823.7,-219.1"/>
<polygon fill="midnightblue" stroke="midnightblue" points="825.18,-222.27 832.89,-215.01 822.33,-215.88 825.18,-222.27"/>
</g>
<!-- Node22 -->
<g id="node22" class="node">
<title>Node22</title>
<g id="a_node22"><a xlink:title=" ">
<polygon fill="none" stroke="#bfbfbf" points="939.5,-196 939.5,-215 1100.5,-215 1100.5,-196 939.5,-196"/>
<text text-anchor="middle" x="1020" y="-203" font-family="Helvetica,sans-Serif" font-size="10.00">iDynTree/KinDynComputations.h</text>
</a>
</g>
</g>
<!-- Node20&#45;&gt;Node22 -->
<g id="edge27" class="edge">
<title>Node20&#45;&gt;Node22</title>
<path fill="none" stroke="midnightblue" d="M762.16,-259.87C766.84,-258.9 771.5,-257.93 776,-257 842.58,-243.21 919.38,-227.32 968.75,-217.1"/>
<polygon fill="midnightblue" stroke="midnightblue" points="969.47,-220.53 978.55,-215.08 968.05,-213.67 969.47,-220.53"/>
</g>
<!-- Node23 -->
<g id="node23" class="node">
<title>Node23</title>
<g id="a_node23"><a xlink:href="VariablesHandler_8h.html" target="_top" xlink:title=" ">
<polygon fill="none" stroke="black" points="590,-190.5 590,-220.5 726,-220.5 726,-190.5 590,-190.5"/>
<text text-anchor="start" x="598" y="-208.5" font-family="Helvetica,sans-Serif" font-size="10.00">BipedalLocomotion/System</text>
<text text-anchor="middle" x="658" y="-197.5" font-family="Helvetica,sans-Serif" font-size="10.00">/VariablesHandler.h</text>
</a>
</g>
</g>
<!-- Node20&#45;&gt;Node23 -->
<g id="edge29" class="edge">
<title>Node20&#45;&gt;Node23</title>
<path fill="none" stroke="midnightblue" d="M695.58,-257.4C689.42,-249.05 681.47,-238.29 674.48,-228.81"/>
<polygon fill="midnightblue" stroke="midnightblue" points="677.15,-226.54 668.39,-220.58 671.52,-230.7 677.15,-226.54"/>
</g>
<!-- Node23&#45;&gt;Node4 -->
<g id="edge30" class="edge">
<title>Node23&#45;&gt;Node4</title>
<path fill="none" stroke="midnightblue" d="M627.19,-190.4C602.38,-179.04 567.82,-163.22 543.84,-152.24"/>
<polygon fill="midnightblue" stroke="midnightblue" points="545.13,-148.99 534.58,-148.01 542.22,-155.35 545.13,-148.99"/>
</g>
<!-- Node24 -->
<g id="node24" class="node">
<title>Node24</title>
<g id="a_node24"><a xlink:title=" ">
<polygon fill="none" stroke="#bfbfbf" points="616.5,-129 616.5,-148 699.5,-148 699.5,-129 616.5,-129"/>
<text text-anchor="middle" x="658" y="-136" font-family="Helvetica,sans-Serif" font-size="10.00">unordered_map</text>
</a>
</g>
</g>
<!-- Node23&#45;&gt;Node24 -->
<g id="edge31" class="edge">
<title>Node23&#45;&gt;Node24</title>
<path fill="none" stroke="midnightblue" d="M658,-190.4C658,-181.06 658,-168.71 658,-158.52"/>
<polygon fill="midnightblue" stroke="midnightblue" points="661.5,-158.19 658,-148.19 654.5,-158.19 661.5,-158.19"/>
</g>
</g>
</svg>
        <g id="navigator" transform="translate(0 0)" fill="#404254">
                <rect fill="#f2f5e9" fill-opacity="0.5" stroke="#606060" stroke-width=".5" x="0" y="0" width="60" height="60"/>
                <use id="zoomplus" xlink:href="#zoomPlus" x="17" y="9" onmousedown="handleZoom(evt,'in')"/>
                <use id="zoomminus" xlink:href="#zoomMin" x="42" y="9" onmousedown="handleZoom(evt,'out')"/>
                <use id="reset" xlink:href="#resetDef" x="30" y="36" onmousedown="handleReset()"/>
                <g id="arrowUp" xlink:href="#dirArrow" transform="translate(30 24)" onmousedown="handlePan(0,-1)">
                  <use xlink:href="#rim" fill="#404040">
                        <set attributeName="fill" to="#808080" begin="arrowUp.mouseover" end="arrowUp.mouseout"/>
                  </use>
                  <path fill="none" stroke="white" stroke-width="1.5" d="M0,-3.0v7 M-2.5,-0.5L0,-3.0L2.5,-0.5"/>
                </g>
                <g id="arrowRight" xlink:href="#dirArrow" transform="rotate(90) translate(36 -43)" onmousedown="handlePan(1,0)">
                  <use xlink:href="#rim" fill="#404040">
                        <set attributeName="fill" to="#808080" begin="arrowRight.mouseover" end="arrowRight.mouseout"/>
                  </use>
                  <path fill="none" stroke="white" stroke-width="1.5" d="M0,-3.0v7 M-2.5,-0.5L0,-3.0L2.5,-0.5"/>
                </g>
                <g id="arrowDown" xlink:href="#dirArrow" transform="rotate(180) translate(-30 -48)" onmousedown="handlePan(0,1)">
                  <use xlink:href="#rim" fill="#404040">
                        <set attributeName="fill" to="#808080" begin="arrowDown.mouseover" end="arrowDown.mouseout"/>
                  </use>
                  <path fill="none" stroke="white" stroke-width="1.5" d="M0,-3.0v7 M-2.5,-0.5L0,-3.0L2.5,-0.5"/>
                </g>
                <g id="arrowLeft" xlink:href="#dirArrow" transform="rotate(270) translate(-36 17)" onmousedown="handlePan(-1,0)">
                  <use xlink:href="#rim" fill="#404040">
                        <set attributeName="fill" to="#808080" begin="arrowLeft.mouseover" end="arrowLeft.mouseout"/>
                  </use>
                  <path fill="none" stroke="white" stroke-width="1.5" d="M0,-3.0v7 M-2.5,-0.5L0,-3.0L2.5,-0.5"/>
                </g>
        </g>
        <svg viewBox="0 0 15 15" width="100%" height="30px" preserveAspectRatio="xMaxYMin meet">
         <g id="arrow_out" transform="scale(0.3 0.3)">
          <a xlink:href="IntegrationBasedIK_8cpp__incl_org.svg" target="_base">
           <rect id="button" ry="5" rx="5" y="6" x="6" height="38" width="38"
                fill="#f2f5e9" fill-opacity="0.5" stroke="#606060" stroke-width="1.0"/>
           <path id="arrow"
             d="M 11.500037,31.436501 C 11.940474,20.09759 22.043105,11.32322 32.158766,21.979434 L 37.068811,17.246167 C 37.068811,17.246167 37.088388,32 37.088388,32 L 22.160133,31.978069 C 22.160133,31.978069 26.997745,27.140456 26.997745,27.140456 C 18.528582,18.264221 13.291696,25.230495 11.500037,31.436501 z"
             style="fill:#404040;"/>
          </a>
         </g>
        </svg>
</svg>
