<?xml version="1.0" encoding="UTF-8" standalone="no"?>
<!DOCTYPE svg PUBLIC "-//W3C//DTD SVG 1.1//EN"
 "http://www.w3.org/Graphics/SVG/1.1/DTD/svg11.dtd">
<!-- Generated by graphviz version 2.43.0 (0)
 -->
<!-- Title: Estimators/src/InvariantEKFBaseEstimator.cpp Pages: 1 -->
<!--zoomable 452 -->
<svg id="main" version="1.1" xmlns="http://www.w3.org/2000/svg" xmlns:xlink="http://www.w3.org/1999/xlink" xml:space="preserve" onload="init(evt)">
<style type="text/css"><![CDATA[
.edge:hover path { stroke: red; }
.edge:hover polygon { stroke: red; fill: red; }
]]></style>
<script type="text/javascript"><![CDATA[
var edges = document.getElementsByTagName('g');
if (edges && edges.length) {
  for (var i=0;i<edges.length;i++) {
    if (edges[i].id.substr(0,4)=='edge') {
      edges[i].setAttribute('class','edge');
    }
  }
}
]]></script>
        <defs>
                <circle id="rim" cx="0" cy="0" r="7"/>
                <circle id="rim2" cx="0" cy="0" r="3.5"/>
                <g id="zoomPlus">
                        <use xlink:href="#rim" fill="#404040">
                                <set attributeName="fill" to="#808080" begin="zoomplus.mouseover" end="zoomplus.mouseout"/>
                        </use>
                        <path d="M-4,0h8M0,-4v8" fill="none" stroke="white" stroke-width="1.5" pointer-events="none"/>
                </g>
                <g id="zoomMin">
                        <use xlink:href="#rim" fill="#404040">
                                <set attributeName="fill" to="#808080" begin="zoomminus.mouseover" end="zoomminus.mouseout"/>
                        </use>
                        <path d="M-4,0h8" fill="none" stroke="white" stroke-width="1.5" pointer-events="none"/>
                </g>
                <g id="dirArrow">
                        <path fill="none" stroke="white" stroke-width="1.5" d="M0,-3.0v7 M-2.5,-0.5L0,-3.0L2.5,-0.5"/>
                </g>
               <g id="resetDef">
                       <use xlink:href="#rim2" fill="#404040">
                               <set attributeName="fill" to="#808080" begin="reset.mouseover" end="reset.mouseout"/>
                       </use>
               </g>
        </defs>

<script type="text/javascript">
var viewWidth = 1418;
var viewHeight = 452;
var sectionId = 'dynsection-0';
</script>
<script xlink:href="svgpan.js"/>
<svg id="graph" class="graph">
<g id="viewport">
<title>Estimators/src/InvariantEKFBaseEstimator.cpp</title>
<!-- Node1 -->
<g id="node1" class="node">
<title>Node1</title>
<g id="a_node1"><a xlink:title=" ">
<polygon fill="#bfbfbf" stroke="black" points="1171.5,-413.5 1171.5,-443.5 1292.5,-443.5 1292.5,-413.5 1171.5,-413.5"/>
<text text-anchor="start" x="1179.5" y="-431.5" font-family="Helvetica,sans-Serif" font-size="10.00">Estimators/src/Invariant</text>
<text text-anchor="middle" x="1232" y="-420.5" font-family="Helvetica,sans-Serif" font-size="10.00">EKFBaseEstimator.cpp</text>
</a>
</g>
</g>
<!-- Node2 -->
<g id="node2" class="node">
<title>Node2</title>
<g id="a_node2"><a xlink:href="InvariantEKFBaseEstimator_8h.html" target="_top" xlink:title=" ">
<polygon fill="none" stroke="black" points="847.5,-335.5 847.5,-376.5 1016.5,-376.5 1016.5,-335.5 847.5,-335.5"/>
<text text-anchor="start" x="855.5" y="-364.5" font-family="Helvetica,sans-Serif" font-size="10.00">BipedalLocomotion/Floating</text>
<text text-anchor="start" x="855.5" y="-353.5" font-family="Helvetica,sans-Serif" font-size="10.00">BaseEstimators/InvariantEKFBase</text>
<text text-anchor="middle" x="932" y="-342.5" font-family="Helvetica,sans-Serif" font-size="10.00">Estimator.h</text>
</a>
</g>
</g>
<!-- Node1&#45;&gt;Node2 -->
<g id="edge1" class="edge">
<title>Node1&#45;&gt;Node2</title>
<path fill="none" stroke="midnightblue" d="M1172.37,-413.49C1130.25,-403.59 1072.96,-390.13 1024.88,-378.83"/>
<polygon fill="midnightblue" stroke="midnightblue" points="1025.62,-375.41 1015.09,-376.53 1024.02,-382.22 1025.62,-375.41"/>
</g>
<!-- Node21 -->
<g id="node21" class="node">
<title>Node21</title>
<g id="a_node21"><a xlink:title=" ">
<polygon fill="none" stroke="#bfbfbf" points="1191,-129 1191,-148 1267,-148 1267,-129 1191,-129"/>
<text text-anchor="middle" x="1229" y="-136" font-family="Helvetica,sans-Serif" font-size="10.00">manif/manif.h</text>
</a>
</g>
</g>
<!-- Node1&#45;&gt;Node21 -->
<g id="edge32" class="edge">
<title>Node1&#45;&gt;Node21</title>
<path fill="none" stroke="midnightblue" d="M1231.85,-413.22C1231.35,-365.53 1229.75,-211.77 1229.19,-158.15"/>
<polygon fill="midnightblue" stroke="midnightblue" points="1232.69,-158.01 1229.09,-148.05 1225.69,-158.09 1232.69,-158.01"/>
</g>
<!-- Node26 -->
<g id="node26" class="node">
<title>Node26</title>
<g id="a_node26"><a xlink:title=" ">
<polygon fill="none" stroke="#bfbfbf" points="1260,-346.5 1260,-365.5 1410,-365.5 1410,-346.5 1260,-346.5"/>
<text text-anchor="middle" x="1335" y="-353.5" font-family="Helvetica,sans-Serif" font-size="10.00">iDynTree/Core/EigenHelpers.h</text>
</a>
</g>
</g>
<!-- Node1&#45;&gt;Node26 -->
<g id="edge31" class="edge">
<title>Node1&#45;&gt;Node26</title>
<path fill="none" stroke="midnightblue" d="M1252.84,-413.23C1270.56,-401.1 1295.9,-383.76 1313.74,-371.55"/>
<polygon fill="midnightblue" stroke="midnightblue" points="1316.03,-374.23 1322.3,-365.69 1312.07,-368.45 1316.03,-374.23"/>
</g>
<!-- Node3 -->
<g id="node3" class="node">
<title>Node3</title>
<g id="a_node3"><a xlink:href="FloatingBaseEstimator_8h.html" target="_top" xlink:title=" ">
<polygon fill="none" stroke="black" points="549,-268.5 549,-298.5 745,-298.5 745,-268.5 549,-268.5"/>
<text text-anchor="start" x="557" y="-286.5" font-family="Helvetica,sans-Serif" font-size="10.00">BipedalLocomotion/Floating</text>
<text text-anchor="middle" x="647" y="-275.5" font-family="Helvetica,sans-Serif" font-size="10.00">BaseEstimators/FloatingBaseEstimator.h</text>
</a>
</g>
</g>
<!-- Node2&#45;&gt;Node3 -->
<g id="edge2" class="edge">
<title>Node2&#45;&gt;Node3</title>
<path fill="none" stroke="midnightblue" d="M852.99,-335.46C809.22,-324.63 755.4,-311.32 713.76,-301.01"/>
<polygon fill="midnightblue" stroke="midnightblue" points="714.53,-297.6 703.99,-298.6 712.85,-304.4 714.53,-297.6"/>
</g>
<!-- Node4 -->
<g id="node4" class="node">
<title>Node4</title>
<g id="a_node4"><a xlink:href="Advanceable_8h.html" target="_top" xlink:title=" ">
<polygon fill="none" stroke="black" points="842,-196 842,-226 978,-226 978,-196 842,-196"/>
<text text-anchor="start" x="850" y="-214" font-family="Helvetica,sans-Serif" font-size="10.00">BipedalLocomotion/System</text>
<text text-anchor="middle" x="910" y="-203" font-family="Helvetica,sans-Serif" font-size="10.00">/Advanceable.h</text>
</a>
</g>
</g>
<!-- Node3&#45;&gt;Node4 -->
<g id="edge3" class="edge">
<title>Node3&#45;&gt;Node4</title>
<path fill="none" stroke="midnightblue" d="M699.27,-268.49C741.98,-257.04 802.46,-240.83 847.68,-228.71"/>
<polygon fill="midnightblue" stroke="midnightblue" points="848.62,-232.08 857.37,-226.11 846.81,-225.32 848.62,-232.08"/>
</g>
<!-- Node5 -->
<g id="node5" class="node">
<title>Node5</title>
<g id="a_node5"><a xlink:href="IParametersHandler_8h.html" target="_top" xlink:title=" ">
<polygon fill="none" stroke="black" points="164,-196 164,-226 316,-226 316,-196 164,-196"/>
<text text-anchor="start" x="172" y="-214" font-family="Helvetica,sans-Serif" font-size="10.00">BipedalLocomotion/Parameters</text>
<text text-anchor="middle" x="240" y="-203" font-family="Helvetica,sans-Serif" font-size="10.00">Handler/IParametersHandler.h</text>
</a>
</g>
</g>
<!-- Node3&#45;&gt;Node5 -->
<g id="edge4" class="edge">
<title>Node3&#45;&gt;Node5</title>
<path fill="none" stroke="midnightblue" d="M566.1,-268.49C496.83,-256.49 397.35,-239.26 326.51,-226.98"/>
<polygon fill="midnightblue" stroke="midnightblue" points="326.72,-223.47 316.27,-225.21 325.53,-230.37 326.72,-223.47"/>
</g>
<!-- Node6 -->
<g id="node6" class="node">
<title>Node6</title>
<g id="a_node6"><a xlink:title=" ">
<polygon fill="none" stroke="#bfbfbf" points="0,-62 0,-81 52,-81 52,-62 0,-62"/>
<text text-anchor="middle" x="26" y="-69" font-family="Helvetica,sans-Serif" font-size="10.00">memory</text>
</a>
</g>
</g>
<!-- Node3&#45;&gt;Node6 -->
<g id="edge30" class="edge">
<title>Node3&#45;&gt;Node6</title>
<path fill="none" stroke="midnightblue" d="M548.92,-281.25C425.25,-278.17 220.82,-267.66 155,-232 94.27,-199.1 51.52,-124.51 34.36,-90.28"/>
<polygon fill="midnightblue" stroke="midnightblue" points="37.39,-88.5 29.87,-81.04 31.09,-91.56 37.39,-88.5"/>
</g>
<!-- Node17 -->
<g id="node17" class="node">
<title>Node17</title>
<g id="a_node17"><a xlink:title=" ">
<polygon fill="none" stroke="#bfbfbf" points="509,-62 509,-81 563,-81 563,-62 509,-62"/>
<text text-anchor="middle" x="536" y="-69" font-family="Helvetica,sans-Serif" font-size="10.00">iostream</text>
</a>
</g>
</g>
<!-- Node3&#45;&gt;Node17 -->
<g id="edge29" class="edge">
<title>Node3&#45;&gt;Node17</title>
<path fill="none" stroke="midnightblue" d="M548.82,-269.24C504.97,-261.11 460.2,-248.95 447,-232 409.12,-183.36 480.1,-116.61 516.45,-87.31"/>
<polygon fill="midnightblue" stroke="midnightblue" points="518.76,-89.95 524.45,-81.01 514.43,-84.45 518.76,-89.95"/>
</g>
<!-- Node18 -->
<g id="node18" class="node">
<title>Node18</title>
<g id="a_node18"><a xlink:href="FloatingBaseEstimatorParams_8h.html" target="_top" xlink:title=" ">
<polygon fill="none" stroke="black" points="456,-190.5 456,-231.5 644,-231.5 644,-190.5 456,-190.5"/>
<text text-anchor="start" x="464" y="-219.5" font-family="Helvetica,sans-Serif" font-size="10.00">BipedalLocomotion/Floating</text>
<text text-anchor="start" x="464" y="-208.5" font-family="Helvetica,sans-Serif" font-size="10.00">BaseEstimators/FloatingBaseEstimator</text>
<text text-anchor="middle" x="550" y="-197.5" font-family="Helvetica,sans-Serif" font-size="10.00">Params.h</text>
</a>
</g>
</g>
<!-- Node3&#45;&gt;Node18 -->
<g id="edge19" class="edge">
<title>Node3&#45;&gt;Node18</title>
<path fill="none" stroke="midnightblue" d="M627.37,-268.23C615.25,-259.42 599.34,-247.86 585.1,-237.51"/>
<polygon fill="midnightblue" stroke="midnightblue" points="587.1,-234.64 576.95,-231.59 582.98,-240.3 587.1,-234.64"/>
</g>
<!-- Node20 -->
<g id="node20" class="node">
<title>Node20</title>
<g id="a_node20"><a xlink:href="FloatingBaseEstimatorIO_8h.html" target="_top" xlink:title=" ">
<polygon fill="none" stroke="black" points="996.5,-196 996.5,-226 1203.5,-226 1203.5,-196 996.5,-196"/>
<text text-anchor="start" x="1004.5" y="-214" font-family="Helvetica,sans-Serif" font-size="10.00">BipedalLocomotion/Floating</text>
<text text-anchor="middle" x="1100" y="-203" font-family="Helvetica,sans-Serif" font-size="10.00">BaseEstimators/FloatingBaseEstimatorIO.h</text>
</a>
</g>
</g>
<!-- Node3&#45;&gt;Node20 -->
<g id="edge21" class="edge">
<title>Node3&#45;&gt;Node20</title>
<path fill="none" stroke="midnightblue" d="M745.31,-268.63C813.27,-258.87 905.72,-245.23 987,-232 995.27,-230.65 1003.87,-229.21 1012.47,-227.74"/>
<polygon fill="midnightblue" stroke="midnightblue" points="1013.29,-231.15 1022.55,-226 1012.1,-224.25 1013.29,-231.15"/>
</g>
<!-- Node25 -->
<g id="node25" class="node">
<title>Node25</title>
<g id="a_node25"><a xlink:title=" ">
<polygon fill="none" stroke="#bfbfbf" points="662.5,-201.5 662.5,-220.5 823.5,-220.5 823.5,-201.5 662.5,-201.5"/>
<text text-anchor="middle" x="743" y="-208.5" font-family="Helvetica,sans-Serif" font-size="10.00">iDynTree/KinDynComputations.h</text>
</a>
</g>
</g>
<!-- Node3&#45;&gt;Node25 -->
<g id="edge28" class="edge">
<title>Node3&#45;&gt;Node25</title>
<path fill="none" stroke="midnightblue" d="M666.43,-268.23C682.79,-256.22 706.12,-239.08 722.72,-226.89"/>
<polygon fill="midnightblue" stroke="midnightblue" points="725.18,-229.43 731.17,-220.69 721.03,-223.79 725.18,-229.43"/>
</g>
<!-- Node5&#45;&gt;Node6 -->
<g id="edge5" class="edge">
<title>Node5&#45;&gt;Node6</title>
<path fill="none" stroke="midnightblue" d="M212.79,-195.81C192.41,-184.94 164.02,-169.25 140,-154 105.55,-132.13 67.3,-103.93 45.02,-87.09"/>
<polygon fill="midnightblue" stroke="midnightblue" points="47.12,-84.28 37.04,-81.02 42.89,-89.86 47.12,-84.28"/>
</g>
<!-- Node7 -->
<g id="node7" class="node">
<title>Node7</title>
<g id="a_node7"><a xlink:title=" ">
<polygon fill="none" stroke="#bfbfbf" points="796.5,-62 796.5,-81 837.5,-81 837.5,-62 796.5,-62"/>
<text text-anchor="middle" x="817" y="-69" font-family="Helvetica,sans-Serif" font-size="10.00">string</text>
</a>
</g>
</g>
<!-- Node5&#45;&gt;Node7 -->
<g id="edge6" class="edge">
<title>Node5&#45;&gt;Node7</title>
<path fill="none" stroke="midnightblue" d="M298.77,-196C420.17,-167.07 694.93,-101.59 786.59,-79.75"/>
<polygon fill="midnightblue" stroke="midnightblue" points="787.44,-83.14 796.35,-77.42 785.81,-76.33 787.44,-83.14"/>
</g>
<!-- Node8 -->
<g id="node8" class="node">
<title>Node8</title>
<g id="a_node8"><a xlink:title=" ">
<polygon fill="none" stroke="#bfbfbf" points="164,-129 164,-148 208,-148 208,-129 164,-129"/>
<text text-anchor="middle" x="186" y="-136" font-family="Helvetica,sans-Serif" font-size="10.00">vector</text>
</a>
</g>
</g>
<!-- Node5&#45;&gt;Node8 -->
<g id="edge7" class="edge">
<title>Node5&#45;&gt;Node8</title>
<path fill="none" stroke="midnightblue" d="M229.07,-195.73C220.43,-184.45 208.33,-168.65 199.15,-156.67"/>
<polygon fill="midnightblue" stroke="midnightblue" points="201.67,-154.2 192.81,-148.39 196.11,-158.46 201.67,-154.2"/>
</g>
<!-- Node9 -->
<g id="node9" class="node">
<title>Node9</title>
<g id="a_node9"><a xlink:href="Vector_8h_source.html" target="_top" xlink:title=" ">
<polygon fill="none" stroke="black" points="226,-123.5 226,-153.5 362,-153.5 362,-123.5 226,-123.5"/>
<text text-anchor="start" x="234" y="-141.5" font-family="Helvetica,sans-Serif" font-size="10.00">BipedalLocomotion/Generic</text>
<text text-anchor="middle" x="294" y="-130.5" font-family="Helvetica,sans-Serif" font-size="10.00">Container/Vector.h</text>
</a>
</g>
</g>
<!-- Node5&#45;&gt;Node9 -->
<g id="edge8" class="edge">
<title>Node5&#45;&gt;Node9</title>
<path fill="none" stroke="midnightblue" d="M250.93,-195.73C258.39,-185.99 268.44,-172.87 276.95,-161.76"/>
<polygon fill="midnightblue" stroke="midnightblue" points="279.79,-163.81 283.09,-153.75 274.23,-159.56 279.79,-163.81"/>
</g>
<!-- Node11 -->
<g id="node11" class="node">
<title>Node11</title>
<g id="a_node11"><a xlink:href="TemplateHelpers_8h_source.html" target="_top" xlink:title=" ">
<polygon fill="none" stroke="black" points="70.5,-56.5 70.5,-86.5 213.5,-86.5 213.5,-56.5 70.5,-56.5"/>
<text text-anchor="start" x="78.5" y="-74.5" font-family="Helvetica,sans-Serif" font-size="10.00">BipedalLocomotion/Generic</text>
<text text-anchor="middle" x="142" y="-63.5" font-family="Helvetica,sans-Serif" font-size="10.00">Container/TemplateHelpers.h</text>
</a>
</g>
</g>
<!-- Node5&#45;&gt;Node11 -->
<g id="edge18" class="edge">
<title>Node5&#45;&gt;Node11</title>
<path fill="none" stroke="midnightblue" d="M205.85,-195.82C187.86,-186.57 167.08,-172.71 155,-154 144.1,-137.11 141.24,-114.26 140.89,-97.05"/>
<polygon fill="midnightblue" stroke="midnightblue" points="144.39,-96.7 140.95,-86.68 137.39,-96.66 144.39,-96.7"/>
</g>
<!-- Node9&#45;&gt;Node6 -->
<g id="edge17" class="edge">
<title>Node9&#45;&gt;Node6</title>
<path fill="none" stroke="midnightblue" d="M225.87,-124.14C168.54,-112.64 91.22,-96.45 61,-87 58.86,-86.33 56.66,-85.58 54.47,-84.79"/>
<polygon fill="midnightblue" stroke="midnightblue" points="55.62,-81.48 45.03,-81.11 53.08,-88 55.62,-81.48"/>
</g>
<!-- Node10 -->
<g id="node10" class="node">
<title>Node10</title>
<g id="a_node10"><a xlink:title=" ">
<polygon fill="none" stroke="#bfbfbf" points="232,-62 232,-81 346,-81 346,-62 232,-62"/>
<text text-anchor="middle" x="289" y="-69" font-family="Helvetica,sans-Serif" font-size="10.00">iDynTree/Core/Span.h</text>
</a>
</g>
</g>
<!-- Node9&#45;&gt;Node10 -->
<g id="edge9" class="edge">
<title>Node9&#45;&gt;Node10</title>
<path fill="none" stroke="midnightblue" d="M292.92,-123.4C292.19,-113.96 291.23,-101.45 290.44,-91.19"/>
<polygon fill="midnightblue" stroke="midnightblue" points="293.93,-90.9 289.67,-81.19 286.95,-91.43 293.93,-90.9"/>
</g>
<!-- Node9&#45;&gt;Node11 -->
<g id="edge10" class="edge">
<title>Node9&#45;&gt;Node11</title>
<path fill="none" stroke="midnightblue" d="M261.02,-123.4C238.51,-113.77 208.5,-100.94 184.24,-90.56"/>
<polygon fill="midnightblue" stroke="midnightblue" points="185.49,-87.29 174.92,-86.58 182.74,-93.73 185.49,-87.29"/>
</g>
<!-- Node15 -->
<g id="node15" class="node">
<title>Node15</title>
<g id="a_node15"><a xlink:title=" ">
<polygon fill="none" stroke="#bfbfbf" points="364.5,-62 364.5,-81 423.5,-81 423.5,-62 364.5,-62"/>
<text text-anchor="middle" x="394" y="-69" font-family="Helvetica,sans-Serif" font-size="10.00">functional</text>
</a>
</g>
</g>
<!-- Node9&#45;&gt;Node15 -->
<g id="edge14" class="edge">
<title>Node9&#45;&gt;Node15</title>
<path fill="none" stroke="midnightblue" d="M315.7,-123.4C332.47,-112.5 355.57,-97.48 372.33,-86.58"/>
<polygon fill="midnightblue" stroke="midnightblue" points="374.44,-89.39 380.91,-81.01 370.62,-83.52 374.44,-89.39"/>
</g>
<!-- Node16 -->
<g id="node16" class="node">
<title>Node16</title>
<g id="a_node16"><a xlink:title=" ">
<polygon fill="none" stroke="#bfbfbf" points="441.5,-62 441.5,-81 490.5,-81 490.5,-62 441.5,-62"/>
<text text-anchor="middle" x="466" y="-69" font-family="Helvetica,sans-Serif" font-size="10.00">cassert</text>
</a>
</g>
</g>
<!-- Node9&#45;&gt;Node16 -->
<g id="edge15" class="edge">
<title>Node9&#45;&gt;Node16</title>
<path fill="none" stroke="midnightblue" d="M334.07,-123.46C361.72,-113.62 399.27,-99.96 432,-87 433.6,-86.37 435.24,-85.71 436.89,-85.03"/>
<polygon fill="midnightblue" stroke="midnightblue" points="438.41,-88.19 446.3,-81.11 435.72,-81.73 438.41,-88.19"/>
</g>
<!-- Node9&#45;&gt;Node17 -->
<g id="edge16" class="edge">
<title>Node9&#45;&gt;Node17</title>
<path fill="none" stroke="midnightblue" d="M360.63,-123.43C401.03,-114.32 453.41,-101.48 499,-87 501.27,-86.28 503.61,-85.49 505.95,-84.66"/>
<polygon fill="midnightblue" stroke="midnightblue" points="507.29,-87.89 515.43,-81.12 504.84,-81.34 507.29,-87.89"/>
</g>
<!-- Node12 -->
<g id="node12" class="node">
<title>Node12</title>
<g id="a_node12"><a xlink:title=" ">
<polygon fill="none" stroke="#bfbfbf" points="29,-0.5 29,-19.5 91,-19.5 91,-0.5 29,-0.5"/>
<text text-anchor="middle" x="60" y="-7.5" font-family="Helvetica,sans-Serif" font-size="10.00">type_traits</text>
</a>
</g>
</g>
<!-- Node11&#45;&gt;Node12 -->
<g id="edge11" class="edge">
<title>Node11&#45;&gt;Node12</title>
<path fill="none" stroke="midnightblue" d="M122.57,-56.4C109.79,-47.13 93.11,-35.03 80.19,-25.65"/>
<polygon fill="midnightblue" stroke="midnightblue" points="82.08,-22.7 71.93,-19.66 77.97,-28.36 82.08,-22.7"/>
</g>
<!-- Node13 -->
<g id="node13" class="node">
<title>Node13</title>
<g id="a_node13"><a xlink:title=" ">
<polygon fill="none" stroke="#bfbfbf" points="109,-0.5 109,-19.5 175,-19.5 175,-0.5 109,-0.5"/>
<text text-anchor="middle" x="142" y="-7.5" font-family="Helvetica,sans-Serif" font-size="10.00">string_view</text>
</a>
</g>
</g>
<!-- Node11&#45;&gt;Node13 -->
<g id="edge12" class="edge">
<title>Node11&#45;&gt;Node13</title>
<path fill="none" stroke="midnightblue" d="M142,-56.4C142,-48.47 142,-38.46 142,-29.86"/>
<polygon fill="midnightblue" stroke="midnightblue" points="145.5,-29.66 142,-19.66 138.5,-29.66 145.5,-29.66"/>
</g>
<!-- Node14 -->
<g id="node14" class="node">
<title>Node14</title>
<g id="a_node14"><a xlink:title=" ">
<polygon fill="none" stroke="#bfbfbf" points="193.5,-0.5 193.5,-19.5 258.5,-19.5 258.5,-0.5 193.5,-0.5"/>
<text text-anchor="middle" x="226" y="-7.5" font-family="Helvetica,sans-Serif" font-size="10.00">Eigen/Core</text>
</a>
</g>
</g>
<!-- Node11&#45;&gt;Node14 -->
<g id="edge13" class="edge">
<title>Node11&#45;&gt;Node14</title>
<path fill="none" stroke="midnightblue" d="M161.91,-56.4C174.99,-47.13 192.08,-35.03 205.32,-25.65"/>
<polygon fill="midnightblue" stroke="midnightblue" points="207.64,-28.29 213.78,-19.66 203.59,-22.58 207.64,-28.29"/>
</g>
<!-- Node19 -->
<g id="node19" class="node">
<title>Node19</title>
<g id="a_node19"><a xlink:title=" ">
<polygon fill="none" stroke="#bfbfbf" points="699.5,-129 699.5,-148 772.5,-148 772.5,-129 699.5,-129"/>
<text text-anchor="middle" x="736" y="-136" font-family="Helvetica,sans-Serif" font-size="10.00">Eigen/Dense</text>
</a>
</g>
</g>
<!-- Node18&#45;&gt;Node19 -->
<g id="edge20" class="edge">
<title>Node18&#45;&gt;Node19</title>
<path fill="none" stroke="midnightblue" d="M601.81,-190.36C634.36,-178.02 675.35,-162.49 703.4,-151.85"/>
<polygon fill="midnightblue" stroke="midnightblue" points="705.01,-154.99 713.12,-148.17 702.53,-148.44 705.01,-154.99"/>
</g>
<!-- Node20&#45;&gt;Node19 -->
<g id="edge22" class="edge">
<title>Node20&#45;&gt;Node19</title>
<path fill="none" stroke="midnightblue" d="M1027.65,-195.99C954.79,-181.87 844.54,-160.52 782.56,-148.52"/>
<polygon fill="midnightblue" stroke="midnightblue" points="783.16,-145.07 772.67,-146.6 781.82,-151.94 783.16,-145.07"/>
</g>
<!-- Node20&#45;&gt;Node21 -->
<g id="edge23" class="edge">
<title>Node20&#45;&gt;Node21</title>
<path fill="none" stroke="midnightblue" d="M1125.8,-195.9C1148.7,-183.39 1181.93,-165.22 1204.45,-152.92"/>
<polygon fill="midnightblue" stroke="midnightblue" points="1206.29,-155.9 1213.39,-148.03 1202.93,-149.76 1206.29,-155.9"/>
</g>
<!-- Node22 -->
<g id="node22" class="node">
<title>Node22</title>
<g id="a_node22"><a xlink:href="Contact_8h.html" target="_top" xlink:title=" ">
<polygon fill="none" stroke="black" points="1029,-123.5 1029,-153.5 1171,-153.5 1171,-123.5 1029,-123.5"/>
<text text-anchor="start" x="1037" y="-141.5" font-family="Helvetica,sans-Serif" font-size="10.00">BipedalLocomotion/Contacts</text>
<text text-anchor="middle" x="1100" y="-130.5" font-family="Helvetica,sans-Serif" font-size="10.00">/Contact.h</text>
</a>
</g>
</g>
<!-- Node20&#45;&gt;Node22 -->
<g id="edge24" class="edge">
<title>Node20&#45;&gt;Node22</title>
<path fill="none" stroke="midnightblue" d="M1100,-195.73C1100,-186.66 1100,-174.66 1100,-164.08"/>
<polygon fill="midnightblue" stroke="midnightblue" points="1103.5,-163.75 1100,-153.75 1096.5,-163.75 1103.5,-163.75"/>
</g>
<!-- Node24 -->
<g id="node24" class="node">
<title>Node24</title>
<g id="a_node24"><a xlink:title=" ">
<polygon fill="none" stroke="#bfbfbf" points="975.5,-129 975.5,-148 1010.5,-148 1010.5,-129 975.5,-129"/>
<text text-anchor="middle" x="993" y="-136" font-family="Helvetica,sans-Serif" font-size="10.00">map</text>
</a>
</g>
</g>
<!-- Node20&#45;&gt;Node24 -->
<g id="edge27" class="edge">
<title>Node20&#45;&gt;Node24</title>
<path fill="none" stroke="midnightblue" d="M1078.6,-195.9C1059.95,-183.61 1033.02,-165.87 1014.37,-153.58"/>
<polygon fill="midnightblue" stroke="midnightblue" points="1016.23,-150.61 1005.95,-148.03 1012.38,-156.46 1016.23,-150.61"/>
</g>
<!-- Node22&#45;&gt;Node7 -->
<g id="edge26" class="edge">
<title>Node22&#45;&gt;Node7</title>
<path fill="none" stroke="midnightblue" d="M1038.94,-123.48C980,-109.94 893.17,-90 847.56,-79.52"/>
<polygon fill="midnightblue" stroke="midnightblue" points="848.21,-76.08 837.68,-77.25 846.65,-82.9 848.21,-76.08"/>
</g>
<!-- Node23 -->
<g id="node23" class="node">
<title>Node23</title>
<g id="a_node23"><a xlink:title=" ">
<polygon fill="none" stroke="#bfbfbf" points="1064.5,-62 1064.5,-81 1135.5,-81 1135.5,-62 1064.5,-62"/>
<text text-anchor="middle" x="1100" y="-69" font-family="Helvetica,sans-Serif" font-size="10.00">manif/SE3.h</text>
</a>
</g>
</g>
<!-- Node22&#45;&gt;Node23 -->
<g id="edge25" class="edge">
<title>Node22&#45;&gt;Node23</title>
<path fill="none" stroke="midnightblue" d="M1100,-123.4C1100,-114.06 1100,-101.71 1100,-91.52"/>
<polygon fill="midnightblue" stroke="midnightblue" points="1103.5,-91.19 1100,-81.19 1096.5,-91.19 1103.5,-91.19"/>
</g>
</g>
</svg>
        <g id="navigator" transform="translate(0 0)" fill="#404254">
                <rect fill="#f2f5e9" fill-opacity="0.5" stroke="#606060" stroke-width=".5" x="0" y="0" width="60" height="60"/>
                <use id="zoomplus" xlink:href="#zoomPlus" x="17" y="9" onmousedown="handleZoom(evt,'in')"/>
                <use id="zoomminus" xlink:href="#zoomMin" x="42" y="9" onmousedown="handleZoom(evt,'out')"/>
                <use id="reset" xlink:href="#resetDef" x="30" y="36" onmousedown="handleReset()"/>
                <g id="arrowUp" xlink:href="#dirArrow" transform="translate(30 24)" onmousedown="handlePan(0,-1)">
                  <use xlink:href="#rim" fill="#404040">
                        <set attributeName="fill" to="#808080" begin="arrowUp.mouseover" end="arrowUp.mouseout"/>
                  </use>
                  <path fill="none" stroke="white" stroke-width="1.5" d="M0,-3.0v7 M-2.5,-0.5L0,-3.0L2.5,-0.5"/>
                </g>
                <g id="arrowRight" xlink:href="#dirArrow" transform="rotate(90) translate(36 -43)" onmousedown="handlePan(1,0)">
                  <use xlink:href="#rim" fill="#404040">
                        <set attributeName="fill" to="#808080" begin="arrowRight.mouseover" end="arrowRight.mouseout"/>
                  </use>
                  <path fill="none" stroke="white" stroke-width="1.5" d="M0,-3.0v7 M-2.5,-0.5L0,-3.0L2.5,-0.5"/>
                </g>
                <g id="arrowDown" xlink:href="#dirArrow" transform="rotate(180) translate(-30 -48)" onmousedown="handlePan(0,1)">
                  <use xlink:href="#rim" fill="#404040">
                        <set attributeName="fill" to="#808080" begin="arrowDown.mouseover" end="arrowDown.mouseout"/>
                  </use>
                  <path fill="none" stroke="white" stroke-width="1.5" d="M0,-3.0v7 M-2.5,-0.5L0,-3.0L2.5,-0.5"/>
                </g>
                <g id="arrowLeft" xlink:href="#dirArrow" transform="rotate(270) translate(-36 17)" onmousedown="handlePan(-1,0)">
                  <use xlink:href="#rim" fill="#404040">
                        <set attributeName="fill" to="#808080" begin="arrowLeft.mouseover" end="arrowLeft.mouseout"/>
                  </use>
                  <path fill="none" stroke="white" stroke-width="1.5" d="M0,-3.0v7 M-2.5,-0.5L0,-3.0L2.5,-0.5"/>
                </g>
        </g>
        <svg viewBox="0 0 15 15" width="100%" height="30px" preserveAspectRatio="xMaxYMin meet">
         <g id="arrow_out" transform="scale(0.3 0.3)">
          <a xlink:href="InvariantEKFBaseEstimator_8cpp__incl_org.svg" target="_base">
           <rect id="button" ry="5" rx="5" y="6" x="6" height="38" width="38"
                fill="#f2f5e9" fill-opacity="0.5" stroke="#606060" stroke-width="1.0"/>
           <path id="arrow"
             d="M 11.500037,31.436501 C 11.940474,20.09759 22.043105,11.32322 32.158766,21.979434 L 37.068811,17.246167 C 37.068811,17.246167 37.088388,32 37.088388,32 L 22.160133,31.978069 C 22.160133,31.978069 26.997745,27.140456 26.997745,27.140456 C 18.528582,18.264221 13.291696,25.230495 11.500037,31.436501 z"
             style="fill:#404040;"/>
          </a>
         </g>
        </svg>
</svg>
