<?xml version="1.0" encoding="UTF-8" standalone="no"?>
<!DOCTYPE svg PUBLIC "-//W3C//DTD SVG 1.1//EN"
 "http://www.w3.org/Graphics/SVG/1.1/DTD/svg11.dtd">
<!-- Generated by graphviz version 2.43.0 (0)
 -->
<!-- Title: RobotInterface/include/BipedalLocomotion/RobotInterface/IRobotControl.h Pages: 1 -->
<svg width="298pt" height="195pt"
 viewBox="0.00 0.00 298.00 195.00" xmlns="http://www.w3.org/2000/svg" xmlns:xlink="http://www.w3.org/1999/xlink">
<g id="graph0" class="graph" transform="scale(1 1) rotate(0) translate(4 191)">
<title>RobotInterface/include/BipedalLocomotion/RobotInterface/IRobotControl.h</title>
<!-- Node1 -->
<g id="node1" class="node">
<title>Node1</title>
<g id="a_node1"><a xlink:title=" ">
<polygon fill="#bfbfbf" stroke="black" points="41.5,-145.5 41.5,-186.5 211.5,-186.5 211.5,-145.5 41.5,-145.5"/>
<text text-anchor="start" x="49.5" y="-174.5" font-family="Helvetica,sans-Serif" font-size="10.00">RobotInterface/include</text>
<text text-anchor="start" x="49.5" y="-163.5" font-family="Helvetica,sans-Serif" font-size="10.00">/BipedalLocomotion/RobotInterface</text>
<text text-anchor="middle" x="126.5" y="-152.5" font-family="Helvetica,sans-Serif" font-size="10.00">/IRobotControl.h</text>
</a>
</g>
</g>
<!-- Node2 -->
<g id="node2" class="node">
<title>Node2</title>
<g id="a_node2"><a xlink:href="IRobotControl_8cpp.html" target="_top" xlink:title=" ">
<polygon fill="none" stroke="black" points="0,-73 0,-103 99,-103 99,-73 0,-73"/>
<text text-anchor="start" x="8" y="-91" font-family="Helvetica,sans-Serif" font-size="10.00">RobotInterface/src</text>
<text text-anchor="middle" x="49.5" y="-80" font-family="Helvetica,sans-Serif" font-size="10.00">/IRobotControl.cpp</text>
</a>
</g>
</g>
<!-- Node1&#45;&gt;Node2 -->
<g id="edge1" class="edge">
<title>Node1&#45;&gt;Node2</title>
<path fill="none" stroke="midnightblue" d="M99.47,-138.32C87.5,-126.51 73.9,-113.08 63.91,-103.23"/>
<polygon fill="midnightblue" stroke="midnightblue" points="97.09,-140.89 106.67,-145.43 102.01,-135.91 97.09,-140.89"/>
</g>
<!-- Node3 -->
<g id="node3" class="node">
<title>Node3</title>
<g id="a_node3"><a xlink:href="YarpRobotControl_8h.html" target="_top" xlink:title=" ">
<polygon fill="none" stroke="black" points="117,-67.5 117,-108.5 290,-108.5 290,-67.5 117,-67.5"/>
<text text-anchor="start" x="125" y="-96.5" font-family="Helvetica,sans-Serif" font-size="10.00">RobotInterface/YarpImplementation</text>
<text text-anchor="start" x="125" y="-85.5" font-family="Helvetica,sans-Serif" font-size="10.00">/include/BipedalLocomotion</text>
<text text-anchor="middle" x="203.5" y="-74.5" font-family="Helvetica,sans-Serif" font-size="10.00">/RobotInterface/YarpRobotControl.h</text>
</a>
</g>
</g>
<!-- Node1&#45;&gt;Node3 -->
<g id="edge2" class="edge">
<title>Node1&#45;&gt;Node3</title>
<path fill="none" stroke="midnightblue" d="M153.65,-138.2C163.57,-128.42 174.59,-117.54 183.74,-108.51"/>
<polygon fill="midnightblue" stroke="midnightblue" points="150.99,-135.91 146.33,-145.43 155.91,-140.89 150.99,-135.91"/>
</g>
<!-- Node4 -->
<g id="node4" class="node">
<title>Node4</title>
<g id="a_node4"><a xlink:href="YarpRobotControl_8cpp.html" target="_top" xlink:title=" ">
<polygon fill="none" stroke="black" points="118.5,-0.5 118.5,-30.5 288.5,-30.5 288.5,-0.5 118.5,-0.5"/>
<text text-anchor="start" x="126.5" y="-18.5" font-family="Helvetica,sans-Serif" font-size="10.00">RobotInterface/YarpImplementation</text>
<text text-anchor="middle" x="203.5" y="-7.5" font-family="Helvetica,sans-Serif" font-size="10.00">/src/YarpRobotControl.cpp</text>
</a>
</g>
</g>
<!-- Node3&#45;&gt;Node4 -->
<g id="edge3" class="edge">
<title>Node3&#45;&gt;Node4</title>
<path fill="none" stroke="midnightblue" d="M203.5,-57.08C203.5,-48.01 203.5,-38.45 203.5,-30.89"/>
<polygon fill="midnightblue" stroke="midnightblue" points="200,-57.36 203.5,-67.36 207,-57.36 200,-57.36"/>
</g>
</g>
</svg>
