<?xml version="1.0" encoding="UTF-8" standalone="no"?>
<!DOCTYPE svg PUBLIC "-//W3C//DTD SVG 1.1//EN"
 "http://www.w3.org/Graphics/SVG/1.1/DTD/svg11.dtd">
<!-- Generated by graphviz version 2.43.0 (0)
 -->
<!-- Title: RobotInterface/include/BipedalLocomotion/RobotInterface/ISensorBridge.h Pages: 1 -->
<!--zoomable 307 -->
<svg id="main" version="1.1" xmlns="http://www.w3.org/2000/svg" xmlns:xlink="http://www.w3.org/1999/xlink" xml:space="preserve" onload="init(evt)">
<style type="text/css"><![CDATA[
.edge:hover path { stroke: red; }
.edge:hover polygon { stroke: red; fill: red; }
]]></style>
<script type="text/javascript"><![CDATA[
var edges = document.getElementsByTagName('g');
if (edges && edges.length) {
  for (var i=0;i<edges.length;i++) {
    if (edges[i].id.substr(0,4)=='edge') {
      edges[i].setAttribute('class','edge');
    }
  }
}
]]></script>
        <defs>
                <circle id="rim" cx="0" cy="0" r="7"/>
                <circle id="rim2" cx="0" cy="0" r="3.5"/>
                <g id="zoomPlus">
                        <use xlink:href="#rim" fill="#404040">
                                <set attributeName="fill" to="#808080" begin="zoomplus.mouseover" end="zoomplus.mouseout"/>
                        </use>
                        <path d="M-4,0h8M0,-4v8" fill="none" stroke="white" stroke-width="1.5" pointer-events="none"/>
                </g>
                <g id="zoomMin">
                        <use xlink:href="#rim" fill="#404040">
                                <set attributeName="fill" to="#808080" begin="zoomminus.mouseover" end="zoomminus.mouseout"/>
                        </use>
                        <path d="M-4,0h8" fill="none" stroke="white" stroke-width="1.5" pointer-events="none"/>
                </g>
                <g id="dirArrow">
                        <path fill="none" stroke="white" stroke-width="1.5" d="M0,-3.0v7 M-2.5,-0.5L0,-3.0L2.5,-0.5"/>
                </g>
               <g id="resetDef">
                       <use xlink:href="#rim2" fill="#404040">
                               <set attributeName="fill" to="#808080" begin="reset.mouseover" end="reset.mouseout"/>
                       </use>
               </g>
        </defs>

<script type="text/javascript">
var viewWidth = 623;
var viewHeight = 307;
var sectionId = 'dynsection-0';
</script>
<script xlink:href="svgpan.js"/>
<svg id="graph" class="graph">
<g id="viewport">
<title>RobotInterface/include/BipedalLocomotion/RobotInterface/ISensorBridge.h</title>
<!-- Node1 -->
<g id="node1" class="node">
<title>Node1</title>
<g id="a_node1"><a xlink:title=" ">
<polygon fill="#bfbfbf" stroke="black" points="269.5,-257.5 269.5,-298.5 439.5,-298.5 439.5,-257.5 269.5,-257.5"/>
<text text-anchor="start" x="277.5" y="-286.5" font-family="Helvetica,sans-Serif" font-size="10.00">RobotInterface/include</text>
<text text-anchor="start" x="277.5" y="-275.5" font-family="Helvetica,sans-Serif" font-size="10.00">/BipedalLocomotion/RobotInterface</text>
<text text-anchor="middle" x="354.5" y="-264.5" font-family="Helvetica,sans-Serif" font-size="10.00">/ISensorBridge.h</text>
</a>
</g>
</g>
<!-- Node2 -->
<g id="node2" class="node">
<title>Node2</title>
<g id="a_node2"><a xlink:title=" ">
<polygon fill="none" stroke="#bfbfbf" points="0,-62 0,-81 59,-81 59,-62 0,-62"/>
<text text-anchor="middle" x="29.5" y="-69" font-family="Helvetica,sans-Serif" font-size="10.00">functional</text>
</a>
</g>
</g>
<!-- Node1&#45;&gt;Node2 -->
<g id="edge1" class="edge">
<title>Node1&#45;&gt;Node2</title>
<path fill="none" stroke="midnightblue" d="M269.39,-272.06C222.41,-265.72 165.12,-251.69 122.5,-221 75.91,-187.45 47.46,-122.65 35.74,-90.92"/>
<polygon fill="midnightblue" stroke="midnightblue" points="38.92,-89.43 32.28,-81.18 32.33,-91.77 38.92,-89.43"/>
</g>
<!-- Node3 -->
<g id="node3" class="node">
<title>Node3</title>
<g id="a_node3"><a xlink:title=" ">
<polygon fill="none" stroke="#bfbfbf" points="510.5,-62 510.5,-81 562.5,-81 562.5,-62 510.5,-62"/>
<text text-anchor="middle" x="536.5" y="-69" font-family="Helvetica,sans-Serif" font-size="10.00">memory</text>
</a>
</g>
</g>
<!-- Node1&#45;&gt;Node3 -->
<g id="edge2" class="edge">
<title>Node1&#45;&gt;Node3</title>
<path fill="none" stroke="midnightblue" d="M439.77,-269.1C503.53,-261.22 583.09,-246.52 603.5,-221 637.26,-178.81 583.32,-116.89 553.77,-88.18"/>
<polygon fill="midnightblue" stroke="midnightblue" points="555.85,-85.33 546.18,-81.01 551.05,-90.42 555.85,-85.33"/>
</g>
<!-- Node4 -->
<g id="node4" class="node">
<title>Node4</title>
<g id="a_node4"><a xlink:title=" ">
<polygon fill="none" stroke="#bfbfbf" points="142.5,-196 142.5,-215 192.5,-215 192.5,-196 142.5,-196"/>
<text text-anchor="middle" x="167.5" y="-203" font-family="Helvetica,sans-Serif" font-size="10.00">optional</text>
</a>
</g>
</g>
<!-- Node1&#45;&gt;Node4 -->
<g id="edge3" class="edge">
<title>Node1&#45;&gt;Node4</title>
<path fill="none" stroke="midnightblue" d="M299,-257.47C269.84,-247.02 233.59,-233.7 201.5,-221 199.9,-220.37 198.26,-219.71 196.61,-219.03"/>
<polygon fill="midnightblue" stroke="midnightblue" points="197.78,-215.73 187.2,-215.11 195.09,-222.19 197.78,-215.73"/>
</g>
<!-- Node5 -->
<g id="node5" class="node">
<title>Node5</title>
<g id="a_node5"><a xlink:title=" ">
<polygon fill="none" stroke="#bfbfbf" points="127,-129 127,-148 168,-148 168,-129 127,-129"/>
<text text-anchor="middle" x="147.5" y="-136" font-family="Helvetica,sans-Serif" font-size="10.00">string</text>
</a>
</g>
</g>
<!-- Node1&#45;&gt;Node5 -->
<g id="edge4" class="edge">
<title>Node1&#45;&gt;Node5</title>
<path fill="none" stroke="midnightblue" d="M269.39,-266.3C214.56,-257.46 150.46,-242.79 133.5,-221 119.28,-202.73 128.53,-175.14 137.32,-157.22"/>
<polygon fill="midnightblue" stroke="midnightblue" points="140.54,-158.63 142.14,-148.16 134.36,-155.35 140.54,-158.63"/>
</g>
<!-- Node6 -->
<g id="node6" class="node">
<title>Node6</title>
<g id="a_node6"><a xlink:title=" ">
<polygon fill="none" stroke="#bfbfbf" points="381,-196 381,-215 464,-215 464,-196 381,-196"/>
<text text-anchor="middle" x="422.5" y="-203" font-family="Helvetica,sans-Serif" font-size="10.00">unordered_map</text>
</a>
</g>
</g>
<!-- Node1&#45;&gt;Node6 -->
<g id="edge5" class="edge">
<title>Node1&#45;&gt;Node6</title>
<path fill="none" stroke="midnightblue" d="M373.44,-257.36C383.98,-246.43 396.95,-232.99 406.9,-222.67"/>
<polygon fill="midnightblue" stroke="midnightblue" points="409.71,-224.8 414.13,-215.17 404.67,-219.94 409.71,-224.8"/>
</g>
<!-- Node7 -->
<g id="node7" class="node">
<title>Node7</title>
<g id="a_node7"><a xlink:title=" ">
<polygon fill="none" stroke="#bfbfbf" points="459.5,-129 459.5,-148 503.5,-148 503.5,-129 459.5,-129"/>
<text text-anchor="middle" x="481.5" y="-136" font-family="Helvetica,sans-Serif" font-size="10.00">vector</text>
</a>
</g>
</g>
<!-- Node1&#45;&gt;Node7 -->
<g id="edge6" class="edge">
<title>Node1&#45;&gt;Node7</title>
<path fill="none" stroke="midnightblue" d="M426.33,-257.37C444.44,-249.03 461.98,-237.33 473.5,-221 486.47,-202.62 486.46,-175.82 484.56,-158.03"/>
<polygon fill="midnightblue" stroke="midnightblue" points="488.02,-157.49 483.2,-148.05 481.09,-158.43 488.02,-157.49"/>
</g>
<!-- Node8 -->
<g id="node8" class="node">
<title>Node8</title>
<g id="a_node8"><a xlink:title=" ">
<polygon fill="none" stroke="#bfbfbf" points="521,-196 521,-215 594,-215 594,-196 521,-196"/>
<text text-anchor="middle" x="557.5" y="-203" font-family="Helvetica,sans-Serif" font-size="10.00">Eigen/Dense</text>
</a>
</g>
</g>
<!-- Node1&#45;&gt;Node8 -->
<g id="edge7" class="edge">
<title>Node1&#45;&gt;Node8</title>
<path fill="none" stroke="midnightblue" d="M410.78,-257.46C446.83,-244.93 492.45,-229.09 523.18,-218.42"/>
<polygon fill="midnightblue" stroke="midnightblue" points="524.69,-221.6 532.99,-215.01 522.39,-214.99 524.69,-221.6"/>
</g>
<!-- Node9 -->
<g id="node9" class="node">
<title>Node9</title>
<g id="a_node9"><a xlink:href="IParametersHandler_8h.html" target="_top" xlink:title=" ">
<polygon fill="none" stroke="black" points="210.5,-190.5 210.5,-220.5 362.5,-220.5 362.5,-190.5 210.5,-190.5"/>
<text text-anchor="start" x="218.5" y="-208.5" font-family="Helvetica,sans-Serif" font-size="10.00">BipedalLocomotion/Parameters</text>
<text text-anchor="middle" x="286.5" y="-197.5" font-family="Helvetica,sans-Serif" font-size="10.00">Handler/IParametersHandler.h</text>
</a>
</g>
</g>
<!-- Node1&#45;&gt;Node9 -->
<g id="edge8" class="edge">
<title>Node1&#45;&gt;Node9</title>
<path fill="none" stroke="midnightblue" d="M335.56,-257.36C326.84,-248.32 316.46,-237.57 307.51,-228.28"/>
<polygon fill="midnightblue" stroke="midnightblue" points="309.84,-225.66 300.38,-220.89 304.8,-230.52 309.84,-225.66"/>
</g>
<!-- Node9&#45;&gt;Node3 -->
<g id="edge9" class="edge">
<title>Node9&#45;&gt;Node3</title>
<path fill="none" stroke="midnightblue" d="M316.45,-190.31C337.11,-180.4 365.14,-166.72 389.5,-154 433.43,-131.07 483.76,-102.7 512.67,-86.2"/>
<polygon fill="midnightblue" stroke="midnightblue" points="514.67,-89.09 521.61,-81.08 511.19,-83.01 514.67,-89.09"/>
</g>
<!-- Node9&#45;&gt;Node5 -->
<g id="edge10" class="edge">
<title>Node9&#45;&gt;Node5</title>
<path fill="none" stroke="midnightblue" d="M256.34,-190.4C232.06,-179.04 198.22,-163.22 174.75,-152.24"/>
<polygon fill="midnightblue" stroke="midnightblue" points="176.23,-149.07 165.69,-148.01 173.27,-155.41 176.23,-149.07"/>
</g>
<!-- Node9&#45;&gt;Node7 -->
<g id="edge11" class="edge">
<title>Node9&#45;&gt;Node7</title>
<path fill="none" stroke="midnightblue" d="M331.73,-190.42C362.96,-180.56 405.39,-166.9 442.5,-154 444.89,-153.17 447.35,-152.3 449.83,-151.41"/>
<polygon fill="midnightblue" stroke="midnightblue" points="451.1,-154.67 459.29,-147.95 448.69,-148.09 451.1,-154.67"/>
</g>
<!-- Node10 -->
<g id="node10" class="node">
<title>Node10</title>
<g id="a_node10"><a xlink:href="Vector_8h_source.html" target="_top" xlink:title=" ">
<polygon fill="none" stroke="black" points="218.5,-123.5 218.5,-153.5 354.5,-153.5 354.5,-123.5 218.5,-123.5"/>
<text text-anchor="start" x="226.5" y="-141.5" font-family="Helvetica,sans-Serif" font-size="10.00">BipedalLocomotion/Generic</text>
<text text-anchor="middle" x="286.5" y="-130.5" font-family="Helvetica,sans-Serif" font-size="10.00">Container/Vector.h</text>
</a>
</g>
</g>
<!-- Node9&#45;&gt;Node10 -->
<g id="edge12" class="edge">
<title>Node9&#45;&gt;Node10</title>
<path fill="none" stroke="midnightblue" d="M286.5,-190.4C286.5,-182.64 286.5,-172.81 286.5,-163.86"/>
<polygon fill="midnightblue" stroke="midnightblue" points="290,-163.58 286.5,-153.58 283,-163.58 290,-163.58"/>
</g>
<!-- Node12 -->
<g id="node12" class="node">
<title>Node12</title>
<g id="a_node12"><a xlink:href="TemplateHelpers_8h_source.html" target="_top" xlink:title=" ">
<polygon fill="none" stroke="black" points="349,-56.5 349,-86.5 492,-86.5 492,-56.5 349,-56.5"/>
<text text-anchor="start" x="357" y="-74.5" font-family="Helvetica,sans-Serif" font-size="10.00">BipedalLocomotion/Generic</text>
<text text-anchor="middle" x="420.5" y="-63.5" font-family="Helvetica,sans-Serif" font-size="10.00">Container/TemplateHelpers.h</text>
</a>
</g>
</g>
<!-- Node9&#45;&gt;Node12 -->
<g id="edge22" class="edge">
<title>Node9&#45;&gt;Node12</title>
<path fill="none" stroke="midnightblue" d="M313.26,-190.36C328.96,-181.27 348.59,-168.47 363.5,-154 381.38,-136.65 397.21,-112.97 407.62,-95.6"/>
<polygon fill="midnightblue" stroke="midnightblue" points="410.81,-97.09 412.83,-86.69 404.76,-93.56 410.81,-97.09"/>
</g>
<!-- Node10&#45;&gt;Node2 -->
<g id="edge18" class="edge">
<title>Node10&#45;&gt;Node2</title>
<path fill="none" stroke="midnightblue" d="M218.15,-124.02C174.89,-114.91 117.99,-101.86 68.5,-87 65.93,-86.23 63.28,-85.37 60.64,-84.48"/>
<polygon fill="midnightblue" stroke="midnightblue" points="61.79,-81.18 51.2,-81.13 59.45,-87.77 61.79,-81.18"/>
</g>
<!-- Node10&#45;&gt;Node3 -->
<g id="edge21" class="edge">
<title>Node10&#45;&gt;Node3</title>
<path fill="none" stroke="midnightblue" d="M354.57,-124.46C397.25,-115.56 453.15,-102.58 501.5,-87 503.64,-86.31 505.82,-85.55 508.01,-84.74"/>
<polygon fill="midnightblue" stroke="midnightblue" points="509.42,-87.95 517.45,-81.05 506.87,-81.44 509.42,-87.95"/>
</g>
<!-- Node11 -->
<g id="node11" class="node">
<title>Node11</title>
<g id="a_node11"><a xlink:title=" ">
<polygon fill="none" stroke="#bfbfbf" points="149.5,-62 149.5,-81 263.5,-81 263.5,-62 149.5,-62"/>
<text text-anchor="middle" x="206.5" y="-69" font-family="Helvetica,sans-Serif" font-size="10.00">iDynTree/Core/Span.h</text>
</a>
</g>
</g>
<!-- Node10&#45;&gt;Node11 -->
<g id="edge13" class="edge">
<title>Node10&#45;&gt;Node11</title>
<path fill="none" stroke="midnightblue" d="M269.14,-123.4C256.17,-112.86 238.47,-98.48 225.19,-87.69"/>
<polygon fill="midnightblue" stroke="midnightblue" points="227.17,-84.78 217.2,-81.19 222.76,-90.22 227.17,-84.78"/>
</g>
<!-- Node10&#45;&gt;Node12 -->
<g id="edge14" class="edge">
<title>Node10&#45;&gt;Node12</title>
<path fill="none" stroke="midnightblue" d="M315.58,-123.4C335.15,-113.9 361.18,-101.28 382.41,-90.98"/>
<polygon fill="midnightblue" stroke="midnightblue" points="384.01,-94.09 391.48,-86.58 380.96,-87.79 384.01,-94.09"/>
</g>
<!-- Node16 -->
<g id="node16" class="node">
<title>Node16</title>
<g id="a_node16"><a xlink:title=" ">
<polygon fill="none" stroke="#bfbfbf" points="282,-62 282,-81 331,-81 331,-62 282,-62"/>
<text text-anchor="middle" x="306.5" y="-69" font-family="Helvetica,sans-Serif" font-size="10.00">cassert</text>
</a>
</g>
</g>
<!-- Node10&#45;&gt;Node16 -->
<g id="edge19" class="edge">
<title>Node10&#45;&gt;Node16</title>
<path fill="none" stroke="midnightblue" d="M290.84,-123.4C293.77,-113.86 297.67,-101.18 300.85,-90.86"/>
<polygon fill="midnightblue" stroke="midnightblue" points="304.23,-91.78 303.82,-81.19 297.54,-89.72 304.23,-91.78"/>
</g>
<!-- Node17 -->
<g id="node17" class="node">
<title>Node17</title>
<g id="a_node17"><a xlink:title=" ">
<polygon fill="none" stroke="#bfbfbf" points="77.5,-62 77.5,-81 131.5,-81 131.5,-62 77.5,-62"/>
<text text-anchor="middle" x="104.5" y="-69" font-family="Helvetica,sans-Serif" font-size="10.00">iostream</text>
</a>
</g>
</g>
<!-- Node10&#45;&gt;Node17 -->
<g id="edge20" class="edge">
<title>Node10&#45;&gt;Node17</title>
<path fill="none" stroke="midnightblue" d="M244.13,-123.47C214.88,-113.63 175.17,-99.97 140.5,-87 138.65,-86.31 136.76,-85.59 134.85,-84.85"/>
<polygon fill="midnightblue" stroke="midnightblue" points="135.96,-81.52 125.37,-81.11 133.39,-88.04 135.96,-81.52"/>
</g>
<!-- Node13 -->
<g id="node13" class="node">
<title>Node13</title>
<g id="a_node13"><a xlink:title=" ">
<polygon fill="none" stroke="#bfbfbf" points="307.5,-0.5 307.5,-19.5 369.5,-19.5 369.5,-0.5 307.5,-0.5"/>
<text text-anchor="middle" x="338.5" y="-7.5" font-family="Helvetica,sans-Serif" font-size="10.00">type_traits</text>
</a>
</g>
</g>
<!-- Node12&#45;&gt;Node13 -->
<g id="edge15" class="edge">
<title>Node12&#45;&gt;Node13</title>
<path fill="none" stroke="midnightblue" d="M401.07,-56.4C388.29,-47.13 371.61,-35.03 358.69,-25.65"/>
<polygon fill="midnightblue" stroke="midnightblue" points="360.58,-22.7 350.43,-19.66 356.47,-28.36 360.58,-22.7"/>
</g>
<!-- Node14 -->
<g id="node14" class="node">
<title>Node14</title>
<g id="a_node14"><a xlink:title=" ">
<polygon fill="none" stroke="#bfbfbf" points="387.5,-0.5 387.5,-19.5 453.5,-19.5 453.5,-0.5 387.5,-0.5"/>
<text text-anchor="middle" x="420.5" y="-7.5" font-family="Helvetica,sans-Serif" font-size="10.00">string_view</text>
</a>
</g>
</g>
<!-- Node12&#45;&gt;Node14 -->
<g id="edge16" class="edge">
<title>Node12&#45;&gt;Node14</title>
<path fill="none" stroke="midnightblue" d="M420.5,-56.4C420.5,-48.47 420.5,-38.46 420.5,-29.86"/>
<polygon fill="midnightblue" stroke="midnightblue" points="424,-29.66 420.5,-19.66 417,-29.66 424,-29.66"/>
</g>
<!-- Node15 -->
<g id="node15" class="node">
<title>Node15</title>
<g id="a_node15"><a xlink:title=" ">
<polygon fill="none" stroke="#bfbfbf" points="472,-0.5 472,-19.5 537,-19.5 537,-0.5 472,-0.5"/>
<text text-anchor="middle" x="504.5" y="-7.5" font-family="Helvetica,sans-Serif" font-size="10.00">Eigen/Core</text>
</a>
</g>
</g>
<!-- Node12&#45;&gt;Node15 -->
<g id="edge17" class="edge">
<title>Node12&#45;&gt;Node15</title>
<path fill="none" stroke="midnightblue" d="M440.41,-56.4C453.49,-47.13 470.58,-35.03 483.82,-25.65"/>
<polygon fill="midnightblue" stroke="midnightblue" points="486.14,-28.29 492.28,-19.66 482.09,-22.58 486.14,-28.29"/>
</g>
</g>
</svg>
        <g id="navigator" transform="translate(0 0)" fill="#404254">
                <rect fill="#f2f5e9" fill-opacity="0.5" stroke="#606060" stroke-width=".5" x="0" y="0" width="60" height="60"/>
                <use id="zoomplus" xlink:href="#zoomPlus" x="17" y="9" onmousedown="handleZoom(evt,'in')"/>
                <use id="zoomminus" xlink:href="#zoomMin" x="42" y="9" onmousedown="handleZoom(evt,'out')"/>
                <use id="reset" xlink:href="#resetDef" x="30" y="36" onmousedown="handleReset()"/>
                <g id="arrowUp" xlink:href="#dirArrow" transform="translate(30 24)" onmousedown="handlePan(0,-1)">
                  <use xlink:href="#rim" fill="#404040">
                        <set attributeName="fill" to="#808080" begin="arrowUp.mouseover" end="arrowUp.mouseout"/>
                  </use>
                  <path fill="none" stroke="white" stroke-width="1.5" d="M0,-3.0v7 M-2.5,-0.5L0,-3.0L2.5,-0.5"/>
                </g>
                <g id="arrowRight" xlink:href="#dirArrow" transform="rotate(90) translate(36 -43)" onmousedown="handlePan(1,0)">
                  <use xlink:href="#rim" fill="#404040">
                        <set attributeName="fill" to="#808080" begin="arrowRight.mouseover" end="arrowRight.mouseout"/>
                  </use>
                  <path fill="none" stroke="white" stroke-width="1.5" d="M0,-3.0v7 M-2.5,-0.5L0,-3.0L2.5,-0.5"/>
                </g>
                <g id="arrowDown" xlink:href="#dirArrow" transform="rotate(180) translate(-30 -48)" onmousedown="handlePan(0,1)">
                  <use xlink:href="#rim" fill="#404040">
                        <set attributeName="fill" to="#808080" begin="arrowDown.mouseover" end="arrowDown.mouseout"/>
                  </use>
                  <path fill="none" stroke="white" stroke-width="1.5" d="M0,-3.0v7 M-2.5,-0.5L0,-3.0L2.5,-0.5"/>
                </g>
                <g id="arrowLeft" xlink:href="#dirArrow" transform="rotate(270) translate(-36 17)" onmousedown="handlePan(-1,0)">
                  <use xlink:href="#rim" fill="#404040">
                        <set attributeName="fill" to="#808080" begin="arrowLeft.mouseover" end="arrowLeft.mouseout"/>
                  </use>
                  <path fill="none" stroke="white" stroke-width="1.5" d="M0,-3.0v7 M-2.5,-0.5L0,-3.0L2.5,-0.5"/>
                </g>
        </g>
        <svg viewBox="0 0 15 15" width="100%" height="30px" preserveAspectRatio="xMaxYMin meet">
         <g id="arrow_out" transform="scale(0.3 0.3)">
          <a xlink:href="ISensorBridge_8h__incl_org.svg" target="_base">
           <rect id="button" ry="5" rx="5" y="6" x="6" height="38" width="38"
                fill="#f2f5e9" fill-opacity="0.5" stroke="#606060" stroke-width="1.0"/>
           <path id="arrow"
             d="M 11.500037,31.436501 C 11.940474,20.09759 22.043105,11.32322 32.158766,21.979434 L 37.068811,17.246167 C 37.068811,17.246167 37.088388,32 37.088388,32 L 22.160133,31.978069 C 22.160133,31.978069 26.997745,27.140456 26.997745,27.140456 C 18.528582,18.264221 13.291696,25.230495 11.500037,31.436501 z"
             style="fill:#404040;"/>
          </a>
         </g>
        </svg>
</svg>
