<?xml version="1.0" encoding="UTF-8" standalone="no"?>
<!DOCTYPE svg PUBLIC "-//W3C//DTD SVG 1.1//EN"
 "http://www.w3.org/Graphics/SVG/1.1/DTD/svg11.dtd">
<!-- Generated by graphviz version 2.43.0 (0)
 -->
<!-- Title: IK/src/JointTrackingTask.cpp Pages: 1 -->
<!--zoomable 419 -->
<svg id="main" version="1.1" xmlns="http://www.w3.org/2000/svg" xmlns:xlink="http://www.w3.org/1999/xlink" xml:space="preserve" onload="init(evt)">
<style type="text/css"><![CDATA[
.edge:hover path { stroke: red; }
.edge:hover polygon { stroke: red; fill: red; }
]]></style>
<script type="text/javascript"><![CDATA[
var edges = document.getElementsByTagName('g');
if (edges && edges.length) {
  for (var i=0;i<edges.length;i++) {
    if (edges[i].id.substr(0,4)=='edge') {
      edges[i].setAttribute('class','edge');
    }
  }
}
]]></script>
        <defs>
                <circle id="rim" cx="0" cy="0" r="7"/>
                <circle id="rim2" cx="0" cy="0" r="3.5"/>
                <g id="zoomPlus">
                        <use xlink:href="#rim" fill="#404040">
                                <set attributeName="fill" to="#808080" begin="zoomplus.mouseover" end="zoomplus.mouseout"/>
                        </use>
                        <path d="M-4,0h8M0,-4v8" fill="none" stroke="white" stroke-width="1.5" pointer-events="none"/>
                </g>
                <g id="zoomMin">
                        <use xlink:href="#rim" fill="#404040">
                                <set attributeName="fill" to="#808080" begin="zoomminus.mouseover" end="zoomminus.mouseout"/>
                        </use>
                        <path d="M-4,0h8" fill="none" stroke="white" stroke-width="1.5" pointer-events="none"/>
                </g>
                <g id="dirArrow">
                        <path fill="none" stroke="white" stroke-width="1.5" d="M0,-3.0v7 M-2.5,-0.5L0,-3.0L2.5,-0.5"/>
                </g>
               <g id="resetDef">
                       <use xlink:href="#rim2" fill="#404040">
                               <set attributeName="fill" to="#808080" begin="reset.mouseover" end="reset.mouseout"/>
                       </use>
               </g>
        </defs>

<script type="text/javascript">
var viewWidth = 770;
var viewHeight = 419;
var sectionId = 'dynsection-0';
</script>
<script xlink:href="svgpan.js"/>
<svg id="graph" class="graph">
<g id="viewport">
<title>IK/src/JointTrackingTask.cpp</title>
<!-- Node1 -->
<g id="node1" class="node">
<title>Node1</title>
<g id="a_node1"><a xlink:title=" ">
<polygon fill="#bfbfbf" stroke="black" points="379.83,-391.5 379.83,-410.5 523.83,-410.5 523.83,-391.5 379.83,-391.5"/>
<text text-anchor="middle" x="451.83" y="-398.5" font-family="Helvetica,sans-Serif" font-size="10.00">IK/src/JointTrackingTask.cpp</text>
</a>
</g>
</g>
<!-- Node2 -->
<g id="node2" class="node">
<title>Node2</title>
<g id="a_node2"><a xlink:href="JointTrackingTask_8h.html" target="_top" xlink:title=" ">
<polygon fill="none" stroke="black" points="206.83,-324.5 206.83,-354.5 318.83,-354.5 318.83,-324.5 206.83,-324.5"/>
<text text-anchor="start" x="214.83" y="-342.5" font-family="Helvetica,sans-Serif" font-size="10.00">BipedalLocomotion/IK</text>
<text text-anchor="middle" x="262.83" y="-331.5" font-family="Helvetica,sans-Serif" font-size="10.00">/JointTrackingTask.h</text>
</a>
</g>
</g>
<!-- Node1&#45;&gt;Node2 -->
<g id="edge1" class="edge">
<title>Node1&#45;&gt;Node2</title>
<path fill="none" stroke="midnightblue" d="M424.75,-391.48C396.76,-382.66 352.31,-368.67 317.05,-357.57"/>
<polygon fill="midnightblue" stroke="midnightblue" points="317.97,-354.19 307.38,-354.52 315.86,-360.86 317.97,-354.19"/>
</g>
<!-- Node23 -->
<g id="node23" class="node">
<title>Node23</title>
<g id="a_node23"><a xlink:href="Logger_8h.html" target="_top" xlink:title=" ">
<polygon fill="none" stroke="black" points="374.33,-324.5 374.33,-354.5 529.33,-354.5 529.33,-324.5 374.33,-324.5"/>
<text text-anchor="start" x="382.33" y="-342.5" font-family="Helvetica,sans-Serif" font-size="10.00">BipedalLocomotion/TextLogging</text>
<text text-anchor="middle" x="451.83" y="-331.5" font-family="Helvetica,sans-Serif" font-size="10.00">/Logger.h</text>
</a>
</g>
</g>
<!-- Node1&#45;&gt;Node23 -->
<g id="edge27" class="edge">
<title>Node1&#45;&gt;Node23</title>
<path fill="none" stroke="midnightblue" d="M451.83,-391.48C451.83,-384.47 451.83,-374.19 451.83,-364.7"/>
<polygon fill="midnightblue" stroke="midnightblue" points="455.33,-364.52 451.83,-354.52 448.33,-364.52 455.33,-364.52"/>
</g>
<!-- Node25 -->
<g id="node25" class="node">
<title>Node25</title>
<g id="a_node25"><a xlink:title=" ">
<polygon fill="none" stroke="#bfbfbf" points="547.83,-330 547.83,-349 697.83,-349 697.83,-330 547.83,-330"/>
<text text-anchor="middle" x="622.83" y="-337" font-family="Helvetica,sans-Serif" font-size="10.00">iDynTree/Core/EigenHelpers.h</text>
</a>
</g>
</g>
<!-- Node1&#45;&gt;Node25 -->
<g id="edge29" class="edge">
<title>Node1&#45;&gt;Node25</title>
<path fill="none" stroke="midnightblue" d="M476.33,-391.48C505.79,-381.22 555.41,-363.96 588.63,-352.4"/>
<polygon fill="midnightblue" stroke="midnightblue" points="590.08,-355.6 598.38,-349.01 587.78,-348.99 590.08,-355.6"/>
</g>
<!-- Node3 -->
<g id="node3" class="node">
<title>Node3</title>
<g id="a_node3"><a xlink:title=" ">
<polygon fill="none" stroke="#bfbfbf" points="37.83,-62 37.83,-81 89.83,-81 89.83,-62 37.83,-62"/>
<text text-anchor="middle" x="63.83" y="-69" font-family="Helvetica,sans-Serif" font-size="10.00">memory</text>
</a>
</g>
</g>
<!-- Node2&#45;&gt;Node3 -->
<g id="edge2" class="edge">
<title>Node2&#45;&gt;Node3</title>
<path fill="none" stroke="midnightblue" d="M206.57,-331.6C144.05,-320.51 46.44,-292.17 4.83,-221 -3.34,-207.02 -0.19,-143.92 9.83,-123 16.73,-108.61 29.66,-96.29 41.14,-87.42"/>
<polygon fill="midnightblue" stroke="midnightblue" points="43.48,-90.04 49.51,-81.33 39.36,-84.38 43.48,-90.04"/>
</g>
<!-- Node4 -->
<g id="node4" class="node">
<title>Node4</title>
<g id="a_node4"><a xlink:href="LinearTask_8h.html" target="_top" xlink:title=" ">
<polygon fill="none" stroke="black" points="132.83,-257.5 132.83,-287.5 244.83,-287.5 244.83,-257.5 132.83,-257.5"/>
<text text-anchor="start" x="140.83" y="-275.5" font-family="Helvetica,sans-Serif" font-size="10.00">BipedalLocomotion/IK</text>
<text text-anchor="middle" x="188.83" y="-264.5" font-family="Helvetica,sans-Serif" font-size="10.00">/LinearTask.h</text>
</a>
</g>
</g>
<!-- Node2&#45;&gt;Node4 -->
<g id="edge3" class="edge">
<title>Node2&#45;&gt;Node4</title>
<path fill="none" stroke="midnightblue" d="M246.78,-324.4C236.79,-315.62 223.76,-304.18 212.59,-294.37"/>
<polygon fill="midnightblue" stroke="midnightblue" points="214.68,-291.55 204.86,-287.58 210.06,-296.81 214.68,-291.55"/>
</g>
<!-- Node22 -->
<g id="node22" class="node">
<title>Node22</title>
<g id="a_node22"><a xlink:title=" ">
<polygon fill="none" stroke="#bfbfbf" points="263.33,-257.5 263.33,-287.5 428.33,-287.5 428.33,-257.5 263.33,-257.5"/>
<text text-anchor="start" x="271.33" y="-275.5" font-family="Helvetica,sans-Serif" font-size="10.00">LieGroupControllers</text>
<text text-anchor="middle" x="345.83" y="-264.5" font-family="Helvetica,sans-Serif" font-size="10.00">/ProportionalDerivativeController.h</text>
</a>
</g>
</g>
<!-- Node2&#45;&gt;Node22 -->
<g id="edge26" class="edge">
<title>Node2&#45;&gt;Node22</title>
<path fill="none" stroke="midnightblue" d="M280.84,-324.4C292.26,-315.45 307.22,-303.74 319.91,-293.8"/>
<polygon fill="midnightblue" stroke="midnightblue" points="322.14,-296.5 327.86,-287.58 317.83,-290.99 322.14,-296.5"/>
</g>
<!-- Node4&#45;&gt;Node3 -->
<g id="edge4" class="edge">
<title>Node4&#45;&gt;Node3</title>
<path fill="none" stroke="midnightblue" d="M132.63,-262.21C88.63,-253.66 32.64,-239.51 18.83,-221 -11.68,-180.1 27.59,-118.43 50.09,-89.12"/>
<polygon fill="midnightblue" stroke="midnightblue" points="52.96,-91.12 56.43,-81.12 47.48,-86.77 52.96,-91.12"/>
</g>
<!-- Node5 -->
<g id="node5" class="node">
<title>Node5</title>
<g id="a_node5"><a xlink:title=" ">
<polygon fill="none" stroke="#bfbfbf" points="28.33,-196 28.33,-215 101.33,-215 101.33,-196 28.33,-196"/>
<text text-anchor="middle" x="64.83" y="-203" font-family="Helvetica,sans-Serif" font-size="10.00">Eigen/Dense</text>
</a>
</g>
</g>
<!-- Node4&#45;&gt;Node5 -->
<g id="edge5" class="edge">
<title>Node4&#45;&gt;Node5</title>
<path fill="none" stroke="midnightblue" d="M161.93,-257.4C140.55,-246.19 110.89,-230.64 89.99,-219.69"/>
<polygon fill="midnightblue" stroke="midnightblue" points="91.54,-216.55 81.06,-215.01 88.29,-222.75 91.54,-216.55"/>
</g>
<!-- Node6 -->
<g id="node6" class="node">
<title>Node6</title>
<g id="a_node6"><a xlink:title=" ">
<polygon fill="none" stroke="#bfbfbf" points="119.33,-196 119.33,-215 258.33,-215 258.33,-196 119.33,-196"/>
<text text-anchor="middle" x="188.83" y="-203" font-family="Helvetica,sans-Serif" font-size="10.00">iDynTree/Core/MatrixView.h</text>
</a>
</g>
</g>
<!-- Node4&#45;&gt;Node6 -->
<g id="edge6" class="edge">
<title>Node4&#45;&gt;Node6</title>
<path fill="none" stroke="midnightblue" d="M188.83,-257.4C188.83,-248.06 188.83,-235.71 188.83,-225.52"/>
<polygon fill="midnightblue" stroke="midnightblue" points="192.33,-225.19 188.83,-215.19 185.33,-225.19 192.33,-225.19"/>
</g>
<!-- Node7 -->
<g id="node7" class="node">
<title>Node7</title>
<g id="a_node7"><a xlink:title=" ">
<polygon fill="none" stroke="#bfbfbf" points="276.33,-196 276.33,-215 437.33,-215 437.33,-196 276.33,-196"/>
<text text-anchor="middle" x="356.83" y="-203" font-family="Helvetica,sans-Serif" font-size="10.00">iDynTree/KinDynComputations.h</text>
</a>
</g>
</g>
<!-- Node4&#45;&gt;Node7 -->
<g id="edge7" class="edge">
<title>Node4&#45;&gt;Node7</title>
<path fill="none" stroke="midnightblue" d="M225.29,-257.4C255.15,-245.84 296.98,-229.66 325.4,-218.66"/>
<polygon fill="midnightblue" stroke="midnightblue" points="326.78,-221.88 334.85,-215.01 324.26,-215.35 326.78,-221.88"/>
</g>
<!-- Node8 -->
<g id="node8" class="node">
<title>Node8</title>
<g id="a_node8"><a xlink:href="IParametersHandler_8h.html" target="_top" xlink:title=" ">
<polygon fill="none" stroke="black" points="455.83,-190.5 455.83,-220.5 607.83,-220.5 607.83,-190.5 455.83,-190.5"/>
<text text-anchor="start" x="463.83" y="-208.5" font-family="Helvetica,sans-Serif" font-size="10.00">BipedalLocomotion/Parameters</text>
<text text-anchor="middle" x="531.83" y="-197.5" font-family="Helvetica,sans-Serif" font-size="10.00">Handler/IParametersHandler.h</text>
</a>
</g>
</g>
<!-- Node4&#45;&gt;Node8 -->
<g id="edge8" class="edge">
<title>Node4&#45;&gt;Node8</title>
<path fill="none" stroke="midnightblue" d="M245.17,-258.79C248.1,-258.17 251,-257.57 253.83,-257 317.88,-244.04 390.54,-230.9 445.52,-221.27"/>
<polygon fill="midnightblue" stroke="midnightblue" points="446.32,-224.68 455.57,-219.51 445.12,-217.78 446.32,-224.68"/>
</g>
<!-- Node20 -->
<g id="node20" class="node">
<title>Node20</title>
<g id="a_node20"><a xlink:href="VariablesHandler_8h.html" target="_top" xlink:title=" ">
<polygon fill="none" stroke="black" points="625.83,-190.5 625.83,-220.5 761.83,-220.5 761.83,-190.5 625.83,-190.5"/>
<text text-anchor="start" x="633.83" y="-208.5" font-family="Helvetica,sans-Serif" font-size="10.00">BipedalLocomotion/System</text>
<text text-anchor="middle" x="693.83" y="-197.5" font-family="Helvetica,sans-Serif" font-size="10.00">/VariablesHandler.h</text>
</a>
</g>
</g>
<!-- Node4&#45;&gt;Node20 -->
<g id="edge23" class="edge">
<title>Node4&#45;&gt;Node20</title>
<path fill="none" stroke="midnightblue" d="M245.12,-258.51C248.06,-257.97 250.98,-257.46 253.83,-257 410.63,-231.83 454.56,-243.52 615.2,-221.15"/>
<polygon fill="midnightblue" stroke="midnightblue" points="616.04,-224.57 625.45,-219.7 615.06,-217.63 616.04,-224.57"/>
</g>
<!-- Node8&#45;&gt;Node3 -->
<g id="edge9" class="edge">
<title>Node8&#45;&gt;Node3</title>
<path fill="none" stroke="midnightblue" d="M455.77,-190.51C394.64,-179 313.87,-163.16 281.83,-154 212.75,-134.24 134.44,-102.61 93.07,-85.13"/>
<polygon fill="midnightblue" stroke="midnightblue" points="94.19,-81.8 83.61,-81.11 91.45,-88.24 94.19,-81.8"/>
</g>
<!-- Node9 -->
<g id="node9" class="node">
<title>Node9</title>
<g id="a_node9"><a xlink:title=" ">
<polygon fill="none" stroke="#bfbfbf" points="577.33,-129 577.33,-148 618.33,-148 618.33,-129 577.33,-129"/>
<text text-anchor="middle" x="597.83" y="-136" font-family="Helvetica,sans-Serif" font-size="10.00">string</text>
</a>
</g>
</g>
<!-- Node8&#45;&gt;Node9 -->
<g id="edge10" class="edge">
<title>Node8&#45;&gt;Node9</title>
<path fill="none" stroke="midnightblue" d="M546.15,-190.4C556.65,-180.06 570.9,-166.02 581.78,-155.31"/>
<polygon fill="midnightblue" stroke="midnightblue" points="584.34,-157.71 589,-148.19 579.42,-152.72 584.34,-157.71"/>
</g>
<!-- Node10 -->
<g id="node10" class="node">
<title>Node10</title>
<g id="a_node10"><a xlink:title=" ">
<polygon fill="none" stroke="#bfbfbf" points="290.83,-129 290.83,-148 334.83,-148 334.83,-129 290.83,-129"/>
<text text-anchor="middle" x="312.83" y="-136" font-family="Helvetica,sans-Serif" font-size="10.00">vector</text>
</a>
</g>
</g>
<!-- Node8&#45;&gt;Node10 -->
<g id="edge11" class="edge">
<title>Node8&#45;&gt;Node10</title>
<path fill="none" stroke="midnightblue" d="M468.74,-190.48C431.84,-181.56 384.63,-168.89 343.83,-154 342.22,-153.41 340.58,-152.77 338.93,-152.1"/>
<polygon fill="midnightblue" stroke="midnightblue" points="340.22,-148.84 329.66,-148.02 337.41,-155.25 340.22,-148.84"/>
</g>
<!-- Node11 -->
<g id="node11" class="node">
<title>Node11</title>
<g id="a_node11"><a xlink:href="Vector_8h_source.html" target="_top" xlink:title=" ">
<polygon fill="none" stroke="black" points="352.83,-123.5 352.83,-153.5 488.83,-153.5 488.83,-123.5 352.83,-123.5"/>
<text text-anchor="start" x="360.83" y="-141.5" font-family="Helvetica,sans-Serif" font-size="10.00">BipedalLocomotion/Generic</text>
<text text-anchor="middle" x="420.83" y="-130.5" font-family="Helvetica,sans-Serif" font-size="10.00">Container/Vector.h</text>
</a>
</g>
</g>
<!-- Node8&#45;&gt;Node11 -->
<g id="edge12" class="edge">
<title>Node8&#45;&gt;Node11</title>
<path fill="none" stroke="midnightblue" d="M507.75,-190.4C491.89,-181.11 470.94,-168.84 453.58,-158.67"/>
<polygon fill="midnightblue" stroke="midnightblue" points="455.27,-155.61 444.87,-153.58 451.73,-161.65 455.27,-155.61"/>
</g>
<!-- Node13 -->
<g id="node13" class="node">
<title>Node13</title>
<g id="a_node13"><a xlink:href="TemplateHelpers_8h_source.html" target="_top" xlink:title=" ">
<polygon fill="none" stroke="black" points="513.33,-56.5 513.33,-86.5 656.33,-86.5 656.33,-56.5 513.33,-56.5"/>
<text text-anchor="start" x="521.33" y="-74.5" font-family="Helvetica,sans-Serif" font-size="10.00">BipedalLocomotion/Generic</text>
<text text-anchor="middle" x="584.83" y="-63.5" font-family="Helvetica,sans-Serif" font-size="10.00">Container/TemplateHelpers.h</text>
</a>
</g>
</g>
<!-- Node8&#45;&gt;Node13 -->
<g id="edge22" class="edge">
<title>Node8&#45;&gt;Node13</title>
<path fill="none" stroke="midnightblue" d="M537.5,-190.37C546.55,-167.85 564.34,-123.53 575.35,-96.12"/>
<polygon fill="midnightblue" stroke="midnightblue" points="578.72,-97.11 579.2,-86.52 572.23,-94.5 578.72,-97.11"/>
</g>
<!-- Node11&#45;&gt;Node3 -->
<g id="edge21" class="edge">
<title>Node11&#45;&gt;Node3</title>
<path fill="none" stroke="midnightblue" d="M352.82,-124.66C349.78,-124.1 346.78,-123.54 343.83,-123 256.39,-106.88 153.49,-88.46 100.09,-78.95"/>
<polygon fill="midnightblue" stroke="midnightblue" points="100.55,-75.47 90.09,-77.17 99.33,-82.37 100.55,-75.47"/>
</g>
<!-- Node12 -->
<g id="node12" class="node">
<title>Node12</title>
<g id="a_node12"><a xlink:title=" ">
<polygon fill="none" stroke="#bfbfbf" points="163.83,-62 163.83,-81 277.83,-81 277.83,-62 163.83,-62"/>
<text text-anchor="middle" x="220.83" y="-69" font-family="Helvetica,sans-Serif" font-size="10.00">iDynTree/Core/Span.h</text>
</a>
</g>
</g>
<!-- Node11&#45;&gt;Node12 -->
<g id="edge13" class="edge">
<title>Node11&#45;&gt;Node12</title>
<path fill="none" stroke="midnightblue" d="M377.44,-123.4C341.41,-111.69 290.78,-95.23 256.94,-84.23"/>
<polygon fill="midnightblue" stroke="midnightblue" points="257.6,-80.77 247.01,-81.01 255.44,-87.43 257.6,-80.77"/>
</g>
<!-- Node11&#45;&gt;Node13 -->
<g id="edge14" class="edge">
<title>Node11&#45;&gt;Node13</title>
<path fill="none" stroke="midnightblue" d="M456.42,-123.4C480.92,-113.69 513.66,-100.71 539.95,-90.29"/>
<polygon fill="midnightblue" stroke="midnightblue" points="541.31,-93.51 549.32,-86.58 538.73,-87.01 541.31,-93.51"/>
</g>
<!-- Node17 -->
<g id="node17" class="node">
<title>Node17</title>
<g id="a_node17"><a xlink:title=" ">
<polygon fill="none" stroke="#bfbfbf" points="296.33,-62 296.33,-81 355.33,-81 355.33,-62 296.33,-62"/>
<text text-anchor="middle" x="325.83" y="-69" font-family="Helvetica,sans-Serif" font-size="10.00">functional</text>
</a>
</g>
</g>
<!-- Node11&#45;&gt;Node17 -->
<g id="edge18" class="edge">
<title>Node11&#45;&gt;Node17</title>
<path fill="none" stroke="midnightblue" d="M400.22,-123.4C384.44,-112.6 362.75,-97.76 346.86,-86.89"/>
<polygon fill="midnightblue" stroke="midnightblue" points="348.5,-83.77 338.27,-81.01 344.54,-89.54 348.5,-83.77"/>
</g>
<!-- Node18 -->
<g id="node18" class="node">
<title>Node18</title>
<g id="a_node18"><a xlink:title=" ">
<polygon fill="none" stroke="#bfbfbf" points="373.33,-62 373.33,-81 422.33,-81 422.33,-62 373.33,-62"/>
<text text-anchor="middle" x="397.83" y="-69" font-family="Helvetica,sans-Serif" font-size="10.00">cassert</text>
</a>
</g>
</g>
<!-- Node11&#45;&gt;Node18 -->
<g id="edge19" class="edge">
<title>Node11&#45;&gt;Node18</title>
<path fill="none" stroke="midnightblue" d="M415.84,-123.4C412.47,-113.86 407.98,-101.18 404.33,-90.86"/>
<polygon fill="midnightblue" stroke="midnightblue" points="407.54,-89.45 400.91,-81.19 400.95,-91.79 407.54,-89.45"/>
</g>
<!-- Node19 -->
<g id="node19" class="node">
<title>Node19</title>
<g id="a_node19"><a xlink:title=" ">
<polygon fill="none" stroke="#bfbfbf" points="440.83,-62 440.83,-81 494.83,-81 494.83,-62 440.83,-62"/>
<text text-anchor="middle" x="467.83" y="-69" font-family="Helvetica,sans-Serif" font-size="10.00">iostream</text>
</a>
</g>
</g>
<!-- Node11&#45;&gt;Node19 -->
<g id="edge20" class="edge">
<title>Node11&#45;&gt;Node19</title>
<path fill="none" stroke="midnightblue" d="M431.03,-123.4C438.21,-113.46 447.87,-100.11 455.49,-89.57"/>
<polygon fill="midnightblue" stroke="midnightblue" points="458.52,-91.35 461.55,-81.19 452.85,-87.25 458.52,-91.35"/>
</g>
<!-- Node14 -->
<g id="node14" class="node">
<title>Node14</title>
<g id="a_node14"><a xlink:title=" ">
<polygon fill="none" stroke="#bfbfbf" points="471.83,-0.5 471.83,-19.5 533.83,-19.5 533.83,-0.5 471.83,-0.5"/>
<text text-anchor="middle" x="502.83" y="-7.5" font-family="Helvetica,sans-Serif" font-size="10.00">type_traits</text>
</a>
</g>
</g>
<!-- Node13&#45;&gt;Node14 -->
<g id="edge15" class="edge">
<title>Node13&#45;&gt;Node14</title>
<path fill="none" stroke="midnightblue" d="M565.4,-56.4C552.62,-47.13 535.94,-35.03 523.02,-25.65"/>
<polygon fill="midnightblue" stroke="midnightblue" points="524.91,-22.7 514.76,-19.66 520.8,-28.36 524.91,-22.7"/>
</g>
<!-- Node15 -->
<g id="node15" class="node">
<title>Node15</title>
<g id="a_node15"><a xlink:title=" ">
<polygon fill="none" stroke="#bfbfbf" points="551.83,-0.5 551.83,-19.5 617.83,-19.5 617.83,-0.5 551.83,-0.5"/>
<text text-anchor="middle" x="584.83" y="-7.5" font-family="Helvetica,sans-Serif" font-size="10.00">string_view</text>
</a>
</g>
</g>
<!-- Node13&#45;&gt;Node15 -->
<g id="edge16" class="edge">
<title>Node13&#45;&gt;Node15</title>
<path fill="none" stroke="midnightblue" d="M584.83,-56.4C584.83,-48.47 584.83,-38.46 584.83,-29.86"/>
<polygon fill="midnightblue" stroke="midnightblue" points="588.33,-29.66 584.83,-19.66 581.33,-29.66 588.33,-29.66"/>
</g>
<!-- Node16 -->
<g id="node16" class="node">
<title>Node16</title>
<g id="a_node16"><a xlink:title=" ">
<polygon fill="none" stroke="#bfbfbf" points="636.33,-0.5 636.33,-19.5 701.33,-19.5 701.33,-0.5 636.33,-0.5"/>
<text text-anchor="middle" x="668.83" y="-7.5" font-family="Helvetica,sans-Serif" font-size="10.00">Eigen/Core</text>
</a>
</g>
</g>
<!-- Node13&#45;&gt;Node16 -->
<g id="edge17" class="edge">
<title>Node13&#45;&gt;Node16</title>
<path fill="none" stroke="midnightblue" d="M604.74,-56.4C617.83,-47.13 634.91,-35.03 648.15,-25.65"/>
<polygon fill="midnightblue" stroke="midnightblue" points="650.47,-28.29 656.61,-19.66 646.43,-22.58 650.47,-28.29"/>
</g>
<!-- Node20&#45;&gt;Node9 -->
<g id="edge24" class="edge">
<title>Node20&#45;&gt;Node9</title>
<path fill="none" stroke="midnightblue" d="M673,-190.4C657.05,-179.6 635.13,-164.76 619.08,-153.89"/>
<polygon fill="midnightblue" stroke="midnightblue" points="620.64,-150.72 610.4,-148.01 616.72,-156.51 620.64,-150.72"/>
</g>
<!-- Node21 -->
<g id="node21" class="node">
<title>Node21</title>
<g id="a_node21"><a xlink:title=" ">
<polygon fill="none" stroke="#bfbfbf" points="652.33,-129 652.33,-148 735.33,-148 735.33,-129 652.33,-129"/>
<text text-anchor="middle" x="693.83" y="-136" font-family="Helvetica,sans-Serif" font-size="10.00">unordered_map</text>
</a>
</g>
</g>
<!-- Node20&#45;&gt;Node21 -->
<g id="edge25" class="edge">
<title>Node20&#45;&gt;Node21</title>
<path fill="none" stroke="midnightblue" d="M693.83,-190.4C693.83,-181.06 693.83,-168.71 693.83,-158.52"/>
<polygon fill="midnightblue" stroke="midnightblue" points="697.33,-158.19 693.83,-148.19 690.33,-158.19 697.33,-158.19"/>
</g>
<!-- Node24 -->
<g id="node24" class="node">
<title>Node24</title>
<g id="a_node24"><a xlink:title=" ">
<polygon fill="none" stroke="#bfbfbf" points="446.33,-263 446.33,-282 531.33,-282 531.33,-263 446.33,-263"/>
<text text-anchor="middle" x="488.83" y="-270" font-family="Helvetica,sans-Serif" font-size="10.00">spdlog/spdlog.h</text>
</a>
</g>
</g>
<!-- Node23&#45;&gt;Node24 -->
<g id="edge28" class="edge">
<title>Node23&#45;&gt;Node24</title>
<path fill="none" stroke="midnightblue" d="M459.86,-324.4C465.46,-314.56 472.96,-301.38 478.93,-290.89"/>
<polygon fill="midnightblue" stroke="midnightblue" points="481.98,-292.62 483.88,-282.19 475.89,-289.15 481.98,-292.62"/>
</g>
</g>
</svg>
        <g id="navigator" transform="translate(0 0)" fill="#404254">
                <rect fill="#f2f5e9" fill-opacity="0.5" stroke="#606060" stroke-width=".5" x="0" y="0" width="60" height="60"/>
                <use id="zoomplus" xlink:href="#zoomPlus" x="17" y="9" onmousedown="handleZoom(evt,'in')"/>
                <use id="zoomminus" xlink:href="#zoomMin" x="42" y="9" onmousedown="handleZoom(evt,'out')"/>
                <use id="reset" xlink:href="#resetDef" x="30" y="36" onmousedown="handleReset()"/>
                <g id="arrowUp" xlink:href="#dirArrow" transform="translate(30 24)" onmousedown="handlePan(0,-1)">
                  <use xlink:href="#rim" fill="#404040">
                        <set attributeName="fill" to="#808080" begin="arrowUp.mouseover" end="arrowUp.mouseout"/>
                  </use>
                  <path fill="none" stroke="white" stroke-width="1.5" d="M0,-3.0v7 M-2.5,-0.5L0,-3.0L2.5,-0.5"/>
                </g>
                <g id="arrowRight" xlink:href="#dirArrow" transform="rotate(90) translate(36 -43)" onmousedown="handlePan(1,0)">
                  <use xlink:href="#rim" fill="#404040">
                        <set attributeName="fill" to="#808080" begin="arrowRight.mouseover" end="arrowRight.mouseout"/>
                  </use>
                  <path fill="none" stroke="white" stroke-width="1.5" d="M0,-3.0v7 M-2.5,-0.5L0,-3.0L2.5,-0.5"/>
                </g>
                <g id="arrowDown" xlink:href="#dirArrow" transform="rotate(180) translate(-30 -48)" onmousedown="handlePan(0,1)">
                  <use xlink:href="#rim" fill="#404040">
                        <set attributeName="fill" to="#808080" begin="arrowDown.mouseover" end="arrowDown.mouseout"/>
                  </use>
                  <path fill="none" stroke="white" stroke-width="1.5" d="M0,-3.0v7 M-2.5,-0.5L0,-3.0L2.5,-0.5"/>
                </g>
                <g id="arrowLeft" xlink:href="#dirArrow" transform="rotate(270) translate(-36 17)" onmousedown="handlePan(-1,0)">
                  <use xlink:href="#rim" fill="#404040">
                        <set attributeName="fill" to="#808080" begin="arrowLeft.mouseover" end="arrowLeft.mouseout"/>
                  </use>
                  <path fill="none" stroke="white" stroke-width="1.5" d="M0,-3.0v7 M-2.5,-0.5L0,-3.0L2.5,-0.5"/>
                </g>
        </g>
        <svg viewBox="0 0 15 15" width="100%" height="30px" preserveAspectRatio="xMaxYMin meet">
         <g id="arrow_out" transform="scale(0.3 0.3)">
          <a xlink:href="JointTrackingTask_8cpp__incl_org.svg" target="_base">
           <rect id="button" ry="5" rx="5" y="6" x="6" height="38" width="38"
                fill="#f2f5e9" fill-opacity="0.5" stroke="#606060" stroke-width="1.0"/>
           <path id="arrow"
             d="M 11.500037,31.436501 C 11.940474,20.09759 22.043105,11.32322 32.158766,21.979434 L 37.068811,17.246167 C 37.068811,17.246167 37.088388,32 37.088388,32 L 22.160133,31.978069 C 22.160133,31.978069 26.997745,27.140456 26.997745,27.140456 C 18.528582,18.264221 13.291696,25.230495 11.500037,31.436501 z"
             style="fill:#404040;"/>
          </a>
         </g>
        </svg>
</svg>
