<?xml version="1.0" encoding="UTF-8" standalone="no"?>
<!DOCTYPE svg PUBLIC "-//W3C//DTD SVG 1.1//EN"
 "http://www.w3.org/Graphics/SVG/1.1/DTD/svg11.dtd">
<!-- Generated by graphviz version 2.43.0 (0)
 -->
<!-- Title: IK/include/BipedalLocomotion/IK/JointTrackingTask.h Pages: 1 -->
<!--zoomable 363 -->
<svg id="main" version="1.1" xmlns="http://www.w3.org/2000/svg" xmlns:xlink="http://www.w3.org/1999/xlink" xml:space="preserve" onload="init(evt)">
<style type="text/css"><![CDATA[
.edge:hover path { stroke: red; }
.edge:hover polygon { stroke: red; fill: red; }
]]></style>
<script type="text/javascript"><![CDATA[
var edges = document.getElementsByTagName('g');
if (edges && edges.length) {
  for (var i=0;i<edges.length;i++) {
    if (edges[i].id.substr(0,4)=='edge') {
      edges[i].setAttribute('class','edge');
    }
  }
}
]]></script>
        <defs>
                <circle id="rim" cx="0" cy="0" r="7"/>
                <circle id="rim2" cx="0" cy="0" r="3.5"/>
                <g id="zoomPlus">
                        <use xlink:href="#rim" fill="#404040">
                                <set attributeName="fill" to="#808080" begin="zoomplus.mouseover" end="zoomplus.mouseout"/>
                        </use>
                        <path d="M-4,0h8M0,-4v8" fill="none" stroke="white" stroke-width="1.5" pointer-events="none"/>
                </g>
                <g id="zoomMin">
                        <use xlink:href="#rim" fill="#404040">
                                <set attributeName="fill" to="#808080" begin="zoomminus.mouseover" end="zoomminus.mouseout"/>
                        </use>
                        <path d="M-4,0h8" fill="none" stroke="white" stroke-width="1.5" pointer-events="none"/>
                </g>
                <g id="dirArrow">
                        <path fill="none" stroke="white" stroke-width="1.5" d="M0,-3.0v7 M-2.5,-0.5L0,-3.0L2.5,-0.5"/>
                </g>
               <g id="resetDef">
                       <use xlink:href="#rim2" fill="#404040">
                               <set attributeName="fill" to="#808080" begin="reset.mouseover" end="reset.mouseout"/>
                       </use>
               </g>
        </defs>

<script type="text/javascript">
var viewWidth = 770;
var viewHeight = 363;
var sectionId = 'dynsection-0';
</script>
<script xlink:href="svgpan.js"/>
<svg id="graph" class="graph">
<g id="viewport">
<title>IK/include/BipedalLocomotion/IK/JointTrackingTask.h</title>
<!-- Node1 -->
<g id="node1" class="node">
<title>Node1</title>
<g id="a_node1"><a xlink:title=" ">
<polygon fill="#bfbfbf" stroke="black" points="115.57,-324.5 115.57,-354.5 261.57,-354.5 261.57,-324.5 115.57,-324.5"/>
<text text-anchor="start" x="123.57" y="-342.5" font-family="Helvetica,sans-Serif" font-size="10.00">IK/include/BipedalLocomotion</text>
<text text-anchor="middle" x="188.57" y="-331.5" font-family="Helvetica,sans-Serif" font-size="10.00">/IK/JointTrackingTask.h</text>
</a>
</g>
</g>
<!-- Node2 -->
<g id="node2" class="node">
<title>Node2</title>
<g id="a_node2"><a xlink:title=" ">
<polygon fill="none" stroke="#bfbfbf" points="37.57,-62 37.57,-81 89.57,-81 89.57,-62 37.57,-62"/>
<text text-anchor="middle" x="63.57" y="-69" font-family="Helvetica,sans-Serif" font-size="10.00">memory</text>
</a>
</g>
</g>
<!-- Node1&#45;&gt;Node2 -->
<g id="edge1" class="edge">
<title>Node1&#45;&gt;Node2</title>
<path fill="none" stroke="midnightblue" d="M144.29,-324.39C99.92,-307.6 34.07,-274.85 4.57,-221 -3.37,-206.52 0.06,-142.84 9.57,-123 16.46,-108.61 29.39,-96.29 40.87,-87.42"/>
<polygon fill="midnightblue" stroke="midnightblue" points="43.21,-90.04 49.24,-81.33 39.1,-84.38 43.21,-90.04"/>
</g>
<!-- Node3 -->
<g id="node3" class="node">
<title>Node3</title>
<g id="a_node3"><a xlink:href="LinearTask_8h.html" target="_top" xlink:title=" ">
<polygon fill="none" stroke="black" points="132.57,-257.5 132.57,-287.5 244.57,-287.5 244.57,-257.5 132.57,-257.5"/>
<text text-anchor="start" x="140.57" y="-275.5" font-family="Helvetica,sans-Serif" font-size="10.00">BipedalLocomotion/IK</text>
<text text-anchor="middle" x="188.57" y="-264.5" font-family="Helvetica,sans-Serif" font-size="10.00">/LinearTask.h</text>
</a>
</g>
</g>
<!-- Node1&#45;&gt;Node3 -->
<g id="edge2" class="edge">
<title>Node1&#45;&gt;Node3</title>
<path fill="none" stroke="midnightblue" d="M188.57,-324.4C188.57,-316.64 188.57,-306.81 188.57,-297.86"/>
<polygon fill="midnightblue" stroke="midnightblue" points="192.07,-297.58 188.57,-287.58 185.07,-297.58 192.07,-297.58"/>
</g>
<!-- Node21 -->
<g id="node21" class="node">
<title>Node21</title>
<g id="a_node21"><a xlink:title=" ">
<polygon fill="none" stroke="#bfbfbf" points="263.07,-257.5 263.07,-287.5 428.07,-287.5 428.07,-257.5 263.07,-257.5"/>
<text text-anchor="start" x="271.07" y="-275.5" font-family="Helvetica,sans-Serif" font-size="10.00">LieGroupControllers</text>
<text text-anchor="middle" x="345.57" y="-264.5" font-family="Helvetica,sans-Serif" font-size="10.00">/ProportionalDerivativeController.h</text>
</a>
</g>
</g>
<!-- Node1&#45;&gt;Node21 -->
<g id="edge25" class="edge">
<title>Node1&#45;&gt;Node21</title>
<path fill="none" stroke="midnightblue" d="M222.63,-324.4C245.98,-314.73 277.16,-301.82 302.27,-291.43"/>
<polygon fill="midnightblue" stroke="midnightblue" points="303.67,-294.64 311.57,-287.58 300.99,-288.17 303.67,-294.64"/>
</g>
<!-- Node3&#45;&gt;Node2 -->
<g id="edge3" class="edge">
<title>Node3&#45;&gt;Node2</title>
<path fill="none" stroke="midnightblue" d="M132.37,-262.21C88.37,-253.66 32.38,-239.51 18.57,-221 -11.95,-180.1 27.32,-118.43 49.82,-89.12"/>
<polygon fill="midnightblue" stroke="midnightblue" points="52.7,-91.12 56.17,-81.12 47.21,-86.77 52.7,-91.12"/>
</g>
<!-- Node4 -->
<g id="node4" class="node">
<title>Node4</title>
<g id="a_node4"><a xlink:title=" ">
<polygon fill="none" stroke="#bfbfbf" points="28.07,-196 28.07,-215 101.07,-215 101.07,-196 28.07,-196"/>
<text text-anchor="middle" x="64.57" y="-203" font-family="Helvetica,sans-Serif" font-size="10.00">Eigen/Dense</text>
</a>
</g>
</g>
<!-- Node3&#45;&gt;Node4 -->
<g id="edge4" class="edge">
<title>Node3&#45;&gt;Node4</title>
<path fill="none" stroke="midnightblue" d="M161.66,-257.4C140.29,-246.19 110.62,-230.64 89.72,-219.69"/>
<polygon fill="midnightblue" stroke="midnightblue" points="91.28,-216.55 80.79,-215.01 88.03,-222.75 91.28,-216.55"/>
</g>
<!-- Node5 -->
<g id="node5" class="node">
<title>Node5</title>
<g id="a_node5"><a xlink:title=" ">
<polygon fill="none" stroke="#bfbfbf" points="119.07,-196 119.07,-215 258.07,-215 258.07,-196 119.07,-196"/>
<text text-anchor="middle" x="188.57" y="-203" font-family="Helvetica,sans-Serif" font-size="10.00">iDynTree/Core/MatrixView.h</text>
</a>
</g>
</g>
<!-- Node3&#45;&gt;Node5 -->
<g id="edge5" class="edge">
<title>Node3&#45;&gt;Node5</title>
<path fill="none" stroke="midnightblue" d="M188.57,-257.4C188.57,-248.06 188.57,-235.71 188.57,-225.52"/>
<polygon fill="midnightblue" stroke="midnightblue" points="192.07,-225.19 188.57,-215.19 185.07,-225.19 192.07,-225.19"/>
</g>
<!-- Node6 -->
<g id="node6" class="node">
<title>Node6</title>
<g id="a_node6"><a xlink:title=" ">
<polygon fill="none" stroke="#bfbfbf" points="276.07,-196 276.07,-215 437.07,-215 437.07,-196 276.07,-196"/>
<text text-anchor="middle" x="356.57" y="-203" font-family="Helvetica,sans-Serif" font-size="10.00">iDynTree/KinDynComputations.h</text>
</a>
</g>
</g>
<!-- Node3&#45;&gt;Node6 -->
<g id="edge6" class="edge">
<title>Node3&#45;&gt;Node6</title>
<path fill="none" stroke="midnightblue" d="M225.02,-257.4C254.89,-245.84 296.72,-229.66 325.13,-218.66"/>
<polygon fill="midnightblue" stroke="midnightblue" points="326.52,-221.88 334.58,-215.01 323.99,-215.35 326.52,-221.88"/>
</g>
<!-- Node7 -->
<g id="node7" class="node">
<title>Node7</title>
<g id="a_node7"><a xlink:href="IParametersHandler_8h.html" target="_top" xlink:title=" ">
<polygon fill="none" stroke="black" points="455.57,-190.5 455.57,-220.5 607.57,-220.5 607.57,-190.5 455.57,-190.5"/>
<text text-anchor="start" x="463.57" y="-208.5" font-family="Helvetica,sans-Serif" font-size="10.00">BipedalLocomotion/Parameters</text>
<text text-anchor="middle" x="531.57" y="-197.5" font-family="Helvetica,sans-Serif" font-size="10.00">Handler/IParametersHandler.h</text>
</a>
</g>
</g>
<!-- Node3&#45;&gt;Node7 -->
<g id="edge7" class="edge">
<title>Node3&#45;&gt;Node7</title>
<path fill="none" stroke="midnightblue" d="M244.91,-258.79C247.83,-258.17 250.73,-257.57 253.57,-257 317.61,-244.04 390.28,-230.9 445.25,-221.27"/>
<polygon fill="midnightblue" stroke="midnightblue" points="446.06,-224.68 455.3,-219.51 444.85,-217.78 446.06,-224.68"/>
</g>
<!-- Node19 -->
<g id="node19" class="node">
<title>Node19</title>
<g id="a_node19"><a xlink:href="VariablesHandler_8h.html" target="_top" xlink:title=" ">
<polygon fill="none" stroke="black" points="625.57,-190.5 625.57,-220.5 761.57,-220.5 761.57,-190.5 625.57,-190.5"/>
<text text-anchor="start" x="633.57" y="-208.5" font-family="Helvetica,sans-Serif" font-size="10.00">BipedalLocomotion/System</text>
<text text-anchor="middle" x="693.57" y="-197.5" font-family="Helvetica,sans-Serif" font-size="10.00">/VariablesHandler.h</text>
</a>
</g>
</g>
<!-- Node3&#45;&gt;Node19 -->
<g id="edge22" class="edge">
<title>Node3&#45;&gt;Node19</title>
<path fill="none" stroke="midnightblue" d="M244.86,-258.51C247.8,-257.97 250.71,-257.46 253.57,-257 410.36,-231.83 454.29,-243.52 614.94,-221.15"/>
<polygon fill="midnightblue" stroke="midnightblue" points="615.77,-224.57 625.18,-219.7 614.79,-217.63 615.77,-224.57"/>
</g>
<!-- Node7&#45;&gt;Node2 -->
<g id="edge8" class="edge">
<title>Node7&#45;&gt;Node2</title>
<path fill="none" stroke="midnightblue" d="M455.51,-190.51C394.37,-179 313.6,-163.16 281.57,-154 212.48,-134.24 134.18,-102.61 92.8,-85.13"/>
<polygon fill="midnightblue" stroke="midnightblue" points="93.92,-81.8 83.35,-81.11 91.18,-88.24 93.92,-81.8"/>
</g>
<!-- Node8 -->
<g id="node8" class="node">
<title>Node8</title>
<g id="a_node8"><a xlink:title=" ">
<polygon fill="none" stroke="#bfbfbf" points="577.07,-129 577.07,-148 618.07,-148 618.07,-129 577.07,-129"/>
<text text-anchor="middle" x="597.57" y="-136" font-family="Helvetica,sans-Serif" font-size="10.00">string</text>
</a>
</g>
</g>
<!-- Node7&#45;&gt;Node8 -->
<g id="edge9" class="edge">
<title>Node7&#45;&gt;Node8</title>
<path fill="none" stroke="midnightblue" d="M545.89,-190.4C556.38,-180.06 570.63,-166.02 581.51,-155.31"/>
<polygon fill="midnightblue" stroke="midnightblue" points="584.07,-157.71 588.74,-148.19 579.16,-152.72 584.07,-157.71"/>
</g>
<!-- Node9 -->
<g id="node9" class="node">
<title>Node9</title>
<g id="a_node9"><a xlink:title=" ">
<polygon fill="none" stroke="#bfbfbf" points="290.57,-129 290.57,-148 334.57,-148 334.57,-129 290.57,-129"/>
<text text-anchor="middle" x="312.57" y="-136" font-family="Helvetica,sans-Serif" font-size="10.00">vector</text>
</a>
</g>
</g>
<!-- Node7&#45;&gt;Node9 -->
<g id="edge10" class="edge">
<title>Node7&#45;&gt;Node9</title>
<path fill="none" stroke="midnightblue" d="M468.47,-190.48C431.57,-181.56 384.36,-168.89 343.57,-154 341.95,-153.41 340.31,-152.77 338.67,-152.1"/>
<polygon fill="midnightblue" stroke="midnightblue" points="339.96,-148.84 329.39,-148.02 337.14,-155.25 339.96,-148.84"/>
</g>
<!-- Node10 -->
<g id="node10" class="node">
<title>Node10</title>
<g id="a_node10"><a xlink:href="Vector_8h_source.html" target="_top" xlink:title=" ">
<polygon fill="none" stroke="black" points="352.57,-123.5 352.57,-153.5 488.57,-153.5 488.57,-123.5 352.57,-123.5"/>
<text text-anchor="start" x="360.57" y="-141.5" font-family="Helvetica,sans-Serif" font-size="10.00">BipedalLocomotion/Generic</text>
<text text-anchor="middle" x="420.57" y="-130.5" font-family="Helvetica,sans-Serif" font-size="10.00">Container/Vector.h</text>
</a>
</g>
</g>
<!-- Node7&#45;&gt;Node10 -->
<g id="edge11" class="edge">
<title>Node7&#45;&gt;Node10</title>
<path fill="none" stroke="midnightblue" d="M507.48,-190.4C491.63,-181.11 470.67,-168.84 453.31,-158.67"/>
<polygon fill="midnightblue" stroke="midnightblue" points="455,-155.61 444.6,-153.58 451.47,-161.65 455,-155.61"/>
</g>
<!-- Node12 -->
<g id="node12" class="node">
<title>Node12</title>
<g id="a_node12"><a xlink:href="TemplateHelpers_8h_source.html" target="_top" xlink:title=" ">
<polygon fill="none" stroke="black" points="513.07,-56.5 513.07,-86.5 656.07,-86.5 656.07,-56.5 513.07,-56.5"/>
<text text-anchor="start" x="521.07" y="-74.5" font-family="Helvetica,sans-Serif" font-size="10.00">BipedalLocomotion/Generic</text>
<text text-anchor="middle" x="584.57" y="-63.5" font-family="Helvetica,sans-Serif" font-size="10.00">Container/TemplateHelpers.h</text>
</a>
</g>
</g>
<!-- Node7&#45;&gt;Node12 -->
<g id="edge21" class="edge">
<title>Node7&#45;&gt;Node12</title>
<path fill="none" stroke="midnightblue" d="M537.24,-190.37C546.28,-167.85 564.08,-123.53 575.08,-96.12"/>
<polygon fill="midnightblue" stroke="midnightblue" points="578.46,-97.11 578.93,-86.52 571.96,-94.5 578.46,-97.11"/>
</g>
<!-- Node10&#45;&gt;Node2 -->
<g id="edge20" class="edge">
<title>Node10&#45;&gt;Node2</title>
<path fill="none" stroke="midnightblue" d="M352.55,-124.66C349.52,-124.1 346.51,-123.54 343.57,-123 256.13,-106.88 153.22,-88.46 99.83,-78.95"/>
<polygon fill="midnightblue" stroke="midnightblue" points="100.29,-75.47 89.83,-77.17 99.06,-82.37 100.29,-75.47"/>
</g>
<!-- Node11 -->
<g id="node11" class="node">
<title>Node11</title>
<g id="a_node11"><a xlink:title=" ">
<polygon fill="none" stroke="#bfbfbf" points="163.57,-62 163.57,-81 277.57,-81 277.57,-62 163.57,-62"/>
<text text-anchor="middle" x="220.57" y="-69" font-family="Helvetica,sans-Serif" font-size="10.00">iDynTree/Core/Span.h</text>
</a>
</g>
</g>
<!-- Node10&#45;&gt;Node11 -->
<g id="edge12" class="edge">
<title>Node10&#45;&gt;Node11</title>
<path fill="none" stroke="midnightblue" d="M377.17,-123.4C341.15,-111.69 290.51,-95.23 256.67,-84.23"/>
<polygon fill="midnightblue" stroke="midnightblue" points="257.33,-80.77 246.74,-81.01 255.17,-87.43 257.33,-80.77"/>
</g>
<!-- Node10&#45;&gt;Node12 -->
<g id="edge13" class="edge">
<title>Node10&#45;&gt;Node12</title>
<path fill="none" stroke="midnightblue" d="M456.15,-123.4C480.65,-113.69 513.39,-100.71 539.68,-90.29"/>
<polygon fill="midnightblue" stroke="midnightblue" points="541.04,-93.51 549.05,-86.58 538.46,-87.01 541.04,-93.51"/>
</g>
<!-- Node16 -->
<g id="node16" class="node">
<title>Node16</title>
<g id="a_node16"><a xlink:title=" ">
<polygon fill="none" stroke="#bfbfbf" points="296.07,-62 296.07,-81 355.07,-81 355.07,-62 296.07,-62"/>
<text text-anchor="middle" x="325.57" y="-69" font-family="Helvetica,sans-Serif" font-size="10.00">functional</text>
</a>
</g>
</g>
<!-- Node10&#45;&gt;Node16 -->
<g id="edge17" class="edge">
<title>Node10&#45;&gt;Node16</title>
<path fill="none" stroke="midnightblue" d="M399.95,-123.4C384.17,-112.6 362.48,-97.76 346.59,-86.89"/>
<polygon fill="midnightblue" stroke="midnightblue" points="348.23,-83.77 338,-81.01 344.28,-89.54 348.23,-83.77"/>
</g>
<!-- Node17 -->
<g id="node17" class="node">
<title>Node17</title>
<g id="a_node17"><a xlink:title=" ">
<polygon fill="none" stroke="#bfbfbf" points="373.07,-62 373.07,-81 422.07,-81 422.07,-62 373.07,-62"/>
<text text-anchor="middle" x="397.57" y="-69" font-family="Helvetica,sans-Serif" font-size="10.00">cassert</text>
</a>
</g>
</g>
<!-- Node10&#45;&gt;Node17 -->
<g id="edge18" class="edge">
<title>Node10&#45;&gt;Node17</title>
<path fill="none" stroke="midnightblue" d="M415.58,-123.4C412.2,-113.86 407.72,-101.18 404.06,-90.86"/>
<polygon fill="midnightblue" stroke="midnightblue" points="407.28,-89.45 400.64,-81.19 400.68,-91.79 407.28,-89.45"/>
</g>
<!-- Node18 -->
<g id="node18" class="node">
<title>Node18</title>
<g id="a_node18"><a xlink:title=" ">
<polygon fill="none" stroke="#bfbfbf" points="440.57,-62 440.57,-81 494.57,-81 494.57,-62 440.57,-62"/>
<text text-anchor="middle" x="467.57" y="-69" font-family="Helvetica,sans-Serif" font-size="10.00">iostream</text>
</a>
</g>
</g>
<!-- Node10&#45;&gt;Node18 -->
<g id="edge19" class="edge">
<title>Node10&#45;&gt;Node18</title>
<path fill="none" stroke="midnightblue" d="M430.76,-123.4C437.95,-113.46 447.6,-100.11 455.22,-89.57"/>
<polygon fill="midnightblue" stroke="midnightblue" points="458.26,-91.35 461.28,-81.19 452.58,-87.25 458.26,-91.35"/>
</g>
<!-- Node13 -->
<g id="node13" class="node">
<title>Node13</title>
<g id="a_node13"><a xlink:title=" ">
<polygon fill="none" stroke="#bfbfbf" points="471.57,-0.5 471.57,-19.5 533.57,-19.5 533.57,-0.5 471.57,-0.5"/>
<text text-anchor="middle" x="502.57" y="-7.5" font-family="Helvetica,sans-Serif" font-size="10.00">type_traits</text>
</a>
</g>
</g>
<!-- Node12&#45;&gt;Node13 -->
<g id="edge14" class="edge">
<title>Node12&#45;&gt;Node13</title>
<path fill="none" stroke="midnightblue" d="M565.13,-56.4C552.36,-47.13 535.68,-35.03 522.75,-25.65"/>
<polygon fill="midnightblue" stroke="midnightblue" points="524.65,-22.7 514.5,-19.66 520.54,-28.36 524.65,-22.7"/>
</g>
<!-- Node14 -->
<g id="node14" class="node">
<title>Node14</title>
<g id="a_node14"><a xlink:title=" ">
<polygon fill="none" stroke="#bfbfbf" points="551.57,-0.5 551.57,-19.5 617.57,-19.5 617.57,-0.5 551.57,-0.5"/>
<text text-anchor="middle" x="584.57" y="-7.5" font-family="Helvetica,sans-Serif" font-size="10.00">string_view</text>
</a>
</g>
</g>
<!-- Node12&#45;&gt;Node14 -->
<g id="edge15" class="edge">
<title>Node12&#45;&gt;Node14</title>
<path fill="none" stroke="midnightblue" d="M584.57,-56.4C584.57,-48.47 584.57,-38.46 584.57,-29.86"/>
<polygon fill="midnightblue" stroke="midnightblue" points="588.07,-29.66 584.57,-19.66 581.07,-29.66 588.07,-29.66"/>
</g>
<!-- Node15 -->
<g id="node15" class="node">
<title>Node15</title>
<g id="a_node15"><a xlink:title=" ">
<polygon fill="none" stroke="#bfbfbf" points="636.07,-0.5 636.07,-19.5 701.07,-19.5 701.07,-0.5 636.07,-0.5"/>
<text text-anchor="middle" x="668.57" y="-7.5" font-family="Helvetica,sans-Serif" font-size="10.00">Eigen/Core</text>
</a>
</g>
</g>
<!-- Node12&#45;&gt;Node15 -->
<g id="edge16" class="edge">
<title>Node12&#45;&gt;Node15</title>
<path fill="none" stroke="midnightblue" d="M604.47,-56.4C617.56,-47.13 634.65,-35.03 647.89,-25.65"/>
<polygon fill="midnightblue" stroke="midnightblue" points="650.21,-28.29 656.34,-19.66 646.16,-22.58 650.21,-28.29"/>
</g>
<!-- Node19&#45;&gt;Node8 -->
<g id="edge23" class="edge">
<title>Node19&#45;&gt;Node8</title>
<path fill="none" stroke="midnightblue" d="M672.74,-190.4C656.79,-179.6 634.87,-164.76 618.81,-153.89"/>
<polygon fill="midnightblue" stroke="midnightblue" points="620.37,-150.72 610.13,-148.01 616.45,-156.51 620.37,-150.72"/>
</g>
<!-- Node20 -->
<g id="node20" class="node">
<title>Node20</title>
<g id="a_node20"><a xlink:title=" ">
<polygon fill="none" stroke="#bfbfbf" points="652.07,-129 652.07,-148 735.07,-148 735.07,-129 652.07,-129"/>
<text text-anchor="middle" x="693.57" y="-136" font-family="Helvetica,sans-Serif" font-size="10.00">unordered_map</text>
</a>
</g>
</g>
<!-- Node19&#45;&gt;Node20 -->
<g id="edge24" class="edge">
<title>Node19&#45;&gt;Node20</title>
<path fill="none" stroke="midnightblue" d="M693.57,-190.4C693.57,-181.06 693.57,-168.71 693.57,-158.52"/>
<polygon fill="midnightblue" stroke="midnightblue" points="697.07,-158.19 693.57,-148.19 690.07,-158.19 697.07,-158.19"/>
</g>
</g>
</svg>
        <g id="navigator" transform="translate(0 0)" fill="#404254">
                <rect fill="#f2f5e9" fill-opacity="0.5" stroke="#606060" stroke-width=".5" x="0" y="0" width="60" height="60"/>
                <use id="zoomplus" xlink:href="#zoomPlus" x="17" y="9" onmousedown="handleZoom(evt,'in')"/>
                <use id="zoomminus" xlink:href="#zoomMin" x="42" y="9" onmousedown="handleZoom(evt,'out')"/>
                <use id="reset" xlink:href="#resetDef" x="30" y="36" onmousedown="handleReset()"/>
                <g id="arrowUp" xlink:href="#dirArrow" transform="translate(30 24)" onmousedown="handlePan(0,-1)">
                  <use xlink:href="#rim" fill="#404040">
                        <set attributeName="fill" to="#808080" begin="arrowUp.mouseover" end="arrowUp.mouseout"/>
                  </use>
                  <path fill="none" stroke="white" stroke-width="1.5" d="M0,-3.0v7 M-2.5,-0.5L0,-3.0L2.5,-0.5"/>
                </g>
                <g id="arrowRight" xlink:href="#dirArrow" transform="rotate(90) translate(36 -43)" onmousedown="handlePan(1,0)">
                  <use xlink:href="#rim" fill="#404040">
                        <set attributeName="fill" to="#808080" begin="arrowRight.mouseover" end="arrowRight.mouseout"/>
                  </use>
                  <path fill="none" stroke="white" stroke-width="1.5" d="M0,-3.0v7 M-2.5,-0.5L0,-3.0L2.5,-0.5"/>
                </g>
                <g id="arrowDown" xlink:href="#dirArrow" transform="rotate(180) translate(-30 -48)" onmousedown="handlePan(0,1)">
                  <use xlink:href="#rim" fill="#404040">
                        <set attributeName="fill" to="#808080" begin="arrowDown.mouseover" end="arrowDown.mouseout"/>
                  </use>
                  <path fill="none" stroke="white" stroke-width="1.5" d="M0,-3.0v7 M-2.5,-0.5L0,-3.0L2.5,-0.5"/>
                </g>
                <g id="arrowLeft" xlink:href="#dirArrow" transform="rotate(270) translate(-36 17)" onmousedown="handlePan(-1,0)">
                  <use xlink:href="#rim" fill="#404040">
                        <set attributeName="fill" to="#808080" begin="arrowLeft.mouseover" end="arrowLeft.mouseout"/>
                  </use>
                  <path fill="none" stroke="white" stroke-width="1.5" d="M0,-3.0v7 M-2.5,-0.5L0,-3.0L2.5,-0.5"/>
                </g>
        </g>
        <svg viewBox="0 0 15 15" width="100%" height="30px" preserveAspectRatio="xMaxYMin meet">
         <g id="arrow_out" transform="scale(0.3 0.3)">
          <a xlink:href="JointTrackingTask_8h__incl_org.svg" target="_base">
           <rect id="button" ry="5" rx="5" y="6" x="6" height="38" width="38"
                fill="#f2f5e9" fill-opacity="0.5" stroke="#606060" stroke-width="1.0"/>
           <path id="arrow"
             d="M 11.500037,31.436501 C 11.940474,20.09759 22.043105,11.32322 32.158766,21.979434 L 37.068811,17.246167 C 37.068811,17.246167 37.088388,32 37.088388,32 L 22.160133,31.978069 C 22.160133,31.978069 26.997745,27.140456 26.997745,27.140456 C 18.528582,18.264221 13.291696,25.230495 11.500037,31.436501 z"
             style="fill:#404040;"/>
          </a>
         </g>
        </svg>
</svg>
