<?xml version="1.0" encoding="UTF-8" standalone="no"?>
<!DOCTYPE svg PUBLIC "-//W3C//DTD SVG 1.1//EN"
 "http://www.w3.org/Graphics/SVG/1.1/DTD/svg11.dtd">
<!-- Generated by graphviz version 2.43.0 (0)
 -->
<!-- Title: Estimators/src/LeggedOdometry.cpp Pages: 1 -->
<svg width="1468pt" height="430pt"
 viewBox="0.00 0.00 1467.50 430.00" xmlns="http://www.w3.org/2000/svg" xmlns:xlink="http://www.w3.org/1999/xlink">
<g id="graph0" class="graph" transform="scale(1 1) rotate(0) translate(4 426)">
<title>Estimators/src/LeggedOdometry.cpp</title>
<!-- Node1 -->
<g id="node1" class="node">
<title>Node1</title>
<g id="a_node1"><a xlink:title=" ">
<polygon fill="#bfbfbf" stroke="black" points="1113.5,-402.5 1113.5,-421.5 1288.5,-421.5 1288.5,-402.5 1113.5,-402.5"/>
<text text-anchor="middle" x="1201" y="-409.5" font-family="Helvetica,sans-Serif" font-size="10.00">Estimators/src/LeggedOdometry.cpp</text>
</a>
</g>
</g>
<!-- Node2 -->
<g id="node2" class="node">
<title>Node2</title>
<g id="a_node2"><a xlink:href="LeggedOdometry_8h.html" target="_top" xlink:title=" ">
<polygon fill="none" stroke="black" points="676,-335.5 676,-365.5 846,-365.5 846,-335.5 676,-335.5"/>
<text text-anchor="start" x="684" y="-353.5" font-family="Helvetica,sans-Serif" font-size="10.00">BipedalLocomotion/Floating</text>
<text text-anchor="middle" x="761" y="-342.5" font-family="Helvetica,sans-Serif" font-size="10.00">BaseEstimators/LeggedOdometry.h</text>
</a>
</g>
</g>
<!-- Node1&#45;&gt;Node2 -->
<g id="edge1" class="edge">
<title>Node1&#45;&gt;Node2</title>
<path fill="none" stroke="midnightblue" d="M1137.96,-402.48C1064.24,-392.51 941.47,-375.9 856.15,-364.37"/>
<polygon fill="midnightblue" stroke="midnightblue" points="856.58,-360.89 846.2,-363.02 855.64,-367.83 856.58,-360.89"/>
</g>
<!-- Node21 -->
<g id="node21" class="node">
<title>Node21</title>
<g id="a_node21"><a xlink:title=" ">
<polygon fill="none" stroke="#bfbfbf" points="1043,-129 1043,-148 1119,-148 1119,-129 1043,-129"/>
<text text-anchor="middle" x="1081" y="-136" font-family="Helvetica,sans-Serif" font-size="10.00">manif/manif.h</text>
</a>
</g>
</g>
<!-- Node1&#45;&gt;Node21 -->
<g id="edge37" class="edge">
<title>Node1&#45;&gt;Node21</title>
<path fill="none" stroke="midnightblue" d="M1167.88,-402.38C1148.78,-395.66 1126.05,-384.31 1113,-366 1067.07,-301.56 1073.25,-200.21 1078.25,-158.45"/>
<polygon fill="midnightblue" stroke="midnightblue" points="1081.75,-158.7 1079.58,-148.33 1074.81,-157.79 1081.75,-158.7"/>
</g>
<!-- Node26 -->
<g id="node26" class="node">
<title>Node26</title>
<g id="a_node26"><a xlink:href="ManifConversions_8h.html" target="_top" xlink:title=" ">
<polygon fill="none" stroke="black" points="1122.5,-335.5 1122.5,-365.5 1279.5,-365.5 1279.5,-335.5 1122.5,-335.5"/>
<text text-anchor="start" x="1130.5" y="-353.5" font-family="Helvetica,sans-Serif" font-size="10.00">BipedalLocomotion/Conversions</text>
<text text-anchor="middle" x="1201" y="-342.5" font-family="Helvetica,sans-Serif" font-size="10.00">/ManifConversions.h</text>
</a>
</g>
</g>
<!-- Node1&#45;&gt;Node26 -->
<g id="edge31" class="edge">
<title>Node1&#45;&gt;Node26</title>
<path fill="none" stroke="midnightblue" d="M1201,-402.48C1201,-395.47 1201,-385.19 1201,-375.7"/>
<polygon fill="midnightblue" stroke="midnightblue" points="1204.5,-375.52 1201,-365.52 1197.5,-375.52 1204.5,-375.52"/>
</g>
<!-- Node28 -->
<g id="node28" class="node">
<title>Node28</title>
<g id="a_node28"><a xlink:title=" ">
<polygon fill="none" stroke="#bfbfbf" points="1301,-274 1301,-293 1451,-293 1451,-274 1301,-274"/>
<text text-anchor="middle" x="1376" y="-281" font-family="Helvetica,sans-Serif" font-size="10.00">iDynTree/Core/EigenHelpers.h</text>
</a>
</g>
</g>
<!-- Node1&#45;&gt;Node28 -->
<g id="edge35" class="edge">
<title>Node1&#45;&gt;Node28</title>
<path fill="none" stroke="midnightblue" d="M1221.48,-402.5C1239.93,-394.39 1267.38,-381.2 1289,-366 1316.79,-346.46 1344.71,-318.47 1361.17,-300.9"/>
<polygon fill="midnightblue" stroke="midnightblue" points="1364.07,-302.92 1368.28,-293.2 1358.92,-298.18 1364.07,-302.92"/>
</g>
<!-- Node29 -->
<g id="node29" class="node">
<title>Node29</title>
<g id="a_node29"><a xlink:title=" ">
<polygon fill="none" stroke="#bfbfbf" points="1336.5,-341 1336.5,-360 1459.5,-360 1459.5,-341 1336.5,-341"/>
<text text-anchor="middle" x="1398" y="-348" font-family="Helvetica,sans-Serif" font-size="10.00">iDynTree/Model/Model.h</text>
</a>
</g>
</g>
<!-- Node1&#45;&gt;Node29 -->
<g id="edge36" class="edge">
<title>Node1&#45;&gt;Node29</title>
<path fill="none" stroke="midnightblue" d="M1229.23,-402.48C1263.6,-392.09 1321.81,-374.51 1360.08,-362.95"/>
<polygon fill="midnightblue" stroke="midnightblue" points="1361.27,-366.25 1369.83,-360.01 1359.24,-359.55 1361.27,-366.25"/>
</g>
<!-- Node3 -->
<g id="node3" class="node">
<title>Node3</title>
<g id="a_node3"><a xlink:href="FloatingBaseEstimator_8h.html" target="_top" xlink:title=" ">
<polygon fill="none" stroke="black" points="395,-268.5 395,-298.5 591,-298.5 591,-268.5 395,-268.5"/>
<text text-anchor="start" x="403" y="-286.5" font-family="Helvetica,sans-Serif" font-size="10.00">BipedalLocomotion/Floating</text>
<text text-anchor="middle" x="493" y="-275.5" font-family="Helvetica,sans-Serif" font-size="10.00">BaseEstimators/FloatingBaseEstimator.h</text>
</a>
</g>
</g>
<!-- Node2&#45;&gt;Node3 -->
<g id="edge2" class="edge">
<title>Node2&#45;&gt;Node3</title>
<path fill="none" stroke="midnightblue" d="M703.18,-335.48C661.41,-325.34 604.84,-311.63 560.92,-300.97"/>
<polygon fill="midnightblue" stroke="midnightblue" points="561.72,-297.57 551.18,-298.61 560.07,-304.37 561.72,-297.57"/>
</g>
<!-- Node4 -->
<g id="node4" class="node">
<title>Node4</title>
<g id="a_node4"><a xlink:href="Advanceable_8h.html" target="_top" xlink:title=" ">
<polygon fill="none" stroke="black" points="0,-196 0,-226 136,-226 136,-196 0,-196"/>
<text text-anchor="start" x="8" y="-214" font-family="Helvetica,sans-Serif" font-size="10.00">BipedalLocomotion/System</text>
<text text-anchor="middle" x="68" y="-203" font-family="Helvetica,sans-Serif" font-size="10.00">/Advanceable.h</text>
</a>
</g>
</g>
<!-- Node3&#45;&gt;Node4 -->
<g id="edge3" class="edge">
<title>Node3&#45;&gt;Node4</title>
<path fill="none" stroke="midnightblue" d="M394.64,-270.49C325.84,-261.49 231.97,-247.99 150,-232 144.29,-230.89 138.37,-229.64 132.46,-228.32"/>
<polygon fill="midnightblue" stroke="midnightblue" points="133.07,-224.87 122.54,-226.05 131.51,-231.69 133.07,-224.87"/>
</g>
<!-- Node5 -->
<g id="node5" class="node">
<title>Node5</title>
<g id="a_node5"><a xlink:href="IParametersHandler_8h.html" target="_top" xlink:title=" ">
<polygon fill="none" stroke="black" points="252,-196 252,-226 404,-226 404,-196 252,-196"/>
<text text-anchor="start" x="260" y="-214" font-family="Helvetica,sans-Serif" font-size="10.00">BipedalLocomotion/Parameters</text>
<text text-anchor="middle" x="328" y="-203" font-family="Helvetica,sans-Serif" font-size="10.00">Handler/IParametersHandler.h</text>
</a>
</g>
</g>
<!-- Node3&#45;&gt;Node5 -->
<g id="edge4" class="edge">
<title>Node3&#45;&gt;Node5</title>
<path fill="none" stroke="midnightblue" d="M460.01,-268.4C434.26,-257.4 398.32,-242.04 370.43,-230.13"/>
<polygon fill="midnightblue" stroke="midnightblue" points="371.51,-226.78 360.94,-226.07 368.76,-233.22 371.51,-226.78"/>
</g>
<!-- Node6 -->
<g id="node6" class="node">
<title>Node6</title>
<g id="a_node6"><a xlink:title=" ">
<polygon fill="none" stroke="#bfbfbf" points="47,-62 47,-81 99,-81 99,-62 47,-62"/>
<text text-anchor="middle" x="73" y="-69" font-family="Helvetica,sans-Serif" font-size="10.00">memory</text>
</a>
</g>
</g>
<!-- Node3&#45;&gt;Node6 -->
<g id="edge30" class="edge">
<title>Node3&#45;&gt;Node6</title>
<path fill="none" stroke="midnightblue" d="M394.77,-275.31C346.9,-268.72 289.73,-256.11 243,-232 172.98,-195.86 111.14,-122.44 85.53,-89.34"/>
<polygon fill="midnightblue" stroke="midnightblue" points="88.13,-86.98 79.29,-81.14 82.56,-91.22 88.13,-86.98"/>
</g>
<!-- Node17 -->
<g id="node17" class="node">
<title>Node17</title>
<g id="a_node17"><a xlink:title=" ">
<polygon fill="none" stroke="#bfbfbf" points="556,-62 556,-81 610,-81 610,-62 556,-62"/>
<text text-anchor="middle" x="583" y="-69" font-family="Helvetica,sans-Serif" font-size="10.00">iostream</text>
</a>
</g>
</g>
<!-- Node3&#45;&gt;Node17 -->
<g id="edge29" class="edge">
<title>Node3&#45;&gt;Node17</title>
<path fill="none" stroke="midnightblue" d="M476.59,-268.4C467.12,-259.14 456.12,-246.16 451,-232 444.65,-214.45 446.24,-208.05 451,-190 459.73,-156.9 464.52,-146.93 489,-123 499.19,-113.04 531.07,-96.82 554.89,-85.46"/>
<polygon fill="midnightblue" stroke="midnightblue" points="556.65,-88.5 564.21,-81.07 553.67,-82.16 556.65,-88.5"/>
</g>
<!-- Node18 -->
<g id="node18" class="node">
<title>Node18</title>
<g id="a_node18"><a xlink:href="FloatingBaseEstimatorParams_8h.html" target="_top" xlink:title=" ">
<polygon fill="none" stroke="black" points="460,-190.5 460,-231.5 648,-231.5 648,-190.5 460,-190.5"/>
<text text-anchor="start" x="468" y="-219.5" font-family="Helvetica,sans-Serif" font-size="10.00">BipedalLocomotion/Floating</text>
<text text-anchor="start" x="468" y="-208.5" font-family="Helvetica,sans-Serif" font-size="10.00">BaseEstimators/FloatingBaseEstimator</text>
<text text-anchor="middle" x="554" y="-197.5" font-family="Helvetica,sans-Serif" font-size="10.00">Params.h</text>
</a>
</g>
</g>
<!-- Node3&#45;&gt;Node18 -->
<g id="edge19" class="edge">
<title>Node3&#45;&gt;Node18</title>
<path fill="none" stroke="midnightblue" d="M505.34,-268.23C512.54,-259.92 521.86,-249.15 530.41,-239.26"/>
<polygon fill="midnightblue" stroke="midnightblue" points="533.15,-241.44 537.05,-231.59 527.86,-236.86 533.15,-241.44"/>
</g>
<!-- Node20 -->
<g id="node20" class="node">
<title>Node20</title>
<g id="a_node20"><a xlink:href="FloatingBaseEstimatorIO_8h.html" target="_top" xlink:title=" ">
<polygon fill="none" stroke="black" points="666.5,-196 666.5,-226 873.5,-226 873.5,-196 666.5,-196"/>
<text text-anchor="start" x="674.5" y="-214" font-family="Helvetica,sans-Serif" font-size="10.00">BipedalLocomotion/Floating</text>
<text text-anchor="middle" x="770" y="-203" font-family="Helvetica,sans-Serif" font-size="10.00">BaseEstimators/FloatingBaseEstimatorIO.h</text>
</a>
</g>
</g>
<!-- Node3&#45;&gt;Node20 -->
<g id="edge21" class="edge">
<title>Node3&#45;&gt;Node20</title>
<path fill="none" stroke="midnightblue" d="M548.06,-268.49C593.13,-257.02 657,-240.76 704.66,-228.63"/>
<polygon fill="midnightblue" stroke="midnightblue" points="705.75,-231.97 714.57,-226.11 704.02,-225.18 705.75,-231.97"/>
</g>
<!-- Node25 -->
<g id="node25" class="node">
<title>Node25</title>
<g id="a_node25"><a xlink:title=" ">
<polygon fill="none" stroke="#bfbfbf" points="891.5,-201.5 891.5,-220.5 1052.5,-220.5 1052.5,-201.5 891.5,-201.5"/>
<text text-anchor="middle" x="972" y="-208.5" font-family="Helvetica,sans-Serif" font-size="10.00">iDynTree/KinDynComputations.h</text>
</a>
</g>
</g>
<!-- Node3&#45;&gt;Node25 -->
<g id="edge28" class="edge">
<title>Node3&#45;&gt;Node25</title>
<path fill="none" stroke="midnightblue" d="M591.29,-272.21C670.16,-263.35 783.57,-249.29 882,-232 896.72,-229.42 912.67,-226.06 926.99,-222.83"/>
<polygon fill="midnightblue" stroke="midnightblue" points="928.13,-226.16 937.1,-220.52 926.57,-219.34 928.13,-226.16"/>
</g>
<!-- Node5&#45;&gt;Node6 -->
<g id="edge5" class="edge">
<title>Node5&#45;&gt;Node6</title>
<path fill="none" stroke="midnightblue" d="M301.61,-195.91C281.09,-184.82 252.01,-168.83 227,-154 204.83,-140.86 200.54,-135.49 178,-123 152.84,-109.05 123.23,-95.02 101.88,-85.29"/>
<polygon fill="midnightblue" stroke="midnightblue" points="103.25,-82.07 92.69,-81.15 100.37,-88.45 103.25,-82.07"/>
</g>
<!-- Node7 -->
<g id="node7" class="node">
<title>Node7</title>
<g id="a_node7"><a xlink:title=" ">
<polygon fill="none" stroke="#bfbfbf" points="628.5,-62 628.5,-81 669.5,-81 669.5,-62 628.5,-62"/>
<text text-anchor="middle" x="649" y="-69" font-family="Helvetica,sans-Serif" font-size="10.00">string</text>
</a>
</g>
</g>
<!-- Node5&#45;&gt;Node7 -->
<g id="edge6" class="edge">
<title>Node5&#45;&gt;Node7</title>
<path fill="none" stroke="midnightblue" d="M350.14,-195.94C380.48,-177.17 437.13,-143.89 489,-123 544.61,-100.61 562.89,-108.13 619,-87 620.42,-86.46 621.87,-85.89 623.32,-85.28"/>
<polygon fill="midnightblue" stroke="midnightblue" points="625.06,-88.33 632.73,-81.02 622.17,-81.96 625.06,-88.33"/>
</g>
<!-- Node8 -->
<g id="node8" class="node">
<title>Node8</title>
<g id="a_node8"><a xlink:title=" ">
<polygon fill="none" stroke="#bfbfbf" points="498,-129 498,-148 542,-148 542,-129 498,-129"/>
<text text-anchor="middle" x="520" y="-136" font-family="Helvetica,sans-Serif" font-size="10.00">vector</text>
</a>
</g>
</g>
<!-- Node5&#45;&gt;Node8 -->
<g id="edge7" class="edge">
<title>Node5&#45;&gt;Node8</title>
<path fill="none" stroke="midnightblue" d="M368.56,-195.92C400.14,-184.84 445.01,-168.85 484,-154 485.84,-153.3 487.73,-152.57 489.64,-151.82"/>
<polygon fill="midnightblue" stroke="midnightblue" points="491.11,-155.01 499.11,-148.07 488.53,-148.5 491.11,-155.01"/>
</g>
<!-- Node9 -->
<g id="node9" class="node">
<title>Node9</title>
<g id="a_node9"><a xlink:href="Vector_8h_source.html" target="_top" xlink:title=" ">
<polygon fill="none" stroke="black" points="268,-123.5 268,-153.5 404,-153.5 404,-123.5 268,-123.5"/>
<text text-anchor="start" x="276" y="-141.5" font-family="Helvetica,sans-Serif" font-size="10.00">BipedalLocomotion/Generic</text>
<text text-anchor="middle" x="336" y="-130.5" font-family="Helvetica,sans-Serif" font-size="10.00">Container/Vector.h</text>
</a>
</g>
</g>
<!-- Node5&#45;&gt;Node9 -->
<g id="edge8" class="edge">
<title>Node5&#45;&gt;Node9</title>
<path fill="none" stroke="midnightblue" d="M329.62,-195.73C330.66,-186.56 332.04,-174.41 333.25,-163.74"/>
<polygon fill="midnightblue" stroke="midnightblue" points="336.73,-164.08 334.38,-153.75 329.78,-163.29 336.73,-164.08"/>
</g>
<!-- Node11 -->
<g id="node11" class="node">
<title>Node11</title>
<g id="a_node11"><a xlink:href="TemplateHelpers_8h_source.html" target="_top" xlink:title=" ">
<polygon fill="none" stroke="black" points="117.5,-56.5 117.5,-86.5 260.5,-86.5 260.5,-56.5 117.5,-56.5"/>
<text text-anchor="start" x="125.5" y="-74.5" font-family="Helvetica,sans-Serif" font-size="10.00">BipedalLocomotion/Generic</text>
<text text-anchor="middle" x="189" y="-63.5" font-family="Helvetica,sans-Serif" font-size="10.00">Container/TemplateHelpers.h</text>
</a>
</g>
</g>
<!-- Node5&#45;&gt;Node11 -->
<g id="edge18" class="edge">
<title>Node5&#45;&gt;Node11</title>
<path fill="none" stroke="midnightblue" d="M308.78,-195.89C294.49,-185.05 274.82,-169.38 259,-154 239.76,-135.29 220.03,-111.86 206.44,-94.93"/>
<polygon fill="midnightblue" stroke="midnightblue" points="208.89,-92.38 199.93,-86.73 203.41,-96.73 208.89,-92.38"/>
</g>
<!-- Node9&#45;&gt;Node6 -->
<g id="edge17" class="edge">
<title>Node9&#45;&gt;Node6</title>
<path fill="none" stroke="midnightblue" d="M267.84,-125.64C222.1,-116.89 160.78,-103.64 108,-87 105.86,-86.33 103.67,-85.57 101.48,-84.78"/>
<polygon fill="midnightblue" stroke="midnightblue" points="102.62,-81.46 92.03,-81.09 100.08,-87.99 102.62,-81.46"/>
</g>
<!-- Node10 -->
<g id="node10" class="node">
<title>Node10</title>
<g id="a_node10"><a xlink:title=" ">
<polygon fill="none" stroke="#bfbfbf" points="279,-62 279,-81 393,-81 393,-62 279,-62"/>
<text text-anchor="middle" x="336" y="-69" font-family="Helvetica,sans-Serif" font-size="10.00">iDynTree/Core/Span.h</text>
</a>
</g>
</g>
<!-- Node9&#45;&gt;Node10 -->
<g id="edge9" class="edge">
<title>Node9&#45;&gt;Node10</title>
<path fill="none" stroke="midnightblue" d="M336,-123.4C336,-114.06 336,-101.71 336,-91.52"/>
<polygon fill="midnightblue" stroke="midnightblue" points="339.5,-91.19 336,-81.19 332.5,-91.19 339.5,-91.19"/>
</g>
<!-- Node9&#45;&gt;Node11 -->
<g id="edge10" class="edge">
<title>Node9&#45;&gt;Node11</title>
<path fill="none" stroke="midnightblue" d="M304.1,-123.4C282.43,-113.81 253.57,-101.05 230.16,-90.7"/>
<polygon fill="midnightblue" stroke="midnightblue" points="231.4,-87.42 220.83,-86.58 228.56,-93.82 231.4,-87.42"/>
</g>
<!-- Node15 -->
<g id="node15" class="node">
<title>Node15</title>
<g id="a_node15"><a xlink:title=" ">
<polygon fill="none" stroke="#bfbfbf" points="411.5,-62 411.5,-81 470.5,-81 470.5,-62 411.5,-62"/>
<text text-anchor="middle" x="441" y="-69" font-family="Helvetica,sans-Serif" font-size="10.00">functional</text>
</a>
</g>
</g>
<!-- Node9&#45;&gt;Node15 -->
<g id="edge14" class="edge">
<title>Node9&#45;&gt;Node15</title>
<path fill="none" stroke="midnightblue" d="M358.78,-123.4C376.55,-112.39 401.1,-97.2 418.74,-86.28"/>
<polygon fill="midnightblue" stroke="midnightblue" points="420.6,-89.25 427.26,-81.01 416.91,-83.29 420.6,-89.25"/>
</g>
<!-- Node16 -->
<g id="node16" class="node">
<title>Node16</title>
<g id="a_node16"><a xlink:title=" ">
<polygon fill="none" stroke="#bfbfbf" points="488.5,-62 488.5,-81 537.5,-81 537.5,-62 488.5,-62"/>
<text text-anchor="middle" x="513" y="-69" font-family="Helvetica,sans-Serif" font-size="10.00">cassert</text>
</a>
</g>
</g>
<!-- Node9&#45;&gt;Node16 -->
<g id="edge15" class="edge">
<title>Node9&#45;&gt;Node16</title>
<path fill="none" stroke="midnightblue" d="M377.87,-123.5C406.51,-113.73 445.26,-100.14 479,-87 480.6,-86.38 482.24,-85.72 483.9,-85.06"/>
<polygon fill="midnightblue" stroke="midnightblue" points="485.42,-88.21 493.31,-81.15 482.73,-81.75 485.42,-88.21"/>
</g>
<!-- Node9&#45;&gt;Node17 -->
<g id="edge16" class="edge">
<title>Node9&#45;&gt;Node17</title>
<path fill="none" stroke="midnightblue" d="M404.27,-123.58C445.66,-114.52 499.32,-101.68 546,-87 548.28,-86.28 550.61,-85.5 552.95,-84.67"/>
<polygon fill="midnightblue" stroke="midnightblue" points="554.29,-87.91 562.44,-81.14 551.84,-81.35 554.29,-87.91"/>
</g>
<!-- Node12 -->
<g id="node12" class="node">
<title>Node12</title>
<g id="a_node12"><a xlink:title=" ">
<polygon fill="none" stroke="#bfbfbf" points="76,-0.5 76,-19.5 138,-19.5 138,-0.5 76,-0.5"/>
<text text-anchor="middle" x="107" y="-7.5" font-family="Helvetica,sans-Serif" font-size="10.00">type_traits</text>
</a>
</g>
</g>
<!-- Node11&#45;&gt;Node12 -->
<g id="edge11" class="edge">
<title>Node11&#45;&gt;Node12</title>
<path fill="none" stroke="midnightblue" d="M169.57,-56.4C156.79,-47.13 140.11,-35.03 127.19,-25.65"/>
<polygon fill="midnightblue" stroke="midnightblue" points="129.08,-22.7 118.93,-19.66 124.97,-28.36 129.08,-22.7"/>
</g>
<!-- Node13 -->
<g id="node13" class="node">
<title>Node13</title>
<g id="a_node13"><a xlink:title=" ">
<polygon fill="none" stroke="#bfbfbf" points="156,-0.5 156,-19.5 222,-19.5 222,-0.5 156,-0.5"/>
<text text-anchor="middle" x="189" y="-7.5" font-family="Helvetica,sans-Serif" font-size="10.00">string_view</text>
</a>
</g>
</g>
<!-- Node11&#45;&gt;Node13 -->
<g id="edge12" class="edge">
<title>Node11&#45;&gt;Node13</title>
<path fill="none" stroke="midnightblue" d="M189,-56.4C189,-48.47 189,-38.46 189,-29.86"/>
<polygon fill="midnightblue" stroke="midnightblue" points="192.5,-29.66 189,-19.66 185.5,-29.66 192.5,-29.66"/>
</g>
<!-- Node14 -->
<g id="node14" class="node">
<title>Node14</title>
<g id="a_node14"><a xlink:title=" ">
<polygon fill="none" stroke="#bfbfbf" points="240.5,-0.5 240.5,-19.5 305.5,-19.5 305.5,-0.5 240.5,-0.5"/>
<text text-anchor="middle" x="273" y="-7.5" font-family="Helvetica,sans-Serif" font-size="10.00">Eigen/Core</text>
</a>
</g>
</g>
<!-- Node11&#45;&gt;Node14 -->
<g id="edge13" class="edge">
<title>Node11&#45;&gt;Node14</title>
<path fill="none" stroke="midnightblue" d="M208.91,-56.4C221.99,-47.13 239.08,-35.03 252.32,-25.65"/>
<polygon fill="midnightblue" stroke="midnightblue" points="254.64,-28.29 260.78,-19.66 250.59,-22.58 254.64,-28.29"/>
</g>
<!-- Node19 -->
<g id="node19" class="node">
<title>Node19</title>
<g id="a_node19"><a xlink:title=" ">
<polygon fill="none" stroke="#bfbfbf" points="560.5,-129 560.5,-148 633.5,-148 633.5,-129 560.5,-129"/>
<text text-anchor="middle" x="597" y="-136" font-family="Helvetica,sans-Serif" font-size="10.00">Eigen/Dense</text>
</a>
</g>
</g>
<!-- Node18&#45;&gt;Node19 -->
<g id="edge20" class="edge">
<title>Node18&#45;&gt;Node19</title>
<path fill="none" stroke="midnightblue" d="M565.98,-190.36C572.38,-179.86 580.2,-167.05 586.38,-156.91"/>
<polygon fill="midnightblue" stroke="midnightblue" points="589.49,-158.53 591.71,-148.17 583.51,-154.89 589.49,-158.53"/>
</g>
<!-- Node20&#45;&gt;Node19 -->
<g id="edge22" class="edge">
<title>Node20&#45;&gt;Node19</title>
<path fill="none" stroke="midnightblue" d="M735.41,-195.9C703.87,-183.05 657.72,-164.24 627.53,-151.94"/>
<polygon fill="midnightblue" stroke="midnightblue" points="628.52,-148.57 617.94,-148.03 625.88,-155.05 628.52,-148.57"/>
</g>
<!-- Node20&#45;&gt;Node21 -->
<g id="edge23" class="edge">
<title>Node20&#45;&gt;Node21</title>
<path fill="none" stroke="midnightblue" d="M831.82,-195.99C891.06,-182.56 979.23,-162.57 1033.26,-150.32"/>
<polygon fill="midnightblue" stroke="midnightblue" points="1034.28,-153.68 1043.26,-148.05 1032.73,-146.85 1034.28,-153.68"/>
</g>
<!-- Node22 -->
<g id="node22" class="node">
<title>Node22</title>
<g id="a_node22"><a xlink:href="Contact_8h.html" target="_top" xlink:title=" ">
<polygon fill="none" stroke="black" points="652,-123.5 652,-153.5 794,-153.5 794,-123.5 652,-123.5"/>
<text text-anchor="start" x="660" y="-141.5" font-family="Helvetica,sans-Serif" font-size="10.00">BipedalLocomotion/Contacts</text>
<text text-anchor="middle" x="723" y="-130.5" font-family="Helvetica,sans-Serif" font-size="10.00">/Contact.h</text>
</a>
</g>
</g>
<!-- Node20&#45;&gt;Node22 -->
<g id="edge24" class="edge">
<title>Node20&#45;&gt;Node22</title>
<path fill="none" stroke="midnightblue" d="M760.49,-195.73C754.05,-186.08 745.42,-173.13 738.06,-162.09"/>
<polygon fill="midnightblue" stroke="midnightblue" points="740.96,-160.12 732.5,-153.75 735.13,-164.01 740.96,-160.12"/>
</g>
<!-- Node24 -->
<g id="node24" class="node">
<title>Node24</title>
<g id="a_node24"><a xlink:title=" ">
<polygon fill="none" stroke="#bfbfbf" points="812.5,-129 812.5,-148 847.5,-148 847.5,-129 812.5,-129"/>
<text text-anchor="middle" x="830" y="-136" font-family="Helvetica,sans-Serif" font-size="10.00">map</text>
</a>
</g>
</g>
<!-- Node20&#45;&gt;Node24 -->
<g id="edge27" class="edge">
<title>Node20&#45;&gt;Node24</title>
<path fill="none" stroke="midnightblue" d="M782.14,-195.73C791.84,-184.34 805.46,-168.34 815.69,-156.32"/>
<polygon fill="midnightblue" stroke="midnightblue" points="818.62,-158.28 822.43,-148.39 813.28,-153.74 818.62,-158.28"/>
</g>
<!-- Node22&#45;&gt;Node7 -->
<g id="edge26" class="edge">
<title>Node22&#45;&gt;Node7</title>
<path fill="none" stroke="midnightblue" d="M706.94,-123.4C695.06,-112.96 678.89,-98.75 666.64,-88"/>
<polygon fill="midnightblue" stroke="midnightblue" points="668.72,-85.16 658.9,-81.19 664.1,-90.42 668.72,-85.16"/>
</g>
<!-- Node23 -->
<g id="node23" class="node">
<title>Node23</title>
<g id="a_node23"><a xlink:title=" ">
<polygon fill="none" stroke="#bfbfbf" points="687.5,-62 687.5,-81 758.5,-81 758.5,-62 687.5,-62"/>
<text text-anchor="middle" x="723" y="-69" font-family="Helvetica,sans-Serif" font-size="10.00">manif/SE3.h</text>
</a>
</g>
</g>
<!-- Node22&#45;&gt;Node23 -->
<g id="edge25" class="edge">
<title>Node22&#45;&gt;Node23</title>
<path fill="none" stroke="midnightblue" d="M723,-123.4C723,-114.06 723,-101.71 723,-91.52"/>
<polygon fill="midnightblue" stroke="midnightblue" points="726.5,-91.19 723,-81.19 719.5,-91.19 726.5,-91.19"/>
</g>
<!-- Node26&#45;&gt;Node21 -->
<g id="edge34" class="edge">
<title>Node26&#45;&gt;Node21</title>
<path fill="none" stroke="midnightblue" d="M1177.62,-335.42C1164.41,-326.43 1148.49,-313.73 1138,-299 1121.3,-275.56 1096.81,-194.71 1086.21,-157.95"/>
<polygon fill="midnightblue" stroke="midnightblue" points="1089.5,-156.73 1083.39,-148.07 1082.77,-158.65 1089.5,-156.73"/>
</g>
<!-- Node27 -->
<g id="node27" class="node">
<title>Node27</title>
<g id="a_node27"><a xlink:title=" ">
<polygon fill="none" stroke="#bfbfbf" points="1147,-274 1147,-293 1283,-293 1283,-274 1147,-274"/>
<text text-anchor="middle" x="1215" y="-281" font-family="Helvetica,sans-Serif" font-size="10.00">iDynTree/Core/Transform.h</text>
</a>
</g>
</g>
<!-- Node26&#45;&gt;Node27 -->
<g id="edge32" class="edge">
<title>Node26&#45;&gt;Node27</title>
<path fill="none" stroke="midnightblue" d="M1204.04,-335.4C1206.07,-325.96 1208.76,-313.45 1210.97,-303.19"/>
<polygon fill="midnightblue" stroke="midnightblue" points="1214.44,-303.71 1213.13,-293.19 1207.6,-302.23 1214.44,-303.71"/>
</g>
<!-- Node26&#45;&gt;Node28 -->
<g id="edge33" class="edge">
<title>Node26&#45;&gt;Node28</title>
<path fill="none" stroke="midnightblue" d="M1238.97,-335.4C1270.22,-323.79 1314.04,-307.51 1343.64,-296.52"/>
<polygon fill="midnightblue" stroke="midnightblue" points="1344.94,-299.77 1353.1,-293.01 1342.5,-293.21 1344.94,-299.77"/>
</g>
</g>
</svg>
