<?xml version="1.0" encoding="UTF-8" standalone="no"?>
<!DOCTYPE svg PUBLIC "-//W3C//DTD SVG 1.1//EN"
 "http://www.w3.org/Graphics/SVG/1.1/DTD/svg11.dtd">
<!-- Generated by graphviz version 2.43.0 (0)
 -->
<!-- Title: System/include/BipedalLocomotion/System/LinearTimeInvariantSystem.h Pages: 1 -->
<svg width="688pt" height="363pt"
 viewBox="0.00 0.00 687.50 363.00" xmlns="http://www.w3.org/2000/svg" xmlns:xlink="http://www.w3.org/1999/xlink">
<g id="graph0" class="graph" transform="scale(1 1) rotate(0) translate(4 359)">
<title>System/include/BipedalLocomotion/System/LinearTimeInvariantSystem.h</title>
<!-- Node1 -->
<g id="node1" class="node">
<title>Node1</title>
<g id="a_node1"><a xlink:title=" ">
<polygon fill="#bfbfbf" stroke="black" points="358,-324.5 358,-354.5 542,-354.5 542,-324.5 358,-324.5"/>
<text text-anchor="start" x="366" y="-342.5" font-family="Helvetica,sans-Serif" font-size="10.00">System/include/BipedalLocomotion</text>
<text text-anchor="middle" x="450" y="-331.5" font-family="Helvetica,sans-Serif" font-size="10.00">/System/LinearTimeInvariantSystem.h</text>
</a>
</g>
</g>
<!-- Node2 -->
<g id="node2" class="node">
<title>Node2</title>
<g id="a_node2"><a xlink:title=" ">
<polygon fill="none" stroke="#bfbfbf" points="552,-62 552,-81 604,-81 604,-62 552,-62"/>
<text text-anchor="middle" x="578" y="-69" font-family="Helvetica,sans-Serif" font-size="10.00">memory</text>
</a>
</g>
</g>
<!-- Node1&#45;&gt;Node2 -->
<g id="edge1" class="edge">
<title>Node1&#45;&gt;Node2</title>
<path fill="none" stroke="midnightblue" d="M463.7,-324.46C483.47,-303.51 520.02,-262.13 542,-221 556.77,-193.36 556.44,-184.42 564,-154 569.29,-132.72 573.25,-107.82 575.59,-91.19"/>
<polygon fill="midnightblue" stroke="midnightblue" points="579.07,-91.53 576.94,-81.15 572.14,-90.6 579.07,-91.53"/>
</g>
<!-- Node3 -->
<g id="node3" class="node">
<title>Node3</title>
<g id="a_node3"><a xlink:title=" ">
<polygon fill="none" stroke="#bfbfbf" points="50,-129 50,-148 94,-148 94,-129 50,-129"/>
<text text-anchor="middle" x="72" y="-136" font-family="Helvetica,sans-Serif" font-size="10.00">vector</text>
</a>
</g>
</g>
<!-- Node1&#45;&gt;Node3 -->
<g id="edge2" class="edge">
<title>Node1&#45;&gt;Node3</title>
<path fill="none" stroke="midnightblue" d="M357.68,-326.83C284.48,-313.09 184.01,-283.6 119,-221 100.12,-202.82 86.44,-175.4 78.86,-157.47"/>
<polygon fill="midnightblue" stroke="midnightblue" points="82.09,-156.12 75.11,-148.16 75.6,-158.74 82.09,-156.12"/>
</g>
<!-- Node4 -->
<g id="node4" class="node">
<title>Node4</title>
<g id="a_node4"><a xlink:href="DynamicalSystem_8h.html" target="_top" xlink:title=" ">
<polygon fill="none" stroke="black" points="255,-257.5 255,-287.5 391,-287.5 391,-257.5 255,-257.5"/>
<text text-anchor="start" x="263" y="-275.5" font-family="Helvetica,sans-Serif" font-size="10.00">BipedalLocomotion/System</text>
<text text-anchor="middle" x="323" y="-264.5" font-family="Helvetica,sans-Serif" font-size="10.00">/DynamicalSystem.h</text>
</a>
</g>
</g>
<!-- Node1&#45;&gt;Node4 -->
<g id="edge3" class="edge">
<title>Node1&#45;&gt;Node4</title>
<path fill="none" stroke="midnightblue" d="M422.44,-324.4C404.05,-314.98 379.67,-302.5 359.65,-292.26"/>
<polygon fill="midnightblue" stroke="midnightblue" points="361,-289.02 350.5,-287.58 357.81,-295.25 361,-289.02"/>
</g>
<!-- Node18 -->
<g id="node18" class="node">
<title>Node18</title>
<g id="a_node18"><a xlink:title=" ">
<polygon fill="none" stroke="#bfbfbf" points="606.5,-263 606.5,-282 679.5,-282 679.5,-263 606.5,-263"/>
<text text-anchor="middle" x="643" y="-270" font-family="Helvetica,sans-Serif" font-size="10.00">Eigen/Dense</text>
</a>
</g>
</g>
<!-- Node1&#45;&gt;Node18 -->
<g id="edge24" class="edge">
<title>Node1&#45;&gt;Node18</title>
<path fill="none" stroke="midnightblue" d="M491.88,-324.4C526.64,-312.69 575.51,-296.23 608.16,-285.23"/>
<polygon fill="midnightblue" stroke="midnightblue" points="609.38,-288.52 617.74,-282.01 607.15,-281.88 609.38,-288.52"/>
</g>
<!-- Node4&#45;&gt;Node2 -->
<g id="edge4" class="edge">
<title>Node4&#45;&gt;Node2</title>
<path fill="none" stroke="midnightblue" d="M391.32,-269.5C433.29,-264.86 485.61,-252.48 521,-221 531.19,-211.94 559.58,-128.47 572.03,-90.8"/>
<polygon fill="midnightblue" stroke="midnightblue" points="575.42,-91.69 575.21,-81.1 568.77,-89.5 575.42,-91.69"/>
</g>
<!-- Node5 -->
<g id="node5" class="node">
<title>Node5</title>
<g id="a_node5"><a xlink:title=" ">
<polygon fill="none" stroke="#bfbfbf" points="304,-196 304,-215 342,-215 342,-196 304,-196"/>
<text text-anchor="middle" x="323" y="-203" font-family="Helvetica,sans-Serif" font-size="10.00">tuple</text>
</a>
</g>
</g>
<!-- Node4&#45;&gt;Node5 -->
<g id="edge5" class="edge">
<title>Node4&#45;&gt;Node5</title>
<path fill="none" stroke="midnightblue" d="M323,-257.4C323,-248.06 323,-235.71 323,-225.52"/>
<polygon fill="midnightblue" stroke="midnightblue" points="326.5,-225.19 323,-215.19 319.5,-225.19 326.5,-225.19"/>
</g>
<!-- Node6 -->
<g id="node6" class="node">
<title>Node6</title>
<g id="a_node6"><a xlink:href="TemplateHelpers_8h_source.html" target="_top" xlink:title=" ">
<polygon fill="none" stroke="black" points="41.5,-56.5 41.5,-86.5 184.5,-86.5 184.5,-56.5 41.5,-56.5"/>
<text text-anchor="start" x="49.5" y="-74.5" font-family="Helvetica,sans-Serif" font-size="10.00">BipedalLocomotion/Generic</text>
<text text-anchor="middle" x="113" y="-63.5" font-family="Helvetica,sans-Serif" font-size="10.00">Container/TemplateHelpers.h</text>
</a>
</g>
</g>
<!-- Node4&#45;&gt;Node6 -->
<g id="edge6" class="edge">
<title>Node4&#45;&gt;Node6</title>
<path fill="none" stroke="midnightblue" d="M254.65,-269.6C215.97,-264.82 169.73,-252.27 141,-221 109.74,-186.98 108.24,-129.5 110.34,-96.93"/>
<polygon fill="midnightblue" stroke="midnightblue" points="113.84,-97.16 111.16,-86.91 106.86,-96.59 113.84,-97.16"/>
</g>
<!-- Node10 -->
<g id="node10" class="node">
<title>Node10</title>
<g id="a_node10"><a xlink:href="IParametersHandler_8h.html" target="_top" xlink:title=" ">
<polygon fill="none" stroke="black" points="360,-190.5 360,-220.5 512,-220.5 512,-190.5 360,-190.5"/>
<text text-anchor="start" x="368" y="-208.5" font-family="Helvetica,sans-Serif" font-size="10.00">BipedalLocomotion/Parameters</text>
<text text-anchor="middle" x="436" y="-197.5" font-family="Helvetica,sans-Serif" font-size="10.00">Handler/IParametersHandler.h</text>
</a>
</g>
</g>
<!-- Node4&#45;&gt;Node10 -->
<g id="edge10" class="edge">
<title>Node4&#45;&gt;Node10</title>
<path fill="none" stroke="midnightblue" d="M347.52,-257.4C363.66,-248.11 384.99,-235.84 402.67,-225.67"/>
<polygon fill="midnightblue" stroke="midnightblue" points="404.61,-228.6 411.53,-220.58 401.12,-222.53 404.61,-228.6"/>
</g>
<!-- Node17 -->
<g id="node17" class="node">
<title>Node17</title>
<g id="a_node17"><a xlink:href="DynamicalSystem_8tpp.html" target="_top" xlink:title=" ">
<polygon fill="none" stroke="black" points="150,-190.5 150,-220.5 286,-220.5 286,-190.5 150,-190.5"/>
<text text-anchor="start" x="158" y="-208.5" font-family="Helvetica,sans-Serif" font-size="10.00">BipedalLocomotion/System</text>
<text text-anchor="middle" x="218" y="-197.5" font-family="Helvetica,sans-Serif" font-size="10.00">/DynamicalSystem.tpp</text>
</a>
</g>
</g>
<!-- Node4&#45;&gt;Node17 -->
<g id="edge22" class="edge">
<title>Node4&#45;&gt;Node17</title>
<path fill="none" stroke="midnightblue" d="M294.54,-257.4C278.62,-248.28 259.05,-236.29 243.62,-226.24"/>
<polygon fill="midnightblue" stroke="midnightblue" points="245.34,-223.18 235.06,-220.58 241.47,-229.01 245.34,-223.18"/>
</g>
<!-- Node7 -->
<g id="node7" class="node">
<title>Node7</title>
<g id="a_node7"><a xlink:title=" ">
<polygon fill="none" stroke="#bfbfbf" points="0,-0.5 0,-19.5 62,-19.5 62,-0.5 0,-0.5"/>
<text text-anchor="middle" x="31" y="-7.5" font-family="Helvetica,sans-Serif" font-size="10.00">type_traits</text>
</a>
</g>
</g>
<!-- Node6&#45;&gt;Node7 -->
<g id="edge7" class="edge">
<title>Node6&#45;&gt;Node7</title>
<path fill="none" stroke="midnightblue" d="M93.57,-56.4C80.79,-47.13 64.11,-35.03 51.19,-25.65"/>
<polygon fill="midnightblue" stroke="midnightblue" points="53.08,-22.7 42.93,-19.66 48.97,-28.36 53.08,-22.7"/>
</g>
<!-- Node8 -->
<g id="node8" class="node">
<title>Node8</title>
<g id="a_node8"><a xlink:title=" ">
<polygon fill="none" stroke="#bfbfbf" points="80,-0.5 80,-19.5 146,-19.5 146,-0.5 80,-0.5"/>
<text text-anchor="middle" x="113" y="-7.5" font-family="Helvetica,sans-Serif" font-size="10.00">string_view</text>
</a>
</g>
</g>
<!-- Node6&#45;&gt;Node8 -->
<g id="edge8" class="edge">
<title>Node6&#45;&gt;Node8</title>
<path fill="none" stroke="midnightblue" d="M113,-56.4C113,-48.47 113,-38.46 113,-29.86"/>
<polygon fill="midnightblue" stroke="midnightblue" points="116.5,-29.66 113,-19.66 109.5,-29.66 116.5,-29.66"/>
</g>
<!-- Node9 -->
<g id="node9" class="node">
<title>Node9</title>
<g id="a_node9"><a xlink:title=" ">
<polygon fill="none" stroke="#bfbfbf" points="164.5,-0.5 164.5,-19.5 229.5,-19.5 229.5,-0.5 164.5,-0.5"/>
<text text-anchor="middle" x="197" y="-7.5" font-family="Helvetica,sans-Serif" font-size="10.00">Eigen/Core</text>
</a>
</g>
</g>
<!-- Node6&#45;&gt;Node9 -->
<g id="edge9" class="edge">
<title>Node6&#45;&gt;Node9</title>
<path fill="none" stroke="midnightblue" d="M132.91,-56.4C145.99,-47.13 163.08,-35.03 176.32,-25.65"/>
<polygon fill="midnightblue" stroke="midnightblue" points="178.64,-28.29 184.78,-19.66 174.59,-22.58 178.64,-28.29"/>
</g>
<!-- Node10&#45;&gt;Node2 -->
<g id="edge11" class="edge">
<title>Node10&#45;&gt;Node2</title>
<path fill="none" stroke="midnightblue" d="M451.2,-190.37C478.03,-165.43 533.57,-113.8 561.38,-87.95"/>
<polygon fill="midnightblue" stroke="midnightblue" points="563.81,-90.47 568.75,-81.1 559.04,-85.34 563.81,-90.47"/>
</g>
<!-- Node10&#45;&gt;Node3 -->
<g id="edge13" class="edge">
<title>Node10&#45;&gt;Node3</title>
<path fill="none" stroke="midnightblue" d="M359.69,-190.87C280.77,-176.78 161.26,-155.44 104.34,-145.27"/>
<polygon fill="midnightblue" stroke="midnightblue" points="104.6,-141.77 94.14,-143.45 103.37,-148.66 104.6,-141.77"/>
</g>
<!-- Node10&#45;&gt;Node6 -->
<g id="edge21" class="edge">
<title>Node10&#45;&gt;Node6</title>
<path fill="none" stroke="midnightblue" d="M371.4,-190.44C336.53,-181.85 293.14,-169.52 256,-154 214.84,-136.8 170.7,-110.27 142.53,-92.19"/>
<polygon fill="midnightblue" stroke="midnightblue" points="144.26,-89.14 133.96,-86.64 140.45,-95.01 144.26,-89.14"/>
</g>
<!-- Node11 -->
<g id="node11" class="node">
<title>Node11</title>
<g id="a_node11"><a xlink:title=" ">
<polygon fill="none" stroke="#bfbfbf" points="419.5,-129 419.5,-148 460.5,-148 460.5,-129 419.5,-129"/>
<text text-anchor="middle" x="440" y="-136" font-family="Helvetica,sans-Serif" font-size="10.00">string</text>
</a>
</g>
</g>
<!-- Node10&#45;&gt;Node11 -->
<g id="edge12" class="edge">
<title>Node10&#45;&gt;Node11</title>
<path fill="none" stroke="midnightblue" d="M436.87,-190.4C437.45,-180.96 438.22,-168.45 438.85,-158.19"/>
<polygon fill="midnightblue" stroke="midnightblue" points="442.34,-158.39 439.46,-148.19 435.36,-157.96 442.34,-158.39"/>
</g>
<!-- Node12 -->
<g id="node12" class="node">
<title>Node12</title>
<g id="a_node12"><a xlink:href="Vector_8h_source.html" target="_top" xlink:title=" ">
<polygon fill="none" stroke="black" points="265,-123.5 265,-153.5 401,-153.5 401,-123.5 265,-123.5"/>
<text text-anchor="start" x="273" y="-141.5" font-family="Helvetica,sans-Serif" font-size="10.00">BipedalLocomotion/Generic</text>
<text text-anchor="middle" x="333" y="-130.5" font-family="Helvetica,sans-Serif" font-size="10.00">Container/Vector.h</text>
</a>
</g>
</g>
<!-- Node10&#45;&gt;Node12 -->
<g id="edge14" class="edge">
<title>Node10&#45;&gt;Node12</title>
<path fill="none" stroke="midnightblue" d="M413.65,-190.4C399.07,-181.2 379.85,-169.07 363.83,-158.95"/>
<polygon fill="midnightblue" stroke="midnightblue" points="365.63,-155.95 355.31,-153.58 361.89,-161.87 365.63,-155.95"/>
</g>
<!-- Node12&#45;&gt;Node2 -->
<g id="edge20" class="edge">
<title>Node12&#45;&gt;Node2</title>
<path fill="none" stroke="midnightblue" d="M401.37,-123.9C442.8,-114.96 496.46,-102.13 543,-87 545.13,-86.31 547.32,-85.54 549.51,-84.73"/>
<polygon fill="midnightblue" stroke="midnightblue" points="550.92,-87.94 558.95,-81.03 548.36,-81.42 550.92,-87.94"/>
</g>
<!-- Node12&#45;&gt;Node6 -->
<g id="edge16" class="edge">
<title>Node12&#45;&gt;Node6</title>
<path fill="none" stroke="midnightblue" d="M285.53,-123.48C251.82,-113.51 206.37,-100.09 170.58,-89.51"/>
<polygon fill="midnightblue" stroke="midnightblue" points="171.34,-86.09 160.76,-86.61 169.36,-92.8 171.34,-86.09"/>
</g>
<!-- Node13 -->
<g id="node13" class="node">
<title>Node13</title>
<g id="a_node13"><a xlink:title=" ">
<polygon fill="none" stroke="#bfbfbf" points="342,-62 342,-81 456,-81 456,-62 342,-62"/>
<text text-anchor="middle" x="399" y="-69" font-family="Helvetica,sans-Serif" font-size="10.00">iDynTree/Core/Span.h</text>
</a>
</g>
</g>
<!-- Node12&#45;&gt;Node13 -->
<g id="edge15" class="edge">
<title>Node12&#45;&gt;Node13</title>
<path fill="none" stroke="midnightblue" d="M347.32,-123.4C357.82,-113.06 372.07,-99.02 382.95,-88.31"/>
<polygon fill="midnightblue" stroke="midnightblue" points="385.5,-90.71 390.17,-81.19 380.59,-85.72 385.5,-90.71"/>
</g>
<!-- Node14 -->
<g id="node14" class="node">
<title>Node14</title>
<g id="a_node14"><a xlink:title=" ">
<polygon fill="none" stroke="#bfbfbf" points="474.5,-62 474.5,-81 533.5,-81 533.5,-62 474.5,-62"/>
<text text-anchor="middle" x="504" y="-69" font-family="Helvetica,sans-Serif" font-size="10.00">functional</text>
</a>
</g>
</g>
<!-- Node12&#45;&gt;Node14 -->
<g id="edge17" class="edge">
<title>Node12&#45;&gt;Node14</title>
<path fill="none" stroke="midnightblue" d="M370.1,-123.4C400.51,-111.84 443.08,-95.66 472,-84.66"/>
<polygon fill="midnightblue" stroke="midnightblue" points="473.52,-87.83 481.62,-81.01 471.03,-81.29 473.52,-87.83"/>
</g>
<!-- Node15 -->
<g id="node15" class="node">
<title>Node15</title>
<g id="a_node15"><a xlink:title=" ">
<polygon fill="none" stroke="#bfbfbf" points="202.5,-62 202.5,-81 251.5,-81 251.5,-62 202.5,-62"/>
<text text-anchor="middle" x="227" y="-69" font-family="Helvetica,sans-Serif" font-size="10.00">cassert</text>
</a>
</g>
</g>
<!-- Node12&#45;&gt;Node15 -->
<g id="edge18" class="edge">
<title>Node12&#45;&gt;Node15</title>
<path fill="none" stroke="midnightblue" d="M310,-123.4C292.06,-112.39 267.28,-97.2 249.48,-86.28"/>
<polygon fill="midnightblue" stroke="midnightblue" points="251.23,-83.25 240.87,-81.01 247.57,-89.22 251.23,-83.25"/>
</g>
<!-- Node16 -->
<g id="node16" class="node">
<title>Node16</title>
<g id="a_node16"><a xlink:title=" ">
<polygon fill="none" stroke="#bfbfbf" points="270,-62 270,-81 324,-81 324,-62 270,-62"/>
<text text-anchor="middle" x="297" y="-69" font-family="Helvetica,sans-Serif" font-size="10.00">iostream</text>
</a>
</g>
</g>
<!-- Node12&#45;&gt;Node16 -->
<g id="edge19" class="edge">
<title>Node12&#45;&gt;Node16</title>
<path fill="none" stroke="midnightblue" d="M325.19,-123.4C319.8,-113.66 312.59,-100.65 306.81,-90.21"/>
<polygon fill="midnightblue" stroke="midnightblue" points="309.72,-88.25 301.82,-81.19 303.6,-91.64 309.72,-88.25"/>
</g>
<!-- Node17&#45;&gt;Node4 -->
<g id="edge23" class="edge">
<title>Node17&#45;&gt;Node4</title>
<path fill="none" stroke="midnightblue" d="M246.41,-220.58C262.32,-229.68 281.89,-241.68 297.34,-251.73"/>
<polygon fill="midnightblue" stroke="midnightblue" points="295.62,-254.8 305.89,-257.4 299.49,-248.96 295.62,-254.8"/>
</g>
</g>
</svg>
