<?xml version="1.0" encoding="UTF-8" standalone="no"?>
<!DOCTYPE svg PUBLIC "-//W3C//DTD SVG 1.1//EN"
 "http://www.w3.org/Graphics/SVG/1.1/DTD/svg11.dtd">
<!-- Generated by graphviz version 2.43.0 (0)
 -->
<!-- Title: IK/include/BipedalLocomotion/IK/LinearTask.h Pages: 1 -->
<svg width="804pt" height="296pt"
 viewBox="0.00 0.00 804.44 296.00" xmlns="http://www.w3.org/2000/svg" xmlns:xlink="http://www.w3.org/1999/xlink">
<g id="graph0" class="graph" transform="scale(1 1) rotate(0) translate(4 292)">
<title>IK/include/BipedalLocomotion/IK/LinearTask.h</title>
<!-- Node1 -->
<g id="node1" class="node">
<title>Node1</title>
<g id="a_node1"><a xlink:title=" ">
<polygon fill="#bfbfbf" stroke="black" points="192.94,-257.5 192.94,-287.5 338.94,-287.5 338.94,-257.5 192.94,-257.5"/>
<text text-anchor="start" x="200.94" y="-275.5" font-family="Helvetica,sans-Serif" font-size="10.00">IK/include/BipedalLocomotion</text>
<text text-anchor="middle" x="265.94" y="-264.5" font-family="Helvetica,sans-Serif" font-size="10.00">/IK/LinearTask.h</text>
</a>
</g>
</g>
<!-- Node2 -->
<g id="node2" class="node">
<title>Node2</title>
<g id="a_node2"><a xlink:title=" ">
<polygon fill="none" stroke="#bfbfbf" points="188.94,-62 188.94,-81 240.94,-81 240.94,-62 188.94,-62"/>
<text text-anchor="middle" x="214.94" y="-69" font-family="Helvetica,sans-Serif" font-size="10.00">memory</text>
</a>
</g>
</g>
<!-- Node1&#45;&gt;Node2 -->
<g id="edge1" class="edge">
<title>Node1&#45;&gt;Node2</title>
<path fill="none" stroke="midnightblue" d="M192.68,-267.03C125.95,-261.26 34.47,-248.46 11.94,-221 -42.59,-154.57 106.72,-102.51 178.67,-81.99"/>
<polygon fill="midnightblue" stroke="midnightblue" points="180,-85.25 188.69,-79.19 178.12,-78.51 180,-85.25"/>
</g>
<!-- Node3 -->
<g id="node3" class="node">
<title>Node3</title>
<g id="a_node3"><a xlink:title=" ">
<polygon fill="none" stroke="#bfbfbf" points="21.44,-196 21.44,-215 94.44,-215 94.44,-196 21.44,-196"/>
<text text-anchor="middle" x="57.94" y="-203" font-family="Helvetica,sans-Serif" font-size="10.00">Eigen/Dense</text>
</a>
</g>
</g>
<!-- Node1&#45;&gt;Node3 -->
<g id="edge2" class="edge">
<title>Node1&#45;&gt;Node3</title>
<path fill="none" stroke="midnightblue" d="M220.23,-257.49C187.53,-247.43 142.49,-233.5 102.94,-221 100.15,-220.12 97.27,-219.2 94.37,-218.28"/>
<polygon fill="midnightblue" stroke="midnightblue" points="95.16,-214.86 84.57,-215.14 93.03,-221.52 95.16,-214.86"/>
</g>
<!-- Node4 -->
<g id="node4" class="node">
<title>Node4</title>
<g id="a_node4"><a xlink:title=" ">
<polygon fill="none" stroke="#bfbfbf" points="112.44,-196 112.44,-215 251.44,-215 251.44,-196 112.44,-196"/>
<text text-anchor="middle" x="181.94" y="-203" font-family="Helvetica,sans-Serif" font-size="10.00">iDynTree/Core/MatrixView.h</text>
</a>
</g>
</g>
<!-- Node1&#45;&gt;Node4 -->
<g id="edge3" class="edge">
<title>Node1&#45;&gt;Node4</title>
<path fill="none" stroke="midnightblue" d="M247.71,-257.4C233.97,-246.76 215.15,-232.2 201.17,-221.38"/>
<polygon fill="midnightblue" stroke="midnightblue" points="203.23,-218.55 193.18,-215.19 198.94,-224.08 203.23,-218.55"/>
</g>
<!-- Node5 -->
<g id="node5" class="node">
<title>Node5</title>
<g id="a_node5"><a xlink:title=" ">
<polygon fill="none" stroke="#bfbfbf" points="269.44,-196 269.44,-215 430.44,-215 430.44,-196 269.44,-196"/>
<text text-anchor="middle" x="349.94" y="-203" font-family="Helvetica,sans-Serif" font-size="10.00">iDynTree/KinDynComputations.h</text>
</a>
</g>
</g>
<!-- Node1&#45;&gt;Node5 -->
<g id="edge4" class="edge">
<title>Node1&#45;&gt;Node5</title>
<path fill="none" stroke="midnightblue" d="M284.17,-257.4C297.91,-246.76 316.72,-232.2 330.71,-221.38"/>
<polygon fill="midnightblue" stroke="midnightblue" points="332.94,-224.08 338.7,-215.19 328.65,-218.55 332.94,-224.08"/>
</g>
<!-- Node6 -->
<g id="node6" class="node">
<title>Node6</title>
<g id="a_node6"><a xlink:href="IParametersHandler_8h.html" target="_top" xlink:title=" ">
<polygon fill="none" stroke="black" points="448.94,-190.5 448.94,-220.5 600.94,-220.5 600.94,-190.5 448.94,-190.5"/>
<text text-anchor="start" x="456.94" y="-208.5" font-family="Helvetica,sans-Serif" font-size="10.00">BipedalLocomotion/Parameters</text>
<text text-anchor="middle" x="524.94" y="-197.5" font-family="Helvetica,sans-Serif" font-size="10.00">Handler/IParametersHandler.h</text>
</a>
</g>
</g>
<!-- Node1&#45;&gt;Node6 -->
<g id="edge5" class="edge">
<title>Node1&#45;&gt;Node6</title>
<path fill="none" stroke="midnightblue" d="M321.82,-257.48C362.02,-247.39 416.39,-233.74 458.77,-223.11"/>
<polygon fill="midnightblue" stroke="midnightblue" points="459.87,-226.44 468.71,-220.61 458.16,-219.65 459.87,-226.44"/>
</g>
<!-- Node18 -->
<g id="node18" class="node">
<title>Node18</title>
<g id="a_node18"><a xlink:href="VariablesHandler_8h.html" target="_top" xlink:title=" ">
<polygon fill="none" stroke="black" points="618.94,-190.5 618.94,-220.5 754.94,-220.5 754.94,-190.5 618.94,-190.5"/>
<text text-anchor="start" x="626.94" y="-208.5" font-family="Helvetica,sans-Serif" font-size="10.00">BipedalLocomotion/System</text>
<text text-anchor="middle" x="686.94" y="-197.5" font-family="Helvetica,sans-Serif" font-size="10.00">/VariablesHandler.h</text>
</a>
</g>
</g>
<!-- Node1&#45;&gt;Node18 -->
<g id="edge20" class="edge">
<title>Node1&#45;&gt;Node18</title>
<path fill="none" stroke="midnightblue" d="M339.22,-261.62C406.64,-252.32 509.65,-237.62 608.38,-221.23"/>
<polygon fill="midnightblue" stroke="midnightblue" points="609.24,-224.63 618.53,-219.53 608.09,-217.72 609.24,-224.63"/>
</g>
<!-- Node6&#45;&gt;Node2 -->
<g id="edge6" class="edge">
<title>Node6&#45;&gt;Node2</title>
<path fill="none" stroke="midnightblue" d="M464.33,-190.44C431.05,-181.78 389.45,-169.38 353.94,-154 309.85,-134.9 262.36,-104.75 235.87,-86.97"/>
<polygon fill="midnightblue" stroke="midnightblue" points="237.66,-83.95 227.42,-81.23 233.73,-89.74 237.66,-83.95"/>
</g>
<!-- Node7 -->
<g id="node7" class="node">
<title>Node7</title>
<g id="a_node7"><a xlink:title=" ">
<polygon fill="none" stroke="#bfbfbf" points="617.44,-129 617.44,-148 658.44,-148 658.44,-129 617.44,-129"/>
<text text-anchor="middle" x="637.94" y="-136" font-family="Helvetica,sans-Serif" font-size="10.00">string</text>
</a>
</g>
</g>
<!-- Node6&#45;&gt;Node7 -->
<g id="edge7" class="edge">
<title>Node6&#45;&gt;Node7</title>
<path fill="none" stroke="midnightblue" d="M549.46,-190.4C568.67,-179.34 595.24,-164.06 614.24,-153.13"/>
<polygon fill="midnightblue" stroke="midnightblue" points="616.23,-156.03 623.15,-148.01 612.74,-149.96 616.23,-156.03"/>
</g>
<!-- Node8 -->
<g id="node8" class="node">
<title>Node8</title>
<g id="a_node8"><a xlink:title=" ">
<polygon fill="none" stroke="#bfbfbf" points="362.94,-129 362.94,-148 406.94,-148 406.94,-129 362.94,-129"/>
<text text-anchor="middle" x="384.94" y="-136" font-family="Helvetica,sans-Serif" font-size="10.00">vector</text>
</a>
</g>
</g>
<!-- Node6&#45;&gt;Node8 -->
<g id="edge8" class="edge">
<title>Node6&#45;&gt;Node8</title>
<path fill="none" stroke="midnightblue" d="M494.39,-190.38C472.53,-180.27 442.41,-166.32 415.94,-154 414.79,-153.46 413.61,-152.92 412.43,-152.36"/>
<polygon fill="midnightblue" stroke="midnightblue" points="413.83,-149.16 403.29,-148.1 410.87,-155.5 413.83,-149.16"/>
</g>
<!-- Node9 -->
<g id="node9" class="node">
<title>Node9</title>
<g id="a_node9"><a xlink:href="Vector_8h_source.html" target="_top" xlink:title=" ">
<polygon fill="none" stroke="black" points="424.94,-123.5 424.94,-153.5 560.94,-153.5 560.94,-123.5 424.94,-123.5"/>
<text text-anchor="start" x="432.94" y="-141.5" font-family="Helvetica,sans-Serif" font-size="10.00">BipedalLocomotion/Generic</text>
<text text-anchor="middle" x="492.94" y="-130.5" font-family="Helvetica,sans-Serif" font-size="10.00">Container/Vector.h</text>
</a>
</g>
</g>
<!-- Node6&#45;&gt;Node9 -->
<g id="edge9" class="edge">
<title>Node6&#45;&gt;Node9</title>
<path fill="none" stroke="midnightblue" d="M518,-190.4C514.01,-182.3 508.91,-171.94 504.35,-162.69"/>
<polygon fill="midnightblue" stroke="midnightblue" points="507.43,-161 499.87,-153.58 501.15,-164.09 507.43,-161"/>
</g>
<!-- Node11 -->
<g id="node11" class="node">
<title>Node11</title>
<g id="a_node11"><a xlink:href="TemplateHelpers_8h_source.html" target="_top" xlink:title=" ">
<polygon fill="none" stroke="black" points="608.44,-56.5 608.44,-86.5 751.44,-86.5 751.44,-56.5 608.44,-56.5"/>
<text text-anchor="start" x="616.44" y="-74.5" font-family="Helvetica,sans-Serif" font-size="10.00">BipedalLocomotion/Generic</text>
<text text-anchor="middle" x="679.94" y="-63.5" font-family="Helvetica,sans-Serif" font-size="10.00">Container/TemplateHelpers.h</text>
</a>
</g>
</g>
<!-- Node6&#45;&gt;Node11 -->
<g id="edge19" class="edge">
<title>Node6&#45;&gt;Node11</title>
<path fill="none" stroke="midnightblue" d="M538.09,-190.22C553.93,-173.36 581.7,-144.83 607.94,-123 620.91,-112.21 636.1,-101.33 649.17,-92.44"/>
<polygon fill="midnightblue" stroke="midnightblue" points="651.48,-95.11 657.83,-86.63 647.58,-89.29 651.48,-95.11"/>
</g>
<!-- Node9&#45;&gt;Node2 -->
<g id="edge18" class="edge">
<title>Node9&#45;&gt;Node2</title>
<path fill="none" stroke="midnightblue" d="M424.84,-124.03C358.92,-110.88 266.57,-92.12 249.94,-87 247.79,-86.34 245.6,-85.6 243.41,-84.81"/>
<polygon fill="midnightblue" stroke="midnightblue" points="244.55,-81.49 233.96,-81.14 242.01,-88.02 244.55,-81.49"/>
</g>
<!-- Node10 -->
<g id="node10" class="node">
<title>Node10</title>
<g id="a_node10"><a xlink:title=" ">
<polygon fill="none" stroke="#bfbfbf" points="258.94,-62 258.94,-81 372.94,-81 372.94,-62 258.94,-62"/>
<text text-anchor="middle" x="315.94" y="-69" font-family="Helvetica,sans-Serif" font-size="10.00">iDynTree/Core/Span.h</text>
</a>
</g>
</g>
<!-- Node9&#45;&gt;Node10 -->
<g id="edge10" class="edge">
<title>Node9&#45;&gt;Node10</title>
<path fill="none" stroke="midnightblue" d="M454.53,-123.4C422.93,-111.79 378.61,-95.51 348.67,-84.52"/>
<polygon fill="midnightblue" stroke="midnightblue" points="349.7,-81.17 339.1,-81.01 347.28,-87.74 349.7,-81.17"/>
</g>
<!-- Node9&#45;&gt;Node11 -->
<g id="edge11" class="edge">
<title>Node9&#45;&gt;Node11</title>
<path fill="none" stroke="midnightblue" d="M533.52,-123.4C561.82,-113.56 599.77,-100.37 629.94,-89.88"/>
<polygon fill="midnightblue" stroke="midnightblue" points="631.15,-93.17 639.44,-86.58 628.85,-86.55 631.15,-93.17"/>
</g>
<!-- Node15 -->
<g id="node15" class="node">
<title>Node15</title>
<g id="a_node15"><a xlink:title=" ">
<polygon fill="none" stroke="#bfbfbf" points="391.44,-62 391.44,-81 450.44,-81 450.44,-62 391.44,-62"/>
<text text-anchor="middle" x="420.94" y="-69" font-family="Helvetica,sans-Serif" font-size="10.00">functional</text>
</a>
</g>
</g>
<!-- Node9&#45;&gt;Node15 -->
<g id="edge15" class="edge">
<title>Node9&#45;&gt;Node15</title>
<path fill="none" stroke="midnightblue" d="M477.32,-123.4C465.76,-112.96 450.02,-98.75 438.11,-88"/>
<polygon fill="midnightblue" stroke="midnightblue" points="440.34,-85.3 430.57,-81.19 435.65,-90.49 440.34,-85.3"/>
</g>
<!-- Node16 -->
<g id="node16" class="node">
<title>Node16</title>
<g id="a_node16"><a xlink:title=" ">
<polygon fill="none" stroke="#bfbfbf" points="468.44,-62 468.44,-81 517.44,-81 517.44,-62 468.44,-62"/>
<text text-anchor="middle" x="492.94" y="-69" font-family="Helvetica,sans-Serif" font-size="10.00">cassert</text>
</a>
</g>
</g>
<!-- Node9&#45;&gt;Node16 -->
<g id="edge16" class="edge">
<title>Node9&#45;&gt;Node16</title>
<path fill="none" stroke="midnightblue" d="M492.94,-123.4C492.94,-114.06 492.94,-101.71 492.94,-91.52"/>
<polygon fill="midnightblue" stroke="midnightblue" points="496.44,-91.19 492.94,-81.19 489.44,-91.19 496.44,-91.19"/>
</g>
<!-- Node17 -->
<g id="node17" class="node">
<title>Node17</title>
<g id="a_node17"><a xlink:title=" ">
<polygon fill="none" stroke="#bfbfbf" points="535.94,-62 535.94,-81 589.94,-81 589.94,-62 535.94,-62"/>
<text text-anchor="middle" x="562.94" y="-69" font-family="Helvetica,sans-Serif" font-size="10.00">iostream</text>
</a>
</g>
</g>
<!-- Node9&#45;&gt;Node17 -->
<g id="edge17" class="edge">
<title>Node9&#45;&gt;Node17</title>
<path fill="none" stroke="midnightblue" d="M508.13,-123.4C519.26,-113.06 534.38,-99.02 545.91,-88.31"/>
<polygon fill="midnightblue" stroke="midnightblue" points="548.63,-90.56 553.58,-81.19 543.87,-85.43 548.63,-90.56"/>
</g>
<!-- Node12 -->
<g id="node12" class="node">
<title>Node12</title>
<g id="a_node12"><a xlink:title=" ">
<polygon fill="none" stroke="#bfbfbf" points="566.94,-0.5 566.94,-19.5 628.94,-19.5 628.94,-0.5 566.94,-0.5"/>
<text text-anchor="middle" x="597.94" y="-7.5" font-family="Helvetica,sans-Serif" font-size="10.00">type_traits</text>
</a>
</g>
</g>
<!-- Node11&#45;&gt;Node12 -->
<g id="edge12" class="edge">
<title>Node11&#45;&gt;Node12</title>
<path fill="none" stroke="midnightblue" d="M660.51,-56.4C647.73,-47.13 631.05,-35.03 618.12,-25.65"/>
<polygon fill="midnightblue" stroke="midnightblue" points="620.02,-22.7 609.87,-19.66 615.91,-28.36 620.02,-22.7"/>
</g>
<!-- Node13 -->
<g id="node13" class="node">
<title>Node13</title>
<g id="a_node13"><a xlink:title=" ">
<polygon fill="none" stroke="#bfbfbf" points="646.94,-0.5 646.94,-19.5 712.94,-19.5 712.94,-0.5 646.94,-0.5"/>
<text text-anchor="middle" x="679.94" y="-7.5" font-family="Helvetica,sans-Serif" font-size="10.00">string_view</text>
</a>
</g>
</g>
<!-- Node11&#45;&gt;Node13 -->
<g id="edge13" class="edge">
<title>Node11&#45;&gt;Node13</title>
<path fill="none" stroke="midnightblue" d="M679.94,-56.4C679.94,-48.47 679.94,-38.46 679.94,-29.86"/>
<polygon fill="midnightblue" stroke="midnightblue" points="683.44,-29.66 679.94,-19.66 676.44,-29.66 683.44,-29.66"/>
</g>
<!-- Node14 -->
<g id="node14" class="node">
<title>Node14</title>
<g id="a_node14"><a xlink:title=" ">
<polygon fill="none" stroke="#bfbfbf" points="731.44,-0.5 731.44,-19.5 796.44,-19.5 796.44,-0.5 731.44,-0.5"/>
<text text-anchor="middle" x="763.94" y="-7.5" font-family="Helvetica,sans-Serif" font-size="10.00">Eigen/Core</text>
</a>
</g>
</g>
<!-- Node11&#45;&gt;Node14 -->
<g id="edge14" class="edge">
<title>Node11&#45;&gt;Node14</title>
<path fill="none" stroke="midnightblue" d="M699.85,-56.4C712.93,-47.13 730.02,-35.03 743.26,-25.65"/>
<polygon fill="midnightblue" stroke="midnightblue" points="745.58,-28.29 751.72,-19.66 741.53,-22.58 745.58,-28.29"/>
</g>
<!-- Node18&#45;&gt;Node7 -->
<g id="edge21" class="edge">
<title>Node18&#45;&gt;Node7</title>
<path fill="none" stroke="midnightblue" d="M676.31,-190.4C668.74,-180.36 658.55,-166.84 650.57,-156.25"/>
<polygon fill="midnightblue" stroke="midnightblue" points="653.31,-154.07 644.49,-148.19 647.72,-158.29 653.31,-154.07"/>
</g>
<!-- Node19 -->
<g id="node19" class="node">
<title>Node19</title>
<g id="a_node19"><a xlink:title=" ">
<polygon fill="none" stroke="#bfbfbf" points="676.44,-129 676.44,-148 759.44,-148 759.44,-129 676.44,-129"/>
<text text-anchor="middle" x="717.94" y="-136" font-family="Helvetica,sans-Serif" font-size="10.00">unordered_map</text>
</a>
</g>
</g>
<!-- Node18&#45;&gt;Node19 -->
<g id="edge22" class="edge">
<title>Node18&#45;&gt;Node19</title>
<path fill="none" stroke="midnightblue" d="M693.67,-190.4C698.26,-180.76 704.39,-167.91 709.34,-157.54"/>
<polygon fill="midnightblue" stroke="midnightblue" points="712.65,-158.73 713.79,-148.19 706.33,-155.71 712.65,-158.73"/>
</g>
</g>
</svg>
