<?xml version="1.0" encoding="UTF-8" standalone="no"?>
<!DOCTYPE svg PUBLIC "-//W3C//DTD SVG 1.1//EN"
 "http://www.w3.org/Graphics/SVG/1.1/DTD/svg11.dtd">
<!-- Generated by graphviz version 2.43.0 (0)
 -->
<!-- Title: System/src/LinearTimeInvariantSystem.cpp Pages: 1 -->
<!--zoomable 430 -->
<svg id="main" version="1.1" xmlns="http://www.w3.org/2000/svg" xmlns:xlink="http://www.w3.org/1999/xlink" xml:space="preserve" onload="init(evt)">
<style type="text/css"><![CDATA[
.edge:hover path { stroke: red; }
.edge:hover polygon { stroke: red; fill: red; }
]]></style>
<script type="text/javascript"><![CDATA[
var edges = document.getElementsByTagName('g');
if (edges && edges.length) {
  for (var i=0;i<edges.length;i++) {
    if (edges[i].id.substr(0,4)=='edge') {
      edges[i].setAttribute('class','edge');
    }
  }
}
]]></script>
        <defs>
                <circle id="rim" cx="0" cy="0" r="7"/>
                <circle id="rim2" cx="0" cy="0" r="3.5"/>
                <g id="zoomPlus">
                        <use xlink:href="#rim" fill="#404040">
                                <set attributeName="fill" to="#808080" begin="zoomplus.mouseover" end="zoomplus.mouseout"/>
                        </use>
                        <path d="M-4,0h8M0,-4v8" fill="none" stroke="white" stroke-width="1.5" pointer-events="none"/>
                </g>
                <g id="zoomMin">
                        <use xlink:href="#rim" fill="#404040">
                                <set attributeName="fill" to="#808080" begin="zoomminus.mouseover" end="zoomminus.mouseout"/>
                        </use>
                        <path d="M-4,0h8" fill="none" stroke="white" stroke-width="1.5" pointer-events="none"/>
                </g>
                <g id="dirArrow">
                        <path fill="none" stroke="white" stroke-width="1.5" d="M0,-3.0v7 M-2.5,-0.5L0,-3.0L2.5,-0.5"/>
                </g>
               <g id="resetDef">
                       <use xlink:href="#rim2" fill="#404040">
                               <set attributeName="fill" to="#808080" begin="reset.mouseover" end="reset.mouseout"/>
                       </use>
               </g>
        </defs>

<script type="text/javascript">
var viewWidth = 714;
var viewHeight = 430;
var sectionId = 'dynsection-0';
</script>
<script xlink:href="svgpan.js"/>
<svg id="graph" class="graph">
<g id="viewport">
<title>System/src/LinearTimeInvariantSystem.cpp</title>
<!-- Node1 -->
<g id="node1" class="node">
<title>Node1</title>
<g id="a_node1"><a xlink:title=" ">
<polygon fill="#bfbfbf" stroke="black" points="198.5,-391.5 198.5,-421.5 353.5,-421.5 353.5,-391.5 198.5,-391.5"/>
<text text-anchor="start" x="206.5" y="-409.5" font-family="Helvetica,sans-Serif" font-size="10.00">System/src/LinearTimeInvariant</text>
<text text-anchor="middle" x="276" y="-398.5" font-family="Helvetica,sans-Serif" font-size="10.00">System.cpp</text>
</a>
</g>
</g>
<!-- Node2 -->
<g id="node2" class="node">
<title>Node2</title>
<g id="a_node2"><a xlink:title=" ">
<polygon fill="none" stroke="#bfbfbf" points="0,-62 0,-81 54,-81 54,-62 0,-62"/>
<text text-anchor="middle" x="27" y="-69" font-family="Helvetica,sans-Serif" font-size="10.00">iostream</text>
</a>
</g>
</g>
<!-- Node1&#45;&gt;Node2 -->
<g id="edge1" class="edge">
<title>Node1&#45;&gt;Node2</title>
<path fill="none" stroke="midnightblue" d="M198.28,-392.59C133.59,-376.88 52,-343.24 52,-273.5 52,-273.5 52,-273.5 52,-204.5 52,-163.26 40.07,-116.01 32.69,-90.73"/>
<polygon fill="midnightblue" stroke="midnightblue" points="36.01,-89.61 29.77,-81.04 29.31,-91.63 36.01,-89.61"/>
</g>
<!-- Node3 -->
<g id="node3" class="node">
<title>Node3</title>
<g id="a_node3"><a xlink:href="LinearTimeInvariantSystem_8h.html" target="_top" xlink:title=" ">
<polygon fill="none" stroke="black" points="446.5,-324.5 446.5,-354.5 593.5,-354.5 593.5,-324.5 446.5,-324.5"/>
<text text-anchor="start" x="454.5" y="-342.5" font-family="Helvetica,sans-Serif" font-size="10.00">BipedalLocomotion/System</text>
<text text-anchor="middle" x="520" y="-331.5" font-family="Helvetica,sans-Serif" font-size="10.00">/LinearTimeInvariantSystem.h</text>
</a>
</g>
</g>
<!-- Node1&#45;&gt;Node3 -->
<g id="edge2" class="edge">
<title>Node1&#45;&gt;Node3</title>
<path fill="none" stroke="midnightblue" d="M328.64,-391.48C366.36,-381.43 417.31,-367.86 457.15,-357.24"/>
<polygon fill="midnightblue" stroke="midnightblue" points="458.27,-360.57 467.03,-354.61 456.47,-353.8 458.27,-360.57"/>
</g>
<!-- Node4 -->
<g id="node4" class="node">
<title>Node4</title>
<g id="a_node4"><a xlink:title=" ">
<polygon fill="none" stroke="#bfbfbf" points="552,-62 552,-81 604,-81 604,-62 552,-62"/>
<text text-anchor="middle" x="578" y="-69" font-family="Helvetica,sans-Serif" font-size="10.00">memory</text>
</a>
</g>
</g>
<!-- Node3&#45;&gt;Node4 -->
<g id="edge3" class="edge">
<title>Node3&#45;&gt;Node4</title>
<path fill="none" stroke="midnightblue" d="M593.89,-335.49C628.4,-329.95 666.7,-317.02 689,-288 715.54,-253.45 707.28,-230.41 691,-190 672.66,-144.48 627.32,-106.72 599.97,-87.09"/>
<polygon fill="midnightblue" stroke="midnightblue" points="601.66,-83.99 591.45,-81.14 597.65,-89.73 601.66,-83.99"/>
</g>
<!-- Node5 -->
<g id="node5" class="node">
<title>Node5</title>
<g id="a_node5"><a xlink:title=" ">
<polygon fill="none" stroke="#bfbfbf" points="100,-129 100,-148 144,-148 144,-129 100,-129"/>
<text text-anchor="middle" x="122" y="-136" font-family="Helvetica,sans-Serif" font-size="10.00">vector</text>
</a>
</g>
</g>
<!-- Node3&#45;&gt;Node5 -->
<g id="edge4" class="edge">
<title>Node3&#45;&gt;Node5</title>
<path fill="none" stroke="midnightblue" d="M477.04,-324.34C419.97,-304.73 316.83,-266.55 235,-221 199.52,-201.25 161.98,-172.36 140.34,-154.8"/>
<polygon fill="midnightblue" stroke="midnightblue" points="142.3,-151.88 132.35,-148.25 137.86,-157.3 142.3,-151.88"/>
</g>
<!-- Node6 -->
<g id="node6" class="node">
<title>Node6</title>
<g id="a_node6"><a xlink:href="DynamicalSystem_8h.html" target="_top" xlink:title=" ">
<polygon fill="none" stroke="black" points="452,-257.5 452,-287.5 588,-287.5 588,-257.5 452,-257.5"/>
<text text-anchor="start" x="460" y="-275.5" font-family="Helvetica,sans-Serif" font-size="10.00">BipedalLocomotion/System</text>
<text text-anchor="middle" x="520" y="-264.5" font-family="Helvetica,sans-Serif" font-size="10.00">/DynamicalSystem.h</text>
</a>
</g>
</g>
<!-- Node3&#45;&gt;Node6 -->
<g id="edge5" class="edge">
<title>Node3&#45;&gt;Node6</title>
<path fill="none" stroke="midnightblue" d="M520,-324.4C520,-316.64 520,-306.81 520,-297.86"/>
<polygon fill="midnightblue" stroke="midnightblue" points="523.5,-297.58 520,-287.58 516.5,-297.58 523.5,-297.58"/>
</g>
<!-- Node19 -->
<g id="node19" class="node">
<title>Node19</title>
<g id="a_node19"><a xlink:title=" ">
<polygon fill="none" stroke="#bfbfbf" points="606.5,-263 606.5,-282 679.5,-282 679.5,-263 606.5,-263"/>
<text text-anchor="middle" x="643" y="-270" font-family="Helvetica,sans-Serif" font-size="10.00">Eigen/Dense</text>
</a>
</g>
</g>
<!-- Node3&#45;&gt;Node19 -->
<g id="edge26" class="edge">
<title>Node3&#45;&gt;Node19</title>
<path fill="none" stroke="midnightblue" d="M546.69,-324.4C567.89,-313.19 597.32,-297.64 618.05,-286.69"/>
<polygon fill="midnightblue" stroke="midnightblue" points="619.7,-289.77 626.9,-282.01 616.43,-283.58 619.7,-289.77"/>
</g>
<!-- Node6&#45;&gt;Node4 -->
<g id="edge6" class="edge">
<title>Node6&#45;&gt;Node4</title>
<path fill="none" stroke="midnightblue" d="M555.99,-257.35C571.55,-249.22 588.19,-237.32 597,-221 619.88,-178.63 599.7,-119.82 586.79,-90.55"/>
<polygon fill="midnightblue" stroke="midnightblue" points="589.84,-88.79 582.46,-81.19 583.48,-91.73 589.84,-88.79"/>
</g>
<!-- Node7 -->
<g id="node7" class="node">
<title>Node7</title>
<g id="a_node7"><a xlink:title=" ">
<polygon fill="none" stroke="#bfbfbf" points="644,-196 644,-215 682,-215 682,-196 644,-196"/>
<text text-anchor="middle" x="663" y="-203" font-family="Helvetica,sans-Serif" font-size="10.00">tuple</text>
</a>
</g>
</g>
<!-- Node6&#45;&gt;Node7 -->
<g id="edge7" class="edge">
<title>Node6&#45;&gt;Node7</title>
<path fill="none" stroke="midnightblue" d="M551.03,-257.4C576.01,-246.04 610.82,-230.22 634.96,-219.24"/>
<polygon fill="midnightblue" stroke="midnightblue" points="636.63,-222.33 644.28,-215.01 633.73,-215.96 636.63,-222.33"/>
</g>
<!-- Node8 -->
<g id="node8" class="node">
<title>Node8</title>
<g id="a_node8"><a xlink:href="TemplateHelpers_8h_source.html" target="_top" xlink:title=" ">
<polygon fill="none" stroke="black" points="348.5,-56.5 348.5,-86.5 491.5,-86.5 491.5,-56.5 348.5,-56.5"/>
<text text-anchor="start" x="356.5" y="-74.5" font-family="Helvetica,sans-Serif" font-size="10.00">BipedalLocomotion/Generic</text>
<text text-anchor="middle" x="420" y="-63.5" font-family="Helvetica,sans-Serif" font-size="10.00">Container/TemplateHelpers.h</text>
</a>
</g>
</g>
<!-- Node6&#45;&gt;Node8 -->
<g id="edge8" class="edge">
<title>Node6&#45;&gt;Node8</title>
<path fill="none" stroke="midnightblue" d="M486.29,-257.33C470.66,-249.03 453.3,-237 443,-221 418.49,-182.93 416.64,-128.24 417.99,-96.95"/>
<polygon fill="midnightblue" stroke="midnightblue" points="421.49,-97.11 418.57,-86.92 414.5,-96.7 421.49,-97.11"/>
</g>
<!-- Node12 -->
<g id="node12" class="node">
<title>Node12</title>
<g id="a_node12"><a xlink:href="IParametersHandler_8h.html" target="_top" xlink:title=" ">
<polygon fill="none" stroke="black" points="244,-190.5 244,-220.5 396,-220.5 396,-190.5 244,-190.5"/>
<text text-anchor="start" x="252" y="-208.5" font-family="Helvetica,sans-Serif" font-size="10.00">BipedalLocomotion/Parameters</text>
<text text-anchor="middle" x="320" y="-197.5" font-family="Helvetica,sans-Serif" font-size="10.00">Handler/IParametersHandler.h</text>
</a>
</g>
</g>
<!-- Node6&#45;&gt;Node12 -->
<g id="edge12" class="edge">
<title>Node6&#45;&gt;Node12</title>
<path fill="none" stroke="midnightblue" d="M476.6,-257.4C446.2,-247.52 405.39,-234.25 373.06,-223.74"/>
<polygon fill="midnightblue" stroke="midnightblue" points="373.9,-220.34 363.31,-220.58 371.74,-227 373.9,-220.34"/>
</g>
<!-- Node18 -->
<g id="node18" class="node">
<title>Node18</title>
<g id="a_node18"><a xlink:href="DynamicalSystem_8tpp.html" target="_top" xlink:title=" ">
<polygon fill="none" stroke="black" points="452,-190.5 452,-220.5 588,-220.5 588,-190.5 452,-190.5"/>
<text text-anchor="start" x="460" y="-208.5" font-family="Helvetica,sans-Serif" font-size="10.00">BipedalLocomotion/System</text>
<text text-anchor="middle" x="520" y="-197.5" font-family="Helvetica,sans-Serif" font-size="10.00">/DynamicalSystem.tpp</text>
</a>
</g>
</g>
<!-- Node6&#45;&gt;Node18 -->
<g id="edge24" class="edge">
<title>Node6&#45;&gt;Node18</title>
<path fill="none" stroke="midnightblue" d="M514.32,-257.4C513.29,-249.56 513.01,-239.6 513.46,-230.57"/>
<polygon fill="midnightblue" stroke="midnightblue" points="516.95,-230.84 514.33,-220.58 509.97,-230.24 516.95,-230.84"/>
</g>
<!-- Node9 -->
<g id="node9" class="node">
<title>Node9</title>
<g id="a_node9"><a xlink:title=" ">
<polygon fill="none" stroke="#bfbfbf" points="307,-0.5 307,-19.5 369,-19.5 369,-0.5 307,-0.5"/>
<text text-anchor="middle" x="338" y="-7.5" font-family="Helvetica,sans-Serif" font-size="10.00">type_traits</text>
</a>
</g>
</g>
<!-- Node8&#45;&gt;Node9 -->
<g id="edge9" class="edge">
<title>Node8&#45;&gt;Node9</title>
<path fill="none" stroke="midnightblue" d="M400.57,-56.4C387.79,-47.13 371.11,-35.03 358.19,-25.65"/>
<polygon fill="midnightblue" stroke="midnightblue" points="360.08,-22.7 349.93,-19.66 355.97,-28.36 360.08,-22.7"/>
</g>
<!-- Node10 -->
<g id="node10" class="node">
<title>Node10</title>
<g id="a_node10"><a xlink:title=" ">
<polygon fill="none" stroke="#bfbfbf" points="387,-0.5 387,-19.5 453,-19.5 453,-0.5 387,-0.5"/>
<text text-anchor="middle" x="420" y="-7.5" font-family="Helvetica,sans-Serif" font-size="10.00">string_view</text>
</a>
</g>
</g>
<!-- Node8&#45;&gt;Node10 -->
<g id="edge10" class="edge">
<title>Node8&#45;&gt;Node10</title>
<path fill="none" stroke="midnightblue" d="M420,-56.4C420,-48.47 420,-38.46 420,-29.86"/>
<polygon fill="midnightblue" stroke="midnightblue" points="423.5,-29.66 420,-19.66 416.5,-29.66 423.5,-29.66"/>
</g>
<!-- Node11 -->
<g id="node11" class="node">
<title>Node11</title>
<g id="a_node11"><a xlink:title=" ">
<polygon fill="none" stroke="#bfbfbf" points="471.5,-0.5 471.5,-19.5 536.5,-19.5 536.5,-0.5 471.5,-0.5"/>
<text text-anchor="middle" x="504" y="-7.5" font-family="Helvetica,sans-Serif" font-size="10.00">Eigen/Core</text>
</a>
</g>
</g>
<!-- Node8&#45;&gt;Node11 -->
<g id="edge11" class="edge">
<title>Node8&#45;&gt;Node11</title>
<path fill="none" stroke="midnightblue" d="M439.91,-56.4C452.99,-47.13 470.08,-35.03 483.32,-25.65"/>
<polygon fill="midnightblue" stroke="midnightblue" points="485.64,-28.29 491.78,-19.66 481.59,-22.58 485.64,-28.29"/>
</g>
<!-- Node12&#45;&gt;Node4 -->
<g id="edge13" class="edge">
<title>Node12&#45;&gt;Node4</title>
<path fill="none" stroke="midnightblue" d="M347.61,-190.37C397.82,-164.68 503.39,-110.67 552.22,-85.69"/>
<polygon fill="midnightblue" stroke="midnightblue" points="553.89,-88.77 561.2,-81.1 550.7,-82.54 553.89,-88.77"/>
</g>
<!-- Node12&#45;&gt;Node5 -->
<g id="edge15" class="edge">
<title>Node12&#45;&gt;Node5</title>
<path fill="none" stroke="midnightblue" d="M266.69,-190.49C233.57,-181.27 190.34,-168.29 153,-154 151.58,-153.46 150.13,-152.88 148.68,-152.27"/>
<polygon fill="midnightblue" stroke="midnightblue" points="149.75,-148.92 139.19,-148.08 146.92,-155.32 149.75,-148.92"/>
</g>
<!-- Node12&#45;&gt;Node8 -->
<g id="edge23" class="edge">
<title>Node12&#45;&gt;Node8</title>
<path fill="none" stroke="midnightblue" d="M321.45,-190.24C323.84,-172.86 329.93,-143.33 345,-123 354.34,-110.4 367.82,-99.94 380.78,-91.87"/>
<polygon fill="midnightblue" stroke="midnightblue" points="382.77,-94.76 389.61,-86.67 379.22,-88.73 382.77,-94.76"/>
</g>
<!-- Node13 -->
<g id="node13" class="node">
<title>Node13</title>
<g id="a_node13"><a xlink:title=" ">
<polygon fill="none" stroke="#bfbfbf" points="354.5,-129 354.5,-148 395.5,-148 395.5,-129 354.5,-129"/>
<text text-anchor="middle" x="375" y="-136" font-family="Helvetica,sans-Serif" font-size="10.00">string</text>
</a>
</g>
</g>
<!-- Node12&#45;&gt;Node13 -->
<g id="edge14" class="edge">
<title>Node12&#45;&gt;Node13</title>
<path fill="none" stroke="midnightblue" d="M331.93,-190.4C340.51,-180.26 352.1,-166.57 361.09,-155.94"/>
<polygon fill="midnightblue" stroke="midnightblue" points="363.86,-158.09 367.64,-148.19 358.51,-153.57 363.86,-158.09"/>
</g>
<!-- Node14 -->
<g id="node14" class="node">
<title>Node14</title>
<g id="a_node14"><a xlink:href="Vector_8h_source.html" target="_top" xlink:title=" ">
<polygon fill="none" stroke="black" points="162,-123.5 162,-153.5 298,-153.5 298,-123.5 162,-123.5"/>
<text text-anchor="start" x="170" y="-141.5" font-family="Helvetica,sans-Serif" font-size="10.00">BipedalLocomotion/Generic</text>
<text text-anchor="middle" x="230" y="-130.5" font-family="Helvetica,sans-Serif" font-size="10.00">Container/Vector.h</text>
</a>
</g>
</g>
<!-- Node12&#45;&gt;Node14 -->
<g id="edge16" class="edge">
<title>Node12&#45;&gt;Node14</title>
<path fill="none" stroke="midnightblue" d="M300.47,-190.4C287.97,-181.37 271.56,-169.51 257.72,-159.52"/>
<polygon fill="midnightblue" stroke="midnightblue" points="259.65,-156.59 249.49,-153.58 255.55,-162.27 259.65,-156.59"/>
</g>
<!-- Node14&#45;&gt;Node2 -->
<g id="edge21" class="edge">
<title>Node14&#45;&gt;Node2</title>
<path fill="none" stroke="midnightblue" d="M179.2,-123.41C145.91,-113.87 101.57,-100.57 63,-87 61.09,-86.33 59.14,-85.62 57.17,-84.88"/>
<polygon fill="midnightblue" stroke="midnightblue" points="58.03,-81.46 47.44,-81.1 55.49,-87.98 58.03,-81.46"/>
</g>
<!-- Node14&#45;&gt;Node4 -->
<g id="edge22" class="edge">
<title>Node14&#45;&gt;Node4</title>
<path fill="none" stroke="midnightblue" d="M298.34,-124.74C371.39,-111.09 484.42,-89.98 541.85,-79.25"/>
<polygon fill="midnightblue" stroke="midnightblue" points="542.71,-82.65 551.9,-77.37 541.43,-75.77 542.71,-82.65"/>
</g>
<!-- Node14&#45;&gt;Node8 -->
<g id="edge18" class="edge">
<title>Node14&#45;&gt;Node8</title>
<path fill="none" stroke="midnightblue" d="M271.23,-123.4C299.98,-113.56 338.54,-100.37 369.2,-89.88"/>
<polygon fill="midnightblue" stroke="midnightblue" points="370.52,-93.13 378.85,-86.58 368.26,-86.5 370.52,-93.13"/>
</g>
<!-- Node15 -->
<g id="node15" class="node">
<title>Node15</title>
<g id="a_node15"><a xlink:title=" ">
<polygon fill="none" stroke="#bfbfbf" points="72,-62 72,-81 186,-81 186,-62 72,-62"/>
<text text-anchor="middle" x="129" y="-69" font-family="Helvetica,sans-Serif" font-size="10.00">iDynTree/Core/Span.h</text>
</a>
</g>
</g>
<!-- Node14&#45;&gt;Node15 -->
<g id="edge17" class="edge">
<title>Node14&#45;&gt;Node15</title>
<path fill="none" stroke="midnightblue" d="M208.08,-123.4C191.15,-112.5 167.81,-97.48 150.88,-86.58"/>
<polygon fill="midnightblue" stroke="midnightblue" points="152.52,-83.48 142.22,-81.01 148.73,-89.36 152.52,-83.48"/>
</g>
<!-- Node16 -->
<g id="node16" class="node">
<title>Node16</title>
<g id="a_node16"><a xlink:title=" ">
<polygon fill="none" stroke="#bfbfbf" points="204.5,-62 204.5,-81 263.5,-81 263.5,-62 204.5,-62"/>
<text text-anchor="middle" x="234" y="-69" font-family="Helvetica,sans-Serif" font-size="10.00">functional</text>
</a>
</g>
</g>
<!-- Node14&#45;&gt;Node16 -->
<g id="edge19" class="edge">
<title>Node14&#45;&gt;Node16</title>
<path fill="none" stroke="midnightblue" d="M230.87,-123.4C231.45,-113.96 232.22,-101.45 232.85,-91.19"/>
<polygon fill="midnightblue" stroke="midnightblue" points="236.34,-91.39 233.46,-81.19 229.36,-90.96 236.34,-91.39"/>
</g>
<!-- Node17 -->
<g id="node17" class="node">
<title>Node17</title>
<g id="a_node17"><a xlink:title=" ">
<polygon fill="none" stroke="#bfbfbf" points="281.5,-62 281.5,-81 330.5,-81 330.5,-62 281.5,-62"/>
<text text-anchor="middle" x="306" y="-69" font-family="Helvetica,sans-Serif" font-size="10.00">cassert</text>
</a>
</g>
</g>
<!-- Node14&#45;&gt;Node17 -->
<g id="edge20" class="edge">
<title>Node14&#45;&gt;Node17</title>
<path fill="none" stroke="midnightblue" d="M246.49,-123.4C258.69,-112.96 275.31,-98.75 287.88,-88"/>
<polygon fill="midnightblue" stroke="midnightblue" points="290.51,-90.35 295.83,-81.19 285.96,-85.03 290.51,-90.35"/>
</g>
<!-- Node18&#45;&gt;Node6 -->
<g id="edge25" class="edge">
<title>Node18&#45;&gt;Node6</title>
<path fill="none" stroke="midnightblue" d="M525.67,-220.58C526.7,-228.41 526.99,-238.37 526.55,-247.4"/>
<polygon fill="midnightblue" stroke="midnightblue" points="523.06,-247.13 525.68,-257.4 530.03,-247.74 523.06,-247.13"/>
</g>
</g>
</svg>
        <g id="navigator" transform="translate(0 0)" fill="#404254">
                <rect fill="#f2f5e9" fill-opacity="0.5" stroke="#606060" stroke-width=".5" x="0" y="0" width="60" height="60"/>
                <use id="zoomplus" xlink:href="#zoomPlus" x="17" y="9" onmousedown="handleZoom(evt,'in')"/>
                <use id="zoomminus" xlink:href="#zoomMin" x="42" y="9" onmousedown="handleZoom(evt,'out')"/>
                <use id="reset" xlink:href="#resetDef" x="30" y="36" onmousedown="handleReset()"/>
                <g id="arrowUp" xlink:href="#dirArrow" transform="translate(30 24)" onmousedown="handlePan(0,-1)">
                  <use xlink:href="#rim" fill="#404040">
                        <set attributeName="fill" to="#808080" begin="arrowUp.mouseover" end="arrowUp.mouseout"/>
                  </use>
                  <path fill="none" stroke="white" stroke-width="1.5" d="M0,-3.0v7 M-2.5,-0.5L0,-3.0L2.5,-0.5"/>
                </g>
                <g id="arrowRight" xlink:href="#dirArrow" transform="rotate(90) translate(36 -43)" onmousedown="handlePan(1,0)">
                  <use xlink:href="#rim" fill="#404040">
                        <set attributeName="fill" to="#808080" begin="arrowRight.mouseover" end="arrowRight.mouseout"/>
                  </use>
                  <path fill="none" stroke="white" stroke-width="1.5" d="M0,-3.0v7 M-2.5,-0.5L0,-3.0L2.5,-0.5"/>
                </g>
                <g id="arrowDown" xlink:href="#dirArrow" transform="rotate(180) translate(-30 -48)" onmousedown="handlePan(0,1)">
                  <use xlink:href="#rim" fill="#404040">
                        <set attributeName="fill" to="#808080" begin="arrowDown.mouseover" end="arrowDown.mouseout"/>
                  </use>
                  <path fill="none" stroke="white" stroke-width="1.5" d="M0,-3.0v7 M-2.5,-0.5L0,-3.0L2.5,-0.5"/>
                </g>
                <g id="arrowLeft" xlink:href="#dirArrow" transform="rotate(270) translate(-36 17)" onmousedown="handlePan(-1,0)">
                  <use xlink:href="#rim" fill="#404040">
                        <set attributeName="fill" to="#808080" begin="arrowLeft.mouseover" end="arrowLeft.mouseout"/>
                  </use>
                  <path fill="none" stroke="white" stroke-width="1.5" d="M0,-3.0v7 M-2.5,-0.5L0,-3.0L2.5,-0.5"/>
                </g>
        </g>
        <svg viewBox="0 0 15 15" width="100%" height="30px" preserveAspectRatio="xMaxYMin meet">
         <g id="arrow_out" transform="scale(0.3 0.3)">
          <a xlink:href="LinearTimeInvariantSystem_8cpp__incl_org.svg" target="_base">
           <rect id="button" ry="5" rx="5" y="6" x="6" height="38" width="38"
                fill="#f2f5e9" fill-opacity="0.5" stroke="#606060" stroke-width="1.0"/>
           <path id="arrow"
             d="M 11.500037,31.436501 C 11.940474,20.09759 22.043105,11.32322 32.158766,21.979434 L 37.068811,17.246167 C 37.068811,17.246167 37.088388,32 37.088388,32 L 22.160133,31.978069 C 22.160133,31.978069 26.997745,27.140456 26.997745,27.140456 C 18.528582,18.264221 13.291696,25.230495 11.500037,31.436501 z"
             style="fill:#404040;"/>
          </a>
         </g>
        </svg>
</svg>
