<?xml version="1.0" encoding="UTF-8" standalone="no"?>
<!DOCTYPE svg PUBLIC "-//W3C//DTD SVG 1.1//EN"
 "http://www.w3.org/Graphics/SVG/1.1/DTD/svg11.dtd">
<!-- Generated by graphviz version 2.43.0 (0)
 -->
<!-- Title: IK/include/BipedalLocomotion/IK/LinearTask.h Pages: 1 -->
<svg width="1024pt" height="229pt"
 viewBox="0.00 0.00 1023.50 229.00" xmlns="http://www.w3.org/2000/svg" xmlns:xlink="http://www.w3.org/1999/xlink">
<g id="graph0" class="graph" transform="scale(1 1) rotate(0) translate(4 225)">
<title>IK/include/BipedalLocomotion/IK/LinearTask.h</title>
<!-- Node1 -->
<g id="node1" class="node">
<title>Node1</title>
<g id="a_node1"><a xlink:title=" ">
<polygon fill="#bfbfbf" stroke="black" points="411.5,-190.5 411.5,-220.5 557.5,-220.5 557.5,-190.5 411.5,-190.5"/>
<text text-anchor="start" x="419.5" y="-208.5" font-family="Helvetica,sans-Serif" font-size="10.00">IK/include/BipedalLocomotion</text>
<text text-anchor="middle" x="484.5" y="-197.5" font-family="Helvetica,sans-Serif" font-size="10.00">/IK/LinearTask.h</text>
</a>
</g>
</g>
<!-- Node2 -->
<g id="node2" class="node">
<title>Node2</title>
<g id="a_node2"><a xlink:href="CoMTask_8h.html" target="_top" xlink:title=" ">
<polygon fill="none" stroke="black" points="12.5,-123.5 12.5,-153.5 158.5,-153.5 158.5,-123.5 12.5,-123.5"/>
<text text-anchor="start" x="20.5" y="-141.5" font-family="Helvetica,sans-Serif" font-size="10.00">IK/include/BipedalLocomotion</text>
<text text-anchor="middle" x="85.5" y="-130.5" font-family="Helvetica,sans-Serif" font-size="10.00">/IK/CoMTask.h</text>
</a>
</g>
</g>
<!-- Node1&#45;&gt;Node2 -->
<g id="edge1" class="edge">
<title>Node1&#45;&gt;Node2</title>
<path fill="none" stroke="midnightblue" d="M401.41,-190.96C329.72,-179.28 227.16,-162.58 158.56,-151.4"/>
<polygon fill="midnightblue" stroke="midnightblue" points="400.88,-194.42 411.32,-192.58 402.01,-187.52 400.88,-194.42"/>
</g>
<!-- Node4 -->
<g id="node4" class="node">
<title>Node4</title>
<g id="a_node4"><a xlink:href="IntegrationBasedIK_8h.html" target="_top" xlink:title=" ">
<polygon fill="none" stroke="black" points="247.5,-123.5 247.5,-153.5 393.5,-153.5 393.5,-123.5 247.5,-123.5"/>
<text text-anchor="start" x="255.5" y="-141.5" font-family="Helvetica,sans-Serif" font-size="10.00">IK/include/BipedalLocomotion</text>
<text text-anchor="middle" x="320.5" y="-130.5" font-family="Helvetica,sans-Serif" font-size="10.00">/IK/IntegrationBasedIK.h</text>
</a>
</g>
</g>
<!-- Node1&#45;&gt;Node4 -->
<g id="edge3" class="edge">
<title>Node1&#45;&gt;Node4</title>
<path fill="none" stroke="midnightblue" d="M439.54,-186.68C413.24,-176.26 380.5,-163.28 356.02,-153.58"/>
<polygon fill="midnightblue" stroke="midnightblue" points="438.33,-189.97 448.91,-190.4 440.91,-183.46 438.33,-189.97"/>
</g>
<!-- Node5 -->
<g id="node5" class="node">
<title>Node5</title>
<g id="a_node5"><a xlink:href="QPInverseKinematics_8h.html" target="_top" xlink:title=" ">
<polygon fill="none" stroke="black" points="125.5,-56.5 125.5,-86.5 271.5,-86.5 271.5,-56.5 125.5,-56.5"/>
<text text-anchor="start" x="133.5" y="-74.5" font-family="Helvetica,sans-Serif" font-size="10.00">IK/include/BipedalLocomotion</text>
<text text-anchor="middle" x="198.5" y="-63.5" font-family="Helvetica,sans-Serif" font-size="10.00">/IK/QPInverseKinematics.h</text>
</a>
</g>
</g>
<!-- Node1&#45;&gt;Node5 -->
<g id="edge9" class="edge">
<title>Node1&#45;&gt;Node5</title>
<path fill="none" stroke="midnightblue" d="M401.36,-195.35C340.27,-187.18 263.69,-173.49 238.5,-154 216.68,-137.12 206,-105.23 201.43,-86.74"/>
<polygon fill="midnightblue" stroke="midnightblue" points="401.04,-198.84 411.41,-196.66 401.95,-191.89 401.04,-198.84"/>
</g>
<!-- Node8 -->
<g id="node8" class="node">
<title>Node8</title>
<g id="a_node8"><a xlink:href="JointTrackingTask_8h.html" target="_top" xlink:title=" ">
<polygon fill="none" stroke="black" points="411.5,-123.5 411.5,-153.5 557.5,-153.5 557.5,-123.5 411.5,-123.5"/>
<text text-anchor="start" x="419.5" y="-141.5" font-family="Helvetica,sans-Serif" font-size="10.00">IK/include/BipedalLocomotion</text>
<text text-anchor="middle" x="484.5" y="-130.5" font-family="Helvetica,sans-Serif" font-size="10.00">/IK/JointTrackingTask.h</text>
</a>
</g>
</g>
<!-- Node1&#45;&gt;Node8 -->
<g id="edge7" class="edge">
<title>Node1&#45;&gt;Node8</title>
<path fill="none" stroke="midnightblue" d="M484.5,-180.11C484.5,-171.15 484.5,-161.32 484.5,-153.58"/>
<polygon fill="midnightblue" stroke="midnightblue" points="481,-180.4 484.5,-190.4 488,-180.4 481,-180.4"/>
</g>
<!-- Node10 -->
<g id="node10" class="node">
<title>Node10</title>
<g id="a_node10"><a xlink:href="IK_2include_2BipedalLocomotion_2IK_2SE3Task_8h.html" target="_top" xlink:title=" ">
<polygon fill="none" stroke="black" points="575.5,-123.5 575.5,-153.5 721.5,-153.5 721.5,-123.5 575.5,-123.5"/>
<text text-anchor="start" x="583.5" y="-141.5" font-family="Helvetica,sans-Serif" font-size="10.00">IK/include/BipedalLocomotion</text>
<text text-anchor="middle" x="648.5" y="-130.5" font-family="Helvetica,sans-Serif" font-size="10.00">/IK/SE3Task.h</text>
</a>
</g>
</g>
<!-- Node1&#45;&gt;Node10 -->
<g id="edge10" class="edge">
<title>Node1&#45;&gt;Node10</title>
<path fill="none" stroke="midnightblue" d="M529.46,-186.68C555.76,-176.26 588.5,-163.28 612.98,-153.58"/>
<polygon fill="midnightblue" stroke="midnightblue" points="528.09,-183.46 520.09,-190.4 530.67,-189.97 528.09,-183.46"/>
</g>
<!-- Node12 -->
<g id="node12" class="node">
<title>Node12</title>
<g id="a_node12"><a xlink:href="SO3Task_8h.html" target="_top" xlink:title=" ">
<polygon fill="none" stroke="black" points="739.5,-123.5 739.5,-153.5 885.5,-153.5 885.5,-123.5 739.5,-123.5"/>
<text text-anchor="start" x="747.5" y="-141.5" font-family="Helvetica,sans-Serif" font-size="10.00">IK/include/BipedalLocomotion</text>
<text text-anchor="middle" x="812.5" y="-130.5" font-family="Helvetica,sans-Serif" font-size="10.00">/IK/SO3Task.h</text>
</a>
</g>
</g>
<!-- Node1&#45;&gt;Node12 -->
<g id="edge12" class="edge">
<title>Node1&#45;&gt;Node12</title>
<path fill="none" stroke="midnightblue" d="M565.16,-188.52C619.2,-177.81 689.68,-163.84 741.58,-153.55"/>
<polygon fill="midnightblue" stroke="midnightblue" points="564.4,-185.1 555.27,-190.48 565.76,-191.97 564.4,-185.1"/>
</g>
<!-- Node14 -->
<g id="node14" class="node">
<title>Node14</title>
<g id="a_node14"><a xlink:href="LinearTask_8cpp.html" target="_top" xlink:title=" ">
<polygon fill="none" stroke="black" points="903.5,-129 903.5,-148 1015.5,-148 1015.5,-129 903.5,-129"/>
<text text-anchor="middle" x="959.5" y="-136" font-family="Helvetica,sans-Serif" font-size="10.00">IK/src/LinearTask.cpp</text>
</a>
</g>
</g>
<!-- Node1&#45;&gt;Node14 -->
<g id="edge14" class="edge">
<title>Node1&#45;&gt;Node14</title>
<path fill="none" stroke="midnightblue" d="M567.91,-196.62C651,-188.21 782.05,-173.42 894.5,-154 904.18,-152.33 914.6,-150.17 924.2,-148.03"/>
<polygon fill="midnightblue" stroke="midnightblue" points="567.37,-193.16 557.77,-197.64 568.07,-200.12 567.37,-193.16"/>
</g>
<!-- Node3 -->
<g id="node3" class="node">
<title>Node3</title>
<g id="a_node3"><a xlink:href="CoMTask_8cpp.html" target="_top" xlink:title=" ">
<polygon fill="none" stroke="black" points="0,-62 0,-81 107,-81 107,-62 0,-62"/>
<text text-anchor="middle" x="53.5" y="-69" font-family="Helvetica,sans-Serif" font-size="10.00">IK/src/CoMTask.cpp</text>
</a>
</g>
</g>
<!-- Node2&#45;&gt;Node3 -->
<g id="edge2" class="edge">
<title>Node2&#45;&gt;Node3</title>
<path fill="none" stroke="midnightblue" d="M74.07,-114.29C68.42,-102.8 61.93,-89.63 57.78,-81.19"/>
<polygon fill="midnightblue" stroke="midnightblue" points="71,-115.97 78.56,-123.4 77.28,-112.88 71,-115.97"/>
</g>
<!-- Node4&#45;&gt;Node5 -->
<g id="edge4" class="edge">
<title>Node4&#45;&gt;Node5</title>
<path fill="none" stroke="midnightblue" d="M284.98,-118.57C265.79,-108.35 242.5,-95.94 224.92,-86.58"/>
<polygon fill="midnightblue" stroke="midnightblue" points="283.56,-121.78 294.03,-123.4 286.85,-115.6 283.56,-121.78"/>
</g>
<!-- Node7 -->
<g id="node7" class="node">
<title>Node7</title>
<g id="a_node7"><a xlink:href="IntegrationBasedIK_8cpp.html" target="_top" xlink:title=" ">
<polygon fill="none" stroke="black" points="289.5,-62 289.5,-81 437.5,-81 437.5,-62 289.5,-62"/>
<text text-anchor="middle" x="363.5" y="-69" font-family="Helvetica,sans-Serif" font-size="10.00">IK/src/IntegrationBasedIK.cpp</text>
</a>
</g>
</g>
<!-- Node4&#45;&gt;Node7 -->
<g id="edge6" class="edge">
<title>Node4&#45;&gt;Node7</title>
<path fill="none" stroke="midnightblue" d="M335.4,-114.97C343.1,-103.33 352.06,-89.8 357.75,-81.19"/>
<polygon fill="midnightblue" stroke="midnightblue" points="332.43,-113.12 329.83,-123.4 338.27,-116.99 332.43,-113.12"/>
</g>
<!-- Node6 -->
<g id="node6" class="node">
<title>Node6</title>
<g id="a_node6"><a xlink:href="QPInverseKinematics_8cpp.html" target="_top" xlink:title=" ">
<polygon fill="none" stroke="black" points="118.5,-0.5 118.5,-19.5 278.5,-19.5 278.5,-0.5 118.5,-0.5"/>
<text text-anchor="middle" x="198.5" y="-7.5" font-family="Helvetica,sans-Serif" font-size="10.00">IK/src/QPInverseKinematics.cpp</text>
</a>
</g>
</g>
<!-- Node5&#45;&gt;Node6 -->
<g id="edge5" class="edge">
<title>Node5&#45;&gt;Node6</title>
<path fill="none" stroke="midnightblue" d="M198.5,-46.29C198.5,-36.86 198.5,-26.65 198.5,-19.66"/>
<polygon fill="midnightblue" stroke="midnightblue" points="195,-46.4 198.5,-56.4 202,-46.4 195,-46.4"/>
</g>
<!-- Node9 -->
<g id="node9" class="node">
<title>Node9</title>
<g id="a_node9"><a xlink:href="JointTrackingTask_8cpp.html" target="_top" xlink:title=" ">
<polygon fill="none" stroke="black" points="455.5,-62 455.5,-81 599.5,-81 599.5,-62 455.5,-62"/>
<text text-anchor="middle" x="527.5" y="-69" font-family="Helvetica,sans-Serif" font-size="10.00">IK/src/JointTrackingTask.cpp</text>
</a>
</g>
</g>
<!-- Node8&#45;&gt;Node9 -->
<g id="edge8" class="edge">
<title>Node8&#45;&gt;Node9</title>
<path fill="none" stroke="midnightblue" d="M499.4,-114.97C507.1,-103.33 516.06,-89.8 521.75,-81.19"/>
<polygon fill="midnightblue" stroke="midnightblue" points="496.43,-113.12 493.83,-123.4 502.27,-116.99 496.43,-113.12"/>
</g>
<!-- Node11 -->
<g id="node11" class="node">
<title>Node11</title>
<g id="a_node11"><a xlink:href="IK_2src_2SE3Task_8cpp.html" target="_top" xlink:title=" ">
<polygon fill="none" stroke="black" points="617.5,-62 617.5,-81 721.5,-81 721.5,-62 617.5,-62"/>
<text text-anchor="middle" x="669.5" y="-69" font-family="Helvetica,sans-Serif" font-size="10.00">IK/src/SE3Task.cpp</text>
</a>
</g>
</g>
<!-- Node10&#45;&gt;Node11 -->
<g id="edge11" class="edge">
<title>Node10&#45;&gt;Node11</title>
<path fill="none" stroke="midnightblue" d="M656.22,-113.6C659.88,-102.28 664.02,-89.46 666.69,-81.19"/>
<polygon fill="midnightblue" stroke="midnightblue" points="652.8,-112.8 653.06,-123.4 659.46,-114.96 652.8,-112.8"/>
</g>
<!-- Node13 -->
<g id="node13" class="node">
<title>Node13</title>
<g id="a_node13"><a xlink:href="SO3Task_8cpp.html" target="_top" xlink:title=" ">
<polygon fill="none" stroke="black" points="760,-62 760,-81 865,-81 865,-62 760,-62"/>
<text text-anchor="middle" x="812.5" y="-69" font-family="Helvetica,sans-Serif" font-size="10.00">IK/src/SO3Task.cpp</text>
</a>
</g>
</g>
<!-- Node12&#45;&gt;Node13 -->
<g id="edge13" class="edge">
<title>Node12&#45;&gt;Node13</title>
<path fill="none" stroke="midnightblue" d="M812.5,-113.25C812.5,-102.02 812.5,-89.38 812.5,-81.19"/>
<polygon fill="midnightblue" stroke="midnightblue" points="809,-113.4 812.5,-123.4 816,-113.4 809,-113.4"/>
</g>
</g>
</svg>
