<?xml version="1.0" encoding="UTF-8" standalone="no"?>
<!DOCTYPE svg PUBLIC "-//W3C//DTD SVG 1.1//EN"
 "http://www.w3.org/Graphics/SVG/1.1/DTD/svg11.dtd">
<!-- Generated by graphviz version 2.43.0 (0)
 -->
<!-- Title: TextLogging/include/BipedalLocomotion/TextLogging/Logger.h Pages: 1 -->
<svg width="1247pt" height="273pt"
 viewBox="0.00 0.00 1246.50 273.00" xmlns="http://www.w3.org/2000/svg" xmlns:xlink="http://www.w3.org/1999/xlink">
<g id="graph0" class="graph" transform="scale(1 1) rotate(0) translate(4 269)">
<title>TextLogging/include/BipedalLocomotion/TextLogging/Logger.h</title>
<!-- Node1 -->
<g id="node1" class="node">
<title>Node1</title>
<g id="a_node1"><a xlink:title=" ">
<polygon fill="#bfbfbf" stroke="black" points="561.5,-223.5 561.5,-264.5 719.5,-264.5 719.5,-223.5 561.5,-223.5"/>
<text text-anchor="start" x="569.5" y="-252.5" font-family="Helvetica,sans-Serif" font-size="10.00">TextLogging/include</text>
<text text-anchor="start" x="569.5" y="-241.5" font-family="Helvetica,sans-Serif" font-size="10.00">/BipedalLocomotion/TextLogging</text>
<text text-anchor="middle" x="640.5" y="-230.5" font-family="Helvetica,sans-Serif" font-size="10.00">/Logger.h</text>
</a>
</g>
</g>
<!-- Node2 -->
<g id="node2" class="node">
<title>Node2</title>
<g id="a_node2"><a xlink:href="CoMTask_8cpp.html" target="_top" xlink:title=" ">
<polygon fill="none" stroke="black" points="0,-156.5 0,-175.5 107,-175.5 107,-156.5 0,-156.5"/>
<text text-anchor="middle" x="53.5" y="-163.5" font-family="Helvetica,sans-Serif" font-size="10.00">IK/src/CoMTask.cpp</text>
</a>
</g>
</g>
<!-- Node1&#45;&gt;Node2 -->
<g id="edge1" class="edge">
<title>Node1&#45;&gt;Node2</title>
<path fill="none" stroke="midnightblue" d="M550.92,-238.91C445.91,-232.85 267.06,-218.61 116.5,-187 103.02,-184.17 88.34,-179.6 76.54,-175.54"/>
<polygon fill="midnightblue" stroke="midnightblue" points="550.98,-242.42 561.16,-239.49 551.38,-235.43 550.98,-242.42"/>
</g>
<!-- Node3 -->
<g id="node3" class="node">
<title>Node3</title>
<g id="a_node3"><a xlink:href="JointTrackingTask_8cpp.html" target="_top" xlink:title=" ">
<polygon fill="none" stroke="black" points="125.5,-156.5 125.5,-175.5 269.5,-175.5 269.5,-156.5 125.5,-156.5"/>
<text text-anchor="middle" x="197.5" y="-163.5" font-family="Helvetica,sans-Serif" font-size="10.00">IK/src/JointTrackingTask.cpp</text>
</a>
</g>
</g>
<!-- Node1&#45;&gt;Node3 -->
<g id="edge2" class="edge">
<title>Node1&#45;&gt;Node3</title>
<path fill="none" stroke="midnightblue" d="M551.26,-231.44C477.75,-221.38 370.96,-205.53 278.5,-187 262.17,-183.73 244.16,-179.36 229.28,-175.54"/>
<polygon fill="midnightblue" stroke="midnightblue" points="551.03,-234.94 561.41,-232.82 551.97,-228 551.03,-234.94"/>
</g>
<!-- Node4 -->
<g id="node4" class="node">
<title>Node4</title>
<g id="a_node4"><a xlink:href="QPInverseKinematics_8cpp.html" target="_top" xlink:title=" ">
<polygon fill="none" stroke="black" points="287.5,-156.5 287.5,-175.5 447.5,-175.5 447.5,-156.5 287.5,-156.5"/>
<text text-anchor="middle" x="367.5" y="-163.5" font-family="Helvetica,sans-Serif" font-size="10.00">IK/src/QPInverseKinematics.cpp</text>
</a>
</g>
</g>
<!-- Node1&#45;&gt;Node4 -->
<g id="edge3" class="edge">
<title>Node1&#45;&gt;Node4</title>
<path fill="none" stroke="midnightblue" d="M560.23,-220.65C505.92,-205.53 437.21,-186.41 398.22,-175.55"/>
<polygon fill="midnightblue" stroke="midnightblue" points="559.62,-224.12 570.2,-223.43 561.5,-217.37 559.62,-224.12"/>
</g>
<!-- Node5 -->
<g id="node5" class="node">
<title>Node5</title>
<g id="a_node5"><a xlink:href="IK_2src_2SE3Task_8cpp.html" target="_top" xlink:title=" ">
<polygon fill="none" stroke="black" points="465.5,-156.5 465.5,-175.5 569.5,-175.5 569.5,-156.5 465.5,-156.5"/>
<text text-anchor="middle" x="517.5" y="-163.5" font-family="Helvetica,sans-Serif" font-size="10.00">IK/src/SE3Task.cpp</text>
</a>
</g>
</g>
<!-- Node1&#45;&gt;Node5 -->
<g id="edge4" class="edge">
<title>Node1&#45;&gt;Node5</title>
<path fill="none" stroke="midnightblue" d="M600.01,-217.98C576.31,-203.34 547.89,-185.78 531.34,-175.55"/>
<polygon fill="midnightblue" stroke="midnightblue" points="598.48,-221.15 608.82,-223.43 602.16,-215.19 598.48,-221.15"/>
</g>
<!-- Node6 -->
<g id="node6" class="node">
<title>Node6</title>
<g id="a_node6"><a xlink:href="SO3Task_8cpp.html" target="_top" xlink:title=" ">
<polygon fill="none" stroke="black" points="588,-156.5 588,-175.5 693,-175.5 693,-156.5 588,-156.5"/>
<text text-anchor="middle" x="640.5" y="-163.5" font-family="Helvetica,sans-Serif" font-size="10.00">IK/src/SO3Task.cpp</text>
</a>
</g>
</g>
<!-- Node1&#45;&gt;Node6 -->
<g id="edge5" class="edge">
<title>Node1&#45;&gt;Node6</title>
<path fill="none" stroke="midnightblue" d="M640.5,-213.05C640.5,-199.56 640.5,-184.65 640.5,-175.55"/>
<polygon fill="midnightblue" stroke="midnightblue" points="637,-213.43 640.5,-223.43 644,-213.43 637,-213.43"/>
</g>
<!-- Node7 -->
<g id="node7" class="node">
<title>Node7</title>
<g id="a_node7"><a xlink:href="StdImplementation_8tpp.html" target="_top" xlink:title=" ">
<polygon fill="none" stroke="black" points="711,-145.5 711,-186.5 900,-186.5 900,-145.5 711,-145.5"/>
<text text-anchor="start" x="719" y="-174.5" font-family="Helvetica,sans-Serif" font-size="10.00">ParametersHandler/include</text>
<text text-anchor="start" x="719" y="-163.5" font-family="Helvetica,sans-Serif" font-size="10.00">/BipedalLocomotion/ParametersHandler</text>
<text text-anchor="middle" x="805.5" y="-152.5" font-family="Helvetica,sans-Serif" font-size="10.00">/StdImplementation.tpp</text>
</a>
</g>
</g>
<!-- Node1&#45;&gt;Node7 -->
<g id="edge6" class="edge">
<title>Node1&#45;&gt;Node7</title>
<path fill="none" stroke="midnightblue" d="M692.19,-219.19C715.02,-208.67 741.52,-196.47 763.15,-186.51"/>
<polygon fill="midnightblue" stroke="midnightblue" points="690.61,-216.07 682.99,-223.43 693.54,-222.42 690.61,-216.07"/>
</g>
<!-- Node9 -->
<g id="node9" class="node">
<title>Node9</title>
<g id="a_node9"><a xlink:href="StdImplementation_8cpp.html" target="_top" xlink:title=" ">
<polygon fill="none" stroke="black" points="806.5,-0.5 806.5,-30.5 926.5,-30.5 926.5,-0.5 806.5,-0.5"/>
<text text-anchor="start" x="814.5" y="-18.5" font-family="Helvetica,sans-Serif" font-size="10.00">ParametersHandler/src</text>
<text text-anchor="middle" x="866.5" y="-7.5" font-family="Helvetica,sans-Serif" font-size="10.00">/StdImplementation.cpp</text>
</a>
</g>
</g>
<!-- Node1&#45;&gt;Node9 -->
<g id="edge10" class="edge">
<title>Node1&#45;&gt;Node9</title>
<path fill="none" stroke="midnightblue" d="M729.89,-236.34C799.16,-229.1 887.02,-214.65 909.5,-187 943.15,-145.62 927.92,-117.05 909.5,-67 904.25,-52.74 892.98,-39.76 883.3,-30.53"/>
<polygon fill="midnightblue" stroke="midnightblue" points="729.41,-232.87 719.81,-237.35 730.11,-239.83 729.41,-232.87"/>
</g>
<!-- Node10 -->
<g id="node10" class="node">
<title>Node10</title>
<g id="a_node10"><a xlink:href="TimeVaryingDCMPlanner_8cpp.html" target="_top" xlink:title=" ">
<polygon fill="none" stroke="black" points="956.5,-151 956.5,-181 1084.5,-181 1084.5,-151 956.5,-151"/>
<text text-anchor="start" x="964.5" y="-169" font-family="Helvetica,sans-Serif" font-size="10.00">Planners/src/TimeVarying</text>
<text text-anchor="middle" x="1020.5" y="-158" font-family="Helvetica,sans-Serif" font-size="10.00">DCMPlanner.cpp</text>
</a>
</g>
</g>
<!-- Node1&#45;&gt;Node10 -->
<g id="edge11" class="edge">
<title>Node1&#45;&gt;Node10</title>
<path fill="none" stroke="midnightblue" d="M729.51,-228.12C789.83,-217.65 871.22,-202.73 942.5,-187 950.69,-185.19 959.33,-183.13 967.75,-181.04"/>
<polygon fill="midnightblue" stroke="midnightblue" points="728.9,-224.68 719.64,-229.83 730.09,-231.58 728.9,-224.68"/>
</g>
<!-- Node11 -->
<g id="node11" class="node">
<title>Node11</title>
<g id="a_node11"><a xlink:href="Logger_8cpp.html" target="_top" xlink:title=" ">
<polygon fill="none" stroke="black" points="1102.5,-156.5 1102.5,-175.5 1238.5,-175.5 1238.5,-156.5 1102.5,-156.5"/>
<text text-anchor="middle" x="1170.5" y="-163.5" font-family="Helvetica,sans-Serif" font-size="10.00">TextLogging/src/Logger.cpp</text>
</a>
</g>
</g>
<!-- Node1&#45;&gt;Node11 -->
<g id="edge12" class="edge">
<title>Node1&#45;&gt;Node11</title>
<path fill="none" stroke="midnightblue" d="M729.63,-235.46C821.38,-226.89 968.2,-210.91 1093.5,-187 1109.51,-183.95 1127.12,-179.46 1141.45,-175.51"/>
<polygon fill="midnightblue" stroke="midnightblue" points="729.19,-231.99 719.55,-236.4 729.83,-238.96 729.19,-231.99"/>
</g>
<!-- Node8 -->
<g id="node8" class="node">
<title>Node8</title>
<g id="a_node8"><a xlink:href="StdImplementation_8h.html" target="_top" xlink:title=" ">
<polygon fill="none" stroke="black" points="711,-67.5 711,-108.5 900,-108.5 900,-67.5 711,-67.5"/>
<text text-anchor="start" x="719" y="-96.5" font-family="Helvetica,sans-Serif" font-size="10.00">ParametersHandler/include</text>
<text text-anchor="start" x="719" y="-85.5" font-family="Helvetica,sans-Serif" font-size="10.00">/BipedalLocomotion/ParametersHandler</text>
<text text-anchor="middle" x="805.5" y="-74.5" font-family="Helvetica,sans-Serif" font-size="10.00">/StdImplementation.h</text>
</a>
</g>
</g>
<!-- Node7&#45;&gt;Node8 -->
<g id="edge7" class="edge">
<title>Node7&#45;&gt;Node8</title>
<path fill="none" stroke="midnightblue" d="M798.9,-135.3C798.58,-126.3 798.78,-116.65 799.52,-108.51"/>
<polygon fill="midnightblue" stroke="midnightblue" points="795.41,-135.66 799.51,-145.43 802.4,-135.23 795.41,-135.66"/>
</g>
<!-- Node8&#45;&gt;Node7 -->
<g id="edge8" class="edge">
<title>Node8&#45;&gt;Node7</title>
<path fill="none" stroke="midnightblue" d="M812.1,-118.63C812.42,-127.62 812.22,-137.27 811.49,-145.43"/>
<polygon fill="midnightblue" stroke="midnightblue" points="815.59,-118.27 811.48,-108.51 808.6,-118.7 815.59,-118.27"/>
</g>
<!-- Node8&#45;&gt;Node9 -->
<g id="edge9" class="edge">
<title>Node8&#45;&gt;Node9</title>
<path fill="none" stroke="midnightblue" d="M829.1,-59.73C837.61,-49.89 846.87,-39.19 854.05,-30.89"/>
<polygon fill="midnightblue" stroke="midnightblue" points="826.39,-57.51 822.49,-67.36 831.68,-62.09 826.39,-57.51"/>
</g>
</g>
</svg>
