<?xml version="1.0" encoding="UTF-8" standalone="no"?>
<!DOCTYPE svg PUBLIC "-//W3C//DTD SVG 1.1//EN"
 "http://www.w3.org/Graphics/SVG/1.1/DTD/svg11.dtd">
<!-- Generated by graphviz version 2.43.0 (0)
 -->
<!-- Title: Conversions/include/BipedalLocomotion/Conversions/ManifConversions.h Pages: 1 -->
<svg width="849pt" height="117pt"
 viewBox="0.00 0.00 849.00 117.00" xmlns="http://www.w3.org/2000/svg" xmlns:xlink="http://www.w3.org/1999/xlink">
<g id="graph0" class="graph" transform="scale(1 1) rotate(0) translate(4 113)">
<title>Conversions/include/BipedalLocomotion/Conversions/ManifConversions.h</title>
<!-- Node1 -->
<g id="node1" class="node">
<title>Node1</title>
<g id="a_node1"><a xlink:title=" ">
<polygon fill="#bfbfbf" stroke="black" points="387,-67.5 387,-108.5 547,-108.5 547,-67.5 387,-67.5"/>
<text text-anchor="start" x="395" y="-96.5" font-family="Helvetica,sans-Serif" font-size="10.00">Conversions/include</text>
<text text-anchor="start" x="395" y="-85.5" font-family="Helvetica,sans-Serif" font-size="10.00">/BipedalLocomotion/Conversions</text>
<text text-anchor="middle" x="467" y="-74.5" font-family="Helvetica,sans-Serif" font-size="10.00">/ManifConversions.h</text>
</a>
</g>
</g>
<!-- Node2 -->
<g id="node2" class="node">
<title>Node2</title>
<g id="a_node2"><a xlink:href="FloatingBaseEstimator_8cpp.html" target="_top" xlink:title=" ">
<polygon fill="none" stroke="black" points="0,-0.5 0,-30.5 140,-30.5 140,-0.5 0,-0.5"/>
<text text-anchor="start" x="8" y="-18.5" font-family="Helvetica,sans-Serif" font-size="10.00">Estimators/src/FloatingBase</text>
<text text-anchor="middle" x="70" y="-7.5" font-family="Helvetica,sans-Serif" font-size="10.00">Estimator.cpp</text>
</a>
</g>
</g>
<!-- Node1&#45;&gt;Node2 -->
<g id="edge1" class="edge">
<title>Node1&#45;&gt;Node2</title>
<path fill="none" stroke="midnightblue" d="M376.91,-71.31C313.22,-60.18 225.85,-44.82 149,-31 146.12,-30.48 143.18,-29.95 140.21,-29.41"/>
<polygon fill="midnightblue" stroke="midnightblue" points="376.47,-74.79 386.92,-73.06 377.68,-67.89 376.47,-74.79"/>
</g>
<!-- Node3 -->
<g id="node3" class="node">
<title>Node3</title>
<g id="a_node3"><a xlink:href="LeggedOdometry_8cpp.html" target="_top" xlink:title=" ">
<polygon fill="none" stroke="black" points="158.5,-6 158.5,-25 333.5,-25 333.5,-6 158.5,-6"/>
<text text-anchor="middle" x="246" y="-13" font-family="Helvetica,sans-Serif" font-size="10.00">Estimators/src/LeggedOdometry.cpp</text>
</a>
</g>
</g>
<!-- Node1&#45;&gt;Node3 -->
<g id="edge2" class="edge">
<title>Node1&#45;&gt;Node3</title>
<path fill="none" stroke="midnightblue" d="M396.07,-64.37C353.99,-50.95 303.08,-34.71 272.69,-25.01"/>
<polygon fill="midnightblue" stroke="midnightblue" points="395.14,-67.75 405.73,-67.46 397.27,-61.08 395.14,-67.75"/>
</g>
<!-- Node4 -->
<g id="node4" class="node">
<title>Node4</title>
<g id="a_node4"><a xlink:href="CoMTask_8cpp.html" target="_top" xlink:title=" ">
<polygon fill="none" stroke="black" points="351.5,-6 351.5,-25 458.5,-25 458.5,-6 351.5,-6"/>
<text text-anchor="middle" x="405" y="-13" font-family="Helvetica,sans-Serif" font-size="10.00">IK/src/CoMTask.cpp</text>
</a>
</g>
</g>
<!-- Node1&#45;&gt;Node4 -->
<g id="edge3" class="edge">
<title>Node1&#45;&gt;Node4</title>
<path fill="none" stroke="midnightblue" d="M442.88,-59.57C432.11,-47.32 420.17,-33.75 412.63,-25.17"/>
<polygon fill="midnightblue" stroke="midnightblue" points="440.5,-62.16 449.73,-67.36 445.75,-57.54 440.5,-62.16"/>
</g>
<!-- Node5 -->
<g id="node5" class="node">
<title>Node5</title>
<g id="a_node5"><a xlink:href="IK_2src_2SE3Task_8cpp.html" target="_top" xlink:title=" ">
<polygon fill="none" stroke="black" points="477,-6 477,-25 581,-25 581,-6 477,-6"/>
<text text-anchor="middle" x="529" y="-13" font-family="Helvetica,sans-Serif" font-size="10.00">IK/src/SE3Task.cpp</text>
</a>
</g>
</g>
<!-- Node1&#45;&gt;Node5 -->
<g id="edge4" class="edge">
<title>Node1&#45;&gt;Node5</title>
<path fill="none" stroke="midnightblue" d="M491.12,-59.57C501.89,-47.32 513.83,-33.75 521.37,-25.17"/>
<polygon fill="midnightblue" stroke="midnightblue" points="488.25,-57.54 484.27,-67.36 493.5,-62.16 488.25,-57.54"/>
</g>
<!-- Node6 -->
<g id="node6" class="node">
<title>Node6</title>
<g id="a_node6"><a xlink:href="SO3Task_8cpp.html" target="_top" xlink:title=" ">
<polygon fill="none" stroke="black" points="599.5,-6 599.5,-25 704.5,-25 704.5,-6 599.5,-6"/>
<text text-anchor="middle" x="652" y="-13" font-family="Helvetica,sans-Serif" font-size="10.00">IK/src/SO3Task.cpp</text>
</a>
</g>
</g>
<!-- Node1&#45;&gt;Node6 -->
<g id="edge5" class="edge">
<title>Node1&#45;&gt;Node6</title>
<path fill="none" stroke="midnightblue" d="M528.12,-63.71C562.81,-50.49 604.17,-34.73 629.24,-25.17"/>
<polygon fill="midnightblue" stroke="midnightblue" points="526.63,-60.53 518.53,-67.36 529.12,-67.07 526.63,-60.53"/>
</g>
<!-- Node7 -->
<g id="node7" class="node">
<title>Node7</title>
<g id="a_node7"><a xlink:href="TSID_2src_2SE3Task_8cpp.html" target="_top" xlink:title=" ">
<polygon fill="none" stroke="black" points="723,-6 723,-25 841,-25 841,-6 723,-6"/>
<text text-anchor="middle" x="782" y="-13" font-family="Helvetica,sans-Serif" font-size="10.00">TSID/src/SE3Task.cpp</text>
</a>
</g>
</g>
<!-- Node1&#45;&gt;Node7 -->
<g id="edge6" class="edge">
<title>Node1&#45;&gt;Node7</title>
<path fill="none" stroke="midnightblue" d="M557.07,-66.84C618.91,-53 697.84,-35.34 743.87,-25.03"/>
<polygon fill="midnightblue" stroke="midnightblue" points="556.3,-63.43 547.3,-69.03 557.83,-70.26 556.3,-63.43"/>
</g>
</g>
</svg>
