<?xml version="1.0" encoding="UTF-8" standalone="no"?>
<!DOCTYPE svg PUBLIC "-//W3C//DTD SVG 1.1//EN"
 "http://www.w3.org/Graphics/SVG/1.1/DTD/svg11.dtd">
<!-- Generated by graphviz version 2.43.0 (0)
 -->
<!-- Title: Conversions/include/BipedalLocomotion/Conversions/matioCppConversions.h Pages: 1 -->
<svg width="906pt" height="240pt"
 viewBox="0.00 0.00 906.38 240.00" xmlns="http://www.w3.org/2000/svg" xmlns:xlink="http://www.w3.org/1999/xlink">
<g id="graph0" class="graph" transform="scale(1 1) rotate(0) translate(4 236)">
<title>Conversions/include/BipedalLocomotion/Conversions/matioCppConversions.h</title>
<!-- Node1 -->
<g id="node1" class="node">
<title>Node1</title>
<g id="a_node1"><a xlink:title=" ">
<polygon fill="#bfbfbf" stroke="black" points="274.38,-190.5 274.38,-231.5 434.38,-231.5 434.38,-190.5 274.38,-190.5"/>
<text text-anchor="start" x="282.38" y="-219.5" font-family="Helvetica,sans-Serif" font-size="10.00">Conversions/include</text>
<text text-anchor="start" x="282.38" y="-208.5" font-family="Helvetica,sans-Serif" font-size="10.00">/BipedalLocomotion/Conversions</text>
<text text-anchor="middle" x="354.38" y="-197.5" font-family="Helvetica,sans-Serif" font-size="10.00">/matioCppConversions.h</text>
</a>
</g>
</g>
<!-- Node2 -->
<g id="node2" class="node">
<title>Node2</title>
<g id="a_node2"><a xlink:title=" ">
<polygon fill="none" stroke="#bfbfbf" points="193.88,-0.5 193.88,-19.5 258.88,-19.5 258.88,-0.5 193.88,-0.5"/>
<text text-anchor="middle" x="226.38" y="-7.5" font-family="Helvetica,sans-Serif" font-size="10.00">Eigen/Core</text>
</a>
</g>
</g>
<!-- Node1&#45;&gt;Node2 -->
<g id="edge1" class="edge">
<title>Node1&#45;&gt;Node2</title>
<path fill="none" stroke="midnightblue" d="M274.14,-208.42C183.8,-204.74 45.3,-192.75 12.38,-154 -43.48,-88.25 106.66,-40.33 183.83,-20.75"/>
<polygon fill="midnightblue" stroke="midnightblue" points="184.9,-24.09 193.76,-18.29 183.21,-17.3 184.9,-24.09"/>
</g>
<!-- Node3 -->
<g id="node3" class="node">
<title>Node3</title>
<g id="a_node3"><a xlink:title=" ">
<polygon fill="none" stroke="#bfbfbf" points="21.38,-129 21.38,-148 177.38,-148 177.38,-129 21.38,-129"/>
<text text-anchor="middle" x="99.38" y="-136" font-family="Helvetica,sans-Serif" font-size="10.00">iDynTree/Core/MatrixDynSize.h</text>
</a>
</g>
</g>
<!-- Node1&#45;&gt;Node3 -->
<g id="edge2" class="edge">
<title>Node1&#45;&gt;Node3</title>
<path fill="none" stroke="midnightblue" d="M283.69,-190.46C237.41,-177.66 178.59,-161.4 140.01,-150.73"/>
<polygon fill="midnightblue" stroke="midnightblue" points="140.74,-147.3 130.17,-148.01 138.88,-154.05 140.74,-147.3"/>
</g>
<!-- Node4 -->
<g id="node4" class="node">
<title>Node4</title>
<g id="a_node4"><a xlink:title=" ">
<polygon fill="none" stroke="#bfbfbf" points="195.38,-129 195.38,-148 345.38,-148 345.38,-129 195.38,-129"/>
<text text-anchor="middle" x="270.38" y="-136" font-family="Helvetica,sans-Serif" font-size="10.00">iDynTree/Core/EigenHelpers.h</text>
</a>
</g>
</g>
<!-- Node1&#45;&gt;Node4 -->
<g id="edge3" class="edge">
<title>Node1&#45;&gt;Node4</title>
<path fill="none" stroke="midnightblue" d="M330.98,-190.36C317.57,-179.11 300.99,-165.19 288.56,-154.76"/>
<polygon fill="midnightblue" stroke="midnightblue" points="290.63,-151.92 280.72,-148.17 286.13,-157.28 290.63,-151.92"/>
</g>
<!-- Node5 -->
<g id="node5" class="node">
<title>Node5</title>
<g id="a_node5"><a xlink:title=" ">
<polygon fill="none" stroke="#bfbfbf" points="363.38,-129 363.38,-148 515.38,-148 515.38,-129 363.38,-129"/>
<text text-anchor="middle" x="439.38" y="-136" font-family="Helvetica,sans-Serif" font-size="10.00">iDynTree/Core/MatrixFixSize.h</text>
</a>
</g>
</g>
<!-- Node1&#45;&gt;Node5 -->
<g id="edge4" class="edge">
<title>Node1&#45;&gt;Node5</title>
<path fill="none" stroke="midnightblue" d="M378.06,-190.36C391.63,-179.11 408.41,-165.19 420.98,-154.76"/>
<polygon fill="midnightblue" stroke="midnightblue" points="423.46,-157.25 428.92,-148.17 418.99,-151.86 423.46,-157.25"/>
</g>
<!-- Node6 -->
<g id="node6" class="node">
<title>Node6</title>
<g id="a_node6"><a xlink:title=" ">
<polygon fill="none" stroke="#bfbfbf" points="533.38,-129 533.38,-148 645.38,-148 645.38,-129 533.38,-129"/>
<text text-anchor="middle" x="589.38" y="-136" font-family="Helvetica,sans-Serif" font-size="10.00">matioCpp/matioCpp.h</text>
</a>
</g>
</g>
<!-- Node1&#45;&gt;Node6 -->
<g id="edge5" class="edge">
<title>Node1&#45;&gt;Node6</title>
<path fill="none" stroke="midnightblue" d="M419.53,-190.46C461.81,-177.77 515.46,-161.68 551.03,-151.01"/>
<polygon fill="midnightblue" stroke="midnightblue" points="552.43,-154.24 561,-148.01 550.42,-147.53 552.43,-154.24"/>
</g>
<!-- Node7 -->
<g id="node7" class="node">
<title>Node7</title>
<g id="a_node7"><a xlink:href="Vector_8h_source.html" target="_top" xlink:title=" ">
<polygon fill="none" stroke="black" points="663.38,-123.5 663.38,-153.5 799.38,-153.5 799.38,-123.5 663.38,-123.5"/>
<text text-anchor="start" x="671.38" y="-141.5" font-family="Helvetica,sans-Serif" font-size="10.00">BipedalLocomotion/Generic</text>
<text text-anchor="middle" x="731.38" y="-130.5" font-family="Helvetica,sans-Serif" font-size="10.00">Container/Vector.h</text>
</a>
</g>
</g>
<!-- Node1&#45;&gt;Node7 -->
<g id="edge6" class="edge">
<title>Node1&#45;&gt;Node7</title>
<path fill="none" stroke="midnightblue" d="M434.61,-195.06C492.55,-184.26 572.99,-169.25 653.09,-154.24"/>
<polygon fill="midnightblue" stroke="midnightblue" points="654.18,-157.6 663.36,-152.31 652.89,-150.72 654.18,-157.6"/>
</g>
<!-- Node8 -->
<g id="node8" class="node">
<title>Node8</title>
<g id="a_node8"><a xlink:title=" ">
<polygon fill="none" stroke="#bfbfbf" points="336.38,-62 336.38,-81 450.38,-81 450.38,-62 336.38,-62"/>
<text text-anchor="middle" x="393.38" y="-69" font-family="Helvetica,sans-Serif" font-size="10.00">iDynTree/Core/Span.h</text>
</a>
</g>
</g>
<!-- Node7&#45;&gt;Node8 -->
<g id="edge7" class="edge">
<title>Node7&#45;&gt;Node8</title>
<path fill="none" stroke="midnightblue" d="M663.36,-124.68C660.33,-124.11 657.32,-123.55 654.38,-123 567.74,-106.85 545.77,-104.46 459.38,-87 453.49,-85.81 447.31,-84.51 441.2,-83.2"/>
<polygon fill="midnightblue" stroke="midnightblue" points="441.54,-79.7 431.03,-81 440.06,-86.54 441.54,-79.7"/>
</g>
<!-- Node9 -->
<g id="node9" class="node">
<title>Node9</title>
<g id="a_node9"><a xlink:href="TemplateHelpers_8h_source.html" target="_top" xlink:title=" ">
<polygon fill="none" stroke="black" points="468.88,-56.5 468.88,-86.5 611.88,-86.5 611.88,-56.5 468.88,-56.5"/>
<text text-anchor="start" x="476.88" y="-74.5" font-family="Helvetica,sans-Serif" font-size="10.00">BipedalLocomotion/Generic</text>
<text text-anchor="middle" x="540.38" y="-63.5" font-family="Helvetica,sans-Serif" font-size="10.00">Container/TemplateHelpers.h</text>
</a>
</g>
</g>
<!-- Node7&#45;&gt;Node9 -->
<g id="edge8" class="edge">
<title>Node7&#45;&gt;Node9</title>
<path fill="none" stroke="midnightblue" d="M689.94,-123.4C661.03,-113.56 622.27,-100.37 591.45,-89.88"/>
<polygon fill="midnightblue" stroke="midnightblue" points="592.34,-86.48 581.74,-86.58 590.08,-93.11 592.34,-86.48"/>
</g>
<!-- Node12 -->
<g id="node12" class="node">
<title>Node12</title>
<g id="a_node12"><a xlink:title=" ">
<polygon fill="none" stroke="#bfbfbf" points="629.88,-62 629.88,-81 688.88,-81 688.88,-62 629.88,-62"/>
<text text-anchor="middle" x="659.38" y="-69" font-family="Helvetica,sans-Serif" font-size="10.00">functional</text>
</a>
</g>
</g>
<!-- Node7&#45;&gt;Node12 -->
<g id="edge12" class="edge">
<title>Node7&#45;&gt;Node12</title>
<path fill="none" stroke="midnightblue" d="M715.76,-123.4C704.2,-112.96 688.46,-98.75 676.55,-88"/>
<polygon fill="midnightblue" stroke="midnightblue" points="678.78,-85.3 669.01,-81.19 674.09,-90.49 678.78,-85.3"/>
</g>
<!-- Node13 -->
<g id="node13" class="node">
<title>Node13</title>
<g id="a_node13"><a xlink:title=" ">
<polygon fill="none" stroke="#bfbfbf" points="706.88,-62 706.88,-81 755.88,-81 755.88,-62 706.88,-62"/>
<text text-anchor="middle" x="731.38" y="-69" font-family="Helvetica,sans-Serif" font-size="10.00">cassert</text>
</a>
</g>
</g>
<!-- Node7&#45;&gt;Node13 -->
<g id="edge13" class="edge">
<title>Node7&#45;&gt;Node13</title>
<path fill="none" stroke="midnightblue" d="M731.38,-123.4C731.38,-114.06 731.38,-101.71 731.38,-91.52"/>
<polygon fill="midnightblue" stroke="midnightblue" points="734.88,-91.19 731.38,-81.19 727.88,-91.19 734.88,-91.19"/>
</g>
<!-- Node14 -->
<g id="node14" class="node">
<title>Node14</title>
<g id="a_node14"><a xlink:title=" ">
<polygon fill="none" stroke="#bfbfbf" points="774.38,-62 774.38,-81 828.38,-81 828.38,-62 774.38,-62"/>
<text text-anchor="middle" x="801.38" y="-69" font-family="Helvetica,sans-Serif" font-size="10.00">iostream</text>
</a>
</g>
</g>
<!-- Node7&#45;&gt;Node14 -->
<g id="edge14" class="edge">
<title>Node7&#45;&gt;Node14</title>
<path fill="none" stroke="midnightblue" d="M746.57,-123.4C757.7,-113.06 772.82,-99.02 784.36,-88.31"/>
<polygon fill="midnightblue" stroke="midnightblue" points="787.07,-90.56 792.02,-81.19 782.31,-85.43 787.07,-90.56"/>
</g>
<!-- Node15 -->
<g id="node15" class="node">
<title>Node15</title>
<g id="a_node15"><a xlink:title=" ">
<polygon fill="none" stroke="#bfbfbf" points="846.38,-62 846.38,-81 898.38,-81 898.38,-62 846.38,-62"/>
<text text-anchor="middle" x="872.38" y="-69" font-family="Helvetica,sans-Serif" font-size="10.00">memory</text>
</a>
</g>
</g>
<!-- Node7&#45;&gt;Node15 -->
<g id="edge15" class="edge">
<title>Node7&#45;&gt;Node15</title>
<path fill="none" stroke="midnightblue" d="M761.98,-123.4C786.61,-112.04 820.93,-96.22 844.74,-85.24"/>
<polygon fill="midnightblue" stroke="midnightblue" points="846.31,-88.37 853.93,-81.01 843.38,-82.02 846.31,-88.37"/>
</g>
<!-- Node9&#45;&gt;Node2 -->
<g id="edge11" class="edge">
<title>Node9&#45;&gt;Node2</title>
<path fill="none" stroke="midnightblue" d="M468.74,-56.92C407.1,-45.24 320.24,-28.79 268.98,-19.07"/>
<polygon fill="midnightblue" stroke="midnightblue" points="269.39,-15.59 258.91,-17.16 268.08,-22.46 269.39,-15.59"/>
</g>
<!-- Node10 -->
<g id="node10" class="node">
<title>Node10</title>
<g id="a_node10"><a xlink:title=" ">
<polygon fill="none" stroke="#bfbfbf" points="468.38,-0.5 468.38,-19.5 530.38,-19.5 530.38,-0.5 468.38,-0.5"/>
<text text-anchor="middle" x="499.38" y="-7.5" font-family="Helvetica,sans-Serif" font-size="10.00">type_traits</text>
</a>
</g>
</g>
<!-- Node9&#45;&gt;Node10 -->
<g id="edge9" class="edge">
<title>Node9&#45;&gt;Node10</title>
<path fill="none" stroke="midnightblue" d="M530.67,-56.4C524.83,-47.93 517.37,-37.1 511.19,-28.14"/>
<polygon fill="midnightblue" stroke="midnightblue" points="513.9,-25.91 505.35,-19.66 508.14,-29.88 513.9,-25.91"/>
</g>
<!-- Node11 -->
<g id="node11" class="node">
<title>Node11</title>
<g id="a_node11"><a xlink:title=" ">
<polygon fill="none" stroke="#bfbfbf" points="548.38,-0.5 548.38,-19.5 614.38,-19.5 614.38,-0.5 548.38,-0.5"/>
<text text-anchor="middle" x="581.38" y="-7.5" font-family="Helvetica,sans-Serif" font-size="10.00">string_view</text>
</a>
</g>
</g>
<!-- Node9&#45;&gt;Node11 -->
<g id="edge10" class="edge">
<title>Node9&#45;&gt;Node11</title>
<path fill="none" stroke="midnightblue" d="M550.1,-56.4C555.93,-47.93 563.4,-37.1 569.57,-28.14"/>
<polygon fill="midnightblue" stroke="midnightblue" points="572.62,-29.88 575.42,-19.66 566.86,-25.91 572.62,-29.88"/>
</g>
</g>
</svg>
