<?xml version="1.0" encoding="UTF-8" standalone="no"?>
<!DOCTYPE svg PUBLIC "-//W3C//DTD SVG 1.1//EN"
 "http://www.w3.org/Graphics/SVG/1.1/DTD/svg11.dtd">
<!-- Generated by graphviz version 2.43.0 (0)
 -->
<!-- Title: Estimators/include/BipedalLocomotion/FloatingBaseEstimators/ModelComputationsHelper.h Pages: 1 -->
<svg width="612pt" height="318pt"
 viewBox="0.00 0.00 612.00 318.00" xmlns="http://www.w3.org/2000/svg" xmlns:xlink="http://www.w3.org/1999/xlink">
<g id="graph0" class="graph" transform="scale(1 1) rotate(0) translate(4 314)">
<title>Estimators/include/BipedalLocomotion/FloatingBaseEstimators/ModelComputationsHelper.h</title>
<!-- Node1 -->
<g id="node1" class="node">
<title>Node1</title>
<g id="a_node1"><a xlink:title=" ">
<polygon fill="#bfbfbf" stroke="black" points="381,-257.5 381,-309.5 557,-309.5 557,-257.5 381,-257.5"/>
<text text-anchor="start" x="389" y="-297.5" font-family="Helvetica,sans-Serif" font-size="10.00">Estimators/include</text>
<text text-anchor="start" x="389" y="-286.5" font-family="Helvetica,sans-Serif" font-size="10.00">/BipedalLocomotion/Floating</text>
<text text-anchor="start" x="389" y="-275.5" font-family="Helvetica,sans-Serif" font-size="10.00">BaseEstimators/ModelComputations</text>
<text text-anchor="middle" x="469" y="-264.5" font-family="Helvetica,sans-Serif" font-size="10.00">Helper.h</text>
</a>
</g>
</g>
<!-- Node2 -->
<g id="node2" class="node">
<title>Node2</title>
<g id="a_node2"><a xlink:title=" ">
<polygon fill="none" stroke="#bfbfbf" points="552,-62 552,-81 604,-81 604,-62 552,-62"/>
<text text-anchor="middle" x="578" y="-69" font-family="Helvetica,sans-Serif" font-size="10.00">memory</text>
</a>
</g>
</g>
<!-- Node1&#45;&gt;Node2 -->
<g id="edge1" class="edge">
<title>Node1&#45;&gt;Node2</title>
<path fill="none" stroke="midnightblue" d="M521.29,-257.4C535.73,-247.97 549.91,-235.85 559,-221 583.92,-180.29 582.86,-121.58 580.28,-91.64"/>
<polygon fill="midnightblue" stroke="midnightblue" points="583.72,-90.93 579.22,-81.34 576.76,-91.65 583.72,-90.93"/>
</g>
<!-- Node3 -->
<g id="node3" class="node">
<title>Node3</title>
<g id="a_node3"><a xlink:title=" ">
<polygon fill="none" stroke="#bfbfbf" points="388.5,-196 388.5,-215 549.5,-215 549.5,-196 388.5,-196"/>
<text text-anchor="middle" x="469" y="-203" font-family="Helvetica,sans-Serif" font-size="10.00">iDynTree/KinDynComputations.h</text>
</a>
</g>
</g>
<!-- Node1&#45;&gt;Node3 -->
<g id="edge2" class="edge">
<title>Node1&#45;&gt;Node3</title>
<path fill="none" stroke="midnightblue" d="M469,-257.19C469,-246.76 469,-234.9 469,-225.27"/>
<polygon fill="midnightblue" stroke="midnightblue" points="472.5,-225.21 469,-215.21 465.5,-225.21 472.5,-225.21"/>
</g>
<!-- Node4 -->
<g id="node4" class="node">
<title>Node4</title>
<g id="a_node4"><a xlink:href="IParametersHandler_8h.html" target="_top" xlink:title=" ">
<polygon fill="none" stroke="black" points="218,-190.5 218,-220.5 370,-220.5 370,-190.5 218,-190.5"/>
<text text-anchor="start" x="226" y="-208.5" font-family="Helvetica,sans-Serif" font-size="10.00">BipedalLocomotion/Parameters</text>
<text text-anchor="middle" x="294" y="-197.5" font-family="Helvetica,sans-Serif" font-size="10.00">Handler/IParametersHandler.h</text>
</a>
</g>
</g>
<!-- Node1&#45;&gt;Node4 -->
<g id="edge3" class="edge">
<title>Node1&#45;&gt;Node4</title>
<path fill="none" stroke="midnightblue" d="M411.21,-257.4C386.56,-246.7 358.34,-234.44 335.76,-224.64"/>
<polygon fill="midnightblue" stroke="midnightblue" points="337.03,-221.37 326.46,-220.6 334.24,-227.79 337.03,-221.37"/>
</g>
<!-- Node4&#45;&gt;Node2 -->
<g id="edge4" class="edge">
<title>Node4&#45;&gt;Node2</title>
<path fill="none" stroke="midnightblue" d="M370.05,-191.33C404.57,-183.47 445.15,-171.52 479,-154 512.41,-136.71 544.85,-106.73 563.04,-88.35"/>
<polygon fill="midnightblue" stroke="midnightblue" points="565.69,-90.65 570.14,-81.03 560.67,-85.77 565.69,-90.65"/>
</g>
<!-- Node5 -->
<g id="node5" class="node">
<title>Node5</title>
<g id="a_node5"><a xlink:title=" ">
<polygon fill="none" stroke="#bfbfbf" points="212.5,-129 212.5,-148 253.5,-148 253.5,-129 212.5,-129"/>
<text text-anchor="middle" x="233" y="-136" font-family="Helvetica,sans-Serif" font-size="10.00">string</text>
</a>
</g>
</g>
<!-- Node4&#45;&gt;Node5 -->
<g id="edge5" class="edge">
<title>Node4&#45;&gt;Node5</title>
<path fill="none" stroke="midnightblue" d="M280.76,-190.4C271.16,-180.16 258.15,-166.3 248.13,-155.62"/>
<polygon fill="midnightblue" stroke="midnightblue" points="250.55,-153.09 241.16,-148.19 245.45,-157.88 250.55,-153.09"/>
</g>
<!-- Node6 -->
<g id="node6" class="node">
<title>Node6</title>
<g id="a_node6"><a xlink:title=" ">
<polygon fill="none" stroke="#bfbfbf" points="272,-129 272,-148 316,-148 316,-129 272,-129"/>
<text text-anchor="middle" x="294" y="-136" font-family="Helvetica,sans-Serif" font-size="10.00">vector</text>
</a>
</g>
</g>
<!-- Node4&#45;&gt;Node6 -->
<g id="edge6" class="edge">
<title>Node4&#45;&gt;Node6</title>
<path fill="none" stroke="midnightblue" d="M294,-190.4C294,-181.06 294,-168.71 294,-158.52"/>
<polygon fill="midnightblue" stroke="midnightblue" points="297.5,-158.19 294,-148.19 290.5,-158.19 297.5,-158.19"/>
</g>
<!-- Node7 -->
<g id="node7" class="node">
<title>Node7</title>
<g id="a_node7"><a xlink:href="Vector_8h_source.html" target="_top" xlink:title=" ">
<polygon fill="none" stroke="black" points="334,-123.5 334,-153.5 470,-153.5 470,-123.5 334,-123.5"/>
<text text-anchor="start" x="342" y="-141.5" font-family="Helvetica,sans-Serif" font-size="10.00">BipedalLocomotion/Generic</text>
<text text-anchor="middle" x="402" y="-130.5" font-family="Helvetica,sans-Serif" font-size="10.00">Container/Vector.h</text>
</a>
</g>
</g>
<!-- Node4&#45;&gt;Node7 -->
<g id="edge7" class="edge">
<title>Node4&#45;&gt;Node7</title>
<path fill="none" stroke="midnightblue" d="M317.43,-190.4C332.72,-181.2 352.88,-169.07 369.68,-158.95"/>
<polygon fill="midnightblue" stroke="midnightblue" points="371.85,-161.73 378.61,-153.58 368.24,-155.73 371.85,-161.73"/>
</g>
<!-- Node9 -->
<g id="node9" class="node">
<title>Node9</title>
<g id="a_node9"><a xlink:href="TemplateHelpers_8h_source.html" target="_top" xlink:title=" ">
<polygon fill="none" stroke="black" points="41.5,-56.5 41.5,-86.5 184.5,-86.5 184.5,-56.5 41.5,-56.5"/>
<text text-anchor="start" x="49.5" y="-74.5" font-family="Helvetica,sans-Serif" font-size="10.00">BipedalLocomotion/Generic</text>
<text text-anchor="middle" x="113" y="-63.5" font-family="Helvetica,sans-Serif" font-size="10.00">Container/TemplateHelpers.h</text>
</a>
</g>
</g>
<!-- Node4&#45;&gt;Node9 -->
<g id="edge17" class="edge">
<title>Node4&#45;&gt;Node9</title>
<path fill="none" stroke="midnightblue" d="M264.7,-190.42C246.34,-181.07 222.54,-167.99 203,-154 177.58,-135.81 151.41,-111.34 133.89,-93.98"/>
<polygon fill="midnightblue" stroke="midnightblue" points="136.02,-91.16 126.48,-86.55 131.07,-96.1 136.02,-91.16"/>
</g>
<!-- Node7&#45;&gt;Node2 -->
<g id="edge16" class="edge">
<title>Node7&#45;&gt;Node2</title>
<path fill="none" stroke="midnightblue" d="M442.92,-123.44C471.17,-113.59 509.52,-99.92 543,-87 544.65,-86.37 546.33,-85.7 548.03,-85.03"/>
<polygon fill="midnightblue" stroke="midnightblue" points="549.76,-88.1 557.71,-81.1 547.13,-81.62 549.76,-88.1"/>
</g>
<!-- Node8 -->
<g id="node8" class="node">
<title>Node8</title>
<g id="a_node8"><a xlink:title=" ">
<polygon fill="none" stroke="#bfbfbf" points="203,-62 203,-81 317,-81 317,-62 203,-62"/>
<text text-anchor="middle" x="260" y="-69" font-family="Helvetica,sans-Serif" font-size="10.00">iDynTree/Core/Span.h</text>
</a>
</g>
</g>
<!-- Node7&#45;&gt;Node8 -->
<g id="edge8" class="edge">
<title>Node7&#45;&gt;Node8</title>
<path fill="none" stroke="midnightblue" d="M371.19,-123.4C346.38,-112.04 311.82,-96.22 287.84,-85.24"/>
<polygon fill="midnightblue" stroke="midnightblue" points="289.13,-81.99 278.58,-81.01 286.22,-88.35 289.13,-81.99"/>
</g>
<!-- Node7&#45;&gt;Node9 -->
<g id="edge9" class="edge">
<title>Node7&#45;&gt;Node9</title>
<path fill="none" stroke="midnightblue" d="M339.65,-123.48C294.41,-113.3 233.09,-99.51 185.64,-88.84"/>
<polygon fill="midnightblue" stroke="midnightblue" points="186.26,-85.39 175.74,-86.61 184.73,-92.22 186.26,-85.39"/>
</g>
<!-- Node13 -->
<g id="node13" class="node">
<title>Node13</title>
<g id="a_node13"><a xlink:title=" ">
<polygon fill="none" stroke="#bfbfbf" points="335.5,-62 335.5,-81 394.5,-81 394.5,-62 335.5,-62"/>
<text text-anchor="middle" x="365" y="-69" font-family="Helvetica,sans-Serif" font-size="10.00">functional</text>
</a>
</g>
</g>
<!-- Node7&#45;&gt;Node13 -->
<g id="edge13" class="edge">
<title>Node7&#45;&gt;Node13</title>
<path fill="none" stroke="midnightblue" d="M393.97,-123.4C388.37,-113.56 380.87,-100.38 374.9,-89.89"/>
<polygon fill="midnightblue" stroke="midnightblue" points="377.94,-88.15 369.95,-81.19 371.85,-91.62 377.94,-88.15"/>
</g>
<!-- Node14 -->
<g id="node14" class="node">
<title>Node14</title>
<g id="a_node14"><a xlink:title=" ">
<polygon fill="none" stroke="#bfbfbf" points="412.5,-62 412.5,-81 461.5,-81 461.5,-62 412.5,-62"/>
<text text-anchor="middle" x="437" y="-69" font-family="Helvetica,sans-Serif" font-size="10.00">cassert</text>
</a>
</g>
</g>
<!-- Node7&#45;&gt;Node14 -->
<g id="edge14" class="edge">
<title>Node7&#45;&gt;Node14</title>
<path fill="none" stroke="midnightblue" d="M409.59,-123.4C414.84,-113.66 421.84,-100.65 427.46,-90.21"/>
<polygon fill="midnightblue" stroke="midnightblue" points="430.66,-91.66 432.32,-81.19 424.5,-88.34 430.66,-91.66"/>
</g>
<!-- Node15 -->
<g id="node15" class="node">
<title>Node15</title>
<g id="a_node15"><a xlink:title=" ">
<polygon fill="none" stroke="#bfbfbf" points="480,-62 480,-81 534,-81 534,-62 480,-62"/>
<text text-anchor="middle" x="507" y="-69" font-family="Helvetica,sans-Serif" font-size="10.00">iostream</text>
</a>
</g>
</g>
<!-- Node7&#45;&gt;Node15 -->
<g id="edge15" class="edge">
<title>Node7&#45;&gt;Node15</title>
<path fill="none" stroke="midnightblue" d="M424.78,-123.4C442.55,-112.39 467.1,-97.2 484.74,-86.28"/>
<polygon fill="midnightblue" stroke="midnightblue" points="486.6,-89.25 493.26,-81.01 482.91,-83.29 486.6,-89.25"/>
</g>
<!-- Node10 -->
<g id="node10" class="node">
<title>Node10</title>
<g id="a_node10"><a xlink:title=" ">
<polygon fill="none" stroke="#bfbfbf" points="0,-0.5 0,-19.5 62,-19.5 62,-0.5 0,-0.5"/>
<text text-anchor="middle" x="31" y="-7.5" font-family="Helvetica,sans-Serif" font-size="10.00">type_traits</text>
</a>
</g>
</g>
<!-- Node9&#45;&gt;Node10 -->
<g id="edge10" class="edge">
<title>Node9&#45;&gt;Node10</title>
<path fill="none" stroke="midnightblue" d="M93.57,-56.4C80.79,-47.13 64.11,-35.03 51.19,-25.65"/>
<polygon fill="midnightblue" stroke="midnightblue" points="53.08,-22.7 42.93,-19.66 48.97,-28.36 53.08,-22.7"/>
</g>
<!-- Node11 -->
<g id="node11" class="node">
<title>Node11</title>
<g id="a_node11"><a xlink:title=" ">
<polygon fill="none" stroke="#bfbfbf" points="80,-0.5 80,-19.5 146,-19.5 146,-0.5 80,-0.5"/>
<text text-anchor="middle" x="113" y="-7.5" font-family="Helvetica,sans-Serif" font-size="10.00">string_view</text>
</a>
</g>
</g>
<!-- Node9&#45;&gt;Node11 -->
<g id="edge11" class="edge">
<title>Node9&#45;&gt;Node11</title>
<path fill="none" stroke="midnightblue" d="M113,-56.4C113,-48.47 113,-38.46 113,-29.86"/>
<polygon fill="midnightblue" stroke="midnightblue" points="116.5,-29.66 113,-19.66 109.5,-29.66 116.5,-29.66"/>
</g>
<!-- Node12 -->
<g id="node12" class="node">
<title>Node12</title>
<g id="a_node12"><a xlink:title=" ">
<polygon fill="none" stroke="#bfbfbf" points="164.5,-0.5 164.5,-19.5 229.5,-19.5 229.5,-0.5 164.5,-0.5"/>
<text text-anchor="middle" x="197" y="-7.5" font-family="Helvetica,sans-Serif" font-size="10.00">Eigen/Core</text>
</a>
</g>
</g>
<!-- Node9&#45;&gt;Node12 -->
<g id="edge12" class="edge">
<title>Node9&#45;&gt;Node12</title>
<path fill="none" stroke="midnightblue" d="M132.91,-56.4C145.99,-47.13 163.08,-35.03 176.32,-25.65"/>
<polygon fill="midnightblue" stroke="midnightblue" points="178.64,-28.29 184.78,-19.66 174.59,-22.58 178.64,-28.29"/>
</g>
</g>
</svg>
