<?xml version="1.0" encoding="UTF-8" standalone="no"?>
<!DOCTYPE svg PUBLIC "-//W3C//DTD SVG 1.1//EN"
 "http://www.w3.org/Graphics/SVG/1.1/DTD/svg11.dtd">
<!-- Generated by graphviz version 2.43.0 (0)
 -->
<!-- Title: IK/include/BipedalLocomotion/IK/QPInverseKinematics.h Pages: 1 -->
<!--zoomable 430 -->
<svg id="main" version="1.1" xmlns="http://www.w3.org/2000/svg" xmlns:xlink="http://www.w3.org/1999/xlink" xml:space="preserve" onload="init(evt)">
<style type="text/css"><![CDATA[
.edge:hover path { stroke: red; }
.edge:hover polygon { stroke: red; fill: red; }
]]></style>
<script type="text/javascript"><![CDATA[
var edges = document.getElementsByTagName('g');
if (edges && edges.length) {
  for (var i=0;i<edges.length;i++) {
    if (edges[i].id.substr(0,4)=='edge') {
      edges[i].setAttribute('class','edge');
    }
  }
}
]]></script>
        <defs>
                <circle id="rim" cx="0" cy="0" r="7"/>
                <circle id="rim2" cx="0" cy="0" r="3.5"/>
                <g id="zoomPlus">
                        <use xlink:href="#rim" fill="#404040">
                                <set attributeName="fill" to="#808080" begin="zoomplus.mouseover" end="zoomplus.mouseout"/>
                        </use>
                        <path d="M-4,0h8M0,-4v8" fill="none" stroke="white" stroke-width="1.5" pointer-events="none"/>
                </g>
                <g id="zoomMin">
                        <use xlink:href="#rim" fill="#404040">
                                <set attributeName="fill" to="#808080" begin="zoomminus.mouseover" end="zoomminus.mouseout"/>
                        </use>
                        <path d="M-4,0h8" fill="none" stroke="white" stroke-width="1.5" pointer-events="none"/>
                </g>
                <g id="dirArrow">
                        <path fill="none" stroke="white" stroke-width="1.5" d="M0,-3.0v7 M-2.5,-0.5L0,-3.0L2.5,-0.5"/>
                </g>
               <g id="resetDef">
                       <use xlink:href="#rim2" fill="#404040">
                               <set attributeName="fill" to="#808080" begin="reset.mouseover" end="reset.mouseout"/>
                       </use>
               </g>
        </defs>

<script type="text/javascript">
var viewWidth = 1191;
var viewHeight = 430;
var sectionId = 'dynsection-0';
</script>
<script xlink:href="svgpan.js"/>
<svg id="graph" class="graph">
<g id="viewport">
<title>IK/include/BipedalLocomotion/IK/QPInverseKinematics.h</title>
<!-- Node1 -->
<g id="node1" class="node">
<title>Node1</title>
<g id="a_node1"><a xlink:title=" ">
<polygon fill="#bfbfbf" stroke="black" points="851.5,-391.5 851.5,-421.5 997.5,-421.5 997.5,-391.5 851.5,-391.5"/>
<text text-anchor="start" x="859.5" y="-409.5" font-family="Helvetica,sans-Serif" font-size="10.00">IK/include/BipedalLocomotion</text>
<text text-anchor="middle" x="924.5" y="-398.5" font-family="Helvetica,sans-Serif" font-size="10.00">/IK/QPInverseKinematics.h</text>
</a>
</g>
</g>
<!-- Node2 -->
<g id="node2" class="node">
<title>Node2</title>
<g id="a_node2"><a xlink:title=" ">
<polygon fill="none" stroke="#bfbfbf" points="620.5,-62 620.5,-81 672.5,-81 672.5,-62 620.5,-62"/>
<text text-anchor="middle" x="646.5" y="-69" font-family="Helvetica,sans-Serif" font-size="10.00">memory</text>
</a>
</g>
</g>
<!-- Node1&#45;&gt;Node2 -->
<g id="edge1" class="edge">
<title>Node1&#45;&gt;Node2</title>
<path fill="none" stroke="midnightblue" d="M997.74,-399C1074.02,-387.73 1182.5,-357.02 1182.5,-273.5 1182.5,-273.5 1182.5,-273.5 1182.5,-204.5 1182.5,-101.36 803.55,-78.34 682.91,-73.63"/>
<polygon fill="midnightblue" stroke="midnightblue" points="682.84,-70.12 672.72,-73.25 682.58,-77.12 682.84,-70.12"/>
</g>
<!-- Node3 -->
<g id="node3" class="node">
<title>Node3</title>
<g id="a_node3"><a xlink:title=" ">
<polygon fill="none" stroke="#bfbfbf" points="79.5,-129 79.5,-148 123.5,-148 123.5,-129 79.5,-129"/>
<text text-anchor="middle" x="101.5" y="-136" font-family="Helvetica,sans-Serif" font-size="10.00">vector</text>
</a>
</g>
</g>
<!-- Node1&#45;&gt;Node3 -->
<g id="edge2" class="edge">
<title>Node1&#45;&gt;Node3</title>
<path fill="none" stroke="midnightblue" d="M851.39,-400.29C770.49,-393.59 636.59,-379.78 523.5,-355 426.97,-333.85 405.25,-319.25 311.5,-288 226.16,-259.55 180.57,-287.96 120.5,-221 105.15,-203.89 101.51,-176.79 100.98,-158.59"/>
<polygon fill="midnightblue" stroke="midnightblue" points="104.48,-158.34 100.98,-148.34 97.48,-158.34 104.48,-158.34"/>
</g>
<!-- Node4 -->
<g id="node4" class="node">
<title>Node4</title>
<g id="a_node4"><a xlink:title=" ">
<polygon fill="none" stroke="#bfbfbf" points="810,-129 810,-148 851,-148 851,-129 810,-129"/>
<text text-anchor="middle" x="830.5" y="-136" font-family="Helvetica,sans-Serif" font-size="10.00">string</text>
</a>
</g>
</g>
<!-- Node1&#45;&gt;Node4 -->
<g id="edge3" class="edge">
<title>Node1&#45;&gt;Node4</title>
<path fill="none" stroke="midnightblue" d="M997.81,-392.03C1023.32,-384.49 1050.73,-372.86 1071.5,-355 1106.57,-324.85 1131.99,-295.59 1106.5,-257 1050.84,-172.73 921.12,-148.71 861.49,-142.01"/>
<polygon fill="midnightblue" stroke="midnightblue" points="861.51,-138.49 851.21,-140.95 860.8,-145.46 861.51,-138.49"/>
</g>
<!-- Node5 -->
<g id="node5" class="node">
<title>Node5</title>
<g id="a_node5"><a xlink:title=" ">
<polygon fill="none" stroke="#bfbfbf" points="867,-196 867,-215 940,-215 940,-196 867,-196"/>
<text text-anchor="middle" x="903.5" y="-203" font-family="Helvetica,sans-Serif" font-size="10.00">Eigen/Dense</text>
</a>
</g>
</g>
<!-- Node1&#45;&gt;Node5 -->
<g id="edge4" class="edge">
<title>Node1&#45;&gt;Node5</title>
<path fill="none" stroke="midnightblue" d="M963.1,-391.36C1023.92,-366.92 1130.91,-313.93 1087.5,-257 1070.9,-235.24 999.07,-220.53 950.22,-212.83"/>
<polygon fill="midnightblue" stroke="midnightblue" points="950.59,-209.35 940.17,-211.3 949.53,-216.27 950.59,-209.35"/>
</g>
<!-- Node6 -->
<g id="node6" class="node">
<title>Node6</title>
<g id="a_node6"><a xlink:href="IntegrationBasedIK_8h.html" target="_top" xlink:title=" ">
<polygon fill="none" stroke="black" points="782.5,-324.5 782.5,-354.5 894.5,-354.5 894.5,-324.5 782.5,-324.5"/>
<text text-anchor="start" x="790.5" y="-342.5" font-family="Helvetica,sans-Serif" font-size="10.00">BipedalLocomotion/IK</text>
<text text-anchor="middle" x="838.5" y="-331.5" font-family="Helvetica,sans-Serif" font-size="10.00">/IntegrationBasedIK.h</text>
</a>
</g>
</g>
<!-- Node1&#45;&gt;Node6 -->
<g id="edge5" class="edge">
<title>Node1&#45;&gt;Node6</title>
<path fill="none" stroke="midnightblue" d="M905.84,-391.4C894.01,-382.45 878.51,-370.74 865.36,-360.8"/>
<polygon fill="midnightblue" stroke="midnightblue" points="867.21,-357.81 857.12,-354.58 862.99,-363.4 867.21,-357.81"/>
</g>
<!-- Node9 -->
<g id="node9" class="node">
<title>Node9</title>
<g id="a_node9"><a xlink:href="IParametersHandler_8h.html" target="_top" xlink:title=" ">
<polygon fill="none" stroke="black" points="129.5,-190.5 129.5,-220.5 281.5,-220.5 281.5,-190.5 129.5,-190.5"/>
<text text-anchor="start" x="137.5" y="-208.5" font-family="Helvetica,sans-Serif" font-size="10.00">BipedalLocomotion/Parameters</text>
<text text-anchor="middle" x="205.5" y="-197.5" font-family="Helvetica,sans-Serif" font-size="10.00">Handler/IParametersHandler.h</text>
</a>
</g>
</g>
<!-- Node1&#45;&gt;Node9 -->
<g id="edge37" class="edge">
<title>Node1&#45;&gt;Node9</title>
<path fill="none" stroke="midnightblue" d="M851.18,-393.85C747.64,-376.38 553.38,-339.82 393.5,-288 339.37,-270.46 279.49,-243.02 242.18,-224.9"/>
<polygon fill="midnightblue" stroke="midnightblue" points="243.72,-221.76 233.2,-220.51 240.64,-228.05 243.72,-221.76"/>
</g>
<!-- Node19 -->
<g id="node19" class="node">
<title>Node19</title>
<g id="a_node19"><a xlink:href="Advanceable_8h.html" target="_top" xlink:title=" ">
<polygon fill="none" stroke="black" points="942.5,-257.5 942.5,-287.5 1078.5,-287.5 1078.5,-257.5 942.5,-257.5"/>
<text text-anchor="start" x="950.5" y="-275.5" font-family="Helvetica,sans-Serif" font-size="10.00">BipedalLocomotion/System</text>
<text text-anchor="middle" x="1010.5" y="-264.5" font-family="Helvetica,sans-Serif" font-size="10.00">/Advanceable.h</text>
</a>
</g>
</g>
<!-- Node1&#45;&gt;Node19 -->
<g id="edge38" class="edge">
<title>Node1&#45;&gt;Node19</title>
<path fill="none" stroke="midnightblue" d="M933.7,-391.37C948.57,-368.55 978.02,-323.36 995.81,-296.04"/>
<polygon fill="midnightblue" stroke="midnightblue" points="998.84,-297.81 1001.36,-287.52 992.97,-293.99 998.84,-297.81"/>
</g>
<!-- Node20 -->
<g id="node20" class="node">
<title>Node20</title>
<g id="a_node20"><a xlink:href="LinearTask_8h.html" target="_top" xlink:title=" ">
<polygon fill="none" stroke="black" points="540.5,-257.5 540.5,-287.5 652.5,-287.5 652.5,-257.5 540.5,-257.5"/>
<text text-anchor="start" x="548.5" y="-275.5" font-family="Helvetica,sans-Serif" font-size="10.00">BipedalLocomotion/IK</text>
<text text-anchor="middle" x="596.5" y="-264.5" font-family="Helvetica,sans-Serif" font-size="10.00">/LinearTask.h</text>
</a>
</g>
</g>
<!-- Node1&#45;&gt;Node20 -->
<g id="edge36" class="edge">
<title>Node1&#45;&gt;Node20</title>
<path fill="none" stroke="midnightblue" d="M878.1,-391.42C847.99,-381.94 808.07,-368.69 773.5,-355 724.27,-335.5 669.08,-309.38 633.61,-292.02"/>
<polygon fill="midnightblue" stroke="midnightblue" points="635.12,-288.86 624.6,-287.59 632.03,-295.14 635.12,-288.86"/>
</g>
<!-- Node6&#45;&gt;Node2 -->
<g id="edge6" class="edge">
<title>Node6&#45;&gt;Node2</title>
<path fill="none" stroke="midnightblue" d="M859.36,-324.36C886.15,-304.79 931.35,-266.63 949.5,-221 954.59,-208.2 955.65,-202.33 949.5,-190 900.63,-92.04 751.77,-75.07 682.57,-72.6"/>
<polygon fill="midnightblue" stroke="midnightblue" points="682.66,-69.1 672.57,-72.33 682.47,-76.1 682.66,-69.1"/>
</g>
<!-- Node6&#45;&gt;Node4 -->
<g id="edge7" class="edge">
<title>Node6&#45;&gt;Node4</title>
<path fill="none" stroke="midnightblue" d="M837.92,-324.19C836.51,-288.99 832.86,-198.17 831.26,-158.51"/>
<polygon fill="midnightblue" stroke="midnightblue" points="834.76,-158.21 830.86,-148.36 827.76,-158.49 834.76,-158.21"/>
</g>
<!-- Node6&#45;&gt;Node5 -->
<g id="edge9" class="edge">
<title>Node6&#45;&gt;Node5</title>
<path fill="none" stroke="midnightblue" d="M845.46,-324.37C857.37,-300.18 881.65,-250.88 894.71,-224.35"/>
<polygon fill="midnightblue" stroke="midnightblue" points="897.99,-225.61 899.27,-215.1 891.71,-222.52 897.99,-225.61"/>
</g>
<!-- Node7 -->
<g id="node7" class="node">
<title>Node7</title>
<g id="a_node7"><a xlink:title=" ">
<polygon fill="none" stroke="#bfbfbf" points="670.5,-263 670.5,-282 720.5,-282 720.5,-263 670.5,-263"/>
<text text-anchor="middle" x="695.5" y="-270" font-family="Helvetica,sans-Serif" font-size="10.00">optional</text>
</a>
</g>
</g>
<!-- Node6&#45;&gt;Node7 -->
<g id="edge8" class="edge">
<title>Node6&#45;&gt;Node7</title>
<path fill="none" stroke="midnightblue" d="M807.47,-324.4C782.49,-313.04 747.68,-297.22 723.54,-286.24"/>
<polygon fill="midnightblue" stroke="midnightblue" points="724.77,-282.96 714.22,-282.01 721.87,-289.33 724.77,-282.96"/>
</g>
<!-- Node8 -->
<g id="node8" class="node">
<title>Node8</title>
<g id="a_node8"><a xlink:title=" ">
<polygon fill="none" stroke="#bfbfbf" points="739,-263 739,-282 810,-282 810,-263 739,-263"/>
<text text-anchor="middle" x="774.5" y="-270" font-family="Helvetica,sans-Serif" font-size="10.00">manif/SE3.h</text>
</a>
</g>
</g>
<!-- Node6&#45;&gt;Node8 -->
<g id="edge10" class="edge">
<title>Node6&#45;&gt;Node8</title>
<path fill="none" stroke="midnightblue" d="M824.61,-324.4C814.54,-314.16 800.88,-300.3 790.37,-289.62"/>
<polygon fill="midnightblue" stroke="midnightblue" points="792.57,-286.86 783.06,-282.19 787.58,-291.78 792.57,-286.86"/>
</g>
<!-- Node6&#45;&gt;Node9 -->
<g id="edge11" class="edge">
<title>Node6&#45;&gt;Node9</title>
<path fill="none" stroke="midnightblue" d="M782.23,-330.66C720.46,-321.72 618.51,-306 531.5,-288 438.17,-268.69 331.2,-240.84 266.01,-223.21"/>
<polygon fill="midnightblue" stroke="midnightblue" points="266.87,-219.82 256.3,-220.58 265.04,-226.57 266.87,-219.82"/>
</g>
<!-- Node6&#45;&gt;Node19 -->
<g id="edge26" class="edge">
<title>Node6&#45;&gt;Node19</title>
<path fill="none" stroke="midnightblue" d="M875.82,-324.4C901.63,-314.64 936.16,-301.59 963.79,-291.15"/>
<polygon fill="midnightblue" stroke="midnightblue" points="965.13,-294.39 973.25,-287.58 962.66,-287.84 965.13,-294.39"/>
</g>
<!-- Node6&#45;&gt;Node20 -->
<g id="edge27" class="edge">
<title>Node6&#45;&gt;Node20</title>
<path fill="none" stroke="midnightblue" d="M786.29,-324.48C748.88,-314.43 698.35,-300.86 658.83,-290.24"/>
<polygon fill="midnightblue" stroke="midnightblue" points="659.6,-286.82 649.04,-287.61 657.79,-293.59 659.6,-286.82"/>
</g>
<!-- Node9&#45;&gt;Node2 -->
<g id="edge12" class="edge">
<title>Node9&#45;&gt;Node2</title>
<path fill="none" stroke="midnightblue" d="M252.28,-190.5C340.74,-164.02 530.81,-107.13 610.34,-83.32"/>
<polygon fill="midnightblue" stroke="midnightblue" points="611.79,-86.54 620.37,-80.32 609.78,-79.84 611.79,-86.54"/>
</g>
<!-- Node9&#45;&gt;Node3 -->
<g id="edge14" class="edge">
<title>Node9&#45;&gt;Node3</title>
<path fill="none" stroke="midnightblue" d="M182.93,-190.4C165.49,-179.5 141.47,-164.48 124.03,-153.58"/>
<polygon fill="midnightblue" stroke="midnightblue" points="125.45,-150.34 115.11,-148.01 121.74,-156.28 125.45,-150.34"/>
</g>
<!-- Node9&#45;&gt;Node4 -->
<g id="edge13" class="edge">
<title>Node9&#45;&gt;Node4</title>
<path fill="none" stroke="midnightblue" d="M281.9,-191.11C284.8,-190.71 287.68,-190.34 290.5,-190 512.57,-163.16 574.11,-202.39 792.5,-154 795.51,-153.33 798.59,-152.47 801.64,-151.51"/>
<polygon fill="midnightblue" stroke="midnightblue" points="802.86,-154.79 811.11,-148.15 800.52,-148.19 802.86,-154.79"/>
</g>
<!-- Node10 -->
<g id="node10" class="node">
<title>Node10</title>
<g id="a_node10"><a xlink:href="Vector_8h_source.html" target="_top" xlink:title=" ">
<polygon fill="none" stroke="black" points="141.5,-123.5 141.5,-153.5 277.5,-153.5 277.5,-123.5 141.5,-123.5"/>
<text text-anchor="start" x="149.5" y="-141.5" font-family="Helvetica,sans-Serif" font-size="10.00">BipedalLocomotion/Generic</text>
<text text-anchor="middle" x="209.5" y="-130.5" font-family="Helvetica,sans-Serif" font-size="10.00">Container/Vector.h</text>
</a>
</g>
</g>
<!-- Node9&#45;&gt;Node10 -->
<g id="edge15" class="edge">
<title>Node9&#45;&gt;Node10</title>
<path fill="none" stroke="midnightblue" d="M206.37,-190.4C206.85,-182.56 207.46,-172.6 208.02,-163.57"/>
<polygon fill="midnightblue" stroke="midnightblue" points="211.51,-163.77 208.63,-153.58 204.53,-163.34 211.51,-163.77"/>
</g>
<!-- Node12 -->
<g id="node12" class="node">
<title>Node12</title>
<g id="a_node12"><a xlink:href="TemplateHelpers_8h_source.html" target="_top" xlink:title=" ">
<polygon fill="none" stroke="black" points="349,-56.5 349,-86.5 492,-86.5 492,-56.5 349,-56.5"/>
<text text-anchor="start" x="357" y="-74.5" font-family="Helvetica,sans-Serif" font-size="10.00">BipedalLocomotion/Generic</text>
<text text-anchor="middle" x="420.5" y="-63.5" font-family="Helvetica,sans-Serif" font-size="10.00">Container/TemplateHelpers.h</text>
</a>
</g>
</g>
<!-- Node9&#45;&gt;Node12 -->
<g id="edge25" class="edge">
<title>Node9&#45;&gt;Node12</title>
<path fill="none" stroke="midnightblue" d="M228.51,-190.37C267.14,-166.65 345.11,-118.79 388.86,-91.92"/>
<polygon fill="midnightblue" stroke="midnightblue" points="390.97,-94.74 397.66,-86.52 387.3,-88.77 390.97,-94.74"/>
</g>
<!-- Node10&#45;&gt;Node2 -->
<g id="edge24" class="edge">
<title>Node10&#45;&gt;Node2</title>
<path fill="none" stroke="midnightblue" d="M277.78,-127.34C371.59,-113.39 536.99,-88.79 610.06,-77.92"/>
<polygon fill="midnightblue" stroke="midnightblue" points="610.77,-81.35 620.15,-76.42 609.74,-74.43 610.77,-81.35"/>
</g>
<!-- Node11 -->
<g id="node11" class="node">
<title>Node11</title>
<g id="a_node11"><a xlink:title=" ">
<polygon fill="none" stroke="#bfbfbf" points="216.5,-62 216.5,-81 330.5,-81 330.5,-62 216.5,-62"/>
<text text-anchor="middle" x="273.5" y="-69" font-family="Helvetica,sans-Serif" font-size="10.00">iDynTree/Core/Span.h</text>
</a>
</g>
</g>
<!-- Node10&#45;&gt;Node11 -->
<g id="edge16" class="edge">
<title>Node10&#45;&gt;Node11</title>
<path fill="none" stroke="midnightblue" d="M223.39,-123.4C233.46,-113.16 247.12,-99.3 257.63,-88.62"/>
<polygon fill="midnightblue" stroke="midnightblue" points="260.42,-90.78 264.94,-81.19 255.43,-85.86 260.42,-90.78"/>
</g>
<!-- Node10&#45;&gt;Node12 -->
<g id="edge17" class="edge">
<title>Node10&#45;&gt;Node12</title>
<path fill="none" stroke="midnightblue" d="M255.02,-123.48C287.22,-113.56 330.58,-100.2 364.83,-89.65"/>
<polygon fill="midnightblue" stroke="midnightblue" points="366.17,-92.9 374.69,-86.61 364.11,-86.21 366.17,-92.9"/>
</g>
<!-- Node16 -->
<g id="node16" class="node">
<title>Node16</title>
<g id="a_node16"><a xlink:title=" ">
<polygon fill="none" stroke="#bfbfbf" points="0,-62 0,-81 59,-81 59,-62 0,-62"/>
<text text-anchor="middle" x="29.5" y="-69" font-family="Helvetica,sans-Serif" font-size="10.00">functional</text>
</a>
</g>
</g>
<!-- Node10&#45;&gt;Node16 -->
<g id="edge21" class="edge">
<title>Node10&#45;&gt;Node16</title>
<path fill="none" stroke="midnightblue" d="M169.32,-123.49C140.84,-113.48 101.75,-99.62 67.5,-87 65.4,-86.23 63.24,-85.42 61.06,-84.61"/>
<polygon fill="midnightblue" stroke="midnightblue" points="62.16,-81.28 51.57,-81.02 59.69,-87.83 62.16,-81.28"/>
</g>
<!-- Node17 -->
<g id="node17" class="node">
<title>Node17</title>
<g id="a_node17"><a xlink:title=" ">
<polygon fill="none" stroke="#bfbfbf" points="77,-62 77,-81 126,-81 126,-62 77,-62"/>
<text text-anchor="middle" x="101.5" y="-69" font-family="Helvetica,sans-Serif" font-size="10.00">cassert</text>
</a>
</g>
</g>
<!-- Node10&#45;&gt;Node17 -->
<g id="edge22" class="edge">
<title>Node10&#45;&gt;Node17</title>
<path fill="none" stroke="midnightblue" d="M186.07,-123.4C167.79,-112.39 142.54,-97.2 124.4,-86.28"/>
<polygon fill="midnightblue" stroke="midnightblue" points="126.01,-83.16 115.63,-81.01 122.4,-89.16 126.01,-83.16"/>
</g>
<!-- Node18 -->
<g id="node18" class="node">
<title>Node18</title>
<g id="a_node18"><a xlink:title=" ">
<polygon fill="none" stroke="#bfbfbf" points="144.5,-62 144.5,-81 198.5,-81 198.5,-62 144.5,-62"/>
<text text-anchor="middle" x="171.5" y="-69" font-family="Helvetica,sans-Serif" font-size="10.00">iostream</text>
</a>
</g>
</g>
<!-- Node10&#45;&gt;Node18 -->
<g id="edge23" class="edge">
<title>Node10&#45;&gt;Node18</title>
<path fill="none" stroke="midnightblue" d="M201.25,-123.4C195.51,-113.56 187.8,-100.38 181.67,-89.89"/>
<polygon fill="midnightblue" stroke="midnightblue" points="184.65,-88.06 176.58,-81.19 178.61,-91.59 184.65,-88.06"/>
</g>
<!-- Node13 -->
<g id="node13" class="node">
<title>Node13</title>
<g id="a_node13"><a xlink:title=" ">
<polygon fill="none" stroke="#bfbfbf" points="307.5,-0.5 307.5,-19.5 369.5,-19.5 369.5,-0.5 307.5,-0.5"/>
<text text-anchor="middle" x="338.5" y="-7.5" font-family="Helvetica,sans-Serif" font-size="10.00">type_traits</text>
</a>
</g>
</g>
<!-- Node12&#45;&gt;Node13 -->
<g id="edge18" class="edge">
<title>Node12&#45;&gt;Node13</title>
<path fill="none" stroke="midnightblue" d="M401.07,-56.4C388.29,-47.13 371.61,-35.03 358.69,-25.65"/>
<polygon fill="midnightblue" stroke="midnightblue" points="360.58,-22.7 350.43,-19.66 356.47,-28.36 360.58,-22.7"/>
</g>
<!-- Node14 -->
<g id="node14" class="node">
<title>Node14</title>
<g id="a_node14"><a xlink:title=" ">
<polygon fill="none" stroke="#bfbfbf" points="387.5,-0.5 387.5,-19.5 453.5,-19.5 453.5,-0.5 387.5,-0.5"/>
<text text-anchor="middle" x="420.5" y="-7.5" font-family="Helvetica,sans-Serif" font-size="10.00">string_view</text>
</a>
</g>
</g>
<!-- Node12&#45;&gt;Node14 -->
<g id="edge19" class="edge">
<title>Node12&#45;&gt;Node14</title>
<path fill="none" stroke="midnightblue" d="M420.5,-56.4C420.5,-48.47 420.5,-38.46 420.5,-29.86"/>
<polygon fill="midnightblue" stroke="midnightblue" points="424,-29.66 420.5,-19.66 417,-29.66 424,-29.66"/>
</g>
<!-- Node15 -->
<g id="node15" class="node">
<title>Node15</title>
<g id="a_node15"><a xlink:title=" ">
<polygon fill="none" stroke="#bfbfbf" points="472,-0.5 472,-19.5 537,-19.5 537,-0.5 472,-0.5"/>
<text text-anchor="middle" x="504.5" y="-7.5" font-family="Helvetica,sans-Serif" font-size="10.00">Eigen/Core</text>
</a>
</g>
</g>
<!-- Node12&#45;&gt;Node15 -->
<g id="edge20" class="edge">
<title>Node12&#45;&gt;Node15</title>
<path fill="none" stroke="midnightblue" d="M440.41,-56.4C453.49,-47.13 470.58,-35.03 483.82,-25.65"/>
<polygon fill="midnightblue" stroke="midnightblue" points="486.14,-28.29 492.28,-19.66 482.09,-22.58 486.14,-28.29"/>
</g>
<!-- Node20&#45;&gt;Node2 -->
<g id="edge28" class="edge">
<title>Node20&#45;&gt;Node2</title>
<path fill="none" stroke="midnightblue" d="M607.09,-257.25C613.76,-247.53 621.94,-234.1 626.5,-221 642.06,-176.3 645.6,-120.13 646.35,-91.37"/>
<polygon fill="midnightblue" stroke="midnightblue" points="649.86,-91.21 646.53,-81.15 642.86,-91.09 649.86,-91.21"/>
</g>
<!-- Node20&#45;&gt;Node5 -->
<g id="edge29" class="edge">
<title>Node20&#45;&gt;Node5</title>
<path fill="none" stroke="midnightblue" d="M652.51,-258.95C655.55,-258.29 658.56,-257.63 661.5,-257 729.45,-242.33 808.3,-226.01 857.05,-216"/>
<polygon fill="midnightblue" stroke="midnightblue" points="857.89,-219.4 866.98,-213.96 856.48,-212.54 857.89,-219.4"/>
</g>
<!-- Node20&#45;&gt;Node9 -->
<g id="edge32" class="edge">
<title>Node20&#45;&gt;Node9</title>
<path fill="none" stroke="midnightblue" d="M540.37,-262.33C481.14,-252.63 384.79,-236.8 292.07,-221.26"/>
<polygon fill="midnightblue" stroke="midnightblue" points="292.39,-217.76 281.95,-219.56 291.24,-224.67 292.39,-217.76"/>
</g>
<!-- Node21 -->
<g id="node21" class="node">
<title>Node21</title>
<g id="a_node21"><a xlink:title=" ">
<polygon fill="none" stroke="#bfbfbf" points="479,-196 479,-215 618,-215 618,-196 479,-196"/>
<text text-anchor="middle" x="548.5" y="-203" font-family="Helvetica,sans-Serif" font-size="10.00">iDynTree/Core/MatrixView.h</text>
</a>
</g>
</g>
<!-- Node20&#45;&gt;Node21 -->
<g id="edge30" class="edge">
<title>Node20&#45;&gt;Node21</title>
<path fill="none" stroke="midnightblue" d="M586.08,-257.4C578.67,-247.36 568.69,-233.84 560.87,-223.25"/>
<polygon fill="midnightblue" stroke="midnightblue" points="563.68,-221.16 554.92,-215.19 558.05,-225.32 563.68,-221.16"/>
</g>
<!-- Node22 -->
<g id="node22" class="node">
<title>Node22</title>
<g id="a_node22"><a xlink:title=" ">
<polygon fill="none" stroke="#bfbfbf" points="300,-196 300,-215 461,-215 461,-196 300,-196"/>
<text text-anchor="middle" x="380.5" y="-203" font-family="Helvetica,sans-Serif" font-size="10.00">iDynTree/KinDynComputations.h</text>
</a>
</g>
</g>
<!-- Node20&#45;&gt;Node22 -->
<g id="edge31" class="edge">
<title>Node20&#45;&gt;Node22</title>
<path fill="none" stroke="midnightblue" d="M549.9,-257.48C510.67,-245.67 455.27,-229 418.65,-217.98"/>
<polygon fill="midnightblue" stroke="midnightblue" points="419.43,-214.56 408.84,-215.03 417.41,-221.26 419.43,-214.56"/>
</g>
<!-- Node23 -->
<g id="node23" class="node">
<title>Node23</title>
<g id="a_node23"><a xlink:href="VariablesHandler_8h.html" target="_top" xlink:title=" ">
<polygon fill="none" stroke="black" points="674.5,-190.5 674.5,-220.5 810.5,-220.5 810.5,-190.5 674.5,-190.5"/>
<text text-anchor="start" x="682.5" y="-208.5" font-family="Helvetica,sans-Serif" font-size="10.00">BipedalLocomotion/System</text>
<text text-anchor="middle" x="742.5" y="-197.5" font-family="Helvetica,sans-Serif" font-size="10.00">/VariablesHandler.h</text>
</a>
</g>
</g>
<!-- Node20&#45;&gt;Node23 -->
<g id="edge33" class="edge">
<title>Node20&#45;&gt;Node23</title>
<path fill="none" stroke="midnightblue" d="M628.18,-257.4C649.7,-247.81 678.37,-235.05 701.62,-224.7"/>
<polygon fill="midnightblue" stroke="midnightblue" points="703.17,-227.84 710.88,-220.58 700.32,-221.45 703.17,-227.84"/>
</g>
<!-- Node23&#45;&gt;Node4 -->
<g id="edge34" class="edge">
<title>Node23&#45;&gt;Node4</title>
<path fill="none" stroke="midnightblue" d="M761.59,-190.4C776.08,-179.7 795.93,-165.03 810.61,-154.19"/>
<polygon fill="midnightblue" stroke="midnightblue" points="813.02,-156.76 818.98,-148.01 808.86,-151.13 813.02,-156.76"/>
</g>
<!-- Node24 -->
<g id="node24" class="node">
<title>Node24</title>
<g id="a_node24"><a xlink:title=" ">
<polygon fill="none" stroke="#bfbfbf" points="701,-129 701,-148 784,-148 784,-129 701,-129"/>
<text text-anchor="middle" x="742.5" y="-136" font-family="Helvetica,sans-Serif" font-size="10.00">unordered_map</text>
</a>
</g>
</g>
<!-- Node23&#45;&gt;Node24 -->
<g id="edge35" class="edge">
<title>Node23&#45;&gt;Node24</title>
<path fill="none" stroke="midnightblue" d="M742.5,-190.4C742.5,-181.06 742.5,-168.71 742.5,-158.52"/>
<polygon fill="midnightblue" stroke="midnightblue" points="746,-158.19 742.5,-148.19 739,-158.19 746,-158.19"/>
</g>
</g>
</svg>
        <g id="navigator" transform="translate(0 0)" fill="#404254">
                <rect fill="#f2f5e9" fill-opacity="0.5" stroke="#606060" stroke-width=".5" x="0" y="0" width="60" height="60"/>
                <use id="zoomplus" xlink:href="#zoomPlus" x="17" y="9" onmousedown="handleZoom(evt,'in')"/>
                <use id="zoomminus" xlink:href="#zoomMin" x="42" y="9" onmousedown="handleZoom(evt,'out')"/>
                <use id="reset" xlink:href="#resetDef" x="30" y="36" onmousedown="handleReset()"/>
                <g id="arrowUp" xlink:href="#dirArrow" transform="translate(30 24)" onmousedown="handlePan(0,-1)">
                  <use xlink:href="#rim" fill="#404040">
                        <set attributeName="fill" to="#808080" begin="arrowUp.mouseover" end="arrowUp.mouseout"/>
                  </use>
                  <path fill="none" stroke="white" stroke-width="1.5" d="M0,-3.0v7 M-2.5,-0.5L0,-3.0L2.5,-0.5"/>
                </g>
                <g id="arrowRight" xlink:href="#dirArrow" transform="rotate(90) translate(36 -43)" onmousedown="handlePan(1,0)">
                  <use xlink:href="#rim" fill="#404040">
                        <set attributeName="fill" to="#808080" begin="arrowRight.mouseover" end="arrowRight.mouseout"/>
                  </use>
                  <path fill="none" stroke="white" stroke-width="1.5" d="M0,-3.0v7 M-2.5,-0.5L0,-3.0L2.5,-0.5"/>
                </g>
                <g id="arrowDown" xlink:href="#dirArrow" transform="rotate(180) translate(-30 -48)" onmousedown="handlePan(0,1)">
                  <use xlink:href="#rim" fill="#404040">
                        <set attributeName="fill" to="#808080" begin="arrowDown.mouseover" end="arrowDown.mouseout"/>
                  </use>
                  <path fill="none" stroke="white" stroke-width="1.5" d="M0,-3.0v7 M-2.5,-0.5L0,-3.0L2.5,-0.5"/>
                </g>
                <g id="arrowLeft" xlink:href="#dirArrow" transform="rotate(270) translate(-36 17)" onmousedown="handlePan(-1,0)">
                  <use xlink:href="#rim" fill="#404040">
                        <set attributeName="fill" to="#808080" begin="arrowLeft.mouseover" end="arrowLeft.mouseout"/>
                  </use>
                  <path fill="none" stroke="white" stroke-width="1.5" d="M0,-3.0v7 M-2.5,-0.5L0,-3.0L2.5,-0.5"/>
                </g>
        </g>
        <svg viewBox="0 0 15 15" width="100%" height="30px" preserveAspectRatio="xMaxYMin meet">
         <g id="arrow_out" transform="scale(0.3 0.3)">
          <a xlink:href="QPInverseKinematics_8h__incl_org.svg" target="_base">
           <rect id="button" ry="5" rx="5" y="6" x="6" height="38" width="38"
                fill="#f2f5e9" fill-opacity="0.5" stroke="#606060" stroke-width="1.0"/>
           <path id="arrow"
             d="M 11.500037,31.436501 C 11.940474,20.09759 22.043105,11.32322 32.158766,21.979434 L 37.068811,17.246167 C 37.068811,17.246167 37.088388,32 37.088388,32 L 22.160133,31.978069 C 22.160133,31.978069 26.997745,27.140456 26.997745,27.140456 C 18.528582,18.264221 13.291696,25.230495 11.500037,31.436501 z"
             style="fill:#404040;"/>
          </a>
         </g>
        </svg>
</svg>
