<?xml version="1.0" encoding="UTF-8" standalone="no"?>
<!DOCTYPE svg PUBLIC "-//W3C//DTD SVG 1.1//EN"
 "http://www.w3.org/Graphics/SVG/1.1/DTD/svg11.dtd">
<!-- Generated by graphviz version 2.43.0 (0)
 -->
<!-- Title: IK/src/QPInverseKinematics.cpp Pages: 1 -->
<svg width="1103pt" height="486pt"
 viewBox="0.00 0.00 1102.50 486.00" xmlns="http://www.w3.org/2000/svg" xmlns:xlink="http://www.w3.org/1999/xlink">
<g id="graph0" class="graph" transform="scale(1 1) rotate(0) translate(4 482)">
<title>IK/src/QPInverseKinematics.cpp</title>
<!-- Node1 -->
<g id="node1" class="node">
<title>Node1</title>
<g id="a_node1"><a xlink:title=" ">
<polygon fill="#bfbfbf" stroke="black" points="293,-458.5 293,-477.5 453,-477.5 453,-458.5 293,-458.5"/>
<text text-anchor="middle" x="373" y="-465.5" font-family="Helvetica,sans-Serif" font-size="10.00">IK/src/QPInverseKinematics.cpp</text>
</a>
</g>
</g>
<!-- Node2 -->
<g id="node2" class="node">
<title>Node2</title>
<g id="a_node2"><a xlink:title=" ">
<polygon fill="none" stroke="#bfbfbf" points="299,-62 299,-81 351,-81 351,-62 299,-62"/>
<text text-anchor="middle" x="325" y="-69" font-family="Helvetica,sans-Serif" font-size="10.00">memory</text>
</a>
</g>
</g>
<!-- Node1&#45;&gt;Node2 -->
<g id="edge1" class="edge">
<title>Node1&#45;&gt;Node2</title>
<path fill="none" stroke="midnightblue" d="M307.17,-458.45C200.09,-442.67 0,-404.61 0,-340.5 0,-340.5 0,-340.5 0,-204.5 0,-162 14.95,-147.03 50,-123 88.3,-96.74 222.98,-81.52 288.57,-75.51"/>
<polygon fill="midnightblue" stroke="midnightblue" points="289.2,-78.97 298.85,-74.59 288.58,-72 289.2,-78.97"/>
</g>
<!-- Node3 -->
<g id="node3" class="node">
<title>Node3</title>
<g id="a_node3"><a xlink:title=" ">
<polygon fill="none" stroke="#bfbfbf" points="240,-397 240,-416 364,-416 364,-397 240,-397"/>
<text text-anchor="middle" x="302" y="-404" font-family="Helvetica,sans-Serif" font-size="10.00">OsqpEigen/OsqpEigen.h</text>
</a>
</g>
</g>
<!-- Node1&#45;&gt;Node3 -->
<g id="edge2" class="edge">
<title>Node1&#45;&gt;Node3</title>
<path fill="none" stroke="midnightblue" d="M362.83,-458.48C351.65,-449.11 333.48,-433.88 319.91,-422.51"/>
<polygon fill="midnightblue" stroke="midnightblue" points="322.07,-419.75 312.15,-416.01 317.57,-425.11 322.07,-419.75"/>
</g>
<!-- Node4 -->
<g id="node4" class="node">
<title>Node4</title>
<g id="a_node4"><a xlink:href="QPInverseKinematics_8h.html" target="_top" xlink:title=" ">
<polygon fill="none" stroke="black" points="382.5,-391.5 382.5,-421.5 505.5,-421.5 505.5,-391.5 382.5,-391.5"/>
<text text-anchor="start" x="390.5" y="-409.5" font-family="Helvetica,sans-Serif" font-size="10.00">BipedalLocomotion/IK</text>
<text text-anchor="middle" x="444" y="-398.5" font-family="Helvetica,sans-Serif" font-size="10.00">/QPInverseKinematics.h</text>
</a>
</g>
</g>
<!-- Node1&#45;&gt;Node4 -->
<g id="edge3" class="edge">
<title>Node1&#45;&gt;Node4</title>
<path fill="none" stroke="midnightblue" d="M383.17,-458.48C392.61,-450.57 407.03,-438.48 419.46,-428.07"/>
<polygon fill="midnightblue" stroke="midnightblue" points="421.85,-430.63 427.27,-421.52 417.35,-425.26 421.85,-430.63"/>
</g>
<!-- Node27 -->
<g id="node27" class="node">
<title>Node27</title>
<g id="a_node27"><a xlink:href="Logger_8h.html" target="_top" xlink:title=" ">
<polygon fill="none" stroke="black" points="769.5,-391.5 769.5,-421.5 924.5,-421.5 924.5,-391.5 769.5,-391.5"/>
<text text-anchor="start" x="777.5" y="-409.5" font-family="Helvetica,sans-Serif" font-size="10.00">BipedalLocomotion/TextLogging</text>
<text text-anchor="middle" x="847" y="-398.5" font-family="Helvetica,sans-Serif" font-size="10.00">/Logger.h</text>
</a>
</g>
</g>
<!-- Node1&#45;&gt;Node27 -->
<g id="edge42" class="edge">
<title>Node1&#45;&gt;Node27</title>
<path fill="none" stroke="midnightblue" d="M440.91,-458.48C524.68,-447.96 667.25,-430.06 759.24,-418.52"/>
<polygon fill="midnightblue" stroke="midnightblue" points="759.88,-421.96 769.37,-417.24 759.01,-415.02 759.88,-421.96"/>
</g>
<!-- Node4&#45;&gt;Node2 -->
<g id="edge4" class="edge">
<title>Node4&#45;&gt;Node2</title>
<path fill="none" stroke="midnightblue" d="M382.45,-392.79C379.26,-392.18 376.09,-391.57 373,-391 217.87,-362.18 38,-431.28 38,-273.5 38,-273.5 38,-273.5 38,-204.5 38,-95.42 211.24,-76.16 288.53,-72.99"/>
<polygon fill="midnightblue" stroke="midnightblue" points="288.89,-76.48 298.77,-72.64 288.66,-69.48 288.89,-76.48"/>
</g>
<!-- Node5 -->
<g id="node5" class="node">
<title>Node5</title>
<g id="a_node5"><a xlink:title=" ">
<polygon fill="none" stroke="#bfbfbf" points="932,-129 932,-148 976,-148 976,-129 932,-129"/>
<text text-anchor="middle" x="954" y="-136" font-family="Helvetica,sans-Serif" font-size="10.00">vector</text>
</a>
</g>
</g>
<!-- Node4&#45;&gt;Node5 -->
<g id="edge5" class="edge">
<title>Node4&#45;&gt;Node5</title>
<path fill="none" stroke="midnightblue" d="M505.87,-405.26C619.77,-401.02 860.29,-373.49 962,-221 974.48,-202.29 968.48,-175.59 962.08,-157.91"/>
<polygon fill="midnightblue" stroke="midnightblue" points="965.17,-156.21 958.2,-148.23 958.67,-158.81 965.17,-156.21"/>
</g>
<!-- Node6 -->
<g id="node6" class="node">
<title>Node6</title>
<g id="a_node6"><a xlink:title=" ">
<polygon fill="none" stroke="#bfbfbf" points="265.5,-129 265.5,-148 306.5,-148 306.5,-129 265.5,-129"/>
<text text-anchor="middle" x="286" y="-136" font-family="Helvetica,sans-Serif" font-size="10.00">string</text>
</a>
</g>
</g>
<!-- Node4&#45;&gt;Node6 -->
<g id="edge6" class="edge">
<title>Node4&#45;&gt;Node6</title>
<path fill="none" stroke="midnightblue" d="M382.4,-392.88C316.57,-379.27 220.58,-359 213,-355 142.83,-317.95 118.9,-296.67 95,-221 90.85,-207.86 86.59,-200.92 95,-190 114.45,-164.74 206.33,-149.54 255.22,-143.11"/>
<polygon fill="midnightblue" stroke="midnightblue" points="255.77,-146.57 265.25,-141.83 254.88,-139.62 255.77,-146.57"/>
</g>
<!-- Node7 -->
<g id="node7" class="node">
<title>Node7</title>
<g id="a_node7"><a xlink:title=" ">
<polygon fill="none" stroke="#bfbfbf" points="104.5,-196 104.5,-215 177.5,-215 177.5,-196 104.5,-196"/>
<text text-anchor="middle" x="141" y="-203" font-family="Helvetica,sans-Serif" font-size="10.00">Eigen/Dense</text>
</a>
</g>
</g>
<!-- Node4&#45;&gt;Node7 -->
<g id="edge7" class="edge">
<title>Node4&#45;&gt;Node7</title>
<path fill="none" stroke="midnightblue" d="M396.41,-391.48C324.4,-369.36 192.78,-325.05 161,-288 145.99,-270.5 141.89,-243.49 140.96,-225.42"/>
<polygon fill="midnightblue" stroke="midnightblue" points="144.45,-225.17 140.71,-215.25 137.45,-225.33 144.45,-225.17"/>
</g>
<!-- Node8 -->
<g id="node8" class="node">
<title>Node8</title>
<g id="a_node8"><a xlink:href="IntegrationBasedIK_8h.html" target="_top" xlink:title=" ">
<polygon fill="none" stroke="black" points="346,-324.5 346,-354.5 458,-354.5 458,-324.5 346,-324.5"/>
<text text-anchor="start" x="354" y="-342.5" font-family="Helvetica,sans-Serif" font-size="10.00">BipedalLocomotion/IK</text>
<text text-anchor="middle" x="402" y="-331.5" font-family="Helvetica,sans-Serif" font-size="10.00">/IntegrationBasedIK.h</text>
</a>
</g>
</g>
<!-- Node4&#45;&gt;Node8 -->
<g id="edge8" class="edge">
<title>Node4&#45;&gt;Node8</title>
<path fill="none" stroke="midnightblue" d="M434.89,-391.4C429.55,-383.13 422.68,-372.51 416.6,-363.1"/>
<polygon fill="midnightblue" stroke="midnightblue" points="419.46,-361.08 411.1,-354.58 413.58,-364.88 419.46,-361.08"/>
</g>
<!-- Node11 -->
<g id="node11" class="node">
<title>Node11</title>
<g id="a_node11"><a xlink:href="IParametersHandler_8h.html" target="_top" xlink:title=" ">
<polygon fill="none" stroke="black" points="801,-190.5 801,-220.5 953,-220.5 953,-190.5 801,-190.5"/>
<text text-anchor="start" x="809" y="-208.5" font-family="Helvetica,sans-Serif" font-size="10.00">BipedalLocomotion/Parameters</text>
<text text-anchor="middle" x="877" y="-197.5" font-family="Helvetica,sans-Serif" font-size="10.00">Handler/IParametersHandler.h</text>
</a>
</g>
</g>
<!-- Node4&#45;&gt;Node11 -->
<g id="edge40" class="edge">
<title>Node4&#45;&gt;Node11</title>
<path fill="none" stroke="midnightblue" d="M486.58,-391.37C545.48,-371.24 654.56,-331.87 743,-288 780.48,-269.41 821.23,-243.78 847.83,-226.26"/>
<polygon fill="midnightblue" stroke="midnightblue" points="849.89,-229.09 856.29,-220.65 846.02,-223.26 849.89,-229.09"/>
</g>
<!-- Node21 -->
<g id="node21" class="node">
<title>Node21</title>
<g id="a_node21"><a xlink:href="Advanceable_8h.html" target="_top" xlink:title=" ">
<polygon fill="none" stroke="black" points="598,-257.5 598,-287.5 734,-287.5 734,-257.5 598,-257.5"/>
<text text-anchor="start" x="606" y="-275.5" font-family="Helvetica,sans-Serif" font-size="10.00">BipedalLocomotion/System</text>
<text text-anchor="middle" x="666" y="-264.5" font-family="Helvetica,sans-Serif" font-size="10.00">/Advanceable.h</text>
</a>
</g>
</g>
<!-- Node4&#45;&gt;Node21 -->
<g id="edge41" class="edge">
<title>Node4&#45;&gt;Node21</title>
<path fill="none" stroke="midnightblue" d="M467.76,-391.37C507.73,-367.6 588.49,-319.59 633.62,-292.75"/>
<polygon fill="midnightblue" stroke="midnightblue" points="635.61,-295.64 642.41,-287.52 632.03,-289.63 635.61,-295.64"/>
</g>
<!-- Node22 -->
<g id="node22" class="node">
<title>Node22</title>
<g id="a_node22"><a xlink:href="LinearTask_8h.html" target="_top" xlink:title=" ">
<polygon fill="none" stroke="black" points="430,-257.5 430,-287.5 542,-287.5 542,-257.5 430,-257.5"/>
<text text-anchor="start" x="438" y="-275.5" font-family="Helvetica,sans-Serif" font-size="10.00">BipedalLocomotion/IK</text>
<text text-anchor="middle" x="486" y="-264.5" font-family="Helvetica,sans-Serif" font-size="10.00">/LinearTask.h</text>
</a>
</g>
</g>
<!-- Node4&#45;&gt;Node22 -->
<g id="edge39" class="edge">
<title>Node4&#45;&gt;Node22</title>
<path fill="none" stroke="midnightblue" d="M451.42,-391.22C456.37,-381.28 462.71,-367.59 467,-355 473.45,-336.05 478.47,-313.88 481.72,-297.45"/>
<polygon fill="midnightblue" stroke="midnightblue" points="485.16,-298.06 483.6,-287.58 478.29,-296.75 485.16,-298.06"/>
</g>
<!-- Node8&#45;&gt;Node2 -->
<g id="edge9" class="edge">
<title>Node8&#45;&gt;Node2</title>
<path fill="none" stroke="midnightblue" d="M402.53,-324.43C402.41,-306.44 399.44,-275.4 382,-257 343.98,-216.9 298.2,-263.6 263,-221 235.19,-187.34 236.24,-161.94 256,-123 264.34,-106.56 280.84,-94.18 295.6,-85.8"/>
<polygon fill="midnightblue" stroke="midnightblue" points="297.29,-88.86 304.49,-81.09 294.01,-82.68 297.29,-88.86"/>
</g>
<!-- Node8&#45;&gt;Node6 -->
<g id="edge10" class="edge">
<title>Node8&#45;&gt;Node6</title>
<path fill="none" stroke="midnightblue" d="M345.8,-329.95C299.68,-321.65 239.68,-307.45 225,-288 193.08,-245.7 242.22,-184.32 269.62,-155.54"/>
<polygon fill="midnightblue" stroke="midnightblue" points="272.19,-157.92 276.69,-148.32 267.19,-153.02 272.19,-157.92"/>
</g>
<!-- Node8&#45;&gt;Node7 -->
<g id="edge12" class="edge">
<title>Node8&#45;&gt;Node7</title>
<path fill="none" stroke="midnightblue" d="M345.92,-336.47C300.62,-332.31 237.2,-320.53 192,-288 169.93,-272.11 155.29,-243.44 147.57,-224.68"/>
<polygon fill="midnightblue" stroke="midnightblue" points="150.77,-223.26 143.9,-215.2 144.24,-225.79 150.77,-223.26"/>
</g>
<!-- Node9 -->
<g id="node9" class="node">
<title>Node9</title>
<g id="a_node9"><a xlink:title=" ">
<polygon fill="none" stroke="#bfbfbf" points="234,-263 234,-282 284,-282 284,-263 234,-263"/>
<text text-anchor="middle" x="259" y="-270" font-family="Helvetica,sans-Serif" font-size="10.00">optional</text>
</a>
</g>
</g>
<!-- Node8&#45;&gt;Node9 -->
<g id="edge11" class="edge">
<title>Node8&#45;&gt;Node9</title>
<path fill="none" stroke="midnightblue" d="M370.97,-324.4C345.99,-313.04 311.18,-297.22 287.04,-286.24"/>
<polygon fill="midnightblue" stroke="midnightblue" points="288.27,-282.96 277.72,-282.01 285.37,-289.33 288.27,-282.96"/>
</g>
<!-- Node10 -->
<g id="node10" class="node">
<title>Node10</title>
<g id="a_node10"><a xlink:title=" ">
<polygon fill="none" stroke="#bfbfbf" points="302.5,-263 302.5,-282 373.5,-282 373.5,-263 302.5,-263"/>
<text text-anchor="middle" x="338" y="-270" font-family="Helvetica,sans-Serif" font-size="10.00">manif/SE3.h</text>
</a>
</g>
</g>
<!-- Node8&#45;&gt;Node10 -->
<g id="edge13" class="edge">
<title>Node8&#45;&gt;Node10</title>
<path fill="none" stroke="midnightblue" d="M388.11,-324.4C378.04,-314.16 364.38,-300.3 353.87,-289.62"/>
<polygon fill="midnightblue" stroke="midnightblue" points="356.07,-286.86 346.56,-282.19 351.08,-291.78 356.07,-286.86"/>
</g>
<!-- Node8&#45;&gt;Node11 -->
<g id="edge14" class="edge">
<title>Node8&#45;&gt;Node11</title>
<path fill="none" stroke="midnightblue" d="M458.13,-324.64C486.93,-316.26 521.97,-304.07 551,-288 570.07,-277.44 569.18,-266.07 589,-257 593.67,-254.86 707.65,-235.23 790.79,-221.08"/>
<polygon fill="midnightblue" stroke="midnightblue" points="791.5,-224.51 800.77,-219.39 790.32,-217.61 791.5,-224.51"/>
</g>
<!-- Node8&#45;&gt;Node21 -->
<g id="edge29" class="edge">
<title>Node8&#45;&gt;Node21</title>
<path fill="none" stroke="midnightblue" d="M458.31,-324.64C499.47,-314.5 555.47,-300.71 598.95,-290.01"/>
<polygon fill="midnightblue" stroke="midnightblue" points="599.99,-293.36 608.87,-287.57 598.32,-286.56 599.99,-293.36"/>
</g>
<!-- Node8&#45;&gt;Node22 -->
<g id="edge30" class="edge">
<title>Node8&#45;&gt;Node22</title>
<path fill="none" stroke="midnightblue" d="M420.23,-324.4C431.78,-315.45 446.92,-303.74 459.76,-293.8"/>
<polygon fill="midnightblue" stroke="midnightblue" points="462.04,-296.46 467.81,-287.58 457.76,-290.93 462.04,-296.46"/>
</g>
<!-- Node11&#45;&gt;Node2 -->
<g id="edge15" class="edge">
<title>Node11&#45;&gt;Node2</title>
<path fill="none" stroke="midnightblue" d="M800.58,-191.54C797.34,-191.02 794.14,-190.5 791,-190 684.48,-173.03 655.57,-180.42 551,-154 478.37,-135.65 396.41,-102.93 353.96,-85.04"/>
<polygon fill="midnightblue" stroke="midnightblue" points="355.12,-81.73 344.54,-81.04 352.38,-88.17 355.12,-81.73"/>
</g>
<!-- Node11&#45;&gt;Node5 -->
<g id="edge17" class="edge">
<title>Node11&#45;&gt;Node5</title>
<path fill="none" stroke="midnightblue" d="M893.71,-190.4C906.19,-179.86 923.23,-165.48 936.01,-154.69"/>
<polygon fill="midnightblue" stroke="midnightblue" points="938.32,-157.32 943.7,-148.19 933.8,-151.97 938.32,-157.32"/>
</g>
<!-- Node11&#45;&gt;Node6 -->
<g id="edge16" class="edge">
<title>Node11&#45;&gt;Node6</title>
<path fill="none" stroke="midnightblue" d="M800.62,-191.25C797.37,-190.8 794.16,-190.38 791,-190 580.4,-164.34 519.5,-210.5 315,-154 313.28,-153.53 311.55,-152.95 309.83,-152.3"/>
<polygon fill="midnightblue" stroke="midnightblue" points="310.87,-148.93 300.31,-148.03 308,-155.32 310.87,-148.93"/>
</g>
<!-- Node12 -->
<g id="node12" class="node">
<title>Node12</title>
<g id="a_node12"><a xlink:href="Vector_8h_source.html" target="_top" xlink:title=" ">
<polygon fill="none" stroke="black" points="560,-123.5 560,-153.5 696,-153.5 696,-123.5 560,-123.5"/>
<text text-anchor="start" x="568" y="-141.5" font-family="Helvetica,sans-Serif" font-size="10.00">BipedalLocomotion/Generic</text>
<text text-anchor="middle" x="628" y="-130.5" font-family="Helvetica,sans-Serif" font-size="10.00">Container/Vector.h</text>
</a>
</g>
</g>
<!-- Node11&#45;&gt;Node12 -->
<g id="edge18" class="edge">
<title>Node11&#45;&gt;Node12</title>
<path fill="none" stroke="midnightblue" d="M823.28,-190.48C784.71,-180.41 732.58,-166.8 691.88,-156.17"/>
<polygon fill="midnightblue" stroke="midnightblue" points="692.62,-152.75 682.06,-153.61 690.85,-159.52 692.62,-152.75"/>
</g>
<!-- Node14 -->
<g id="node14" class="node">
<title>Node14</title>
<g id="a_node14"><a xlink:href="TemplateHelpers_8h_source.html" target="_top" xlink:title=" ">
<polygon fill="none" stroke="black" points="805.5,-56.5 805.5,-86.5 948.5,-86.5 948.5,-56.5 805.5,-56.5"/>
<text text-anchor="start" x="813.5" y="-74.5" font-family="Helvetica,sans-Serif" font-size="10.00">BipedalLocomotion/Generic</text>
<text text-anchor="middle" x="877" y="-63.5" font-family="Helvetica,sans-Serif" font-size="10.00">Container/TemplateHelpers.h</text>
</a>
</g>
</g>
<!-- Node11&#45;&gt;Node14 -->
<g id="edge28" class="edge">
<title>Node11&#45;&gt;Node14</title>
<path fill="none" stroke="midnightblue" d="M877,-190.37C877,-168.04 877,-124.31 877,-96.85"/>
<polygon fill="midnightblue" stroke="midnightblue" points="880.5,-96.52 877,-86.52 873.5,-96.52 880.5,-96.52"/>
</g>
<!-- Node12&#45;&gt;Node2 -->
<g id="edge27" class="edge">
<title>Node12&#45;&gt;Node2</title>
<path fill="none" stroke="midnightblue" d="M562.63,-123.48C500.91,-110.24 410.63,-90.87 361,-80.22"/>
<polygon fill="midnightblue" stroke="midnightblue" points="361.57,-76.77 351.06,-78.09 360.1,-83.61 361.57,-76.77"/>
</g>
<!-- Node13 -->
<g id="node13" class="node">
<title>Node13</title>
<g id="a_node13"><a xlink:title=" ">
<polygon fill="none" stroke="#bfbfbf" points="673,-62 673,-81 787,-81 787,-62 673,-62"/>
<text text-anchor="middle" x="730" y="-69" font-family="Helvetica,sans-Serif" font-size="10.00">iDynTree/Core/Span.h</text>
</a>
</g>
</g>
<!-- Node12&#45;&gt;Node13 -->
<g id="edge19" class="edge">
<title>Node12&#45;&gt;Node13</title>
<path fill="none" stroke="midnightblue" d="M650.13,-123.4C667.24,-112.5 690.8,-97.48 707.9,-86.58"/>
<polygon fill="midnightblue" stroke="midnightblue" points="710.1,-89.33 716.65,-81.01 706.34,-83.43 710.1,-89.33"/>
</g>
<!-- Node12&#45;&gt;Node14 -->
<g id="edge20" class="edge">
<title>Node12&#45;&gt;Node14</title>
<path fill="none" stroke="midnightblue" d="M681.72,-123.48C720.29,-113.41 772.42,-99.8 813.12,-89.17"/>
<polygon fill="midnightblue" stroke="midnightblue" points="814.15,-92.52 822.94,-86.61 812.38,-85.75 814.15,-92.52"/>
</g>
<!-- Node18 -->
<g id="node18" class="node">
<title>Node18</title>
<g id="a_node18"><a xlink:title=" ">
<polygon fill="none" stroke="#bfbfbf" points="456.5,-62 456.5,-81 515.5,-81 515.5,-62 456.5,-62"/>
<text text-anchor="middle" x="486" y="-69" font-family="Helvetica,sans-Serif" font-size="10.00">functional</text>
</a>
</g>
</g>
<!-- Node12&#45;&gt;Node18 -->
<g id="edge24" class="edge">
<title>Node12&#45;&gt;Node18</title>
<path fill="none" stroke="midnightblue" d="M597.19,-123.4C572.38,-112.04 537.82,-96.22 513.84,-85.24"/>
<polygon fill="midnightblue" stroke="midnightblue" points="515.13,-81.99 504.58,-81.01 512.22,-88.35 515.13,-81.99"/>
</g>
<!-- Node19 -->
<g id="node19" class="node">
<title>Node19</title>
<g id="a_node19"><a xlink:title=" ">
<polygon fill="none" stroke="#bfbfbf" points="533.5,-62 533.5,-81 582.5,-81 582.5,-62 533.5,-62"/>
<text text-anchor="middle" x="558" y="-69" font-family="Helvetica,sans-Serif" font-size="10.00">cassert</text>
</a>
</g>
</g>
<!-- Node12&#45;&gt;Node19 -->
<g id="edge25" class="edge">
<title>Node12&#45;&gt;Node19</title>
<path fill="none" stroke="midnightblue" d="M612.81,-123.4C601.68,-113.06 586.56,-99.02 575.03,-88.31"/>
<polygon fill="midnightblue" stroke="midnightblue" points="577.07,-85.43 567.36,-81.19 572.31,-90.56 577.07,-85.43"/>
</g>
<!-- Node20 -->
<g id="node20" class="node">
<title>Node20</title>
<g id="a_node20"><a xlink:title=" ">
<polygon fill="none" stroke="#bfbfbf" points="601,-62 601,-81 655,-81 655,-62 601,-62"/>
<text text-anchor="middle" x="628" y="-69" font-family="Helvetica,sans-Serif" font-size="10.00">iostream</text>
</a>
</g>
</g>
<!-- Node12&#45;&gt;Node20 -->
<g id="edge26" class="edge">
<title>Node12&#45;&gt;Node20</title>
<path fill="none" stroke="midnightblue" d="M628,-123.4C628,-114.06 628,-101.71 628,-91.52"/>
<polygon fill="midnightblue" stroke="midnightblue" points="631.5,-91.19 628,-81.19 624.5,-91.19 631.5,-91.19"/>
</g>
<!-- Node15 -->
<g id="node15" class="node">
<title>Node15</title>
<g id="a_node15"><a xlink:title=" ">
<polygon fill="none" stroke="#bfbfbf" points="764,-0.5 764,-19.5 826,-19.5 826,-0.5 764,-0.5"/>
<text text-anchor="middle" x="795" y="-7.5" font-family="Helvetica,sans-Serif" font-size="10.00">type_traits</text>
</a>
</g>
</g>
<!-- Node14&#45;&gt;Node15 -->
<g id="edge21" class="edge">
<title>Node14&#45;&gt;Node15</title>
<path fill="none" stroke="midnightblue" d="M857.57,-56.4C844.79,-47.13 828.11,-35.03 815.19,-25.65"/>
<polygon fill="midnightblue" stroke="midnightblue" points="817.08,-22.7 806.93,-19.66 812.97,-28.36 817.08,-22.7"/>
</g>
<!-- Node16 -->
<g id="node16" class="node">
<title>Node16</title>
<g id="a_node16"><a xlink:title=" ">
<polygon fill="none" stroke="#bfbfbf" points="844,-0.5 844,-19.5 910,-19.5 910,-0.5 844,-0.5"/>
<text text-anchor="middle" x="877" y="-7.5" font-family="Helvetica,sans-Serif" font-size="10.00">string_view</text>
</a>
</g>
</g>
<!-- Node14&#45;&gt;Node16 -->
<g id="edge22" class="edge">
<title>Node14&#45;&gt;Node16</title>
<path fill="none" stroke="midnightblue" d="M877,-56.4C877,-48.47 877,-38.46 877,-29.86"/>
<polygon fill="midnightblue" stroke="midnightblue" points="880.5,-29.66 877,-19.66 873.5,-29.66 880.5,-29.66"/>
</g>
<!-- Node17 -->
<g id="node17" class="node">
<title>Node17</title>
<g id="a_node17"><a xlink:title=" ">
<polygon fill="none" stroke="#bfbfbf" points="928.5,-0.5 928.5,-19.5 993.5,-19.5 993.5,-0.5 928.5,-0.5"/>
<text text-anchor="middle" x="961" y="-7.5" font-family="Helvetica,sans-Serif" font-size="10.00">Eigen/Core</text>
</a>
</g>
</g>
<!-- Node14&#45;&gt;Node17 -->
<g id="edge23" class="edge">
<title>Node14&#45;&gt;Node17</title>
<path fill="none" stroke="midnightblue" d="M896.91,-56.4C909.99,-47.13 927.08,-35.03 940.32,-25.65"/>
<polygon fill="midnightblue" stroke="midnightblue" points="942.64,-28.29 948.78,-19.66 938.59,-22.58 942.64,-28.29"/>
</g>
<!-- Node22&#45;&gt;Node2 -->
<g id="edge31" class="edge">
<title>Node22&#45;&gt;Node2</title>
<path fill="none" stroke="midnightblue" d="M476.37,-257.29C469.87,-247.37 461.36,-233.69 455,-221 433.99,-179.09 446.96,-158.2 416,-123 400.96,-105.9 378.67,-93.4 359.92,-85.11"/>
<polygon fill="midnightblue" stroke="midnightblue" points="361.07,-81.8 350.49,-81.16 358.36,-88.25 361.07,-81.8"/>
</g>
<!-- Node22&#45;&gt;Node7 -->
<g id="edge32" class="edge">
<title>Node22&#45;&gt;Node7</title>
<path fill="none" stroke="midnightblue" d="M429.8,-260.91C362.34,-248.2 250.45,-227.12 187.58,-215.28"/>
<polygon fill="midnightblue" stroke="midnightblue" points="188.03,-211.8 177.55,-213.39 186.73,-218.68 188.03,-211.8"/>
</g>
<!-- Node22&#45;&gt;Node11 -->
<g id="edge35" class="edge">
<title>Node22&#45;&gt;Node11</title>
<path fill="none" stroke="midnightblue" d="M542.11,-259.61C546.81,-258.7 551.48,-257.81 556,-257 656.84,-238.84 684.99,-237.83 790.47,-221.06"/>
<polygon fill="midnightblue" stroke="midnightblue" points="791.26,-224.48 800.58,-219.45 790.15,-217.57 791.26,-224.48"/>
</g>
<!-- Node23 -->
<g id="node23" class="node">
<title>Node23</title>
<g id="a_node23"><a xlink:title=" ">
<polygon fill="none" stroke="#bfbfbf" points="464.5,-196 464.5,-215 603.5,-215 603.5,-196 464.5,-196"/>
<text text-anchor="middle" x="534" y="-203" font-family="Helvetica,sans-Serif" font-size="10.00">iDynTree/Core/MatrixView.h</text>
</a>
</g>
</g>
<!-- Node22&#45;&gt;Node23 -->
<g id="edge33" class="edge">
<title>Node22&#45;&gt;Node23</title>
<path fill="none" stroke="midnightblue" d="M496.42,-257.4C503.83,-247.36 513.81,-233.84 521.63,-223.25"/>
<polygon fill="midnightblue" stroke="midnightblue" points="524.45,-225.32 527.58,-215.19 518.82,-221.16 524.45,-225.32"/>
</g>
<!-- Node24 -->
<g id="node24" class="node">
<title>Node24</title>
<g id="a_node24"><a xlink:title=" ">
<polygon fill="none" stroke="#bfbfbf" points="621.5,-196 621.5,-215 782.5,-215 782.5,-196 621.5,-196"/>
<text text-anchor="middle" x="702" y="-203" font-family="Helvetica,sans-Serif" font-size="10.00">iDynTree/KinDynComputations.h</text>
</a>
</g>
</g>
<!-- Node22&#45;&gt;Node24 -->
<g id="edge34" class="edge">
<title>Node22&#45;&gt;Node24</title>
<path fill="none" stroke="midnightblue" d="M532.6,-257.48C571.83,-245.67 627.23,-229 663.85,-217.98"/>
<polygon fill="midnightblue" stroke="midnightblue" points="665.09,-221.26 673.66,-215.03 663.07,-214.56 665.09,-221.26"/>
</g>
<!-- Node25 -->
<g id="node25" class="node">
<title>Node25</title>
<g id="a_node25"><a xlink:href="VariablesHandler_8h.html" target="_top" xlink:title=" ">
<polygon fill="none" stroke="black" points="272,-190.5 272,-220.5 408,-220.5 408,-190.5 272,-190.5"/>
<text text-anchor="start" x="280" y="-208.5" font-family="Helvetica,sans-Serif" font-size="10.00">BipedalLocomotion/System</text>
<text text-anchor="middle" x="340" y="-197.5" font-family="Helvetica,sans-Serif" font-size="10.00">/VariablesHandler.h</text>
</a>
</g>
</g>
<!-- Node22&#45;&gt;Node25 -->
<g id="edge36" class="edge">
<title>Node22&#45;&gt;Node25</title>
<path fill="none" stroke="midnightblue" d="M454.32,-257.4C432.8,-247.81 404.13,-235.05 380.88,-224.7"/>
<polygon fill="midnightblue" stroke="midnightblue" points="382.18,-221.45 371.62,-220.58 379.33,-227.84 382.18,-221.45"/>
</g>
<!-- Node25&#45;&gt;Node6 -->
<g id="edge37" class="edge">
<title>Node25&#45;&gt;Node6</title>
<path fill="none" stroke="midnightblue" d="M328.28,-190.4C319.86,-180.26 308.49,-166.57 299.66,-155.94"/>
<polygon fill="midnightblue" stroke="midnightblue" points="302.31,-153.65 293.22,-148.19 296.92,-158.12 302.31,-153.65"/>
</g>
<!-- Node26 -->
<g id="node26" class="node">
<title>Node26</title>
<g id="a_node26"><a xlink:title=" ">
<polygon fill="none" stroke="#bfbfbf" points="324.5,-129 324.5,-148 407.5,-148 407.5,-129 324.5,-129"/>
<text text-anchor="middle" x="366" y="-136" font-family="Helvetica,sans-Serif" font-size="10.00">unordered_map</text>
</a>
</g>
</g>
<!-- Node25&#45;&gt;Node26 -->
<g id="edge38" class="edge">
<title>Node25&#45;&gt;Node26</title>
<path fill="none" stroke="midnightblue" d="M345.64,-190.4C349.49,-180.76 354.63,-167.91 358.79,-157.54"/>
<polygon fill="midnightblue" stroke="midnightblue" points="362.06,-158.78 362.52,-148.19 355.56,-156.18 362.06,-158.78"/>
</g>
<!-- Node28 -->
<g id="node28" class="node">
<title>Node28</title>
<g id="a_node28"><a xlink:title=" ">
<polygon fill="none" stroke="#bfbfbf" points="1009.5,-330 1009.5,-349 1094.5,-349 1094.5,-330 1009.5,-330"/>
<text text-anchor="middle" x="1052" y="-337" font-family="Helvetica,sans-Serif" font-size="10.00">spdlog/spdlog.h</text>
</a>
</g>
</g>
<!-- Node27&#45;&gt;Node28 -->
<g id="edge43" class="edge">
<title>Node27&#45;&gt;Node28</title>
<path fill="none" stroke="midnightblue" d="M891.23,-391.48C928.3,-379.72 980.59,-363.14 1015.35,-352.12"/>
<polygon fill="midnightblue" stroke="midnightblue" points="1016.63,-355.39 1025.1,-349.03 1014.51,-348.71 1016.63,-355.39"/>
</g>
</g>
</svg>
