<?xml version="1.0" encoding="UTF-8" standalone="no"?>
<!DOCTYPE svg PUBLIC "-//W3C//DTD SVG 1.1//EN"
 "http://www.w3.org/Graphics/SVG/1.1/DTD/svg11.dtd">
<!-- Generated by graphviz version 2.43.0 (0)
 -->
<!-- Title: Planners/src/QuinticSpline.cpp Pages: 1 -->
<svg width="549pt" height="162pt"
 viewBox="0.00 0.00 549.00 162.00" xmlns="http://www.w3.org/2000/svg" xmlns:xlink="http://www.w3.org/1999/xlink">
<g id="graph0" class="graph" transform="scale(1 1) rotate(0) translate(4 158)">
<title>Planners/src/QuinticSpline.cpp</title>
<!-- Node1 -->
<g id="node1" class="node">
<title>Node1</title>
<g id="a_node1"><a xlink:title=" ">
<polygon fill="#bfbfbf" stroke="black" points="66.5,-134.5 66.5,-153.5 217.5,-153.5 217.5,-134.5 66.5,-134.5"/>
<text text-anchor="middle" x="142" y="-141.5" font-family="Helvetica,sans-Serif" font-size="10.00">Planners/src/QuinticSpline.cpp</text>
</a>
</g>
</g>
<!-- Node2 -->
<g id="node2" class="node">
<title>Node2</title>
<g id="a_node2"><a xlink:title=" ">
<polygon fill="none" stroke="#bfbfbf" points="0,-73 0,-92 56,-92 56,-73 0,-73"/>
<text text-anchor="middle" x="28" y="-80" font-family="Helvetica,sans-Serif" font-size="10.00">algorithm</text>
</a>
</g>
</g>
<!-- Node1&#45;&gt;Node2 -->
<g id="edge1" class="edge">
<title>Node1&#45;&gt;Node2</title>
<path fill="none" stroke="midnightblue" d="M125.67,-134.48C106.79,-124.62 75.49,-108.29 53.42,-96.77"/>
<polygon fill="midnightblue" stroke="midnightblue" points="54.79,-93.53 44.3,-92.01 51.55,-99.74 54.79,-93.53"/>
</g>
<!-- Node3 -->
<g id="node3" class="node">
<title>Node3</title>
<g id="a_node3"><a xlink:title=" ">
<polygon fill="none" stroke="#bfbfbf" points="74,-73 74,-92 128,-92 128,-73 74,-73"/>
<text text-anchor="middle" x="101" y="-80" font-family="Helvetica,sans-Serif" font-size="10.00">iostream</text>
</a>
</g>
</g>
<!-- Node1&#45;&gt;Node3 -->
<g id="edge2" class="edge">
<title>Node1&#45;&gt;Node3</title>
<path fill="none" stroke="midnightblue" d="M136.13,-134.48C130.04,-125.64 120.36,-111.59 112.7,-100.48"/>
<polygon fill="midnightblue" stroke="midnightblue" points="115.42,-98.26 106.86,-92.01 109.66,-102.23 115.42,-98.26"/>
</g>
<!-- Node4 -->
<g id="node4" class="node">
<title>Node4</title>
<g id="a_node4"><a xlink:title=" ">
<polygon fill="none" stroke="#bfbfbf" points="146.5,-73 146.5,-92 221.5,-92 221.5,-73 146.5,-73"/>
<text text-anchor="middle" x="184" y="-80" font-family="Helvetica,sans-Serif" font-size="10.00">Eigen/Sparse</text>
</a>
</g>
</g>
<!-- Node1&#45;&gt;Node4 -->
<g id="edge3" class="edge">
<title>Node1&#45;&gt;Node4</title>
<path fill="none" stroke="midnightblue" d="M148.02,-134.48C154.26,-125.64 164.17,-111.59 172.02,-100.48"/>
<polygon fill="midnightblue" stroke="midnightblue" points="175.09,-102.2 177.99,-92.01 169.37,-98.16 175.09,-102.2"/>
</g>
<!-- Node5 -->
<g id="node5" class="node">
<title>Node5</title>
<g id="a_node5"><a xlink:href="QuinticSpline_8h.html" target="_top" xlink:title=" ">
<polygon fill="none" stroke="black" points="240,-67.5 240,-97.5 380,-97.5 380,-67.5 240,-67.5"/>
<text text-anchor="start" x="248" y="-85.5" font-family="Helvetica,sans-Serif" font-size="10.00">BipedalLocomotion/Planners</text>
<text text-anchor="middle" x="310" y="-74.5" font-family="Helvetica,sans-Serif" font-size="10.00">/QuinticSpline.h</text>
</a>
</g>
</g>
<!-- Node1&#45;&gt;Node5 -->
<g id="edge4" class="edge">
<title>Node1&#45;&gt;Node5</title>
<path fill="none" stroke="midnightblue" d="M166.07,-134.48C190.63,-125.78 229.45,-112.03 260.59,-101"/>
<polygon fill="midnightblue" stroke="midnightblue" points="262.15,-104.16 270.41,-97.52 259.81,-97.56 262.15,-104.16"/>
</g>
<!-- Node6 -->
<g id="node6" class="node">
<title>Node6</title>
<g id="a_node6"><a xlink:title=" ">
<polygon fill="none" stroke="#bfbfbf" points="181,-6 181,-25 225,-25 225,-6 181,-6"/>
<text text-anchor="middle" x="203" y="-13" font-family="Helvetica,sans-Serif" font-size="10.00">vector</text>
</a>
</g>
</g>
<!-- Node5&#45;&gt;Node6 -->
<g id="edge5" class="edge">
<title>Node5&#45;&gt;Node6</title>
<path fill="none" stroke="midnightblue" d="M286.78,-67.4C268.67,-56.39 243.66,-41.2 225.69,-30.28"/>
<polygon fill="midnightblue" stroke="midnightblue" points="227.37,-27.21 217,-25.01 223.73,-33.19 227.37,-27.21"/>
</g>
<!-- Node7 -->
<g id="node7" class="node">
<title>Node7</title>
<g id="a_node7"><a xlink:title=" ">
<polygon fill="none" stroke="#bfbfbf" points="243,-6 243,-25 295,-25 295,-6 243,-6"/>
<text text-anchor="middle" x="269" y="-13" font-family="Helvetica,sans-Serif" font-size="10.00">memory</text>
</a>
</g>
</g>
<!-- Node5&#45;&gt;Node7 -->
<g id="edge6" class="edge">
<title>Node5&#45;&gt;Node7</title>
<path fill="none" stroke="midnightblue" d="M301.1,-67.4C294.9,-57.56 286.58,-44.38 279.97,-33.89"/>
<polygon fill="midnightblue" stroke="midnightblue" points="282.78,-31.79 274.48,-25.19 276.86,-35.52 282.78,-31.79"/>
</g>
<!-- Node8 -->
<g id="node8" class="node">
<title>Node8</title>
<g id="a_node8"><a xlink:title=" ">
<polygon fill="none" stroke="#bfbfbf" points="313.5,-6 313.5,-25 386.5,-25 386.5,-6 313.5,-6"/>
<text text-anchor="middle" x="350" y="-13" font-family="Helvetica,sans-Serif" font-size="10.00">Eigen/Dense</text>
</a>
</g>
</g>
<!-- Node5&#45;&gt;Node8 -->
<g id="edge7" class="edge">
<title>Node5&#45;&gt;Node8</title>
<path fill="none" stroke="midnightblue" d="M318.68,-67.4C324.73,-57.56 332.84,-44.38 339.3,-33.89"/>
<polygon fill="midnightblue" stroke="midnightblue" points="342.39,-35.55 344.65,-25.19 336.43,-31.88 342.39,-35.55"/>
</g>
<!-- Node9 -->
<g id="node9" class="node">
<title>Node9</title>
<g id="a_node9"><a xlink:href="Advanceable_8h.html" target="_top" xlink:title=" ">
<polygon fill="none" stroke="black" points="405,-0.5 405,-30.5 541,-30.5 541,-0.5 405,-0.5"/>
<text text-anchor="start" x="413" y="-18.5" font-family="Helvetica,sans-Serif" font-size="10.00">BipedalLocomotion/System</text>
<text text-anchor="middle" x="473" y="-7.5" font-family="Helvetica,sans-Serif" font-size="10.00">/Advanceable.h</text>
</a>
</g>
</g>
<!-- Node5&#45;&gt;Node9 -->
<g id="edge8" class="edge">
<title>Node5&#45;&gt;Node9</title>
<path fill="none" stroke="midnightblue" d="M345.37,-67.4C369.72,-57.69 402.26,-44.71 428.39,-34.29"/>
<polygon fill="midnightblue" stroke="midnightblue" points="429.71,-37.53 437.7,-30.58 427.12,-31.03 429.71,-37.53"/>
</g>
</g>
</svg>
