<?xml version="1.0" encoding="UTF-8" standalone="no"?>
<!DOCTYPE svg PUBLIC "-//W3C//DTD SVG 1.1//EN"
 "http://www.w3.org/Graphics/SVG/1.1/DTD/svg11.dtd">
<!-- Generated by graphviz version 2.43.0 (0)
 -->
<!-- Title: YarpUtilities/src/RosPublisher.cpp Pages: 1 -->
<!--zoomable 352 -->
<svg id="main" version="1.1" xmlns="http://www.w3.org/2000/svg" xmlns:xlink="http://www.w3.org/1999/xlink" xml:space="preserve" onload="init(evt)">
<style type="text/css"><![CDATA[
.edge:hover path { stroke: red; }
.edge:hover polygon { stroke: red; fill: red; }
]]></style>
<script type="text/javascript"><![CDATA[
var edges = document.getElementsByTagName('g');
if (edges && edges.length) {
  for (var i=0;i<edges.length;i++) {
    if (edges[i].id.substr(0,4)=='edge') {
      edges[i].setAttribute('class','edge');
    }
  }
}
]]></script>
        <defs>
                <circle id="rim" cx="0" cy="0" r="7"/>
                <circle id="rim2" cx="0" cy="0" r="3.5"/>
                <g id="zoomPlus">
                        <use xlink:href="#rim" fill="#404040">
                                <set attributeName="fill" to="#808080" begin="zoomplus.mouseover" end="zoomplus.mouseout"/>
                        </use>
                        <path d="M-4,0h8M0,-4v8" fill="none" stroke="white" stroke-width="1.5" pointer-events="none"/>
                </g>
                <g id="zoomMin">
                        <use xlink:href="#rim" fill="#404040">
                                <set attributeName="fill" to="#808080" begin="zoomminus.mouseover" end="zoomminus.mouseout"/>
                        </use>
                        <path d="M-4,0h8" fill="none" stroke="white" stroke-width="1.5" pointer-events="none"/>
                </g>
                <g id="dirArrow">
                        <path fill="none" stroke="white" stroke-width="1.5" d="M0,-3.0v7 M-2.5,-0.5L0,-3.0L2.5,-0.5"/>
                </g>
               <g id="resetDef">
                       <use xlink:href="#rim2" fill="#404040">
                               <set attributeName="fill" to="#808080" begin="reset.mouseover" end="reset.mouseout"/>
                       </use>
               </g>
        </defs>

<script type="text/javascript">
var viewWidth = 1640;
var viewHeight = 352;
var sectionId = 'dynsection-0';
</script>
<script xlink:href="svgpan.js"/>
<svg id="graph" class="graph">
<g id="viewport">
<title>YarpUtilities/src/RosPublisher.cpp</title>
<!-- Node1 -->
<g id="node1" class="node">
<title>Node1</title>
<g id="a_node1"><a xlink:title=" ">
<polygon fill="#bfbfbf" stroke="black" points="863.5,-324.5 863.5,-343.5 1028.5,-343.5 1028.5,-324.5 863.5,-324.5"/>
<text text-anchor="middle" x="946" y="-331.5" font-family="Helvetica,sans-Serif" font-size="10.00">YarpUtilities/src/RosPublisher.cpp</text>
</a>
</g>
</g>
<!-- Node2 -->
<g id="node2" class="node">
<title>Node2</title>
<g id="a_node2"><a xlink:href="RosPublisher_8h.html" target="_top" xlink:title=" ">
<polygon fill="none" stroke="black" points="188.5,-257.5 188.5,-287.5 343.5,-287.5 343.5,-257.5 188.5,-257.5"/>
<text text-anchor="start" x="196.5" y="-275.5" font-family="Helvetica,sans-Serif" font-size="10.00">BipedalLocomotion/YarpUtilities</text>
<text text-anchor="middle" x="266" y="-264.5" font-family="Helvetica,sans-Serif" font-size="10.00">/RosPublisher.h</text>
</a>
</g>
</g>
<!-- Node1&#45;&gt;Node2 -->
<g id="edge1" class="edge">
<title>Node1&#45;&gt;Node2</title>
<path fill="none" stroke="midnightblue" d="M863.27,-329.06C750.47,-323.17 541.92,-310.42 353.82,-288.02"/>
<polygon fill="midnightblue" stroke="midnightblue" points="354.08,-284.53 343.74,-286.81 353.25,-291.48 354.08,-284.53"/>
</g>
<!-- Node16 -->
<g id="node16" class="node">
<title>Node16</title>
<g id="a_node16"><a xlink:title=" ">
<polygon fill="none" stroke="#bfbfbf" points="362,-263 362,-282 444,-282 444,-263 362,-263"/>
<text text-anchor="middle" x="403" y="-270" font-family="Helvetica,sans-Serif" font-size="10.00">yarp/os/Time.h</text>
</a>
</g>
</g>
<!-- Node1&#45;&gt;Node16 -->
<g id="edge21" class="edge">
<title>Node1&#45;&gt;Node16</title>
<path fill="none" stroke="midnightblue" d="M863.09,-330.12C764.78,-325.62 596.3,-314.5 454,-288 449.22,-287.11 444.24,-285.97 439.34,-284.72"/>
<polygon fill="midnightblue" stroke="midnightblue" points="440.08,-281.29 429.51,-282.05 438.24,-288.05 440.08,-281.29"/>
</g>
<!-- Node17 -->
<g id="node17" class="node">
<title>Node17</title>
<g id="a_node17"><a xlink:title=" ">
<polygon fill="none" stroke="#bfbfbf" points="462.5,-263 462.5,-282 545.5,-282 545.5,-263 462.5,-263"/>
<text text-anchor="middle" x="504" y="-270" font-family="Helvetica,sans-Serif" font-size="10.00">yarp/os/Node.h</text>
</a>
</g>
</g>
<!-- Node1&#45;&gt;Node17 -->
<g id="edge22" class="edge">
<title>Node1&#45;&gt;Node17</title>
<path fill="none" stroke="midnightblue" d="M863.39,-327.41C783.84,-321.11 660.4,-308.9 555,-288 550.28,-287.06 545.37,-285.91 540.53,-284.66"/>
<polygon fill="midnightblue" stroke="midnightblue" points="541.37,-281.26 530.8,-282 539.52,-288.01 541.37,-281.26"/>
</g>
<!-- Node18 -->
<g id="node18" class="node">
<title>Node18</title>
<g id="a_node18"><a xlink:title=" ">
<polygon fill="none" stroke="#bfbfbf" points="564,-263 564,-282 664,-282 664,-263 564,-263"/>
<text text-anchor="middle" x="614" y="-270" font-family="Helvetica,sans-Serif" font-size="10.00">yarp/os/Publisher.h</text>
</a>
</g>
</g>
<!-- Node1&#45;&gt;Node18 -->
<g id="edge23" class="edge">
<title>Node1&#45;&gt;Node18</title>
<path fill="none" stroke="midnightblue" d="M886.11,-324.49C830.63,-316.29 745.94,-302.95 673,-288 667.64,-286.9 662.03,-285.65 656.49,-284.36"/>
<polygon fill="midnightblue" stroke="midnightblue" points="657.21,-280.93 646.67,-282.01 655.58,-287.74 657.21,-280.93"/>
</g>
<!-- Node19 -->
<g id="node19" class="node">
<title>Node19</title>
<g id="a_node19"><a xlink:title=" ">
<polygon fill="none" stroke="#bfbfbf" points="682,-263 682,-282 792,-282 792,-263 682,-263"/>
<text text-anchor="middle" x="737" y="-270" font-family="Helvetica,sans-Serif" font-size="10.00">yarp/dev/PolyDriver.h</text>
</a>
</g>
</g>
<!-- Node1&#45;&gt;Node19 -->
<g id="edge24" class="edge">
<title>Node1&#45;&gt;Node19</title>
<path fill="none" stroke="midnightblue" d="M916.06,-324.48C879.43,-314.05 817.3,-296.36 776.72,-284.81"/>
<polygon fill="midnightblue" stroke="midnightblue" points="777.47,-281.38 766.89,-282.01 775.55,-288.11 777.47,-281.38"/>
</g>
<!-- Node20 -->
<g id="node20" class="node">
<title>Node20</title>
<g id="a_node20"><a xlink:title=" ">
<polygon fill="none" stroke="#bfbfbf" points="810,-263 810,-282 950,-282 950,-263 810,-263"/>
<text text-anchor="middle" x="880" y="-270" font-family="Helvetica,sans-Serif" font-size="10.00">yarp/dev/IFrameTransform.h</text>
</a>
</g>
</g>
<!-- Node1&#45;&gt;Node20 -->
<g id="edge25" class="edge">
<title>Node1&#45;&gt;Node20</title>
<path fill="none" stroke="midnightblue" d="M936.54,-324.48C926.25,-315.2 909.58,-300.17 897.01,-288.83"/>
<polygon fill="midnightblue" stroke="midnightblue" points="899.21,-286.11 889.44,-282.01 894.52,-291.3 899.21,-286.11"/>
</g>
<!-- Node21 -->
<g id="node21" class="node">
<title>Node21</title>
<g id="a_node21"><a xlink:title=" ">
<polygon fill="none" stroke="#bfbfbf" points="968.5,-263 968.5,-282 1057.5,-282 1057.5,-263 968.5,-263"/>
<text text-anchor="middle" x="1013" y="-270" font-family="Helvetica,sans-Serif" font-size="10.00">yarp/sig/Matrix.h</text>
</a>
</g>
</g>
<!-- Node1&#45;&gt;Node21 -->
<g id="edge26" class="edge">
<title>Node1&#45;&gt;Node21</title>
<path fill="none" stroke="midnightblue" d="M955.6,-324.48C966.05,-315.2 982.97,-300.17 995.74,-288.83"/>
<polygon fill="midnightblue" stroke="midnightblue" points="998.27,-291.27 1003.42,-282.01 993.62,-286.03 998.27,-291.27"/>
</g>
<!-- Node22 -->
<g id="node22" class="node">
<title>Node22</title>
<g id="a_node22"><a xlink:title=" ">
<polygon fill="none" stroke="#bfbfbf" points="1076,-263 1076,-282 1198,-282 1198,-263 1076,-263"/>
<text text-anchor="middle" x="1137" y="-270" font-family="Helvetica,sans-Serif" font-size="10.00">yarp/rosmsg/TickTime.h</text>
</a>
</g>
</g>
<!-- Node1&#45;&gt;Node22 -->
<g id="edge27" class="edge">
<title>Node1&#45;&gt;Node22</title>
<path fill="none" stroke="midnightblue" d="M973.37,-324.48C1006.55,-314.14 1062.65,-296.66 1099.76,-285.1"/>
<polygon fill="midnightblue" stroke="midnightblue" points="1101.18,-288.32 1109.69,-282.01 1099.1,-281.64 1101.18,-288.32"/>
</g>
<!-- Node23 -->
<g id="node23" class="node">
<title>Node23</title>
<g id="a_node23"><a xlink:title=" ">
<polygon fill="none" stroke="#bfbfbf" points="1216.5,-257.5 1216.5,-287.5 1319.5,-287.5 1319.5,-257.5 1216.5,-257.5"/>
<text text-anchor="start" x="1224.5" y="-275.5" font-family="Helvetica,sans-Serif" font-size="10.00">yarp/rosmsg/sensor</text>
<text text-anchor="middle" x="1268" y="-264.5" font-family="Helvetica,sans-Serif" font-size="10.00">_msgs/JointState.h</text>
</a>
</g>
</g>
<!-- Node1&#45;&gt;Node23 -->
<g id="edge28" class="edge">
<title>Node1&#45;&gt;Node23</title>
<path fill="none" stroke="midnightblue" d="M1001.43,-324.48C1052.22,-316.43 1129.71,-303.57 1206.61,-288"/>
<polygon fill="midnightblue" stroke="midnightblue" points="1207.37,-291.42 1216.47,-285.99 1205.97,-284.56 1207.37,-291.42"/>
</g>
<!-- Node24 -->
<g id="node24" class="node">
<title>Node24</title>
<g id="a_node24"><a xlink:title=" ">
<polygon fill="none" stroke="#bfbfbf" points="1337.5,-257.5 1337.5,-287.5 1466.5,-287.5 1466.5,-257.5 1337.5,-257.5"/>
<text text-anchor="start" x="1345.5" y="-275.5" font-family="Helvetica,sans-Serif" font-size="10.00">yarp/rosmsg/geometry</text>
<text text-anchor="middle" x="1402" y="-264.5" font-family="Helvetica,sans-Serif" font-size="10.00">_msgs/WrenchStamped.h</text>
</a>
</g>
</g>
<!-- Node1&#45;&gt;Node24 -->
<g id="edge29" class="edge">
<title>Node1&#45;&gt;Node24</title>
<path fill="none" stroke="midnightblue" d="M1028.81,-325.18C1104.21,-317.62 1218.81,-305.04 1327.05,-288.24"/>
<polygon fill="midnightblue" stroke="midnightblue" points="1327.83,-291.66 1337.17,-286.65 1326.75,-284.75 1327.83,-291.66"/>
</g>
<!-- Node25 -->
<g id="node25" class="node">
<title>Node25</title>
<g id="a_node25"><a xlink:title=" ">
<polygon fill="none" stroke="#bfbfbf" points="1484.5,-263 1484.5,-282 1567.5,-282 1567.5,-263 1484.5,-263"/>
<text text-anchor="middle" x="1526" y="-270" font-family="Helvetica,sans-Serif" font-size="10.00">unordered_map</text>
</a>
</g>
</g>
<!-- Node1&#45;&gt;Node25 -->
<g id="edge30" class="edge">
<title>Node1&#45;&gt;Node25</title>
<path fill="none" stroke="midnightblue" d="M1028.84,-331.02C1133.73,-327.36 1319.61,-317.02 1476,-288 1480.75,-287.12 1485.69,-285.97 1490.55,-284.71"/>
<polygon fill="midnightblue" stroke="midnightblue" points="1491.58,-288.06 1500.28,-282.01 1489.71,-281.31 1491.58,-288.06"/>
</g>
<!-- Node26 -->
<g id="node26" class="node">
<title>Node26</title>
<g id="a_node26"><a xlink:title=" ">
<polygon fill="none" stroke="#bfbfbf" points="1586,-263 1586,-282 1632,-282 1632,-263 1586,-263"/>
<text text-anchor="middle" x="1609" y="-270" font-family="Helvetica,sans-Serif" font-size="10.00">chrono</text>
</a>
</g>
</g>
<!-- Node1&#45;&gt;Node26 -->
<g id="edge31" class="edge">
<title>Node1&#45;&gt;Node26</title>
<path fill="none" stroke="midnightblue" d="M1028.58,-330.73C1175.3,-326.09 1475.53,-313.73 1577,-288 1579.21,-287.44 1581.46,-286.73 1583.68,-285.94"/>
<polygon fill="midnightblue" stroke="midnightblue" points="1585.22,-289.09 1593.12,-282.03 1582.55,-282.62 1585.22,-289.09"/>
</g>
<!-- Node3 -->
<g id="node3" class="node">
<title>Node3</title>
<g id="a_node3"><a xlink:href="IParametersHandler_8h.html" target="_top" xlink:title=" ">
<polygon fill="none" stroke="black" points="86,-190.5 86,-220.5 238,-220.5 238,-190.5 86,-190.5"/>
<text text-anchor="start" x="94" y="-208.5" font-family="Helvetica,sans-Serif" font-size="10.00">BipedalLocomotion/Parameters</text>
<text text-anchor="middle" x="162" y="-197.5" font-family="Helvetica,sans-Serif" font-size="10.00">Handler/IParametersHandler.h</text>
</a>
</g>
</g>
<!-- Node2&#45;&gt;Node3 -->
<g id="edge2" class="edge">
<title>Node2&#45;&gt;Node3</title>
<path fill="none" stroke="midnightblue" d="M243.43,-257.4C228.71,-248.2 209.31,-236.07 193.13,-225.95"/>
<polygon fill="midnightblue" stroke="midnightblue" points="194.86,-222.91 184.52,-220.58 191.15,-228.84 194.86,-222.91"/>
</g>
<!-- Node4 -->
<g id="node4" class="node">
<title>Node4</title>
<g id="a_node4"><a xlink:title=" ">
<polygon fill="none" stroke="#bfbfbf" points="0,-62 0,-81 52,-81 52,-62 0,-62"/>
<text text-anchor="middle" x="26" y="-69" font-family="Helvetica,sans-Serif" font-size="10.00">memory</text>
</a>
</g>
</g>
<!-- Node2&#45;&gt;Node4 -->
<g id="edge18" class="edge">
<title>Node2&#45;&gt;Node4</title>
<path fill="none" stroke="midnightblue" d="M188.2,-267.09C150.58,-261.21 107.17,-248.4 77,-221 39.08,-186.56 29.35,-122.66 26.86,-91.11"/>
<polygon fill="midnightblue" stroke="midnightblue" points="30.35,-90.83 26.23,-81.07 23.36,-91.27 30.35,-90.83"/>
</g>
<!-- Node5 -->
<g id="node5" class="node">
<title>Node5</title>
<g id="a_node5"><a xlink:title=" ">
<polygon fill="none" stroke="#bfbfbf" points="344.5,-129 344.5,-148 385.5,-148 385.5,-129 344.5,-129"/>
<text text-anchor="middle" x="365" y="-136" font-family="Helvetica,sans-Serif" font-size="10.00">string</text>
</a>
</g>
</g>
<!-- Node2&#45;&gt;Node5 -->
<g id="edge20" class="edge">
<title>Node2&#45;&gt;Node5</title>
<path fill="none" stroke="midnightblue" d="M276.59,-257.37C294.98,-232.86 332.7,-182.56 352.4,-156.3"/>
<polygon fill="midnightblue" stroke="midnightblue" points="355.35,-158.2 358.55,-148.1 349.75,-154 355.35,-158.2"/>
</g>
<!-- Node7 -->
<g id="node7" class="node">
<title>Node7</title>
<g id="a_node7"><a xlink:href="Vector_8h_source.html" target="_top" xlink:title=" ">
<polygon fill="none" stroke="black" points="190,-123.5 190,-153.5 326,-153.5 326,-123.5 190,-123.5"/>
<text text-anchor="start" x="198" y="-141.5" font-family="Helvetica,sans-Serif" font-size="10.00">BipedalLocomotion/Generic</text>
<text text-anchor="middle" x="258" y="-130.5" font-family="Helvetica,sans-Serif" font-size="10.00">Container/Vector.h</text>
</a>
</g>
</g>
<!-- Node2&#45;&gt;Node7 -->
<g id="edge17" class="edge">
<title>Node2&#45;&gt;Node7</title>
<path fill="none" stroke="midnightblue" d="M265.14,-257.37C263.79,-235.04 261.14,-191.31 259.48,-163.85"/>
<polygon fill="midnightblue" stroke="midnightblue" points="262.95,-163.29 258.85,-153.52 255.96,-163.72 262.95,-163.29"/>
</g>
<!-- Node15 -->
<g id="node15" class="node">
<title>Node15</title>
<g id="a_node15"><a xlink:title=" ">
<polygon fill="none" stroke="#bfbfbf" points="509,-62 509,-81 563,-81 563,-62 509,-62"/>
<text text-anchor="middle" x="536" y="-69" font-family="Helvetica,sans-Serif" font-size="10.00">iostream</text>
</a>
</g>
</g>
<!-- Node2&#45;&gt;Node15 -->
<g id="edge19" class="edge">
<title>Node2&#45;&gt;Node15</title>
<path fill="none" stroke="midnightblue" d="M285.42,-257.19C335.04,-220.62 466.09,-124.03 516.16,-87.12"/>
<polygon fill="midnightblue" stroke="midnightblue" points="518.3,-89.9 524.27,-81.14 514.14,-84.26 518.3,-89.9"/>
</g>
<!-- Node3&#45;&gt;Node4 -->
<g id="edge3" class="edge">
<title>Node3&#45;&gt;Node4</title>
<path fill="none" stroke="midnightblue" d="M132.95,-190.29C116.52,-181.35 96.27,-168.73 81,-154 61.38,-135.08 44.84,-108.06 35.17,-90.4"/>
<polygon fill="midnightblue" stroke="midnightblue" points="38.08,-88.41 30.3,-81.22 31.89,-91.69 38.08,-88.41"/>
</g>
<!-- Node3&#45;&gt;Node5 -->
<g id="edge4" class="edge">
<title>Node3&#45;&gt;Node5</title>
<path fill="none" stroke="midnightblue" d="M218.88,-190.45C253.02,-181.39 297.04,-168.6 335,-154 336.38,-153.47 337.79,-152.9 339.2,-152.3"/>
<polygon fill="midnightblue" stroke="midnightblue" points="340.74,-155.45 348.4,-148.13 337.85,-149.07 340.74,-155.45"/>
</g>
<!-- Node6 -->
<g id="node6" class="node">
<title>Node6</title>
<g id="a_node6"><a xlink:title=" ">
<polygon fill="none" stroke="#bfbfbf" points="90,-129 90,-148 134,-148 134,-129 90,-129"/>
<text text-anchor="middle" x="112" y="-136" font-family="Helvetica,sans-Serif" font-size="10.00">vector</text>
</a>
</g>
</g>
<!-- Node3&#45;&gt;Node6 -->
<g id="edge5" class="edge">
<title>Node3&#45;&gt;Node6</title>
<path fill="none" stroke="midnightblue" d="M151.15,-190.4C143.43,-180.36 133.03,-166.84 124.89,-156.25"/>
<polygon fill="midnightblue" stroke="midnightblue" points="127.56,-153.99 118.69,-148.19 122.01,-158.25 127.56,-153.99"/>
</g>
<!-- Node3&#45;&gt;Node7 -->
<g id="edge6" class="edge">
<title>Node3&#45;&gt;Node7</title>
<path fill="none" stroke="midnightblue" d="M182.83,-190.4C196.29,-181.28 214,-169.29 228.85,-159.24"/>
<polygon fill="midnightblue" stroke="midnightblue" points="230.89,-162.08 237.21,-153.58 226.97,-156.28 230.89,-162.08"/>
</g>
<!-- Node9 -->
<g id="node9" class="node">
<title>Node9</title>
<g id="a_node9"><a xlink:href="TemplateHelpers_8h_source.html" target="_top" xlink:title=" ">
<polygon fill="none" stroke="black" points="70.5,-56.5 70.5,-86.5 213.5,-86.5 213.5,-56.5 70.5,-56.5"/>
<text text-anchor="start" x="78.5" y="-74.5" font-family="Helvetica,sans-Serif" font-size="10.00">BipedalLocomotion/Generic</text>
<text text-anchor="middle" x="142" y="-63.5" font-family="Helvetica,sans-Serif" font-size="10.00">Container/TemplateHelpers.h</text>
</a>
</g>
</g>
<!-- Node3&#45;&gt;Node9 -->
<g id="edge16" class="edge">
<title>Node3&#45;&gt;Node9</title>
<path fill="none" stroke="midnightblue" d="M159.86,-190.37C156.46,-167.94 149.79,-123.92 145.63,-96.49"/>
<polygon fill="midnightblue" stroke="midnightblue" points="149.08,-95.89 144.12,-86.52 142.16,-96.94 149.08,-95.89"/>
</g>
<!-- Node7&#45;&gt;Node4 -->
<g id="edge15" class="edge">
<title>Node7&#45;&gt;Node4</title>
<path fill="none" stroke="midnightblue" d="M193.9,-123.5C155.05,-114.41 104.71,-101.57 61,-87 59.08,-86.36 57.12,-85.66 55.15,-84.94"/>
<polygon fill="midnightblue" stroke="midnightblue" points="56.02,-81.52 45.44,-81.13 53.47,-88.04 56.02,-81.52"/>
</g>
<!-- Node8 -->
<g id="node8" class="node">
<title>Node8</title>
<g id="a_node8"><a xlink:title=" ">
<polygon fill="none" stroke="#bfbfbf" points="299,-62 299,-81 413,-81 413,-62 299,-62"/>
<text text-anchor="middle" x="356" y="-69" font-family="Helvetica,sans-Serif" font-size="10.00">iDynTree/Core/Span.h</text>
</a>
</g>
</g>
<!-- Node7&#45;&gt;Node8 -->
<g id="edge7" class="edge">
<title>Node7&#45;&gt;Node8</title>
<path fill="none" stroke="midnightblue" d="M279.26,-123.4C295.7,-112.5 318.34,-97.48 334.77,-86.58"/>
<polygon fill="midnightblue" stroke="midnightblue" points="336.78,-89.45 343.17,-81.01 332.91,-83.62 336.78,-89.45"/>
</g>
<!-- Node7&#45;&gt;Node9 -->
<g id="edge8" class="edge">
<title>Node7&#45;&gt;Node9</title>
<path fill="none" stroke="midnightblue" d="M232.83,-123.4C216.26,-114.11 194.36,-101.84 176.22,-91.67"/>
<polygon fill="midnightblue" stroke="midnightblue" points="177.56,-88.41 167.12,-86.58 174.13,-94.52 177.56,-88.41"/>
</g>
<!-- Node13 -->
<g id="node13" class="node">
<title>Node13</title>
<g id="a_node13"><a xlink:title=" ">
<polygon fill="none" stroke="#bfbfbf" points="431.5,-62 431.5,-81 490.5,-81 490.5,-62 431.5,-62"/>
<text text-anchor="middle" x="461" y="-69" font-family="Helvetica,sans-Serif" font-size="10.00">functional</text>
</a>
</g>
</g>
<!-- Node7&#45;&gt;Node13 -->
<g id="edge12" class="edge">
<title>Node7&#45;&gt;Node13</title>
<path fill="none" stroke="midnightblue" d="M306.31,-123.42C339.1,-113.66 383.35,-100.12 422,-87 424.39,-86.19 426.86,-85.33 429.34,-84.44"/>
<polygon fill="midnightblue" stroke="midnightblue" points="430.6,-87.71 438.8,-81 428.21,-81.13 430.6,-87.71"/>
</g>
<!-- Node14 -->
<g id="node14" class="node">
<title>Node14</title>
<g id="a_node14"><a xlink:title=" ">
<polygon fill="none" stroke="#bfbfbf" points="231.5,-62 231.5,-81 280.5,-81 280.5,-62 231.5,-62"/>
<text text-anchor="middle" x="256" y="-69" font-family="Helvetica,sans-Serif" font-size="10.00">cassert</text>
</a>
</g>
</g>
<!-- Node7&#45;&gt;Node14 -->
<g id="edge13" class="edge">
<title>Node7&#45;&gt;Node14</title>
<path fill="none" stroke="midnightblue" d="M257.57,-123.4C257.28,-114.06 256.9,-101.71 256.59,-91.52"/>
<polygon fill="midnightblue" stroke="midnightblue" points="260.07,-91.08 256.27,-81.19 253.08,-91.3 260.07,-91.08"/>
</g>
<!-- Node7&#45;&gt;Node15 -->
<g id="edge14" class="edge">
<title>Node7&#45;&gt;Node15</title>
<path fill="none" stroke="midnightblue" d="M326.13,-124.68C385.9,-113.18 468.12,-96.66 500,-87 502.29,-86.31 504.63,-85.53 506.97,-84.7"/>
<polygon fill="midnightblue" stroke="midnightblue" points="508.31,-87.94 516.42,-81.12 505.83,-81.39 508.31,-87.94"/>
</g>
<!-- Node10 -->
<g id="node10" class="node">
<title>Node10</title>
<g id="a_node10"><a xlink:title=" ">
<polygon fill="none" stroke="#bfbfbf" points="29,-0.5 29,-19.5 91,-19.5 91,-0.5 29,-0.5"/>
<text text-anchor="middle" x="60" y="-7.5" font-family="Helvetica,sans-Serif" font-size="10.00">type_traits</text>
</a>
</g>
</g>
<!-- Node9&#45;&gt;Node10 -->
<g id="edge9" class="edge">
<title>Node9&#45;&gt;Node10</title>
<path fill="none" stroke="midnightblue" d="M122.57,-56.4C109.79,-47.13 93.11,-35.03 80.19,-25.65"/>
<polygon fill="midnightblue" stroke="midnightblue" points="82.08,-22.7 71.93,-19.66 77.97,-28.36 82.08,-22.7"/>
</g>
<!-- Node11 -->
<g id="node11" class="node">
<title>Node11</title>
<g id="a_node11"><a xlink:title=" ">
<polygon fill="none" stroke="#bfbfbf" points="109,-0.5 109,-19.5 175,-19.5 175,-0.5 109,-0.5"/>
<text text-anchor="middle" x="142" y="-7.5" font-family="Helvetica,sans-Serif" font-size="10.00">string_view</text>
</a>
</g>
</g>
<!-- Node9&#45;&gt;Node11 -->
<g id="edge10" class="edge">
<title>Node9&#45;&gt;Node11</title>
<path fill="none" stroke="midnightblue" d="M142,-56.4C142,-48.47 142,-38.46 142,-29.86"/>
<polygon fill="midnightblue" stroke="midnightblue" points="145.5,-29.66 142,-19.66 138.5,-29.66 145.5,-29.66"/>
</g>
<!-- Node12 -->
<g id="node12" class="node">
<title>Node12</title>
<g id="a_node12"><a xlink:title=" ">
<polygon fill="none" stroke="#bfbfbf" points="193.5,-0.5 193.5,-19.5 258.5,-19.5 258.5,-0.5 193.5,-0.5"/>
<text text-anchor="middle" x="226" y="-7.5" font-family="Helvetica,sans-Serif" font-size="10.00">Eigen/Core</text>
</a>
</g>
</g>
<!-- Node9&#45;&gt;Node12 -->
<g id="edge11" class="edge">
<title>Node9&#45;&gt;Node12</title>
<path fill="none" stroke="midnightblue" d="M161.91,-56.4C174.99,-47.13 192.08,-35.03 205.32,-25.65"/>
<polygon fill="midnightblue" stroke="midnightblue" points="207.64,-28.29 213.78,-19.66 203.59,-22.58 207.64,-28.29"/>
</g>
</g>
</svg>
        <g id="navigator" transform="translate(0 0)" fill="#404254">
                <rect fill="#f2f5e9" fill-opacity="0.5" stroke="#606060" stroke-width=".5" x="0" y="0" width="60" height="60"/>
                <use id="zoomplus" xlink:href="#zoomPlus" x="17" y="9" onmousedown="handleZoom(evt,'in')"/>
                <use id="zoomminus" xlink:href="#zoomMin" x="42" y="9" onmousedown="handleZoom(evt,'out')"/>
                <use id="reset" xlink:href="#resetDef" x="30" y="36" onmousedown="handleReset()"/>
                <g id="arrowUp" xlink:href="#dirArrow" transform="translate(30 24)" onmousedown="handlePan(0,-1)">
                  <use xlink:href="#rim" fill="#404040">
                        <set attributeName="fill" to="#808080" begin="arrowUp.mouseover" end="arrowUp.mouseout"/>
                  </use>
                  <path fill="none" stroke="white" stroke-width="1.5" d="M0,-3.0v7 M-2.5,-0.5L0,-3.0L2.5,-0.5"/>
                </g>
                <g id="arrowRight" xlink:href="#dirArrow" transform="rotate(90) translate(36 -43)" onmousedown="handlePan(1,0)">
                  <use xlink:href="#rim" fill="#404040">
                        <set attributeName="fill" to="#808080" begin="arrowRight.mouseover" end="arrowRight.mouseout"/>
                  </use>
                  <path fill="none" stroke="white" stroke-width="1.5" d="M0,-3.0v7 M-2.5,-0.5L0,-3.0L2.5,-0.5"/>
                </g>
                <g id="arrowDown" xlink:href="#dirArrow" transform="rotate(180) translate(-30 -48)" onmousedown="handlePan(0,1)">
                  <use xlink:href="#rim" fill="#404040">
                        <set attributeName="fill" to="#808080" begin="arrowDown.mouseover" end="arrowDown.mouseout"/>
                  </use>
                  <path fill="none" stroke="white" stroke-width="1.5" d="M0,-3.0v7 M-2.5,-0.5L0,-3.0L2.5,-0.5"/>
                </g>
                <g id="arrowLeft" xlink:href="#dirArrow" transform="rotate(270) translate(-36 17)" onmousedown="handlePan(-1,0)">
                  <use xlink:href="#rim" fill="#404040">
                        <set attributeName="fill" to="#808080" begin="arrowLeft.mouseover" end="arrowLeft.mouseout"/>
                  </use>
                  <path fill="none" stroke="white" stroke-width="1.5" d="M0,-3.0v7 M-2.5,-0.5L0,-3.0L2.5,-0.5"/>
                </g>
        </g>
        <svg viewBox="0 0 15 15" width="100%" height="30px" preserveAspectRatio="xMaxYMin meet">
         <g id="arrow_out" transform="scale(0.3 0.3)">
          <a xlink:href="RosPublisher_8cpp__incl_org.svg" target="_base">
           <rect id="button" ry="5" rx="5" y="6" x="6" height="38" width="38"
                fill="#f2f5e9" fill-opacity="0.5" stroke="#606060" stroke-width="1.0"/>
           <path id="arrow"
             d="M 11.500037,31.436501 C 11.940474,20.09759 22.043105,11.32322 32.158766,21.979434 L 37.068811,17.246167 C 37.068811,17.246167 37.088388,32 37.088388,32 L 22.160133,31.978069 C 22.160133,31.978069 26.997745,27.140456 26.997745,27.140456 C 18.528582,18.264221 13.291696,25.230495 11.500037,31.436501 z"
             style="fill:#404040;"/>
          </a>
         </g>
        </svg>
</svg>
