<?xml version="1.0" encoding="UTF-8" standalone="no"?>
<!DOCTYPE svg PUBLIC "-//W3C//DTD SVG 1.1//EN"
 "http://www.w3.org/Graphics/SVG/1.1/DTD/svg11.dtd">
<!-- Generated by graphviz version 2.43.0 (0)
 -->
<!-- Title: Contacts/src/SchmittTriggerDetector.cpp Pages: 1 -->
<svg width="712pt" height="430pt"
 viewBox="0.00 0.00 711.50 430.00" xmlns="http://www.w3.org/2000/svg" xmlns:xlink="http://www.w3.org/1999/xlink">
<g id="graph0" class="graph" transform="scale(1 1) rotate(0) translate(4 426)">
<title>Contacts/src/SchmittTriggerDetector.cpp</title>
<!-- Node1 -->
<g id="node1" class="node">
<title>Node1</title>
<g id="a_node1"><a xlink:title=" ">
<polygon fill="#bfbfbf" stroke="black" points="548,-391.5 548,-421.5 688,-421.5 688,-391.5 548,-391.5"/>
<text text-anchor="start" x="556" y="-409.5" font-family="Helvetica,sans-Serif" font-size="10.00">Contacts/src/SchmittTrigger</text>
<text text-anchor="middle" x="618" y="-398.5" font-family="Helvetica,sans-Serif" font-size="10.00">Detector.cpp</text>
</a>
</g>
</g>
<!-- Node2 -->
<g id="node2" class="node">
<title>Node2</title>
<g id="a_node2"><a xlink:href="SchmittTriggerDetector_8h.html" target="_top" xlink:title=" ">
<polygon fill="none" stroke="black" points="532.5,-324.5 532.5,-354.5 703.5,-354.5 703.5,-324.5 532.5,-324.5"/>
<text text-anchor="start" x="540.5" y="-342.5" font-family="Helvetica,sans-Serif" font-size="10.00">BipedalLocomotion/Contact</text>
<text text-anchor="middle" x="618" y="-331.5" font-family="Helvetica,sans-Serif" font-size="10.00">Detectors/SchmittTriggerDetector.h</text>
</a>
</g>
</g>
<!-- Node1&#45;&gt;Node2 -->
<g id="edge1" class="edge">
<title>Node1&#45;&gt;Node2</title>
<path fill="none" stroke="midnightblue" d="M618,-391.4C618,-383.64 618,-373.81 618,-364.86"/>
<polygon fill="midnightblue" stroke="midnightblue" points="621.5,-364.58 618,-354.58 614.5,-364.58 621.5,-364.58"/>
</g>
<!-- Node3 -->
<g id="node3" class="node">
<title>Node3</title>
<g id="a_node3"><a xlink:href="ContactDetector_8h.html" target="_top" xlink:title=" ">
<polygon fill="none" stroke="black" points="402,-257.5 402,-287.5 544,-287.5 544,-257.5 402,-257.5"/>
<text text-anchor="start" x="410" y="-275.5" font-family="Helvetica,sans-Serif" font-size="10.00">BipedalLocomotion/Contact</text>
<text text-anchor="middle" x="473" y="-264.5" font-family="Helvetica,sans-Serif" font-size="10.00">Detectors/ContactDetector.h</text>
</a>
</g>
</g>
<!-- Node2&#45;&gt;Node3 -->
<g id="edge2" class="edge">
<title>Node2&#45;&gt;Node3</title>
<path fill="none" stroke="midnightblue" d="M586.54,-324.4C565.16,-314.81 536.69,-302.05 513.6,-291.7"/>
<polygon fill="midnightblue" stroke="midnightblue" points="514.96,-288.47 504.4,-287.58 512.09,-294.86 514.96,-288.47"/>
</g>
<!-- Node17 -->
<g id="node17" class="node">
<title>Node17</title>
<g id="a_node17"><a xlink:title=" ">
<polygon fill="none" stroke="#bfbfbf" points="631,-62 631,-81 685,-81 685,-62 631,-62"/>
<text text-anchor="middle" x="658" y="-69" font-family="Helvetica,sans-Serif" font-size="10.00">iostream</text>
</a>
</g>
</g>
<!-- Node2&#45;&gt;Node17 -->
<g id="edge24" class="edge">
<title>Node2&#45;&gt;Node17</title>
<path fill="none" stroke="midnightblue" d="M626.46,-324.3C638.71,-302.83 660.82,-260.41 669,-221 678.56,-174.97 668.99,-119.4 662.64,-91.07"/>
<polygon fill="midnightblue" stroke="midnightblue" points="666.04,-90.24 660.33,-81.31 659.23,-91.85 666.04,-90.24"/>
</g>
<!-- Node20 -->
<g id="node20" class="node">
<title>Node20</title>
<g id="a_node20"><a xlink:title=" ">
<polygon fill="none" stroke="#bfbfbf" points="576.5,-196 576.5,-215 659.5,-215 659.5,-196 576.5,-196"/>
<text text-anchor="middle" x="618" y="-203" font-family="Helvetica,sans-Serif" font-size="10.00">unordered_map</text>
</a>
</g>
</g>
<!-- Node2&#45;&gt;Node20 -->
<g id="edge25" class="edge">
<title>Node2&#45;&gt;Node20</title>
<path fill="none" stroke="midnightblue" d="M618,-324.37C618,-300.5 618,-252.18 618,-225.41"/>
<polygon fill="midnightblue" stroke="midnightblue" points="621.5,-225.1 618,-215.1 614.5,-225.1 621.5,-225.1"/>
</g>
<!-- Node4 -->
<g id="node4" class="node">
<title>Node4</title>
<g id="a_node4"><a xlink:href="Advanceable_8h.html" target="_top" xlink:title=" ">
<polygon fill="none" stroke="black" points="0,-190.5 0,-220.5 136,-220.5 136,-190.5 0,-190.5"/>
<text text-anchor="start" x="8" y="-208.5" font-family="Helvetica,sans-Serif" font-size="10.00">BipedalLocomotion/System</text>
<text text-anchor="middle" x="68" y="-197.5" font-family="Helvetica,sans-Serif" font-size="10.00">/Advanceable.h</text>
</a>
</g>
</g>
<!-- Node3&#45;&gt;Node4 -->
<g id="edge3" class="edge">
<title>Node3&#45;&gt;Node4</title>
<path fill="none" stroke="midnightblue" d="M401.87,-261.25C337.63,-251.83 240.24,-237.15 146.36,-221.2"/>
<polygon fill="midnightblue" stroke="midnightblue" points="146.86,-217.74 136.41,-219.51 145.68,-224.64 146.86,-217.74"/>
</g>
<!-- Node5 -->
<g id="node5" class="node">
<title>Node5</title>
<g id="a_node5"><a xlink:href="IParametersHandler_8h.html" target="_top" xlink:title=" ">
<polygon fill="none" stroke="black" points="350,-190.5 350,-220.5 502,-220.5 502,-190.5 350,-190.5"/>
<text text-anchor="start" x="358" y="-208.5" font-family="Helvetica,sans-Serif" font-size="10.00">BipedalLocomotion/Parameters</text>
<text text-anchor="middle" x="426" y="-197.5" font-family="Helvetica,sans-Serif" font-size="10.00">Handler/IParametersHandler.h</text>
</a>
</g>
</g>
<!-- Node3&#45;&gt;Node5 -->
<g id="edge4" class="edge">
<title>Node3&#45;&gt;Node5</title>
<path fill="none" stroke="midnightblue" d="M462.8,-257.4C456.77,-249.05 448.98,-238.29 442.13,-228.81"/>
<polygon fill="midnightblue" stroke="midnightblue" points="444.87,-226.63 436.18,-220.58 439.2,-230.73 444.87,-226.63"/>
</g>
<!-- Node3&#45;&gt;Node17 -->
<g id="edge22" class="edge">
<title>Node3&#45;&gt;Node17</title>
<path fill="none" stroke="midnightblue" d="M486.3,-257.19C519.73,-221.23 607.1,-127.25 642.64,-89.03"/>
<polygon fill="midnightblue" stroke="midnightblue" points="645.52,-91.07 649.76,-81.36 640.39,-86.3 645.52,-91.07"/>
</g>
<!-- Node18 -->
<g id="node18" class="node">
<title>Node18</title>
<g id="a_node18"><a xlink:href="Contact_8h.html" target="_top" xlink:title=" ">
<polygon fill="none" stroke="black" points="154,-190.5 154,-220.5 296,-220.5 296,-190.5 154,-190.5"/>
<text text-anchor="start" x="162" y="-208.5" font-family="Helvetica,sans-Serif" font-size="10.00">BipedalLocomotion/Contacts</text>
<text text-anchor="middle" x="225" y="-197.5" font-family="Helvetica,sans-Serif" font-size="10.00">/Contact.h</text>
</a>
</g>
</g>
<!-- Node3&#45;&gt;Node18 -->
<g id="edge19" class="edge">
<title>Node3&#45;&gt;Node18</title>
<path fill="none" stroke="midnightblue" d="M419.49,-257.48C381.08,-247.41 329.16,-233.8 288.62,-223.17"/>
<polygon fill="midnightblue" stroke="midnightblue" points="289.4,-219.76 278.84,-220.61 287.62,-226.53 289.4,-219.76"/>
</g>
<!-- Node3&#45;&gt;Node20 -->
<g id="edge23" class="edge">
<title>Node3&#45;&gt;Node20</title>
<path fill="none" stroke="midnightblue" d="M504.46,-257.4C529.9,-245.99 565.4,-230.08 589.9,-219.1"/>
<polygon fill="midnightblue" stroke="midnightblue" points="591.33,-222.29 599.02,-215.01 588.47,-215.9 591.33,-222.29"/>
</g>
<!-- Node6 -->
<g id="node6" class="node">
<title>Node6</title>
<g id="a_node6"><a xlink:title=" ">
<polygon fill="none" stroke="#bfbfbf" points="122,-62 122,-81 174,-81 174,-62 122,-62"/>
<text text-anchor="middle" x="148" y="-69" font-family="Helvetica,sans-Serif" font-size="10.00">memory</text>
</a>
</g>
</g>
<!-- Node5&#45;&gt;Node6 -->
<g id="edge5" class="edge">
<title>Node5&#45;&gt;Node6</title>
<path fill="none" stroke="midnightblue" d="M373.63,-190.42C346.02,-181.88 312.14,-169.62 284,-154 264.64,-143.26 263.57,-135.06 245,-123 222.83,-108.61 196.09,-94.93 176.3,-85.45"/>
<polygon fill="midnightblue" stroke="midnightblue" points="177.73,-82.26 167.2,-81.15 174.74,-88.59 177.73,-82.26"/>
</g>
<!-- Node7 -->
<g id="node7" class="node">
<title>Node7</title>
<g id="a_node7"><a xlink:title=" ">
<polygon fill="none" stroke="#bfbfbf" points="195.5,-129 195.5,-148 236.5,-148 236.5,-129 195.5,-129"/>
<text text-anchor="middle" x="216" y="-136" font-family="Helvetica,sans-Serif" font-size="10.00">string</text>
</a>
</g>
</g>
<!-- Node5&#45;&gt;Node7 -->
<g id="edge6" class="edge">
<title>Node5&#45;&gt;Node7</title>
<path fill="none" stroke="midnightblue" d="M371.51,-190.46C336.72,-181.09 290.84,-167.95 251,-154 249.09,-153.33 247.14,-152.61 245.17,-151.87"/>
<polygon fill="midnightblue" stroke="midnightblue" points="246.06,-148.46 235.47,-148.02 243.48,-154.96 246.06,-148.46"/>
</g>
<!-- Node8 -->
<g id="node8" class="node">
<title>Node8</title>
<g id="a_node8"><a xlink:title=" ">
<polygon fill="none" stroke="#bfbfbf" points="447,-129 447,-148 491,-148 491,-129 447,-129"/>
<text text-anchor="middle" x="469" y="-136" font-family="Helvetica,sans-Serif" font-size="10.00">vector</text>
</a>
</g>
</g>
<!-- Node5&#45;&gt;Node8 -->
<g id="edge7" class="edge">
<title>Node5&#45;&gt;Node8</title>
<path fill="none" stroke="midnightblue" d="M435.33,-190.4C441.9,-180.46 450.74,-167.11 457.71,-156.57"/>
<polygon fill="midnightblue" stroke="midnightblue" points="460.65,-158.47 463.25,-148.19 454.81,-154.6 460.65,-158.47"/>
</g>
<!-- Node9 -->
<g id="node9" class="node">
<title>Node9</title>
<g id="a_node9"><a xlink:href="Vector_8h_source.html" target="_top" xlink:title=" ">
<polygon fill="none" stroke="black" points="293,-123.5 293,-153.5 429,-153.5 429,-123.5 293,-123.5"/>
<text text-anchor="start" x="301" y="-141.5" font-family="Helvetica,sans-Serif" font-size="10.00">BipedalLocomotion/Generic</text>
<text text-anchor="middle" x="361" y="-130.5" font-family="Helvetica,sans-Serif" font-size="10.00">Container/Vector.h</text>
</a>
</g>
</g>
<!-- Node5&#45;&gt;Node9 -->
<g id="edge8" class="edge">
<title>Node5&#45;&gt;Node9</title>
<path fill="none" stroke="midnightblue" d="M411.9,-190.4C403.21,-181.71 391.9,-170.4 382.16,-160.66"/>
<polygon fill="midnightblue" stroke="midnightblue" points="384.62,-158.17 375.08,-153.58 379.67,-163.12 384.62,-158.17"/>
</g>
<!-- Node11 -->
<g id="node11" class="node">
<title>Node11</title>
<g id="a_node11"><a xlink:href="TemplateHelpers_8h_source.html" target="_top" xlink:title=" ">
<polygon fill="none" stroke="black" points="469.5,-56.5 469.5,-86.5 612.5,-86.5 612.5,-56.5 469.5,-56.5"/>
<text text-anchor="start" x="477.5" y="-74.5" font-family="Helvetica,sans-Serif" font-size="10.00">BipedalLocomotion/Generic</text>
<text text-anchor="middle" x="541" y="-63.5" font-family="Helvetica,sans-Serif" font-size="10.00">Container/TemplateHelpers.h</text>
</a>
</g>
</g>
<!-- Node5&#45;&gt;Node11 -->
<g id="edge18" class="edge">
<title>Node5&#45;&gt;Node11</title>
<path fill="none" stroke="midnightblue" d="M453.17,-190.49C468.39,-181.61 486.89,-168.98 500,-154 514.91,-136.96 525.95,-113.54 532.8,-96.18"/>
<polygon fill="midnightblue" stroke="midnightblue" points="536.1,-97.34 536.34,-86.75 529.55,-94.88 536.1,-97.34"/>
</g>
<!-- Node9&#45;&gt;Node6 -->
<g id="edge17" class="edge">
<title>Node9&#45;&gt;Node6</title>
<path fill="none" stroke="midnightblue" d="M305.16,-123.45C269.82,-114.11 223.35,-101.03 183,-87 181.09,-86.34 179.13,-85.62 177.17,-84.88"/>
<polygon fill="midnightblue" stroke="midnightblue" points="178.05,-81.47 167.47,-81.04 175.47,-87.97 178.05,-81.47"/>
</g>
<!-- Node10 -->
<g id="node10" class="node">
<title>Node10</title>
<g id="a_node10"><a xlink:title=" ">
<polygon fill="none" stroke="#bfbfbf" points="337,-62 337,-81 451,-81 451,-62 337,-62"/>
<text text-anchor="middle" x="394" y="-69" font-family="Helvetica,sans-Serif" font-size="10.00">iDynTree/Core/Span.h</text>
</a>
</g>
</g>
<!-- Node9&#45;&gt;Node10 -->
<g id="edge9" class="edge">
<title>Node9&#45;&gt;Node10</title>
<path fill="none" stroke="midnightblue" d="M368.16,-123.4C373.1,-113.66 379.71,-100.65 385.01,-90.21"/>
<polygon fill="midnightblue" stroke="midnightblue" points="388.18,-91.7 389.59,-81.19 381.94,-88.53 388.18,-91.7"/>
</g>
<!-- Node9&#45;&gt;Node11 -->
<g id="edge10" class="edge">
<title>Node9&#45;&gt;Node11</title>
<path fill="none" stroke="midnightblue" d="M400.06,-123.4C427.18,-113.6 463.51,-100.48 492.5,-90.02"/>
<polygon fill="midnightblue" stroke="midnightblue" points="493.8,-93.26 502.02,-86.58 491.42,-86.68 493.8,-93.26"/>
</g>
<!-- Node15 -->
<g id="node15" class="node">
<title>Node15</title>
<g id="a_node15"><a xlink:title=" ">
<polygon fill="none" stroke="#bfbfbf" points="192.5,-62 192.5,-81 251.5,-81 251.5,-62 192.5,-62"/>
<text text-anchor="middle" x="222" y="-69" font-family="Helvetica,sans-Serif" font-size="10.00">functional</text>
</a>
</g>
</g>
<!-- Node9&#45;&gt;Node15 -->
<g id="edge14" class="edge">
<title>Node9&#45;&gt;Node15</title>
<path fill="none" stroke="midnightblue" d="M330.84,-123.4C306.56,-112.04 272.72,-96.22 249.25,-85.24"/>
<polygon fill="midnightblue" stroke="midnightblue" points="250.73,-82.07 240.19,-81.01 247.77,-88.41 250.73,-82.07"/>
</g>
<!-- Node16 -->
<g id="node16" class="node">
<title>Node16</title>
<g id="a_node16"><a xlink:title=" ">
<polygon fill="none" stroke="#bfbfbf" points="269.5,-62 269.5,-81 318.5,-81 318.5,-62 269.5,-62"/>
<text text-anchor="middle" x="294" y="-69" font-family="Helvetica,sans-Serif" font-size="10.00">cassert</text>
</a>
</g>
</g>
<!-- Node9&#45;&gt;Node16 -->
<g id="edge15" class="edge">
<title>Node9&#45;&gt;Node16</title>
<path fill="none" stroke="midnightblue" d="M346.46,-123.4C335.81,-113.06 321.34,-99.02 310.3,-88.31"/>
<polygon fill="midnightblue" stroke="midnightblue" points="312.58,-85.65 302.96,-81.19 307.7,-90.67 312.58,-85.65"/>
</g>
<!-- Node9&#45;&gt;Node17 -->
<g id="edge16" class="edge">
<title>Node9&#45;&gt;Node17</title>
<path fill="none" stroke="midnightblue" d="M429.02,-124.67C503.21,-110.63 612.7,-89.74 622,-87 624.43,-86.28 626.93,-85.46 629.41,-84.59"/>
<polygon fill="midnightblue" stroke="midnightblue" points="630.7,-87.84 638.81,-81.02 628.22,-81.29 630.7,-87.84"/>
</g>
<!-- Node12 -->
<g id="node12" class="node">
<title>Node12</title>
<g id="a_node12"><a xlink:title=" ">
<polygon fill="none" stroke="#bfbfbf" points="428,-0.5 428,-19.5 490,-19.5 490,-0.5 428,-0.5"/>
<text text-anchor="middle" x="459" y="-7.5" font-family="Helvetica,sans-Serif" font-size="10.00">type_traits</text>
</a>
</g>
</g>
<!-- Node11&#45;&gt;Node12 -->
<g id="edge11" class="edge">
<title>Node11&#45;&gt;Node12</title>
<path fill="none" stroke="midnightblue" d="M521.57,-56.4C508.79,-47.13 492.11,-35.03 479.19,-25.65"/>
<polygon fill="midnightblue" stroke="midnightblue" points="481.08,-22.7 470.93,-19.66 476.97,-28.36 481.08,-22.7"/>
</g>
<!-- Node13 -->
<g id="node13" class="node">
<title>Node13</title>
<g id="a_node13"><a xlink:title=" ">
<polygon fill="none" stroke="#bfbfbf" points="508,-0.5 508,-19.5 574,-19.5 574,-0.5 508,-0.5"/>
<text text-anchor="middle" x="541" y="-7.5" font-family="Helvetica,sans-Serif" font-size="10.00">string_view</text>
</a>
</g>
</g>
<!-- Node11&#45;&gt;Node13 -->
<g id="edge12" class="edge">
<title>Node11&#45;&gt;Node13</title>
<path fill="none" stroke="midnightblue" d="M541,-56.4C541,-48.47 541,-38.46 541,-29.86"/>
<polygon fill="midnightblue" stroke="midnightblue" points="544.5,-29.66 541,-19.66 537.5,-29.66 544.5,-29.66"/>
</g>
<!-- Node14 -->
<g id="node14" class="node">
<title>Node14</title>
<g id="a_node14"><a xlink:title=" ">
<polygon fill="none" stroke="#bfbfbf" points="592.5,-0.5 592.5,-19.5 657.5,-19.5 657.5,-0.5 592.5,-0.5"/>
<text text-anchor="middle" x="625" y="-7.5" font-family="Helvetica,sans-Serif" font-size="10.00">Eigen/Core</text>
</a>
</g>
</g>
<!-- Node11&#45;&gt;Node14 -->
<g id="edge13" class="edge">
<title>Node11&#45;&gt;Node14</title>
<path fill="none" stroke="midnightblue" d="M560.91,-56.4C573.99,-47.13 591.08,-35.03 604.32,-25.65"/>
<polygon fill="midnightblue" stroke="midnightblue" points="606.64,-28.29 612.78,-19.66 602.59,-22.58 606.64,-28.29"/>
</g>
<!-- Node18&#45;&gt;Node7 -->
<g id="edge21" class="edge">
<title>Node18&#45;&gt;Node7</title>
<path fill="none" stroke="midnightblue" d="M223.05,-190.4C221.74,-180.96 220.01,-168.45 218.59,-158.19"/>
<polygon fill="midnightblue" stroke="midnightblue" points="222.04,-157.62 217.2,-148.19 215.11,-158.58 222.04,-157.62"/>
</g>
<!-- Node19 -->
<g id="node19" class="node">
<title>Node19</title>
<g id="a_node19"><a xlink:title=" ">
<polygon fill="none" stroke="#bfbfbf" points="106.5,-129 106.5,-148 177.5,-148 177.5,-129 106.5,-129"/>
<text text-anchor="middle" x="142" y="-136" font-family="Helvetica,sans-Serif" font-size="10.00">manif/SE3.h</text>
</a>
</g>
</g>
<!-- Node18&#45;&gt;Node19 -->
<g id="edge20" class="edge">
<title>Node18&#45;&gt;Node19</title>
<path fill="none" stroke="midnightblue" d="M206.99,-190.4C193.41,-179.76 174.82,-165.2 161,-154.38"/>
<polygon fill="midnightblue" stroke="midnightblue" points="163.13,-151.6 153.1,-148.19 158.82,-157.12 163.13,-151.6"/>
</g>
</g>
</svg>
