<?xml version="1.0" encoding="UTF-8" standalone="no"?>
<!DOCTYPE svg PUBLIC "-//W3C//DTD SVG 1.1//EN"
 "http://www.w3.org/Graphics/SVG/1.1/DTD/svg11.dtd">
<!-- Generated by graphviz version 2.43.0 (0)
 -->
<!-- Title: Planners/include/BipedalLocomotion/Planners/SO3Planner.tpp Pages: 1 -->
<svg width="280pt" height="173pt"
 viewBox="0.00 0.00 280.00 173.00" xmlns="http://www.w3.org/2000/svg" xmlns:xlink="http://www.w3.org/1999/xlink">
<g id="graph0" class="graph" transform="scale(1 1) rotate(0) translate(4 169)">
<title>Planners/include/BipedalLocomotion/Planners/SO3Planner.tpp</title>
<!-- Node1 -->
<g id="node1" class="node">
<title>Node1</title>
<g id="a_node1"><a xlink:title=" ">
<polygon fill="#bfbfbf" stroke="black" points="41.5,-134.5 41.5,-164.5 220.5,-164.5 220.5,-134.5 41.5,-134.5"/>
<text text-anchor="start" x="49.5" y="-152.5" font-family="Helvetica,sans-Serif" font-size="10.00">Planners/include/Bipedal</text>
<text text-anchor="middle" x="131" y="-141.5" font-family="Helvetica,sans-Serif" font-size="10.00">Locomotion/Planners/SO3Planner.tpp</text>
</a>
</g>
</g>
<!-- Node2 -->
<g id="node2" class="node">
<title>Node2</title>
<g id="a_node2"><a xlink:title=" ">
<polygon fill="none" stroke="#bfbfbf" points="0,-73 0,-92 54,-92 54,-73 0,-73"/>
<text text-anchor="middle" x="27" y="-80" font-family="Helvetica,sans-Serif" font-size="10.00">iostream</text>
</a>
</g>
</g>
<!-- Node1&#45;&gt;Node2 -->
<g id="edge1" class="edge">
<title>Node1&#45;&gt;Node2</title>
<path fill="none" stroke="midnightblue" d="M108.43,-134.4C90.99,-123.5 66.97,-108.48 49.53,-97.58"/>
<polygon fill="midnightblue" stroke="midnightblue" points="50.95,-94.34 40.61,-92.01 47.24,-100.28 50.95,-94.34"/>
</g>
<!-- Node3 -->
<g id="node3" class="node">
<title>Node3</title>
<g id="a_node3"><a xlink:title=" ">
<polygon fill="none" stroke="#bfbfbf" points="46.5,-6 46.5,-25 117.5,-25 117.5,-6 46.5,-6"/>
<text text-anchor="middle" x="82" y="-13" font-family="Helvetica,sans-Serif" font-size="10.00">manif/SO3.h</text>
</a>
</g>
</g>
<!-- Node1&#45;&gt;Node3 -->
<g id="edge2" class="edge">
<title>Node1&#45;&gt;Node3</title>
<path fill="none" stroke="midnightblue" d="M120.82,-134.1C114.32,-124.31 106.18,-110.87 101,-98 92.72,-77.41 87.55,-52.38 84.74,-35.53"/>
<polygon fill="midnightblue" stroke="midnightblue" points="88.15,-34.68 83.15,-25.33 81.23,-35.75 88.15,-34.68"/>
</g>
<!-- Node4 -->
<g id="node4" class="node">
<title>Node4</title>
<g id="a_node4"><a xlink:href="SO3Planner_8h.html" target="_top" xlink:title=" ">
<polygon fill="none" stroke="black" points="110,-67.5 110,-97.5 250,-97.5 250,-67.5 110,-67.5"/>
<text text-anchor="start" x="118" y="-85.5" font-family="Helvetica,sans-Serif" font-size="10.00">BipedalLocomotion/Planners</text>
<text text-anchor="middle" x="180" y="-74.5" font-family="Helvetica,sans-Serif" font-size="10.00">/SO3Planner.h</text>
</a>
</g>
</g>
<!-- Node1&#45;&gt;Node4 -->
<g id="edge3" class="edge">
<title>Node1&#45;&gt;Node4</title>
<path fill="none" stroke="midnightblue" d="M135.95,-134.4C141.26,-125.88 149.33,-114.85 157.21,-105.23"/>
<polygon fill="midnightblue" stroke="midnightblue" points="159.91,-107.46 163.71,-97.58 154.57,-102.93 159.91,-107.46"/>
</g>
<!-- Node4&#45;&gt;Node1 -->
<g id="edge6" class="edge">
<title>Node4&#45;&gt;Node1</title>
<path fill="none" stroke="midnightblue" d="M175.06,-97.58C169.77,-106.09 161.7,-117.12 153.82,-126.74"/>
<polygon fill="midnightblue" stroke="midnightblue" points="151.12,-124.51 147.31,-134.4 156.45,-129.04 151.12,-124.51"/>
</g>
<!-- Node4&#45;&gt;Node3 -->
<g id="edge4" class="edge">
<title>Node4&#45;&gt;Node3</title>
<path fill="none" stroke="midnightblue" d="M158.74,-67.4C142.3,-56.5 119.66,-41.48 103.23,-30.58"/>
<polygon fill="midnightblue" stroke="midnightblue" points="105.09,-27.62 94.83,-25.01 101.22,-33.45 105.09,-27.62"/>
</g>
<!-- Node5 -->
<g id="node5" class="node">
<title>Node5</title>
<g id="a_node5"><a xlink:href="Advanceable_8h.html" target="_top" xlink:title=" ">
<polygon fill="none" stroke="black" points="136,-0.5 136,-30.5 272,-30.5 272,-0.5 136,-0.5"/>
<text text-anchor="start" x="144" y="-18.5" font-family="Helvetica,sans-Serif" font-size="10.00">BipedalLocomotion/System</text>
<text text-anchor="middle" x="204" y="-7.5" font-family="Helvetica,sans-Serif" font-size="10.00">/Advanceable.h</text>
</a>
</g>
</g>
<!-- Node4&#45;&gt;Node5 -->
<g id="edge5" class="edge">
<title>Node4&#45;&gt;Node5</title>
<path fill="none" stroke="midnightblue" d="M185.21,-67.4C188.16,-59.39 191.94,-49.16 195.33,-39.98"/>
<polygon fill="midnightblue" stroke="midnightblue" points="198.62,-41.17 198.8,-30.58 192.06,-38.75 198.62,-41.17"/>
</g>
</g>
</svg>
