<?xml version="1.0" encoding="UTF-8" standalone="no"?>
<!DOCTYPE svg PUBLIC "-//W3C//DTD SVG 1.1//EN"
 "http://www.w3.org/Graphics/SVG/1.1/DTD/svg11.dtd">
<!-- Generated by graphviz version 2.43.0 (0)
 -->
<!-- Title: Planners/include/BipedalLocomotion/Planners/SO3Planner.h Pages: 1 -->
<svg width="317pt" height="162pt"
 viewBox="0.00 0.00 316.67 162.00" xmlns="http://www.w3.org/2000/svg" xmlns:xlink="http://www.w3.org/1999/xlink">
<g id="graph0" class="graph" transform="scale(1 1) rotate(0) translate(4 158)">
<title>Planners/include/BipedalLocomotion/Planners/SO3Planner.h</title>
<!-- Node1 -->
<g id="node1" class="node">
<title>Node1</title>
<g id="a_node1"><a xlink:title=" ">
<polygon fill="#bfbfbf" stroke="black" points="75.17,-123.5 75.17,-153.5 246.17,-153.5 246.17,-123.5 75.17,-123.5"/>
<text text-anchor="start" x="83.17" y="-141.5" font-family="Helvetica,sans-Serif" font-size="10.00">Planners/include/Bipedal</text>
<text text-anchor="middle" x="160.67" y="-130.5" font-family="Helvetica,sans-Serif" font-size="10.00">Locomotion/Planners/SO3Planner.h</text>
</a>
</g>
</g>
<!-- Node2 -->
<g id="node2" class="node">
<title>Node2</title>
<g id="a_node2"><a xlink:title=" ">
<polygon fill="none" stroke="#bfbfbf" points="37.17,-0.5 37.17,-19.5 108.17,-19.5 108.17,-0.5 37.17,-0.5"/>
<text text-anchor="middle" x="72.67" y="-7.5" font-family="Helvetica,sans-Serif" font-size="10.00">manif/SO3.h</text>
</a>
</g>
</g>
<!-- Node1&#45;&gt;Node2 -->
<g id="edge1" class="edge">
<title>Node1&#45;&gt;Node2</title>
<path fill="none" stroke="midnightblue" d="M75.04,-129.19C48.49,-122.11 21.96,-109.45 5.67,-87 -2.43,-75.85 -0.81,-68.16 5.67,-56 13.22,-41.83 27.43,-31.33 40.83,-24.06"/>
<polygon fill="midnightblue" stroke="midnightblue" points="42.5,-27.13 49.88,-19.53 39.37,-20.87 42.5,-27.13"/>
</g>
<!-- Node3 -->
<g id="node3" class="node">
<title>Node3</title>
<g id="a_node3"><a xlink:href="Advanceable_8h.html" target="_top" xlink:title=" ">
<polygon fill="none" stroke="black" points="14.67,-56.5 14.67,-86.5 150.67,-86.5 150.67,-56.5 14.67,-56.5"/>
<text text-anchor="start" x="22.67" y="-74.5" font-family="Helvetica,sans-Serif" font-size="10.00">BipedalLocomotion/System</text>
<text text-anchor="middle" x="82.67" y="-63.5" font-family="Helvetica,sans-Serif" font-size="10.00">/Advanceable.h</text>
</a>
</g>
</g>
<!-- Node1&#45;&gt;Node3 -->
<g id="edge2" class="edge">
<title>Node1&#45;&gt;Node3</title>
<path fill="none" stroke="midnightblue" d="M143.74,-123.4C133.11,-114.54 119.22,-102.96 107.37,-93.09"/>
<polygon fill="midnightblue" stroke="midnightblue" points="109.48,-90.29 99.56,-86.58 105,-95.67 109.48,-90.29"/>
</g>
<!-- Node4 -->
<g id="node4" class="node">
<title>Node4</title>
<g id="a_node4"><a xlink:href="SO3Planner_8tpp.html" target="_top" xlink:title=" ">
<polygon fill="none" stroke="black" points="168.67,-56.5 168.67,-86.5 308.67,-86.5 308.67,-56.5 168.67,-56.5"/>
<text text-anchor="start" x="176.67" y="-74.5" font-family="Helvetica,sans-Serif" font-size="10.00">BipedalLocomotion/Planners</text>
<text text-anchor="middle" x="238.67" y="-63.5" font-family="Helvetica,sans-Serif" font-size="10.00">/SO3Planner.tpp</text>
</a>
</g>
</g>
<!-- Node1&#45;&gt;Node4 -->
<g id="edge3" class="edge">
<title>Node1&#45;&gt;Node4</title>
<path fill="none" stroke="midnightblue" d="M171.91,-123.4C181.47,-114.45 195.32,-102.74 208,-92.8"/>
<polygon fill="midnightblue" stroke="midnightblue" points="210.3,-95.44 216.1,-86.58 206.04,-89.89 210.3,-95.44"/>
</g>
<!-- Node4&#45;&gt;Node1 -->
<g id="edge6" class="edge">
<title>Node4&#45;&gt;Node1</title>
<path fill="none" stroke="midnightblue" d="M227.45,-86.58C217.9,-95.51 204.05,-107.23 191.38,-117.17"/>
<polygon fill="midnightblue" stroke="midnightblue" points="189.07,-114.53 183.27,-123.4 193.33,-120.08 189.07,-114.53"/>
</g>
<!-- Node4&#45;&gt;Node2 -->
<g id="edge5" class="edge">
<title>Node4&#45;&gt;Node2</title>
<path fill="none" stroke="midnightblue" d="M199.33,-56.4C171.1,-46.28 133.46,-32.79 106.56,-23.15"/>
<polygon fill="midnightblue" stroke="midnightblue" points="107.42,-19.74 96.82,-19.66 105.05,-26.33 107.42,-19.74"/>
</g>
<!-- Node5 -->
<g id="node5" class="node">
<title>Node5</title>
<g id="a_node5"><a xlink:title=" ">
<polygon fill="none" stroke="#bfbfbf" points="211.67,-0.5 211.67,-19.5 265.67,-19.5 265.67,-0.5 211.67,-0.5"/>
<text text-anchor="middle" x="238.67" y="-7.5" font-family="Helvetica,sans-Serif" font-size="10.00">iostream</text>
</a>
</g>
</g>
<!-- Node4&#45;&gt;Node5 -->
<g id="edge4" class="edge">
<title>Node4&#45;&gt;Node5</title>
<path fill="none" stroke="midnightblue" d="M238.67,-56.4C238.67,-48.47 238.67,-38.46 238.67,-29.86"/>
<polygon fill="midnightblue" stroke="midnightblue" points="242.17,-29.66 238.67,-19.66 235.17,-29.66 242.17,-29.66"/>
</g>
</g>
</svg>
