<?xml version="1.0" encoding="UTF-8" standalone="no"?>
<!DOCTYPE svg PUBLIC "-//W3C//DTD SVG 1.1//EN"
 "http://www.w3.org/Graphics/SVG/1.1/DTD/svg11.dtd">
<!-- Generated by graphviz version 2.43.0 (0)
 -->
<!-- Title: IK/src/SO3Task.cpp Pages: 1 -->
<!--zoomable 419 -->
<svg id="main" version="1.1" xmlns="http://www.w3.org/2000/svg" xmlns:xlink="http://www.w3.org/1999/xlink" xml:space="preserve" onload="init(evt)">
<style type="text/css"><![CDATA[
.edge:hover path { stroke: red; }
.edge:hover polygon { stroke: red; fill: red; }
]]></style>
<script type="text/javascript"><![CDATA[
var edges = document.getElementsByTagName('g');
if (edges && edges.length) {
  for (var i=0;i<edges.length;i++) {
    if (edges[i].id.substr(0,4)=='edge') {
      edges[i].setAttribute('class','edge');
    }
  }
}
]]></script>
        <defs>
                <circle id="rim" cx="0" cy="0" r="7"/>
                <circle id="rim2" cx="0" cy="0" r="3.5"/>
                <g id="zoomPlus">
                        <use xlink:href="#rim" fill="#404040">
                                <set attributeName="fill" to="#808080" begin="zoomplus.mouseover" end="zoomplus.mouseout"/>
                        </use>
                        <path d="M-4,0h8M0,-4v8" fill="none" stroke="white" stroke-width="1.5" pointer-events="none"/>
                </g>
                <g id="zoomMin">
                        <use xlink:href="#rim" fill="#404040">
                                <set attributeName="fill" to="#808080" begin="zoomminus.mouseover" end="zoomminus.mouseout"/>
                        </use>
                        <path d="M-4,0h8" fill="none" stroke="white" stroke-width="1.5" pointer-events="none"/>
                </g>
                <g id="dirArrow">
                        <path fill="none" stroke="white" stroke-width="1.5" d="M0,-3.0v7 M-2.5,-0.5L0,-3.0L2.5,-0.5"/>
                </g>
               <g id="resetDef">
                       <use xlink:href="#rim2" fill="#404040">
                               <set attributeName="fill" to="#808080" begin="reset.mouseover" end="reset.mouseout"/>
                       </use>
               </g>
        </defs>

<script type="text/javascript">
var viewWidth = 1566;
var viewHeight = 419;
var sectionId = 'dynsection-0';
</script>
<script xlink:href="svgpan.js"/>
<svg id="graph" class="graph">
<g id="viewport">
<title>IK/src/SO3Task.cpp</title>
<!-- Node1 -->
<g id="node1" class="node">
<title>Node1</title>
<g id="a_node1"><a xlink:title=" ">
<polygon fill="#bfbfbf" stroke="black" points="424.5,-391.5 424.5,-410.5 529.5,-410.5 529.5,-391.5 424.5,-391.5"/>
<text text-anchor="middle" x="477" y="-398.5" font-family="Helvetica,sans-Serif" font-size="10.00">IK/src/SO3Task.cpp</text>
</a>
</g>
</g>
<!-- Node2 -->
<g id="node2" class="node">
<title>Node2</title>
<g id="a_node2"><a xlink:href="ManifConversions_8h.html" target="_top" xlink:title=" ">
<polygon fill="none" stroke="black" points="201.5,-324.5 201.5,-354.5 358.5,-354.5 358.5,-324.5 201.5,-324.5"/>
<text text-anchor="start" x="209.5" y="-342.5" font-family="Helvetica,sans-Serif" font-size="10.00">BipedalLocomotion/Conversions</text>
<text text-anchor="middle" x="280" y="-331.5" font-family="Helvetica,sans-Serif" font-size="10.00">/ManifConversions.h</text>
</a>
</g>
</g>
<!-- Node1&#45;&gt;Node2 -->
<g id="edge1" class="edge">
<title>Node1&#45;&gt;Node2</title>
<path fill="none" stroke="midnightblue" d="M448.77,-391.48C419.48,-382.63 372.87,-368.55 336.05,-357.43"/>
<polygon fill="midnightblue" stroke="midnightblue" points="337.01,-354.06 326.43,-354.52 334.99,-360.76 337.01,-354.06"/>
</g>
<!-- Node4 -->
<g id="node4" class="node">
<title>Node4</title>
<g id="a_node4"><a xlink:title=" ">
<polygon fill="none" stroke="#bfbfbf" points="0,-263 0,-282 150,-282 150,-263 0,-263"/>
<text text-anchor="middle" x="75" y="-270" font-family="Helvetica,sans-Serif" font-size="10.00">iDynTree/Core/EigenHelpers.h</text>
</a>
</g>
</g>
<!-- Node1&#45;&gt;Node4 -->
<g id="edge34" class="edge">
<title>Node1&#45;&gt;Node4</title>
<path fill="none" stroke="midnightblue" d="M424.43,-398.72C365.78,-395.71 269.03,-385.99 192,-355 152.46,-339.09 113.19,-307.73 91.71,-288.88"/>
<polygon fill="midnightblue" stroke="midnightblue" points="93.92,-286.17 84.14,-282.11 89.25,-291.38 93.92,-286.17"/>
</g>
<!-- Node6 -->
<g id="node6" class="node">
<title>Node6</title>
<g id="a_node6"><a xlink:href="SO3Task_8h.html" target="_top" xlink:title=" ">
<polygon fill="none" stroke="black" points="421,-324.5 421,-354.5 533,-354.5 533,-324.5 421,-324.5"/>
<text text-anchor="start" x="429" y="-342.5" font-family="Helvetica,sans-Serif" font-size="10.00">BipedalLocomotion/IK</text>
<text text-anchor="middle" x="477" y="-331.5" font-family="Helvetica,sans-Serif" font-size="10.00">/SO3Task.h</text>
</a>
</g>
</g>
<!-- Node1&#45;&gt;Node6 -->
<g id="edge5" class="edge">
<title>Node1&#45;&gt;Node6</title>
<path fill="none" stroke="midnightblue" d="M477,-391.48C477,-384.47 477,-374.19 477,-364.7"/>
<polygon fill="midnightblue" stroke="midnightblue" points="480.5,-364.52 477,-354.52 473.5,-364.52 480.5,-364.52"/>
</g>
<!-- Node27 -->
<g id="node27" class="node">
<title>Node27</title>
<g id="a_node27"><a xlink:href="Logger_8h.html" target="_top" xlink:title=" ">
<polygon fill="none" stroke="black" points="551.5,-324.5 551.5,-354.5 706.5,-354.5 706.5,-324.5 551.5,-324.5"/>
<text text-anchor="start" x="559.5" y="-342.5" font-family="Helvetica,sans-Serif" font-size="10.00">BipedalLocomotion/TextLogging</text>
<text text-anchor="middle" x="629" y="-331.5" font-family="Helvetica,sans-Serif" font-size="10.00">/Logger.h</text>
</a>
</g>
</g>
<!-- Node1&#45;&gt;Node27 -->
<g id="edge32" class="edge">
<title>Node1&#45;&gt;Node27</title>
<path fill="none" stroke="midnightblue" d="M498.78,-391.48C520.81,-382.85 555.52,-369.26 583.57,-358.29"/>
<polygon fill="midnightblue" stroke="midnightblue" points="585.14,-361.43 593.18,-354.52 582.59,-354.91 585.14,-361.43"/>
</g>
<!-- Node29 -->
<g id="node29" class="node">
<title>Node29</title>
<g id="a_node29"><a xlink:title=" ">
<polygon fill="none" stroke="#bfbfbf" points="724.5,-330 724.5,-349 847.5,-349 847.5,-330 724.5,-330"/>
<text text-anchor="middle" x="786" y="-337" font-family="Helvetica,sans-Serif" font-size="10.00">iDynTree/Model/Model.h</text>
</a>
</g>
</g>
<!-- Node1&#45;&gt;Node29 -->
<g id="edge35" class="edge">
<title>Node1&#45;&gt;Node29</title>
<path fill="none" stroke="midnightblue" d="M523.11,-391.49C571.08,-382.58 648.36,-368.1 715,-355 721.32,-353.76 727.95,-352.43 734.51,-351.11"/>
<polygon fill="midnightblue" stroke="midnightblue" points="735.62,-354.45 744.72,-349.04 734.23,-347.59 735.62,-354.45"/>
</g>
<!-- Node3 -->
<g id="node3" class="node">
<title>Node3</title>
<g id="a_node3"><a xlink:title=" ">
<polygon fill="none" stroke="#bfbfbf" points="168,-263 168,-282 304,-282 304,-263 168,-263"/>
<text text-anchor="middle" x="236" y="-270" font-family="Helvetica,sans-Serif" font-size="10.00">iDynTree/Core/Transform.h</text>
</a>
</g>
</g>
<!-- Node2&#45;&gt;Node3 -->
<g id="edge2" class="edge">
<title>Node2&#45;&gt;Node3</title>
<path fill="none" stroke="midnightblue" d="M270.45,-324.4C263.73,-314.46 254.69,-301.11 247.56,-290.57"/>
<polygon fill="midnightblue" stroke="midnightblue" points="250.39,-288.51 241.89,-282.19 244.59,-292.44 250.39,-288.51"/>
</g>
<!-- Node2&#45;&gt;Node4 -->
<g id="edge3" class="edge">
<title>Node2&#45;&gt;Node4</title>
<path fill="none" stroke="midnightblue" d="M235.77,-324.48C198.7,-312.72 146.41,-296.14 111.65,-285.12"/>
<polygon fill="midnightblue" stroke="midnightblue" points="112.49,-281.71 101.9,-282.03 110.37,-288.39 112.49,-281.71"/>
</g>
<!-- Node5 -->
<g id="node5" class="node">
<title>Node5</title>
<g id="a_node5"><a xlink:title=" ">
<polygon fill="none" stroke="#bfbfbf" points="322,-263 322,-282 398,-282 398,-263 322,-263"/>
<text text-anchor="middle" x="360" y="-270" font-family="Helvetica,sans-Serif" font-size="10.00">manif/manif.h</text>
</a>
</g>
</g>
<!-- Node2&#45;&gt;Node5 -->
<g id="edge4" class="edge">
<title>Node2&#45;&gt;Node5</title>
<path fill="none" stroke="midnightblue" d="M297.36,-324.4C310.33,-313.86 328.03,-299.48 341.31,-288.69"/>
<polygon fill="midnightblue" stroke="midnightblue" points="343.74,-291.22 349.3,-282.19 339.33,-285.78 343.74,-291.22"/>
</g>
<!-- Node6&#45;&gt;Node5 -->
<g id="edge7" class="edge">
<title>Node6&#45;&gt;Node5</title>
<path fill="none" stroke="midnightblue" d="M451.61,-324.4C431.63,-313.29 403.96,-297.92 384.27,-286.98"/>
<polygon fill="midnightblue" stroke="midnightblue" points="385.75,-283.8 375.31,-282.01 382.35,-289.92 385.75,-283.8"/>
</g>
<!-- Node7 -->
<g id="node7" class="node">
<title>Node7</title>
<g id="a_node7"><a xlink:title=" ">
<polygon fill="none" stroke="#bfbfbf" points="950,-62 950,-81 1002,-81 1002,-62 950,-62"/>
<text text-anchor="middle" x="976" y="-69" font-family="Helvetica,sans-Serif" font-size="10.00">memory</text>
</a>
</g>
</g>
<!-- Node6&#45;&gt;Node7 -->
<g id="edge6" class="edge">
<title>Node6&#45;&gt;Node7</title>
<path fill="none" stroke="midnightblue" d="M503.11,-324.31C517.39,-315.45 534.46,-302.91 546,-288 574.7,-250.93 550.45,-221.68 585,-190 687.83,-95.73 863.66,-76.96 939.46,-73.32"/>
<polygon fill="midnightblue" stroke="midnightblue" points="940.05,-76.8 949.9,-72.89 939.76,-69.81 940.05,-76.8"/>
</g>
<!-- Node8 -->
<g id="node8" class="node">
<title>Node8</title>
<g id="a_node8"><a xlink:href="LinearTask_8h.html" target="_top" xlink:title=" ">
<polygon fill="none" stroke="black" points="783,-257.5 783,-287.5 895,-287.5 895,-257.5 783,-257.5"/>
<text text-anchor="start" x="791" y="-275.5" font-family="Helvetica,sans-Serif" font-size="10.00">BipedalLocomotion/IK</text>
<text text-anchor="middle" x="839" y="-264.5" font-family="Helvetica,sans-Serif" font-size="10.00">/LinearTask.h</text>
</a>
</g>
</g>
<!-- Node6&#45;&gt;Node8 -->
<g id="edge8" class="edge">
<title>Node6&#45;&gt;Node8</title>
<path fill="none" stroke="midnightblue" d="M533.33,-325.75C536.26,-325.14 539.16,-324.56 542,-324 620.96,-308.49 712.28,-293.38 772.59,-283.8"/>
<polygon fill="midnightblue" stroke="midnightblue" points="773.41,-287.21 782.74,-282.19 772.31,-280.3 773.41,-287.21"/>
</g>
<!-- Node26 -->
<g id="node26" class="node">
<title>Node26</title>
<g id="a_node26"><a xlink:title=" ">
<polygon fill="none" stroke="#bfbfbf" points="416.5,-257.5 416.5,-287.5 537.5,-287.5 537.5,-257.5 416.5,-257.5"/>
<text text-anchor="start" x="424.5" y="-275.5" font-family="Helvetica,sans-Serif" font-size="10.00">LieGroupControllers</text>
<text text-anchor="middle" x="477" y="-264.5" font-family="Helvetica,sans-Serif" font-size="10.00">/ProportionalController.h</text>
</a>
</g>
</g>
<!-- Node6&#45;&gt;Node26 -->
<g id="edge31" class="edge">
<title>Node6&#45;&gt;Node26</title>
<path fill="none" stroke="midnightblue" d="M477,-324.4C477,-316.64 477,-306.81 477,-297.86"/>
<polygon fill="midnightblue" stroke="midnightblue" points="480.5,-297.58 477,-287.58 473.5,-297.58 480.5,-297.58"/>
</g>
<!-- Node8&#45;&gt;Node7 -->
<g id="edge9" class="edge">
<title>Node8&#45;&gt;Node7</title>
<path fill="none" stroke="midnightblue" d="M895.14,-258.65C942.84,-247.17 1004.73,-230.7 1012,-221 1042.01,-180.97 1008.27,-119.33 988.42,-89.64"/>
<polygon fill="midnightblue" stroke="midnightblue" points="991.13,-87.42 982.56,-81.19 985.38,-91.4 991.13,-87.42"/>
</g>
<!-- Node9 -->
<g id="node9" class="node">
<title>Node9</title>
<g id="a_node9"><a xlink:title=" ">
<polygon fill="none" stroke="#bfbfbf" points="594.5,-196 594.5,-215 667.5,-215 667.5,-196 594.5,-196"/>
<text text-anchor="middle" x="631" y="-203" font-family="Helvetica,sans-Serif" font-size="10.00">Eigen/Dense</text>
</a>
</g>
</g>
<!-- Node8&#45;&gt;Node9 -->
<g id="edge10" class="edge">
<title>Node8&#45;&gt;Node9</title>
<path fill="none" stroke="midnightblue" d="M793.29,-257.49C760.59,-247.43 715.55,-233.5 676,-221 673.21,-220.12 670.33,-219.2 667.43,-218.28"/>
<polygon fill="midnightblue" stroke="midnightblue" points="668.23,-214.86 657.63,-215.14 666.09,-221.52 668.23,-214.86"/>
</g>
<!-- Node10 -->
<g id="node10" class="node">
<title>Node10</title>
<g id="a_node10"><a xlink:title=" ">
<polygon fill="none" stroke="#bfbfbf" points="685.5,-196 685.5,-215 824.5,-215 824.5,-196 685.5,-196"/>
<text text-anchor="middle" x="755" y="-203" font-family="Helvetica,sans-Serif" font-size="10.00">iDynTree/Core/MatrixView.h</text>
</a>
</g>
</g>
<!-- Node8&#45;&gt;Node10 -->
<g id="edge11" class="edge">
<title>Node8&#45;&gt;Node10</title>
<path fill="none" stroke="midnightblue" d="M820.77,-257.4C807.03,-246.76 788.22,-232.2 774.23,-221.38"/>
<polygon fill="midnightblue" stroke="midnightblue" points="776.29,-218.55 766.24,-215.19 772,-224.08 776.29,-218.55"/>
</g>
<!-- Node11 -->
<g id="node11" class="node">
<title>Node11</title>
<g id="a_node11"><a xlink:title=" ">
<polygon fill="none" stroke="#bfbfbf" points="842.5,-196 842.5,-215 1003.5,-215 1003.5,-196 842.5,-196"/>
<text text-anchor="middle" x="923" y="-203" font-family="Helvetica,sans-Serif" font-size="10.00">iDynTree/KinDynComputations.h</text>
</a>
</g>
</g>
<!-- Node8&#45;&gt;Node11 -->
<g id="edge12" class="edge">
<title>Node8&#45;&gt;Node11</title>
<path fill="none" stroke="midnightblue" d="M857.23,-257.4C870.97,-246.76 889.78,-232.2 903.77,-221.38"/>
<polygon fill="midnightblue" stroke="midnightblue" points="906,-224.08 911.76,-215.19 901.71,-218.55 906,-224.08"/>
</g>
<!-- Node12 -->
<g id="node12" class="node">
<title>Node12</title>
<g id="a_node12"><a xlink:href="IParametersHandler_8h.html" target="_top" xlink:title=" ">
<polygon fill="none" stroke="black" points="1113,-190.5 1113,-220.5 1265,-220.5 1265,-190.5 1113,-190.5"/>
<text text-anchor="start" x="1121" y="-208.5" font-family="Helvetica,sans-Serif" font-size="10.00">BipedalLocomotion/Parameters</text>
<text text-anchor="middle" x="1189" y="-197.5" font-family="Helvetica,sans-Serif" font-size="10.00">Handler/IParametersHandler.h</text>
</a>
</g>
</g>
<!-- Node8&#45;&gt;Node12 -->
<g id="edge13" class="edge">
<title>Node8&#45;&gt;Node12</title>
<path fill="none" stroke="midnightblue" d="M895.34,-258.77C898.26,-258.16 901.17,-257.57 904,-257 970.59,-243.68 1046.29,-230.35 1102.93,-220.73"/>
<polygon fill="midnightblue" stroke="midnightblue" points="1103.65,-224.16 1112.92,-219.04 1102.48,-217.26 1103.65,-224.16"/>
</g>
<!-- Node24 -->
<g id="node24" class="node">
<title>Node24</title>
<g id="a_node24"><a xlink:href="VariablesHandler_8h.html" target="_top" xlink:title=" ">
<polygon fill="none" stroke="black" points="1305,-190.5 1305,-220.5 1441,-220.5 1441,-190.5 1305,-190.5"/>
<text text-anchor="start" x="1313" y="-208.5" font-family="Helvetica,sans-Serif" font-size="10.00">BipedalLocomotion/System</text>
<text text-anchor="middle" x="1373" y="-197.5" font-family="Helvetica,sans-Serif" font-size="10.00">/VariablesHandler.h</text>
</a>
</g>
</g>
<!-- Node8&#45;&gt;Node24 -->
<g id="edge28" class="edge">
<title>Node8&#45;&gt;Node24</title>
<path fill="none" stroke="midnightblue" d="M895.29,-258.5C898.23,-257.96 901.15,-257.46 904,-257 1067.16,-230.96 1109.99,-240.98 1274,-221 1280.72,-220.18 1287.69,-219.28 1294.67,-218.33"/>
<polygon fill="midnightblue" stroke="midnightblue" points="1295.46,-221.75 1304.89,-216.92 1294.51,-214.82 1295.46,-221.75"/>
</g>
<!-- Node12&#45;&gt;Node7 -->
<g id="edge14" class="edge">
<title>Node12&#45;&gt;Node7</title>
<path fill="none" stroke="midnightblue" d="M1158.13,-190.46C1138.02,-180.94 1111.44,-167.64 1089,-154 1088.7,-153.82 1028.88,-110.66 996.41,-87.23"/>
<polygon fill="midnightblue" stroke="midnightblue" points="998.21,-84.21 988.05,-81.2 994.11,-89.89 998.21,-84.21"/>
</g>
<!-- Node13 -->
<g id="node13" class="node">
<title>Node13</title>
<g id="a_node13"><a xlink:title=" ">
<polygon fill="none" stroke="#bfbfbf" points="1352.5,-129 1352.5,-148 1393.5,-148 1393.5,-129 1352.5,-129"/>
<text text-anchor="middle" x="1373" y="-136" font-family="Helvetica,sans-Serif" font-size="10.00">string</text>
</a>
</g>
</g>
<!-- Node12&#45;&gt;Node13 -->
<g id="edge15" class="edge">
<title>Node12&#45;&gt;Node13</title>
<path fill="none" stroke="midnightblue" d="M1232.95,-190.45C1262.77,-180.71 1302.98,-167.17 1338,-154 1339.85,-153.31 1341.74,-152.57 1343.65,-151.83"/>
<polygon fill="midnightblue" stroke="midnightblue" points="1345.14,-155 1353.1,-148.01 1342.52,-148.51 1345.14,-155"/>
</g>
<!-- Node14 -->
<g id="node14" class="node">
<title>Node14</title>
<g id="a_node14"><a xlink:title=" ">
<polygon fill="none" stroke="#bfbfbf" points="1252,-129 1252,-148 1296,-148 1296,-129 1252,-129"/>
<text text-anchor="middle" x="1274" y="-136" font-family="Helvetica,sans-Serif" font-size="10.00">vector</text>
</a>
</g>
</g>
<!-- Node12&#45;&gt;Node14 -->
<g id="edge16" class="edge">
<title>Node12&#45;&gt;Node14</title>
<path fill="none" stroke="midnightblue" d="M1207.44,-190.4C1221.35,-179.76 1240.39,-165.2 1254.54,-154.38"/>
<polygon fill="midnightblue" stroke="midnightblue" points="1256.81,-157.05 1262.63,-148.19 1252.56,-151.49 1256.81,-157.05"/>
</g>
<!-- Node15 -->
<g id="node15" class="node">
<title>Node15</title>
<g id="a_node15"><a xlink:href="Vector_8h_source.html" target="_top" xlink:title=" ">
<polygon fill="none" stroke="black" points="1098,-123.5 1098,-153.5 1234,-153.5 1234,-123.5 1098,-123.5"/>
<text text-anchor="start" x="1106" y="-141.5" font-family="Helvetica,sans-Serif" font-size="10.00">BipedalLocomotion/Generic</text>
<text text-anchor="middle" x="1166" y="-130.5" font-family="Helvetica,sans-Serif" font-size="10.00">Container/Vector.h</text>
</a>
</g>
</g>
<!-- Node12&#45;&gt;Node15 -->
<g id="edge17" class="edge">
<title>Node12&#45;&gt;Node15</title>
<path fill="none" stroke="midnightblue" d="M1184.01,-190.4C1181.21,-182.47 1177.63,-172.38 1174.41,-163.27"/>
<polygon fill="midnightblue" stroke="midnightblue" points="1177.62,-161.84 1170.98,-153.58 1171.02,-164.17 1177.62,-161.84"/>
</g>
<!-- Node17 -->
<g id="node17" class="node">
<title>Node17</title>
<g id="a_node17"><a xlink:href="TemplateHelpers_8h_source.html" target="_top" xlink:title=" ">
<polygon fill="none" stroke="black" points="1369.5,-56.5 1369.5,-86.5 1512.5,-86.5 1512.5,-56.5 1369.5,-56.5"/>
<text text-anchor="start" x="1377.5" y="-74.5" font-family="Helvetica,sans-Serif" font-size="10.00">BipedalLocomotion/Generic</text>
<text text-anchor="middle" x="1441" y="-63.5" font-family="Helvetica,sans-Serif" font-size="10.00">Container/TemplateHelpers.h</text>
</a>
</g>
</g>
<!-- Node12&#45;&gt;Node17 -->
<g id="edge27" class="edge">
<title>Node12&#45;&gt;Node17</title>
<path fill="none" stroke="midnightblue" d="M1228.12,-190.43C1251.22,-181.4 1280.62,-168.65 1305,-154 1323.98,-142.6 1325.43,-135.06 1344,-123 1362.17,-111.2 1383.42,-99.89 1401.38,-90.97"/>
<polygon fill="midnightblue" stroke="midnightblue" points="1403,-94.08 1410.45,-86.54 1399.93,-87.79 1403,-94.08"/>
</g>
<!-- Node15&#45;&gt;Node7 -->
<g id="edge26" class="edge">
<title>Node15&#45;&gt;Node7</title>
<path fill="none" stroke="midnightblue" d="M1120.58,-123.47C1089.77,-113.75 1048.21,-100.21 1012,-87 1010.1,-86.31 1008.15,-85.58 1006.19,-84.83"/>
<polygon fill="midnightblue" stroke="midnightblue" points="1007.06,-81.41 996.47,-81.02 1004.5,-87.93 1007.06,-81.41"/>
</g>
<!-- Node16 -->
<g id="node16" class="node">
<title>Node16</title>
<g id="a_node16"><a xlink:title=" ">
<polygon fill="none" stroke="#bfbfbf" points="1160,-62 1160,-81 1274,-81 1274,-62 1160,-62"/>
<text text-anchor="middle" x="1217" y="-69" font-family="Helvetica,sans-Serif" font-size="10.00">iDynTree/Core/Span.h</text>
</a>
</g>
</g>
<!-- Node15&#45;&gt;Node16 -->
<g id="edge18" class="edge">
<title>Node15&#45;&gt;Node16</title>
<path fill="none" stroke="midnightblue" d="M1177.07,-123.4C1184.94,-113.36 1195.55,-99.84 1203.85,-89.25"/>
<polygon fill="midnightblue" stroke="midnightblue" points="1206.76,-91.22 1210.18,-81.19 1201.25,-86.9 1206.76,-91.22"/>
</g>
<!-- Node15&#45;&gt;Node17 -->
<g id="edge19" class="edge">
<title>Node15&#45;&gt;Node17</title>
<path fill="none" stroke="midnightblue" d="M1225.33,-123.48C1268.2,-113.34 1326.24,-99.63 1371.31,-88.97"/>
<polygon fill="midnightblue" stroke="midnightblue" points="1372.37,-92.32 1381.3,-86.61 1370.76,-85.51 1372.37,-92.32"/>
</g>
<!-- Node21 -->
<g id="node21" class="node">
<title>Node21</title>
<g id="a_node21"><a xlink:title=" ">
<polygon fill="none" stroke="#bfbfbf" points="1292.5,-62 1292.5,-81 1351.5,-81 1351.5,-62 1292.5,-62"/>
<text text-anchor="middle" x="1322" y="-69" font-family="Helvetica,sans-Serif" font-size="10.00">functional</text>
</a>
</g>
</g>
<!-- Node15&#45;&gt;Node21 -->
<g id="edge23" class="edge">
<title>Node15&#45;&gt;Node21</title>
<path fill="none" stroke="midnightblue" d="M1199.85,-123.4C1227.34,-111.94 1265.75,-95.94 1292.11,-84.95"/>
<polygon fill="midnightblue" stroke="midnightblue" points="1293.7,-88.08 1301.58,-81.01 1291.01,-81.62 1293.7,-88.08"/>
</g>
<!-- Node22 -->
<g id="node22" class="node">
<title>Node22</title>
<g id="a_node22"><a xlink:title=" ">
<polygon fill="none" stroke="#bfbfbf" points="1020.5,-62 1020.5,-81 1069.5,-81 1069.5,-62 1020.5,-62"/>
<text text-anchor="middle" x="1045" y="-69" font-family="Helvetica,sans-Serif" font-size="10.00">cassert</text>
</a>
</g>
</g>
<!-- Node15&#45;&gt;Node22 -->
<g id="edge24" class="edge">
<title>Node15&#45;&gt;Node22</title>
<path fill="none" stroke="midnightblue" d="M1139.74,-123.4C1118.98,-112.24 1090.2,-96.78 1069.82,-85.83"/>
<polygon fill="midnightblue" stroke="midnightblue" points="1071.3,-82.66 1060.84,-81.01 1067.99,-88.82 1071.3,-82.66"/>
</g>
<!-- Node23 -->
<g id="node23" class="node">
<title>Node23</title>
<g id="a_node23"><a xlink:title=" ">
<polygon fill="none" stroke="#bfbfbf" points="1088,-62 1088,-81 1142,-81 1142,-62 1088,-62"/>
<text text-anchor="middle" x="1115" y="-69" font-family="Helvetica,sans-Serif" font-size="10.00">iostream</text>
</a>
</g>
</g>
<!-- Node15&#45;&gt;Node23 -->
<g id="edge25" class="edge">
<title>Node15&#45;&gt;Node23</title>
<path fill="none" stroke="midnightblue" d="M1154.93,-123.4C1147.06,-113.36 1136.45,-99.84 1128.15,-89.25"/>
<polygon fill="midnightblue" stroke="midnightblue" points="1130.75,-86.9 1121.82,-81.19 1125.24,-91.22 1130.75,-86.9"/>
</g>
<!-- Node18 -->
<g id="node18" class="node">
<title>Node18</title>
<g id="a_node18"><a xlink:title=" ">
<polygon fill="none" stroke="#bfbfbf" points="1328,-0.5 1328,-19.5 1390,-19.5 1390,-0.5 1328,-0.5"/>
<text text-anchor="middle" x="1359" y="-7.5" font-family="Helvetica,sans-Serif" font-size="10.00">type_traits</text>
</a>
</g>
</g>
<!-- Node17&#45;&gt;Node18 -->
<g id="edge20" class="edge">
<title>Node17&#45;&gt;Node18</title>
<path fill="none" stroke="midnightblue" d="M1421.57,-56.4C1408.79,-47.13 1392.11,-35.03 1379.19,-25.65"/>
<polygon fill="midnightblue" stroke="midnightblue" points="1381.08,-22.7 1370.93,-19.66 1376.97,-28.36 1381.08,-22.7"/>
</g>
<!-- Node19 -->
<g id="node19" class="node">
<title>Node19</title>
<g id="a_node19"><a xlink:title=" ">
<polygon fill="none" stroke="#bfbfbf" points="1408,-0.5 1408,-19.5 1474,-19.5 1474,-0.5 1408,-0.5"/>
<text text-anchor="middle" x="1441" y="-7.5" font-family="Helvetica,sans-Serif" font-size="10.00">string_view</text>
</a>
</g>
</g>
<!-- Node17&#45;&gt;Node19 -->
<g id="edge21" class="edge">
<title>Node17&#45;&gt;Node19</title>
<path fill="none" stroke="midnightblue" d="M1441,-56.4C1441,-48.47 1441,-38.46 1441,-29.86"/>
<polygon fill="midnightblue" stroke="midnightblue" points="1444.5,-29.66 1441,-19.66 1437.5,-29.66 1444.5,-29.66"/>
</g>
<!-- Node20 -->
<g id="node20" class="node">
<title>Node20</title>
<g id="a_node20"><a xlink:title=" ">
<polygon fill="none" stroke="#bfbfbf" points="1492.5,-0.5 1492.5,-19.5 1557.5,-19.5 1557.5,-0.5 1492.5,-0.5"/>
<text text-anchor="middle" x="1525" y="-7.5" font-family="Helvetica,sans-Serif" font-size="10.00">Eigen/Core</text>
</a>
</g>
</g>
<!-- Node17&#45;&gt;Node20 -->
<g id="edge22" class="edge">
<title>Node17&#45;&gt;Node20</title>
<path fill="none" stroke="midnightblue" d="M1460.91,-56.4C1473.99,-47.13 1491.08,-35.03 1504.32,-25.65"/>
<polygon fill="midnightblue" stroke="midnightblue" points="1506.64,-28.29 1512.78,-19.66 1502.59,-22.58 1506.64,-28.29"/>
</g>
<!-- Node24&#45;&gt;Node13 -->
<g id="edge29" class="edge">
<title>Node24&#45;&gt;Node13</title>
<path fill="none" stroke="midnightblue" d="M1373,-190.4C1373,-181.06 1373,-168.71 1373,-158.52"/>
<polygon fill="midnightblue" stroke="midnightblue" points="1376.5,-158.19 1373,-148.19 1369.5,-158.19 1376.5,-158.19"/>
</g>
<!-- Node25 -->
<g id="node25" class="node">
<title>Node25</title>
<g id="a_node25"><a xlink:title=" ">
<polygon fill="none" stroke="#bfbfbf" points="1411.5,-129 1411.5,-148 1494.5,-148 1494.5,-129 1411.5,-129"/>
<text text-anchor="middle" x="1453" y="-136" font-family="Helvetica,sans-Serif" font-size="10.00">unordered_map</text>
</a>
</g>
</g>
<!-- Node24&#45;&gt;Node25 -->
<g id="edge30" class="edge">
<title>Node24&#45;&gt;Node25</title>
<path fill="none" stroke="midnightblue" d="M1390.36,-190.4C1403.33,-179.86 1421.03,-165.48 1434.31,-154.69"/>
<polygon fill="midnightblue" stroke="midnightblue" points="1436.74,-157.22 1442.3,-148.19 1432.33,-151.78 1436.74,-157.22"/>
</g>
<!-- Node28 -->
<g id="node28" class="node">
<title>Node28</title>
<g id="a_node28"><a xlink:title=" ">
<polygon fill="none" stroke="#bfbfbf" points="913.5,-263 913.5,-282 998.5,-282 998.5,-263 913.5,-263"/>
<text text-anchor="middle" x="956" y="-270" font-family="Helvetica,sans-Serif" font-size="10.00">spdlog/spdlog.h</text>
</a>
</g>
</g>
<!-- Node27&#45;&gt;Node28 -->
<g id="edge33" class="edge">
<title>Node27&#45;&gt;Node28</title>
<path fill="none" stroke="midnightblue" d="M706.52,-325.07C774.26,-313.19 867.34,-296.46 904,-288 908.38,-286.99 912.95,-285.85 917.48,-284.66"/>
<polygon fill="midnightblue" stroke="midnightblue" points="918.5,-288.01 927.24,-282.02 916.67,-281.25 918.5,-288.01"/>
</g>
</g>
</svg>
        <g id="navigator" transform="translate(0 0)" fill="#404254">
                <rect fill="#f2f5e9" fill-opacity="0.5" stroke="#606060" stroke-width=".5" x="0" y="0" width="60" height="60"/>
                <use id="zoomplus" xlink:href="#zoomPlus" x="17" y="9" onmousedown="handleZoom(evt,'in')"/>
                <use id="zoomminus" xlink:href="#zoomMin" x="42" y="9" onmousedown="handleZoom(evt,'out')"/>
                <use id="reset" xlink:href="#resetDef" x="30" y="36" onmousedown="handleReset()"/>
                <g id="arrowUp" xlink:href="#dirArrow" transform="translate(30 24)" onmousedown="handlePan(0,-1)">
                  <use xlink:href="#rim" fill="#404040">
                        <set attributeName="fill" to="#808080" begin="arrowUp.mouseover" end="arrowUp.mouseout"/>
                  </use>
                  <path fill="none" stroke="white" stroke-width="1.5" d="M0,-3.0v7 M-2.5,-0.5L0,-3.0L2.5,-0.5"/>
                </g>
                <g id="arrowRight" xlink:href="#dirArrow" transform="rotate(90) translate(36 -43)" onmousedown="handlePan(1,0)">
                  <use xlink:href="#rim" fill="#404040">
                        <set attributeName="fill" to="#808080" begin="arrowRight.mouseover" end="arrowRight.mouseout"/>
                  </use>
                  <path fill="none" stroke="white" stroke-width="1.5" d="M0,-3.0v7 M-2.5,-0.5L0,-3.0L2.5,-0.5"/>
                </g>
                <g id="arrowDown" xlink:href="#dirArrow" transform="rotate(180) translate(-30 -48)" onmousedown="handlePan(0,1)">
                  <use xlink:href="#rim" fill="#404040">
                        <set attributeName="fill" to="#808080" begin="arrowDown.mouseover" end="arrowDown.mouseout"/>
                  </use>
                  <path fill="none" stroke="white" stroke-width="1.5" d="M0,-3.0v7 M-2.5,-0.5L0,-3.0L2.5,-0.5"/>
                </g>
                <g id="arrowLeft" xlink:href="#dirArrow" transform="rotate(270) translate(-36 17)" onmousedown="handlePan(-1,0)">
                  <use xlink:href="#rim" fill="#404040">
                        <set attributeName="fill" to="#808080" begin="arrowLeft.mouseover" end="arrowLeft.mouseout"/>
                  </use>
                  <path fill="none" stroke="white" stroke-width="1.5" d="M0,-3.0v7 M-2.5,-0.5L0,-3.0L2.5,-0.5"/>
                </g>
        </g>
        <svg viewBox="0 0 15 15" width="100%" height="30px" preserveAspectRatio="xMaxYMin meet">
         <g id="arrow_out" transform="scale(0.3 0.3)">
          <a xlink:href="SO3Task_8cpp__incl_org.svg" target="_base">
           <rect id="button" ry="5" rx="5" y="6" x="6" height="38" width="38"
                fill="#f2f5e9" fill-opacity="0.5" stroke="#606060" stroke-width="1.0"/>
           <path id="arrow"
             d="M 11.500037,31.436501 C 11.940474,20.09759 22.043105,11.32322 32.158766,21.979434 L 37.068811,17.246167 C 37.068811,17.246167 37.088388,32 37.088388,32 L 22.160133,31.978069 C 22.160133,31.978069 26.997745,27.140456 26.997745,27.140456 C 18.528582,18.264221 13.291696,25.230495 11.500037,31.436501 z"
             style="fill:#404040;"/>
          </a>
         </g>
        </svg>
</svg>
