<?xml version="1.0" encoding="UTF-8" standalone="no"?>
<!DOCTYPE svg PUBLIC "-//W3C//DTD SVG 1.1//EN"
 "http://www.w3.org/Graphics/SVG/1.1/DTD/svg11.dtd">
<!-- Generated by graphviz version 2.43.0 (0)
 -->
<!-- Title: ParametersHandler/src/StdImplementation.cpp Pages: 1 -->
<svg width="784pt" height="363pt"
 viewBox="0.00 0.00 783.50 363.00" xmlns="http://www.w3.org/2000/svg" xmlns:xlink="http://www.w3.org/1999/xlink">
<g id="graph0" class="graph" transform="scale(1 1) rotate(0) translate(4 359)">
<title>ParametersHandler/src/StdImplementation.cpp</title>
<!-- Node1 -->
<g id="node1" class="node">
<title>Node1</title>
<g id="a_node1"><a xlink:title=" ">
<polygon fill="#bfbfbf" stroke="black" points="357,-324.5 357,-354.5 477,-354.5 477,-324.5 357,-324.5"/>
<text text-anchor="start" x="365" y="-342.5" font-family="Helvetica,sans-Serif" font-size="10.00">ParametersHandler/src</text>
<text text-anchor="middle" x="417" y="-331.5" font-family="Helvetica,sans-Serif" font-size="10.00">/StdImplementation.cpp</text>
</a>
</g>
</g>
<!-- Node2 -->
<g id="node2" class="node">
<title>Node2</title>
<g id="a_node2"><a xlink:title=" ">
<polygon fill="none" stroke="#bfbfbf" points="67.5,-129 67.5,-148 108.5,-148 108.5,-129 67.5,-129"/>
<text text-anchor="middle" x="88" y="-136" font-family="Helvetica,sans-Serif" font-size="10.00">string</text>
</a>
</g>
</g>
<!-- Node1&#45;&gt;Node2 -->
<g id="edge1" class="edge">
<title>Node1&#45;&gt;Node2</title>
<path fill="none" stroke="midnightblue" d="M356.74,-336.46C280.05,-330.24 150.2,-306.81 89,-221 75.94,-202.68 78.71,-175.68 82.69,-157.85"/>
<polygon fill="midnightblue" stroke="midnightblue" points="86.1,-158.64 85.2,-148.09 79.32,-156.9 86.1,-158.64"/>
</g>
<!-- Node3 -->
<g id="node3" class="node">
<title>Node3</title>
<g id="a_node3"><a xlink:href="StdImplementation_8h.html" target="_top" xlink:title=" ">
<polygon fill="none" stroke="black" points="341,-257.5 341,-287.5 493,-287.5 493,-257.5 341,-257.5"/>
<text text-anchor="start" x="349" y="-275.5" font-family="Helvetica,sans-Serif" font-size="10.00">BipedalLocomotion/Parameters</text>
<text text-anchor="middle" x="417" y="-264.5" font-family="Helvetica,sans-Serif" font-size="10.00">Handler/StdImplementation.h</text>
</a>
</g>
</g>
<!-- Node1&#45;&gt;Node3 -->
<g id="edge2" class="edge">
<title>Node1&#45;&gt;Node3</title>
<path fill="none" stroke="midnightblue" d="M417,-324.4C417,-316.64 417,-306.81 417,-297.86"/>
<polygon fill="midnightblue" stroke="midnightblue" points="420.5,-297.58 417,-287.58 413.5,-297.58 420.5,-297.58"/>
</g>
<!-- Node19 -->
<g id="node19" class="node">
<title>Node19</title>
<g id="a_node19"><a xlink:href="Logger_8h.html" target="_top" xlink:title=" ">
<polygon fill="none" stroke="black" points="620.5,-123.5 620.5,-153.5 775.5,-153.5 775.5,-123.5 620.5,-123.5"/>
<text text-anchor="start" x="628.5" y="-141.5" font-family="Helvetica,sans-Serif" font-size="10.00">BipedalLocomotion/TextLogging</text>
<text text-anchor="middle" x="698" y="-130.5" font-family="Helvetica,sans-Serif" font-size="10.00">/Logger.h</text>
</a>
</g>
</g>
<!-- Node1&#45;&gt;Node19 -->
<g id="edge28" class="edge">
<title>Node1&#45;&gt;Node19</title>
<path fill="none" stroke="midnightblue" d="M477.1,-327.62C537.21,-313.54 627.89,-283.04 679,-221 692.24,-204.94 696.61,-181.33 697.89,-163.65"/>
<polygon fill="midnightblue" stroke="midnightblue" points="701.39,-163.67 698.34,-153.53 694.4,-163.36 701.39,-163.67"/>
</g>
<!-- Node3&#45;&gt;Node2 -->
<g id="edge4" class="edge">
<title>Node3&#45;&gt;Node2</title>
<path fill="none" stroke="midnightblue" d="M340.68,-268.1C261.3,-262.99 144.06,-250.57 111,-221 93.39,-205.25 88.83,-177.17 87.87,-158.44"/>
<polygon fill="midnightblue" stroke="midnightblue" points="91.36,-158.1 87.65,-148.18 84.36,-158.25 91.36,-158.1"/>
</g>
<!-- Node4 -->
<g id="node4" class="node">
<title>Node4</title>
<g id="a_node4"><a xlink:title=" ">
<polygon fill="none" stroke="#bfbfbf" points="290,-196 290,-215 322,-215 322,-196 290,-196"/>
<text text-anchor="middle" x="306" y="-203" font-family="Helvetica,sans-Serif" font-size="10.00">any</text>
</a>
</g>
</g>
<!-- Node3&#45;&gt;Node4 -->
<g id="edge3" class="edge">
<title>Node3&#45;&gt;Node4</title>
<path fill="none" stroke="midnightblue" d="M392.91,-257.4C374.04,-246.34 347.94,-231.06 329.28,-220.13"/>
<polygon fill="midnightblue" stroke="midnightblue" points="330.93,-217.04 320.53,-215.01 327.39,-223.08 330.93,-217.04"/>
</g>
<!-- Node5 -->
<g id="node5" class="node">
<title>Node5</title>
<g id="a_node5"><a xlink:title=" ">
<polygon fill="none" stroke="#bfbfbf" points="340.5,-196 340.5,-215 423.5,-215 423.5,-196 340.5,-196"/>
<text text-anchor="middle" x="382" y="-203" font-family="Helvetica,sans-Serif" font-size="10.00">unordered_map</text>
</a>
</g>
</g>
<!-- Node3&#45;&gt;Node5 -->
<g id="edge5" class="edge">
<title>Node3&#45;&gt;Node5</title>
<path fill="none" stroke="midnightblue" d="M409.41,-257.4C404.16,-247.66 397.16,-234.65 391.54,-224.21"/>
<polygon fill="midnightblue" stroke="midnightblue" points="394.5,-222.34 386.68,-215.19 388.34,-225.66 394.5,-222.34"/>
</g>
<!-- Node6 -->
<g id="node6" class="node">
<title>Node6</title>
<g id="a_node6"><a xlink:href="TemplateHelpers_8h_source.html" target="_top" xlink:title=" ">
<polygon fill="none" stroke="black" points="419.5,-56.5 419.5,-86.5 562.5,-86.5 562.5,-56.5 419.5,-56.5"/>
<text text-anchor="start" x="427.5" y="-74.5" font-family="Helvetica,sans-Serif" font-size="10.00">BipedalLocomotion/Generic</text>
<text text-anchor="middle" x="491" y="-63.5" font-family="Helvetica,sans-Serif" font-size="10.00">Container/TemplateHelpers.h</text>
</a>
</g>
</g>
<!-- Node3&#45;&gt;Node6 -->
<g id="edge6" class="edge">
<title>Node3&#45;&gt;Node6</title>
<path fill="none" stroke="midnightblue" d="M428.09,-257.17C435.19,-247.42 444.14,-233.98 450,-221 468.92,-179.1 480.92,-126.52 486.76,-96.49"/>
<polygon fill="midnightblue" stroke="midnightblue" points="490.23,-96.98 488.63,-86.51 483.35,-95.69 490.23,-96.98"/>
</g>
<!-- Node10 -->
<g id="node10" class="node">
<title>Node10</title>
<g id="a_node10"><a xlink:href="Vector_8h_source.html" target="_top" xlink:title=" ">
<polygon fill="none" stroke="black" points="233,-123.5 233,-153.5 369,-153.5 369,-123.5 233,-123.5"/>
<text text-anchor="start" x="241" y="-141.5" font-family="Helvetica,sans-Serif" font-size="10.00">BipedalLocomotion/Generic</text>
<text text-anchor="middle" x="301" y="-130.5" font-family="Helvetica,sans-Serif" font-size="10.00">Container/Vector.h</text>
</a>
</g>
</g>
<!-- Node3&#45;&gt;Node10 -->
<g id="edge10" class="edge">
<title>Node3&#45;&gt;Node10</title>
<path fill="none" stroke="midnightblue" d="M425.74,-257.23C435.14,-239.85 446.98,-210.31 433,-190 420.27,-171.51 399.79,-159.78 378.71,-152.35"/>
<polygon fill="midnightblue" stroke="midnightblue" points="379.6,-148.96 369.01,-149.23 377.46,-155.62 379.6,-148.96"/>
</g>
<!-- Node16 -->
<g id="node16" class="node">
<title>Node16</title>
<g id="a_node16"><a xlink:href="IParametersHandler_8h.html" target="_top" xlink:title=" ">
<polygon fill="none" stroke="black" points="120,-190.5 120,-220.5 272,-220.5 272,-190.5 120,-190.5"/>
<text text-anchor="start" x="128" y="-208.5" font-family="Helvetica,sans-Serif" font-size="10.00">BipedalLocomotion/Parameters</text>
<text text-anchor="middle" x="196" y="-197.5" font-family="Helvetica,sans-Serif" font-size="10.00">Handler/IParametersHandler.h</text>
</a>
</g>
</g>
<!-- Node3&#45;&gt;Node16 -->
<g id="edge17" class="edge">
<title>Node3&#45;&gt;Node16</title>
<path fill="none" stroke="midnightblue" d="M369.32,-257.48C335.45,-247.51 289.79,-234.09 253.84,-223.51"/>
<polygon fill="midnightblue" stroke="midnightblue" points="254.56,-220.07 243.98,-220.61 252.58,-226.79 254.56,-220.07"/>
</g>
<!-- Node18 -->
<g id="node18" class="node">
<title>Node18</title>
<g id="a_node18"><a xlink:href="StdImplementation_8tpp.html" target="_top" xlink:title=" ">
<polygon fill="none" stroke="black" points="518,-190.5 518,-220.5 670,-220.5 670,-190.5 518,-190.5"/>
<text text-anchor="start" x="526" y="-208.5" font-family="Helvetica,sans-Serif" font-size="10.00">BipedalLocomotion/Parameters</text>
<text text-anchor="middle" x="594" y="-197.5" font-family="Helvetica,sans-Serif" font-size="10.00">Handler/StdImplementation.tpp</text>
</a>
</g>
</g>
<!-- Node3&#45;&gt;Node18 -->
<g id="edge23" class="edge">
<title>Node3&#45;&gt;Node18</title>
<path fill="none" stroke="midnightblue" d="M449.73,-257.4C475.12,-247.6 510.71,-234.48 540.24,-224.02"/>
<polygon fill="midnightblue" stroke="midnightblue" points="541.73,-227.2 549.99,-220.58 539.4,-220.6 541.73,-227.2"/>
</g>
<!-- Node7 -->
<g id="node7" class="node">
<title>Node7</title>
<g id="a_node7"><a xlink:title=" ">
<polygon fill="none" stroke="#bfbfbf" points="555,-0.5 555,-19.5 617,-19.5 617,-0.5 555,-0.5"/>
<text text-anchor="middle" x="586" y="-7.5" font-family="Helvetica,sans-Serif" font-size="10.00">type_traits</text>
</a>
</g>
</g>
<!-- Node6&#45;&gt;Node7 -->
<g id="edge7" class="edge">
<title>Node6&#45;&gt;Node7</title>
<path fill="none" stroke="midnightblue" d="M513.51,-56.4C528.6,-46.95 548.39,-34.56 563.47,-25.11"/>
<polygon fill="midnightblue" stroke="midnightblue" points="565.56,-27.93 572.18,-19.66 561.84,-22 565.56,-27.93"/>
</g>
<!-- Node8 -->
<g id="node8" class="node">
<title>Node8</title>
<g id="a_node8"><a xlink:title=" ">
<polygon fill="none" stroke="#bfbfbf" points="462,-0.5 462,-19.5 528,-19.5 528,-0.5 462,-0.5"/>
<text text-anchor="middle" x="495" y="-7.5" font-family="Helvetica,sans-Serif" font-size="10.00">string_view</text>
</a>
</g>
</g>
<!-- Node6&#45;&gt;Node8 -->
<g id="edge8" class="edge">
<title>Node6&#45;&gt;Node8</title>
<path fill="none" stroke="midnightblue" d="M491.95,-56.4C492.48,-48.47 493.15,-38.46 493.73,-29.86"/>
<polygon fill="midnightblue" stroke="midnightblue" points="497.24,-29.87 494.42,-19.66 490.26,-29.4 497.24,-29.87"/>
</g>
<!-- Node9 -->
<g id="node9" class="node">
<title>Node9</title>
<g id="a_node9"><a xlink:title=" ">
<polygon fill="none" stroke="#bfbfbf" points="378.5,-0.5 378.5,-19.5 443.5,-19.5 443.5,-0.5 378.5,-0.5"/>
<text text-anchor="middle" x="411" y="-7.5" font-family="Helvetica,sans-Serif" font-size="10.00">Eigen/Core</text>
</a>
</g>
</g>
<!-- Node6&#45;&gt;Node9 -->
<g id="edge9" class="edge">
<title>Node6&#45;&gt;Node9</title>
<path fill="none" stroke="midnightblue" d="M472.04,-56.4C459.58,-47.13 443.3,-35.03 430.69,-25.65"/>
<polygon fill="midnightblue" stroke="midnightblue" points="432.75,-22.82 422.64,-19.66 428.58,-28.43 432.75,-22.82"/>
</g>
<!-- Node10&#45;&gt;Node6 -->
<g id="edge12" class="edge">
<title>Node10&#45;&gt;Node6</title>
<path fill="none" stroke="midnightblue" d="M342.23,-123.4C370.98,-113.56 409.54,-100.37 440.2,-89.88"/>
<polygon fill="midnightblue" stroke="midnightblue" points="441.52,-93.13 449.85,-86.58 439.26,-86.5 441.52,-93.13"/>
</g>
<!-- Node11 -->
<g id="node11" class="node">
<title>Node11</title>
<g id="a_node11"><a xlink:title=" ">
<polygon fill="none" stroke="#bfbfbf" points="70,-62 70,-81 184,-81 184,-62 70,-62"/>
<text text-anchor="middle" x="127" y="-69" font-family="Helvetica,sans-Serif" font-size="10.00">iDynTree/Core/Span.h</text>
</a>
</g>
</g>
<!-- Node10&#45;&gt;Node11 -->
<g id="edge11" class="edge">
<title>Node10&#45;&gt;Node11</title>
<path fill="none" stroke="midnightblue" d="M263.24,-123.4C232.17,-111.79 188.61,-95.51 159.17,-84.52"/>
<polygon fill="midnightblue" stroke="midnightblue" points="160.37,-81.23 149.77,-81.01 157.92,-87.79 160.37,-81.23"/>
</g>
<!-- Node12 -->
<g id="node12" class="node">
<title>Node12</title>
<g id="a_node12"><a xlink:title=" ">
<polygon fill="none" stroke="#bfbfbf" points="202.5,-62 202.5,-81 261.5,-81 261.5,-62 202.5,-62"/>
<text text-anchor="middle" x="232" y="-69" font-family="Helvetica,sans-Serif" font-size="10.00">functional</text>
</a>
</g>
</g>
<!-- Node10&#45;&gt;Node12 -->
<g id="edge13" class="edge">
<title>Node10&#45;&gt;Node12</title>
<path fill="none" stroke="midnightblue" d="M286.03,-123.4C275.06,-113.06 260.16,-99.02 248.78,-88.31"/>
<polygon fill="midnightblue" stroke="midnightblue" points="250.91,-85.5 241.23,-81.19 246.11,-90.6 250.91,-85.5"/>
</g>
<!-- Node13 -->
<g id="node13" class="node">
<title>Node13</title>
<g id="a_node13"><a xlink:title=" ">
<polygon fill="none" stroke="#bfbfbf" points="279.5,-62 279.5,-81 328.5,-81 328.5,-62 279.5,-62"/>
<text text-anchor="middle" x="304" y="-69" font-family="Helvetica,sans-Serif" font-size="10.00">cassert</text>
</a>
</g>
</g>
<!-- Node10&#45;&gt;Node13 -->
<g id="edge14" class="edge">
<title>Node10&#45;&gt;Node13</title>
<path fill="none" stroke="midnightblue" d="M301.65,-123.4C302.09,-113.96 302.66,-101.45 303.14,-91.19"/>
<polygon fill="midnightblue" stroke="midnightblue" points="306.63,-91.35 303.6,-81.19 299.64,-91.02 306.63,-91.35"/>
</g>
<!-- Node14 -->
<g id="node14" class="node">
<title>Node14</title>
<g id="a_node14"><a xlink:title=" ">
<polygon fill="none" stroke="#bfbfbf" points="347,-62 347,-81 401,-81 401,-62 347,-62"/>
<text text-anchor="middle" x="374" y="-69" font-family="Helvetica,sans-Serif" font-size="10.00">iostream</text>
</a>
</g>
</g>
<!-- Node10&#45;&gt;Node14 -->
<g id="edge15" class="edge">
<title>Node10&#45;&gt;Node14</title>
<path fill="none" stroke="midnightblue" d="M316.84,-123.4C328.56,-112.96 344.52,-98.75 356.59,-88"/>
<polygon fill="midnightblue" stroke="midnightblue" points="359.09,-90.46 364.24,-81.19 354.44,-85.23 359.09,-90.46"/>
</g>
<!-- Node15 -->
<g id="node15" class="node">
<title>Node15</title>
<g id="a_node15"><a xlink:title=" ">
<polygon fill="none" stroke="#bfbfbf" points="0,-62 0,-81 52,-81 52,-62 0,-62"/>
<text text-anchor="middle" x="26" y="-69" font-family="Helvetica,sans-Serif" font-size="10.00">memory</text>
</a>
</g>
</g>
<!-- Node10&#45;&gt;Node15 -->
<g id="edge16" class="edge">
<title>Node10&#45;&gt;Node15</title>
<path fill="none" stroke="midnightblue" d="M232.84,-124.62C173.59,-113.16 92.47,-96.74 61,-87 58.86,-86.34 56.66,-85.59 54.47,-84.8"/>
<polygon fill="midnightblue" stroke="midnightblue" points="55.61,-81.49 45.02,-81.13 53.07,-88.01 55.61,-81.49"/>
</g>
<!-- Node16&#45;&gt;Node2 -->
<g id="edge19" class="edge">
<title>Node16&#45;&gt;Node2</title>
<path fill="none" stroke="midnightblue" d="M172.57,-190.4C154.29,-179.39 129.04,-164.2 110.9,-153.28"/>
<polygon fill="midnightblue" stroke="midnightblue" points="112.51,-150.16 102.13,-148.01 108.9,-156.16 112.51,-150.16"/>
</g>
<!-- Node16&#45;&gt;Node6 -->
<g id="edge22" class="edge">
<title>Node16&#45;&gt;Node6</title>
<path fill="none" stroke="midnightblue" d="M269,-190.48C303.13,-182.38 343.71,-170.47 378,-154 411.64,-137.84 445.78,-111.56 467.59,-93.22"/>
<polygon fill="midnightblue" stroke="midnightblue" points="469.99,-95.78 475.32,-86.62 465.45,-90.45 469.99,-95.78"/>
</g>
<!-- Node16&#45;&gt;Node10 -->
<g id="edge21" class="edge">
<title>Node16&#45;&gt;Node10</title>
<path fill="none" stroke="midnightblue" d="M218.78,-190.4C233.64,-181.2 253.24,-169.07 269.57,-158.95"/>
<polygon fill="midnightblue" stroke="midnightblue" points="271.6,-161.82 278.26,-153.58 267.92,-155.86 271.6,-161.82"/>
</g>
<!-- Node16&#45;&gt;Node15 -->
<g id="edge18" class="edge">
<title>Node16&#45;&gt;Node15</title>
<path fill="none" stroke="midnightblue" d="M197.31,-190.5C198.18,-172.57 196.83,-141.6 180,-123 142.93,-82.03 113.03,-105.6 61,-87 59.14,-86.34 57.24,-85.63 55.33,-84.9"/>
<polygon fill="midnightblue" stroke="midnightblue" points="56.44,-81.57 45.86,-81.13 53.85,-88.08 56.44,-81.57"/>
</g>
<!-- Node17 -->
<g id="node17" class="node">
<title>Node17</title>
<g id="a_node17"><a xlink:title=" ">
<polygon fill="none" stroke="#bfbfbf" points="127,-129 127,-148 171,-148 171,-129 127,-129"/>
<text text-anchor="middle" x="149" y="-136" font-family="Helvetica,sans-Serif" font-size="10.00">vector</text>
</a>
</g>
</g>
<!-- Node16&#45;&gt;Node17 -->
<g id="edge20" class="edge">
<title>Node16&#45;&gt;Node17</title>
<path fill="none" stroke="midnightblue" d="M185.8,-190.4C178.62,-180.46 168.96,-167.11 161.34,-156.57"/>
<polygon fill="midnightblue" stroke="midnightblue" points="163.98,-154.25 155.29,-148.19 158.31,-158.35 163.98,-154.25"/>
</g>
<!-- Node18&#45;&gt;Node3 -->
<g id="edge25" class="edge">
<title>Node18&#45;&gt;Node3</title>
<path fill="none" stroke="midnightblue" d="M561.34,-220.58C535.97,-230.37 500.38,-243.48 470.85,-253.96"/>
<polygon fill="midnightblue" stroke="midnightblue" points="469.35,-250.77 461.08,-257.4 471.68,-257.37 469.35,-250.77"/>
</g>
<!-- Node18&#45;&gt;Node7 -->
<g id="edge24" class="edge">
<title>Node18&#45;&gt;Node7</title>
<path fill="none" stroke="midnightblue" d="M593.41,-190.27C591.99,-155.94 588.38,-68.57 586.78,-29.9"/>
<polygon fill="midnightblue" stroke="midnightblue" points="590.26,-29.42 586.35,-19.58 583.27,-29.71 590.26,-29.42"/>
</g>
<!-- Node18&#45;&gt;Node19 -->
<g id="edge26" class="edge">
<title>Node18&#45;&gt;Node19</title>
<path fill="none" stroke="midnightblue" d="M616.57,-190.4C631.29,-181.2 650.69,-169.07 666.87,-158.95"/>
<polygon fill="midnightblue" stroke="midnightblue" points="668.85,-161.84 675.48,-153.58 665.14,-155.91 668.85,-161.84"/>
</g>
<!-- Node20 -->
<g id="node20" class="node">
<title>Node20</title>
<g id="a_node20"><a xlink:title=" ">
<polygon fill="none" stroke="#bfbfbf" points="655.5,-62 655.5,-81 740.5,-81 740.5,-62 655.5,-62"/>
<text text-anchor="middle" x="698" y="-69" font-family="Helvetica,sans-Serif" font-size="10.00">spdlog/spdlog.h</text>
</a>
</g>
</g>
<!-- Node19&#45;&gt;Node20 -->
<g id="edge27" class="edge">
<title>Node19&#45;&gt;Node20</title>
<path fill="none" stroke="midnightblue" d="M698,-123.4C698,-114.06 698,-101.71 698,-91.52"/>
<polygon fill="midnightblue" stroke="midnightblue" points="701.5,-91.19 698,-81.19 694.5,-91.19 701.5,-91.19"/>
</g>
</g>
</svg>
