<?xml version="1.0" encoding="UTF-8" standalone="no"?>
<!DOCTYPE svg PUBLIC "-//W3C//DTD SVG 1.1//EN"
 "http://www.w3.org/Graphics/SVG/1.1/DTD/svg11.dtd">
<!-- Generated by graphviz version 2.43.0 (0)
 -->
<!-- Title: ParametersHandler/include/BipedalLocomotion/ParametersHandler/StdImplementation.tpp Pages: 1 -->
<svg width="732pt" height="374pt"
 viewBox="0.00 0.00 732.35 374.00" xmlns="http://www.w3.org/2000/svg" xmlns:xlink="http://www.w3.org/1999/xlink">
<g id="graph0" class="graph" transform="scale(1 1) rotate(0) translate(4 370)">
<title>ParametersHandler/include/BipedalLocomotion/ParametersHandler/StdImplementation.tpp</title>
<!-- Node1 -->
<g id="node1" class="node">
<title>Node1</title>
<g id="a_node1"><a xlink:title=" ">
<polygon fill="#bfbfbf" stroke="black" points="335.35,-324.5 335.35,-365.5 524.35,-365.5 524.35,-324.5 335.35,-324.5"/>
<text text-anchor="start" x="343.35" y="-353.5" font-family="Helvetica,sans-Serif" font-size="10.00">ParametersHandler/include</text>
<text text-anchor="start" x="343.35" y="-342.5" font-family="Helvetica,sans-Serif" font-size="10.00">/BipedalLocomotion/ParametersHandler</text>
<text text-anchor="middle" x="429.85" y="-331.5" font-family="Helvetica,sans-Serif" font-size="10.00">/StdImplementation.tpp</text>
</a>
</g>
</g>
<!-- Node2 -->
<g id="node2" class="node">
<title>Node2</title>
<g id="a_node2"><a xlink:title=" ">
<polygon fill="none" stroke="#bfbfbf" points="189.85,-0.5 189.85,-19.5 251.85,-19.5 251.85,-0.5 189.85,-0.5"/>
<text text-anchor="middle" x="220.85" y="-7.5" font-family="Helvetica,sans-Serif" font-size="10.00">type_traits</text>
</a>
</g>
</g>
<!-- Node1&#45;&gt;Node2 -->
<g id="edge1" class="edge">
<title>Node1&#45;&gt;Node2</title>
<path fill="none" stroke="midnightblue" d="M335.13,-332.87C209.06,-315.36 1.85,-276.01 1.85,-206.5 1.85,-206.5 1.85,-206.5 1.85,-137.5 1.85,-100.31 -5.55,-82.2 20.85,-56 42.89,-34.13 127.79,-21.17 179.63,-15.13"/>
<polygon fill="midnightblue" stroke="midnightblue" points="180.3,-18.58 189.84,-13.98 179.51,-11.62 180.3,-18.58"/>
</g>
<!-- Node3 -->
<g id="node3" class="node">
<title>Node3</title>
<g id="a_node3"><a xlink:href="StdImplementation_8h.html" target="_top" xlink:title=" ">
<polygon fill="none" stroke="black" points="353.85,-257.5 353.85,-287.5 505.85,-287.5 505.85,-257.5 353.85,-257.5"/>
<text text-anchor="start" x="361.85" y="-275.5" font-family="Helvetica,sans-Serif" font-size="10.00">BipedalLocomotion/Parameters</text>
<text text-anchor="middle" x="429.85" y="-264.5" font-family="Helvetica,sans-Serif" font-size="10.00">Handler/StdImplementation.h</text>
</a>
</g>
</g>
<!-- Node1&#45;&gt;Node3 -->
<g id="edge2" class="edge">
<title>Node1&#45;&gt;Node3</title>
<path fill="none" stroke="midnightblue" d="M423.73,-324.36C423.03,-316.23 422.91,-306.7 423.38,-298.11"/>
<polygon fill="midnightblue" stroke="midnightblue" points="426.89,-298.16 424.29,-287.89 419.92,-297.54 426.89,-298.16"/>
</g>
<!-- Node18 -->
<g id="node18" class="node">
<title>Node18</title>
<g id="a_node18"><a xlink:href="Logger_8h.html" target="_top" xlink:title=" ">
<polygon fill="none" stroke="black" points="569.35,-257.5 569.35,-287.5 724.35,-287.5 724.35,-257.5 569.35,-257.5"/>
<text text-anchor="start" x="577.35" y="-275.5" font-family="Helvetica,sans-Serif" font-size="10.00">BipedalLocomotion/TextLogging</text>
<text text-anchor="middle" x="646.85" y="-264.5" font-family="Helvetica,sans-Serif" font-size="10.00">/Logger.h</text>
</a>
</g>
</g>
<!-- Node1&#45;&gt;Node18 -->
<g id="edge24" class="edge">
<title>Node1&#45;&gt;Node18</title>
<path fill="none" stroke="midnightblue" d="M490.01,-324.46C522.49,-313.9 562.24,-300.99 593.6,-290.8"/>
<polygon fill="midnightblue" stroke="midnightblue" points="595.03,-294.02 603.46,-287.6 592.87,-287.36 595.03,-294.02"/>
</g>
<!-- Node3&#45;&gt;Node1 -->
<g id="edge23" class="edge">
<title>Node3&#45;&gt;Node1</title>
<path fill="none" stroke="midnightblue" d="M435.42,-287.89C436.41,-295.53 436.78,-305.21 436.52,-314.38"/>
<polygon fill="midnightblue" stroke="midnightblue" points="433.03,-314.18 435.97,-324.36 440.02,-314.57 433.03,-314.18"/>
</g>
<!-- Node4 -->
<g id="node4" class="node">
<title>Node4</title>
<g id="a_node4"><a xlink:title=" ">
<polygon fill="none" stroke="#bfbfbf" points="576.85,-196 576.85,-215 608.85,-215 608.85,-196 576.85,-196"/>
<text text-anchor="middle" x="592.85" y="-203" font-family="Helvetica,sans-Serif" font-size="10.00">any</text>
</a>
</g>
</g>
<!-- Node3&#45;&gt;Node4 -->
<g id="edge3" class="edge">
<title>Node3&#45;&gt;Node4</title>
<path fill="none" stroke="midnightblue" d="M469.49,-257.48C496.13,-247.8 531.88,-234.33 562.85,-221 564.42,-220.32 566.03,-219.61 567.64,-218.88"/>
<polygon fill="midnightblue" stroke="midnightblue" points="569.21,-222.01 576.78,-214.59 566.24,-215.67 569.21,-222.01"/>
</g>
<!-- Node5 -->
<g id="node5" class="node">
<title>Node5</title>
<g id="a_node5"><a xlink:title=" ">
<polygon fill="none" stroke="#bfbfbf" points="479.35,-129 479.35,-148 520.35,-148 520.35,-129 479.35,-129"/>
<text text-anchor="middle" x="499.85" y="-136" font-family="Helvetica,sans-Serif" font-size="10.00">string</text>
</a>
</g>
</g>
<!-- Node3&#45;&gt;Node5 -->
<g id="edge4" class="edge">
<title>Node3&#45;&gt;Node5</title>
<path fill="none" stroke="midnightblue" d="M455.49,-257.37C468.67,-248.69 483.64,-236.29 491.85,-221 502.33,-201.48 503.01,-175.52 501.95,-158.19"/>
<polygon fill="midnightblue" stroke="midnightblue" points="505.43,-157.87 501.08,-148.21 498.46,-158.48 505.43,-157.87"/>
</g>
<!-- Node6 -->
<g id="node6" class="node">
<title>Node6</title>
<g id="a_node6"><a xlink:title=" ">
<polygon fill="none" stroke="#bfbfbf" points="229.35,-196 229.35,-215 312.35,-215 312.35,-196 229.35,-196"/>
<text text-anchor="middle" x="270.85" y="-203" font-family="Helvetica,sans-Serif" font-size="10.00">unordered_map</text>
</a>
</g>
</g>
<!-- Node3&#45;&gt;Node6 -->
<g id="edge5" class="edge">
<title>Node3&#45;&gt;Node6</title>
<path fill="none" stroke="midnightblue" d="M395.35,-257.4C367.2,-245.89 327.84,-229.8 300.96,-218.81"/>
<polygon fill="midnightblue" stroke="midnightblue" points="302.24,-215.55 291.66,-215.01 299.59,-222.03 302.24,-215.55"/>
</g>
<!-- Node7 -->
<g id="node7" class="node">
<title>Node7</title>
<g id="a_node7"><a xlink:href="TemplateHelpers_8h_source.html" target="_top" xlink:title=" ">
<polygon fill="none" stroke="black" points="449.35,-56.5 449.35,-86.5 592.35,-86.5 592.35,-56.5 449.35,-56.5"/>
<text text-anchor="start" x="457.35" y="-74.5" font-family="Helvetica,sans-Serif" font-size="10.00">BipedalLocomotion/Generic</text>
<text text-anchor="middle" x="520.85" y="-63.5" font-family="Helvetica,sans-Serif" font-size="10.00">Container/TemplateHelpers.h</text>
</a>
</g>
</g>
<!-- Node3&#45;&gt;Node7 -->
<g id="edge6" class="edge">
<title>Node3&#45;&gt;Node7</title>
<path fill="none" stroke="midnightblue" d="M463.11,-257.39C479.31,-248.98 497.84,-236.83 509.85,-221 537.22,-184.91 532.28,-128.67 526.44,-96.76"/>
<polygon fill="midnightblue" stroke="midnightblue" points="529.86,-96.05 524.46,-86.93 523,-97.43 529.86,-96.05"/>
</g>
<!-- Node10 -->
<g id="node10" class="node">
<title>Node10</title>
<g id="a_node10"><a xlink:href="Vector_8h_source.html" target="_top" xlink:title=" ">
<polygon fill="none" stroke="black" points="186.85,-123.5 186.85,-153.5 322.85,-153.5 322.85,-123.5 186.85,-123.5"/>
<text text-anchor="start" x="194.85" y="-141.5" font-family="Helvetica,sans-Serif" font-size="10.00">BipedalLocomotion/Generic</text>
<text text-anchor="middle" x="254.85" y="-130.5" font-family="Helvetica,sans-Serif" font-size="10.00">Container/Vector.h</text>
</a>
</g>
</g>
<!-- Node3&#45;&gt;Node10 -->
<g id="edge10" class="edge">
<title>Node3&#45;&gt;Node10</title>
<path fill="none" stroke="midnightblue" d="M353.75,-263.1C300.69,-255.49 236.53,-242.17 219.85,-221 205.84,-203.23 219.45,-179 233.58,-161.59"/>
<polygon fill="midnightblue" stroke="midnightblue" points="236.56,-163.5 240.45,-153.65 231.26,-158.93 236.56,-163.5"/>
</g>
<!-- Node16 -->
<g id="node16" class="node">
<title>Node16</title>
<g id="a_node16"><a xlink:href="IParametersHandler_8h.html" target="_top" xlink:title=" ">
<polygon fill="none" stroke="black" points="330.85,-190.5 330.85,-220.5 482.85,-220.5 482.85,-190.5 330.85,-190.5"/>
<text text-anchor="start" x="338.85" y="-208.5" font-family="Helvetica,sans-Serif" font-size="10.00">BipedalLocomotion/Parameters</text>
<text text-anchor="middle" x="406.85" y="-197.5" font-family="Helvetica,sans-Serif" font-size="10.00">Handler/IParametersHandler.h</text>
</a>
</g>
</g>
<!-- Node3&#45;&gt;Node16 -->
<g id="edge17" class="edge">
<title>Node3&#45;&gt;Node16</title>
<path fill="none" stroke="midnightblue" d="M424.86,-257.4C422.06,-249.47 418.48,-239.38 415.26,-230.27"/>
<polygon fill="midnightblue" stroke="midnightblue" points="418.47,-228.84 411.83,-220.58 411.87,-231.17 418.47,-228.84"/>
</g>
<!-- Node7&#45;&gt;Node2 -->
<g id="edge7" class="edge">
<title>Node7&#45;&gt;Node2</title>
<path fill="none" stroke="midnightblue" d="M450.13,-56.47C391.59,-44.86 310.43,-28.77 262.02,-19.17"/>
<polygon fill="midnightblue" stroke="midnightblue" points="262.7,-15.73 252.21,-17.22 261.34,-22.6 262.7,-15.73"/>
</g>
<!-- Node8 -->
<g id="node8" class="node">
<title>Node8</title>
<g id="a_node8"><a xlink:title=" ">
<polygon fill="none" stroke="#bfbfbf" points="445.85,-0.5 445.85,-19.5 511.85,-19.5 511.85,-0.5 445.85,-0.5"/>
<text text-anchor="middle" x="478.85" y="-7.5" font-family="Helvetica,sans-Serif" font-size="10.00">string_view</text>
</a>
</g>
</g>
<!-- Node7&#45;&gt;Node8 -->
<g id="edge8" class="edge">
<title>Node7&#45;&gt;Node8</title>
<path fill="none" stroke="midnightblue" d="M510.9,-56.4C504.86,-47.84 497.11,-36.87 490.75,-27.86"/>
<polygon fill="midnightblue" stroke="midnightblue" points="493.59,-25.81 484.96,-19.66 487.87,-29.85 493.59,-25.81"/>
</g>
<!-- Node9 -->
<g id="node9" class="node">
<title>Node9</title>
<g id="a_node9"><a xlink:title=" ">
<polygon fill="none" stroke="#bfbfbf" points="530.35,-0.5 530.35,-19.5 595.35,-19.5 595.35,-0.5 530.35,-0.5"/>
<text text-anchor="middle" x="562.85" y="-7.5" font-family="Helvetica,sans-Serif" font-size="10.00">Eigen/Core</text>
</a>
</g>
</g>
<!-- Node7&#45;&gt;Node9 -->
<g id="edge9" class="edge">
<title>Node7&#45;&gt;Node9</title>
<path fill="none" stroke="midnightblue" d="M530.8,-56.4C536.84,-47.84 544.59,-36.87 550.95,-27.86"/>
<polygon fill="midnightblue" stroke="midnightblue" points="553.83,-29.85 556.74,-19.66 548.11,-25.81 553.83,-29.85"/>
</g>
<!-- Node10&#45;&gt;Node7 -->
<g id="edge12" class="edge">
<title>Node10&#45;&gt;Node7</title>
<path fill="none" stroke="midnightblue" d="M312.24,-123.48C353.61,-113.37 409.61,-99.68 453.16,-89.04"/>
<polygon fill="midnightblue" stroke="midnightblue" points="454.22,-92.38 463.1,-86.61 452.56,-85.58 454.22,-92.38"/>
</g>
<!-- Node11 -->
<g id="node11" class="node">
<title>Node11</title>
<g id="a_node11"><a xlink:title=" ">
<polygon fill="none" stroke="#bfbfbf" points="101.85,-62 101.85,-81 215.85,-81 215.85,-62 101.85,-62"/>
<text text-anchor="middle" x="158.85" y="-69" font-family="Helvetica,sans-Serif" font-size="10.00">iDynTree/Core/Span.h</text>
</a>
</g>
</g>
<!-- Node10&#45;&gt;Node11 -->
<g id="edge11" class="edge">
<title>Node10&#45;&gt;Node11</title>
<path fill="none" stroke="midnightblue" d="M234.02,-123.4C218.07,-112.6 196.15,-97.76 180.1,-86.89"/>
<polygon fill="midnightblue" stroke="midnightblue" points="181.66,-83.72 171.41,-81.01 177.73,-89.51 181.66,-83.72"/>
</g>
<!-- Node12 -->
<g id="node12" class="node">
<title>Node12</title>
<g id="a_node12"><a xlink:title=" ">
<polygon fill="none" stroke="#bfbfbf" points="234.35,-62 234.35,-81 293.35,-81 293.35,-62 234.35,-62"/>
<text text-anchor="middle" x="263.85" y="-69" font-family="Helvetica,sans-Serif" font-size="10.00">functional</text>
</a>
</g>
</g>
<!-- Node10&#45;&gt;Node12 -->
<g id="edge13" class="edge">
<title>Node10&#45;&gt;Node12</title>
<path fill="none" stroke="midnightblue" d="M256.8,-123.4C258.11,-113.96 259.84,-101.45 261.26,-91.19"/>
<polygon fill="midnightblue" stroke="midnightblue" points="264.74,-91.58 262.65,-81.19 257.81,-90.62 264.74,-91.58"/>
</g>
<!-- Node13 -->
<g id="node13" class="node">
<title>Node13</title>
<g id="a_node13"><a xlink:title=" ">
<polygon fill="none" stroke="#bfbfbf" points="311.35,-62 311.35,-81 360.35,-81 360.35,-62 311.35,-62"/>
<text text-anchor="middle" x="335.85" y="-69" font-family="Helvetica,sans-Serif" font-size="10.00">cassert</text>
</a>
</g>
</g>
<!-- Node10&#45;&gt;Node13 -->
<g id="edge14" class="edge">
<title>Node10&#45;&gt;Node13</title>
<path fill="none" stroke="midnightblue" d="M272.43,-123.4C285.56,-112.86 303.48,-98.48 316.92,-87.69"/>
<polygon fill="midnightblue" stroke="midnightblue" points="319.41,-90.18 325.02,-81.19 315.03,-84.72 319.41,-90.18"/>
</g>
<!-- Node14 -->
<g id="node14" class="node">
<title>Node14</title>
<g id="a_node14"><a xlink:title=" ">
<polygon fill="none" stroke="#bfbfbf" points="29.85,-62 29.85,-81 83.85,-81 83.85,-62 29.85,-62"/>
<text text-anchor="middle" x="56.85" y="-69" font-family="Helvetica,sans-Serif" font-size="10.00">iostream</text>
</a>
</g>
</g>
<!-- Node10&#45;&gt;Node14 -->
<g id="edge15" class="edge">
<title>Node10&#45;&gt;Node14</title>
<path fill="none" stroke="midnightblue" d="M206.31,-123.48C173.95,-113.87 130.59,-100.46 92.85,-87 90.95,-86.32 88.99,-85.6 87.03,-84.86"/>
<polygon fill="midnightblue" stroke="midnightblue" points="87.89,-81.44 77.3,-81.07 85.35,-87.96 87.89,-81.44"/>
</g>
<!-- Node15 -->
<g id="node15" class="node">
<title>Node15</title>
<g id="a_node15"><a xlink:title=" ">
<polygon fill="none" stroke="#bfbfbf" points="378.85,-62 378.85,-81 430.85,-81 430.85,-62 378.85,-62"/>
<text text-anchor="middle" x="404.85" y="-69" font-family="Helvetica,sans-Serif" font-size="10.00">memory</text>
</a>
</g>
</g>
<!-- Node10&#45;&gt;Node15 -->
<g id="edge16" class="edge">
<title>Node10&#45;&gt;Node15</title>
<path fill="none" stroke="midnightblue" d="M287.4,-123.4C313.72,-111.99 350.44,-96.08 375.78,-85.1"/>
<polygon fill="midnightblue" stroke="midnightblue" points="377.43,-88.19 385.22,-81.01 374.65,-81.77 377.43,-88.19"/>
</g>
<!-- Node16&#45;&gt;Node5 -->
<g id="edge19" class="edge">
<title>Node16&#45;&gt;Node5</title>
<path fill="none" stroke="midnightblue" d="M427.03,-190.4C442.48,-179.6 463.71,-164.76 479.27,-153.89"/>
<polygon fill="midnightblue" stroke="midnightblue" points="481.49,-156.6 487.68,-148.01 477.48,-150.87 481.49,-156.6"/>
</g>
<!-- Node16&#45;&gt;Node7 -->
<g id="edge22" class="edge">
<title>Node16&#45;&gt;Node7</title>
<path fill="none" stroke="midnightblue" d="M417.25,-190.26C429.54,-173.68 450.85,-145.66 470.85,-123 479.56,-113.13 489.7,-102.71 498.56,-93.91"/>
<polygon fill="midnightblue" stroke="midnightblue" points="501.27,-96.16 505.95,-86.66 496.37,-91.17 501.27,-96.16"/>
</g>
<!-- Node16&#45;&gt;Node10 -->
<g id="edge21" class="edge">
<title>Node16&#45;&gt;Node10</title>
<path fill="none" stroke="midnightblue" d="M373.87,-190.4C351.36,-180.77 321.35,-167.94 297.09,-157.56"/>
<polygon fill="midnightblue" stroke="midnightblue" points="298.34,-154.29 287.77,-153.58 295.59,-160.73 298.34,-154.29"/>
</g>
<!-- Node16&#45;&gt;Node15 -->
<g id="edge18" class="edge">
<title>Node16&#45;&gt;Node15</title>
<path fill="none" stroke="midnightblue" d="M406.64,-190.37C406.27,-166.5 405.54,-118.18 405.14,-91.41"/>
<polygon fill="midnightblue" stroke="midnightblue" points="408.63,-91.04 404.98,-81.1 401.63,-91.15 408.63,-91.04"/>
</g>
<!-- Node17 -->
<g id="node17" class="node">
<title>Node17</title>
<g id="a_node17"><a xlink:title=" ">
<polygon fill="none" stroke="#bfbfbf" points="340.85,-129 340.85,-148 384.85,-148 384.85,-129 340.85,-129"/>
<text text-anchor="middle" x="362.85" y="-136" font-family="Helvetica,sans-Serif" font-size="10.00">vector</text>
</a>
</g>
</g>
<!-- Node16&#45;&gt;Node17 -->
<g id="edge20" class="edge">
<title>Node16&#45;&gt;Node17</title>
<path fill="none" stroke="midnightblue" d="M397.3,-190.4C390.58,-180.46 381.54,-167.11 374.41,-156.57"/>
<polygon fill="midnightblue" stroke="midnightblue" points="377.24,-154.51 368.74,-148.19 371.44,-158.44 377.24,-154.51"/>
</g>
<!-- Node19 -->
<g id="node19" class="node">
<title>Node19</title>
<g id="a_node19"><a xlink:title=" ">
<polygon fill="none" stroke="#bfbfbf" points="627.35,-196 627.35,-215 712.35,-215 712.35,-196 627.35,-196"/>
<text text-anchor="middle" x="669.85" y="-203" font-family="Helvetica,sans-Serif" font-size="10.00">spdlog/spdlog.h</text>
</a>
</g>
</g>
<!-- Node18&#45;&gt;Node19 -->
<g id="edge25" class="edge">
<title>Node18&#45;&gt;Node19</title>
<path fill="none" stroke="midnightblue" d="M651.84,-257.4C655.21,-247.86 659.7,-235.18 663.35,-224.86"/>
<polygon fill="midnightblue" stroke="midnightblue" points="666.74,-225.79 666.77,-215.19 660.14,-223.45 666.74,-225.79"/>
</g>
</g>
</svg>
