<?xml version="1.0" encoding="UTF-8" standalone="no"?>
<!DOCTYPE svg PUBLIC "-//W3C//DTD SVG 1.1//EN"
 "http://www.w3.org/Graphics/SVG/1.1/DTD/svg11.dtd">
<!-- Generated by graphviz version 2.43.0 (0)
 -->
<!-- Title: Planners/src/SwingFootPlanner.cpp Pages: 1 -->
<!--zoomable 352 -->
<svg id="main" version="1.1" xmlns="http://www.w3.org/2000/svg" xmlns:xlink="http://www.w3.org/1999/xlink" xml:space="preserve" onload="init(evt)">
<style type="text/css"><![CDATA[
.edge:hover path { stroke: red; }
.edge:hover polygon { stroke: red; fill: red; }
]]></style>
<script type="text/javascript"><![CDATA[
var edges = document.getElementsByTagName('g');
if (edges && edges.length) {
  for (var i=0;i<edges.length;i++) {
    if (edges[i].id.substr(0,4)=='edge') {
      edges[i].setAttribute('class','edge');
    }
  }
}
]]></script>
        <defs>
                <circle id="rim" cx="0" cy="0" r="7"/>
                <circle id="rim2" cx="0" cy="0" r="3.5"/>
                <g id="zoomPlus">
                        <use xlink:href="#rim" fill="#404040">
                                <set attributeName="fill" to="#808080" begin="zoomplus.mouseover" end="zoomplus.mouseout"/>
                        </use>
                        <path d="M-4,0h8M0,-4v8" fill="none" stroke="white" stroke-width="1.5" pointer-events="none"/>
                </g>
                <g id="zoomMin">
                        <use xlink:href="#rim" fill="#404040">
                                <set attributeName="fill" to="#808080" begin="zoomminus.mouseover" end="zoomminus.mouseout"/>
                        </use>
                        <path d="M-4,0h8" fill="none" stroke="white" stroke-width="1.5" pointer-events="none"/>
                </g>
                <g id="dirArrow">
                        <path fill="none" stroke="white" stroke-width="1.5" d="M0,-3.0v7 M-2.5,-0.5L0,-3.0L2.5,-0.5"/>
                </g>
               <g id="resetDef">
                       <use xlink:href="#rim2" fill="#404040">
                               <set attributeName="fill" to="#808080" begin="reset.mouseover" end="reset.mouseout"/>
                       </use>
               </g>
        </defs>

<script type="text/javascript">
var viewWidth = 1193;
var viewHeight = 352;
var sectionId = 'dynsection-0';
</script>
<script xlink:href="svgpan.js"/>
<svg id="graph" class="graph">
<g id="viewport">
<title>Planners/src/SwingFootPlanner.cpp</title>
<!-- Node1 -->
<g id="node1" class="node">
<title>Node1</title>
<g id="a_node1"><a xlink:title=" ">
<polygon fill="#bfbfbf" stroke="black" points="370,-324.5 370,-343.5 542,-343.5 542,-324.5 370,-324.5"/>
<text text-anchor="middle" x="456" y="-331.5" font-family="Helvetica,sans-Serif" font-size="10.00">Planners/src/SwingFootPlanner.cpp</text>
</a>
</g>
</g>
<!-- Node2 -->
<g id="node2" class="node">
<title>Node2</title>
<g id="a_node2"><a xlink:href="SwingFootPlanner_8h.html" target="_top" xlink:title=" ">
<polygon fill="none" stroke="black" points="534,-257.5 534,-287.5 674,-287.5 674,-257.5 534,-257.5"/>
<text text-anchor="start" x="542" y="-275.5" font-family="Helvetica,sans-Serif" font-size="10.00">BipedalLocomotion/Planners</text>
<text text-anchor="middle" x="604" y="-264.5" font-family="Helvetica,sans-Serif" font-size="10.00">/SwingFootPlanner.h</text>
</a>
</g>
</g>
<!-- Node1&#45;&gt;Node2 -->
<g id="edge1" class="edge">
<title>Node1&#45;&gt;Node2</title>
<path fill="none" stroke="midnightblue" d="M477.2,-324.48C498.65,-315.85 532.45,-302.26 559.76,-291.29"/>
<polygon fill="midnightblue" stroke="midnightblue" points="561.15,-294.5 569.12,-287.52 558.54,-288.01 561.15,-294.5"/>
</g>
<!-- Node17 -->
<g id="node17" class="node">
<title>Node17</title>
<g id="a_node17"><a xlink:href="ContactList_8h.html" target="_top" xlink:title=" ">
<polygon fill="none" stroke="black" points="185,-190.5 185,-220.5 327,-220.5 327,-190.5 185,-190.5"/>
<text text-anchor="start" x="193" y="-208.5" font-family="Helvetica,sans-Serif" font-size="10.00">BipedalLocomotion/Contacts</text>
<text text-anchor="middle" x="256" y="-197.5" font-family="Helvetica,sans-Serif" font-size="10.00">/ContactList.h</text>
</a>
</g>
</g>
<!-- Node1&#45;&gt;Node17 -->
<g id="edge40" class="edge">
<title>Node1&#45;&gt;Node17</title>
<path fill="none" stroke="midnightblue" d="M442.25,-324.31C410.47,-304.2 331.23,-254.08 287.03,-226.13"/>
<polygon fill="midnightblue" stroke="midnightblue" points="288.74,-223.07 278.42,-220.68 285,-228.99 288.74,-223.07"/>
</g>
<!-- Node3 -->
<g id="node3" class="node">
<title>Node3</title>
<g id="a_node3"><a xlink:title=" ">
<polygon fill="none" stroke="#bfbfbf" points="670,-62 670,-81 722,-81 722,-62 670,-62"/>
<text text-anchor="middle" x="696" y="-69" font-family="Helvetica,sans-Serif" font-size="10.00">memory</text>
</a>
</g>
</g>
<!-- Node2&#45;&gt;Node3 -->
<g id="edge2" class="edge">
<title>Node2&#45;&gt;Node3</title>
<path fill="none" stroke="midnightblue" d="M614.36,-257.4C621.32,-247.53 630.4,-233.86 637,-221 658.34,-179.44 657.59,-166.35 675,-123 679.37,-112.13 684.4,-100.01 688.45,-90.37"/>
<polygon fill="midnightblue" stroke="midnightblue" points="691.71,-91.63 692.37,-81.05 685.26,-88.91 691.71,-91.63"/>
</g>
<!-- Node4 -->
<g id="node4" class="node">
<title>Node4</title>
<g id="a_node4"><a xlink:title=" ">
<polygon fill="none" stroke="#bfbfbf" points="284,-129 284,-148 360,-148 360,-129 284,-129"/>
<text text-anchor="middle" x="322" y="-136" font-family="Helvetica,sans-Serif" font-size="10.00">manif/manif.h</text>
</a>
</g>
</g>
<!-- Node2&#45;&gt;Node4 -->
<g id="edge3" class="edge">
<title>Node2&#45;&gt;Node4</title>
<path fill="none" stroke="midnightblue" d="M560.4,-257.41C533.12,-248.11 497.49,-235.08 467,-221 422.01,-200.22 372.18,-170.68 344.22,-153.46"/>
<polygon fill="midnightblue" stroke="midnightblue" points="345.96,-150.42 335.61,-148.12 342.27,-156.37 345.96,-150.42"/>
</g>
<!-- Node5 -->
<g id="node5" class="node">
<title>Node5</title>
<g id="a_node5"><a xlink:href="IParametersHandler_8h.html" target="_top" xlink:title=" ">
<polygon fill="none" stroke="black" points="476,-190.5 476,-220.5 628,-220.5 628,-190.5 476,-190.5"/>
<text text-anchor="start" x="484" y="-208.5" font-family="Helvetica,sans-Serif" font-size="10.00">BipedalLocomotion/Parameters</text>
<text text-anchor="middle" x="552" y="-197.5" font-family="Helvetica,sans-Serif" font-size="10.00">Handler/IParametersHandler.h</text>
</a>
</g>
</g>
<!-- Node2&#45;&gt;Node5 -->
<g id="edge4" class="edge">
<title>Node2&#45;&gt;Node5</title>
<path fill="none" stroke="midnightblue" d="M592.72,-257.4C585.97,-248.96 577.25,-238.07 569.62,-228.52"/>
<polygon fill="midnightblue" stroke="midnightblue" points="572.24,-226.2 563.26,-220.58 566.78,-230.57 572.24,-226.2"/>
</g>
<!-- Node2&#45;&gt;Node17 -->
<g id="edge19" class="edge">
<title>Node2&#45;&gt;Node17</title>
<path fill="none" stroke="midnightblue" d="M534,-258.42C477.15,-247.81 396.9,-232.82 337.23,-221.67"/>
<polygon fill="midnightblue" stroke="midnightblue" points="337.56,-218.17 327.09,-219.78 336.27,-225.05 337.56,-218.17"/>
</g>
<!-- Node21 -->
<g id="node21" class="node">
<title>Node21</title>
<g id="a_node21"><a xlink:href="QuinticSpline_8h.html" target="_top" xlink:title=" ">
<polygon fill="none" stroke="black" points="686,-190.5 686,-220.5 826,-220.5 826,-190.5 686,-190.5"/>
<text text-anchor="start" x="694" y="-208.5" font-family="Helvetica,sans-Serif" font-size="10.00">BipedalLocomotion/Planners</text>
<text text-anchor="middle" x="756" y="-197.5" font-family="Helvetica,sans-Serif" font-size="10.00">/QuinticSpline.h</text>
</a>
</g>
</g>
<!-- Node2&#45;&gt;Node21 -->
<g id="edge27" class="edge">
<title>Node2&#45;&gt;Node21</title>
<path fill="none" stroke="midnightblue" d="M636.98,-257.4C659.49,-247.77 689.5,-234.94 713.76,-224.56"/>
<polygon fill="midnightblue" stroke="midnightblue" points="715.26,-227.73 723.08,-220.58 712.51,-221.29 715.26,-227.73"/>
</g>
<!-- Node23 -->
<g id="node23" class="node">
<title>Node23</title>
<g id="a_node23"><a xlink:href="Advanceable_8h.html" target="_top" xlink:title=" ">
<polygon fill="none" stroke="black" points="876,-123.5 876,-153.5 1012,-153.5 1012,-123.5 876,-123.5"/>
<text text-anchor="start" x="884" y="-141.5" font-family="Helvetica,sans-Serif" font-size="10.00">BipedalLocomotion/System</text>
<text text-anchor="middle" x="944" y="-130.5" font-family="Helvetica,sans-Serif" font-size="10.00">/Advanceable.h</text>
</a>
</g>
</g>
<!-- Node2&#45;&gt;Node23 -->
<g id="edge39" class="edge">
<title>Node2&#45;&gt;Node23</title>
<path fill="none" stroke="midnightblue" d="M674.18,-264.06C721.29,-257.19 783.85,-244.37 835,-221 868.2,-205.83 901.03,-179.29 921.84,-160.62"/>
<polygon fill="midnightblue" stroke="midnightblue" points="924.44,-162.98 929.46,-153.65 919.72,-157.82 924.44,-162.98"/>
</g>
<!-- Node24 -->
<g id="node24" class="node">
<title>Node24</title>
<g id="a_node24"><a xlink:href="SO3Planner_8h.html" target="_top" xlink:title=" ">
<polygon fill="none" stroke="black" points="1030,-190.5 1030,-220.5 1170,-220.5 1170,-190.5 1030,-190.5"/>
<text text-anchor="start" x="1038" y="-208.5" font-family="Helvetica,sans-Serif" font-size="10.00">BipedalLocomotion/Planners</text>
<text text-anchor="middle" x="1100" y="-197.5" font-family="Helvetica,sans-Serif" font-size="10.00">/SO3Planner.h</text>
</a>
</g>
</g>
<!-- Node2&#45;&gt;Node24 -->
<g id="edge32" class="edge">
<title>Node2&#45;&gt;Node24</title>
<path fill="none" stroke="midnightblue" d="M674.01,-262.32C765.18,-250.38 924.18,-229.54 1020.01,-216.98"/>
<polygon fill="midnightblue" stroke="midnightblue" points="1020.48,-220.45 1029.94,-215.68 1019.57,-213.51 1020.48,-220.45"/>
</g>
<!-- Node5&#45;&gt;Node3 -->
<g id="edge5" class="edge">
<title>Node5&#45;&gt;Node3</title>
<path fill="none" stroke="midnightblue" d="M567.41,-190.37C594.62,-165.43 650.95,-113.8 679.15,-87.95"/>
<polygon fill="midnightblue" stroke="midnightblue" points="681.61,-90.43 686.62,-81.1 676.88,-85.27 681.61,-90.43"/>
</g>
<!-- Node6 -->
<g id="node6" class="node">
<title>Node6</title>
<g id="a_node6"><a xlink:title=" ">
<polygon fill="none" stroke="#bfbfbf" points="172.5,-62 172.5,-81 213.5,-81 213.5,-62 172.5,-62"/>
<text text-anchor="middle" x="193" y="-69" font-family="Helvetica,sans-Serif" font-size="10.00">string</text>
</a>
</g>
</g>
<!-- Node5&#45;&gt;Node6 -->
<g id="edge6" class="edge">
<title>Node5&#45;&gt;Node6</title>
<path fill="none" stroke="midnightblue" d="M497.39,-190.41C469.37,-181.98 435.27,-169.8 407,-154 387.97,-143.37 388.51,-132.72 369,-123 308.79,-93 285.14,-110.19 222,-87 220.61,-86.49 219.21,-85.93 217.8,-85.34"/>
<polygon fill="midnightblue" stroke="midnightblue" points="219.22,-82.14 208.67,-81.13 216.29,-88.5 219.22,-82.14"/>
</g>
<!-- Node7 -->
<g id="node7" class="node">
<title>Node7</title>
<g id="a_node7"><a xlink:title=" ">
<polygon fill="none" stroke="#bfbfbf" points="684,-129 684,-148 728,-148 728,-129 684,-129"/>
<text text-anchor="middle" x="706" y="-136" font-family="Helvetica,sans-Serif" font-size="10.00">vector</text>
</a>
</g>
</g>
<!-- Node5&#45;&gt;Node7 -->
<g id="edge7" class="edge">
<title>Node5&#45;&gt;Node7</title>
<path fill="none" stroke="midnightblue" d="M585.42,-190.4C612.56,-178.94 650.47,-162.94 676.5,-151.95"/>
<polygon fill="midnightblue" stroke="midnightblue" points="677.99,-155.12 685.84,-148.01 675.27,-148.67 677.99,-155.12"/>
</g>
<!-- Node8 -->
<g id="node8" class="node">
<title>Node8</title>
<g id="a_node8"><a xlink:href="Vector_8h_source.html" target="_top" xlink:title=" ">
<polygon fill="none" stroke="black" points="416,-123.5 416,-153.5 552,-153.5 552,-123.5 416,-123.5"/>
<text text-anchor="start" x="424" y="-141.5" font-family="Helvetica,sans-Serif" font-size="10.00">BipedalLocomotion/Generic</text>
<text text-anchor="middle" x="484" y="-130.5" font-family="Helvetica,sans-Serif" font-size="10.00">Container/Vector.h</text>
</a>
</g>
</g>
<!-- Node5&#45;&gt;Node8 -->
<g id="edge8" class="edge">
<title>Node5&#45;&gt;Node8</title>
<path fill="none" stroke="midnightblue" d="M537.25,-190.4C528.16,-181.71 516.33,-170.4 506.13,-160.66"/>
<polygon fill="midnightblue" stroke="midnightblue" points="508.37,-157.96 498.73,-153.58 503.54,-163.02 508.37,-157.96"/>
</g>
<!-- Node10 -->
<g id="node10" class="node">
<title>Node10</title>
<g id="a_node10"><a xlink:href="TemplateHelpers_8h_source.html" target="_top" xlink:title=" ">
<polygon fill="none" stroke="black" points="508.5,-56.5 508.5,-86.5 651.5,-86.5 651.5,-56.5 508.5,-56.5"/>
<text text-anchor="start" x="516.5" y="-74.5" font-family="Helvetica,sans-Serif" font-size="10.00">BipedalLocomotion/Generic</text>
<text text-anchor="middle" x="580" y="-63.5" font-family="Helvetica,sans-Serif" font-size="10.00">Container/TemplateHelpers.h</text>
</a>
</g>
</g>
<!-- Node5&#45;&gt;Node10 -->
<g id="edge18" class="edge">
<title>Node5&#45;&gt;Node10</title>
<path fill="none" stroke="midnightblue" d="M555,-190.37C559.75,-167.94 569.09,-123.92 574.91,-96.49"/>
<polygon fill="midnightblue" stroke="midnightblue" points="578.37,-97.03 577.03,-86.52 571.53,-95.58 578.37,-97.03"/>
</g>
<!-- Node8&#45;&gt;Node3 -->
<g id="edge17" class="edge">
<title>Node8&#45;&gt;Node3</title>
<path fill="none" stroke="midnightblue" d="M538.37,-123.46C573.38,-114.04 619.72,-100.85 660,-87 662.12,-86.27 664.3,-85.48 666.49,-84.67"/>
<polygon fill="midnightblue" stroke="midnightblue" points="667.9,-87.88 675.96,-81 665.37,-81.35 667.9,-87.88"/>
</g>
<!-- Node9 -->
<g id="node9" class="node">
<title>Node9</title>
<g id="a_node9"><a xlink:title=" ">
<polygon fill="none" stroke="#bfbfbf" points="309,-62 309,-81 423,-81 423,-62 309,-62"/>
<text text-anchor="middle" x="366" y="-69" font-family="Helvetica,sans-Serif" font-size="10.00">iDynTree/Core/Span.h</text>
</a>
</g>
</g>
<!-- Node8&#45;&gt;Node9 -->
<g id="edge9" class="edge">
<title>Node8&#45;&gt;Node9</title>
<path fill="none" stroke="midnightblue" d="M458.4,-123.4C438.15,-112.24 410.08,-96.78 390.21,-85.83"/>
<polygon fill="midnightblue" stroke="midnightblue" points="391.89,-82.77 381.44,-81.01 388.51,-88.9 391.89,-82.77"/>
</g>
<!-- Node8&#45;&gt;Node10 -->
<g id="edge10" class="edge">
<title>Node8&#45;&gt;Node10</title>
<path fill="none" stroke="midnightblue" d="M504.83,-123.4C518.29,-114.28 536,-102.29 550.85,-92.24"/>
<polygon fill="midnightblue" stroke="midnightblue" points="552.89,-95.08 559.21,-86.58 548.97,-89.28 552.89,-95.08"/>
</g>
<!-- Node14 -->
<g id="node14" class="node">
<title>Node14</title>
<g id="a_node14"><a xlink:title=" ">
<polygon fill="none" stroke="#bfbfbf" points="231.5,-62 231.5,-81 290.5,-81 290.5,-62 231.5,-62"/>
<text text-anchor="middle" x="261" y="-69" font-family="Helvetica,sans-Serif" font-size="10.00">functional</text>
</a>
</g>
</g>
<!-- Node8&#45;&gt;Node14 -->
<g id="edge14" class="edge">
<title>Node8&#45;&gt;Node14</title>
<path fill="none" stroke="midnightblue" d="M427.66,-123.41C391.04,-113.92 342.4,-100.67 300,-87 297.59,-86.22 295.12,-85.39 292.63,-84.53"/>
<polygon fill="midnightblue" stroke="midnightblue" points="293.75,-81.21 283.16,-81.12 291.38,-87.8 293.75,-81.21"/>
</g>
<!-- Node15 -->
<g id="node15" class="node">
<title>Node15</title>
<g id="a_node15"><a xlink:title=" ">
<polygon fill="none" stroke="#bfbfbf" points="441.5,-62 441.5,-81 490.5,-81 490.5,-62 441.5,-62"/>
<text text-anchor="middle" x="466" y="-69" font-family="Helvetica,sans-Serif" font-size="10.00">cassert</text>
</a>
</g>
</g>
<!-- Node8&#45;&gt;Node15 -->
<g id="edge15" class="edge">
<title>Node8&#45;&gt;Node15</title>
<path fill="none" stroke="midnightblue" d="M480.09,-123.4C477.45,-113.86 473.94,-101.18 471.08,-90.86"/>
<polygon fill="midnightblue" stroke="midnightblue" points="474.45,-89.9 468.41,-81.19 467.7,-91.77 474.45,-89.9"/>
</g>
<!-- Node16 -->
<g id="node16" class="node">
<title>Node16</title>
<g id="a_node16"><a xlink:title=" ">
<polygon fill="none" stroke="#bfbfbf" points="915,-62 915,-81 969,-81 969,-62 915,-62"/>
<text text-anchor="middle" x="942" y="-69" font-family="Helvetica,sans-Serif" font-size="10.00">iostream</text>
</a>
</g>
</g>
<!-- Node8&#45;&gt;Node16 -->
<g id="edge16" class="edge">
<title>Node8&#45;&gt;Node16</title>
<path fill="none" stroke="midnightblue" d="M552.07,-127.84C650.13,-113.92 827.78,-88.71 904.76,-77.79"/>
<polygon fill="midnightblue" stroke="midnightblue" points="905.53,-81.21 914.94,-76.34 904.54,-74.28 905.53,-81.21"/>
</g>
<!-- Node11 -->
<g id="node11" class="node">
<title>Node11</title>
<g id="a_node11"><a xlink:title=" ">
<polygon fill="none" stroke="#bfbfbf" points="467,-0.5 467,-19.5 529,-19.5 529,-0.5 467,-0.5"/>
<text text-anchor="middle" x="498" y="-7.5" font-family="Helvetica,sans-Serif" font-size="10.00">type_traits</text>
</a>
</g>
</g>
<!-- Node10&#45;&gt;Node11 -->
<g id="edge11" class="edge">
<title>Node10&#45;&gt;Node11</title>
<path fill="none" stroke="midnightblue" d="M560.57,-56.4C547.79,-47.13 531.11,-35.03 518.19,-25.65"/>
<polygon fill="midnightblue" stroke="midnightblue" points="520.08,-22.7 509.93,-19.66 515.97,-28.36 520.08,-22.7"/>
</g>
<!-- Node12 -->
<g id="node12" class="node">
<title>Node12</title>
<g id="a_node12"><a xlink:title=" ">
<polygon fill="none" stroke="#bfbfbf" points="547,-0.5 547,-19.5 613,-19.5 613,-0.5 547,-0.5"/>
<text text-anchor="middle" x="580" y="-7.5" font-family="Helvetica,sans-Serif" font-size="10.00">string_view</text>
</a>
</g>
</g>
<!-- Node10&#45;&gt;Node12 -->
<g id="edge12" class="edge">
<title>Node10&#45;&gt;Node12</title>
<path fill="none" stroke="midnightblue" d="M580,-56.4C580,-48.47 580,-38.46 580,-29.86"/>
<polygon fill="midnightblue" stroke="midnightblue" points="583.5,-29.66 580,-19.66 576.5,-29.66 583.5,-29.66"/>
</g>
<!-- Node13 -->
<g id="node13" class="node">
<title>Node13</title>
<g id="a_node13"><a xlink:title=" ">
<polygon fill="none" stroke="#bfbfbf" points="631.5,-0.5 631.5,-19.5 696.5,-19.5 696.5,-0.5 631.5,-0.5"/>
<text text-anchor="middle" x="664" y="-7.5" font-family="Helvetica,sans-Serif" font-size="10.00">Eigen/Core</text>
</a>
</g>
</g>
<!-- Node10&#45;&gt;Node13 -->
<g id="edge13" class="edge">
<title>Node10&#45;&gt;Node13</title>
<path fill="none" stroke="midnightblue" d="M599.91,-56.4C612.99,-47.13 630.08,-35.03 643.32,-25.65"/>
<polygon fill="midnightblue" stroke="midnightblue" points="645.64,-28.29 651.78,-19.66 641.59,-22.58 645.64,-28.29"/>
</g>
<!-- Node17&#45;&gt;Node4 -->
<g id="edge23" class="edge">
<title>Node17&#45;&gt;Node4</title>
<path fill="none" stroke="midnightblue" d="M270.32,-190.4C280.82,-180.06 295.07,-166.02 305.95,-155.31"/>
<polygon fill="midnightblue" stroke="midnightblue" points="308.5,-157.71 313.17,-148.19 303.59,-152.72 308.5,-157.71"/>
</g>
<!-- Node17&#45;&gt;Node6 -->
<g id="edge25" class="edge">
<title>Node17&#45;&gt;Node6</title>
<path fill="none" stroke="midnightblue" d="M249.26,-190.37C237.71,-166.18 214.18,-116.88 201.52,-90.35"/>
<polygon fill="midnightblue" stroke="midnightblue" points="204.57,-88.61 197.1,-81.1 198.25,-91.63 204.57,-88.61"/>
</g>
<!-- Node17&#45;&gt;Node14 -->
<g id="edge26" class="edge">
<title>Node17&#45;&gt;Node14</title>
<path fill="none" stroke="midnightblue" d="M256.54,-190.37C257.44,-166.5 259.27,-118.18 260.28,-91.41"/>
<polygon fill="midnightblue" stroke="midnightblue" points="263.79,-91.22 260.67,-81.1 256.8,-90.96 263.79,-91.22"/>
</g>
<!-- Node18 -->
<g id="node18" class="node">
<title>Node18</title>
<g id="a_node18"><a xlink:href="Contact_8h.html" target="_top" xlink:title=" ">
<polygon fill="none" stroke="black" points="0,-123.5 0,-153.5 142,-153.5 142,-123.5 0,-123.5"/>
<text text-anchor="start" x="8" y="-141.5" font-family="Helvetica,sans-Serif" font-size="10.00">BipedalLocomotion/Contacts</text>
<text text-anchor="middle" x="71" y="-130.5" font-family="Helvetica,sans-Serif" font-size="10.00">/Contact.h</text>
</a>
</g>
</g>
<!-- Node17&#45;&gt;Node18 -->
<g id="edge20" class="edge">
<title>Node17&#45;&gt;Node18</title>
<path fill="none" stroke="midnightblue" d="M215.86,-190.4C187.98,-180.6 150.64,-167.48 120.85,-157.02"/>
<polygon fill="midnightblue" stroke="midnightblue" points="121.66,-153.59 111.06,-153.58 119.34,-160.19 121.66,-153.59"/>
</g>
<!-- Node20 -->
<g id="node20" class="node">
<title>Node20</title>
<g id="a_node20"><a xlink:title=" ">
<polygon fill="none" stroke="#bfbfbf" points="160,-129 160,-148 190,-148 190,-129 160,-129"/>
<text text-anchor="middle" x="175" y="-136" font-family="Helvetica,sans-Serif" font-size="10.00">set</text>
</a>
</g>
</g>
<!-- Node17&#45;&gt;Node20 -->
<g id="edge24" class="edge">
<title>Node17&#45;&gt;Node20</title>
<path fill="none" stroke="midnightblue" d="M238.42,-190.4C225.29,-179.86 207.37,-165.48 193.93,-154.69"/>
<polygon fill="midnightblue" stroke="midnightblue" points="195.82,-151.72 185.83,-148.19 191.44,-157.18 195.82,-151.72"/>
</g>
<!-- Node18&#45;&gt;Node6 -->
<g id="edge22" class="edge">
<title>Node18&#45;&gt;Node6</title>
<path fill="none" stroke="midnightblue" d="M97.47,-123.4C118.4,-112.24 147.43,-96.78 167.97,-85.83"/>
<polygon fill="midnightblue" stroke="midnightblue" points="169.85,-88.8 177.03,-81.01 166.56,-82.62 169.85,-88.8"/>
</g>
<!-- Node19 -->
<g id="node19" class="node">
<title>Node19</title>
<g id="a_node19"><a xlink:title=" ">
<polygon fill="none" stroke="#bfbfbf" points="35.5,-62 35.5,-81 106.5,-81 106.5,-62 35.5,-62"/>
<text text-anchor="middle" x="71" y="-69" font-family="Helvetica,sans-Serif" font-size="10.00">manif/SE3.h</text>
</a>
</g>
</g>
<!-- Node18&#45;&gt;Node19 -->
<g id="edge21" class="edge">
<title>Node18&#45;&gt;Node19</title>
<path fill="none" stroke="midnightblue" d="M71,-123.4C71,-114.06 71,-101.71 71,-91.52"/>
<polygon fill="midnightblue" stroke="midnightblue" points="74.5,-91.19 71,-81.19 67.5,-91.19 74.5,-91.19"/>
</g>
<!-- Node21&#45;&gt;Node3 -->
<g id="edge29" class="edge">
<title>Node21&#45;&gt;Node3</title>
<path fill="none" stroke="midnightblue" d="M754.65,-190.3C752.62,-173.51 747.8,-145.05 737,-123 730.78,-110.29 720.82,-97.93 712.28,-88.61"/>
<polygon fill="midnightblue" stroke="midnightblue" points="714.71,-86.09 705.27,-81.28 709.65,-90.93 714.71,-86.09"/>
</g>
<!-- Node21&#45;&gt;Node7 -->
<g id="edge28" class="edge">
<title>Node21&#45;&gt;Node7</title>
<path fill="none" stroke="midnightblue" d="M745.15,-190.4C737.43,-180.36 727.03,-166.84 718.89,-156.25"/>
<polygon fill="midnightblue" stroke="midnightblue" points="721.56,-153.99 712.69,-148.19 716.01,-158.25 721.56,-153.99"/>
</g>
<!-- Node22 -->
<g id="node22" class="node">
<title>Node22</title>
<g id="a_node22"><a xlink:title=" ">
<polygon fill="none" stroke="#bfbfbf" points="784.5,-129 784.5,-148 857.5,-148 857.5,-129 784.5,-129"/>
<text text-anchor="middle" x="821" y="-136" font-family="Helvetica,sans-Serif" font-size="10.00">Eigen/Dense</text>
</a>
</g>
</g>
<!-- Node21&#45;&gt;Node22 -->
<g id="edge30" class="edge">
<title>Node21&#45;&gt;Node22</title>
<path fill="none" stroke="midnightblue" d="M770.1,-190.4C780.44,-180.06 794.48,-166.02 805.19,-155.31"/>
<polygon fill="midnightblue" stroke="midnightblue" points="807.71,-157.74 812.31,-148.19 802.76,-152.79 807.71,-157.74"/>
</g>
<!-- Node21&#45;&gt;Node23 -->
<g id="edge31" class="edge">
<title>Node21&#45;&gt;Node23</title>
<path fill="none" stroke="midnightblue" d="M796.79,-190.4C825.25,-180.56 863.4,-167.37 893.73,-156.88"/>
<polygon fill="midnightblue" stroke="midnightblue" points="894.98,-160.15 903.29,-153.58 892.69,-153.54 894.98,-160.15"/>
</g>
<!-- Node24&#45;&gt;Node23 -->
<g id="edge34" class="edge">
<title>Node24&#45;&gt;Node23</title>
<path fill="none" stroke="midnightblue" d="M1066.15,-190.4C1042.95,-180.73 1011.97,-167.82 987.02,-157.43"/>
<polygon fill="midnightblue" stroke="midnightblue" points="988.36,-154.19 977.78,-153.58 985.67,-160.65 988.36,-154.19"/>
</g>
<!-- Node25 -->
<g id="node25" class="node">
<title>Node25</title>
<g id="a_node25"><a xlink:title=" ">
<polygon fill="none" stroke="#bfbfbf" points="1113.5,-62 1113.5,-81 1184.5,-81 1184.5,-62 1113.5,-62"/>
<text text-anchor="middle" x="1149" y="-69" font-family="Helvetica,sans-Serif" font-size="10.00">manif/SO3.h</text>
</a>
</g>
</g>
<!-- Node24&#45;&gt;Node25 -->
<g id="edge33" class="edge">
<title>Node24&#45;&gt;Node25</title>
<path fill="none" stroke="midnightblue" d="M1137.31,-190.36C1153.15,-182.28 1170.01,-170.42 1179,-154 1190.59,-132.83 1175.95,-106.26 1163.36,-89.33"/>
<polygon fill="midnightblue" stroke="midnightblue" points="1166.06,-87.1 1157.11,-81.43 1160.57,-91.45 1166.06,-87.1"/>
</g>
<!-- Node26 -->
<g id="node26" class="node">
<title>Node26</title>
<g id="a_node26"><a xlink:href="SO3Planner_8tpp.html" target="_top" xlink:title=" ">
<polygon fill="none" stroke="black" points="1030,-123.5 1030,-153.5 1170,-153.5 1170,-123.5 1030,-123.5"/>
<text text-anchor="start" x="1038" y="-141.5" font-family="Helvetica,sans-Serif" font-size="10.00">BipedalLocomotion/Planners</text>
<text text-anchor="middle" x="1100" y="-130.5" font-family="Helvetica,sans-Serif" font-size="10.00">/SO3Planner.tpp</text>
</a>
</g>
</g>
<!-- Node24&#45;&gt;Node26 -->
<g id="edge35" class="edge">
<title>Node24&#45;&gt;Node26</title>
<path fill="none" stroke="midnightblue" d="M1094.32,-190.4C1093.29,-182.56 1093.01,-172.6 1093.46,-163.57"/>
<polygon fill="midnightblue" stroke="midnightblue" points="1096.95,-163.84 1094.33,-153.58 1089.97,-163.24 1096.95,-163.84"/>
</g>
<!-- Node26&#45;&gt;Node16 -->
<g id="edge36" class="edge">
<title>Node26&#45;&gt;Node16</title>
<path fill="none" stroke="midnightblue" d="M1065.72,-123.4C1037.87,-111.94 998.97,-95.94 972.27,-84.95"/>
<polygon fill="midnightblue" stroke="midnightblue" points="973.26,-81.57 962.68,-81.01 970.59,-88.05 973.26,-81.57"/>
</g>
<!-- Node26&#45;&gt;Node24 -->
<g id="edge38" class="edge">
<title>Node26&#45;&gt;Node24</title>
<path fill="none" stroke="midnightblue" d="M1105.67,-153.58C1106.7,-161.41 1106.99,-171.37 1106.55,-180.4"/>
<polygon fill="midnightblue" stroke="midnightblue" points="1103.06,-180.13 1105.68,-190.4 1110.03,-180.74 1103.06,-180.13"/>
</g>
<!-- Node26&#45;&gt;Node25 -->
<g id="edge37" class="edge">
<title>Node26&#45;&gt;Node25</title>
<path fill="none" stroke="midnightblue" d="M1110.63,-123.4C1118.2,-113.36 1128.39,-99.84 1136.37,-89.25"/>
<polygon fill="midnightblue" stroke="midnightblue" points="1139.22,-91.29 1142.45,-81.19 1133.63,-87.07 1139.22,-91.29"/>
</g>
</g>
</svg>
        <g id="navigator" transform="translate(0 0)" fill="#404254">
                <rect fill="#f2f5e9" fill-opacity="0.5" stroke="#606060" stroke-width=".5" x="0" y="0" width="60" height="60"/>
                <use id="zoomplus" xlink:href="#zoomPlus" x="17" y="9" onmousedown="handleZoom(evt,'in')"/>
                <use id="zoomminus" xlink:href="#zoomMin" x="42" y="9" onmousedown="handleZoom(evt,'out')"/>
                <use id="reset" xlink:href="#resetDef" x="30" y="36" onmousedown="handleReset()"/>
                <g id="arrowUp" xlink:href="#dirArrow" transform="translate(30 24)" onmousedown="handlePan(0,-1)">
                  <use xlink:href="#rim" fill="#404040">
                        <set attributeName="fill" to="#808080" begin="arrowUp.mouseover" end="arrowUp.mouseout"/>
                  </use>
                  <path fill="none" stroke="white" stroke-width="1.5" d="M0,-3.0v7 M-2.5,-0.5L0,-3.0L2.5,-0.5"/>
                </g>
                <g id="arrowRight" xlink:href="#dirArrow" transform="rotate(90) translate(36 -43)" onmousedown="handlePan(1,0)">
                  <use xlink:href="#rim" fill="#404040">
                        <set attributeName="fill" to="#808080" begin="arrowRight.mouseover" end="arrowRight.mouseout"/>
                  </use>
                  <path fill="none" stroke="white" stroke-width="1.5" d="M0,-3.0v7 M-2.5,-0.5L0,-3.0L2.5,-0.5"/>
                </g>
                <g id="arrowDown" xlink:href="#dirArrow" transform="rotate(180) translate(-30 -48)" onmousedown="handlePan(0,1)">
                  <use xlink:href="#rim" fill="#404040">
                        <set attributeName="fill" to="#808080" begin="arrowDown.mouseover" end="arrowDown.mouseout"/>
                  </use>
                  <path fill="none" stroke="white" stroke-width="1.5" d="M0,-3.0v7 M-2.5,-0.5L0,-3.0L2.5,-0.5"/>
                </g>
                <g id="arrowLeft" xlink:href="#dirArrow" transform="rotate(270) translate(-36 17)" onmousedown="handlePan(-1,0)">
                  <use xlink:href="#rim" fill="#404040">
                        <set attributeName="fill" to="#808080" begin="arrowLeft.mouseover" end="arrowLeft.mouseout"/>
                  </use>
                  <path fill="none" stroke="white" stroke-width="1.5" d="M0,-3.0v7 M-2.5,-0.5L0,-3.0L2.5,-0.5"/>
                </g>
        </g>
        <svg viewBox="0 0 15 15" width="100%" height="30px" preserveAspectRatio="xMaxYMin meet">
         <g id="arrow_out" transform="scale(0.3 0.3)">
          <a xlink:href="SwingFootPlanner_8cpp__incl_org.svg" target="_base">
           <rect id="button" ry="5" rx="5" y="6" x="6" height="38" width="38"
                fill="#f2f5e9" fill-opacity="0.5" stroke="#606060" stroke-width="1.0"/>
           <path id="arrow"
             d="M 11.500037,31.436501 C 11.940474,20.09759 22.043105,11.32322 32.158766,21.979434 L 37.068811,17.246167 C 37.068811,17.246167 37.088388,32 37.088388,32 L 22.160133,31.978069 C 22.160133,31.978069 26.997745,27.140456 26.997745,27.140456 C 18.528582,18.264221 13.291696,25.230495 11.500037,31.436501 z"
             style="fill:#404040;"/>
          </a>
         </g>
        </svg>
</svg>
