<?xml version="1.0" encoding="UTF-8" standalone="no"?>
<!DOCTYPE svg PUBLIC "-//W3C//DTD SVG 1.1//EN"
 "http://www.w3.org/Graphics/SVG/1.1/DTD/svg11.dtd">
<!-- Generated by graphviz version 2.43.0 (0)
 -->
<!-- Title: Planners/include/BipedalLocomotion/Planners/SwingFootPlanner.h Pages: 1 -->
<!--zoomable 307 -->
<svg id="main" version="1.1" xmlns="http://www.w3.org/2000/svg" xmlns:xlink="http://www.w3.org/1999/xlink" xml:space="preserve" onload="init(evt)">
<style type="text/css"><![CDATA[
.edge:hover path { stroke: red; }
.edge:hover polygon { stroke: red; fill: red; }
]]></style>
<script type="text/javascript"><![CDATA[
var edges = document.getElementsByTagName('g');
if (edges && edges.length) {
  for (var i=0;i<edges.length;i++) {
    if (edges[i].id.substr(0,4)=='edge') {
      edges[i].setAttribute('class','edge');
    }
  }
}
]]></script>
        <defs>
                <circle id="rim" cx="0" cy="0" r="7"/>
                <circle id="rim2" cx="0" cy="0" r="3.5"/>
                <g id="zoomPlus">
                        <use xlink:href="#rim" fill="#404040">
                                <set attributeName="fill" to="#808080" begin="zoomplus.mouseover" end="zoomplus.mouseout"/>
                        </use>
                        <path d="M-4,0h8M0,-4v8" fill="none" stroke="white" stroke-width="1.5" pointer-events="none"/>
                </g>
                <g id="zoomMin">
                        <use xlink:href="#rim" fill="#404040">
                                <set attributeName="fill" to="#808080" begin="zoomminus.mouseover" end="zoomminus.mouseout"/>
                        </use>
                        <path d="M-4,0h8" fill="none" stroke="white" stroke-width="1.5" pointer-events="none"/>
                </g>
                <g id="dirArrow">
                        <path fill="none" stroke="white" stroke-width="1.5" d="M0,-3.0v7 M-2.5,-0.5L0,-3.0L2.5,-0.5"/>
                </g>
               <g id="resetDef">
                       <use xlink:href="#rim2" fill="#404040">
                               <set attributeName="fill" to="#808080" begin="reset.mouseover" end="reset.mouseout"/>
                       </use>
               </g>
        </defs>

<script type="text/javascript">
var viewWidth = 1207;
var viewHeight = 307;
var sectionId = 'dynsection-0';
</script>
<script xlink:href="svgpan.js"/>
<svg id="graph" class="graph">
<g id="viewport">
<title>Planners/include/BipedalLocomotion/Planners/SwingFootPlanner.h</title>
<!-- Node1 -->
<g id="node1" class="node">
<title>Node1</title>
<g id="a_node1"><a xlink:title=" ">
<polygon fill="#bfbfbf" stroke="black" points="466,-257.5 466,-298.5 624,-298.5 624,-257.5 466,-257.5"/>
<text text-anchor="start" x="474" y="-286.5" font-family="Helvetica,sans-Serif" font-size="10.00">Planners/include/Bipedal</text>
<text text-anchor="start" x="474" y="-275.5" font-family="Helvetica,sans-Serif" font-size="10.00">Locomotion/Planners/SwingFoot</text>
<text text-anchor="middle" x="545" y="-264.5" font-family="Helvetica,sans-Serif" font-size="10.00">Planner.h</text>
</a>
</g>
</g>
<!-- Node2 -->
<g id="node2" class="node">
<title>Node2</title>
<g id="a_node2"><a xlink:title=" ">
<polygon fill="none" stroke="#bfbfbf" points="0,-62 0,-81 52,-81 52,-62 0,-62"/>
<text text-anchor="middle" x="26" y="-69" font-family="Helvetica,sans-Serif" font-size="10.00">memory</text>
</a>
</g>
</g>
<!-- Node1&#45;&gt;Node2 -->
<g id="edge1" class="edge">
<title>Node1&#45;&gt;Node2</title>
<path fill="none" stroke="midnightblue" d="M465.78,-275.9C389.37,-272.34 271.82,-260.19 178,-221 112.01,-193.43 58.8,-122.46 36.85,-89.63"/>
<polygon fill="midnightblue" stroke="midnightblue" points="39.68,-87.56 31.29,-81.1 33.82,-91.39 39.68,-87.56"/>
</g>
<!-- Node3 -->
<g id="node3" class="node">
<title>Node3</title>
<g id="a_node3"><a xlink:title=" ">
<polygon fill="none" stroke="#bfbfbf" points="358,-129 358,-148 434,-148 434,-129 358,-129"/>
<text text-anchor="middle" x="396" y="-136" font-family="Helvetica,sans-Serif" font-size="10.00">manif/manif.h</text>
</a>
</g>
</g>
<!-- Node1&#45;&gt;Node3 -->
<g id="edge2" class="edge">
<title>Node1&#45;&gt;Node3</title>
<path fill="none" stroke="midnightblue" d="M513.21,-257.48C497.93,-247.43 479.78,-234.48 465,-221 442.84,-200.79 421.13,-173.57 408.15,-156.27"/>
<polygon fill="midnightblue" stroke="midnightblue" points="410.96,-154.19 402.2,-148.22 405.33,-158.35 410.96,-154.19"/>
</g>
<!-- Node4 -->
<g id="node4" class="node">
<title>Node4</title>
<g id="a_node4"><a xlink:href="IParametersHandler_8h.html" target="_top" xlink:title=" ">
<polygon fill="none" stroke="black" points="187,-190.5 187,-220.5 339,-220.5 339,-190.5 187,-190.5"/>
<text text-anchor="start" x="195" y="-208.5" font-family="Helvetica,sans-Serif" font-size="10.00">BipedalLocomotion/Parameters</text>
<text text-anchor="middle" x="263" y="-197.5" font-family="Helvetica,sans-Serif" font-size="10.00">Handler/IParametersHandler.h</text>
</a>
</g>
</g>
<!-- Node1&#45;&gt;Node4 -->
<g id="edge3" class="edge">
<title>Node1&#45;&gt;Node4</title>
<path fill="none" stroke="midnightblue" d="M466.82,-257.46C423.6,-246.65 370.49,-233.37 329.32,-223.08"/>
<polygon fill="midnightblue" stroke="midnightblue" points="329.94,-219.63 319.39,-220.6 328.24,-226.42 329.94,-219.63"/>
</g>
<!-- Node16 -->
<g id="node16" class="node">
<title>Node16</title>
<g id="a_node16"><a xlink:href="ContactList_8h.html" target="_top" xlink:title=" ">
<polygon fill="none" stroke="black" points="474,-190.5 474,-220.5 616,-220.5 616,-190.5 474,-190.5"/>
<text text-anchor="start" x="482" y="-208.5" font-family="Helvetica,sans-Serif" font-size="10.00">BipedalLocomotion/Contacts</text>
<text text-anchor="middle" x="545" y="-197.5" font-family="Helvetica,sans-Serif" font-size="10.00">/ContactList.h</text>
</a>
</g>
</g>
<!-- Node1&#45;&gt;Node16 -->
<g id="edge18" class="edge">
<title>Node1&#45;&gt;Node16</title>
<path fill="none" stroke="midnightblue" d="M545,-257.36C545,-249.23 545,-239.7 545,-231.11"/>
<polygon fill="midnightblue" stroke="midnightblue" points="548.5,-230.89 545,-220.89 541.5,-230.89 548.5,-230.89"/>
</g>
<!-- Node20 -->
<g id="node20" class="node">
<title>Node20</title>
<g id="a_node20"><a xlink:href="QuinticSpline_8h.html" target="_top" xlink:title=" ">
<polygon fill="none" stroke="black" points="634,-190.5 634,-220.5 774,-220.5 774,-190.5 634,-190.5"/>
<text text-anchor="start" x="642" y="-208.5" font-family="Helvetica,sans-Serif" font-size="10.00">BipedalLocomotion/Planners</text>
<text text-anchor="middle" x="704" y="-197.5" font-family="Helvetica,sans-Serif" font-size="10.00">/QuinticSpline.h</text>
</a>
</g>
</g>
<!-- Node1&#45;&gt;Node20 -->
<g id="edge26" class="edge">
<title>Node1&#45;&gt;Node20</title>
<path fill="none" stroke="midnightblue" d="M589.29,-257.36C612.29,-247.17 640.21,-234.79 662.74,-224.79"/>
<polygon fill="midnightblue" stroke="midnightblue" points="664.32,-227.92 672.04,-220.67 661.48,-221.52 664.32,-227.92"/>
</g>
<!-- Node22 -->
<g id="node22" class="node">
<title>Node22</title>
<g id="a_node22"><a xlink:href="Advanceable_8h.html" target="_top" xlink:title=" ">
<polygon fill="none" stroke="black" points="890,-123.5 890,-153.5 1026,-153.5 1026,-123.5 890,-123.5"/>
<text text-anchor="start" x="898" y="-141.5" font-family="Helvetica,sans-Serif" font-size="10.00">BipedalLocomotion/System</text>
<text text-anchor="middle" x="958" y="-130.5" font-family="Helvetica,sans-Serif" font-size="10.00">/Advanceable.h</text>
</a>
</g>
</g>
<!-- Node1&#45;&gt;Node22 -->
<g id="edge38" class="edge">
<title>Node1&#45;&gt;Node22</title>
<path fill="none" stroke="midnightblue" d="M624.13,-262.62C671,-253.06 731.16,-238.96 783,-221 833.22,-203.6 888.38,-176.48 923.08,-158.36"/>
<polygon fill="midnightblue" stroke="midnightblue" points="925.09,-161.26 932.31,-153.51 921.83,-155.07 925.09,-161.26"/>
</g>
<!-- Node23 -->
<g id="node23" class="node">
<title>Node23</title>
<g id="a_node23"><a xlink:href="SO3Planner_8h.html" target="_top" xlink:title=" ">
<polygon fill="none" stroke="black" points="1044,-190.5 1044,-220.5 1184,-220.5 1184,-190.5 1044,-190.5"/>
<text text-anchor="start" x="1052" y="-208.5" font-family="Helvetica,sans-Serif" font-size="10.00">BipedalLocomotion/Planners</text>
<text text-anchor="middle" x="1114" y="-197.5" font-family="Helvetica,sans-Serif" font-size="10.00">/SO3Planner.h</text>
</a>
</g>
</g>
<!-- Node1&#45;&gt;Node23 -->
<g id="edge31" class="edge">
<title>Node1&#45;&gt;Node23</title>
<path fill="none" stroke="midnightblue" d="M624.12,-267.2C732.2,-253.81 924.96,-229.92 1033.67,-216.45"/>
<polygon fill="midnightblue" stroke="midnightblue" points="1034.11,-219.93 1043.61,-215.22 1033.25,-212.98 1034.11,-219.93"/>
</g>
<!-- Node4&#45;&gt;Node2 -->
<g id="edge4" class="edge">
<title>Node4&#45;&gt;Node2</title>
<path fill="none" stroke="midnightblue" d="M222.03,-190.4C197.57,-181.32 166.26,-168.52 140,-154 104.1,-134.15 66.03,-105.09 44.23,-87.57"/>
<polygon fill="midnightblue" stroke="midnightblue" points="46.42,-84.83 36.45,-81.25 42.01,-90.27 46.42,-84.83"/>
</g>
<!-- Node5 -->
<g id="node5" class="node">
<title>Node5</title>
<g id="a_node5"><a xlink:title=" ">
<polygon fill="none" stroke="#bfbfbf" points="589.5,-62 589.5,-81 630.5,-81 630.5,-62 589.5,-62"/>
<text text-anchor="middle" x="610" y="-69" font-family="Helvetica,sans-Serif" font-size="10.00">string</text>
</a>
</g>
</g>
<!-- Node4&#45;&gt;Node5 -->
<g id="edge5" class="edge">
<title>Node4&#45;&gt;Node5</title>
<path fill="none" stroke="midnightblue" d="M275.87,-190.42C295.42,-169.38 332.11,-131.3 349,-123 441.85,-77.35 480.04,-117.22 579,-87 580.88,-86.43 582.78,-85.76 584.68,-85.04"/>
<polygon fill="midnightblue" stroke="midnightblue" points="586.12,-88.23 593.93,-81.06 583.36,-81.79 586.12,-88.23"/>
</g>
<!-- Node6 -->
<g id="node6" class="node">
<title>Node6</title>
<g id="a_node6"><a xlink:title=" ">
<polygon fill="none" stroke="#bfbfbf" points="452,-129 452,-148 496,-148 496,-129 452,-129"/>
<text text-anchor="middle" x="474" y="-136" font-family="Helvetica,sans-Serif" font-size="10.00">vector</text>
</a>
</g>
</g>
<!-- Node4&#45;&gt;Node6 -->
<g id="edge6" class="edge">
<title>Node4&#45;&gt;Node6</title>
<path fill="none" stroke="midnightblue" d="M322.55,-190.41C358,-181.38 403.6,-168.63 443,-154 444.43,-153.47 445.88,-152.9 447.34,-152.31"/>
<polygon fill="midnightblue" stroke="midnightblue" points="449.08,-155.36 456.83,-148.14 446.27,-148.95 449.08,-155.36"/>
</g>
<!-- Node7 -->
<g id="node7" class="node">
<title>Node7</title>
<g id="a_node7"><a xlink:href="Vector_8h_source.html" target="_top" xlink:title=" ">
<polygon fill="none" stroke="black" points="166,-123.5 166,-153.5 302,-153.5 302,-123.5 166,-123.5"/>
<text text-anchor="start" x="174" y="-141.5" font-family="Helvetica,sans-Serif" font-size="10.00">BipedalLocomotion/Generic</text>
<text text-anchor="middle" x="234" y="-130.5" font-family="Helvetica,sans-Serif" font-size="10.00">Container/Vector.h</text>
</a>
</g>
</g>
<!-- Node4&#45;&gt;Node7 -->
<g id="edge7" class="edge">
<title>Node4&#45;&gt;Node7</title>
<path fill="none" stroke="midnightblue" d="M256.71,-190.4C253.14,-182.39 248.57,-172.16 244.47,-162.98"/>
<polygon fill="midnightblue" stroke="midnightblue" points="247.55,-161.28 240.28,-153.58 241.16,-164.13 247.55,-161.28"/>
</g>
<!-- Node9 -->
<g id="node9" class="node">
<title>Node9</title>
<g id="a_node9"><a xlink:href="TemplateHelpers_8h_source.html" target="_top" xlink:title=" ">
<polygon fill="none" stroke="black" points="70.5,-56.5 70.5,-86.5 213.5,-86.5 213.5,-56.5 70.5,-56.5"/>
<text text-anchor="start" x="78.5" y="-74.5" font-family="Helvetica,sans-Serif" font-size="10.00">BipedalLocomotion/Generic</text>
<text text-anchor="middle" x="142" y="-63.5" font-family="Helvetica,sans-Serif" font-size="10.00">Container/TemplateHelpers.h</text>
</a>
</g>
</g>
<!-- Node4&#45;&gt;Node9 -->
<g id="edge17" class="edge">
<title>Node4&#45;&gt;Node9</title>
<path fill="none" stroke="midnightblue" d="M210.01,-190.47C190.58,-182.75 170.15,-171.15 157,-154 144.53,-137.74 141.29,-114.34 140.88,-96.78"/>
<polygon fill="midnightblue" stroke="midnightblue" points="144.38,-96.74 140.92,-86.72 137.38,-96.71 144.38,-96.74"/>
</g>
<!-- Node7&#45;&gt;Node2 -->
<g id="edge16" class="edge">
<title>Node7&#45;&gt;Node2</title>
<path fill="none" stroke="midnightblue" d="M180.14,-123.4C145.75,-114 100.4,-100.87 61,-87 59.09,-86.33 57.14,-85.61 55.18,-84.86"/>
<polygon fill="midnightblue" stroke="midnightblue" points="56.06,-81.45 45.48,-81.01 53.48,-87.95 56.06,-81.45"/>
</g>
<!-- Node8 -->
<g id="node8" class="node">
<title>Node8</title>
<g id="a_node8"><a xlink:title=" ">
<polygon fill="none" stroke="#bfbfbf" points="299,-62 299,-81 413,-81 413,-62 299,-62"/>
<text text-anchor="middle" x="356" y="-69" font-family="Helvetica,sans-Serif" font-size="10.00">iDynTree/Core/Span.h</text>
</a>
</g>
</g>
<!-- Node7&#45;&gt;Node8 -->
<g id="edge8" class="edge">
<title>Node7&#45;&gt;Node8</title>
<path fill="none" stroke="midnightblue" d="M260.47,-123.4C281.4,-112.24 310.43,-96.78 330.97,-85.83"/>
<polygon fill="midnightblue" stroke="midnightblue" points="332.85,-88.8 340.03,-81.01 329.56,-82.62 332.85,-88.8"/>
</g>
<!-- Node7&#45;&gt;Node9 -->
<g id="edge9" class="edge">
<title>Node7&#45;&gt;Node9</title>
<path fill="none" stroke="midnightblue" d="M214.04,-123.4C201.26,-114.37 184.48,-102.51 170.33,-92.52"/>
<polygon fill="midnightblue" stroke="midnightblue" points="172.11,-89.49 161.92,-86.58 168.07,-95.21 172.11,-89.49"/>
</g>
<!-- Node13 -->
<g id="node13" class="node">
<title>Node13</title>
<g id="a_node13"><a xlink:title=" ">
<polygon fill="none" stroke="#bfbfbf" points="436.5,-62 436.5,-81 495.5,-81 495.5,-62 436.5,-62"/>
<text text-anchor="middle" x="466" y="-69" font-family="Helvetica,sans-Serif" font-size="10.00">functional</text>
</a>
</g>
</g>
<!-- Node7&#45;&gt;Node13 -->
<g id="edge13" class="edge">
<title>Node7&#45;&gt;Node13</title>
<path fill="none" stroke="midnightblue" d="M289.76,-123.4C327.29,-113.69 377.8,-100.21 422,-87 424.99,-86.11 428.08,-85.15 431.17,-84.18"/>
<polygon fill="midnightblue" stroke="midnightblue" points="432.5,-87.42 440.95,-81.02 430.36,-80.76 432.5,-87.42"/>
</g>
<!-- Node14 -->
<g id="node14" class="node">
<title>Node14</title>
<g id="a_node14"><a xlink:title=" ">
<polygon fill="none" stroke="#bfbfbf" points="231.5,-62 231.5,-81 280.5,-81 280.5,-62 231.5,-62"/>
<text text-anchor="middle" x="256" y="-69" font-family="Helvetica,sans-Serif" font-size="10.00">cassert</text>
</a>
</g>
</g>
<!-- Node7&#45;&gt;Node14 -->
<g id="edge14" class="edge">
<title>Node7&#45;&gt;Node14</title>
<path fill="none" stroke="midnightblue" d="M238.77,-123.4C242,-113.86 246.29,-101.18 249.79,-90.86"/>
<polygon fill="midnightblue" stroke="midnightblue" points="253.17,-91.79 253.06,-81.19 246.54,-89.54 253.17,-91.79"/>
</g>
<!-- Node15 -->
<g id="node15" class="node">
<title>Node15</title>
<g id="a_node15"><a xlink:title=" ">
<polygon fill="none" stroke="#bfbfbf" points="516,-62 516,-81 570,-81 570,-62 516,-62"/>
<text text-anchor="middle" x="543" y="-69" font-family="Helvetica,sans-Serif" font-size="10.00">iostream</text>
</a>
</g>
</g>
<!-- Node7&#45;&gt;Node15 -->
<g id="edge15" class="edge">
<title>Node7&#45;&gt;Node15</title>
<path fill="none" stroke="midnightblue" d="M302.25,-125.36C375.76,-112.19 484.81,-92.32 504,-87 506.65,-86.27 509.37,-85.43 512.09,-84.54"/>
<polygon fill="midnightblue" stroke="midnightblue" points="513.48,-87.76 521.76,-81.15 511.17,-81.15 513.48,-87.76"/>
</g>
<!-- Node10 -->
<g id="node10" class="node">
<title>Node10</title>
<g id="a_node10"><a xlink:title=" ">
<polygon fill="none" stroke="#bfbfbf" points="29,-0.5 29,-19.5 91,-19.5 91,-0.5 29,-0.5"/>
<text text-anchor="middle" x="60" y="-7.5" font-family="Helvetica,sans-Serif" font-size="10.00">type_traits</text>
</a>
</g>
</g>
<!-- Node9&#45;&gt;Node10 -->
<g id="edge10" class="edge">
<title>Node9&#45;&gt;Node10</title>
<path fill="none" stroke="midnightblue" d="M122.57,-56.4C109.79,-47.13 93.11,-35.03 80.19,-25.65"/>
<polygon fill="midnightblue" stroke="midnightblue" points="82.08,-22.7 71.93,-19.66 77.97,-28.36 82.08,-22.7"/>
</g>
<!-- Node11 -->
<g id="node11" class="node">
<title>Node11</title>
<g id="a_node11"><a xlink:title=" ">
<polygon fill="none" stroke="#bfbfbf" points="109,-0.5 109,-19.5 175,-19.5 175,-0.5 109,-0.5"/>
<text text-anchor="middle" x="142" y="-7.5" font-family="Helvetica,sans-Serif" font-size="10.00">string_view</text>
</a>
</g>
</g>
<!-- Node9&#45;&gt;Node11 -->
<g id="edge11" class="edge">
<title>Node9&#45;&gt;Node11</title>
<path fill="none" stroke="midnightblue" d="M142,-56.4C142,-48.47 142,-38.46 142,-29.86"/>
<polygon fill="midnightblue" stroke="midnightblue" points="145.5,-29.66 142,-19.66 138.5,-29.66 145.5,-29.66"/>
</g>
<!-- Node12 -->
<g id="node12" class="node">
<title>Node12</title>
<g id="a_node12"><a xlink:title=" ">
<polygon fill="none" stroke="#bfbfbf" points="193.5,-0.5 193.5,-19.5 258.5,-19.5 258.5,-0.5 193.5,-0.5"/>
<text text-anchor="middle" x="226" y="-7.5" font-family="Helvetica,sans-Serif" font-size="10.00">Eigen/Core</text>
</a>
</g>
</g>
<!-- Node9&#45;&gt;Node12 -->
<g id="edge12" class="edge">
<title>Node9&#45;&gt;Node12</title>
<path fill="none" stroke="midnightblue" d="M161.91,-56.4C174.99,-47.13 192.08,-35.03 205.32,-25.65"/>
<polygon fill="midnightblue" stroke="midnightblue" points="207.64,-28.29 213.78,-19.66 203.59,-22.58 207.64,-28.29"/>
</g>
<!-- Node16&#45;&gt;Node3 -->
<g id="edge22" class="edge">
<title>Node16&#45;&gt;Node3</title>
<path fill="none" stroke="midnightblue" d="M512.67,-190.4C486.53,-178.99 450.05,-163.08 424.88,-152.1"/>
<polygon fill="midnightblue" stroke="midnightblue" points="426.07,-148.8 415.5,-148.01 423.27,-155.21 426.07,-148.8"/>
</g>
<!-- Node16&#45;&gt;Node5 -->
<g id="edge24" class="edge">
<title>Node16&#45;&gt;Node5</title>
<path fill="none" stroke="midnightblue" d="M561.8,-190.19C571.71,-180.85 583.72,-167.86 591,-154 601.43,-134.15 606.19,-108.6 608.33,-91.45"/>
<polygon fill="midnightblue" stroke="midnightblue" points="611.85,-91.4 609.42,-81.09 604.89,-90.66 611.85,-91.4"/>
</g>
<!-- Node16&#45;&gt;Node13 -->
<g id="edge25" class="edge">
<title>Node16&#45;&gt;Node13</title>
<path fill="none" stroke="midnightblue" d="M539.16,-190.49C532,-173.89 519.08,-145.61 505,-123 497.56,-111.05 487.89,-98.52 480.05,-88.93"/>
<polygon fill="midnightblue" stroke="midnightblue" points="482.56,-86.48 473.47,-81.05 477.19,-90.97 482.56,-86.48"/>
</g>
<!-- Node17 -->
<g id="node17" class="node">
<title>Node17</title>
<g id="a_node17"><a xlink:href="Contact_8h.html" target="_top" xlink:title=" ">
<polygon fill="none" stroke="black" points="638,-123.5 638,-153.5 780,-153.5 780,-123.5 638,-123.5"/>
<text text-anchor="start" x="646" y="-141.5" font-family="Helvetica,sans-Serif" font-size="10.00">BipedalLocomotion/Contacts</text>
<text text-anchor="middle" x="709" y="-130.5" font-family="Helvetica,sans-Serif" font-size="10.00">/Contact.h</text>
</a>
</g>
</g>
<!-- Node16&#45;&gt;Node17 -->
<g id="edge19" class="edge">
<title>Node16&#45;&gt;Node17</title>
<path fill="none" stroke="midnightblue" d="M580.59,-190.4C605.09,-180.69 637.83,-167.71 664.12,-157.29"/>
<polygon fill="midnightblue" stroke="midnightblue" points="665.48,-160.51 673.48,-153.58 662.9,-154.01 665.48,-160.51"/>
</g>
<!-- Node19 -->
<g id="node19" class="node">
<title>Node19</title>
<g id="a_node19"><a xlink:title=" ">
<polygon fill="none" stroke="#bfbfbf" points="552,-129 552,-148 582,-148 582,-129 552,-129"/>
<text text-anchor="middle" x="567" y="-136" font-family="Helvetica,sans-Serif" font-size="10.00">set</text>
</a>
</g>
</g>
<!-- Node16&#45;&gt;Node19 -->
<g id="edge23" class="edge">
<title>Node16&#45;&gt;Node19</title>
<path fill="none" stroke="midnightblue" d="M549.77,-190.4C553,-180.86 557.29,-168.18 560.79,-157.86"/>
<polygon fill="midnightblue" stroke="midnightblue" points="564.17,-158.79 564.06,-148.19 557.54,-156.54 564.17,-158.79"/>
</g>
<!-- Node17&#45;&gt;Node5 -->
<g id="edge21" class="edge">
<title>Node17&#45;&gt;Node5</title>
<path fill="none" stroke="midnightblue" d="M687.52,-123.4C670.92,-112.5 648.04,-97.48 631.45,-86.58"/>
<polygon fill="midnightblue" stroke="midnightblue" points="633.24,-83.57 622.96,-81.01 629.4,-89.42 633.24,-83.57"/>
</g>
<!-- Node18 -->
<g id="node18" class="node">
<title>Node18</title>
<g id="a_node18"><a xlink:title=" ">
<polygon fill="none" stroke="#bfbfbf" points="673.5,-62 673.5,-81 744.5,-81 744.5,-62 673.5,-62"/>
<text text-anchor="middle" x="709" y="-69" font-family="Helvetica,sans-Serif" font-size="10.00">manif/SE3.h</text>
</a>
</g>
</g>
<!-- Node17&#45;&gt;Node18 -->
<g id="edge20" class="edge">
<title>Node17&#45;&gt;Node18</title>
<path fill="none" stroke="midnightblue" d="M709,-123.4C709,-114.06 709,-101.71 709,-91.52"/>
<polygon fill="midnightblue" stroke="midnightblue" points="712.5,-91.19 709,-81.19 705.5,-91.19 712.5,-91.19"/>
</g>
<!-- Node20&#45;&gt;Node2 -->
<g id="edge28" class="edge">
<title>Node20&#45;&gt;Node2</title>
<path fill="none" stroke="midnightblue" d="M633.85,-191.23C630.86,-190.79 627.9,-190.38 625,-190 521.56,-176.57 252.43,-196.1 157,-154 138.59,-145.88 140.44,-134.61 124,-123 102.5,-107.82 75.83,-94.37 55.74,-85.18"/>
<polygon fill="midnightblue" stroke="midnightblue" points="57.01,-81.92 46.46,-81.02 54.15,-88.31 57.01,-81.92"/>
</g>
<!-- Node20&#45;&gt;Node6 -->
<g id="edge27" class="edge">
<title>Node20&#45;&gt;Node6</title>
<path fill="none" stroke="midnightblue" d="M654.38,-190.48C609.28,-177.73 544.1,-159.31 505.69,-148.46"/>
<polygon fill="midnightblue" stroke="midnightblue" points="506.64,-145.09 496.06,-145.74 504.74,-151.82 506.64,-145.09"/>
</g>
<!-- Node21 -->
<g id="node21" class="node">
<title>Node21</title>
<g id="a_node21"><a xlink:title=" ">
<polygon fill="none" stroke="#bfbfbf" points="798.5,-129 798.5,-148 871.5,-148 871.5,-129 798.5,-129"/>
<text text-anchor="middle" x="835" y="-136" font-family="Helvetica,sans-Serif" font-size="10.00">Eigen/Dense</text>
</a>
</g>
</g>
<!-- Node20&#45;&gt;Node21 -->
<g id="edge29" class="edge">
<title>Node20&#45;&gt;Node21</title>
<path fill="none" stroke="midnightblue" d="M732.43,-190.4C755.11,-179.14 786.63,-163.5 808.72,-152.54"/>
<polygon fill="midnightblue" stroke="midnightblue" points="810.45,-155.59 817.86,-148.01 807.34,-149.32 810.45,-155.59"/>
</g>
<!-- Node20&#45;&gt;Node22 -->
<g id="edge30" class="edge">
<title>Node20&#45;&gt;Node22</title>
<path fill="none" stroke="midnightblue" d="M758.8,-190.48C798.23,-180.39 851.55,-166.74 893.1,-156.11"/>
<polygon fill="midnightblue" stroke="midnightblue" points="894.04,-159.48 902.86,-153.61 892.3,-152.7 894.04,-159.48"/>
</g>
<!-- Node23&#45;&gt;Node22 -->
<g id="edge33" class="edge">
<title>Node23&#45;&gt;Node22</title>
<path fill="none" stroke="midnightblue" d="M1080.15,-190.4C1056.95,-180.73 1025.97,-167.82 1001.02,-157.43"/>
<polygon fill="midnightblue" stroke="midnightblue" points="1002.36,-154.19 991.78,-153.58 999.67,-160.65 1002.36,-154.19"/>
</g>
<!-- Node24 -->
<g id="node24" class="node">
<title>Node24</title>
<g id="a_node24"><a xlink:title=" ">
<polygon fill="none" stroke="#bfbfbf" points="1127.5,-62 1127.5,-81 1198.5,-81 1198.5,-62 1127.5,-62"/>
<text text-anchor="middle" x="1163" y="-69" font-family="Helvetica,sans-Serif" font-size="10.00">manif/SO3.h</text>
</a>
</g>
</g>
<!-- Node23&#45;&gt;Node24 -->
<g id="edge32" class="edge">
<title>Node23&#45;&gt;Node24</title>
<path fill="none" stroke="midnightblue" d="M1151.31,-190.36C1167.15,-182.28 1184.01,-170.42 1193,-154 1204.59,-132.83 1189.95,-106.26 1177.36,-89.33"/>
<polygon fill="midnightblue" stroke="midnightblue" points="1180.06,-87.1 1171.11,-81.43 1174.57,-91.45 1180.06,-87.1"/>
</g>
<!-- Node25 -->
<g id="node25" class="node">
<title>Node25</title>
<g id="a_node25"><a xlink:href="SO3Planner_8tpp.html" target="_top" xlink:title=" ">
<polygon fill="none" stroke="black" points="1044,-123.5 1044,-153.5 1184,-153.5 1184,-123.5 1044,-123.5"/>
<text text-anchor="start" x="1052" y="-141.5" font-family="Helvetica,sans-Serif" font-size="10.00">BipedalLocomotion/Planners</text>
<text text-anchor="middle" x="1114" y="-130.5" font-family="Helvetica,sans-Serif" font-size="10.00">/SO3Planner.tpp</text>
</a>
</g>
</g>
<!-- Node23&#45;&gt;Node25 -->
<g id="edge34" class="edge">
<title>Node23&#45;&gt;Node25</title>
<path fill="none" stroke="midnightblue" d="M1108.32,-190.4C1107.29,-182.56 1107.01,-172.6 1107.46,-163.57"/>
<polygon fill="midnightblue" stroke="midnightblue" points="1110.95,-163.84 1108.33,-153.58 1103.97,-163.24 1110.95,-163.84"/>
</g>
<!-- Node25&#45;&gt;Node15 -->
<g id="edge35" class="edge">
<title>Node25&#45;&gt;Node15</title>
<path fill="none" stroke="midnightblue" d="M1043.85,-124.24C1040.86,-123.8 1037.9,-123.38 1035,-123 833.86,-96.65 777.69,-132.5 580,-87 577.16,-86.35 574.26,-85.52 571.38,-84.58"/>
<polygon fill="midnightblue" stroke="midnightblue" points="572.46,-81.25 561.86,-81.13 570.07,-87.83 572.46,-81.25"/>
</g>
<!-- Node25&#45;&gt;Node23 -->
<g id="edge37" class="edge">
<title>Node25&#45;&gt;Node23</title>
<path fill="none" stroke="midnightblue" d="M1119.67,-153.58C1120.7,-161.41 1120.99,-171.37 1120.55,-180.4"/>
<polygon fill="midnightblue" stroke="midnightblue" points="1117.06,-180.13 1119.68,-190.4 1124.03,-180.74 1117.06,-180.13"/>
</g>
<!-- Node25&#45;&gt;Node24 -->
<g id="edge36" class="edge">
<title>Node25&#45;&gt;Node24</title>
<path fill="none" stroke="midnightblue" d="M1124.63,-123.4C1132.2,-113.36 1142.39,-99.84 1150.37,-89.25"/>
<polygon fill="midnightblue" stroke="midnightblue" points="1153.22,-91.29 1156.45,-81.19 1147.63,-87.07 1153.22,-91.29"/>
</g>
</g>
</svg>
        <g id="navigator" transform="translate(0 0)" fill="#404254">
                <rect fill="#f2f5e9" fill-opacity="0.5" stroke="#606060" stroke-width=".5" x="0" y="0" width="60" height="60"/>
                <use id="zoomplus" xlink:href="#zoomPlus" x="17" y="9" onmousedown="handleZoom(evt,'in')"/>
                <use id="zoomminus" xlink:href="#zoomMin" x="42" y="9" onmousedown="handleZoom(evt,'out')"/>
                <use id="reset" xlink:href="#resetDef" x="30" y="36" onmousedown="handleReset()"/>
                <g id="arrowUp" xlink:href="#dirArrow" transform="translate(30 24)" onmousedown="handlePan(0,-1)">
                  <use xlink:href="#rim" fill="#404040">
                        <set attributeName="fill" to="#808080" begin="arrowUp.mouseover" end="arrowUp.mouseout"/>
                  </use>
                  <path fill="none" stroke="white" stroke-width="1.5" d="M0,-3.0v7 M-2.5,-0.5L0,-3.0L2.5,-0.5"/>
                </g>
                <g id="arrowRight" xlink:href="#dirArrow" transform="rotate(90) translate(36 -43)" onmousedown="handlePan(1,0)">
                  <use xlink:href="#rim" fill="#404040">
                        <set attributeName="fill" to="#808080" begin="arrowRight.mouseover" end="arrowRight.mouseout"/>
                  </use>
                  <path fill="none" stroke="white" stroke-width="1.5" d="M0,-3.0v7 M-2.5,-0.5L0,-3.0L2.5,-0.5"/>
                </g>
                <g id="arrowDown" xlink:href="#dirArrow" transform="rotate(180) translate(-30 -48)" onmousedown="handlePan(0,1)">
                  <use xlink:href="#rim" fill="#404040">
                        <set attributeName="fill" to="#808080" begin="arrowDown.mouseover" end="arrowDown.mouseout"/>
                  </use>
                  <path fill="none" stroke="white" stroke-width="1.5" d="M0,-3.0v7 M-2.5,-0.5L0,-3.0L2.5,-0.5"/>
                </g>
                <g id="arrowLeft" xlink:href="#dirArrow" transform="rotate(270) translate(-36 17)" onmousedown="handlePan(-1,0)">
                  <use xlink:href="#rim" fill="#404040">
                        <set attributeName="fill" to="#808080" begin="arrowLeft.mouseover" end="arrowLeft.mouseout"/>
                  </use>
                  <path fill="none" stroke="white" stroke-width="1.5" d="M0,-3.0v7 M-2.5,-0.5L0,-3.0L2.5,-0.5"/>
                </g>
        </g>
        <svg viewBox="0 0 15 15" width="100%" height="30px" preserveAspectRatio="xMaxYMin meet">
         <g id="arrow_out" transform="scale(0.3 0.3)">
          <a xlink:href="SwingFootPlanner_8h__incl_org.svg" target="_base">
           <rect id="button" ry="5" rx="5" y="6" x="6" height="38" width="38"
                fill="#f2f5e9" fill-opacity="0.5" stroke="#606060" stroke-width="1.0"/>
           <path id="arrow"
             d="M 11.500037,31.436501 C 11.940474,20.09759 22.043105,11.32322 32.158766,21.979434 L 37.068811,17.246167 C 37.068811,17.246167 37.088388,32 37.088388,32 L 22.160133,31.978069 C 22.160133,31.978069 26.997745,27.140456 26.997745,27.140456 C 18.528582,18.264221 13.291696,25.230495 11.500037,31.436501 z"
             style="fill:#404040;"/>
          </a>
         </g>
        </svg>
</svg>
