<?xml version="1.0" encoding="UTF-8" standalone="no"?>
<!DOCTYPE svg PUBLIC "-//W3C//DTD SVG 1.1//EN"
 "http://www.w3.org/Graphics/SVG/1.1/DTD/svg11.dtd">
<!-- Generated by graphviz version 2.43.0 (0)
 -->
<!-- Title: TSID/include/BipedalLocomotion/TSID/Task.h Pages: 1 -->
<svg width="828pt" height="162pt"
 viewBox="0.00 0.00 827.50 162.00" xmlns="http://www.w3.org/2000/svg" xmlns:xlink="http://www.w3.org/1999/xlink">
<g id="graph0" class="graph" transform="scale(1 1) rotate(0) translate(4 158)">
<title>TSID/include/BipedalLocomotion/TSID/Task.h</title>
<!-- Node1 -->
<g id="node1" class="node">
<title>Node1</title>
<g id="a_node1"><a xlink:title=" ">
<polygon fill="#bfbfbf" stroke="black" points="366.5,-123.5 366.5,-153.5 525.5,-153.5 525.5,-123.5 366.5,-123.5"/>
<text text-anchor="start" x="374.5" y="-141.5" font-family="Helvetica,sans-Serif" font-size="10.00">TSID/include/BipedalLocomotion</text>
<text text-anchor="middle" x="446" y="-130.5" font-family="Helvetica,sans-Serif" font-size="10.00">/TSID/Task.h</text>
</a>
</g>
</g>
<!-- Node2 -->
<g id="node2" class="node">
<title>Node2</title>
<g id="a_node2"><a xlink:href="BaseDynamicsTask_8h.html" target="_top" xlink:title=" ">
<polygon fill="none" stroke="black" points="8.5,-56.5 8.5,-86.5 167.5,-86.5 167.5,-56.5 8.5,-56.5"/>
<text text-anchor="start" x="16.5" y="-74.5" font-family="Helvetica,sans-Serif" font-size="10.00">TSID/include/BipedalLocomotion</text>
<text text-anchor="middle" x="88" y="-63.5" font-family="Helvetica,sans-Serif" font-size="10.00">/TSID/BaseDynamicsTask.h</text>
</a>
</g>
</g>
<!-- Node1&#45;&gt;Node2 -->
<g id="edge1" class="edge">
<title>Node1&#45;&gt;Node2</title>
<path fill="none" stroke="midnightblue" d="M358.7,-121.65C299.62,-110.92 222.29,-96.88 165.41,-86.55"/>
<polygon fill="midnightblue" stroke="midnightblue" points="358.3,-125.13 368.76,-123.48 359.55,-118.25 358.3,-125.13"/>
</g>
<!-- Node4 -->
<g id="node4" class="node">
<title>Node4</title>
<g id="a_node4"><a xlink:href="JointsDynamicsTask_8h.html" target="_top" xlink:title=" ">
<polygon fill="none" stroke="black" points="189.5,-56.5 189.5,-86.5 348.5,-86.5 348.5,-56.5 189.5,-56.5"/>
<text text-anchor="start" x="197.5" y="-74.5" font-family="Helvetica,sans-Serif" font-size="10.00">TSID/include/BipedalLocomotion</text>
<text text-anchor="middle" x="269" y="-63.5" font-family="Helvetica,sans-Serif" font-size="10.00">/TSID/JointsDynamicsTask.h</text>
</a>
</g>
</g>
<!-- Node1&#45;&gt;Node4 -->
<g id="edge3" class="edge">
<title>Node1&#45;&gt;Node4</title>
<path fill="none" stroke="midnightblue" d="M397.85,-119.82C369.4,-109.37 333.87,-96.32 307.33,-86.58"/>
<polygon fill="midnightblue" stroke="midnightblue" points="397,-123.23 407.59,-123.4 399.41,-116.66 397,-123.23"/>
</g>
<!-- Node6 -->
<g id="node6" class="node">
<title>Node6</title>
<g id="a_node6"><a xlink:href="JointsTrackingTask_8h.html" target="_top" xlink:title=" ">
<polygon fill="none" stroke="black" points="366.5,-56.5 366.5,-86.5 525.5,-86.5 525.5,-56.5 366.5,-56.5"/>
<text text-anchor="start" x="374.5" y="-74.5" font-family="Helvetica,sans-Serif" font-size="10.00">TSID/include/BipedalLocomotion</text>
<text text-anchor="middle" x="446" y="-63.5" font-family="Helvetica,sans-Serif" font-size="10.00">/TSID/JointsTrackingTask.h</text>
</a>
</g>
</g>
<!-- Node1&#45;&gt;Node6 -->
<g id="edge5" class="edge">
<title>Node1&#45;&gt;Node6</title>
<path fill="none" stroke="midnightblue" d="M446,-113.11C446,-104.15 446,-94.32 446,-86.58"/>
<polygon fill="midnightblue" stroke="midnightblue" points="442.5,-113.4 446,-123.4 449.5,-113.4 442.5,-113.4"/>
</g>
<!-- Node8 -->
<g id="node8" class="node">
<title>Node8</title>
<g id="a_node8"><a xlink:href="TSID_2include_2BipedalLocomotion_2TSID_2SE3Task_8h.html" target="_top" xlink:title=" ">
<polygon fill="none" stroke="black" points="543.5,-56.5 543.5,-86.5 702.5,-86.5 702.5,-56.5 543.5,-56.5"/>
<text text-anchor="start" x="551.5" y="-74.5" font-family="Helvetica,sans-Serif" font-size="10.00">TSID/include/BipedalLocomotion</text>
<text text-anchor="middle" x="623" y="-63.5" font-family="Helvetica,sans-Serif" font-size="10.00">/TSID/SE3Task.h</text>
</a>
</g>
</g>
<!-- Node1&#45;&gt;Node8 -->
<g id="edge7" class="edge">
<title>Node1&#45;&gt;Node8</title>
<path fill="none" stroke="midnightblue" d="M494.15,-119.82C522.6,-109.37 558.13,-96.32 584.67,-86.58"/>
<polygon fill="midnightblue" stroke="midnightblue" points="492.59,-116.66 484.41,-123.4 495,-123.23 492.59,-116.66"/>
</g>
<!-- Node10 -->
<g id="node10" class="node">
<title>Node10</title>
<g id="a_node10"><a xlink:href="Task_8cpp.html" target="_top" xlink:title=" ">
<polygon fill="none" stroke="black" points="720.5,-62 720.5,-81 819.5,-81 819.5,-62 720.5,-62"/>
<text text-anchor="middle" x="770" y="-69" font-family="Helvetica,sans-Serif" font-size="10.00">TSID/src/Task.cpp</text>
</a>
</g>
</g>
<!-- Node1&#45;&gt;Node10 -->
<g id="edge9" class="edge">
<title>Node1&#45;&gt;Node10</title>
<path fill="none" stroke="midnightblue" d="M535.82,-121.77C587.5,-112.39 653.57,-99.84 712,-87 720.21,-85.2 729.03,-83.08 737.26,-81.03"/>
<polygon fill="midnightblue" stroke="midnightblue" points="534.9,-118.38 525.68,-123.61 536.15,-125.27 534.9,-118.38"/>
</g>
<!-- Node3 -->
<g id="node3" class="node">
<title>Node3</title>
<g id="a_node3"><a xlink:href="BaseDynamicsTask_8cpp.html" target="_top" xlink:title=" ">
<polygon fill="none" stroke="black" points="0,-0.5 0,-19.5 166,-19.5 166,-0.5 0,-0.5"/>
<text text-anchor="middle" x="83" y="-7.5" font-family="Helvetica,sans-Serif" font-size="10.00">TSID/src/BaseDynamicsTask.cpp</text>
</a>
</g>
</g>
<!-- Node2&#45;&gt;Node3 -->
<g id="edge2" class="edge">
<title>Node2&#45;&gt;Node3</title>
<path fill="none" stroke="midnightblue" d="M85.97,-46.29C85.17,-36.86 84.32,-26.65 83.73,-19.66"/>
<polygon fill="midnightblue" stroke="midnightblue" points="82.49,-46.73 86.82,-56.4 89.47,-46.14 82.49,-46.73"/>
</g>
<!-- Node5 -->
<g id="node5" class="node">
<title>Node5</title>
<g id="a_node5"><a xlink:href="JointsDynamicsTask_8cpp.html" target="_top" xlink:title=" ">
<polygon fill="none" stroke="black" points="184,-0.5 184,-19.5 354,-19.5 354,-0.5 184,-0.5"/>
<text text-anchor="middle" x="269" y="-7.5" font-family="Helvetica,sans-Serif" font-size="10.00">TSID/src/JointsDynamicsTask.cpp</text>
</a>
</g>
</g>
<!-- Node4&#45;&gt;Node5 -->
<g id="edge4" class="edge">
<title>Node4&#45;&gt;Node5</title>
<path fill="none" stroke="midnightblue" d="M269,-46.29C269,-36.86 269,-26.65 269,-19.66"/>
<polygon fill="midnightblue" stroke="midnightblue" points="265.5,-46.4 269,-56.4 272.5,-46.4 265.5,-46.4"/>
</g>
<!-- Node7 -->
<g id="node7" class="node">
<title>Node7</title>
<g id="a_node7"><a xlink:href="JointsTrackingTask_8cpp.html" target="_top" xlink:title=" ">
<polygon fill="none" stroke="black" points="372.5,-0.5 372.5,-19.5 535.5,-19.5 535.5,-0.5 372.5,-0.5"/>
<text text-anchor="middle" x="454" y="-7.5" font-family="Helvetica,sans-Serif" font-size="10.00">TSID/src/JointsTrackingTask.cpp</text>
</a>
</g>
</g>
<!-- Node6&#45;&gt;Node7 -->
<g id="edge6" class="edge">
<title>Node6&#45;&gt;Node7</title>
<path fill="none" stroke="midnightblue" d="M449.26,-46.29C450.52,-36.86 451.9,-26.65 452.84,-19.66"/>
<polygon fill="midnightblue" stroke="midnightblue" points="445.76,-46.02 447.9,-56.4 452.7,-46.95 445.76,-46.02"/>
</g>
<!-- Node9 -->
<g id="node9" class="node">
<title>Node9</title>
<g id="a_node9"><a xlink:href="TSID_2src_2SE3Task_8cpp.html" target="_top" xlink:title=" ">
<polygon fill="none" stroke="black" points="564,-0.5 564,-19.5 682,-19.5 682,-0.5 564,-0.5"/>
<text text-anchor="middle" x="623" y="-7.5" font-family="Helvetica,sans-Serif" font-size="10.00">TSID/src/SE3Task.cpp</text>
</a>
</g>
</g>
<!-- Node8&#45;&gt;Node9 -->
<g id="edge8" class="edge">
<title>Node8&#45;&gt;Node9</title>
<path fill="none" stroke="midnightblue" d="M623,-46.29C623,-36.86 623,-26.65 623,-19.66"/>
<polygon fill="midnightblue" stroke="midnightblue" points="619.5,-46.4 623,-56.4 626.5,-46.4 619.5,-46.4"/>
</g>
</g>
</svg>
