<?xml version="1.0" encoding="UTF-8" standalone="no"?>
<!DOCTYPE svg PUBLIC "-//W3C//DTD SVG 1.1//EN"
 "http://www.w3.org/Graphics/SVG/1.1/DTD/svg11.dtd">
<!-- Generated by graphviz version 2.43.0 (0)
 -->
<!-- Title: Planners/include/BipedalLocomotion/Planners/TimeVaryingDCMPlanner.h Pages: 1 -->
<svg width="1144pt" height="441pt"
 viewBox="0.00 0.00 1143.50 441.00" xmlns="http://www.w3.org/2000/svg" xmlns:xlink="http://www.w3.org/1999/xlink">
<g id="graph0" class="graph" transform="scale(1 1) rotate(0) translate(4 437)">
<title>Planners/include/BipedalLocomotion/Planners/TimeVaryingDCMPlanner.h</title>
<!-- Node1 -->
<g id="node1" class="node">
<title>Node1</title>
<g id="a_node1"><a xlink:title=" ">
<polygon fill="#bfbfbf" stroke="black" points="0,-391.5 0,-432.5 165,-432.5 165,-391.5 0,-391.5"/>
<text text-anchor="start" x="8" y="-420.5" font-family="Helvetica,sans-Serif" font-size="10.00">Planners/include/Bipedal</text>
<text text-anchor="start" x="8" y="-409.5" font-family="Helvetica,sans-Serif" font-size="10.00">Locomotion/Planners/TimeVarying</text>
<text text-anchor="middle" x="82.5" y="-398.5" font-family="Helvetica,sans-Serif" font-size="10.00">DCMPlanner.h</text>
</a>
</g>
</g>
<!-- Node2 -->
<g id="node2" class="node">
<title>Node2</title>
<g id="a_node2"><a xlink:title=" ">
<polygon fill="none" stroke="#bfbfbf" points="118.5,-129 118.5,-148 170.5,-148 170.5,-129 118.5,-129"/>
<text text-anchor="middle" x="144.5" y="-136" font-family="Helvetica,sans-Serif" font-size="10.00">memory</text>
</a>
</g>
</g>
<!-- Node1&#45;&gt;Node2 -->
<g id="edge1" class="edge">
<title>Node1&#45;&gt;Node2</title>
<path fill="none" stroke="midnightblue" d="M60.68,-391.2C31.3,-362.01 -14.86,-305.63 7.5,-257 30.13,-207.77 84.7,-171.43 117.74,-153.04"/>
<polygon fill="midnightblue" stroke="midnightblue" points="119.7,-155.95 126.84,-148.12 116.37,-149.79 119.7,-155.95"/>
</g>
<!-- Node3 -->
<g id="node3" class="node">
<title>Node3</title>
<g id="a_node3"><a xlink:href="DCMPlanner_8h.html" target="_top" xlink:title=" ">
<polygon fill="none" stroke="black" points="154.5,-324.5 154.5,-354.5 294.5,-354.5 294.5,-324.5 154.5,-324.5"/>
<text text-anchor="start" x="162.5" y="-342.5" font-family="Helvetica,sans-Serif" font-size="10.00">BipedalLocomotion/Planners</text>
<text text-anchor="middle" x="224.5" y="-331.5" font-family="Helvetica,sans-Serif" font-size="10.00">/DCMPlanner.h</text>
</a>
</g>
</g>
<!-- Node1&#45;&gt;Node3 -->
<g id="edge2" class="edge">
<title>Node1&#45;&gt;Node3</title>
<path fill="none" stroke="midnightblue" d="M122.05,-391.36C142.32,-381.3 166.86,-369.12 186.84,-359.2"/>
<polygon fill="midnightblue" stroke="midnightblue" points="188.56,-362.25 195.96,-354.67 185.45,-355.98 188.56,-362.25"/>
</g>
<!-- Node3&#45;&gt;Node2 -->
<g id="edge3" class="edge">
<title>Node3&#45;&gt;Node2</title>
<path fill="none" stroke="midnightblue" d="M235.9,-324.26C247.53,-307.92 262.66,-280.35 253.5,-257 235.88,-212.09 192.12,-174.11 165.72,-154.28"/>
<polygon fill="midnightblue" stroke="midnightblue" points="167.63,-151.34 157.49,-148.26 163.5,-156.99 167.63,-151.34"/>
</g>
<!-- Node4 -->
<g id="node4" class="node">
<title>Node4</title>
<g id="a_node4"><a xlink:title=" ">
<polygon fill="none" stroke="#bfbfbf" points="17,-263 17,-282 90,-282 90,-263 17,-263"/>
<text text-anchor="middle" x="53.5" y="-270" font-family="Helvetica,sans-Serif" font-size="10.00">Eigen/Dense</text>
</a>
</g>
</g>
<!-- Node3&#45;&gt;Node4 -->
<g id="edge4" class="edge">
<title>Node3&#45;&gt;Node4</title>
<path fill="none" stroke="midnightblue" d="M187.4,-324.4C156.99,-312.84 114.42,-296.66 85.5,-285.66"/>
<polygon fill="midnightblue" stroke="midnightblue" points="86.47,-282.29 75.88,-282.01 83.98,-288.83 86.47,-282.29"/>
</g>
<!-- Node5 -->
<g id="node5" class="node">
<title>Node5</title>
<g id="a_node5"><a xlink:href="IParametersHandler_8h.html" target="_top" xlink:title=" ">
<polygon fill="none" stroke="black" points="334.5,-257.5 334.5,-287.5 486.5,-287.5 486.5,-257.5 334.5,-257.5"/>
<text text-anchor="start" x="342.5" y="-275.5" font-family="Helvetica,sans-Serif" font-size="10.00">BipedalLocomotion/Parameters</text>
<text text-anchor="middle" x="410.5" y="-264.5" font-family="Helvetica,sans-Serif" font-size="10.00">Handler/IParametersHandler.h</text>
</a>
</g>
</g>
<!-- Node3&#45;&gt;Node5 -->
<g id="edge5" class="edge">
<title>Node3&#45;&gt;Node5</title>
<path fill="none" stroke="midnightblue" d="M264.86,-324.4C293.01,-314.56 330.76,-301.37 360.77,-290.88"/>
<polygon fill="midnightblue" stroke="midnightblue" points="361.93,-294.18 370.22,-287.58 359.62,-287.57 361.93,-294.18"/>
</g>
<!-- Node17 -->
<g id="node17" class="node">
<title>Node17</title>
<g id="a_node17"><a xlink:href="ContactPhaseList_8h_source.html" target="_top" xlink:title=" ">
<polygon fill="none" stroke="black" points="795.5,-257.5 795.5,-287.5 937.5,-287.5 937.5,-257.5 795.5,-257.5"/>
<text text-anchor="start" x="803.5" y="-275.5" font-family="Helvetica,sans-Serif" font-size="10.00">BipedalLocomotion/Contacts</text>
<text text-anchor="middle" x="866.5" y="-264.5" font-family="Helvetica,sans-Serif" font-size="10.00">/ContactPhaseList.h</text>
</a>
</g>
</g>
<!-- Node3&#45;&gt;Node17 -->
<g id="edge20" class="edge">
<title>Node3&#45;&gt;Node17</title>
<path fill="none" stroke="midnightblue" d="M294.73,-331.39C414.64,-319.25 658.15,-294.6 785.21,-281.73"/>
<polygon fill="midnightblue" stroke="midnightblue" points="785.67,-285.2 795.27,-280.71 784.97,-278.24 785.67,-285.2"/>
</g>
<!-- Node26 -->
<g id="node26" class="node">
<title>Node26</title>
<g id="a_node26"><a xlink:href="Advanceable_8h.html" target="_top" xlink:title=" ">
<polygon fill="none" stroke="black" points="108.5,-257.5 108.5,-287.5 244.5,-287.5 244.5,-257.5 108.5,-257.5"/>
<text text-anchor="start" x="116.5" y="-275.5" font-family="Helvetica,sans-Serif" font-size="10.00">BipedalLocomotion/System</text>
<text text-anchor="middle" x="176.5" y="-264.5" font-family="Helvetica,sans-Serif" font-size="10.00">/Advanceable.h</text>
</a>
</g>
</g>
<!-- Node3&#45;&gt;Node26 -->
<g id="edge38" class="edge">
<title>Node3&#45;&gt;Node26</title>
<path fill="none" stroke="midnightblue" d="M214.08,-324.4C207.92,-316.05 199.97,-305.29 192.98,-295.81"/>
<polygon fill="midnightblue" stroke="midnightblue" points="195.65,-293.54 186.89,-287.58 190.02,-297.7 195.65,-293.54"/>
</g>
<!-- Node5&#45;&gt;Node2 -->
<g id="edge6" class="edge">
<title>Node5&#45;&gt;Node2</title>
<path fill="none" stroke="midnightblue" d="M384.27,-257.48C366.9,-247.86 343.83,-234.44 324.5,-221 306.61,-208.56 305.58,-200.53 286.5,-190 242.57,-165.75 226.48,-171.61 179.5,-154 177.65,-153.31 175.76,-152.58 173.85,-151.83"/>
<polygon fill="midnightblue" stroke="midnightblue" points="174.98,-148.51 164.4,-148.02 172.36,-155 174.98,-148.51"/>
</g>
<!-- Node6 -->
<g id="node6" class="node">
<title>Node6</title>
<g id="a_node6"><a xlink:title=" ">
<polygon fill="none" stroke="#bfbfbf" points="855,-0.5 855,-19.5 896,-19.5 896,-0.5 855,-0.5"/>
<text text-anchor="middle" x="875.5" y="-7.5" font-family="Helvetica,sans-Serif" font-size="10.00">string</text>
</a>
</g>
</g>
<!-- Node5&#45;&gt;Node6 -->
<g id="edge7" class="edge">
<title>Node5&#45;&gt;Node6</title>
<path fill="none" stroke="midnightblue" d="M446.18,-257.5C468.42,-248.23 497.31,-235.2 521.5,-221 564.81,-195.57 576.55,-189.07 612.5,-154 651.96,-115.52 642.21,-85.91 688.5,-56 737.18,-24.54 805.82,-15.06 844.97,-12.21"/>
<polygon fill="midnightblue" stroke="midnightblue" points="845.2,-15.7 854.96,-11.58 844.76,-8.71 845.2,-15.7"/>
</g>
<!-- Node7 -->
<g id="node7" class="node">
<title>Node7</title>
<g id="a_node7"><a xlink:title=" ">
<polygon fill="none" stroke="#bfbfbf" points="700.5,-196 700.5,-215 744.5,-215 744.5,-196 700.5,-196"/>
<text text-anchor="middle" x="722.5" y="-203" font-family="Helvetica,sans-Serif" font-size="10.00">vector</text>
</a>
</g>
</g>
<!-- Node5&#45;&gt;Node7 -->
<g id="edge8" class="edge">
<title>Node5&#45;&gt;Node7</title>
<path fill="none" stroke="midnightblue" d="M486.62,-261.04C541.83,-252.57 617.99,-239.09 683.5,-221 686.31,-220.22 689.2,-219.33 692.07,-218.38"/>
<polygon fill="midnightblue" stroke="midnightblue" points="693.4,-221.63 701.67,-215 691.07,-215.03 693.4,-221.63"/>
</g>
<!-- Node8 -->
<g id="node8" class="node">
<title>Node8</title>
<g id="a_node8"><a xlink:href="Vector_8h_source.html" target="_top" xlink:title=" ">
<polygon fill="none" stroke="black" points="376.5,-190.5 376.5,-220.5 512.5,-220.5 512.5,-190.5 376.5,-190.5"/>
<text text-anchor="start" x="384.5" y="-208.5" font-family="Helvetica,sans-Serif" font-size="10.00">BipedalLocomotion/Generic</text>
<text text-anchor="middle" x="444.5" y="-197.5" font-family="Helvetica,sans-Serif" font-size="10.00">Container/Vector.h</text>
</a>
</g>
</g>
<!-- Node5&#45;&gt;Node8 -->
<g id="edge9" class="edge">
<title>Node5&#45;&gt;Node8</title>
<path fill="none" stroke="midnightblue" d="M417.88,-257.4C422.11,-249.3 427.53,-238.94 432.37,-229.69"/>
<polygon fill="midnightblue" stroke="midnightblue" points="435.6,-231.06 437.14,-220.58 429.4,-227.82 435.6,-231.06"/>
</g>
<!-- Node10 -->
<g id="node10" class="node">
<title>Node10</title>
<g id="a_node10"><a xlink:href="TemplateHelpers_8h_source.html" target="_top" xlink:title=" ">
<polygon fill="none" stroke="black" points="189,-123.5 189,-153.5 332,-153.5 332,-123.5 189,-123.5"/>
<text text-anchor="start" x="197" y="-141.5" font-family="Helvetica,sans-Serif" font-size="10.00">BipedalLocomotion/Generic</text>
<text text-anchor="middle" x="260.5" y="-130.5" font-family="Helvetica,sans-Serif" font-size="10.00">Container/TemplateHelpers.h</text>
</a>
</g>
</g>
<!-- Node5&#45;&gt;Node10 -->
<g id="edge19" class="edge">
<title>Node5&#45;&gt;Node10</title>
<path fill="none" stroke="midnightblue" d="M396.26,-257.25C379.5,-240.64 350.63,-212.61 324.5,-190 312.61,-179.72 299,-168.85 287.39,-159.85"/>
<polygon fill="midnightblue" stroke="midnightblue" points="289.4,-156.98 279.34,-153.65 285.13,-162.53 289.4,-156.98"/>
</g>
<!-- Node8&#45;&gt;Node2 -->
<g id="edge18" class="edge">
<title>Node8&#45;&gt;Node2</title>
<path fill="none" stroke="midnightblue" d="M376.33,-195.43C322.26,-187.31 245.13,-173.62 179.5,-154 177.21,-153.32 174.87,-152.54 172.54,-151.7"/>
<polygon fill="midnightblue" stroke="midnightblue" points="173.72,-148.4 163.13,-148.05 171.19,-154.93 173.72,-148.4"/>
</g>
<!-- Node9 -->
<g id="node9" class="node">
<title>Node9</title>
<g id="a_node9"><a xlink:title=" ">
<polygon fill="none" stroke="#bfbfbf" points="489.5,-129 489.5,-148 603.5,-148 603.5,-129 489.5,-129"/>
<text text-anchor="middle" x="546.5" y="-136" font-family="Helvetica,sans-Serif" font-size="10.00">iDynTree/Core/Span.h</text>
</a>
</g>
</g>
<!-- Node8&#45;&gt;Node9 -->
<g id="edge10" class="edge">
<title>Node8&#45;&gt;Node9</title>
<path fill="none" stroke="midnightblue" d="M466.63,-190.4C483.74,-179.5 507.3,-164.48 524.4,-153.58"/>
<polygon fill="midnightblue" stroke="midnightblue" points="526.6,-156.33 533.15,-148.01 522.84,-150.43 526.6,-156.33"/>
</g>
<!-- Node8&#45;&gt;Node10 -->
<g id="edge11" class="edge">
<title>Node8&#45;&gt;Node10</title>
<path fill="none" stroke="midnightblue" d="M404.57,-190.4C376.85,-180.6 339.71,-167.48 310.08,-157.02"/>
<polygon fill="midnightblue" stroke="midnightblue" points="310.94,-153.61 300.35,-153.58 308.61,-160.21 310.94,-153.61"/>
</g>
<!-- Node14 -->
<g id="node14" class="node">
<title>Node14</title>
<g id="a_node14"><a xlink:title=" ">
<polygon fill="none" stroke="#bfbfbf" points="698,-62 698,-81 757,-81 757,-62 698,-62"/>
<text text-anchor="middle" x="727.5" y="-69" font-family="Helvetica,sans-Serif" font-size="10.00">functional</text>
</a>
</g>
</g>
<!-- Node8&#45;&gt;Node14 -->
<g id="edge15" class="edge">
<title>Node8&#45;&gt;Node14</title>
<path fill="none" stroke="midnightblue" d="M508.56,-190.46C540.69,-182.14 579.66,-170.04 612.5,-154 649.97,-135.7 688.5,-105.66 710.09,-87.61"/>
<polygon fill="midnightblue" stroke="midnightblue" points="712.38,-90.25 717.74,-81.11 707.86,-84.91 712.38,-90.25"/>
</g>
<!-- Node15 -->
<g id="node15" class="node">
<title>Node15</title>
<g id="a_node15"><a xlink:title=" ">
<polygon fill="none" stroke="#bfbfbf" points="350,-129 350,-148 399,-148 399,-129 350,-129"/>
<text text-anchor="middle" x="374.5" y="-136" font-family="Helvetica,sans-Serif" font-size="10.00">cassert</text>
</a>
</g>
</g>
<!-- Node8&#45;&gt;Node15 -->
<g id="edge16" class="edge">
<title>Node8&#45;&gt;Node15</title>
<path fill="none" stroke="midnightblue" d="M429.31,-190.4C418.18,-180.06 403.06,-166.02 391.53,-155.31"/>
<polygon fill="midnightblue" stroke="midnightblue" points="393.57,-152.43 383.86,-148.19 388.81,-157.56 393.57,-152.43"/>
</g>
<!-- Node16 -->
<g id="node16" class="node">
<title>Node16</title>
<g id="a_node16"><a xlink:title=" ">
<polygon fill="none" stroke="#bfbfbf" points="417.5,-129 417.5,-148 471.5,-148 471.5,-129 417.5,-129"/>
<text text-anchor="middle" x="444.5" y="-136" font-family="Helvetica,sans-Serif" font-size="10.00">iostream</text>
</a>
</g>
</g>
<!-- Node8&#45;&gt;Node16 -->
<g id="edge17" class="edge">
<title>Node8&#45;&gt;Node16</title>
<path fill="none" stroke="midnightblue" d="M444.5,-190.4C444.5,-181.06 444.5,-168.71 444.5,-158.52"/>
<polygon fill="midnightblue" stroke="midnightblue" points="448,-158.19 444.5,-148.19 441,-158.19 448,-158.19"/>
</g>
<!-- Node11 -->
<g id="node11" class="node">
<title>Node11</title>
<g id="a_node11"><a xlink:title=" ">
<polygon fill="none" stroke="#bfbfbf" points="311.5,-62 311.5,-81 373.5,-81 373.5,-62 311.5,-62"/>
<text text-anchor="middle" x="342.5" y="-69" font-family="Helvetica,sans-Serif" font-size="10.00">type_traits</text>
</a>
</g>
</g>
<!-- Node10&#45;&gt;Node11 -->
<g id="edge12" class="edge">
<title>Node10&#45;&gt;Node11</title>
<path fill="none" stroke="midnightblue" d="M278.29,-123.4C291.58,-112.86 309.73,-98.48 323.34,-87.69"/>
<polygon fill="midnightblue" stroke="midnightblue" points="325.87,-90.15 331.53,-81.19 321.52,-84.66 325.87,-90.15"/>
</g>
<!-- Node12 -->
<g id="node12" class="node">
<title>Node12</title>
<g id="a_node12"><a xlink:title=" ">
<polygon fill="none" stroke="#bfbfbf" points="143.5,-62 143.5,-81 209.5,-81 209.5,-62 143.5,-62"/>
<text text-anchor="middle" x="176.5" y="-69" font-family="Helvetica,sans-Serif" font-size="10.00">string_view</text>
</a>
</g>
</g>
<!-- Node10&#45;&gt;Node12 -->
<g id="edge13" class="edge">
<title>Node10&#45;&gt;Node12</title>
<path fill="none" stroke="midnightblue" d="M242.27,-123.4C228.53,-112.76 209.72,-98.2 195.73,-87.38"/>
<polygon fill="midnightblue" stroke="midnightblue" points="197.79,-84.55 187.74,-81.19 193.5,-90.08 197.79,-84.55"/>
</g>
<!-- Node13 -->
<g id="node13" class="node">
<title>Node13</title>
<g id="a_node13"><a xlink:title=" ">
<polygon fill="none" stroke="#bfbfbf" points="228,-62 228,-81 293,-81 293,-62 228,-62"/>
<text text-anchor="middle" x="260.5" y="-69" font-family="Helvetica,sans-Serif" font-size="10.00">Eigen/Core</text>
</a>
</g>
</g>
<!-- Node10&#45;&gt;Node13 -->
<g id="edge14" class="edge">
<title>Node10&#45;&gt;Node13</title>
<path fill="none" stroke="midnightblue" d="M260.5,-123.4C260.5,-114.06 260.5,-101.71 260.5,-91.52"/>
<polygon fill="midnightblue" stroke="midnightblue" points="264,-91.19 260.5,-81.19 257,-91.19 264,-91.19"/>
</g>
<!-- Node17&#45;&gt;Node7 -->
<g id="edge37" class="edge">
<title>Node17&#45;&gt;Node7</title>
<path fill="none" stroke="midnightblue" d="M835.25,-257.4C810.1,-246.04 775.05,-230.22 750.73,-219.24"/>
<polygon fill="midnightblue" stroke="midnightblue" points="751.9,-215.93 741.35,-215.01 749.02,-222.31 751.9,-215.93"/>
</g>
<!-- Node18 -->
<g id="node18" class="node">
<title>Node18</title>
<g id="a_node18"><a xlink:href="Contact_8h.html" target="_top" xlink:title=" ">
<polygon fill="none" stroke="black" points="993.5,-56.5 993.5,-86.5 1135.5,-86.5 1135.5,-56.5 993.5,-56.5"/>
<text text-anchor="start" x="1001.5" y="-74.5" font-family="Helvetica,sans-Serif" font-size="10.00">BipedalLocomotion/Contacts</text>
<text text-anchor="middle" x="1064.5" y="-63.5" font-family="Helvetica,sans-Serif" font-size="10.00">/Contact.h</text>
</a>
</g>
</g>
<!-- Node17&#45;&gt;Node18 -->
<g id="edge21" class="edge">
<title>Node17&#45;&gt;Node18</title>
<path fill="none" stroke="midnightblue" d="M937.62,-264.75C978.4,-258.29 1029.14,-245.67 1068.5,-221 1111.01,-194.36 1145.67,-168.48 1124.5,-123 1118.83,-110.82 1108.63,-100.54 1098.22,-92.49"/>
<polygon fill="midnightblue" stroke="midnightblue" points="1100.08,-89.51 1089.91,-86.52 1095.99,-95.19 1100.08,-89.51"/>
</g>
<!-- Node20 -->
<g id="node20" class="node">
<title>Node20</title>
<g id="a_node20"><a xlink:href="ContactList_8h.html" target="_top" xlink:title=" ">
<polygon fill="none" stroke="black" points="795.5,-123.5 795.5,-153.5 937.5,-153.5 937.5,-123.5 795.5,-123.5"/>
<text text-anchor="start" x="803.5" y="-141.5" font-family="Helvetica,sans-Serif" font-size="10.00">BipedalLocomotion/Contacts</text>
<text text-anchor="middle" x="866.5" y="-130.5" font-family="Helvetica,sans-Serif" font-size="10.00">/ContactList.h</text>
</a>
</g>
</g>
<!-- Node17&#45;&gt;Node20 -->
<g id="edge24" class="edge">
<title>Node17&#45;&gt;Node20</title>
<path fill="none" stroke="midnightblue" d="M866.5,-257.37C866.5,-235.04 866.5,-191.31 866.5,-163.85"/>
<polygon fill="midnightblue" stroke="midnightblue" points="870,-163.52 866.5,-153.52 863,-163.52 870,-163.52"/>
</g>
<!-- Node23 -->
<g id="node23" class="node">
<title>Node23</title>
<g id="a_node23"><a xlink:href="ContactPhase_8h.html" target="_top" xlink:title=" ">
<polygon fill="none" stroke="black" points="894.5,-190.5 894.5,-220.5 1036.5,-220.5 1036.5,-190.5 894.5,-190.5"/>
<text text-anchor="start" x="902.5" y="-208.5" font-family="Helvetica,sans-Serif" font-size="10.00">BipedalLocomotion/Contacts</text>
<text text-anchor="middle" x="965.5" y="-197.5" font-family="Helvetica,sans-Serif" font-size="10.00">/ContactPhase.h</text>
</a>
</g>
</g>
<!-- Node17&#45;&gt;Node23 -->
<g id="edge30" class="edge">
<title>Node17&#45;&gt;Node23</title>
<path fill="none" stroke="midnightblue" d="M887.98,-257.4C901.86,-248.28 920.13,-236.29 935.44,-226.24"/>
<polygon fill="midnightblue" stroke="midnightblue" points="937.62,-228.99 944.06,-220.58 933.78,-223.14 937.62,-228.99"/>
</g>
<!-- Node24 -->
<g id="node24" class="node">
<title>Node24</title>
<g id="a_node24"><a xlink:title=" ">
<polygon fill="none" stroke="#bfbfbf" points="1032,-129 1032,-148 1115,-148 1115,-129 1032,-129"/>
<text text-anchor="middle" x="1073.5" y="-136" font-family="Helvetica,sans-Serif" font-size="10.00">unordered_map</text>
</a>
</g>
</g>
<!-- Node17&#45;&gt;Node24 -->
<g id="edge35" class="edge">
<title>Node17&#45;&gt;Node24</title>
<path fill="none" stroke="midnightblue" d="M937.87,-266.87C974.19,-261.01 1016.64,-248.29 1045.5,-221 1062.96,-204.49 1069.54,-176.6 1072.01,-158.12"/>
<polygon fill="midnightblue" stroke="midnightblue" points="1075.51,-158.33 1073.08,-148.02 1068.55,-157.59 1075.51,-158.33"/>
</g>
<!-- Node25 -->
<g id="node25" class="node">
<title>Node25</title>
<g id="a_node25"><a xlink:title=" ">
<polygon fill="none" stroke="#bfbfbf" points="765,-196 765,-215 838,-215 838,-196 765,-196"/>
<text text-anchor="middle" x="801.5" y="-203" font-family="Helvetica,sans-Serif" font-size="10.00">initializer_list</text>
</a>
</g>
</g>
<!-- Node17&#45;&gt;Node25 -->
<g id="edge36" class="edge">
<title>Node17&#45;&gt;Node25</title>
<path fill="none" stroke="midnightblue" d="M852.4,-257.4C842.06,-247.06 828.02,-233.02 817.31,-222.31"/>
<polygon fill="midnightblue" stroke="midnightblue" points="819.74,-219.79 810.19,-215.19 814.79,-224.74 819.74,-219.79"/>
</g>
<!-- Node18&#45;&gt;Node6 -->
<g id="edge23" class="edge">
<title>Node18&#45;&gt;Node6</title>
<path fill="none" stroke="midnightblue" d="M1019.71,-56.4C984.6,-45.35 936.69,-30.26 905.92,-20.58"/>
<polygon fill="midnightblue" stroke="midnightblue" points="906.77,-17.18 896.18,-17.51 904.67,-23.85 906.77,-17.18"/>
</g>
<!-- Node19 -->
<g id="node19" class="node">
<title>Node19</title>
<g id="a_node19"><a xlink:title=" ">
<polygon fill="none" stroke="#bfbfbf" points="1029,-0.5 1029,-19.5 1100,-19.5 1100,-0.5 1029,-0.5"/>
<text text-anchor="middle" x="1064.5" y="-7.5" font-family="Helvetica,sans-Serif" font-size="10.00">manif/SE3.h</text>
</a>
</g>
</g>
<!-- Node18&#45;&gt;Node19 -->
<g id="edge22" class="edge">
<title>Node18&#45;&gt;Node19</title>
<path fill="none" stroke="midnightblue" d="M1064.5,-56.4C1064.5,-48.47 1064.5,-38.46 1064.5,-29.86"/>
<polygon fill="midnightblue" stroke="midnightblue" points="1068,-29.66 1064.5,-19.66 1061,-29.66 1068,-29.66"/>
</g>
<!-- Node20&#45;&gt;Node6 -->
<g id="edge28" class="edge">
<title>Node20&#45;&gt;Node6</title>
<path fill="none" stroke="midnightblue" d="M839.94,-123.47C826.67,-114.88 811.89,-102.55 804.5,-87 798.59,-74.56 797.86,-68.07 804.5,-56 813.21,-40.16 830.12,-29.12 845.24,-21.93"/>
<polygon fill="midnightblue" stroke="midnightblue" points="847.06,-24.96 854.83,-17.76 844.26,-18.54 847.06,-24.96"/>
</g>
<!-- Node20&#45;&gt;Node14 -->
<g id="edge29" class="edge">
<title>Node20&#45;&gt;Node14</title>
<path fill="none" stroke="midnightblue" d="M836.34,-123.4C812.06,-112.04 778.22,-96.22 754.75,-85.24"/>
<polygon fill="midnightblue" stroke="midnightblue" points="756.23,-82.07 745.69,-81.01 753.27,-88.41 756.23,-82.07"/>
</g>
<!-- Node20&#45;&gt;Node18 -->
<g id="edge25" class="edge">
<title>Node20&#45;&gt;Node18</title>
<path fill="none" stroke="midnightblue" d="M909.46,-123.4C939.56,-113.52 979.96,-100.25 1011.98,-89.74"/>
<polygon fill="midnightblue" stroke="midnightblue" points="1013.21,-93.02 1021.62,-86.58 1011.03,-86.37 1013.21,-93.02"/>
</g>
<!-- Node21 -->
<g id="node21" class="node">
<title>Node21</title>
<g id="a_node21"><a xlink:title=" ">
<polygon fill="none" stroke="#bfbfbf" points="813.5,-62 813.5,-81 889.5,-81 889.5,-62 813.5,-62"/>
<text text-anchor="middle" x="851.5" y="-69" font-family="Helvetica,sans-Serif" font-size="10.00">manif/manif.h</text>
</a>
</g>
</g>
<!-- Node20&#45;&gt;Node21 -->
<g id="edge26" class="edge">
<title>Node20&#45;&gt;Node21</title>
<path fill="none" stroke="midnightblue" d="M863.25,-123.4C861.07,-113.96 858.18,-101.45 855.81,-91.19"/>
<polygon fill="midnightblue" stroke="midnightblue" points="859.17,-90.15 853.51,-81.19 852.34,-91.73 859.17,-90.15"/>
</g>
<!-- Node22 -->
<g id="node22" class="node">
<title>Node22</title>
<g id="a_node22"><a xlink:title=" ">
<polygon fill="none" stroke="#bfbfbf" points="907.5,-62 907.5,-81 937.5,-81 937.5,-62 907.5,-62"/>
<text text-anchor="middle" x="922.5" y="-69" font-family="Helvetica,sans-Serif" font-size="10.00">set</text>
</a>
</g>
</g>
<!-- Node20&#45;&gt;Node22 -->
<g id="edge27" class="edge">
<title>Node20&#45;&gt;Node22</title>
<path fill="none" stroke="midnightblue" d="M878.65,-123.4C887.38,-113.26 899.18,-99.57 908.34,-88.94"/>
<polygon fill="midnightblue" stroke="midnightblue" points="911.13,-91.06 915.01,-81.19 905.83,-86.49 911.13,-91.06"/>
</g>
<!-- Node23&#45;&gt;Node6 -->
<g id="edge34" class="edge">
<title>Node23&#45;&gt;Node6</title>
<path fill="none" stroke="midnightblue" d="M967.46,-190.07C970.52,-161.89 973.56,-98.54 946.5,-56 936.93,-40.95 920.31,-30.01 905.56,-22.69"/>
<polygon fill="midnightblue" stroke="midnightblue" points="906.77,-19.4 896.23,-18.4 903.85,-25.76 906.77,-19.4"/>
</g>
<!-- Node23&#45;&gt;Node18 -->
<g id="edge31" class="edge">
<title>Node23&#45;&gt;Node18</title>
<path fill="none" stroke="midnightblue" d="M975.09,-190.46C986.38,-174.06 1005.84,-146.22 1023.5,-123 1030.65,-113.6 1038.8,-103.45 1045.94,-94.74"/>
<polygon fill="midnightblue" stroke="midnightblue" points="1048.75,-96.83 1052.41,-86.89 1043.35,-92.38 1048.75,-96.83"/>
</g>
<!-- Node23&#45;&gt;Node20 -->
<g id="edge32" class="edge">
<title>Node23&#45;&gt;Node20</title>
<path fill="none" stroke="midnightblue" d="M944.02,-190.4C930.14,-181.28 911.87,-169.29 896.56,-159.24"/>
<polygon fill="midnightblue" stroke="midnightblue" points="898.22,-156.14 887.94,-153.58 894.38,-161.99 898.22,-156.14"/>
</g>
<!-- Node23&#45;&gt;Node24 -->
<g id="edge33" class="edge">
<title>Node23&#45;&gt;Node24</title>
<path fill="none" stroke="midnightblue" d="M988.93,-190.4C1007.21,-179.39 1032.46,-164.2 1050.6,-153.28"/>
<polygon fill="midnightblue" stroke="midnightblue" points="1052.6,-156.16 1059.37,-148.01 1048.99,-150.16 1052.6,-156.16"/>
</g>
</g>
</svg>
