<?xml version="1.0" encoding="UTF-8" standalone="no"?>
<!DOCTYPE svg PUBLIC "-//W3C//DTD SVG 1.1//EN"
 "http://www.w3.org/Graphics/SVG/1.1/DTD/svg11.dtd">
<!-- Generated by graphviz version 2.43.0 (0)
 -->
<!-- Title: Planners/src/TimeVaryingDCMPlanner.cpp Pages: 1 -->
<svg width="1464pt" height="497pt"
 viewBox="0.00 0.00 1464.00 497.00" xmlns="http://www.w3.org/2000/svg" xmlns:xlink="http://www.w3.org/1999/xlink">
<g id="graph0" class="graph" transform="scale(1 1) rotate(0) translate(4 493)">
<title>Planners/src/TimeVaryingDCMPlanner.cpp</title>
<!-- Node1 -->
<g id="node1" class="node">
<title>Node1</title>
<g id="a_node1"><a xlink:title=" ">
<polygon fill="#bfbfbf" stroke="black" points="792,-458.5 792,-488.5 920,-488.5 920,-458.5 792,-458.5"/>
<text text-anchor="start" x="800" y="-476.5" font-family="Helvetica,sans-Serif" font-size="10.00">Planners/src/TimeVarying</text>
<text text-anchor="middle" x="856" y="-465.5" font-family="Helvetica,sans-Serif" font-size="10.00">DCMPlanner.cpp</text>
</a>
</g>
</g>
<!-- Node2 -->
<g id="node2" class="node">
<title>Node2</title>
<g id="a_node2"><a xlink:title=" ">
<polygon fill="none" stroke="#bfbfbf" points="432.5,-397 432.5,-416 527.5,-416 527.5,-397 432.5,-397"/>
<text text-anchor="middle" x="480" y="-404" font-family="Helvetica,sans-Serif" font-size="10.00">casadi/casadi.hpp</text>
</a>
</g>
</g>
<!-- Node1&#45;&gt;Node2 -->
<g id="edge1" class="edge">
<title>Node1&#45;&gt;Node2</title>
<path fill="none" stroke="midnightblue" d="M791.83,-464.11C727.19,-455.25 624.73,-440.06 537,-422 531.94,-420.96 526.66,-419.76 521.43,-418.51"/>
<polygon fill="midnightblue" stroke="midnightblue" points="522.08,-415.07 511.54,-416.07 520.41,-421.87 522.08,-415.07"/>
</g>
<!-- Node3 -->
<g id="node3" class="node">
<title>Node3</title>
<g id="a_node3"><a xlink:href="Constants_8h.html" target="_top" xlink:title=" ">
<polygon fill="none" stroke="black" points="546,-391.5 546,-421.5 670,-421.5 670,-391.5 546,-391.5"/>
<text text-anchor="start" x="554" y="-409.5" font-family="Helvetica,sans-Serif" font-size="10.00">BipedalLocomotion/Math</text>
<text text-anchor="middle" x="608" y="-398.5" font-family="Helvetica,sans-Serif" font-size="10.00">/Constants.h</text>
</a>
</g>
</g>
<!-- Node1&#45;&gt;Node3 -->
<g id="edge2" class="edge">
<title>Node1&#45;&gt;Node3</title>
<path fill="none" stroke="midnightblue" d="M802.49,-458.48C764.08,-448.41 712.16,-434.8 671.62,-424.17"/>
<polygon fill="midnightblue" stroke="midnightblue" points="672.4,-420.76 661.84,-421.61 670.62,-427.53 672.4,-420.76"/>
</g>
<!-- Node4 -->
<g id="node4" class="node">
<title>Node4</title>
<g id="a_node4"><a xlink:href="ConvexHullHelper_8h.html" target="_top" xlink:title=" ">
<polygon fill="none" stroke="black" points="840,-324.5 840,-354.5 980,-354.5 980,-324.5 840,-324.5"/>
<text text-anchor="start" x="848" y="-342.5" font-family="Helvetica,sans-Serif" font-size="10.00">BipedalLocomotion/Planners</text>
<text text-anchor="middle" x="910" y="-331.5" font-family="Helvetica,sans-Serif" font-size="10.00">/ConvexHullHelper.h</text>
</a>
</g>
</g>
<!-- Node1&#45;&gt;Node4 -->
<g id="edge3" class="edge">
<title>Node1&#45;&gt;Node4</title>
<path fill="none" stroke="midnightblue" d="M861.78,-458.37C871,-435.85 889.12,-391.53 900.34,-364.12"/>
<polygon fill="midnightblue" stroke="midnightblue" points="903.72,-365.11 904.26,-354.52 897.24,-362.45 903.72,-365.11"/>
</g>
<!-- Node8 -->
<g id="node8" class="node">
<title>Node8</title>
<g id="a_node8"><a xlink:href="QuinticSpline_8h.html" target="_top" xlink:title=" ">
<polygon fill="none" stroke="black" points="524,-324.5 524,-354.5 664,-354.5 664,-324.5 524,-324.5"/>
<text text-anchor="start" x="532" y="-342.5" font-family="Helvetica,sans-Serif" font-size="10.00">BipedalLocomotion/Planners</text>
<text text-anchor="middle" x="594" y="-331.5" font-family="Helvetica,sans-Serif" font-size="10.00">/QuinticSpline.h</text>
</a>
</g>
</g>
<!-- Node1&#45;&gt;Node8 -->
<g id="edge7" class="edge">
<title>Node1&#45;&gt;Node8</title>
<path fill="none" stroke="midnightblue" d="M856.97,-458.21C857.37,-439.96 855.09,-408.66 837,-391 833.98,-388.06 743.78,-369.83 674.16,-356.11"/>
<polygon fill="midnightblue" stroke="midnightblue" points="674.53,-352.62 664.05,-354.12 673.18,-359.48 674.53,-352.62"/>
</g>
<!-- Node10 -->
<g id="node10" class="node">
<title>Node10</title>
<g id="a_node10"><a xlink:href="TimeVaryingDCMPlanner_8h.html" target="_top" xlink:title=" ">
<polygon fill="none" stroke="black" points="688,-391.5 688,-421.5 828,-421.5 828,-391.5 688,-391.5"/>
<text text-anchor="start" x="696" y="-409.5" font-family="Helvetica,sans-Serif" font-size="10.00">BipedalLocomotion/Planners</text>
<text text-anchor="middle" x="758" y="-398.5" font-family="Helvetica,sans-Serif" font-size="10.00">/TimeVaryingDCMPlanner.h</text>
</a>
</g>
</g>
<!-- Node1&#45;&gt;Node10 -->
<g id="edge12" class="edge">
<title>Node1&#45;&gt;Node10</title>
<path fill="none" stroke="midnightblue" d="M834.74,-458.4C820.99,-449.28 802.91,-437.29 787.76,-427.24"/>
<polygon fill="midnightblue" stroke="midnightblue" points="789.49,-424.19 779.22,-421.58 785.62,-430.02 789.49,-424.19"/>
</g>
<!-- Node32 -->
<g id="node32" class="node">
<title>Node32</title>
<g id="a_node32"><a xlink:href="DynamicalSystem_8h.html" target="_top" xlink:title=" ">
<polygon fill="none" stroke="black" points="1047,-324.5 1047,-354.5 1183,-354.5 1183,-324.5 1047,-324.5"/>
<text text-anchor="start" x="1055" y="-342.5" font-family="Helvetica,sans-Serif" font-size="10.00">BipedalLocomotion/System</text>
<text text-anchor="middle" x="1115" y="-331.5" font-family="Helvetica,sans-Serif" font-size="10.00">/DynamicalSystem.h</text>
</a>
</g>
</g>
<!-- Node1&#45;&gt;Node32 -->
<g id="edge51" class="edge">
<title>Node1&#45;&gt;Node32</title>
<path fill="none" stroke="midnightblue" d="M883.72,-458.37C930.74,-434.41 1026.15,-385.78 1078.53,-359.09"/>
<polygon fill="midnightblue" stroke="midnightblue" points="1080.16,-362.18 1087.48,-354.52 1076.98,-355.95 1080.16,-362.18"/>
</g>
<!-- Node35 -->
<g id="node35" class="node">
<title>Node35</title>
<g id="a_node35"><a xlink:href="Logger_8h.html" target="_top" xlink:title=" ">
<polygon fill="none" stroke="black" points="1113.5,-391.5 1113.5,-421.5 1268.5,-421.5 1268.5,-391.5 1113.5,-391.5"/>
<text text-anchor="start" x="1121.5" y="-409.5" font-family="Helvetica,sans-Serif" font-size="10.00">BipedalLocomotion/TextLogging</text>
<text text-anchor="middle" x="1191" y="-398.5" font-family="Helvetica,sans-Serif" font-size="10.00">/Logger.h</text>
</a>
</g>
</g>
<!-- Node1&#45;&gt;Node35 -->
<g id="edge58" class="edge">
<title>Node1&#45;&gt;Node35</title>
<path fill="none" stroke="midnightblue" d="M920.19,-460.04C973.8,-449.64 1050.58,-434.75 1108.7,-423.47"/>
<polygon fill="midnightblue" stroke="midnightblue" points="1109.44,-426.89 1118.59,-421.55 1108.11,-420.02 1109.44,-426.89"/>
</g>
<!-- Node5 -->
<g id="node5" class="node">
<title>Node5</title>
<g id="a_node5"><a xlink:title=" ">
<polygon fill="none" stroke="#bfbfbf" points="732.5,-263 732.5,-282 805.5,-282 805.5,-263 732.5,-263"/>
<text text-anchor="middle" x="769" y="-270" font-family="Helvetica,sans-Serif" font-size="10.00">Eigen/Dense</text>
</a>
</g>
</g>
<!-- Node4&#45;&gt;Node5 -->
<g id="edge4" class="edge">
<title>Node4&#45;&gt;Node5</title>
<path fill="none" stroke="midnightblue" d="M879.41,-324.4C854.77,-313.04 820.45,-297.22 796.64,-286.24"/>
<polygon fill="midnightblue" stroke="midnightblue" points="798,-283.02 787.45,-282.01 795.07,-289.37 798,-283.02"/>
</g>
<!-- Node6 -->
<g id="node6" class="node">
<title>Node6</title>
<g id="a_node6"><a xlink:title=" ">
<polygon fill="none" stroke="#bfbfbf" points="651,-196 651,-215 695,-215 695,-196 651,-196"/>
<text text-anchor="middle" x="673" y="-203" font-family="Helvetica,sans-Serif" font-size="10.00">vector</text>
</a>
</g>
</g>
<!-- Node4&#45;&gt;Node6 -->
<g id="edge5" class="edge">
<title>Node4&#45;&gt;Node6</title>
<path fill="none" stroke="midnightblue" d="M896.77,-324.3C879.47,-306.45 847.52,-275.85 815,-257 779.77,-236.57 734.88,-222.32 705.11,-214.28"/>
<polygon fill="midnightblue" stroke="midnightblue" points="705.81,-210.85 695.25,-211.7 704.04,-217.62 705.81,-210.85"/>
</g>
<!-- Node7 -->
<g id="node7" class="node">
<title>Node7</title>
<g id="a_node7"><a xlink:title=" ">
<polygon fill="none" stroke="#bfbfbf" points="808,-129 808,-148 860,-148 860,-129 808,-129"/>
<text text-anchor="middle" x="834" y="-136" font-family="Helvetica,sans-Serif" font-size="10.00">memory</text>
</a>
</g>
</g>
<!-- Node4&#45;&gt;Node7 -->
<g id="edge6" class="edge">
<title>Node4&#45;&gt;Node7</title>
<path fill="none" stroke="midnightblue" d="M904.53,-324.19C891,-288.76 855.96,-197 840.97,-157.75"/>
<polygon fill="midnightblue" stroke="midnightblue" points="844.22,-156.45 837.38,-148.36 837.68,-158.95 844.22,-156.45"/>
</g>
<!-- Node8&#45;&gt;Node5 -->
<g id="edge10" class="edge">
<title>Node8&#45;&gt;Node5</title>
<path fill="none" stroke="midnightblue" d="M631.97,-324.4C663.22,-312.79 707.04,-296.51 736.64,-285.52"/>
<polygon fill="midnightblue" stroke="midnightblue" points="737.94,-288.77 746.1,-282.01 735.5,-282.21 737.94,-288.77"/>
</g>
<!-- Node8&#45;&gt;Node6 -->
<g id="edge8" class="edge">
<title>Node8&#45;&gt;Node6</title>
<path fill="none" stroke="midnightblue" d="M582.91,-324.31C571.05,-307.27 555.65,-278.33 569,-257 584.66,-231.99 616.62,-219.05 641.01,-212.57"/>
<polygon fill="midnightblue" stroke="midnightblue" points="642.03,-215.92 650.92,-210.17 640.38,-209.12 642.03,-215.92"/>
</g>
<!-- Node8&#45;&gt;Node7 -->
<g id="edge9" class="edge">
<title>Node8&#45;&gt;Node7</title>
<path fill="none" stroke="midnightblue" d="M580.8,-324.48C567.05,-308.1 548.96,-280.27 560,-257 580.17,-214.48 600.06,-211.36 642,-190 692.75,-164.15 757.97,-150.63 797.85,-144.29"/>
<polygon fill="midnightblue" stroke="midnightblue" points="798.54,-147.73 807.9,-142.76 797.49,-140.81 798.54,-147.73"/>
</g>
<!-- Node9 -->
<g id="node9" class="node">
<title>Node9</title>
<g id="a_node9"><a xlink:href="Advanceable_8h.html" target="_top" xlink:title=" ">
<polygon fill="none" stroke="black" points="578,-257.5 578,-287.5 714,-287.5 714,-257.5 578,-257.5"/>
<text text-anchor="start" x="586" y="-275.5" font-family="Helvetica,sans-Serif" font-size="10.00">BipedalLocomotion/System</text>
<text text-anchor="middle" x="646" y="-264.5" font-family="Helvetica,sans-Serif" font-size="10.00">/Advanceable.h</text>
</a>
</g>
</g>
<!-- Node8&#45;&gt;Node9 -->
<g id="edge11" class="edge">
<title>Node8&#45;&gt;Node9</title>
<path fill="none" stroke="midnightblue" d="M605.28,-324.4C612.03,-315.96 620.75,-305.07 628.38,-295.52"/>
<polygon fill="midnightblue" stroke="midnightblue" points="631.22,-297.57 634.74,-287.58 625.76,-293.2 631.22,-297.57"/>
</g>
<!-- Node10&#45;&gt;Node7 -->
<g id="edge13" class="edge">
<title>Node10&#45;&gt;Node7</title>
<path fill="none" stroke="midnightblue" d="M687.81,-392.01C617.03,-378.25 517.79,-358.43 515,-355 506.31,-344.31 511.79,-337.4 515,-324 530.54,-259.05 529.83,-230.41 583,-190 616.37,-164.64 736.79,-149.24 797.9,-142.89"/>
<polygon fill="midnightblue" stroke="midnightblue" points="798.28,-146.36 807.88,-141.87 797.57,-139.4 798.28,-146.36"/>
</g>
<!-- Node11 -->
<g id="node11" class="node">
<title>Node11</title>
<g id="a_node11"><a xlink:href="DCMPlanner_8h.html" target="_top" xlink:title=" ">
<polygon fill="none" stroke="black" points="682,-324.5 682,-354.5 822,-354.5 822,-324.5 682,-324.5"/>
<text text-anchor="start" x="690" y="-342.5" font-family="Helvetica,sans-Serif" font-size="10.00">BipedalLocomotion/Planners</text>
<text text-anchor="middle" x="752" y="-331.5" font-family="Helvetica,sans-Serif" font-size="10.00">/DCMPlanner.h</text>
</a>
</g>
</g>
<!-- Node10&#45;&gt;Node11 -->
<g id="edge14" class="edge">
<title>Node10&#45;&gt;Node11</title>
<path fill="none" stroke="midnightblue" d="M756.7,-391.4C755.97,-383.56 755.05,-373.6 754.22,-364.57"/>
<polygon fill="midnightblue" stroke="midnightblue" points="757.7,-364.21 753.3,-354.58 750.73,-364.86 757.7,-364.21"/>
</g>
<!-- Node11&#45;&gt;Node5 -->
<g id="edge16" class="edge">
<title>Node11&#45;&gt;Node5</title>
<path fill="none" stroke="midnightblue" d="M755.69,-324.4C758.16,-314.96 761.43,-302.45 764.11,-292.19"/>
<polygon fill="midnightblue" stroke="midnightblue" points="767.58,-292.75 766.73,-282.19 760.81,-290.98 767.58,-292.75"/>
</g>
<!-- Node11&#45;&gt;Node7 -->
<g id="edge15" class="edge">
<title>Node11&#45;&gt;Node7</title>
<path fill="none" stroke="midnightblue" d="M777.87,-324.37C791.21,-315.68 806.43,-303.28 815,-288 838.35,-246.37 837.98,-188.06 835.9,-158.42"/>
<polygon fill="midnightblue" stroke="midnightblue" points="839.37,-157.9 835.04,-148.23 832.4,-158.49 839.37,-157.9"/>
</g>
<!-- Node11&#45;&gt;Node9 -->
<g id="edge50" class="edge">
<title>Node11&#45;&gt;Node9</title>
<path fill="none" stroke="midnightblue" d="M729,-324.4C714,-315.2 694.21,-303.07 677.73,-292.95"/>
<polygon fill="midnightblue" stroke="midnightblue" points="679.31,-289.82 668.96,-287.58 675.65,-295.79 679.31,-289.82"/>
</g>
<!-- Node12 -->
<g id="node12" class="node">
<title>Node12</title>
<g id="a_node12"><a xlink:href="IParametersHandler_8h.html" target="_top" xlink:title=" ">
<polygon fill="none" stroke="black" points="976,-257.5 976,-287.5 1128,-287.5 1128,-257.5 976,-257.5"/>
<text text-anchor="start" x="984" y="-275.5" font-family="Helvetica,sans-Serif" font-size="10.00">BipedalLocomotion/Parameters</text>
<text text-anchor="middle" x="1052" y="-264.5" font-family="Helvetica,sans-Serif" font-size="10.00">Handler/IParametersHandler.h</text>
</a>
</g>
</g>
<!-- Node11&#45;&gt;Node12 -->
<g id="edge17" class="edge">
<title>Node11&#45;&gt;Node12</title>
<path fill="none" stroke="midnightblue" d="M816.73,-324.48C863.86,-314.26 927.82,-300.41 977.15,-289.72"/>
<polygon fill="midnightblue" stroke="midnightblue" points="978.1,-293.09 987.13,-287.55 976.62,-286.25 978.1,-293.09"/>
</g>
<!-- Node23 -->
<g id="node23" class="node">
<title>Node23</title>
<g id="a_node23"><a xlink:href="ContactPhaseList_8h_source.html" target="_top" xlink:title=" ">
<polygon fill="none" stroke="black" points="273,-257.5 273,-287.5 415,-287.5 415,-257.5 273,-257.5"/>
<text text-anchor="start" x="281" y="-275.5" font-family="Helvetica,sans-Serif" font-size="10.00">BipedalLocomotion/Contacts</text>
<text text-anchor="middle" x="344" y="-264.5" font-family="Helvetica,sans-Serif" font-size="10.00">/ContactPhaseList.h</text>
</a>
</g>
</g>
<!-- Node11&#45;&gt;Node23 -->
<g id="edge32" class="edge">
<title>Node11&#45;&gt;Node23</title>
<path fill="none" stroke="midnightblue" d="M681.81,-325.51C678.83,-324.99 675.89,-324.49 673,-324 588.58,-309.78 491.69,-295.1 425.03,-285.26"/>
<polygon fill="midnightblue" stroke="midnightblue" points="425.42,-281.78 415.01,-283.79 424.4,-288.71 425.42,-281.78"/>
</g>
<!-- Node12&#45;&gt;Node6 -->
<g id="edge20" class="edge">
<title>Node12&#45;&gt;Node6</title>
<path fill="none" stroke="midnightblue" d="M975.76,-258.42C892.97,-244.23 764.62,-222.21 705.2,-212.02"/>
<polygon fill="midnightblue" stroke="midnightblue" points="705.72,-208.56 695.27,-210.32 704.54,-215.46 705.72,-208.56"/>
</g>
<!-- Node12&#45;&gt;Node7 -->
<g id="edge18" class="edge">
<title>Node12&#45;&gt;Node7</title>
<path fill="none" stroke="midnightblue" d="M1039.52,-257.42C1023.19,-239.7 992.98,-209.24 962,-190 953.51,-184.73 901.47,-164.79 866.41,-151.59"/>
<polygon fill="midnightblue" stroke="midnightblue" points="867.62,-148.31 857.02,-148.07 865.16,-154.86 867.62,-148.31"/>
</g>
<!-- Node13 -->
<g id="node13" class="node">
<title>Node13</title>
<g id="a_node13"><a xlink:title=" ">
<polygon fill="none" stroke="#bfbfbf" points="310.5,-0.5 310.5,-19.5 351.5,-19.5 351.5,-0.5 310.5,-0.5"/>
<text text-anchor="middle" x="331" y="-7.5" font-family="Helvetica,sans-Serif" font-size="10.00">string</text>
</a>
</g>
</g>
<!-- Node12&#45;&gt;Node13 -->
<g id="edge19" class="edge">
<title>Node12&#45;&gt;Node13</title>
<path fill="none" stroke="midnightblue" d="M1102.89,-257.47C1122.84,-249.66 1144.41,-237.98 1159,-221 1187.97,-187.29 1208.24,-156.49 1179,-123 1123.92,-59.91 507.34,-21.03 361.7,-12.69"/>
<polygon fill="midnightblue" stroke="midnightblue" points="361.84,-9.2 351.66,-12.12 361.45,-16.19 361.84,-9.2"/>
</g>
<!-- Node14 -->
<g id="node14" class="node">
<title>Node14</title>
<g id="a_node14"><a xlink:href="Vector_8h_source.html" target="_top" xlink:title=" ">
<polygon fill="none" stroke="black" points="1014,-190.5 1014,-220.5 1150,-220.5 1150,-190.5 1014,-190.5"/>
<text text-anchor="start" x="1022" y="-208.5" font-family="Helvetica,sans-Serif" font-size="10.00">BipedalLocomotion/Generic</text>
<text text-anchor="middle" x="1082" y="-197.5" font-family="Helvetica,sans-Serif" font-size="10.00">Container/Vector.h</text>
</a>
</g>
</g>
<!-- Node12&#45;&gt;Node14 -->
<g id="edge21" class="edge">
<title>Node12&#45;&gt;Node14</title>
<path fill="none" stroke="midnightblue" d="M1058.51,-257.4C1062.24,-249.3 1067.03,-238.94 1071.3,-229.69"/>
<polygon fill="midnightblue" stroke="midnightblue" points="1074.49,-231.12 1075.5,-220.58 1068.13,-228.19 1074.49,-231.12"/>
</g>
<!-- Node16 -->
<g id="node16" class="node">
<title>Node16</title>
<g id="a_node16"><a xlink:href="TemplateHelpers_8h_source.html" target="_top" xlink:title=" ">
<polygon fill="none" stroke="black" points="1249.5,-123.5 1249.5,-153.5 1392.5,-153.5 1392.5,-123.5 1249.5,-123.5"/>
<text text-anchor="start" x="1257.5" y="-141.5" font-family="Helvetica,sans-Serif" font-size="10.00">BipedalLocomotion/Generic</text>
<text text-anchor="middle" x="1321" y="-130.5" font-family="Helvetica,sans-Serif" font-size="10.00">Container/TemplateHelpers.h</text>
</a>
</g>
</g>
<!-- Node12&#45;&gt;Node16 -->
<g id="edge31" class="edge">
<title>Node12&#45;&gt;Node16</title>
<path fill="none" stroke="midnightblue" d="M1112.77,-257.5C1143.49,-249.14 1180.77,-237.02 1212,-221 1244.11,-204.53 1276.7,-178.71 1297.77,-160.55"/>
<polygon fill="midnightblue" stroke="midnightblue" points="1300.31,-162.98 1305.53,-153.76 1295.7,-157.72 1300.31,-162.98"/>
</g>
<!-- Node14&#45;&gt;Node7 -->
<g id="edge30" class="edge">
<title>Node14&#45;&gt;Node7</title>
<path fill="none" stroke="midnightblue" d="M1015.93,-190.4C974.79,-181.15 920.96,-168.17 874,-154 871.37,-153.21 868.66,-152.34 865.96,-151.43"/>
<polygon fill="midnightblue" stroke="midnightblue" points="866.88,-148.05 856.28,-148.07 864.57,-154.66 866.88,-148.05"/>
</g>
<!-- Node15 -->
<g id="node15" class="node">
<title>Node15</title>
<g id="a_node15"><a xlink:title=" ">
<polygon fill="none" stroke="#bfbfbf" points="1056,-129 1056,-148 1170,-148 1170,-129 1056,-129"/>
<text text-anchor="middle" x="1113" y="-136" font-family="Helvetica,sans-Serif" font-size="10.00">iDynTree/Core/Span.h</text>
</a>
</g>
</g>
<!-- Node14&#45;&gt;Node15 -->
<g id="edge22" class="edge">
<title>Node14&#45;&gt;Node15</title>
<path fill="none" stroke="midnightblue" d="M1088.73,-190.4C1093.32,-180.76 1099.45,-167.91 1104.4,-157.54"/>
<polygon fill="midnightblue" stroke="midnightblue" points="1107.71,-158.73 1108.85,-148.19 1101.39,-155.71 1107.71,-158.73"/>
</g>
<!-- Node14&#45;&gt;Node16 -->
<g id="edge23" class="edge">
<title>Node14&#45;&gt;Node16</title>
<path fill="none" stroke="midnightblue" d="M1133.57,-190.48C1170.5,-180.43 1220.41,-166.86 1259.44,-156.24"/>
<polygon fill="midnightblue" stroke="midnightblue" points="1260.38,-159.61 1269.12,-153.61 1258.55,-152.86 1260.38,-159.61"/>
</g>
<!-- Node20 -->
<g id="node20" class="node">
<title>Node20</title>
<g id="a_node20"><a xlink:title=" ">
<polygon fill="none" stroke="#bfbfbf" points="618.5,-62 618.5,-81 677.5,-81 677.5,-62 618.5,-62"/>
<text text-anchor="middle" x="648" y="-69" font-family="Helvetica,sans-Serif" font-size="10.00">functional</text>
</a>
</g>
</g>
<!-- Node14&#45;&gt;Node20 -->
<g id="edge27" class="edge">
<title>Node14&#45;&gt;Node20</title>
<path fill="none" stroke="midnightblue" d="M1013.99,-191.26C980.85,-183.21 941.11,-171.11 908,-154 888.33,-143.83 888.96,-132.59 869,-123 809.6,-94.44 733.35,-81.64 687.71,-76.2"/>
<polygon fill="midnightblue" stroke="midnightblue" points="687.95,-72.7 677.62,-75.05 687.17,-79.66 687.95,-72.7"/>
</g>
<!-- Node21 -->
<g id="node21" class="node">
<title>Node21</title>
<g id="a_node21"><a xlink:title=" ">
<polygon fill="none" stroke="#bfbfbf" points="916.5,-129 916.5,-148 965.5,-148 965.5,-129 916.5,-129"/>
<text text-anchor="middle" x="941" y="-136" font-family="Helvetica,sans-Serif" font-size="10.00">cassert</text>
</a>
</g>
</g>
<!-- Node14&#45;&gt;Node21 -->
<g id="edge28" class="edge">
<title>Node14&#45;&gt;Node21</title>
<path fill="none" stroke="midnightblue" d="M1051.41,-190.4C1026.77,-179.04 992.45,-163.22 968.64,-152.24"/>
<polygon fill="midnightblue" stroke="midnightblue" points="970,-149.02 959.45,-148.01 967.07,-155.37 970,-149.02"/>
</g>
<!-- Node22 -->
<g id="node22" class="node">
<title>Node22</title>
<g id="a_node22"><a xlink:title=" ">
<polygon fill="none" stroke="#bfbfbf" points="984,-129 984,-148 1038,-148 1038,-129 984,-129"/>
<text text-anchor="middle" x="1011" y="-136" font-family="Helvetica,sans-Serif" font-size="10.00">iostream</text>
</a>
</g>
</g>
<!-- Node14&#45;&gt;Node22 -->
<g id="edge29" class="edge">
<title>Node14&#45;&gt;Node22</title>
<path fill="none" stroke="midnightblue" d="M1066.59,-190.4C1055.19,-179.96 1039.67,-165.75 1027.93,-155"/>
<polygon fill="midnightblue" stroke="midnightblue" points="1030.24,-152.37 1020.5,-148.19 1025.51,-157.53 1030.24,-152.37"/>
</g>
<!-- Node17 -->
<g id="node17" class="node">
<title>Node17</title>
<g id="a_node17"><a xlink:title=" ">
<polygon fill="none" stroke="#bfbfbf" points="1394,-62 1394,-81 1456,-81 1456,-62 1394,-62"/>
<text text-anchor="middle" x="1425" y="-69" font-family="Helvetica,sans-Serif" font-size="10.00">type_traits</text>
</a>
</g>
</g>
<!-- Node16&#45;&gt;Node17 -->
<g id="edge24" class="edge">
<title>Node16&#45;&gt;Node17</title>
<path fill="none" stroke="midnightblue" d="M1343.57,-123.4C1361.01,-112.5 1385.03,-97.48 1402.47,-86.58"/>
<polygon fill="midnightblue" stroke="midnightblue" points="1404.76,-89.28 1411.39,-81.01 1401.05,-83.34 1404.76,-89.28"/>
</g>
<!-- Node18 -->
<g id="node18" class="node">
<title>Node18</title>
<g id="a_node18"><a xlink:title=" ">
<polygon fill="none" stroke="#bfbfbf" points="1226,-62 1226,-81 1292,-81 1292,-62 1226,-62"/>
<text text-anchor="middle" x="1259" y="-69" font-family="Helvetica,sans-Serif" font-size="10.00">string_view</text>
</a>
</g>
</g>
<!-- Node16&#45;&gt;Node18 -->
<g id="edge25" class="edge">
<title>Node16&#45;&gt;Node18</title>
<path fill="none" stroke="midnightblue" d="M1307.55,-123.4C1297.78,-113.16 1284.56,-99.3 1274.38,-88.62"/>
<polygon fill="midnightblue" stroke="midnightblue" points="1276.73,-86.01 1267.29,-81.19 1271.66,-90.85 1276.73,-86.01"/>
</g>
<!-- Node19 -->
<g id="node19" class="node">
<title>Node19</title>
<g id="a_node19"><a xlink:title=" ">
<polygon fill="none" stroke="#bfbfbf" points="1310.5,-62 1310.5,-81 1375.5,-81 1375.5,-62 1310.5,-62"/>
<text text-anchor="middle" x="1343" y="-69" font-family="Helvetica,sans-Serif" font-size="10.00">Eigen/Core</text>
</a>
</g>
</g>
<!-- Node16&#45;&gt;Node19 -->
<g id="edge26" class="edge">
<title>Node16&#45;&gt;Node19</title>
<path fill="none" stroke="midnightblue" d="M1325.77,-123.4C1329,-113.86 1333.29,-101.18 1336.79,-90.86"/>
<polygon fill="midnightblue" stroke="midnightblue" points="1340.17,-91.79 1340.06,-81.19 1333.54,-89.54 1340.17,-91.79"/>
</g>
<!-- Node23&#45;&gt;Node6 -->
<g id="edge49" class="edge">
<title>Node23&#45;&gt;Node6</title>
<path fill="none" stroke="midnightblue" d="M414.98,-257.48C484.97,-243.65 588.76,-223.14 640.8,-212.86"/>
<polygon fill="midnightblue" stroke="midnightblue" points="641.66,-216.26 650.79,-210.89 640.3,-209.39 641.66,-216.26"/>
</g>
<!-- Node24 -->
<g id="node24" class="node">
<title>Node24</title>
<g id="a_node24"><a xlink:href="Contact_8h.html" target="_top" xlink:title=" ">
<polygon fill="none" stroke="black" points="0,-56.5 0,-86.5 142,-86.5 142,-56.5 0,-56.5"/>
<text text-anchor="start" x="8" y="-74.5" font-family="Helvetica,sans-Serif" font-size="10.00">BipedalLocomotion/Contacts</text>
<text text-anchor="middle" x="71" y="-63.5" font-family="Helvetica,sans-Serif" font-size="10.00">/Contact.h</text>
</a>
</g>
</g>
<!-- Node23&#45;&gt;Node24 -->
<g id="edge33" class="edge">
<title>Node23&#45;&gt;Node24</title>
<path fill="none" stroke="midnightblue" d="M272.98,-265.62C235.07,-259.43 189.46,-246.79 156,-221 114.18,-188.76 89.45,-129.69 78.25,-96.6"/>
<polygon fill="midnightblue" stroke="midnightblue" points="81.49,-95.27 75.08,-86.83 74.83,-97.43 81.49,-95.27"/>
</g>
<!-- Node26 -->
<g id="node26" class="node">
<title>Node26</title>
<g id="a_node26"><a xlink:href="ContactList_8h.html" target="_top" xlink:title=" ">
<polygon fill="none" stroke="black" points="174,-123.5 174,-153.5 316,-153.5 316,-123.5 174,-123.5"/>
<text text-anchor="start" x="182" y="-141.5" font-family="Helvetica,sans-Serif" font-size="10.00">BipedalLocomotion/Contacts</text>
<text text-anchor="middle" x="245" y="-130.5" font-family="Helvetica,sans-Serif" font-size="10.00">/ContactList.h</text>
</a>
</g>
</g>
<!-- Node23&#45;&gt;Node26 -->
<g id="edge36" class="edge">
<title>Node23&#45;&gt;Node26</title>
<path fill="none" stroke="midnightblue" d="M272.58,-260.34C228.67,-251.86 178.35,-238.64 165,-221 156.68,-210.01 158.35,-202.07 165,-190 172.41,-176.56 185.07,-166.2 198.16,-158.47"/>
<polygon fill="midnightblue" stroke="midnightblue" points="200.12,-161.39 207.23,-153.53 196.77,-155.24 200.12,-161.39"/>
</g>
<!-- Node29 -->
<g id="node29" class="node">
<title>Node29</title>
<g id="a_node29"><a xlink:href="ContactPhase_8h.html" target="_top" xlink:title=" ">
<polygon fill="none" stroke="black" points="174,-190.5 174,-220.5 316,-220.5 316,-190.5 174,-190.5"/>
<text text-anchor="start" x="182" y="-208.5" font-family="Helvetica,sans-Serif" font-size="10.00">BipedalLocomotion/Contacts</text>
<text text-anchor="middle" x="245" y="-197.5" font-family="Helvetica,sans-Serif" font-size="10.00">/ContactPhase.h</text>
</a>
</g>
</g>
<!-- Node23&#45;&gt;Node29 -->
<g id="edge42" class="edge">
<title>Node23&#45;&gt;Node29</title>
<path fill="none" stroke="midnightblue" d="M322.52,-257.4C308.64,-248.28 290.37,-236.29 275.06,-226.24"/>
<polygon fill="midnightblue" stroke="midnightblue" points="276.72,-223.14 266.44,-220.58 272.88,-228.99 276.72,-223.14"/>
</g>
<!-- Node30 -->
<g id="node30" class="node">
<title>Node30</title>
<g id="a_node30"><a xlink:title=" ">
<polygon fill="none" stroke="#bfbfbf" points="378.5,-129 378.5,-148 461.5,-148 461.5,-129 378.5,-129"/>
<text text-anchor="middle" x="420" y="-136" font-family="Helvetica,sans-Serif" font-size="10.00">unordered_map</text>
</a>
</g>
</g>
<!-- Node23&#45;&gt;Node30 -->
<g id="edge47" class="edge">
<title>Node23&#45;&gt;Node30</title>
<path fill="none" stroke="midnightblue" d="M344.71,-257.27C346.13,-240.2 350.36,-211.22 363,-190 371.6,-175.56 385.72,-163.01 397.75,-154.03"/>
<polygon fill="midnightblue" stroke="midnightblue" points="399.91,-156.79 406.04,-148.15 395.86,-151.08 399.91,-156.79"/>
</g>
<!-- Node31 -->
<g id="node31" class="node">
<title>Node31</title>
<g id="a_node31"><a xlink:title=" ">
<polygon fill="none" stroke="#bfbfbf" points="372.5,-196 372.5,-215 445.5,-215 445.5,-196 372.5,-196"/>
<text text-anchor="middle" x="409" y="-203" font-family="Helvetica,sans-Serif" font-size="10.00">initializer_list</text>
</a>
</g>
</g>
<!-- Node23&#45;&gt;Node31 -->
<g id="edge48" class="edge">
<title>Node23&#45;&gt;Node31</title>
<path fill="none" stroke="midnightblue" d="M358.1,-257.4C368.44,-247.06 382.48,-233.02 393.19,-222.31"/>
<polygon fill="midnightblue" stroke="midnightblue" points="395.71,-224.74 400.31,-215.19 390.76,-219.79 395.71,-224.74"/>
</g>
<!-- Node24&#45;&gt;Node13 -->
<g id="edge35" class="edge">
<title>Node24&#45;&gt;Node13</title>
<path fill="none" stroke="midnightblue" d="M132.29,-56.47C185.18,-44.37 259.38,-27.39 300.51,-17.98"/>
<polygon fill="midnightblue" stroke="midnightblue" points="301.5,-21.34 310.46,-15.7 299.93,-14.52 301.5,-21.34"/>
</g>
<!-- Node25 -->
<g id="node25" class="node">
<title>Node25</title>
<g id="a_node25"><a xlink:title=" ">
<polygon fill="none" stroke="#bfbfbf" points="35.5,-0.5 35.5,-19.5 106.5,-19.5 106.5,-0.5 35.5,-0.5"/>
<text text-anchor="middle" x="71" y="-7.5" font-family="Helvetica,sans-Serif" font-size="10.00">manif/SE3.h</text>
</a>
</g>
</g>
<!-- Node24&#45;&gt;Node25 -->
<g id="edge34" class="edge">
<title>Node24&#45;&gt;Node25</title>
<path fill="none" stroke="midnightblue" d="M71,-56.4C71,-48.47 71,-38.46 71,-29.86"/>
<polygon fill="midnightblue" stroke="midnightblue" points="74.5,-29.66 71,-19.66 67.5,-29.66 74.5,-29.66"/>
</g>
<!-- Node26&#45;&gt;Node13 -->
<g id="edge40" class="edge">
<title>Node26&#45;&gt;Node13</title>
<path fill="none" stroke="midnightblue" d="M260.52,-123.49C270.6,-113.88 283.55,-100.47 293,-87 305.93,-68.57 316.94,-45.12 323.74,-29.17"/>
<polygon fill="midnightblue" stroke="midnightblue" points="326.98,-30.48 327.57,-19.9 320.51,-27.81 326.98,-30.48"/>
</g>
<!-- Node26&#45;&gt;Node20 -->
<g id="edge41" class="edge">
<title>Node26&#45;&gt;Node20</title>
<path fill="none" stroke="midnightblue" d="M316.12,-126.03C401.06,-112.33 540.16,-89.89 608.12,-78.93"/>
<polygon fill="midnightblue" stroke="midnightblue" points="609.08,-82.32 618.39,-77.28 607.96,-75.41 609.08,-82.32"/>
</g>
<!-- Node26&#45;&gt;Node24 -->
<g id="edge37" class="edge">
<title>Node26&#45;&gt;Node24</title>
<path fill="none" stroke="midnightblue" d="M207.24,-123.4C181.14,-113.64 146.21,-100.59 118.25,-90.15"/>
<polygon fill="midnightblue" stroke="midnightblue" points="119.27,-86.8 108.68,-86.58 116.82,-93.35 119.27,-86.8"/>
</g>
<!-- Node27 -->
<g id="node27" class="node">
<title>Node27</title>
<g id="a_node27"><a xlink:title=" ">
<polygon fill="none" stroke="#bfbfbf" points="160,-62 160,-81 236,-81 236,-62 160,-62"/>
<text text-anchor="middle" x="198" y="-69" font-family="Helvetica,sans-Serif" font-size="10.00">manif/manif.h</text>
</a>
</g>
</g>
<!-- Node26&#45;&gt;Node27 -->
<g id="edge38" class="edge">
<title>Node26&#45;&gt;Node27</title>
<path fill="none" stroke="midnightblue" d="M234.8,-123.4C227.62,-113.46 217.96,-100.11 210.34,-89.57"/>
<polygon fill="midnightblue" stroke="midnightblue" points="212.98,-87.25 204.29,-81.19 207.31,-91.35 212.98,-87.25"/>
</g>
<!-- Node28 -->
<g id="node28" class="node">
<title>Node28</title>
<g id="a_node28"><a xlink:title=" ">
<polygon fill="none" stroke="#bfbfbf" points="254,-62 254,-81 284,-81 284,-62 254,-62"/>
<text text-anchor="middle" x="269" y="-69" font-family="Helvetica,sans-Serif" font-size="10.00">set</text>
</a>
</g>
</g>
<!-- Node26&#45;&gt;Node28 -->
<g id="edge39" class="edge">
<title>Node26&#45;&gt;Node28</title>
<path fill="none" stroke="midnightblue" d="M250.21,-123.4C253.73,-113.86 258.41,-101.18 262.22,-90.86"/>
<polygon fill="midnightblue" stroke="midnightblue" points="265.61,-91.79 265.79,-81.19 259.04,-89.36 265.61,-91.79"/>
</g>
<!-- Node29&#45;&gt;Node13 -->
<g id="edge46" class="edge">
<title>Node29&#45;&gt;Node13</title>
<path fill="none" stroke="midnightblue" d="M282.46,-190.29C298.43,-182.2 315.54,-170.35 325,-154 347.75,-114.7 341.08,-58.64 335.4,-29.77"/>
<polygon fill="midnightblue" stroke="midnightblue" points="338.78,-28.86 333.26,-19.82 331.94,-30.33 338.78,-28.86"/>
</g>
<!-- Node29&#45;&gt;Node24 -->
<g id="edge43" class="edge">
<title>Node29&#45;&gt;Node24</title>
<path fill="none" stroke="midnightblue" d="M220.57,-190.39C204.39,-180.74 182.93,-167.32 165,-154 139.2,-134.85 111.65,-110.44 93.09,-93.34"/>
<polygon fill="midnightblue" stroke="midnightblue" points="95.43,-90.74 85.72,-86.5 90.67,-95.87 95.43,-90.74"/>
</g>
<!-- Node29&#45;&gt;Node26 -->
<g id="edge44" class="edge">
<title>Node29&#45;&gt;Node26</title>
<path fill="none" stroke="midnightblue" d="M245,-190.4C245,-182.64 245,-172.81 245,-163.86"/>
<polygon fill="midnightblue" stroke="midnightblue" points="248.5,-163.58 245,-153.58 241.5,-163.58 248.5,-163.58"/>
</g>
<!-- Node29&#45;&gt;Node30 -->
<g id="edge45" class="edge">
<title>Node29&#45;&gt;Node30</title>
<path fill="none" stroke="midnightblue" d="M282.97,-190.4C314.22,-178.79 358.04,-162.51 387.64,-151.52"/>
<polygon fill="midnightblue" stroke="midnightblue" points="388.94,-154.77 397.1,-148.01 386.5,-148.21 388.94,-154.77"/>
</g>
<!-- Node32&#45;&gt;Node7 -->
<g id="edge52" class="edge">
<title>Node32&#45;&gt;Node7</title>
<path fill="none" stroke="midnightblue" d="M1051.27,-324.47C1023.85,-316.54 992.36,-304.78 967,-288 938.52,-269.15 874.9,-191.1 847.25,-156.34"/>
<polygon fill="midnightblue" stroke="midnightblue" points="849.71,-153.79 840.75,-148.13 844.22,-158.14 849.71,-153.79"/>
</g>
<!-- Node32&#45;&gt;Node12 -->
<g id="edge55" class="edge">
<title>Node32&#45;&gt;Node12</title>
<path fill="none" stroke="midnightblue" d="M1101.33,-324.4C1092.99,-315.79 1082.17,-304.63 1072.78,-294.94"/>
<polygon fill="midnightblue" stroke="midnightblue" points="1075.12,-292.32 1065.64,-287.58 1070.09,-297.19 1075.12,-292.32"/>
</g>
<!-- Node32&#45;&gt;Node16 -->
<g id="edge54" class="edge">
<title>Node32&#45;&gt;Node16</title>
<path fill="none" stroke="midnightblue" d="M1183.13,-325.82C1249.68,-313.11 1341.75,-294.52 1347,-288 1376.17,-251.8 1352.34,-194.34 1335.02,-162.55"/>
<polygon fill="midnightblue" stroke="midnightblue" points="1337.9,-160.53 1329.92,-153.57 1331.81,-163.99 1337.9,-160.53"/>
</g>
<!-- Node33 -->
<g id="node33" class="node">
<title>Node33</title>
<g id="a_node33"><a xlink:title=" ">
<polygon fill="none" stroke="#bfbfbf" points="1146,-263 1146,-282 1184,-282 1184,-263 1146,-263"/>
<text text-anchor="middle" x="1165" y="-270" font-family="Helvetica,sans-Serif" font-size="10.00">tuple</text>
</a>
</g>
</g>
<!-- Node32&#45;&gt;Node33 -->
<g id="edge53" class="edge">
<title>Node32&#45;&gt;Node33</title>
<path fill="none" stroke="midnightblue" d="M1125.85,-324.4C1133.57,-314.36 1143.97,-300.84 1152.11,-290.25"/>
<polygon fill="midnightblue" stroke="midnightblue" points="1154.99,-292.25 1158.31,-282.19 1149.44,-287.99 1154.99,-292.25"/>
</g>
<!-- Node34 -->
<g id="node34" class="node">
<title>Node34</title>
<g id="a_node34"><a xlink:href="DynamicalSystem_8tpp.html" target="_top" xlink:title=" ">
<polygon fill="none" stroke="black" points="1202,-257.5 1202,-287.5 1338,-287.5 1338,-257.5 1202,-257.5"/>
<text text-anchor="start" x="1210" y="-275.5" font-family="Helvetica,sans-Serif" font-size="10.00">BipedalLocomotion/System</text>
<text text-anchor="middle" x="1270" y="-264.5" font-family="Helvetica,sans-Serif" font-size="10.00">/DynamicalSystem.tpp</text>
</a>
</g>
</g>
<!-- Node32&#45;&gt;Node34 -->
<g id="edge56" class="edge">
<title>Node32&#45;&gt;Node34</title>
<path fill="none" stroke="midnightblue" d="M1142.95,-324.4C1164.74,-314.73 1195.37,-301.82 1221.15,-291.43"/>
<polygon fill="midnightblue" stroke="midnightblue" points="1222.78,-294.54 1230.76,-287.58 1220.17,-288.05 1222.78,-294.54"/>
</g>
<!-- Node34&#45;&gt;Node32 -->
<g id="edge57" class="edge">
<title>Node34&#45;&gt;Node32</title>
<path fill="none" stroke="midnightblue" d="M1242.11,-287.58C1220.34,-297.24 1189.71,-310.14 1163.93,-320.54"/>
<polygon fill="midnightblue" stroke="midnightblue" points="1162.29,-317.43 1154.31,-324.4 1164.9,-323.93 1162.29,-317.43"/>
</g>
<!-- Node36 -->
<g id="node36" class="node">
<title>Node36</title>
<g id="a_node36"><a xlink:title=" ">
<polygon fill="none" stroke="#bfbfbf" points="1201.5,-330 1201.5,-349 1286.5,-349 1286.5,-330 1201.5,-330"/>
<text text-anchor="middle" x="1244" y="-337" font-family="Helvetica,sans-Serif" font-size="10.00">spdlog/spdlog.h</text>
</a>
</g>
</g>
<!-- Node35&#45;&gt;Node36 -->
<g id="edge59" class="edge">
<title>Node35&#45;&gt;Node36</title>
<path fill="none" stroke="midnightblue" d="M1202.5,-391.4C1210.68,-381.36 1221.71,-367.84 1230.34,-357.25"/>
<polygon fill="midnightblue" stroke="midnightblue" points="1233.3,-359.16 1236.91,-349.19 1227.88,-354.73 1233.3,-359.16"/>
</g>
</g>
</svg>
