<?xml version="1.0" encoding="UTF-8" standalone="no"?>
<!DOCTYPE svg PUBLIC "-//W3C//DTD SVG 1.1//EN"
 "http://www.w3.org/Graphics/SVG/1.1/DTD/svg11.dtd">
<!-- Generated by graphviz version 2.43.0 (0)
 -->
<!-- Title: TSID/include/BipedalLocomotion/TSID/SE3Task.h Pages: 1 -->
<svg width="804pt" height="363pt"
 viewBox="0.00 0.00 804.45 363.00" xmlns="http://www.w3.org/2000/svg" xmlns:xlink="http://www.w3.org/1999/xlink">
<g id="graph0" class="graph" transform="scale(1 1) rotate(0) translate(4 359)">
<title>TSID/include/BipedalLocomotion/TSID/SE3Task.h</title>
<!-- Node1 -->
<g id="node1" class="node">
<title>Node1</title>
<g id="a_node1"><a xlink:title=" ">
<polygon fill="#bfbfbf" stroke="black" points="186.45,-324.5 186.45,-354.5 345.45,-354.5 345.45,-324.5 186.45,-324.5"/>
<text text-anchor="start" x="194.45" y="-342.5" font-family="Helvetica,sans-Serif" font-size="10.00">TSID/include/BipedalLocomotion</text>
<text text-anchor="middle" x="265.95" y="-331.5" font-family="Helvetica,sans-Serif" font-size="10.00">/TSID/SE3Task.h</text>
</a>
</g>
</g>
<!-- Node2 -->
<g id="node2" class="node">
<title>Node2</title>
<g id="a_node2"><a xlink:title=" ">
<polygon fill="none" stroke="#bfbfbf" points="108.95,-263 108.95,-282 184.95,-282 184.95,-263 108.95,-263"/>
<text text-anchor="middle" x="146.95" y="-270" font-family="Helvetica,sans-Serif" font-size="10.00">manif/manif.h</text>
</a>
</g>
</g>
<!-- Node1&#45;&gt;Node2 -->
<g id="edge1" class="edge">
<title>Node1&#45;&gt;Node2</title>
<path fill="none" stroke="midnightblue" d="M240.13,-324.4C219.71,-313.24 191.4,-297.78 171.36,-286.83"/>
<polygon fill="midnightblue" stroke="midnightblue" points="172.98,-283.73 162.52,-282.01 169.62,-289.87 172.98,-283.73"/>
</g>
<!-- Node3 -->
<g id="node3" class="node">
<title>Node3</title>
<g id="a_node3"><a xlink:href="Task_8h.html" target="_top" xlink:title=" ">
<polygon fill="none" stroke="black" points="203.45,-257.5 203.45,-287.5 328.45,-287.5 328.45,-257.5 203.45,-257.5"/>
<text text-anchor="start" x="211.45" y="-275.5" font-family="Helvetica,sans-Serif" font-size="10.00">BipedalLocomotion/TSID</text>
<text text-anchor="middle" x="265.95" y="-264.5" font-family="Helvetica,sans-Serif" font-size="10.00">/Task.h</text>
</a>
</g>
</g>
<!-- Node1&#45;&gt;Node3 -->
<g id="edge2" class="edge">
<title>Node1&#45;&gt;Node3</title>
<path fill="none" stroke="midnightblue" d="M265.95,-324.4C265.95,-316.64 265.95,-306.81 265.95,-297.86"/>
<polygon fill="midnightblue" stroke="midnightblue" points="269.45,-297.58 265.95,-287.58 262.45,-297.58 269.45,-297.58"/>
</g>
<!-- Node22 -->
<g id="node22" class="node">
<title>Node22</title>
<g id="a_node22"><a xlink:title=" ">
<polygon fill="none" stroke="#bfbfbf" points="346.45,-257.5 346.45,-287.5 511.45,-287.5 511.45,-257.5 346.45,-257.5"/>
<text text-anchor="start" x="354.45" y="-275.5" font-family="Helvetica,sans-Serif" font-size="10.00">LieGroupControllers</text>
<text text-anchor="middle" x="428.95" y="-264.5" font-family="Helvetica,sans-Serif" font-size="10.00">/ProportionalDerivativeController.h</text>
</a>
</g>
</g>
<!-- Node1&#45;&gt;Node22 -->
<g id="edge25" class="edge">
<title>Node1&#45;&gt;Node22</title>
<path fill="none" stroke="midnightblue" d="M301.32,-324.4C325.67,-314.69 358.21,-301.71 384.34,-291.29"/>
<polygon fill="midnightblue" stroke="midnightblue" points="385.66,-294.53 393.65,-287.58 383.07,-288.03 385.66,-294.53"/>
</g>
<!-- Node4 -->
<g id="node4" class="node">
<title>Node4</title>
<g id="a_node4"><a xlink:title=" ">
<polygon fill="none" stroke="#bfbfbf" points="188.95,-62 188.95,-81 240.95,-81 240.95,-62 188.95,-62"/>
<text text-anchor="middle" x="214.95" y="-69" font-family="Helvetica,sans-Serif" font-size="10.00">memory</text>
</a>
</g>
</g>
<!-- Node3&#45;&gt;Node4 -->
<g id="edge3" class="edge">
<title>Node3&#45;&gt;Node4</title>
<path fill="none" stroke="midnightblue" d="M203.12,-258.83C200.02,-258.21 196.95,-257.6 193.95,-257 113.09,-240.86 64.29,-284.71 11.95,-221 -42.61,-154.59 106.72,-102.52 178.67,-81.99"/>
<polygon fill="midnightblue" stroke="midnightblue" points="180.01,-85.25 188.7,-79.19 178.12,-78.51 180.01,-85.25"/>
</g>
<!-- Node5 -->
<g id="node5" class="node">
<title>Node5</title>
<g id="a_node5"><a xlink:title=" ">
<polygon fill="none" stroke="#bfbfbf" points="21.45,-196 21.45,-215 94.45,-215 94.45,-196 21.45,-196"/>
<text text-anchor="middle" x="57.95" y="-203" font-family="Helvetica,sans-Serif" font-size="10.00">Eigen/Dense</text>
</a>
</g>
</g>
<!-- Node3&#45;&gt;Node5 -->
<g id="edge4" class="edge">
<title>Node3&#45;&gt;Node5</title>
<path fill="none" stroke="midnightblue" d="M220.24,-257.49C187.54,-247.43 142.5,-233.5 102.95,-221 100.16,-220.12 97.28,-219.2 94.38,-218.28"/>
<polygon fill="midnightblue" stroke="midnightblue" points="95.18,-214.86 84.58,-215.14 93.04,-221.52 95.18,-214.86"/>
</g>
<!-- Node6 -->
<g id="node6" class="node">
<title>Node6</title>
<g id="a_node6"><a xlink:title=" ">
<polygon fill="none" stroke="#bfbfbf" points="112.45,-196 112.45,-215 251.45,-215 251.45,-196 112.45,-196"/>
<text text-anchor="middle" x="181.95" y="-203" font-family="Helvetica,sans-Serif" font-size="10.00">iDynTree/Core/MatrixView.h</text>
</a>
</g>
</g>
<!-- Node3&#45;&gt;Node6 -->
<g id="edge5" class="edge">
<title>Node3&#45;&gt;Node6</title>
<path fill="none" stroke="midnightblue" d="M247.72,-257.4C233.98,-246.76 215.17,-232.2 201.18,-221.38"/>
<polygon fill="midnightblue" stroke="midnightblue" points="203.24,-218.55 193.19,-215.19 198.95,-224.08 203.24,-218.55"/>
</g>
<!-- Node7 -->
<g id="node7" class="node">
<title>Node7</title>
<g id="a_node7"><a xlink:title=" ">
<polygon fill="none" stroke="#bfbfbf" points="269.45,-196 269.45,-215 430.45,-215 430.45,-196 269.45,-196"/>
<text text-anchor="middle" x="349.95" y="-203" font-family="Helvetica,sans-Serif" font-size="10.00">iDynTree/KinDynComputations.h</text>
</a>
</g>
</g>
<!-- Node3&#45;&gt;Node7 -->
<g id="edge6" class="edge">
<title>Node3&#45;&gt;Node7</title>
<path fill="none" stroke="midnightblue" d="M284.18,-257.4C297.92,-246.76 316.73,-232.2 330.72,-221.38"/>
<polygon fill="midnightblue" stroke="midnightblue" points="332.95,-224.08 338.71,-215.19 328.66,-218.55 332.95,-224.08"/>
</g>
<!-- Node8 -->
<g id="node8" class="node">
<title>Node8</title>
<g id="a_node8"><a xlink:href="IParametersHandler_8h.html" target="_top" xlink:title=" ">
<polygon fill="none" stroke="black" points="448.95,-190.5 448.95,-220.5 600.95,-220.5 600.95,-190.5 448.95,-190.5"/>
<text text-anchor="start" x="456.95" y="-208.5" font-family="Helvetica,sans-Serif" font-size="10.00">BipedalLocomotion/Parameters</text>
<text text-anchor="middle" x="524.95" y="-197.5" font-family="Helvetica,sans-Serif" font-size="10.00">Handler/IParametersHandler.h</text>
</a>
</g>
</g>
<!-- Node3&#45;&gt;Node8 -->
<g id="edge7" class="edge">
<title>Node3&#45;&gt;Node8</title>
<path fill="none" stroke="midnightblue" d="M321.83,-257.48C362.03,-247.39 416.4,-233.74 458.78,-223.11"/>
<polygon fill="midnightblue" stroke="midnightblue" points="459.88,-226.44 468.72,-220.61 458.17,-219.65 459.88,-226.44"/>
</g>
<!-- Node20 -->
<g id="node20" class="node">
<title>Node20</title>
<g id="a_node20"><a xlink:href="VariablesHandler_8h.html" target="_top" xlink:title=" ">
<polygon fill="none" stroke="black" points="618.95,-190.5 618.95,-220.5 754.95,-220.5 754.95,-190.5 618.95,-190.5"/>
<text text-anchor="start" x="626.95" y="-208.5" font-family="Helvetica,sans-Serif" font-size="10.00">BipedalLocomotion/System</text>
<text text-anchor="middle" x="686.95" y="-197.5" font-family="Helvetica,sans-Serif" font-size="10.00">/VariablesHandler.h</text>
</a>
</g>
</g>
<!-- Node3&#45;&gt;Node20 -->
<g id="edge22" class="edge">
<title>Node3&#45;&gt;Node20</title>
<path fill="none" stroke="midnightblue" d="M328.63,-258.45C331.44,-257.94 334.22,-257.46 336.95,-257 454.46,-237.28 487.38,-240.16 608.51,-221.17"/>
<polygon fill="midnightblue" stroke="midnightblue" points="609.22,-224.61 618.55,-219.58 608.13,-217.69 609.22,-224.61"/>
</g>
<!-- Node8&#45;&gt;Node4 -->
<g id="edge8" class="edge">
<title>Node8&#45;&gt;Node4</title>
<path fill="none" stroke="midnightblue" d="M464.34,-190.44C431.06,-181.78 389.46,-169.38 353.95,-154 309.86,-134.9 262.37,-104.75 235.88,-86.97"/>
<polygon fill="midnightblue" stroke="midnightblue" points="237.67,-83.95 227.43,-81.23 233.74,-89.74 237.67,-83.95"/>
</g>
<!-- Node9 -->
<g id="node9" class="node">
<title>Node9</title>
<g id="a_node9"><a xlink:title=" ">
<polygon fill="none" stroke="#bfbfbf" points="617.45,-129 617.45,-148 658.45,-148 658.45,-129 617.45,-129"/>
<text text-anchor="middle" x="637.95" y="-136" font-family="Helvetica,sans-Serif" font-size="10.00">string</text>
</a>
</g>
</g>
<!-- Node8&#45;&gt;Node9 -->
<g id="edge9" class="edge">
<title>Node8&#45;&gt;Node9</title>
<path fill="none" stroke="midnightblue" d="M549.47,-190.4C568.68,-179.34 595.25,-164.06 614.25,-153.13"/>
<polygon fill="midnightblue" stroke="midnightblue" points="616.24,-156.03 623.16,-148.01 612.75,-149.96 616.24,-156.03"/>
</g>
<!-- Node10 -->
<g id="node10" class="node">
<title>Node10</title>
<g id="a_node10"><a xlink:title=" ">
<polygon fill="none" stroke="#bfbfbf" points="362.95,-129 362.95,-148 406.95,-148 406.95,-129 362.95,-129"/>
<text text-anchor="middle" x="384.95" y="-136" font-family="Helvetica,sans-Serif" font-size="10.00">vector</text>
</a>
</g>
</g>
<!-- Node8&#45;&gt;Node10 -->
<g id="edge10" class="edge">
<title>Node8&#45;&gt;Node10</title>
<path fill="none" stroke="midnightblue" d="M494.4,-190.38C472.54,-180.27 442.42,-166.32 415.95,-154 414.8,-153.46 413.62,-152.92 412.44,-152.36"/>
<polygon fill="midnightblue" stroke="midnightblue" points="413.85,-149.16 403.3,-148.1 410.88,-155.5 413.85,-149.16"/>
</g>
<!-- Node11 -->
<g id="node11" class="node">
<title>Node11</title>
<g id="a_node11"><a xlink:href="Vector_8h_source.html" target="_top" xlink:title=" ">
<polygon fill="none" stroke="black" points="424.95,-123.5 424.95,-153.5 560.95,-153.5 560.95,-123.5 424.95,-123.5"/>
<text text-anchor="start" x="432.95" y="-141.5" font-family="Helvetica,sans-Serif" font-size="10.00">BipedalLocomotion/Generic</text>
<text text-anchor="middle" x="492.95" y="-130.5" font-family="Helvetica,sans-Serif" font-size="10.00">Container/Vector.h</text>
</a>
</g>
</g>
<!-- Node8&#45;&gt;Node11 -->
<g id="edge11" class="edge">
<title>Node8&#45;&gt;Node11</title>
<path fill="none" stroke="midnightblue" d="M518.01,-190.4C514.02,-182.3 508.92,-171.94 504.36,-162.69"/>
<polygon fill="midnightblue" stroke="midnightblue" points="507.44,-161 499.88,-153.58 501.16,-164.09 507.44,-161"/>
</g>
<!-- Node13 -->
<g id="node13" class="node">
<title>Node13</title>
<g id="a_node13"><a xlink:href="TemplateHelpers_8h_source.html" target="_top" xlink:title=" ">
<polygon fill="none" stroke="black" points="608.45,-56.5 608.45,-86.5 751.45,-86.5 751.45,-56.5 608.45,-56.5"/>
<text text-anchor="start" x="616.45" y="-74.5" font-family="Helvetica,sans-Serif" font-size="10.00">BipedalLocomotion/Generic</text>
<text text-anchor="middle" x="679.95" y="-63.5" font-family="Helvetica,sans-Serif" font-size="10.00">Container/TemplateHelpers.h</text>
</a>
</g>
</g>
<!-- Node8&#45;&gt;Node13 -->
<g id="edge21" class="edge">
<title>Node8&#45;&gt;Node13</title>
<path fill="none" stroke="midnightblue" d="M538.1,-190.22C553.95,-173.36 581.71,-144.83 607.95,-123 620.92,-112.21 636.11,-101.33 649.18,-92.44"/>
<polygon fill="midnightblue" stroke="midnightblue" points="651.49,-95.11 657.84,-86.63 647.59,-89.29 651.49,-95.11"/>
</g>
<!-- Node11&#45;&gt;Node4 -->
<g id="edge20" class="edge">
<title>Node11&#45;&gt;Node4</title>
<path fill="none" stroke="midnightblue" d="M424.86,-124.03C358.94,-110.88 266.58,-92.12 249.95,-87 247.81,-86.34 245.61,-85.6 243.42,-84.81"/>
<polygon fill="midnightblue" stroke="midnightblue" points="244.56,-81.49 233.97,-81.14 242.02,-88.02 244.56,-81.49"/>
</g>
<!-- Node12 -->
<g id="node12" class="node">
<title>Node12</title>
<g id="a_node12"><a xlink:title=" ">
<polygon fill="none" stroke="#bfbfbf" points="258.95,-62 258.95,-81 372.95,-81 372.95,-62 258.95,-62"/>
<text text-anchor="middle" x="315.95" y="-69" font-family="Helvetica,sans-Serif" font-size="10.00">iDynTree/Core/Span.h</text>
</a>
</g>
</g>
<!-- Node11&#45;&gt;Node12 -->
<g id="edge12" class="edge">
<title>Node11&#45;&gt;Node12</title>
<path fill="none" stroke="midnightblue" d="M454.54,-123.4C422.94,-111.79 378.62,-95.51 348.68,-84.52"/>
<polygon fill="midnightblue" stroke="midnightblue" points="349.71,-81.17 339.12,-81.01 347.3,-87.74 349.71,-81.17"/>
</g>
<!-- Node11&#45;&gt;Node13 -->
<g id="edge13" class="edge">
<title>Node11&#45;&gt;Node13</title>
<path fill="none" stroke="midnightblue" d="M533.53,-123.4C561.83,-113.56 599.78,-100.37 629.95,-89.88"/>
<polygon fill="midnightblue" stroke="midnightblue" points="631.16,-93.17 639.45,-86.58 628.86,-86.55 631.16,-93.17"/>
</g>
<!-- Node17 -->
<g id="node17" class="node">
<title>Node17</title>
<g id="a_node17"><a xlink:title=" ">
<polygon fill="none" stroke="#bfbfbf" points="391.45,-62 391.45,-81 450.45,-81 450.45,-62 391.45,-62"/>
<text text-anchor="middle" x="420.95" y="-69" font-family="Helvetica,sans-Serif" font-size="10.00">functional</text>
</a>
</g>
</g>
<!-- Node11&#45;&gt;Node17 -->
<g id="edge17" class="edge">
<title>Node11&#45;&gt;Node17</title>
<path fill="none" stroke="midnightblue" d="M477.33,-123.4C465.77,-112.96 450.03,-98.75 438.12,-88"/>
<polygon fill="midnightblue" stroke="midnightblue" points="440.35,-85.3 430.58,-81.19 435.66,-90.49 440.35,-85.3"/>
</g>
<!-- Node18 -->
<g id="node18" class="node">
<title>Node18</title>
<g id="a_node18"><a xlink:title=" ">
<polygon fill="none" stroke="#bfbfbf" points="468.45,-62 468.45,-81 517.45,-81 517.45,-62 468.45,-62"/>
<text text-anchor="middle" x="492.95" y="-69" font-family="Helvetica,sans-Serif" font-size="10.00">cassert</text>
</a>
</g>
</g>
<!-- Node11&#45;&gt;Node18 -->
<g id="edge18" class="edge">
<title>Node11&#45;&gt;Node18</title>
<path fill="none" stroke="midnightblue" d="M492.95,-123.4C492.95,-114.06 492.95,-101.71 492.95,-91.52"/>
<polygon fill="midnightblue" stroke="midnightblue" points="496.45,-91.19 492.95,-81.19 489.45,-91.19 496.45,-91.19"/>
</g>
<!-- Node19 -->
<g id="node19" class="node">
<title>Node19</title>
<g id="a_node19"><a xlink:title=" ">
<polygon fill="none" stroke="#bfbfbf" points="535.95,-62 535.95,-81 589.95,-81 589.95,-62 535.95,-62"/>
<text text-anchor="middle" x="562.95" y="-69" font-family="Helvetica,sans-Serif" font-size="10.00">iostream</text>
</a>
</g>
</g>
<!-- Node11&#45;&gt;Node19 -->
<g id="edge19" class="edge">
<title>Node11&#45;&gt;Node19</title>
<path fill="none" stroke="midnightblue" d="M508.14,-123.4C519.27,-113.06 534.39,-99.02 545.93,-88.31"/>
<polygon fill="midnightblue" stroke="midnightblue" points="548.64,-90.56 553.59,-81.19 543.88,-85.43 548.64,-90.56"/>
</g>
<!-- Node14 -->
<g id="node14" class="node">
<title>Node14</title>
<g id="a_node14"><a xlink:title=" ">
<polygon fill="none" stroke="#bfbfbf" points="566.95,-0.5 566.95,-19.5 628.95,-19.5 628.95,-0.5 566.95,-0.5"/>
<text text-anchor="middle" x="597.95" y="-7.5" font-family="Helvetica,sans-Serif" font-size="10.00">type_traits</text>
</a>
</g>
</g>
<!-- Node13&#45;&gt;Node14 -->
<g id="edge14" class="edge">
<title>Node13&#45;&gt;Node14</title>
<path fill="none" stroke="midnightblue" d="M660.52,-56.4C647.74,-47.13 631.06,-35.03 618.14,-25.65"/>
<polygon fill="midnightblue" stroke="midnightblue" points="620.03,-22.7 609.88,-19.66 615.92,-28.36 620.03,-22.7"/>
</g>
<!-- Node15 -->
<g id="node15" class="node">
<title>Node15</title>
<g id="a_node15"><a xlink:title=" ">
<polygon fill="none" stroke="#bfbfbf" points="646.95,-0.5 646.95,-19.5 712.95,-19.5 712.95,-0.5 646.95,-0.5"/>
<text text-anchor="middle" x="679.95" y="-7.5" font-family="Helvetica,sans-Serif" font-size="10.00">string_view</text>
</a>
</g>
</g>
<!-- Node13&#45;&gt;Node15 -->
<g id="edge15" class="edge">
<title>Node13&#45;&gt;Node15</title>
<path fill="none" stroke="midnightblue" d="M679.95,-56.4C679.95,-48.47 679.95,-38.46 679.95,-29.86"/>
<polygon fill="midnightblue" stroke="midnightblue" points="683.45,-29.66 679.95,-19.66 676.45,-29.66 683.45,-29.66"/>
</g>
<!-- Node16 -->
<g id="node16" class="node">
<title>Node16</title>
<g id="a_node16"><a xlink:title=" ">
<polygon fill="none" stroke="#bfbfbf" points="731.45,-0.5 731.45,-19.5 796.45,-19.5 796.45,-0.5 731.45,-0.5"/>
<text text-anchor="middle" x="763.95" y="-7.5" font-family="Helvetica,sans-Serif" font-size="10.00">Eigen/Core</text>
</a>
</g>
</g>
<!-- Node13&#45;&gt;Node16 -->
<g id="edge16" class="edge">
<title>Node13&#45;&gt;Node16</title>
<path fill="none" stroke="midnightblue" d="M699.86,-56.4C712.94,-47.13 730.03,-35.03 743.27,-25.65"/>
<polygon fill="midnightblue" stroke="midnightblue" points="745.59,-28.29 751.73,-19.66 741.54,-22.58 745.59,-28.29"/>
</g>
<!-- Node20&#45;&gt;Node9 -->
<g id="edge23" class="edge">
<title>Node20&#45;&gt;Node9</title>
<path fill="none" stroke="midnightblue" d="M676.32,-190.4C668.75,-180.36 658.56,-166.84 650.58,-156.25"/>
<polygon fill="midnightblue" stroke="midnightblue" points="653.32,-154.07 644.5,-148.19 647.73,-158.29 653.32,-154.07"/>
</g>
<!-- Node21 -->
<g id="node21" class="node">
<title>Node21</title>
<g id="a_node21"><a xlink:title=" ">
<polygon fill="none" stroke="#bfbfbf" points="676.45,-129 676.45,-148 759.45,-148 759.45,-129 676.45,-129"/>
<text text-anchor="middle" x="717.95" y="-136" font-family="Helvetica,sans-Serif" font-size="10.00">unordered_map</text>
</a>
</g>
</g>
<!-- Node20&#45;&gt;Node21 -->
<g id="edge24" class="edge">
<title>Node20&#45;&gt;Node21</title>
<path fill="none" stroke="midnightblue" d="M693.68,-190.4C698.27,-180.76 704.4,-167.91 709.35,-157.54"/>
<polygon fill="midnightblue" stroke="midnightblue" points="712.66,-158.73 713.8,-148.19 706.34,-155.71 712.66,-158.73"/>
</g>
</g>
</svg>
