<?xml version="1.0" encoding="UTF-8" standalone="no"?>
<!DOCTYPE svg PUBLIC "-//W3C//DTD SVG 1.1//EN"
 "http://www.w3.org/Graphics/SVG/1.1/DTD/svg11.dtd">
<!-- Generated by graphviz version 2.43.0 (0)
 -->
<!-- Title: System/include/BipedalLocomotion/System/VariablesHandler.h Pages: 1 -->
<!--zoomable 296 -->
<svg id="main" version="1.1" xmlns="http://www.w3.org/2000/svg" xmlns:xlink="http://www.w3.org/1999/xlink" xml:space="preserve" onload="init(evt)">
<style type="text/css"><![CDATA[
.edge:hover path { stroke: red; }
.edge:hover polygon { stroke: red; fill: red; }
]]></style>
<script type="text/javascript"><![CDATA[
var edges = document.getElementsByTagName('g');
if (edges && edges.length) {
  for (var i=0;i<edges.length;i++) {
    if (edges[i].id.substr(0,4)=='edge') {
      edges[i].setAttribute('class','edge');
    }
  }
}
]]></script>
        <defs>
                <circle id="rim" cx="0" cy="0" r="7"/>
                <circle id="rim2" cx="0" cy="0" r="3.5"/>
                <g id="zoomPlus">
                        <use xlink:href="#rim" fill="#404040">
                                <set attributeName="fill" to="#808080" begin="zoomplus.mouseover" end="zoomplus.mouseout"/>
                        </use>
                        <path d="M-4,0h8M0,-4v8" fill="none" stroke="white" stroke-width="1.5" pointer-events="none"/>
                </g>
                <g id="zoomMin">
                        <use xlink:href="#rim" fill="#404040">
                                <set attributeName="fill" to="#808080" begin="zoomminus.mouseover" end="zoomminus.mouseout"/>
                        </use>
                        <path d="M-4,0h8" fill="none" stroke="white" stroke-width="1.5" pointer-events="none"/>
                </g>
                <g id="dirArrow">
                        <path fill="none" stroke="white" stroke-width="1.5" d="M0,-3.0v7 M-2.5,-0.5L0,-3.0L2.5,-0.5"/>
                </g>
               <g id="resetDef">
                       <use xlink:href="#rim2" fill="#404040">
                               <set attributeName="fill" to="#808080" begin="reset.mouseover" end="reset.mouseout"/>
                       </use>
               </g>
        </defs>

<script type="text/javascript">
var viewWidth = 1849;
var viewHeight = 296;
var sectionId = 'dynsection-1';
</script>
<script xlink:href="svgpan.js"/>
<svg id="graph" class="graph">
<g id="viewport">
<title>System/include/BipedalLocomotion/System/VariablesHandler.h</title>
<!-- Node1 -->
<g id="node1" class="node">
<title>Node1</title>
<g id="a_node1"><a xlink:title=" ">
<polygon fill="#bfbfbf" stroke="black" points="840.5,-257.5 840.5,-287.5 1010.5,-287.5 1010.5,-257.5 840.5,-257.5"/>
<text text-anchor="start" x="848.5" y="-275.5" font-family="Helvetica,sans-Serif" font-size="10.00">System/include/BipedalLocomotion</text>
<text text-anchor="middle" x="925.5" y="-264.5" font-family="Helvetica,sans-Serif" font-size="10.00">/System/VariablesHandler.h</text>
</a>
</g>
</g>
<!-- Node2 -->
<g id="node2" class="node">
<title>Node2</title>
<g id="a_node2"><a xlink:href="LinearTask_8h.html" target="_top" xlink:title=" ">
<polygon fill="none" stroke="black" points="493.5,-190.5 493.5,-220.5 639.5,-220.5 639.5,-190.5 493.5,-190.5"/>
<text text-anchor="start" x="501.5" y="-208.5" font-family="Helvetica,sans-Serif" font-size="10.00">IK/include/BipedalLocomotion</text>
<text text-anchor="middle" x="566.5" y="-197.5" font-family="Helvetica,sans-Serif" font-size="10.00">/IK/LinearTask.h</text>
</a>
</g>
</g>
<!-- Node1&#45;&gt;Node2 -->
<g id="edge1" class="edge">
<title>Node1&#45;&gt;Node2</title>
<path fill="none" stroke="midnightblue" d="M838.07,-255.67C777.2,-244.65 696.98,-230.12 639.53,-219.72"/>
<polygon fill="midnightblue" stroke="midnightblue" points="837.58,-259.14 848.04,-257.48 838.83,-252.25 837.58,-259.14"/>
</g>
<!-- Node16 -->
<g id="node16" class="node">
<title>Node16</title>
<g id="a_node16"><a xlink:href="VariablesHandler_8cpp.html" target="_top" xlink:title=" ">
<polygon fill="none" stroke="black" points="845,-196 845,-215 1006,-215 1006,-196 845,-196"/>
<text text-anchor="middle" x="925.5" y="-203" font-family="Helvetica,sans-Serif" font-size="10.00">System/src/VariablesHandler.cpp</text>
</a>
</g>
</g>
<!-- Node1&#45;&gt;Node16 -->
<g id="edge16" class="edge">
<title>Node1&#45;&gt;Node16</title>
<path fill="none" stroke="midnightblue" d="M925.5,-247.25C925.5,-236.02 925.5,-223.38 925.5,-215.19"/>
<polygon fill="midnightblue" stroke="midnightblue" points="922,-247.4 925.5,-257.4 929,-247.4 922,-247.4"/>
</g>
<!-- Node17 -->
<g id="node17" class="node">
<title>Node17</title>
<g id="a_node17"><a xlink:href="Task_8h.html" target="_top" xlink:title=" ">
<polygon fill="none" stroke="black" points="1299,-190.5 1299,-220.5 1458,-220.5 1458,-190.5 1299,-190.5"/>
<text text-anchor="start" x="1307" y="-208.5" font-family="Helvetica,sans-Serif" font-size="10.00">TSID/include/BipedalLocomotion</text>
<text text-anchor="middle" x="1378.5" y="-197.5" font-family="Helvetica,sans-Serif" font-size="10.00">/TSID/Task.h</text>
</a>
</g>
</g>
<!-- Node1&#45;&gt;Node17 -->
<g id="edge17" class="edge">
<title>Node1&#45;&gt;Node17</title>
<path fill="none" stroke="midnightblue" d="M1020.85,-257.82C1103.41,-245.97 1221.43,-229.04 1298.99,-217.91"/>
<polygon fill="midnightblue" stroke="midnightblue" points="1020.11,-254.39 1010.71,-259.27 1021.1,-261.32 1020.11,-254.39"/>
</g>
<!-- Node3 -->
<g id="node3" class="node">
<title>Node3</title>
<g id="a_node3"><a xlink:href="CoMTask_8h.html" target="_top" xlink:title=" ">
<polygon fill="none" stroke="black" points="12.5,-123.5 12.5,-153.5 158.5,-153.5 158.5,-123.5 12.5,-123.5"/>
<text text-anchor="start" x="20.5" y="-141.5" font-family="Helvetica,sans-Serif" font-size="10.00">IK/include/BipedalLocomotion</text>
<text text-anchor="middle" x="85.5" y="-130.5" font-family="Helvetica,sans-Serif" font-size="10.00">/IK/CoMTask.h</text>
</a>
</g>
</g>
<!-- Node2&#45;&gt;Node3 -->
<g id="edge2" class="edge">
<title>Node2&#45;&gt;Node3</title>
<path fill="none" stroke="midnightblue" d="M483.39,-193.27C391.91,-180.91 246.24,-161.22 158.85,-149.41"/>
<polygon fill="midnightblue" stroke="midnightblue" points="483.07,-196.76 493.45,-194.63 484.01,-189.82 483.07,-196.76"/>
</g>
<!-- Node5 -->
<g id="node5" class="node">
<title>Node5</title>
<g id="a_node5"><a xlink:href="IntegrationBasedIK_8h.html" target="_top" xlink:title=" ">
<polygon fill="none" stroke="black" points="247.5,-123.5 247.5,-153.5 393.5,-153.5 393.5,-123.5 247.5,-123.5"/>
<text text-anchor="start" x="255.5" y="-141.5" font-family="Helvetica,sans-Serif" font-size="10.00">IK/include/BipedalLocomotion</text>
<text text-anchor="middle" x="320.5" y="-130.5" font-family="Helvetica,sans-Serif" font-size="10.00">/IK/IntegrationBasedIK.h</text>
</a>
</g>
</g>
<!-- Node2&#45;&gt;Node5 -->
<g id="edge4" class="edge">
<title>Node2&#45;&gt;Node5</title>
<path fill="none" stroke="midnightblue" d="M503.74,-187.92C463.6,-177.31 412.08,-163.7 373.9,-153.61"/>
<polygon fill="midnightblue" stroke="midnightblue" points="502.86,-191.31 513.42,-190.48 504.65,-184.54 502.86,-191.31"/>
</g>
<!-- Node6 -->
<g id="node6" class="node">
<title>Node6</title>
<g id="a_node6"><a xlink:href="QPInverseKinematics_8h.html" target="_top" xlink:title=" ">
<polygon fill="none" stroke="black" points="125.5,-56.5 125.5,-86.5 271.5,-86.5 271.5,-56.5 125.5,-56.5"/>
<text text-anchor="start" x="133.5" y="-74.5" font-family="Helvetica,sans-Serif" font-size="10.00">IK/include/BipedalLocomotion</text>
<text text-anchor="middle" x="198.5" y="-63.5" font-family="Helvetica,sans-Serif" font-size="10.00">/IK/QPInverseKinematics.h</text>
</a>
</g>
</g>
<!-- Node2&#45;&gt;Node6 -->
<g id="edge10" class="edge">
<title>Node2&#45;&gt;Node6</title>
<path fill="none" stroke="midnightblue" d="M483.26,-200.37C399.15,-194.69 276.37,-181.82 238.5,-154 216.14,-137.58 205.62,-105.21 201.23,-86.59"/>
<polygon fill="midnightblue" stroke="midnightblue" points="483.11,-203.87 493.31,-201.03 483.56,-196.88 483.11,-203.87"/>
</g>
<!-- Node9 -->
<g id="node9" class="node">
<title>Node9</title>
<g id="a_node9"><a xlink:href="JointTrackingTask_8h.html" target="_top" xlink:title=" ">
<polygon fill="none" stroke="black" points="411.5,-123.5 411.5,-153.5 557.5,-153.5 557.5,-123.5 411.5,-123.5"/>
<text text-anchor="start" x="419.5" y="-141.5" font-family="Helvetica,sans-Serif" font-size="10.00">IK/include/BipedalLocomotion</text>
<text text-anchor="middle" x="484.5" y="-130.5" font-family="Helvetica,sans-Serif" font-size="10.00">/IK/JointTrackingTask.h</text>
</a>
</g>
</g>
<!-- Node2&#45;&gt;Node9 -->
<g id="edge8" class="edge">
<title>Node2&#45;&gt;Node9</title>
<path fill="none" stroke="midnightblue" d="M540.85,-184.17C528.31,-174.23 513.53,-162.51 502.26,-153.58"/>
<polygon fill="midnightblue" stroke="midnightblue" points="538.7,-186.93 548.71,-190.4 543.04,-181.44 538.7,-186.93"/>
</g>
<!-- Node11 -->
<g id="node11" class="node">
<title>Node11</title>
<g id="a_node11"><a xlink:href="IK_2include_2BipedalLocomotion_2IK_2SE3Task_8h.html" target="_top" xlink:title=" ">
<polygon fill="none" stroke="black" points="575.5,-123.5 575.5,-153.5 721.5,-153.5 721.5,-123.5 575.5,-123.5"/>
<text text-anchor="start" x="583.5" y="-141.5" font-family="Helvetica,sans-Serif" font-size="10.00">IK/include/BipedalLocomotion</text>
<text text-anchor="middle" x="648.5" y="-130.5" font-family="Helvetica,sans-Serif" font-size="10.00">/IK/SE3Task.h</text>
</a>
</g>
</g>
<!-- Node2&#45;&gt;Node11 -->
<g id="edge11" class="edge">
<title>Node2&#45;&gt;Node11</title>
<path fill="none" stroke="midnightblue" d="M592.15,-184.17C604.69,-174.23 619.47,-162.51 630.74,-153.58"/>
<polygon fill="midnightblue" stroke="midnightblue" points="589.96,-181.44 584.29,-190.4 594.3,-186.93 589.96,-181.44"/>
</g>
<!-- Node13 -->
<g id="node13" class="node">
<title>Node13</title>
<g id="a_node13"><a xlink:href="SO3Task_8h.html" target="_top" xlink:title=" ">
<polygon fill="none" stroke="black" points="739.5,-123.5 739.5,-153.5 885.5,-153.5 885.5,-123.5 739.5,-123.5"/>
<text text-anchor="start" x="747.5" y="-141.5" font-family="Helvetica,sans-Serif" font-size="10.00">IK/include/BipedalLocomotion</text>
<text text-anchor="middle" x="812.5" y="-130.5" font-family="Helvetica,sans-Serif" font-size="10.00">/IK/SO3Task.h</text>
</a>
</g>
</g>
<!-- Node2&#45;&gt;Node13 -->
<g id="edge13" class="edge">
<title>Node2&#45;&gt;Node13</title>
<path fill="none" stroke="midnightblue" d="M629.26,-187.92C669.4,-177.31 720.92,-163.7 759.1,-153.61"/>
<polygon fill="midnightblue" stroke="midnightblue" points="628.35,-184.54 619.58,-190.48 630.14,-191.31 628.35,-184.54"/>
</g>
<!-- Node15 -->
<g id="node15" class="node">
<title>Node15</title>
<g id="a_node15"><a xlink:href="LinearTask_8cpp.html" target="_top" xlink:title=" ">
<polygon fill="none" stroke="black" points="903.5,-129 903.5,-148 1015.5,-148 1015.5,-129 903.5,-129"/>
<text text-anchor="middle" x="959.5" y="-136" font-family="Helvetica,sans-Serif" font-size="10.00">IK/src/LinearTask.cpp</text>
</a>
</g>
</g>
<!-- Node2&#45;&gt;Node15 -->
<g id="edge15" class="edge">
<title>Node2&#45;&gt;Node15</title>
<path fill="none" stroke="midnightblue" d="M649.69,-193.26C716.15,-183.9 811.56,-169.62 894.5,-154 903.82,-152.25 913.83,-150.13 923.15,-148.06"/>
<polygon fill="midnightblue" stroke="midnightblue" points="649.11,-189.8 639.69,-194.66 650.08,-196.73 649.11,-189.8"/>
</g>
<!-- Node4 -->
<g id="node4" class="node">
<title>Node4</title>
<g id="a_node4"><a xlink:href="CoMTask_8cpp.html" target="_top" xlink:title=" ">
<polygon fill="none" stroke="black" points="0,-62 0,-81 107,-81 107,-62 0,-62"/>
<text text-anchor="middle" x="53.5" y="-69" font-family="Helvetica,sans-Serif" font-size="10.00">IK/src/CoMTask.cpp</text>
</a>
</g>
</g>
<!-- Node3&#45;&gt;Node4 -->
<g id="edge3" class="edge">
<title>Node3&#45;&gt;Node4</title>
<path fill="none" stroke="midnightblue" d="M74.07,-114.29C68.42,-102.8 61.93,-89.63 57.78,-81.19"/>
<polygon fill="midnightblue" stroke="midnightblue" points="71,-115.97 78.56,-123.4 77.28,-112.88 71,-115.97"/>
</g>
<!-- Node5&#45;&gt;Node6 -->
<g id="edge5" class="edge">
<title>Node5&#45;&gt;Node6</title>
<path fill="none" stroke="midnightblue" d="M284.98,-118.57C265.79,-108.35 242.5,-95.94 224.92,-86.58"/>
<polygon fill="midnightblue" stroke="midnightblue" points="283.56,-121.78 294.03,-123.4 286.85,-115.6 283.56,-121.78"/>
</g>
<!-- Node8 -->
<g id="node8" class="node">
<title>Node8</title>
<g id="a_node8"><a xlink:href="IntegrationBasedIK_8cpp.html" target="_top" xlink:title=" ">
<polygon fill="none" stroke="black" points="289.5,-62 289.5,-81 437.5,-81 437.5,-62 289.5,-62"/>
<text text-anchor="middle" x="363.5" y="-69" font-family="Helvetica,sans-Serif" font-size="10.00">IK/src/IntegrationBasedIK.cpp</text>
</a>
</g>
</g>
<!-- Node5&#45;&gt;Node8 -->
<g id="edge7" class="edge">
<title>Node5&#45;&gt;Node8</title>
<path fill="none" stroke="midnightblue" d="M335.4,-114.97C343.1,-103.33 352.06,-89.8 357.75,-81.19"/>
<polygon fill="midnightblue" stroke="midnightblue" points="332.43,-113.12 329.83,-123.4 338.27,-116.99 332.43,-113.12"/>
</g>
<!-- Node7 -->
<g id="node7" class="node">
<title>Node7</title>
<g id="a_node7"><a xlink:href="QPInverseKinematics_8cpp.html" target="_top" xlink:title=" ">
<polygon fill="none" stroke="black" points="118.5,-0.5 118.5,-19.5 278.5,-19.5 278.5,-0.5 118.5,-0.5"/>
<text text-anchor="middle" x="198.5" y="-7.5" font-family="Helvetica,sans-Serif" font-size="10.00">IK/src/QPInverseKinematics.cpp</text>
</a>
</g>
</g>
<!-- Node6&#45;&gt;Node7 -->
<g id="edge6" class="edge">
<title>Node6&#45;&gt;Node7</title>
<path fill="none" stroke="midnightblue" d="M198.5,-46.29C198.5,-36.86 198.5,-26.65 198.5,-19.66"/>
<polygon fill="midnightblue" stroke="midnightblue" points="195,-46.4 198.5,-56.4 202,-46.4 195,-46.4"/>
</g>
<!-- Node10 -->
<g id="node10" class="node">
<title>Node10</title>
<g id="a_node10"><a xlink:href="JointTrackingTask_8cpp.html" target="_top" xlink:title=" ">
<polygon fill="none" stroke="black" points="455.5,-62 455.5,-81 599.5,-81 599.5,-62 455.5,-62"/>
<text text-anchor="middle" x="527.5" y="-69" font-family="Helvetica,sans-Serif" font-size="10.00">IK/src/JointTrackingTask.cpp</text>
</a>
</g>
</g>
<!-- Node9&#45;&gt;Node10 -->
<g id="edge9" class="edge">
<title>Node9&#45;&gt;Node10</title>
<path fill="none" stroke="midnightblue" d="M499.4,-114.97C507.1,-103.33 516.06,-89.8 521.75,-81.19"/>
<polygon fill="midnightblue" stroke="midnightblue" points="496.43,-113.12 493.83,-123.4 502.27,-116.99 496.43,-113.12"/>
</g>
<!-- Node12 -->
<g id="node12" class="node">
<title>Node12</title>
<g id="a_node12"><a xlink:href="IK_2src_2SE3Task_8cpp.html" target="_top" xlink:title=" ">
<polygon fill="none" stroke="black" points="617.5,-62 617.5,-81 721.5,-81 721.5,-62 617.5,-62"/>
<text text-anchor="middle" x="669.5" y="-69" font-family="Helvetica,sans-Serif" font-size="10.00">IK/src/SE3Task.cpp</text>
</a>
</g>
</g>
<!-- Node11&#45;&gt;Node12 -->
<g id="edge12" class="edge">
<title>Node11&#45;&gt;Node12</title>
<path fill="none" stroke="midnightblue" d="M656.22,-113.6C659.88,-102.28 664.02,-89.46 666.69,-81.19"/>
<polygon fill="midnightblue" stroke="midnightblue" points="652.8,-112.8 653.06,-123.4 659.46,-114.96 652.8,-112.8"/>
</g>
<!-- Node14 -->
<g id="node14" class="node">
<title>Node14</title>
<g id="a_node14"><a xlink:href="SO3Task_8cpp.html" target="_top" xlink:title=" ">
<polygon fill="none" stroke="black" points="760,-62 760,-81 865,-81 865,-62 760,-62"/>
<text text-anchor="middle" x="812.5" y="-69" font-family="Helvetica,sans-Serif" font-size="10.00">IK/src/SO3Task.cpp</text>
</a>
</g>
</g>
<!-- Node13&#45;&gt;Node14 -->
<g id="edge14" class="edge">
<title>Node13&#45;&gt;Node14</title>
<path fill="none" stroke="midnightblue" d="M812.5,-113.25C812.5,-102.02 812.5,-89.38 812.5,-81.19"/>
<polygon fill="midnightblue" stroke="midnightblue" points="809,-113.4 812.5,-123.4 816,-113.4 809,-113.4"/>
</g>
<!-- Node18 -->
<g id="node18" class="node">
<title>Node18</title>
<g id="a_node18"><a xlink:href="BaseDynamicsTask_8h.html" target="_top" xlink:title=" ">
<polygon fill="none" stroke="black" points="1034,-123.5 1034,-153.5 1193,-153.5 1193,-123.5 1034,-123.5"/>
<text text-anchor="start" x="1042" y="-141.5" font-family="Helvetica,sans-Serif" font-size="10.00">TSID/include/BipedalLocomotion</text>
<text text-anchor="middle" x="1113.5" y="-130.5" font-family="Helvetica,sans-Serif" font-size="10.00">/TSID/BaseDynamicsTask.h</text>
</a>
</g>
</g>
<!-- Node17&#45;&gt;Node18 -->
<g id="edge18" class="edge">
<title>Node17&#45;&gt;Node18</title>
<path fill="none" stroke="midnightblue" d="M1311.44,-188.05C1268.12,-177.43 1212.33,-163.74 1171.03,-153.61"/>
<polygon fill="midnightblue" stroke="midnightblue" points="1310.78,-191.49 1321.33,-190.48 1312.45,-184.69 1310.78,-191.49"/>
</g>
<!-- Node20 -->
<g id="node20" class="node">
<title>Node20</title>
<g id="a_node20"><a xlink:href="JointsDynamicsTask_8h.html" target="_top" xlink:title=" ">
<polygon fill="none" stroke="black" points="1211,-123.5 1211,-153.5 1370,-153.5 1370,-123.5 1211,-123.5"/>
<text text-anchor="start" x="1219" y="-141.5" font-family="Helvetica,sans-Serif" font-size="10.00">TSID/include/BipedalLocomotion</text>
<text text-anchor="middle" x="1290.5" y="-130.5" font-family="Helvetica,sans-Serif" font-size="10.00">/TSID/JointsDynamicsTask.h</text>
</a>
</g>
</g>
<!-- Node17&#45;&gt;Node20 -->
<g id="edge20" class="edge">
<title>Node17&#45;&gt;Node20</title>
<path fill="none" stroke="midnightblue" d="M1351.36,-184.45C1337.82,-174.45 1321.77,-162.6 1309.56,-153.58"/>
<polygon fill="midnightblue" stroke="midnightblue" points="1349.28,-187.27 1359.41,-190.4 1353.44,-181.64 1349.28,-187.27"/>
</g>
<!-- Node22 -->
<g id="node22" class="node">
<title>Node22</title>
<g id="a_node22"><a xlink:href="JointsTrackingTask_8h.html" target="_top" xlink:title=" ">
<polygon fill="none" stroke="black" points="1388,-123.5 1388,-153.5 1547,-153.5 1547,-123.5 1388,-123.5"/>
<text text-anchor="start" x="1396" y="-141.5" font-family="Helvetica,sans-Serif" font-size="10.00">TSID/include/BipedalLocomotion</text>
<text text-anchor="middle" x="1467.5" y="-130.5" font-family="Helvetica,sans-Serif" font-size="10.00">/TSID/JointsTrackingTask.h</text>
</a>
</g>
</g>
<!-- Node17&#45;&gt;Node22 -->
<g id="edge22" class="edge">
<title>Node17&#45;&gt;Node22</title>
<path fill="none" stroke="midnightblue" d="M1405.95,-184.45C1419.64,-174.45 1435.87,-162.6 1448.23,-153.58"/>
<polygon fill="midnightblue" stroke="midnightblue" points="1403.82,-181.67 1397.81,-190.4 1407.95,-187.32 1403.82,-181.67"/>
</g>
<!-- Node24 -->
<g id="node24" class="node">
<title>Node24</title>
<g id="a_node24"><a xlink:href="TSID_2include_2BipedalLocomotion_2TSID_2SE3Task_8h.html" target="_top" xlink:title=" ">
<polygon fill="none" stroke="black" points="1565,-123.5 1565,-153.5 1724,-153.5 1724,-123.5 1565,-123.5"/>
<text text-anchor="start" x="1573" y="-141.5" font-family="Helvetica,sans-Serif" font-size="10.00">TSID/include/BipedalLocomotion</text>
<text text-anchor="middle" x="1644.5" y="-130.5" font-family="Helvetica,sans-Serif" font-size="10.00">/TSID/SE3Task.h</text>
</a>
</g>
</g>
<!-- Node17&#45;&gt;Node24 -->
<g id="edge24" class="edge">
<title>Node17&#45;&gt;Node24</title>
<path fill="none" stroke="midnightblue" d="M1445.81,-188.05C1489.3,-177.43 1545.3,-163.74 1586.75,-153.61"/>
<polygon fill="midnightblue" stroke="midnightblue" points="1444.77,-184.7 1435.89,-190.48 1446.44,-191.5 1444.77,-184.7"/>
</g>
<!-- Node26 -->
<g id="node26" class="node">
<title>Node26</title>
<g id="a_node26"><a xlink:href="Task_8cpp.html" target="_top" xlink:title=" ">
<polygon fill="none" stroke="black" points="1742,-129 1742,-148 1841,-148 1841,-129 1742,-129"/>
<text text-anchor="middle" x="1791.5" y="-136" font-family="Helvetica,sans-Serif" font-size="10.00">TSID/src/Task.cpp</text>
</a>
</g>
</g>
<!-- Node17&#45;&gt;Node26 -->
<g id="edge26" class="edge">
<title>Node17&#45;&gt;Node26</title>
<path fill="none" stroke="midnightblue" d="M1468.15,-194.36C1540.19,-185.58 1643.79,-171.55 1733.5,-154 1742.06,-152.33 1751.24,-150.19 1759.72,-148.07"/>
<polygon fill="midnightblue" stroke="midnightblue" points="1467.71,-190.88 1458.2,-195.56 1468.55,-197.83 1467.71,-190.88"/>
</g>
<!-- Node19 -->
<g id="node19" class="node">
<title>Node19</title>
<g id="a_node19"><a xlink:href="BaseDynamicsTask_8cpp.html" target="_top" xlink:title=" ">
<polygon fill="none" stroke="black" points="1021.5,-62 1021.5,-81 1187.5,-81 1187.5,-62 1021.5,-62"/>
<text text-anchor="middle" x="1104.5" y="-69" font-family="Helvetica,sans-Serif" font-size="10.00">TSID/src/BaseDynamicsTask.cpp</text>
</a>
</g>
</g>
<!-- Node18&#45;&gt;Node19 -->
<g id="edge19" class="edge">
<title>Node18&#45;&gt;Node19</title>
<path fill="none" stroke="midnightblue" d="M1110.14,-113.25C1108.59,-102.02 1106.84,-89.38 1105.7,-81.19"/>
<polygon fill="midnightblue" stroke="midnightblue" points="1106.71,-113.97 1111.55,-123.4 1113.64,-113.01 1106.71,-113.97"/>
</g>
<!-- Node21 -->
<g id="node21" class="node">
<title>Node21</title>
<g id="a_node21"><a xlink:href="JointsDynamicsTask_8cpp.html" target="_top" xlink:title=" ">
<polygon fill="none" stroke="black" points="1205.5,-62 1205.5,-81 1375.5,-81 1375.5,-62 1205.5,-62"/>
<text text-anchor="middle" x="1290.5" y="-69" font-family="Helvetica,sans-Serif" font-size="10.00">TSID/src/JointsDynamicsTask.cpp</text>
</a>
</g>
</g>
<!-- Node20&#45;&gt;Node21 -->
<g id="edge21" class="edge">
<title>Node20&#45;&gt;Node21</title>
<path fill="none" stroke="midnightblue" d="M1290.5,-113.25C1290.5,-102.02 1290.5,-89.38 1290.5,-81.19"/>
<polygon fill="midnightblue" stroke="midnightblue" points="1287,-113.4 1290.5,-123.4 1294,-113.4 1287,-113.4"/>
</g>
<!-- Node23 -->
<g id="node23" class="node">
<title>Node23</title>
<g id="a_node23"><a xlink:href="JointsTrackingTask_8cpp.html" target="_top" xlink:title=" ">
<polygon fill="none" stroke="black" points="1394,-62 1394,-81 1557,-81 1557,-62 1394,-62"/>
<text text-anchor="middle" x="1475.5" y="-69" font-family="Helvetica,sans-Serif" font-size="10.00">TSID/src/JointsTrackingTask.cpp</text>
</a>
</g>
</g>
<!-- Node22&#45;&gt;Node23 -->
<g id="edge23" class="edge">
<title>Node22&#45;&gt;Node23</title>
<path fill="none" stroke="midnightblue" d="M1470.48,-113.25C1471.87,-102.02 1473.42,-89.38 1474.43,-81.19"/>
<polygon fill="midnightblue" stroke="midnightblue" points="1466.98,-113.04 1469.24,-123.4 1473.93,-113.9 1466.98,-113.04"/>
</g>
<!-- Node25 -->
<g id="node25" class="node">
<title>Node25</title>
<g id="a_node25"><a xlink:href="TSID_2src_2SE3Task_8cpp.html" target="_top" xlink:title=" ">
<polygon fill="none" stroke="black" points="1585.5,-62 1585.5,-81 1703.5,-81 1703.5,-62 1585.5,-62"/>
<text text-anchor="middle" x="1644.5" y="-69" font-family="Helvetica,sans-Serif" font-size="10.00">TSID/src/SE3Task.cpp</text>
</a>
</g>
</g>
<!-- Node24&#45;&gt;Node25 -->
<g id="edge25" class="edge">
<title>Node24&#45;&gt;Node25</title>
<path fill="none" stroke="midnightblue" d="M1644.5,-113.25C1644.5,-102.02 1644.5,-89.38 1644.5,-81.19"/>
<polygon fill="midnightblue" stroke="midnightblue" points="1641,-113.4 1644.5,-123.4 1648,-113.4 1641,-113.4"/>
</g>
</g>
</svg>
        <g id="navigator" transform="translate(0 0)" fill="#404254">
                <rect fill="#f2f5e9" fill-opacity="0.5" stroke="#606060" stroke-width=".5" x="0" y="0" width="60" height="60"/>
                <use id="zoomplus" xlink:href="#zoomPlus" x="17" y="9" onmousedown="handleZoom(evt,'in')"/>
                <use id="zoomminus" xlink:href="#zoomMin" x="42" y="9" onmousedown="handleZoom(evt,'out')"/>
                <use id="reset" xlink:href="#resetDef" x="30" y="36" onmousedown="handleReset()"/>
                <g id="arrowUp" xlink:href="#dirArrow" transform="translate(30 24)" onmousedown="handlePan(0,-1)">
                  <use xlink:href="#rim" fill="#404040">
                        <set attributeName="fill" to="#808080" begin="arrowUp.mouseover" end="arrowUp.mouseout"/>
                  </use>
                  <path fill="none" stroke="white" stroke-width="1.5" d="M0,-3.0v7 M-2.5,-0.5L0,-3.0L2.5,-0.5"/>
                </g>
                <g id="arrowRight" xlink:href="#dirArrow" transform="rotate(90) translate(36 -43)" onmousedown="handlePan(1,0)">
                  <use xlink:href="#rim" fill="#404040">
                        <set attributeName="fill" to="#808080" begin="arrowRight.mouseover" end="arrowRight.mouseout"/>
                  </use>
                  <path fill="none" stroke="white" stroke-width="1.5" d="M0,-3.0v7 M-2.5,-0.5L0,-3.0L2.5,-0.5"/>
                </g>
                <g id="arrowDown" xlink:href="#dirArrow" transform="rotate(180) translate(-30 -48)" onmousedown="handlePan(0,1)">
                  <use xlink:href="#rim" fill="#404040">
                        <set attributeName="fill" to="#808080" begin="arrowDown.mouseover" end="arrowDown.mouseout"/>
                  </use>
                  <path fill="none" stroke="white" stroke-width="1.5" d="M0,-3.0v7 M-2.5,-0.5L0,-3.0L2.5,-0.5"/>
                </g>
                <g id="arrowLeft" xlink:href="#dirArrow" transform="rotate(270) translate(-36 17)" onmousedown="handlePan(-1,0)">
                  <use xlink:href="#rim" fill="#404040">
                        <set attributeName="fill" to="#808080" begin="arrowLeft.mouseover" end="arrowLeft.mouseout"/>
                  </use>
                  <path fill="none" stroke="white" stroke-width="1.5" d="M0,-3.0v7 M-2.5,-0.5L0,-3.0L2.5,-0.5"/>
                </g>
        </g>
        <svg viewBox="0 0 15 15" width="100%" height="30px" preserveAspectRatio="xMaxYMin meet">
         <g id="arrow_out" transform="scale(0.3 0.3)">
          <a xlink:href="VariablesHandler_8h__dep__incl_org.svg" target="_base">
           <rect id="button" ry="5" rx="5" y="6" x="6" height="38" width="38"
                fill="#f2f5e9" fill-opacity="0.5" stroke="#606060" stroke-width="1.0"/>
           <path id="arrow"
             d="M 11.500037,31.436501 C 11.940474,20.09759 22.043105,11.32322 32.158766,21.979434 L 37.068811,17.246167 C 37.068811,17.246167 37.088388,32 37.088388,32 L 22.160133,31.978069 C 22.160133,31.978069 26.997745,27.140456 26.997745,27.140456 C 18.528582,18.264221 13.291696,25.230495 11.500037,31.436501 z"
             style="fill:#404040;"/>
          </a>
         </g>
        </svg>
</svg>
