<?xml version="1.0" encoding="UTF-8" standalone="no"?>
<!DOCTYPE svg PUBLIC "-//W3C//DTD SVG 1.1//EN"
 "http://www.w3.org/Graphics/SVG/1.1/DTD/svg11.dtd">
<!-- Generated by graphviz version 2.43.0 (0)
 -->
<!-- Title: System/src/VariablesHandler.cpp Pages: 1 -->
<svg width="230pt" height="151pt"
 viewBox="0.00 0.00 229.50 151.00" xmlns="http://www.w3.org/2000/svg" xmlns:xlink="http://www.w3.org/1999/xlink">
<g id="graph0" class="graph" transform="scale(1 1) rotate(0) translate(4 147)">
<title>System/src/VariablesHandler.cpp</title>
<!-- Node1 -->
<g id="node1" class="node">
<title>Node1</title>
<g id="a_node1"><a xlink:title=" ">
<polygon fill="#bfbfbf" stroke="black" points="2.5,-123.5 2.5,-142.5 163.5,-142.5 163.5,-123.5 2.5,-123.5"/>
<text text-anchor="middle" x="83" y="-130.5" font-family="Helvetica,sans-Serif" font-size="10.00">System/src/VariablesHandler.cpp</text>
</a>
</g>
</g>
<!-- Node2 -->
<g id="node2" class="node">
<title>Node2</title>
<g id="a_node2"><a xlink:title=" ">
<polygon fill="none" stroke="#bfbfbf" points="0,-62 0,-81 54,-81 54,-62 0,-62"/>
<text text-anchor="middle" x="27" y="-69" font-family="Helvetica,sans-Serif" font-size="10.00">iostream</text>
</a>
</g>
</g>
<!-- Node1&#45;&gt;Node2 -->
<g id="edge1" class="edge">
<title>Node1&#45;&gt;Node2</title>
<path fill="none" stroke="midnightblue" d="M74.98,-123.48C66.41,-114.37 52.64,-99.74 42.04,-88.48"/>
<polygon fill="midnightblue" stroke="midnightblue" points="44.41,-85.89 35.01,-81.01 39.31,-90.69 44.41,-85.89"/>
</g>
<!-- Node3 -->
<g id="node3" class="node">
<title>Node3</title>
<g id="a_node3"><a xlink:href="VariablesHandler_8h.html" target="_top" xlink:title=" ">
<polygon fill="none" stroke="black" points="72,-56.5 72,-86.5 208,-86.5 208,-56.5 72,-56.5"/>
<text text-anchor="start" x="80" y="-74.5" font-family="Helvetica,sans-Serif" font-size="10.00">BipedalLocomotion/System</text>
<text text-anchor="middle" x="140" y="-63.5" font-family="Helvetica,sans-Serif" font-size="10.00">/VariablesHandler.h</text>
</a>
</g>
</g>
<!-- Node1&#45;&gt;Node3 -->
<g id="edge2" class="edge">
<title>Node1&#45;&gt;Node3</title>
<path fill="none" stroke="midnightblue" d="M91.17,-123.48C98.53,-115.79 109.66,-104.17 119.44,-93.96"/>
<polygon fill="midnightblue" stroke="midnightblue" points="122.18,-96.17 126.57,-86.52 117.12,-91.32 122.18,-96.17"/>
</g>
<!-- Node4 -->
<g id="node4" class="node">
<title>Node4</title>
<g id="a_node4"><a xlink:title=" ">
<polygon fill="none" stroke="#bfbfbf" points="79.5,-0.5 79.5,-19.5 120.5,-19.5 120.5,-0.5 79.5,-0.5"/>
<text text-anchor="middle" x="100" y="-7.5" font-family="Helvetica,sans-Serif" font-size="10.00">string</text>
</a>
</g>
</g>
<!-- Node3&#45;&gt;Node4 -->
<g id="edge3" class="edge">
<title>Node3&#45;&gt;Node4</title>
<path fill="none" stroke="midnightblue" d="M130.52,-56.4C124.83,-47.93 117.55,-37.1 111.52,-28.14"/>
<polygon fill="midnightblue" stroke="midnightblue" points="114.3,-26 105.82,-19.66 108.49,-29.91 114.3,-26"/>
</g>
<!-- Node5 -->
<g id="node5" class="node">
<title>Node5</title>
<g id="a_node5"><a xlink:title=" ">
<polygon fill="none" stroke="#bfbfbf" points="138.5,-0.5 138.5,-19.5 221.5,-19.5 221.5,-0.5 138.5,-0.5"/>
<text text-anchor="middle" x="180" y="-7.5" font-family="Helvetica,sans-Serif" font-size="10.00">unordered_map</text>
</a>
</g>
</g>
<!-- Node3&#45;&gt;Node5 -->
<g id="edge4" class="edge">
<title>Node3&#45;&gt;Node5</title>
<path fill="none" stroke="midnightblue" d="M149.48,-56.4C155.17,-47.93 162.45,-37.1 168.48,-28.14"/>
<polygon fill="midnightblue" stroke="midnightblue" points="171.51,-29.91 174.18,-19.66 165.7,-26 171.51,-29.91"/>
</g>
</g>
</svg>
