<?xml version="1.0" encoding="UTF-8" standalone="no"?>
<!DOCTYPE svg PUBLIC "-//W3C//DTD SVG 1.1//EN"
 "http://www.w3.org/Graphics/SVG/1.1/DTD/svg11.dtd">
<!-- Generated by graphviz version 2.43.0 (0)
 -->
<!-- Title: RobotInterface/YarpImplementation/include/BipedalLocomotion/RobotInterface/YarpSensorBridgeImpl.h Pages: 1 -->
<svg width="2724pt" height="441pt"
 viewBox="0.00 0.00 2723.50 441.00" xmlns="http://www.w3.org/2000/svg" xmlns:xlink="http://www.w3.org/1999/xlink">
<g id="graph0" class="graph" transform="scale(1 1) rotate(0) translate(4 437)">
<title>RobotInterface/YarpImplementation/include/BipedalLocomotion/RobotInterface/YarpSensorBridgeImpl.h</title>
<!-- Node1 -->
<g id="node1" class="node">
<title>Node1</title>
<g id="a_node1"><a xlink:title=" ">
<polygon fill="#bfbfbf" stroke="black" points="1673.5,-391.5 1673.5,-432.5 1865.5,-432.5 1865.5,-391.5 1673.5,-391.5"/>
<text text-anchor="start" x="1681.5" y="-420.5" font-family="Helvetica,sans-Serif" font-size="10.00">RobotInterface/YarpImplementation</text>
<text text-anchor="start" x="1681.5" y="-409.5" font-family="Helvetica,sans-Serif" font-size="10.00">/include/BipedalLocomotion</text>
<text text-anchor="middle" x="1769.5" y="-398.5" font-family="Helvetica,sans-Serif" font-size="10.00">/RobotInterface/YarpSensorBridgeImpl.h</text>
</a>
</g>
</g>
<!-- Node2 -->
<g id="node2" class="node">
<title>Node2</title>
<g id="a_node2"><a xlink:href="YarpSensorBridge_8h.html" target="_top" xlink:title=" ">
<polygon fill="none" stroke="black" points="502,-324.5 502,-354.5 669,-354.5 669,-324.5 502,-324.5"/>
<text text-anchor="start" x="510" y="-342.5" font-family="Helvetica,sans-Serif" font-size="10.00">BipedalLocomotion/RobotInterface</text>
<text text-anchor="middle" x="585.5" y="-331.5" font-family="Helvetica,sans-Serif" font-size="10.00">/YarpSensorBridge.h</text>
</a>
</g>
</g>
<!-- Node1&#45;&gt;Node2 -->
<g id="edge1" class="edge">
<title>Node1&#45;&gt;Node2</title>
<path fill="none" stroke="midnightblue" d="M1673.36,-405.28C1450.45,-392 900.56,-359.26 679.63,-346.1"/>
<polygon fill="midnightblue" stroke="midnightblue" points="679.55,-342.59 669.36,-345.49 679.13,-349.58 679.55,-342.59"/>
</g>
<!-- Node14 -->
<g id="node14" class="node">
<title>Node14</title>
<g id="a_node14"><a xlink:href="Vector_8h_source.html" target="_top" xlink:title=" ">
<polygon fill="none" stroke="black" points="675.5,-123.5 675.5,-153.5 811.5,-153.5 811.5,-123.5 675.5,-123.5"/>
<text text-anchor="start" x="683.5" y="-141.5" font-family="Helvetica,sans-Serif" font-size="10.00">BipedalLocomotion/Generic</text>
<text text-anchor="middle" x="743.5" y="-130.5" font-family="Helvetica,sans-Serif" font-size="10.00">Container/Vector.h</text>
</a>
</g>
</g>
<!-- Node1&#45;&gt;Node14 -->
<g id="edge30" class="edge">
<title>Node1&#45;&gt;Node14</title>
<path fill="none" stroke="midnightblue" d="M1673.32,-409.53C1476.92,-405.74 1043.59,-393.12 988.5,-355 922.11,-309.05 973.48,-242.92 912.5,-190 887.25,-168.09 852.8,-155.68 821.58,-148.65"/>
<polygon fill="midnightblue" stroke="midnightblue" points="822.08,-145.18 811.58,-146.56 820.65,-152.03 822.08,-145.18"/>
</g>
<!-- Node22 -->
<g id="node22" class="node">
<title>Node22</title>
<g id="a_node22"><a xlink:title=" ">
<polygon fill="none" stroke="#bfbfbf" points="997.5,-330 997.5,-349 1079.5,-349 1079.5,-330 997.5,-330"/>
<text text-anchor="middle" x="1038.5" y="-337" font-family="Helvetica,sans-Serif" font-size="10.00">yarp/os/Time.h</text>
</a>
</g>
</g>
<!-- Node1&#45;&gt;Node22 -->
<g id="edge31" class="edge">
<title>Node1&#45;&gt;Node22</title>
<path fill="none" stroke="midnightblue" d="M1673.4,-409.14C1540.8,-405.21 1294.71,-392.98 1088.5,-355 1083.75,-354.13 1078.8,-352.98 1073.95,-351.73"/>
<polygon fill="midnightblue" stroke="midnightblue" points="1074.79,-348.32 1064.21,-349.02 1072.92,-355.07 1074.79,-348.32"/>
</g>
<!-- Node23 -->
<g id="node23" class="node">
<title>Node23</title>
<g id="a_node23"><a xlink:title=" ">
<polygon fill="none" stroke="#bfbfbf" points="1097.5,-330 1097.5,-349 1187.5,-349 1187.5,-330 1097.5,-330"/>
<text text-anchor="middle" x="1142.5" y="-337" font-family="Helvetica,sans-Serif" font-size="10.00">yarp/sig/Vector.h</text>
</a>
</g>
</g>
<!-- Node1&#45;&gt;Node23 -->
<g id="edge32" class="edge">
<title>Node1&#45;&gt;Node23</title>
<path fill="none" stroke="midnightblue" d="M1673.47,-406.31C1559.3,-399.64 1363.35,-384.78 1197.5,-355 1192.29,-354.06 1186.85,-352.88 1181.5,-351.6"/>
<polygon fill="midnightblue" stroke="midnightblue" points="1181.97,-348.11 1171.42,-349.05 1180.26,-354.9 1181.97,-348.11"/>
</g>
<!-- Node24 -->
<g id="node24" class="node">
<title>Node24</title>
<g id="a_node24"><a xlink:title=" ">
<polygon fill="none" stroke="#bfbfbf" points="1206,-330 1206,-349 1295,-349 1295,-330 1206,-330"/>
<text text-anchor="middle" x="1250.5" y="-337" font-family="Helvetica,sans-Serif" font-size="10.00">yarp/sig/Image.h</text>
</a>
</g>
</g>
<!-- Node1&#45;&gt;Node24 -->
<g id="edge33" class="edge">
<title>Node1&#45;&gt;Node24</title>
<path fill="none" stroke="midnightblue" d="M1673.14,-403.43C1578.67,-395.06 1430.83,-379.44 1304.5,-355 1299.45,-354.02 1294.17,-352.83 1288.98,-351.55"/>
<polygon fill="midnightblue" stroke="midnightblue" points="1289.75,-348.13 1279.19,-349.02 1287.99,-354.91 1289.75,-348.13"/>
</g>
<!-- Node25 -->
<g id="node25" class="node">
<title>Node25</title>
<g id="a_node25"><a xlink:title=" ">
<polygon fill="none" stroke="#bfbfbf" points="1313.5,-330 1313.5,-349 1441.5,-349 1441.5,-330 1313.5,-330"/>
<text text-anchor="middle" x="1377.5" y="-337" font-family="Helvetica,sans-Serif" font-size="10.00">yarp/dev/IAnalogSensor.h</text>
</a>
</g>
</g>
<!-- Node1&#45;&gt;Node25 -->
<g id="edge34" class="edge">
<title>Node1&#45;&gt;Node25</title>
<path fill="none" stroke="midnightblue" d="M1673.43,-394.71C1610.06,-383.82 1525.25,-368.98 1450.5,-355 1443.76,-353.74 1436.67,-352.38 1429.68,-351.01"/>
<polygon fill="midnightblue" stroke="midnightblue" points="1430.03,-347.51 1419.55,-349.02 1428.68,-354.38 1430.03,-347.51"/>
</g>
<!-- Node26 -->
<g id="node26" class="node">
<title>Node26</title>
<g id="a_node26"><a xlink:title=" ">
<polygon fill="none" stroke="#bfbfbf" points="1459.5,-330 1459.5,-349 1591.5,-349 1591.5,-330 1459.5,-330"/>
<text text-anchor="middle" x="1525.5" y="-337" font-family="Helvetica,sans-Serif" font-size="10.00">yarp/dev/IGenericSensor.h</text>
</a>
</g>
</g>
<!-- Node1&#45;&gt;Node26 -->
<g id="edge35" class="edge">
<title>Node1&#45;&gt;Node26</title>
<path fill="none" stroke="midnightblue" d="M1701.86,-391.46C1657.77,-378.72 1601.77,-362.54 1564.85,-351.87"/>
<polygon fill="midnightblue" stroke="midnightblue" points="1565.54,-348.43 1554.96,-349.01 1563.6,-355.15 1565.54,-348.43"/>
</g>
<!-- Node27 -->
<g id="node27" class="node">
<title>Node27</title>
<g id="a_node27"><a xlink:title=" ">
<polygon fill="none" stroke="#bfbfbf" points="1610,-324.5 1610,-354.5 1767,-354.5 1767,-324.5 1610,-324.5"/>
<text text-anchor="start" x="1618" y="-342.5" font-family="Helvetica,sans-Serif" font-size="10.00">yarp/dev/MultipleAnalogSensors</text>
<text text-anchor="middle" x="1688.5" y="-331.5" font-family="Helvetica,sans-Serif" font-size="10.00">Interfaces.h</text>
</a>
</g>
</g>
<!-- Node1&#45;&gt;Node27 -->
<g id="edge36" class="edge">
<title>Node1&#45;&gt;Node27</title>
<path fill="none" stroke="midnightblue" d="M1746.94,-391.36C1736.16,-381.99 1723.27,-370.76 1712.34,-361.25"/>
<polygon fill="midnightblue" stroke="midnightblue" points="1714.62,-358.6 1704.78,-354.67 1710.03,-363.88 1714.62,-358.6"/>
</g>
<!-- Node28 -->
<g id="node28" class="node">
<title>Node28</title>
<g id="a_node28"><a xlink:title=" ">
<polygon fill="none" stroke="#bfbfbf" points="1785.5,-330 1785.5,-349 1917.5,-349 1917.5,-330 1785.5,-330"/>
<text text-anchor="middle" x="1851.5" y="-337" font-family="Helvetica,sans-Serif" font-size="10.00">yarp/dev/ICurrentControl.h</text>
</a>
</g>
</g>
<!-- Node1&#45;&gt;Node28 -->
<g id="edge37" class="edge">
<title>Node1&#45;&gt;Node28</title>
<path fill="none" stroke="midnightblue" d="M1792.34,-391.36C1805.43,-380.11 1821.62,-366.19 1833.75,-355.76"/>
<polygon fill="midnightblue" stroke="midnightblue" points="1836.11,-358.35 1841.41,-349.17 1831.55,-353.04 1836.11,-358.35"/>
</g>
<!-- Node29 -->
<g id="node29" class="node">
<title>Node29</title>
<g id="a_node29"><a xlink:title=" ">
<polygon fill="none" stroke="#bfbfbf" points="1936,-330 1936,-349 2107,-349 2107,-330 1936,-330"/>
<text text-anchor="middle" x="2021.5" y="-337" font-family="Helvetica,sans-Serif" font-size="10.00">yarp/dev/FrameGrabberInterfaces.h</text>
</a>
</g>
</g>
<!-- Node1&#45;&gt;Node29 -->
<g id="edge38" class="edge">
<title>Node1&#45;&gt;Node29</title>
<path fill="none" stroke="midnightblue" d="M1839.36,-391.46C1885.09,-378.66 1943.22,-362.4 1981.35,-351.73"/>
<polygon fill="midnightblue" stroke="midnightblue" points="1982.38,-355.08 1991.07,-349.01 1980.5,-348.34 1982.38,-355.08"/>
</g>
<!-- Node30 -->
<g id="node30" class="node">
<title>Node30</title>
<g id="a_node30"><a xlink:title=" ">
<polygon fill="none" stroke="#bfbfbf" points="2125.5,-330 2125.5,-349 2253.5,-349 2253.5,-330 2125.5,-330"/>
<text text-anchor="middle" x="2189.5" y="-337" font-family="Helvetica,sans-Serif" font-size="10.00">yarp/dev/IRGBDSensor.h</text>
</a>
</g>
</g>
<!-- Node1&#45;&gt;Node30 -->
<g id="edge39" class="edge">
<title>Node1&#45;&gt;Node30</title>
<path fill="none" stroke="midnightblue" d="M1865.76,-396.42C1935.5,-385.62 2031.97,-370.21 2116.5,-355 2123.34,-353.77 2130.52,-352.42 2137.6,-351.05"/>
<polygon fill="midnightblue" stroke="midnightblue" points="2138.72,-354.4 2147.86,-349.04 2137.37,-347.53 2138.72,-354.4"/>
</g>
<!-- Node31 -->
<g id="node31" class="node">
<title>Node31</title>
<g id="a_node31"><a xlink:title=" ">
<polygon fill="none" stroke="#bfbfbf" points="2272,-330 2272,-349 2409,-349 2409,-330 2272,-330"/>
<text text-anchor="middle" x="2340.5" y="-337" font-family="Helvetica,sans-Serif" font-size="10.00">yarp/dev/IEncodersTimed.h</text>
</a>
</g>
</g>
<!-- Node1&#45;&gt;Node31 -->
<g id="edge40" class="edge">
<title>Node1&#45;&gt;Node31</title>
<path fill="none" stroke="midnightblue" d="M1865.66,-402.11C1965.21,-392.43 2125.13,-375.54 2262.5,-355 2270.63,-353.78 2279.22,-352.35 2287.6,-350.86"/>
<polygon fill="midnightblue" stroke="midnightblue" points="2288.47,-354.26 2297.68,-349.02 2287.21,-347.37 2288.47,-354.26"/>
</g>
<!-- Node32 -->
<g id="node32" class="node">
<title>Node32</title>
<g id="a_node32"><a xlink:title=" ">
<polygon fill="none" stroke="#bfbfbf" points="2427.5,-330 2427.5,-349 2531.5,-349 2531.5,-330 2427.5,-330"/>
<text text-anchor="middle" x="2479.5" y="-337" font-family="Helvetica,sans-Serif" font-size="10.00">yarp/dev/IAxisInfo.h</text>
</a>
</g>
</g>
<!-- Node1&#45;&gt;Node32 -->
<g id="edge41" class="edge">
<title>Node1&#45;&gt;Node32</title>
<path fill="none" stroke="midnightblue" d="M1865.71,-407.13C1992.9,-401 2223.67,-386.39 2418.5,-355 2424.71,-354 2431.22,-352.71 2437.58,-351.32"/>
<polygon fill="midnightblue" stroke="midnightblue" points="2438.42,-354.72 2447.39,-349.07 2436.86,-347.89 2438.42,-354.72"/>
</g>
<!-- Node33 -->
<g id="node33" class="node">
<title>Node33</title>
<g id="a_node33"><a xlink:title=" ">
<polygon fill="none" stroke="#bfbfbf" points="2549.5,-330 2549.5,-349 2593.5,-349 2593.5,-330 2549.5,-330"/>
<text text-anchor="middle" x="2571.5" y="-337" font-family="Helvetica,sans-Serif" font-size="10.00">cmath</text>
</a>
</g>
</g>
<!-- Node1&#45;&gt;Node33 -->
<g id="edge42" class="edge">
<title>Node1&#45;&gt;Node33</title>
<path fill="none" stroke="midnightblue" d="M1865.55,-408.38C2043.02,-402.81 2415.58,-387.56 2540.5,-355 2542.48,-354.48 2544.5,-353.84 2546.49,-353.12"/>
<polygon fill="midnightblue" stroke="midnightblue" points="2548.3,-356.15 2556.15,-349.03 2545.57,-349.71 2548.3,-356.15"/>
</g>
<!-- Node34 -->
<g id="node34" class="node">
<title>Node34</title>
<g id="a_node34"><a xlink:title=" ">
<polygon fill="none" stroke="#bfbfbf" points="2611.5,-330 2611.5,-349 2641.5,-349 2641.5,-330 2611.5,-330"/>
<text text-anchor="middle" x="2626.5" y="-337" font-family="Helvetica,sans-Serif" font-size="10.00">set</text>
</a>
</g>
</g>
<!-- Node1&#45;&gt;Node34 -->
<g id="edge43" class="edge">
<title>Node1&#45;&gt;Node34</title>
<path fill="none" stroke="midnightblue" d="M1865.53,-410.22C2054.42,-407.75 2467.63,-397.51 2602.5,-355 2603.57,-354.66 2604.64,-354.27 2605.7,-353.83"/>
<polygon fill="midnightblue" stroke="midnightblue" points="2607.58,-356.8 2614.83,-349.07 2604.35,-350.59 2607.58,-356.8"/>
</g>
<!-- Node35 -->
<g id="node35" class="node">
<title>Node35</title>
<g id="a_node35"><a xlink:title=" ">
<polygon fill="none" stroke="#bfbfbf" points="2659.5,-330 2659.5,-349 2715.5,-349 2715.5,-330 2659.5,-330"/>
<text text-anchor="middle" x="2687.5" y="-337" font-family="Helvetica,sans-Serif" font-size="10.00">algorithm</text>
</a>
</g>
</g>
<!-- Node1&#45;&gt;Node35 -->
<g id="edge44" class="edge">
<title>Node1&#45;&gt;Node35</title>
<path fill="none" stroke="midnightblue" d="M1865.58,-408.64C2061.98,-403.21 2503.31,-387.68 2650.5,-355 2653.5,-354.33 2656.58,-353.46 2659.62,-352.47"/>
<polygon fill="midnightblue" stroke="midnightblue" points="2660.84,-355.75 2669.03,-349.03 2658.44,-349.18 2660.84,-355.75"/>
</g>
<!-- Node3 -->
<g id="node3" class="node">
<title>Node3</title>
<g id="a_node3"><a xlink:title=" ">
<polygon fill="none" stroke="#bfbfbf" points="914,-62 914,-81 973,-81 973,-62 914,-62"/>
<text text-anchor="middle" x="943.5" y="-69" font-family="Helvetica,sans-Serif" font-size="10.00">functional</text>
</a>
</g>
</g>
<!-- Node2&#45;&gt;Node3 -->
<g id="edge2" class="edge">
<title>Node2&#45;&gt;Node3</title>
<path fill="none" stroke="midnightblue" d="M669.26,-331.63C744.54,-320.8 852.25,-292.89 912.5,-221 944,-183.41 946.08,-121.94 944.87,-91.21"/>
<polygon fill="midnightblue" stroke="midnightblue" points="948.35,-90.84 944.3,-81.06 941.36,-91.24 948.35,-90.84"/>
</g>
<!-- Node4 -->
<g id="node4" class="node">
<title>Node4</title>
<g id="a_node4"><a xlink:title=" ">
<polygon fill="none" stroke="#bfbfbf" points="410.5,-62 410.5,-81 462.5,-81 462.5,-62 410.5,-62"/>
<text text-anchor="middle" x="436.5" y="-69" font-family="Helvetica,sans-Serif" font-size="10.00">memory</text>
</a>
</g>
</g>
<!-- Node2&#45;&gt;Node4 -->
<g id="edge3" class="edge">
<title>Node2&#45;&gt;Node4</title>
<path fill="none" stroke="midnightblue" d="M501.96,-324.61C442.43,-309.88 366.48,-280.13 328.5,-221 295.58,-169.76 371.95,-112.29 412.82,-86.43"/>
<polygon fill="midnightblue" stroke="midnightblue" points="414.75,-89.35 421.42,-81.12 411.07,-83.4 414.75,-89.35"/>
</g>
<!-- Node5 -->
<g id="node5" class="node">
<title>Node5</title>
<g id="a_node5"><a xlink:title=" ">
<polygon fill="none" stroke="#bfbfbf" points="853.5,-196 853.5,-215 903.5,-215 903.5,-196 853.5,-196"/>
<text text-anchor="middle" x="878.5" y="-203" font-family="Helvetica,sans-Serif" font-size="10.00">optional</text>
</a>
</g>
</g>
<!-- Node2&#45;&gt;Node5 -->
<g id="edge4" class="edge">
<title>Node2&#45;&gt;Node5</title>
<path fill="none" stroke="midnightblue" d="M616.58,-324.5C673.82,-298.71 795.09,-244.08 850.19,-219.25"/>
<polygon fill="midnightblue" stroke="midnightblue" points="851.69,-222.42 859.37,-215.12 848.82,-216.03 851.69,-222.42"/>
</g>
<!-- Node6 -->
<g id="node6" class="node">
<title>Node6</title>
<g id="a_node6"><a xlink:title=" ">
<polygon fill="none" stroke="#bfbfbf" points="0,-263 0,-282 127,-282 127,-263 0,-263"/>
<text text-anchor="middle" x="63.5" y="-270" font-family="Helvetica,sans-Serif" font-size="10.00">yarp/dev/PolyDriverList.h</text>
</a>
</g>
</g>
<!-- Node2&#45;&gt;Node6 -->
<g id="edge5" class="edge">
<title>Node2&#45;&gt;Node6</title>
<path fill="none" stroke="midnightblue" d="M501.64,-331.19C411.23,-322.82 263.24,-307.68 136.5,-288 128.95,-286.83 121,-285.42 113.23,-283.96"/>
<polygon fill="midnightblue" stroke="midnightblue" points="113.66,-280.48 103.17,-282.01 112.33,-287.35 113.66,-280.48"/>
</g>
<!-- Node7 -->
<g id="node7" class="node">
<title>Node7</title>
<g id="a_node7"><a xlink:href="Advanceable_8h.html" target="_top" xlink:title=" ">
<polygon fill="none" stroke="black" points="145.5,-257.5 145.5,-287.5 281.5,-287.5 281.5,-257.5 145.5,-257.5"/>
<text text-anchor="start" x="153.5" y="-275.5" font-family="Helvetica,sans-Serif" font-size="10.00">BipedalLocomotion/System</text>
<text text-anchor="middle" x="213.5" y="-264.5" font-family="Helvetica,sans-Serif" font-size="10.00">/Advanceable.h</text>
</a>
</g>
</g>
<!-- Node2&#45;&gt;Node7 -->
<g id="edge6" class="edge">
<title>Node2&#45;&gt;Node7</title>
<path fill="none" stroke="midnightblue" d="M504.55,-324.46C446.38,-314.36 366.1,-300.39 295.5,-288 294.22,-287.78 292.93,-287.55 291.62,-287.32"/>
<polygon fill="midnightblue" stroke="midnightblue" points="291.97,-283.83 281.51,-285.54 290.75,-290.72 291.97,-283.83"/>
</g>
<!-- Node8 -->
<g id="node8" class="node">
<title>Node8</title>
<g id="a_node8"><a xlink:href="ISensorBridge_8h.html" target="_top" xlink:title=" ">
<polygon fill="none" stroke="black" points="502,-257.5 502,-287.5 669,-287.5 669,-257.5 502,-257.5"/>
<text text-anchor="start" x="510" y="-275.5" font-family="Helvetica,sans-Serif" font-size="10.00">BipedalLocomotion/RobotInterface</text>
<text text-anchor="middle" x="585.5" y="-264.5" font-family="Helvetica,sans-Serif" font-size="10.00">/ISensorBridge.h</text>
</a>
</g>
</g>
<!-- Node2&#45;&gt;Node8 -->
<g id="edge7" class="edge">
<title>Node2&#45;&gt;Node8</title>
<path fill="none" stroke="midnightblue" d="M585.5,-324.4C585.5,-316.64 585.5,-306.81 585.5,-297.86"/>
<polygon fill="midnightblue" stroke="midnightblue" points="589,-297.58 585.5,-287.58 582,-297.58 589,-297.58"/>
</g>
<!-- Node8&#45;&gt;Node3 -->
<g id="edge8" class="edge">
<title>Node8&#45;&gt;Node3</title>
<path fill="none" stroke="midnightblue" d="M669.24,-257.67C721.52,-248.03 783.17,-234.52 806.5,-221 836.58,-203.57 902.2,-124.11 930.3,-89.13"/>
<polygon fill="midnightblue" stroke="midnightblue" points="933.09,-91.25 936.59,-81.25 927.62,-86.88 933.09,-91.25"/>
</g>
<!-- Node8&#45;&gt;Node4 -->
<g id="edge9" class="edge">
<title>Node8&#45;&gt;Node4</title>
<path fill="none" stroke="midnightblue" d="M546.45,-257.42C528.29,-249.19 507.64,-237.2 493.5,-221 459.85,-182.44 445.05,-121.89 439.44,-91.39"/>
<polygon fill="midnightblue" stroke="midnightblue" points="442.85,-90.55 437.72,-81.28 435.95,-91.73 442.85,-90.55"/>
</g>
<!-- Node8&#45;&gt;Node5 -->
<g id="edge10" class="edge">
<title>Node8&#45;&gt;Node5</title>
<path fill="none" stroke="midnightblue" d="M669.23,-258.32C719.14,-249.61 783.48,-236.87 839.5,-221 842.15,-220.25 844.87,-219.4 847.58,-218.5"/>
<polygon fill="midnightblue" stroke="midnightblue" points="848.98,-221.72 857.25,-215.1 846.65,-215.12 848.98,-221.72"/>
</g>
<!-- Node9 -->
<g id="node9" class="node">
<title>Node9</title>
<g id="a_node9"><a xlink:title=" ">
<polygon fill="none" stroke="#bfbfbf" points="540,-129 540,-148 581,-148 581,-129 540,-129"/>
<text text-anchor="middle" x="560.5" y="-136" font-family="Helvetica,sans-Serif" font-size="10.00">string</text>
</a>
</g>
</g>
<!-- Node8&#45;&gt;Node9 -->
<g id="edge11" class="edge">
<title>Node8&#45;&gt;Node9</title>
<path fill="none" stroke="midnightblue" d="M591.76,-257.32C598.15,-240.79 606.13,-212.83 598.5,-190 594.19,-177.09 585.13,-164.84 576.94,-155.63"/>
<polygon fill="midnightblue" stroke="midnightblue" points="579.24,-152.97 569.83,-148.11 574.16,-157.78 579.24,-152.97"/>
</g>
<!-- Node10 -->
<g id="node10" class="node">
<title>Node10</title>
<g id="a_node10"><a xlink:title=" ">
<polygon fill="none" stroke="#bfbfbf" points="338,-196 338,-215 421,-215 421,-196 338,-196"/>
<text text-anchor="middle" x="379.5" y="-203" font-family="Helvetica,sans-Serif" font-size="10.00">unordered_map</text>
</a>
</g>
</g>
<!-- Node8&#45;&gt;Node10 -->
<g id="edge12" class="edge">
<title>Node8&#45;&gt;Node10</title>
<path fill="none" stroke="midnightblue" d="M541.05,-257.48C503.81,-245.72 451.26,-229.14 416.33,-218.12"/>
<polygon fill="midnightblue" stroke="midnightblue" points="417.12,-214.7 406.53,-215.03 415.01,-221.38 417.12,-214.7"/>
</g>
<!-- Node11 -->
<g id="node11" class="node">
<title>Node11</title>
<g id="a_node11"><a xlink:title=" ">
<polygon fill="none" stroke="#bfbfbf" points="477.5,-129 477.5,-148 521.5,-148 521.5,-129 477.5,-129"/>
<text text-anchor="middle" x="499.5" y="-136" font-family="Helvetica,sans-Serif" font-size="10.00">vector</text>
</a>
</g>
</g>
<!-- Node8&#45;&gt;Node11 -->
<g id="edge13" class="edge">
<title>Node8&#45;&gt;Node11</title>
<path fill="none" stroke="midnightblue" d="M550.57,-257.47C534.75,-249.26 517.4,-237.26 507.5,-221 495.91,-201.98 495.51,-175.71 496.95,-158.19"/>
<polygon fill="midnightblue" stroke="midnightblue" points="500.44,-158.43 498.05,-148.11 493.48,-157.67 500.44,-158.43"/>
</g>
<!-- Node12 -->
<g id="node12" class="node">
<title>Node12</title>
<g id="a_node12"><a xlink:title=" ">
<polygon fill="none" stroke="#bfbfbf" points="516,-196 516,-215 589,-215 589,-196 516,-196"/>
<text text-anchor="middle" x="552.5" y="-203" font-family="Helvetica,sans-Serif" font-size="10.00">Eigen/Dense</text>
</a>
</g>
</g>
<!-- Node8&#45;&gt;Node12 -->
<g id="edge14" class="edge">
<title>Node8&#45;&gt;Node12</title>
<path fill="none" stroke="midnightblue" d="M578.34,-257.4C573.4,-247.66 566.79,-234.65 561.49,-224.21"/>
<polygon fill="midnightblue" stroke="midnightblue" points="564.56,-222.53 556.91,-215.19 558.32,-225.7 564.56,-222.53"/>
</g>
<!-- Node13 -->
<g id="node13" class="node">
<title>Node13</title>
<g id="a_node13"><a xlink:href="IParametersHandler_8h.html" target="_top" xlink:title=" ">
<polygon fill="none" stroke="black" points="645.5,-190.5 645.5,-220.5 797.5,-220.5 797.5,-190.5 645.5,-190.5"/>
<text text-anchor="start" x="653.5" y="-208.5" font-family="Helvetica,sans-Serif" font-size="10.00">BipedalLocomotion/Parameters</text>
<text text-anchor="middle" x="721.5" y="-197.5" font-family="Helvetica,sans-Serif" font-size="10.00">Handler/IParametersHandler.h</text>
</a>
</g>
</g>
<!-- Node8&#45;&gt;Node13 -->
<g id="edge15" class="edge">
<title>Node8&#45;&gt;Node13</title>
<path fill="none" stroke="midnightblue" d="M615.01,-257.4C634.88,-247.9 661.29,-235.28 682.84,-224.98"/>
<polygon fill="midnightblue" stroke="midnightblue" points="684.53,-228.05 692.05,-220.58 681.52,-221.73 684.53,-228.05"/>
</g>
<!-- Node13&#45;&gt;Node4 -->
<g id="edge16" class="edge">
<title>Node13&#45;&gt;Node4</title>
<path fill="none" stroke="midnightblue" d="M688.87,-190.48C669.16,-181.35 643.98,-168.47 623.5,-154 607.06,-142.39 607.91,-133.09 590.5,-123 543.06,-95.51 524.2,-105.26 472.5,-87 470.59,-86.33 468.64,-85.61 466.68,-84.88"/>
<polygon fill="midnightblue" stroke="midnightblue" points="467.53,-81.45 456.94,-81.09 465,-87.98 467.53,-81.45"/>
</g>
<!-- Node13&#45;&gt;Node9 -->
<g id="edge17" class="edge">
<title>Node13&#45;&gt;Node9</title>
<path fill="none" stroke="midnightblue" d="M686.15,-190.46C660.87,-180.39 626.05,-166.45 595.5,-154 593.91,-153.35 592.28,-152.68 590.63,-152.01"/>
<polygon fill="midnightblue" stroke="midnightblue" points="591.79,-148.7 581.21,-148.13 589.12,-155.17 591.79,-148.7"/>
</g>
<!-- Node13&#45;&gt;Node11 -->
<g id="edge18" class="edge">
<title>Node13&#45;&gt;Node11</title>
<path fill="none" stroke="midnightblue" d="M658.23,-190.47C620.89,-181.5 572.97,-168.79 531.5,-154 529.84,-153.41 528.15,-152.77 526.45,-152.09"/>
<polygon fill="midnightblue" stroke="midnightblue" points="527.46,-148.72 516.89,-148.01 524.71,-155.15 527.46,-148.72"/>
</g>
<!-- Node13&#45;&gt;Node14 -->
<g id="edge19" class="edge">
<title>Node13&#45;&gt;Node14</title>
<path fill="none" stroke="midnightblue" d="M726.27,-190.4C728.95,-182.47 732.37,-172.38 735.45,-163.27"/>
<polygon fill="midnightblue" stroke="midnightblue" points="738.84,-164.17 738.74,-153.58 732.21,-161.93 738.84,-164.17"/>
</g>
<!-- Node16 -->
<g id="node16" class="node">
<title>Node16</title>
<g id="a_node16"><a xlink:href="TemplateHelpers_8h_source.html" target="_top" xlink:title=" ">
<polygon fill="none" stroke="black" points="481,-56.5 481,-86.5 624,-86.5 624,-56.5 481,-56.5"/>
<text text-anchor="start" x="489" y="-74.5" font-family="Helvetica,sans-Serif" font-size="10.00">BipedalLocomotion/Generic</text>
<text text-anchor="middle" x="552.5" y="-63.5" font-family="Helvetica,sans-Serif" font-size="10.00">Container/TemplateHelpers.h</text>
</a>
</g>
</g>
<!-- Node13&#45;&gt;Node16 -->
<g id="edge29" class="edge">
<title>Node13&#45;&gt;Node16</title>
<path fill="none" stroke="midnightblue" d="M705.16,-190.27C685.96,-173.69 652.96,-145.68 623.5,-123 610.06,-112.66 594.77,-101.68 581.83,-92.62"/>
<polygon fill="midnightblue" stroke="midnightblue" points="583.51,-89.52 573.3,-86.68 579.51,-95.27 583.51,-89.52"/>
</g>
<!-- Node14&#45;&gt;Node3 -->
<g id="edge25" class="edge">
<title>Node14&#45;&gt;Node3</title>
<path fill="none" stroke="midnightblue" d="M791.25,-123.47C823.65,-113.74 867.36,-100.21 905.5,-87 907.75,-86.22 910.07,-85.39 912.4,-84.55"/>
<polygon fill="midnightblue" stroke="midnightblue" points="913.73,-87.79 921.88,-81.02 911.29,-81.23 913.73,-87.79"/>
</g>
<!-- Node14&#45;&gt;Node4 -->
<g id="edge28" class="edge">
<title>Node14&#45;&gt;Node4</title>
<path fill="none" stroke="midnightblue" d="M675.25,-128.62C619.91,-120.51 540.27,-106.75 472.5,-87 470.07,-86.29 467.57,-85.48 465.08,-84.6"/>
<polygon fill="midnightblue" stroke="midnightblue" points="466.27,-81.31 455.68,-81.05 463.79,-87.86 466.27,-81.31"/>
</g>
<!-- Node15 -->
<g id="node15" class="node">
<title>Node15</title>
<g id="a_node15"><a xlink:title=" ">
<polygon fill="none" stroke="#bfbfbf" points="714.5,-62 714.5,-81 828.5,-81 828.5,-62 714.5,-62"/>
<text text-anchor="middle" x="771.5" y="-69" font-family="Helvetica,sans-Serif" font-size="10.00">iDynTree/Core/Span.h</text>
</a>
</g>
</g>
<!-- Node14&#45;&gt;Node15 -->
<g id="edge20" class="edge">
<title>Node14&#45;&gt;Node15</title>
<path fill="none" stroke="midnightblue" d="M749.58,-123.4C753.73,-113.76 759.26,-100.91 763.73,-90.54"/>
<polygon fill="midnightblue" stroke="midnightblue" points="767.01,-91.76 767.75,-81.19 760.58,-88.99 767.01,-91.76"/>
</g>
<!-- Node14&#45;&gt;Node16 -->
<g id="edge21" class="edge">
<title>Node14&#45;&gt;Node16</title>
<path fill="none" stroke="midnightblue" d="M702.06,-123.4C673.15,-113.56 634.39,-100.37 603.57,-89.88"/>
<polygon fill="midnightblue" stroke="midnightblue" points="604.46,-86.48 593.86,-86.58 602.2,-93.11 604.46,-86.48"/>
</g>
<!-- Node20 -->
<g id="node20" class="node">
<title>Node20</title>
<g id="a_node20"><a xlink:title=" ">
<polygon fill="none" stroke="#bfbfbf" points="847,-62 847,-81 896,-81 896,-62 847,-62"/>
<text text-anchor="middle" x="871.5" y="-69" font-family="Helvetica,sans-Serif" font-size="10.00">cassert</text>
</a>
</g>
</g>
<!-- Node14&#45;&gt;Node20 -->
<g id="edge26" class="edge">
<title>Node14&#45;&gt;Node20</title>
<path fill="none" stroke="midnightblue" d="M771.27,-123.4C793.44,-112.14 824.24,-96.5 845.83,-85.54"/>
<polygon fill="midnightblue" stroke="midnightblue" points="847.42,-88.66 854.75,-81.01 844.25,-82.41 847.42,-88.66"/>
</g>
<!-- Node21 -->
<g id="node21" class="node">
<title>Node21</title>
<g id="a_node21"><a xlink:title=" ">
<polygon fill="none" stroke="#bfbfbf" points="642.5,-62 642.5,-81 696.5,-81 696.5,-62 642.5,-62"/>
<text text-anchor="middle" x="669.5" y="-69" font-family="Helvetica,sans-Serif" font-size="10.00">iostream</text>
</a>
</g>
</g>
<!-- Node14&#45;&gt;Node21 -->
<g id="edge27" class="edge">
<title>Node14&#45;&gt;Node21</title>
<path fill="none" stroke="midnightblue" d="M727.44,-123.4C715.56,-112.96 699.39,-98.75 687.14,-88"/>
<polygon fill="midnightblue" stroke="midnightblue" points="689.22,-85.16 679.4,-81.19 684.6,-90.42 689.22,-85.16"/>
</g>
<!-- Node17 -->
<g id="node17" class="node">
<title>Node17</title>
<g id="a_node17"><a xlink:title=" ">
<polygon fill="none" stroke="#bfbfbf" points="439.5,-0.5 439.5,-19.5 501.5,-19.5 501.5,-0.5 439.5,-0.5"/>
<text text-anchor="middle" x="470.5" y="-7.5" font-family="Helvetica,sans-Serif" font-size="10.00">type_traits</text>
</a>
</g>
</g>
<!-- Node16&#45;&gt;Node17 -->
<g id="edge22" class="edge">
<title>Node16&#45;&gt;Node17</title>
<path fill="none" stroke="midnightblue" d="M533.07,-56.4C520.29,-47.13 503.61,-35.03 490.69,-25.65"/>
<polygon fill="midnightblue" stroke="midnightblue" points="492.58,-22.7 482.43,-19.66 488.47,-28.36 492.58,-22.7"/>
</g>
<!-- Node18 -->
<g id="node18" class="node">
<title>Node18</title>
<g id="a_node18"><a xlink:title=" ">
<polygon fill="none" stroke="#bfbfbf" points="519.5,-0.5 519.5,-19.5 585.5,-19.5 585.5,-0.5 519.5,-0.5"/>
<text text-anchor="middle" x="552.5" y="-7.5" font-family="Helvetica,sans-Serif" font-size="10.00">string_view</text>
</a>
</g>
</g>
<!-- Node16&#45;&gt;Node18 -->
<g id="edge23" class="edge">
<title>Node16&#45;&gt;Node18</title>
<path fill="none" stroke="midnightblue" d="M552.5,-56.4C552.5,-48.47 552.5,-38.46 552.5,-29.86"/>
<polygon fill="midnightblue" stroke="midnightblue" points="556,-29.66 552.5,-19.66 549,-29.66 556,-29.66"/>
</g>
<!-- Node19 -->
<g id="node19" class="node">
<title>Node19</title>
<g id="a_node19"><a xlink:title=" ">
<polygon fill="none" stroke="#bfbfbf" points="604,-0.5 604,-19.5 669,-19.5 669,-0.5 604,-0.5"/>
<text text-anchor="middle" x="636.5" y="-7.5" font-family="Helvetica,sans-Serif" font-size="10.00">Eigen/Core</text>
</a>
</g>
</g>
<!-- Node16&#45;&gt;Node19 -->
<g id="edge24" class="edge">
<title>Node16&#45;&gt;Node19</title>
<path fill="none" stroke="midnightblue" d="M572.41,-56.4C585.49,-47.13 602.58,-35.03 615.82,-25.65"/>
<polygon fill="midnightblue" stroke="midnightblue" points="618.14,-28.29 624.28,-19.66 614.09,-22.58 618.14,-28.29"/>
</g>
</g>
</svg>
