<?xml version="1.0" encoding="UTF-8" standalone="no"?>
<!DOCTYPE svg PUBLIC "-//W3C//DTD SVG 1.1//EN"
 "http://www.w3.org/Graphics/SVG/1.1/DTD/svg11.dtd">
<!-- Generated by graphviz version 2.43.0 (0)
 -->
<!-- Title: RobotInterface/YarpImplementation/src/YarpSensorBridge.cpp Pages: 1 -->
<svg width="2724pt" height="497pt"
 viewBox="0.00 0.00 2723.50 497.00" xmlns="http://www.w3.org/2000/svg" xmlns:xlink="http://www.w3.org/1999/xlink">
<g id="graph0" class="graph" transform="scale(1 1) rotate(0) translate(4 493)">
<title>RobotInterface/YarpImplementation/src/YarpSensorBridge.cpp</title>
<!-- Node1 -->
<g id="node1" class="node">
<title>Node1</title>
<g id="a_node1"><a xlink:title=" ">
<polygon fill="#bfbfbf" stroke="black" points="1759.5,-458.5 1759.5,-488.5 1929.5,-488.5 1929.5,-458.5 1759.5,-458.5"/>
<text text-anchor="start" x="1767.5" y="-476.5" font-family="Helvetica,sans-Serif" font-size="10.00">RobotInterface/YarpImplementation</text>
<text text-anchor="middle" x="1844.5" y="-465.5" font-family="Helvetica,sans-Serif" font-size="10.00">/src/YarpSensorBridge.cpp</text>
</a>
</g>
</g>
<!-- Node2 -->
<g id="node2" class="node">
<title>Node2</title>
<g id="a_node2"><a xlink:href="YarpSensorBridgeImpl_8h.html" target="_top" xlink:title=" ">
<polygon fill="none" stroke="black" points="1686,-391.5 1686,-421.5 1853,-421.5 1853,-391.5 1686,-391.5"/>
<text text-anchor="start" x="1694" y="-409.5" font-family="Helvetica,sans-Serif" font-size="10.00">BipedalLocomotion/RobotInterface</text>
<text text-anchor="middle" x="1769.5" y="-398.5" font-family="Helvetica,sans-Serif" font-size="10.00">/YarpSensorBridgeImpl.h</text>
</a>
</g>
</g>
<!-- Node1&#45;&gt;Node2 -->
<g id="edge1" class="edge">
<title>Node1&#45;&gt;Node2</title>
<path fill="none" stroke="midnightblue" d="M1828.23,-458.4C1818.1,-449.62 1804.9,-438.18 1793.58,-428.37"/>
<polygon fill="midnightblue" stroke="midnightblue" points="1795.59,-425.48 1785.74,-421.58 1791.01,-430.77 1795.59,-425.48"/>
</g>
<!-- Node37 -->
<g id="node37" class="node">
<title>Node37</title>
<g id="a_node37"><a xlink:title=" ">
<polygon fill="none" stroke="#bfbfbf" points="1870.5,-397 1870.5,-416 1968.5,-416 1968.5,-397 1870.5,-397"/>
<text text-anchor="middle" x="1919.5" y="-404" font-family="Helvetica,sans-Serif" font-size="10.00">yarp/eigen/Eigen.h</text>
</a>
</g>
</g>
<!-- Node1&#45;&gt;Node37 -->
<g id="edge46" class="edge">
<title>Node1&#45;&gt;Node37</title>
<path fill="none" stroke="midnightblue" d="M1860.77,-458.4C1872.82,-447.96 1889.21,-433.75 1901.62,-423"/>
<polygon fill="midnightblue" stroke="midnightblue" points="1904.2,-425.39 1909.47,-416.19 1899.62,-420.1 1904.2,-425.39"/>
</g>
<!-- Node3 -->
<g id="node3" class="node">
<title>Node3</title>
<g id="a_node3"><a xlink:href="YarpSensorBridge_8h.html" target="_top" xlink:title=" ">
<polygon fill="none" stroke="black" points="502,-324.5 502,-354.5 669,-354.5 669,-324.5 502,-324.5"/>
<text text-anchor="start" x="510" y="-342.5" font-family="Helvetica,sans-Serif" font-size="10.00">BipedalLocomotion/RobotInterface</text>
<text text-anchor="middle" x="585.5" y="-331.5" font-family="Helvetica,sans-Serif" font-size="10.00">/YarpSensorBridge.h</text>
</a>
</g>
</g>
<!-- Node2&#45;&gt;Node3 -->
<g id="edge2" class="edge">
<title>Node2&#45;&gt;Node3</title>
<path fill="none" stroke="midnightblue" d="M1685.77,-400.9C1471.53,-389.14 904.56,-358.02 679.5,-345.66"/>
<polygon fill="midnightblue" stroke="midnightblue" points="679.54,-342.16 669.36,-345.1 679.16,-349.15 679.54,-342.16"/>
</g>
<!-- Node15 -->
<g id="node15" class="node">
<title>Node15</title>
<g id="a_node15"><a xlink:href="Vector_8h_source.html" target="_top" xlink:title=" ">
<polygon fill="none" stroke="black" points="675.5,-123.5 675.5,-153.5 811.5,-153.5 811.5,-123.5 675.5,-123.5"/>
<text text-anchor="start" x="683.5" y="-141.5" font-family="Helvetica,sans-Serif" font-size="10.00">BipedalLocomotion/Generic</text>
<text text-anchor="middle" x="743.5" y="-130.5" font-family="Helvetica,sans-Serif" font-size="10.00">Container/Vector.h</text>
</a>
</g>
</g>
<!-- Node2&#45;&gt;Node15 -->
<g id="edge31" class="edge">
<title>Node2&#45;&gt;Node15</title>
<path fill="none" stroke="midnightblue" d="M1685.7,-404.87C1495.82,-402.78 1044.88,-393.73 988.5,-355 921.95,-309.29 973.48,-242.92 912.5,-190 887.25,-168.09 852.8,-155.68 821.58,-148.65"/>
<polygon fill="midnightblue" stroke="midnightblue" points="822.08,-145.18 811.58,-146.56 820.65,-152.03 822.08,-145.18"/>
</g>
<!-- Node23 -->
<g id="node23" class="node">
<title>Node23</title>
<g id="a_node23"><a xlink:title=" ">
<polygon fill="none" stroke="#bfbfbf" points="997.5,-330 997.5,-349 1079.5,-349 1079.5,-330 997.5,-330"/>
<text text-anchor="middle" x="1038.5" y="-337" font-family="Helvetica,sans-Serif" font-size="10.00">yarp/os/Time.h</text>
</a>
</g>
</g>
<!-- Node2&#45;&gt;Node23 -->
<g id="edge32" class="edge">
<title>Node2&#45;&gt;Node23</title>
<path fill="none" stroke="midnightblue" d="M1685.98,-404.88C1556.87,-402.68 1301.44,-393.34 1088.5,-355 1083.75,-354.14 1078.8,-353.01 1073.95,-351.76"/>
<polygon fill="midnightblue" stroke="midnightblue" points="1074.78,-348.36 1064.21,-349.07 1072.91,-355.11 1074.78,-348.36"/>
</g>
<!-- Node24 -->
<g id="node24" class="node">
<title>Node24</title>
<g id="a_node24"><a xlink:title=" ">
<polygon fill="none" stroke="#bfbfbf" points="1097.5,-330 1097.5,-349 1187.5,-349 1187.5,-330 1097.5,-330"/>
<text text-anchor="middle" x="1142.5" y="-337" font-family="Helvetica,sans-Serif" font-size="10.00">yarp/sig/Vector.h</text>
</a>
</g>
</g>
<!-- Node2&#45;&gt;Node24 -->
<g id="edge33" class="edge">
<title>Node2&#45;&gt;Node24</title>
<path fill="none" stroke="midnightblue" d="M1685.56,-402.55C1573.55,-397.59 1369.36,-385.02 1197.5,-355 1192.09,-354.05 1186.43,-352.84 1180.89,-351.51"/>
<polygon fill="midnightblue" stroke="midnightblue" points="1181.68,-348.1 1171.13,-349.03 1179.96,-354.88 1181.68,-348.1"/>
</g>
<!-- Node25 -->
<g id="node25" class="node">
<title>Node25</title>
<g id="a_node25"><a xlink:title=" ">
<polygon fill="none" stroke="#bfbfbf" points="1206,-330 1206,-349 1295,-349 1295,-330 1206,-330"/>
<text text-anchor="middle" x="1250.5" y="-337" font-family="Helvetica,sans-Serif" font-size="10.00">yarp/sig/Image.h</text>
</a>
</g>
</g>
<!-- Node2&#45;&gt;Node25 -->
<g id="edge34" class="edge">
<title>Node2&#45;&gt;Node25</title>
<path fill="none" stroke="midnightblue" d="M1685.77,-400.31C1592.24,-393.61 1436.59,-379.75 1304.5,-355 1299.38,-354.04 1294.04,-352.85 1288.79,-351.56"/>
<polygon fill="midnightblue" stroke="midnightblue" points="1289.45,-348.12 1278.9,-349 1287.7,-354.89 1289.45,-348.12"/>
</g>
<!-- Node26 -->
<g id="node26" class="node">
<title>Node26</title>
<g id="a_node26"><a xlink:title=" ">
<polygon fill="none" stroke="#bfbfbf" points="1313.5,-330 1313.5,-349 1441.5,-349 1441.5,-330 1313.5,-330"/>
<text text-anchor="middle" x="1377.5" y="-337" font-family="Helvetica,sans-Serif" font-size="10.00">yarp/dev/IAnalogSensor.h</text>
</a>
</g>
</g>
<!-- Node2&#45;&gt;Node26 -->
<g id="edge35" class="edge">
<title>Node2&#45;&gt;Node26</title>
<path fill="none" stroke="midnightblue" d="M1685.73,-393.15C1621.3,-383.44 1530.13,-369.21 1450.5,-355 1443.66,-353.78 1436.48,-352.43 1429.39,-351.07"/>
<polygon fill="midnightblue" stroke="midnightblue" points="1429.62,-347.55 1419.14,-349.06 1428.28,-354.42 1429.62,-347.55"/>
</g>
<!-- Node27 -->
<g id="node27" class="node">
<title>Node27</title>
<g id="a_node27"><a xlink:title=" ">
<polygon fill="none" stroke="#bfbfbf" points="1459.5,-330 1459.5,-349 1591.5,-349 1591.5,-330 1459.5,-330"/>
<text text-anchor="middle" x="1525.5" y="-337" font-family="Helvetica,sans-Serif" font-size="10.00">yarp/dev/IGenericSensor.h</text>
</a>
</g>
</g>
<!-- Node2&#45;&gt;Node27 -->
<g id="edge36" class="edge">
<title>Node2&#45;&gt;Node27</title>
<path fill="none" stroke="midnightblue" d="M1716.86,-391.48C1672.08,-379.55 1608.63,-362.64 1567.27,-351.63"/>
<polygon fill="midnightblue" stroke="midnightblue" points="1568.08,-348.22 1557.52,-349.03 1566.28,-354.98 1568.08,-348.22"/>
</g>
<!-- Node28 -->
<g id="node28" class="node">
<title>Node28</title>
<g id="a_node28"><a xlink:title=" ">
<polygon fill="none" stroke="#bfbfbf" points="1610,-324.5 1610,-354.5 1767,-354.5 1767,-324.5 1610,-324.5"/>
<text text-anchor="start" x="1618" y="-342.5" font-family="Helvetica,sans-Serif" font-size="10.00">yarp/dev/MultipleAnalogSensors</text>
<text text-anchor="middle" x="1688.5" y="-331.5" font-family="Helvetica,sans-Serif" font-size="10.00">Interfaces.h</text>
</a>
</g>
</g>
<!-- Node2&#45;&gt;Node28 -->
<g id="edge37" class="edge">
<title>Node2&#45;&gt;Node28</title>
<path fill="none" stroke="midnightblue" d="M1751.92,-391.4C1740.89,-382.54 1726.46,-370.96 1714.15,-361.09"/>
<polygon fill="midnightblue" stroke="midnightblue" points="1716.03,-358.11 1706.04,-354.58 1711.65,-363.56 1716.03,-358.11"/>
</g>
<!-- Node29 -->
<g id="node29" class="node">
<title>Node29</title>
<g id="a_node29"><a xlink:title=" ">
<polygon fill="none" stroke="#bfbfbf" points="1785.5,-330 1785.5,-349 1917.5,-349 1917.5,-330 1785.5,-330"/>
<text text-anchor="middle" x="1851.5" y="-337" font-family="Helvetica,sans-Serif" font-size="10.00">yarp/dev/ICurrentControl.h</text>
</a>
</g>
</g>
<!-- Node2&#45;&gt;Node29 -->
<g id="edge38" class="edge">
<title>Node2&#45;&gt;Node29</title>
<path fill="none" stroke="midnightblue" d="M1787.29,-391.4C1800.58,-380.86 1818.73,-366.48 1832.34,-355.69"/>
<polygon fill="midnightblue" stroke="midnightblue" points="1834.87,-358.15 1840.53,-349.19 1830.52,-352.66 1834.87,-358.15"/>
</g>
<!-- Node30 -->
<g id="node30" class="node">
<title>Node30</title>
<g id="a_node30"><a xlink:title=" ">
<polygon fill="none" stroke="#bfbfbf" points="1936,-330 1936,-349 2107,-349 2107,-330 1936,-330"/>
<text text-anchor="middle" x="2021.5" y="-337" font-family="Helvetica,sans-Serif" font-size="10.00">yarp/dev/FrameGrabberInterfaces.h</text>
</a>
</g>
</g>
<!-- Node2&#45;&gt;Node30 -->
<g id="edge39" class="edge">
<title>Node2&#45;&gt;Node30</title>
<path fill="none" stroke="midnightblue" d="M1823.87,-391.48C1870.22,-379.52 1935.93,-362.57 1978.63,-351.56"/>
<polygon fill="midnightblue" stroke="midnightblue" points="1979.63,-354.92 1988.44,-349.03 1977.88,-348.14 1979.63,-354.92"/>
</g>
<!-- Node31 -->
<g id="node31" class="node">
<title>Node31</title>
<g id="a_node31"><a xlink:title=" ">
<polygon fill="none" stroke="#bfbfbf" points="2125.5,-330 2125.5,-349 2253.5,-349 2253.5,-330 2125.5,-330"/>
<text text-anchor="middle" x="2189.5" y="-337" font-family="Helvetica,sans-Serif" font-size="10.00">yarp/dev/IRGBDSensor.h</text>
</a>
</g>
</g>
<!-- Node2&#45;&gt;Node31 -->
<g id="edge40" class="edge">
<title>Node2&#45;&gt;Node31</title>
<path fill="none" stroke="midnightblue" d="M1853.23,-392.25C1856.02,-391.82 1858.78,-391.41 1861.5,-391 1974.7,-374.09 2003.66,-374.16 2116.5,-355 2123.68,-353.78 2131.24,-352.4 2138.66,-350.98"/>
<polygon fill="midnightblue" stroke="midnightblue" points="2139.5,-354.38 2148.65,-349.03 2138.16,-347.51 2139.5,-354.38"/>
</g>
<!-- Node32 -->
<g id="node32" class="node">
<title>Node32</title>
<g id="a_node32"><a xlink:title=" ">
<polygon fill="none" stroke="#bfbfbf" points="2272,-330 2272,-349 2409,-349 2409,-330 2272,-330"/>
<text text-anchor="middle" x="2340.5" y="-337" font-family="Helvetica,sans-Serif" font-size="10.00">yarp/dev/IEncodersTimed.h</text>
</a>
</g>
</g>
<!-- Node2&#45;&gt;Node32 -->
<g id="edge41" class="edge">
<title>Node2&#45;&gt;Node32</title>
<path fill="none" stroke="midnightblue" d="M1853.2,-392.06C1856,-391.69 1858.77,-391.34 1861.5,-391 2039.09,-369.06 2085.23,-379.38 2262.5,-355 2270.93,-353.84 2279.84,-352.39 2288.51,-350.87"/>
<polygon fill="midnightblue" stroke="midnightblue" points="2289.3,-354.28 2298.52,-349.06 2288.05,-347.39 2289.3,-354.28"/>
</g>
<!-- Node33 -->
<g id="node33" class="node">
<title>Node33</title>
<g id="a_node33"><a xlink:title=" ">
<polygon fill="none" stroke="#bfbfbf" points="2427.5,-330 2427.5,-349 2531.5,-349 2531.5,-330 2427.5,-330"/>
<text text-anchor="middle" x="2479.5" y="-337" font-family="Helvetica,sans-Serif" font-size="10.00">yarp/dev/IAxisInfo.h</text>
</a>
</g>
</g>
<!-- Node2&#45;&gt;Node33 -->
<g id="edge42" class="edge">
<title>Node2&#45;&gt;Node33</title>
<path fill="none" stroke="midnightblue" d="M1853.19,-391.98C1855.99,-391.63 1858.77,-391.3 1861.5,-391 2108.06,-363.66 2173.18,-391.82 2418.5,-355 2424.86,-354.05 2431.53,-352.76 2438.03,-351.35"/>
<polygon fill="midnightblue" stroke="midnightblue" points="2439.07,-354.7 2448.04,-349.05 2437.51,-347.88 2439.07,-354.7"/>
</g>
<!-- Node34 -->
<g id="node34" class="node">
<title>Node34</title>
<g id="a_node34"><a xlink:title=" ">
<polygon fill="none" stroke="#bfbfbf" points="2549.5,-330 2549.5,-349 2593.5,-349 2593.5,-330 2549.5,-330"/>
<text text-anchor="middle" x="2571.5" y="-337" font-family="Helvetica,sans-Serif" font-size="10.00">cmath</text>
</a>
</g>
</g>
<!-- Node2&#45;&gt;Node34 -->
<g id="edge43" class="edge">
<title>Node2&#45;&gt;Node34</title>
<path fill="none" stroke="midnightblue" d="M1853.19,-391.93C1855.99,-391.6 1858.77,-391.29 1861.5,-391 2162.05,-359.43 2247.34,-428.37 2540.5,-355 2542.49,-354.5 2544.5,-353.88 2546.5,-353.16"/>
<polygon fill="midnightblue" stroke="midnightblue" points="2548.31,-356.2 2556.16,-349.09 2545.59,-349.75 2548.31,-356.2"/>
</g>
<!-- Node35 -->
<g id="node35" class="node">
<title>Node35</title>
<g id="a_node35"><a xlink:title=" ">
<polygon fill="none" stroke="#bfbfbf" points="2611.5,-330 2611.5,-349 2641.5,-349 2641.5,-330 2611.5,-330"/>
<text text-anchor="middle" x="2626.5" y="-337" font-family="Helvetica,sans-Serif" font-size="10.00">set</text>
</a>
</g>
</g>
<!-- Node2&#45;&gt;Node35 -->
<g id="edge44" class="edge">
<title>Node2&#45;&gt;Node35</title>
<path fill="none" stroke="midnightblue" d="M1853.19,-391.92C1855.99,-391.59 1858.77,-391.28 1861.5,-391 2025.5,-374.14 2444.81,-403.09 2602.5,-355 2603.57,-354.67 2604.64,-354.29 2605.71,-353.86"/>
<polygon fill="midnightblue" stroke="midnightblue" points="2607.58,-356.83 2614.85,-349.12 2604.36,-350.62 2607.58,-356.83"/>
</g>
<!-- Node36 -->
<g id="node36" class="node">
<title>Node36</title>
<g id="a_node36"><a xlink:title=" ">
<polygon fill="none" stroke="#bfbfbf" points="2659.5,-330 2659.5,-349 2715.5,-349 2715.5,-330 2659.5,-330"/>
<text text-anchor="middle" x="2687.5" y="-337" font-family="Helvetica,sans-Serif" font-size="10.00">algorithm</text>
</a>
</g>
</g>
<!-- Node2&#45;&gt;Node36 -->
<g id="edge45" class="edge">
<title>Node2&#45;&gt;Node36</title>
<path fill="none" stroke="midnightblue" d="M1853.19,-391.91C1855.99,-391.58 1858.77,-391.28 1861.5,-391 2210.74,-355.62 2307.15,-428.02 2650.5,-355 2653.51,-354.36 2656.59,-353.5 2659.63,-352.53"/>
<polygon fill="midnightblue" stroke="midnightblue" points="2660.84,-355.81 2669.04,-349.1 2658.45,-349.23 2660.84,-355.81"/>
</g>
<!-- Node4 -->
<g id="node4" class="node">
<title>Node4</title>
<g id="a_node4"><a xlink:title=" ">
<polygon fill="none" stroke="#bfbfbf" points="914,-62 914,-81 973,-81 973,-62 914,-62"/>
<text text-anchor="middle" x="943.5" y="-69" font-family="Helvetica,sans-Serif" font-size="10.00">functional</text>
</a>
</g>
</g>
<!-- Node3&#45;&gt;Node4 -->
<g id="edge3" class="edge">
<title>Node3&#45;&gt;Node4</title>
<path fill="none" stroke="midnightblue" d="M669.26,-331.63C744.54,-320.8 852.25,-292.89 912.5,-221 944,-183.41 946.08,-121.94 944.87,-91.21"/>
<polygon fill="midnightblue" stroke="midnightblue" points="948.35,-90.84 944.3,-81.06 941.36,-91.24 948.35,-90.84"/>
</g>
<!-- Node5 -->
<g id="node5" class="node">
<title>Node5</title>
<g id="a_node5"><a xlink:title=" ">
<polygon fill="none" stroke="#bfbfbf" points="410.5,-62 410.5,-81 462.5,-81 462.5,-62 410.5,-62"/>
<text text-anchor="middle" x="436.5" y="-69" font-family="Helvetica,sans-Serif" font-size="10.00">memory</text>
</a>
</g>
</g>
<!-- Node3&#45;&gt;Node5 -->
<g id="edge4" class="edge">
<title>Node3&#45;&gt;Node5</title>
<path fill="none" stroke="midnightblue" d="M501.96,-324.61C442.43,-309.88 366.48,-280.13 328.5,-221 295.58,-169.76 371.95,-112.29 412.82,-86.43"/>
<polygon fill="midnightblue" stroke="midnightblue" points="414.75,-89.35 421.42,-81.12 411.07,-83.4 414.75,-89.35"/>
</g>
<!-- Node6 -->
<g id="node6" class="node">
<title>Node6</title>
<g id="a_node6"><a xlink:title=" ">
<polygon fill="none" stroke="#bfbfbf" points="853.5,-196 853.5,-215 903.5,-215 903.5,-196 853.5,-196"/>
<text text-anchor="middle" x="878.5" y="-203" font-family="Helvetica,sans-Serif" font-size="10.00">optional</text>
</a>
</g>
</g>
<!-- Node3&#45;&gt;Node6 -->
<g id="edge5" class="edge">
<title>Node3&#45;&gt;Node6</title>
<path fill="none" stroke="midnightblue" d="M616.58,-324.5C673.82,-298.71 795.09,-244.08 850.19,-219.25"/>
<polygon fill="midnightblue" stroke="midnightblue" points="851.69,-222.42 859.37,-215.12 848.82,-216.03 851.69,-222.42"/>
</g>
<!-- Node7 -->
<g id="node7" class="node">
<title>Node7</title>
<g id="a_node7"><a xlink:title=" ">
<polygon fill="none" stroke="#bfbfbf" points="0,-263 0,-282 127,-282 127,-263 0,-263"/>
<text text-anchor="middle" x="63.5" y="-270" font-family="Helvetica,sans-Serif" font-size="10.00">yarp/dev/PolyDriverList.h</text>
</a>
</g>
</g>
<!-- Node3&#45;&gt;Node7 -->
<g id="edge6" class="edge">
<title>Node3&#45;&gt;Node7</title>
<path fill="none" stroke="midnightblue" d="M501.64,-331.19C411.23,-322.82 263.24,-307.68 136.5,-288 128.95,-286.83 121,-285.42 113.23,-283.96"/>
<polygon fill="midnightblue" stroke="midnightblue" points="113.66,-280.48 103.17,-282.01 112.33,-287.35 113.66,-280.48"/>
</g>
<!-- Node8 -->
<g id="node8" class="node">
<title>Node8</title>
<g id="a_node8"><a xlink:href="Advanceable_8h.html" target="_top" xlink:title=" ">
<polygon fill="none" stroke="black" points="145.5,-257.5 145.5,-287.5 281.5,-287.5 281.5,-257.5 145.5,-257.5"/>
<text text-anchor="start" x="153.5" y="-275.5" font-family="Helvetica,sans-Serif" font-size="10.00">BipedalLocomotion/System</text>
<text text-anchor="middle" x="213.5" y="-264.5" font-family="Helvetica,sans-Serif" font-size="10.00">/Advanceable.h</text>
</a>
</g>
</g>
<!-- Node3&#45;&gt;Node8 -->
<g id="edge7" class="edge">
<title>Node3&#45;&gt;Node8</title>
<path fill="none" stroke="midnightblue" d="M504.55,-324.46C446.38,-314.36 366.1,-300.39 295.5,-288 294.22,-287.78 292.93,-287.55 291.62,-287.32"/>
<polygon fill="midnightblue" stroke="midnightblue" points="291.97,-283.83 281.51,-285.54 290.75,-290.72 291.97,-283.83"/>
</g>
<!-- Node9 -->
<g id="node9" class="node">
<title>Node9</title>
<g id="a_node9"><a xlink:href="ISensorBridge_8h.html" target="_top" xlink:title=" ">
<polygon fill="none" stroke="black" points="502,-257.5 502,-287.5 669,-287.5 669,-257.5 502,-257.5"/>
<text text-anchor="start" x="510" y="-275.5" font-family="Helvetica,sans-Serif" font-size="10.00">BipedalLocomotion/RobotInterface</text>
<text text-anchor="middle" x="585.5" y="-264.5" font-family="Helvetica,sans-Serif" font-size="10.00">/ISensorBridge.h</text>
</a>
</g>
</g>
<!-- Node3&#45;&gt;Node9 -->
<g id="edge8" class="edge">
<title>Node3&#45;&gt;Node9</title>
<path fill="none" stroke="midnightblue" d="M585.5,-324.4C585.5,-316.64 585.5,-306.81 585.5,-297.86"/>
<polygon fill="midnightblue" stroke="midnightblue" points="589,-297.58 585.5,-287.58 582,-297.58 589,-297.58"/>
</g>
<!-- Node9&#45;&gt;Node4 -->
<g id="edge9" class="edge">
<title>Node9&#45;&gt;Node4</title>
<path fill="none" stroke="midnightblue" d="M669.24,-257.67C721.52,-248.03 783.17,-234.52 806.5,-221 836.58,-203.57 902.2,-124.11 930.3,-89.13"/>
<polygon fill="midnightblue" stroke="midnightblue" points="933.09,-91.25 936.59,-81.25 927.62,-86.88 933.09,-91.25"/>
</g>
<!-- Node9&#45;&gt;Node5 -->
<g id="edge10" class="edge">
<title>Node9&#45;&gt;Node5</title>
<path fill="none" stroke="midnightblue" d="M546.45,-257.42C528.29,-249.19 507.64,-237.2 493.5,-221 459.85,-182.44 445.05,-121.89 439.44,-91.39"/>
<polygon fill="midnightblue" stroke="midnightblue" points="442.85,-90.55 437.72,-81.28 435.95,-91.73 442.85,-90.55"/>
</g>
<!-- Node9&#45;&gt;Node6 -->
<g id="edge11" class="edge">
<title>Node9&#45;&gt;Node6</title>
<path fill="none" stroke="midnightblue" d="M669.23,-258.32C719.14,-249.61 783.48,-236.87 839.5,-221 842.15,-220.25 844.87,-219.4 847.58,-218.5"/>
<polygon fill="midnightblue" stroke="midnightblue" points="848.98,-221.72 857.25,-215.1 846.65,-215.12 848.98,-221.72"/>
</g>
<!-- Node10 -->
<g id="node10" class="node">
<title>Node10</title>
<g id="a_node10"><a xlink:title=" ">
<polygon fill="none" stroke="#bfbfbf" points="540,-129 540,-148 581,-148 581,-129 540,-129"/>
<text text-anchor="middle" x="560.5" y="-136" font-family="Helvetica,sans-Serif" font-size="10.00">string</text>
</a>
</g>
</g>
<!-- Node9&#45;&gt;Node10 -->
<g id="edge12" class="edge">
<title>Node9&#45;&gt;Node10</title>
<path fill="none" stroke="midnightblue" d="M591.76,-257.32C598.15,-240.79 606.13,-212.83 598.5,-190 594.19,-177.09 585.13,-164.84 576.94,-155.63"/>
<polygon fill="midnightblue" stroke="midnightblue" points="579.24,-152.97 569.83,-148.11 574.16,-157.78 579.24,-152.97"/>
</g>
<!-- Node11 -->
<g id="node11" class="node">
<title>Node11</title>
<g id="a_node11"><a xlink:title=" ">
<polygon fill="none" stroke="#bfbfbf" points="338,-196 338,-215 421,-215 421,-196 338,-196"/>
<text text-anchor="middle" x="379.5" y="-203" font-family="Helvetica,sans-Serif" font-size="10.00">unordered_map</text>
</a>
</g>
</g>
<!-- Node9&#45;&gt;Node11 -->
<g id="edge13" class="edge">
<title>Node9&#45;&gt;Node11</title>
<path fill="none" stroke="midnightblue" d="M541.05,-257.48C503.81,-245.72 451.26,-229.14 416.33,-218.12"/>
<polygon fill="midnightblue" stroke="midnightblue" points="417.12,-214.7 406.53,-215.03 415.01,-221.38 417.12,-214.7"/>
</g>
<!-- Node12 -->
<g id="node12" class="node">
<title>Node12</title>
<g id="a_node12"><a xlink:title=" ">
<polygon fill="none" stroke="#bfbfbf" points="477.5,-129 477.5,-148 521.5,-148 521.5,-129 477.5,-129"/>
<text text-anchor="middle" x="499.5" y="-136" font-family="Helvetica,sans-Serif" font-size="10.00">vector</text>
</a>
</g>
</g>
<!-- Node9&#45;&gt;Node12 -->
<g id="edge14" class="edge">
<title>Node9&#45;&gt;Node12</title>
<path fill="none" stroke="midnightblue" d="M550.57,-257.47C534.75,-249.26 517.4,-237.26 507.5,-221 495.91,-201.98 495.51,-175.71 496.95,-158.19"/>
<polygon fill="midnightblue" stroke="midnightblue" points="500.44,-158.43 498.05,-148.11 493.48,-157.67 500.44,-158.43"/>
</g>
<!-- Node13 -->
<g id="node13" class="node">
<title>Node13</title>
<g id="a_node13"><a xlink:title=" ">
<polygon fill="none" stroke="#bfbfbf" points="516,-196 516,-215 589,-215 589,-196 516,-196"/>
<text text-anchor="middle" x="552.5" y="-203" font-family="Helvetica,sans-Serif" font-size="10.00">Eigen/Dense</text>
</a>
</g>
</g>
<!-- Node9&#45;&gt;Node13 -->
<g id="edge15" class="edge">
<title>Node9&#45;&gt;Node13</title>
<path fill="none" stroke="midnightblue" d="M578.34,-257.4C573.4,-247.66 566.79,-234.65 561.49,-224.21"/>
<polygon fill="midnightblue" stroke="midnightblue" points="564.56,-222.53 556.91,-215.19 558.32,-225.7 564.56,-222.53"/>
</g>
<!-- Node14 -->
<g id="node14" class="node">
<title>Node14</title>
<g id="a_node14"><a xlink:href="IParametersHandler_8h.html" target="_top" xlink:title=" ">
<polygon fill="none" stroke="black" points="645.5,-190.5 645.5,-220.5 797.5,-220.5 797.5,-190.5 645.5,-190.5"/>
<text text-anchor="start" x="653.5" y="-208.5" font-family="Helvetica,sans-Serif" font-size="10.00">BipedalLocomotion/Parameters</text>
<text text-anchor="middle" x="721.5" y="-197.5" font-family="Helvetica,sans-Serif" font-size="10.00">Handler/IParametersHandler.h</text>
</a>
</g>
</g>
<!-- Node9&#45;&gt;Node14 -->
<g id="edge16" class="edge">
<title>Node9&#45;&gt;Node14</title>
<path fill="none" stroke="midnightblue" d="M615.01,-257.4C634.88,-247.9 661.29,-235.28 682.84,-224.98"/>
<polygon fill="midnightblue" stroke="midnightblue" points="684.53,-228.05 692.05,-220.58 681.52,-221.73 684.53,-228.05"/>
</g>
<!-- Node14&#45;&gt;Node5 -->
<g id="edge17" class="edge">
<title>Node14&#45;&gt;Node5</title>
<path fill="none" stroke="midnightblue" d="M688.87,-190.48C669.16,-181.35 643.98,-168.47 623.5,-154 607.06,-142.39 607.91,-133.09 590.5,-123 543.06,-95.51 524.2,-105.26 472.5,-87 470.59,-86.33 468.64,-85.61 466.68,-84.88"/>
<polygon fill="midnightblue" stroke="midnightblue" points="467.53,-81.45 456.94,-81.09 465,-87.98 467.53,-81.45"/>
</g>
<!-- Node14&#45;&gt;Node10 -->
<g id="edge18" class="edge">
<title>Node14&#45;&gt;Node10</title>
<path fill="none" stroke="midnightblue" d="M686.15,-190.46C660.87,-180.39 626.05,-166.45 595.5,-154 593.91,-153.35 592.28,-152.68 590.63,-152.01"/>
<polygon fill="midnightblue" stroke="midnightblue" points="591.79,-148.7 581.21,-148.13 589.12,-155.17 591.79,-148.7"/>
</g>
<!-- Node14&#45;&gt;Node12 -->
<g id="edge19" class="edge">
<title>Node14&#45;&gt;Node12</title>
<path fill="none" stroke="midnightblue" d="M658.23,-190.47C620.89,-181.5 572.97,-168.79 531.5,-154 529.84,-153.41 528.15,-152.77 526.45,-152.09"/>
<polygon fill="midnightblue" stroke="midnightblue" points="527.46,-148.72 516.89,-148.01 524.71,-155.15 527.46,-148.72"/>
</g>
<!-- Node14&#45;&gt;Node15 -->
<g id="edge20" class="edge">
<title>Node14&#45;&gt;Node15</title>
<path fill="none" stroke="midnightblue" d="M726.27,-190.4C728.95,-182.47 732.37,-172.38 735.45,-163.27"/>
<polygon fill="midnightblue" stroke="midnightblue" points="738.84,-164.17 738.74,-153.58 732.21,-161.93 738.84,-164.17"/>
</g>
<!-- Node17 -->
<g id="node17" class="node">
<title>Node17</title>
<g id="a_node17"><a xlink:href="TemplateHelpers_8h_source.html" target="_top" xlink:title=" ">
<polygon fill="none" stroke="black" points="481,-56.5 481,-86.5 624,-86.5 624,-56.5 481,-56.5"/>
<text text-anchor="start" x="489" y="-74.5" font-family="Helvetica,sans-Serif" font-size="10.00">BipedalLocomotion/Generic</text>
<text text-anchor="middle" x="552.5" y="-63.5" font-family="Helvetica,sans-Serif" font-size="10.00">Container/TemplateHelpers.h</text>
</a>
</g>
</g>
<!-- Node14&#45;&gt;Node17 -->
<g id="edge30" class="edge">
<title>Node14&#45;&gt;Node17</title>
<path fill="none" stroke="midnightblue" d="M705.16,-190.27C685.96,-173.69 652.96,-145.68 623.5,-123 610.06,-112.66 594.77,-101.68 581.83,-92.62"/>
<polygon fill="midnightblue" stroke="midnightblue" points="583.51,-89.52 573.3,-86.68 579.51,-95.27 583.51,-89.52"/>
</g>
<!-- Node15&#45;&gt;Node4 -->
<g id="edge26" class="edge">
<title>Node15&#45;&gt;Node4</title>
<path fill="none" stroke="midnightblue" d="M791.25,-123.47C823.65,-113.74 867.36,-100.21 905.5,-87 907.75,-86.22 910.07,-85.39 912.4,-84.55"/>
<polygon fill="midnightblue" stroke="midnightblue" points="913.73,-87.79 921.88,-81.02 911.29,-81.23 913.73,-87.79"/>
</g>
<!-- Node15&#45;&gt;Node5 -->
<g id="edge29" class="edge">
<title>Node15&#45;&gt;Node5</title>
<path fill="none" stroke="midnightblue" d="M675.25,-128.62C619.91,-120.51 540.27,-106.75 472.5,-87 470.07,-86.29 467.57,-85.48 465.08,-84.6"/>
<polygon fill="midnightblue" stroke="midnightblue" points="466.27,-81.31 455.68,-81.05 463.79,-87.86 466.27,-81.31"/>
</g>
<!-- Node16 -->
<g id="node16" class="node">
<title>Node16</title>
<g id="a_node16"><a xlink:title=" ">
<polygon fill="none" stroke="#bfbfbf" points="714.5,-62 714.5,-81 828.5,-81 828.5,-62 714.5,-62"/>
<text text-anchor="middle" x="771.5" y="-69" font-family="Helvetica,sans-Serif" font-size="10.00">iDynTree/Core/Span.h</text>
</a>
</g>
</g>
<!-- Node15&#45;&gt;Node16 -->
<g id="edge21" class="edge">
<title>Node15&#45;&gt;Node16</title>
<path fill="none" stroke="midnightblue" d="M749.58,-123.4C753.73,-113.76 759.26,-100.91 763.73,-90.54"/>
<polygon fill="midnightblue" stroke="midnightblue" points="767.01,-91.76 767.75,-81.19 760.58,-88.99 767.01,-91.76"/>
</g>
<!-- Node15&#45;&gt;Node17 -->
<g id="edge22" class="edge">
<title>Node15&#45;&gt;Node17</title>
<path fill="none" stroke="midnightblue" d="M702.06,-123.4C673.15,-113.56 634.39,-100.37 603.57,-89.88"/>
<polygon fill="midnightblue" stroke="midnightblue" points="604.46,-86.48 593.86,-86.58 602.2,-93.11 604.46,-86.48"/>
</g>
<!-- Node21 -->
<g id="node21" class="node">
<title>Node21</title>
<g id="a_node21"><a xlink:title=" ">
<polygon fill="none" stroke="#bfbfbf" points="847,-62 847,-81 896,-81 896,-62 847,-62"/>
<text text-anchor="middle" x="871.5" y="-69" font-family="Helvetica,sans-Serif" font-size="10.00">cassert</text>
</a>
</g>
</g>
<!-- Node15&#45;&gt;Node21 -->
<g id="edge27" class="edge">
<title>Node15&#45;&gt;Node21</title>
<path fill="none" stroke="midnightblue" d="M771.27,-123.4C793.44,-112.14 824.24,-96.5 845.83,-85.54"/>
<polygon fill="midnightblue" stroke="midnightblue" points="847.42,-88.66 854.75,-81.01 844.25,-82.41 847.42,-88.66"/>
</g>
<!-- Node22 -->
<g id="node22" class="node">
<title>Node22</title>
<g id="a_node22"><a xlink:title=" ">
<polygon fill="none" stroke="#bfbfbf" points="642.5,-62 642.5,-81 696.5,-81 696.5,-62 642.5,-62"/>
<text text-anchor="middle" x="669.5" y="-69" font-family="Helvetica,sans-Serif" font-size="10.00">iostream</text>
</a>
</g>
</g>
<!-- Node15&#45;&gt;Node22 -->
<g id="edge28" class="edge">
<title>Node15&#45;&gt;Node22</title>
<path fill="none" stroke="midnightblue" d="M727.44,-123.4C715.56,-112.96 699.39,-98.75 687.14,-88"/>
<polygon fill="midnightblue" stroke="midnightblue" points="689.22,-85.16 679.4,-81.19 684.6,-90.42 689.22,-85.16"/>
</g>
<!-- Node18 -->
<g id="node18" class="node">
<title>Node18</title>
<g id="a_node18"><a xlink:title=" ">
<polygon fill="none" stroke="#bfbfbf" points="439.5,-0.5 439.5,-19.5 501.5,-19.5 501.5,-0.5 439.5,-0.5"/>
<text text-anchor="middle" x="470.5" y="-7.5" font-family="Helvetica,sans-Serif" font-size="10.00">type_traits</text>
</a>
</g>
</g>
<!-- Node17&#45;&gt;Node18 -->
<g id="edge23" class="edge">
<title>Node17&#45;&gt;Node18</title>
<path fill="none" stroke="midnightblue" d="M533.07,-56.4C520.29,-47.13 503.61,-35.03 490.69,-25.65"/>
<polygon fill="midnightblue" stroke="midnightblue" points="492.58,-22.7 482.43,-19.66 488.47,-28.36 492.58,-22.7"/>
</g>
<!-- Node19 -->
<g id="node19" class="node">
<title>Node19</title>
<g id="a_node19"><a xlink:title=" ">
<polygon fill="none" stroke="#bfbfbf" points="519.5,-0.5 519.5,-19.5 585.5,-19.5 585.5,-0.5 519.5,-0.5"/>
<text text-anchor="middle" x="552.5" y="-7.5" font-family="Helvetica,sans-Serif" font-size="10.00">string_view</text>
</a>
</g>
</g>
<!-- Node17&#45;&gt;Node19 -->
<g id="edge24" class="edge">
<title>Node17&#45;&gt;Node19</title>
<path fill="none" stroke="midnightblue" d="M552.5,-56.4C552.5,-48.47 552.5,-38.46 552.5,-29.86"/>
<polygon fill="midnightblue" stroke="midnightblue" points="556,-29.66 552.5,-19.66 549,-29.66 556,-29.66"/>
</g>
<!-- Node20 -->
<g id="node20" class="node">
<title>Node20</title>
<g id="a_node20"><a xlink:title=" ">
<polygon fill="none" stroke="#bfbfbf" points="604,-0.5 604,-19.5 669,-19.5 669,-0.5 604,-0.5"/>
<text text-anchor="middle" x="636.5" y="-7.5" font-family="Helvetica,sans-Serif" font-size="10.00">Eigen/Core</text>
</a>
</g>
</g>
<!-- Node17&#45;&gt;Node20 -->
<g id="edge25" class="edge">
<title>Node17&#45;&gt;Node20</title>
<path fill="none" stroke="midnightblue" d="M572.41,-56.4C585.49,-47.13 602.58,-35.03 615.82,-25.65"/>
<polygon fill="midnightblue" stroke="midnightblue" points="618.14,-28.29 624.28,-19.66 614.09,-22.58 618.14,-28.29"/>
</g>
</g>
</svg>
