<?xml version="1.0" encoding="UTF-8" standalone="no"?>
<!DOCTYPE svg PUBLIC "-//W3C//DTD SVG 1.1//EN"
 "http://www.w3.org/Graphics/SVG/1.1/DTD/svg11.dtd">
<!-- Generated by graphviz version 2.43.0 (0)
 -->
<!-- Title: ParametersHandler/YarpImplementation/include/BipedalLocomotion/ParametersHandler/YarpImplementation.tpp Pages: 1 -->
<svg width="1409pt" height="374pt"
 viewBox="0.00 0.00 1408.50 374.00" xmlns="http://www.w3.org/2000/svg" xmlns:xlink="http://www.w3.org/1999/xlink">
<g id="graph0" class="graph" transform="scale(1 1) rotate(0) translate(4 370)">
<title>ParametersHandler/YarpImplementation/include/BipedalLocomotion/ParametersHandler/YarpImplementation.tpp</title>
<!-- Node1 -->
<g id="node1" class="node">
<title>Node1</title>
<g id="a_node1"><a xlink:title=" ">
<polygon fill="#bfbfbf" stroke="black" points="644.5,-324.5 644.5,-365.5 867.5,-365.5 867.5,-324.5 644.5,-324.5"/>
<text text-anchor="start" x="652.5" y="-353.5" font-family="Helvetica,sans-Serif" font-size="10.00">ParametersHandler/YarpImplementation</text>
<text text-anchor="start" x="652.5" y="-342.5" font-family="Helvetica,sans-Serif" font-size="10.00">/include/BipedalLocomotion/ParametersHandler</text>
<text text-anchor="middle" x="756" y="-331.5" font-family="Helvetica,sans-Serif" font-size="10.00">/YarpImplementation.tpp</text>
</a>
</g>
</g>
<!-- Node2 -->
<g id="node2" class="node">
<title>Node2</title>
<g id="a_node2"><a xlink:title=" ">
<polygon fill="none" stroke="#bfbfbf" points="389,-0.5 389,-19.5 451,-19.5 451,-0.5 389,-0.5"/>
<text text-anchor="middle" x="420" y="-7.5" font-family="Helvetica,sans-Serif" font-size="10.00">type_traits</text>
</a>
</g>
</g>
<!-- Node1&#45;&gt;Node2 -->
<g id="edge1" class="edge">
<title>Node1&#45;&gt;Node2</title>
<path fill="none" stroke="midnightblue" d="M644.45,-335.1C434.16,-316.8 0,-271.2 0,-206.5 0,-206.5 0,-206.5 0,-137.5 0,-58.92 272.96,-24.82 378.78,-14.56"/>
<polygon fill="midnightblue" stroke="midnightblue" points="379.15,-18.04 388.77,-13.61 378.49,-11.07 379.15,-18.04"/>
</g>
<!-- Node3 -->
<g id="node3" class="node">
<title>Node3</title>
<g id="a_node3"><a xlink:href="Helper_8h.html" target="_top" xlink:title=" ">
<polygon fill="none" stroke="black" points="436.5,-257.5 436.5,-287.5 591.5,-287.5 591.5,-257.5 436.5,-257.5"/>
<text text-anchor="start" x="444.5" y="-275.5" font-family="Helvetica,sans-Serif" font-size="10.00">BipedalLocomotion/YarpUtilities</text>
<text text-anchor="middle" x="514" y="-264.5" font-family="Helvetica,sans-Serif" font-size="10.00">/Helper.h</text>
</a>
</g>
</g>
<!-- Node1&#45;&gt;Node3 -->
<g id="edge2" class="edge">
<title>Node1&#45;&gt;Node3</title>
<path fill="none" stroke="midnightblue" d="M688.91,-324.46C652.22,-313.77 607.2,-300.65 572.03,-290.41"/>
<polygon fill="midnightblue" stroke="midnightblue" points="572.97,-287.03 562.39,-287.6 571.01,-293.75 572.97,-287.03"/>
</g>
<!-- Node21 -->
<g id="node21" class="node">
<title>Node21</title>
<g id="a_node21"><a xlink:href="YarpImplementation_8h.html" target="_top" xlink:title=" ">
<polygon fill="none" stroke="black" points="922,-257.5 922,-287.5 1074,-287.5 1074,-257.5 922,-257.5"/>
<text text-anchor="start" x="930" y="-275.5" font-family="Helvetica,sans-Serif" font-size="10.00">BipedalLocomotion/Parameters</text>
<text text-anchor="middle" x="998" y="-264.5" font-family="Helvetica,sans-Serif" font-size="10.00">Handler/YarpImplementation.h</text>
</a>
</g>
</g>
<!-- Node1&#45;&gt;Node21 -->
<g id="edge24" class="edge">
<title>Node1&#45;&gt;Node21</title>
<path fill="none" stroke="midnightblue" d="M816.97,-324.46C852.75,-313.77 897.84,-300.65 934.11,-290.41"/>
<polygon fill="midnightblue" stroke="midnightblue" points="935.41,-293.68 944.08,-287.6 933.51,-286.94 935.41,-293.68"/>
</g>
<!-- Node4 -->
<g id="node4" class="node">
<title>Node4</title>
<g id="a_node4"><a xlink:title=" ">
<polygon fill="none" stroke="#bfbfbf" points="492.5,-196 492.5,-215 535.5,-215 535.5,-196 492.5,-196"/>
<text text-anchor="middle" x="514" y="-203" font-family="Helvetica,sans-Serif" font-size="10.00">deque</text>
</a>
</g>
</g>
<!-- Node3&#45;&gt;Node4 -->
<g id="edge3" class="edge">
<title>Node3&#45;&gt;Node4</title>
<path fill="none" stroke="midnightblue" d="M514,-257.4C514,-248.06 514,-235.71 514,-225.52"/>
<polygon fill="midnightblue" stroke="midnightblue" points="517.5,-225.19 514,-215.19 510.5,-225.19 517.5,-225.19"/>
</g>
<!-- Node5 -->
<g id="node5" class="node">
<title>Node5</title>
<g id="a_node5"><a xlink:title=" ">
<polygon fill="none" stroke="#bfbfbf" points="881,-129 881,-148 925,-148 925,-129 881,-129"/>
<text text-anchor="middle" x="903" y="-136" font-family="Helvetica,sans-Serif" font-size="10.00">vector</text>
</a>
</g>
</g>
<!-- Node3&#45;&gt;Node5 -->
<g id="edge4" class="edge">
<title>Node3&#45;&gt;Node5</title>
<path fill="none" stroke="midnightblue" d="M521.64,-257.22C532.53,-238.38 554.44,-205.77 583,-190 682.81,-134.88 724.8,-174.25 837,-154 848.11,-151.99 860.2,-149.45 870.95,-147.05"/>
<polygon fill="midnightblue" stroke="midnightblue" points="871.81,-150.45 880.78,-144.82 870.26,-143.62 871.81,-150.45"/>
</g>
<!-- Node6 -->
<g id="node6" class="node">
<title>Node6</title>
<g id="a_node6"><a xlink:title=" ">
<polygon fill="none" stroke="#bfbfbf" points="592.5,-196 592.5,-215 707.5,-215 707.5,-196 592.5,-196"/>
<text text-anchor="middle" x="650" y="-203" font-family="Helvetica,sans-Serif" font-size="10.00">yarp/os/BufferedPort.h</text>
</a>
</g>
</g>
<!-- Node3&#45;&gt;Node6 -->
<g id="edge5" class="edge">
<title>Node3&#45;&gt;Node6</title>
<path fill="none" stroke="midnightblue" d="M543.51,-257.4C567.16,-246.09 600.08,-230.36 623.03,-219.39"/>
<polygon fill="midnightblue" stroke="midnightblue" points="624.69,-222.48 632.2,-215.01 621.67,-216.16 624.69,-222.48"/>
</g>
<!-- Node7 -->
<g id="node7" class="node">
<title>Node7</title>
<g id="a_node7"><a xlink:title=" ">
<polygon fill="none" stroke="#bfbfbf" points="725.5,-196 725.5,-215 820.5,-215 820.5,-196 725.5,-196"/>
<text text-anchor="middle" x="773" y="-203" font-family="Helvetica,sans-Serif" font-size="10.00">yarp/os/Property.h</text>
</a>
</g>
</g>
<!-- Node3&#45;&gt;Node7 -->
<g id="edge6" class="edge">
<title>Node3&#45;&gt;Node7</title>
<path fill="none" stroke="midnightblue" d="M570.61,-257.41C611.12,-247.32 666.93,-233.38 716,-221 720.41,-219.89 725.01,-218.73 729.59,-217.56"/>
<polygon fill="midnightblue" stroke="midnightblue" points="730.72,-220.89 739.55,-215.03 729,-214.1 730.72,-220.89"/>
</g>
<!-- Node8 -->
<g id="node8" class="node">
<title>Node8</title>
<g id="a_node8"><a xlink:title=" ">
<polygon fill="none" stroke="#bfbfbf" points="28,-196 28,-215 112,-215 112,-196 28,-196"/>
<text text-anchor="middle" x="70" y="-203" font-family="Helvetica,sans-Serif" font-size="10.00">yarp/os/Value.h</text>
</a>
</g>
</g>
<!-- Node3&#45;&gt;Node8 -->
<g id="edge7" class="edge">
<title>Node3&#45;&gt;Node8</title>
<path fill="none" stroke="midnightblue" d="M436.26,-264.96C356.57,-257.45 229.32,-243.23 121,-221 116.46,-220.07 111.74,-218.94 107.08,-217.74"/>
<polygon fill="midnightblue" stroke="midnightblue" points="107.64,-214.26 97.08,-215.01 105.8,-221.02 107.64,-214.26"/>
</g>
<!-- Node9 -->
<g id="node9" class="node">
<title>Node9</title>
<g id="a_node9"><a xlink:title=" ">
<polygon fill="none" stroke="#bfbfbf" points="130,-196 130,-215 220,-215 220,-196 130,-196"/>
<text text-anchor="middle" x="175" y="-203" font-family="Helvetica,sans-Serif" font-size="10.00">yarp/sig/Vector.h</text>
</a>
</g>
</g>
<!-- Node3&#45;&gt;Node9 -->
<g id="edge8" class="edge">
<title>Node3&#45;&gt;Node9</title>
<path fill="none" stroke="midnightblue" d="M436.22,-259.59C378.72,-250.34 298.65,-236.49 229,-221 224.33,-219.96 219.46,-218.79 214.63,-217.56"/>
<polygon fill="midnightblue" stroke="midnightblue" points="215.44,-214.16 204.88,-215.02 213.67,-220.93 215.44,-214.16"/>
</g>
<!-- Node10 -->
<g id="node10" class="node">
<title>Node10</title>
<g id="a_node10"><a xlink:title=" ">
<polygon fill="none" stroke="#bfbfbf" points="238,-196 238,-215 396,-215 396,-196 238,-196"/>
<text text-anchor="middle" x="317" y="-203" font-family="Helvetica,sans-Serif" font-size="10.00">iDynTree/Core/VectorDynSize.h</text>
</a>
</g>
</g>
<!-- Node3&#45;&gt;Node10 -->
<g id="edge9" class="edge">
<title>Node3&#45;&gt;Node10</title>
<path fill="none" stroke="midnightblue" d="M471.25,-257.4C435.77,-245.69 385.89,-229.23 352.56,-218.23"/>
<polygon fill="midnightblue" stroke="midnightblue" points="353.38,-214.82 342.78,-215.01 351.18,-221.46 353.38,-214.82"/>
</g>
<!-- Node11 -->
<g id="node11" class="node">
<title>Node11</title>
<g id="a_node11"><a xlink:href="Helper_8tpp.html" target="_top" xlink:title=" ">
<polygon fill="none" stroke="black" points="413.5,-196 413.5,-215 474.5,-215 474.5,-196 413.5,-196"/>
<text text-anchor="middle" x="444" y="-203" font-family="Helvetica,sans-Serif" font-size="10.00">Helper.tpp</text>
</a>
</g>
</g>
<!-- Node3&#45;&gt;Node11 -->
<g id="edge10" class="edge">
<title>Node3&#45;&gt;Node11</title>
<path fill="none" stroke="midnightblue" d="M498.81,-257.4C487.68,-247.06 472.56,-233.02 461.03,-222.31"/>
<polygon fill="midnightblue" stroke="midnightblue" points="463.07,-219.43 453.36,-215.19 458.31,-224.56 463.07,-219.43"/>
</g>
<!-- Node11&#45;&gt;Node2 -->
<g id="edge12" class="edge">
<title>Node11&#45;&gt;Node2</title>
<path fill="none" stroke="midnightblue" d="M442.94,-195.94C439.32,-166.79 427.44,-70.97 422.35,-29.93"/>
<polygon fill="midnightblue" stroke="midnightblue" points="425.81,-29.4 421.1,-19.91 418.86,-30.26 425.81,-29.4"/>
</g>
<!-- Node12 -->
<g id="node12" class="node">
<title>Node12</title>
<g id="a_node12"><a xlink:title=" ">
<polygon fill="none" stroke="#bfbfbf" points="448,-62 448,-81 502,-81 502,-62 448,-62"/>
<text text-anchor="middle" x="475" y="-69" font-family="Helvetica,sans-Serif" font-size="10.00">iostream</text>
</a>
</g>
</g>
<!-- Node11&#45;&gt;Node12 -->
<g id="edge11" class="edge">
<title>Node11&#45;&gt;Node12</title>
<path fill="none" stroke="midnightblue" d="M446.03,-195.84C451,-174.67 463.86,-119.95 470.65,-91.03"/>
<polygon fill="midnightblue" stroke="midnightblue" points="474.12,-91.56 473,-81.02 467.31,-89.96 474.12,-91.56"/>
</g>
<!-- Node13 -->
<g id="node13" class="node">
<title>Node13</title>
<g id="a_node13"><a xlink:href="TemplateHelpers_8h_source.html" target="_top" xlink:title=" ">
<polygon fill="none" stroke="black" points="796.5,-56.5 796.5,-86.5 939.5,-86.5 939.5,-56.5 796.5,-56.5"/>
<text text-anchor="start" x="804.5" y="-74.5" font-family="Helvetica,sans-Serif" font-size="10.00">BipedalLocomotion/Generic</text>
<text text-anchor="middle" x="868" y="-63.5" font-family="Helvetica,sans-Serif" font-size="10.00">Container/TemplateHelpers.h</text>
</a>
</g>
</g>
<!-- Node11&#45;&gt;Node13 -->
<g id="edge13" class="edge">
<title>Node11&#45;&gt;Node13</title>
<path fill="none" stroke="midnightblue" d="M464.36,-195.9C470.28,-193.68 476.82,-191.5 483,-190 612.64,-158.54 660.1,-210.4 781,-154 809.92,-140.51 835.56,-113.71 851.38,-94.52"/>
<polygon fill="midnightblue" stroke="midnightblue" points="854.23,-96.56 857.74,-86.57 848.76,-92.19 854.23,-96.56"/>
</g>
<!-- Node16 -->
<g id="node16" class="node">
<title>Node16</title>
<g id="a_node16"><a xlink:href="Vector_8h_source.html" target="_top" xlink:title=" ">
<polygon fill="none" stroke="black" points="636,-123.5 636,-153.5 772,-153.5 772,-123.5 636,-123.5"/>
<text text-anchor="start" x="644" y="-141.5" font-family="Helvetica,sans-Serif" font-size="10.00">BipedalLocomotion/Generic</text>
<text text-anchor="middle" x="704" y="-130.5" font-family="Helvetica,sans-Serif" font-size="10.00">Container/Vector.h</text>
</a>
</g>
</g>
<!-- Node11&#45;&gt;Node16 -->
<g id="edge17" class="edge">
<title>Node11&#45;&gt;Node16</title>
<path fill="none" stroke="midnightblue" d="M465.69,-195.86C471.28,-193.79 477.32,-191.7 483,-190 529.78,-176.02 583.12,-163.73 625.67,-154.78"/>
<polygon fill="midnightblue" stroke="midnightblue" points="626.62,-158.16 635.69,-152.69 625.19,-151.31 626.62,-158.16"/>
</g>
<!-- Node13&#45;&gt;Node2 -->
<g id="edge14" class="edge">
<title>Node13&#45;&gt;Node2</title>
<path fill="none" stroke="midnightblue" d="M796.48,-57.48C793.28,-56.96 790.11,-56.47 787,-56 669.21,-38.25 529.34,-22.59 461.3,-15.31"/>
<polygon fill="midnightblue" stroke="midnightblue" points="461.33,-11.8 451.01,-14.22 460.58,-18.76 461.33,-11.8"/>
</g>
<!-- Node14 -->
<g id="node14" class="node">
<title>Node14</title>
<g id="a_node14"><a xlink:title=" ">
<polygon fill="none" stroke="#bfbfbf" points="877,-0.5 877,-19.5 943,-19.5 943,-0.5 877,-0.5"/>
<text text-anchor="middle" x="910" y="-7.5" font-family="Helvetica,sans-Serif" font-size="10.00">string_view</text>
</a>
</g>
</g>
<!-- Node13&#45;&gt;Node14 -->
<g id="edge15" class="edge">
<title>Node13&#45;&gt;Node14</title>
<path fill="none" stroke="midnightblue" d="M877.95,-56.4C883.99,-47.84 891.74,-36.87 898.1,-27.86"/>
<polygon fill="midnightblue" stroke="midnightblue" points="900.98,-29.85 903.89,-19.66 895.26,-25.81 900.98,-29.85"/>
</g>
<!-- Node15 -->
<g id="node15" class="node">
<title>Node15</title>
<g id="a_node15"><a xlink:title=" ">
<polygon fill="none" stroke="#bfbfbf" points="793.5,-0.5 793.5,-19.5 858.5,-19.5 858.5,-0.5 793.5,-0.5"/>
<text text-anchor="middle" x="826" y="-7.5" font-family="Helvetica,sans-Serif" font-size="10.00">Eigen/Core</text>
</a>
</g>
</g>
<!-- Node13&#45;&gt;Node15 -->
<g id="edge16" class="edge">
<title>Node13&#45;&gt;Node15</title>
<path fill="none" stroke="midnightblue" d="M858.05,-56.4C852.01,-47.84 844.26,-36.87 837.9,-27.86"/>
<polygon fill="midnightblue" stroke="midnightblue" points="840.74,-25.81 832.11,-19.66 835.02,-29.85 840.74,-25.81"/>
</g>
<!-- Node16&#45;&gt;Node12 -->
<g id="edge22" class="edge">
<title>Node16&#45;&gt;Node12</title>
<path fill="none" stroke="midnightblue" d="M642.14,-123.43C603.98,-114.24 554.24,-101.3 511,-87 508.87,-86.3 506.68,-85.53 504.49,-84.73"/>
<polygon fill="midnightblue" stroke="midnightblue" points="505.61,-81.41 495.02,-81.09 503.09,-87.94 505.61,-81.41"/>
</g>
<!-- Node16&#45;&gt;Node13 -->
<g id="edge19" class="edge">
<title>Node16&#45;&gt;Node13</title>
<path fill="none" stroke="midnightblue" d="M739.59,-123.4C764.09,-113.69 796.83,-100.71 823.12,-90.29"/>
<polygon fill="midnightblue" stroke="midnightblue" points="824.48,-93.51 832.48,-86.58 821.9,-87.01 824.48,-93.51"/>
</g>
<!-- Node17 -->
<g id="node17" class="node">
<title>Node17</title>
<g id="a_node17"><a xlink:title=" ">
<polygon fill="none" stroke="#bfbfbf" points="520,-62 520,-81 634,-81 634,-62 520,-62"/>
<text text-anchor="middle" x="577" y="-69" font-family="Helvetica,sans-Serif" font-size="10.00">iDynTree/Core/Span.h</text>
</a>
</g>
</g>
<!-- Node16&#45;&gt;Node17 -->
<g id="edge18" class="edge">
<title>Node16&#45;&gt;Node17</title>
<path fill="none" stroke="midnightblue" d="M676.44,-123.4C654.55,-112.19 624.17,-96.64 602.76,-85.69"/>
<polygon fill="midnightblue" stroke="midnightblue" points="604.12,-82.45 593.62,-81.01 600.93,-88.68 604.12,-82.45"/>
</g>
<!-- Node18 -->
<g id="node18" class="node">
<title>Node18</title>
<g id="a_node18"><a xlink:title=" ">
<polygon fill="none" stroke="#bfbfbf" points="652.5,-62 652.5,-81 711.5,-81 711.5,-62 652.5,-62"/>
<text text-anchor="middle" x="682" y="-69" font-family="Helvetica,sans-Serif" font-size="10.00">functional</text>
</a>
</g>
</g>
<!-- Node16&#45;&gt;Node18 -->
<g id="edge20" class="edge">
<title>Node16&#45;&gt;Node18</title>
<path fill="none" stroke="midnightblue" d="M699.23,-123.4C696,-113.86 691.71,-101.18 688.21,-90.86"/>
<polygon fill="midnightblue" stroke="midnightblue" points="691.46,-89.54 684.94,-81.19 684.83,-91.79 691.46,-89.54"/>
</g>
<!-- Node19 -->
<g id="node19" class="node">
<title>Node19</title>
<g id="a_node19"><a xlink:title=" ">
<polygon fill="none" stroke="#bfbfbf" points="729.5,-62 729.5,-81 778.5,-81 778.5,-62 729.5,-62"/>
<text text-anchor="middle" x="754" y="-69" font-family="Helvetica,sans-Serif" font-size="10.00">cassert</text>
</a>
</g>
</g>
<!-- Node16&#45;&gt;Node19 -->
<g id="edge21" class="edge">
<title>Node16&#45;&gt;Node19</title>
<path fill="none" stroke="midnightblue" d="M714.85,-123.4C722.57,-113.36 732.97,-99.84 741.11,-89.25"/>
<polygon fill="midnightblue" stroke="midnightblue" points="743.99,-91.25 747.31,-81.19 738.44,-86.99 743.99,-91.25"/>
</g>
<!-- Node20 -->
<g id="node20" class="node">
<title>Node20</title>
<g id="a_node20"><a xlink:title=" ">
<polygon fill="none" stroke="#bfbfbf" points="1121,-62 1121,-81 1173,-81 1173,-62 1121,-62"/>
<text text-anchor="middle" x="1147" y="-69" font-family="Helvetica,sans-Serif" font-size="10.00">memory</text>
</a>
</g>
</g>
<!-- Node16&#45;&gt;Node20 -->
<g id="edge23" class="edge">
<title>Node16&#45;&gt;Node20</title>
<path fill="none" stroke="midnightblue" d="M772.25,-127.49C867.32,-113.54 1036.29,-88.74 1110.42,-77.87"/>
<polygon fill="midnightblue" stroke="midnightblue" points="1111.26,-81.28 1120.65,-76.37 1110.25,-74.36 1111.26,-81.28"/>
</g>
<!-- Node21&#45;&gt;Node1 -->
<g id="edge37" class="edge">
<title>Node21&#45;&gt;Node1</title>
<path fill="none" stroke="midnightblue" d="M955.14,-287.6C922.99,-297.34 878.07,-310.5 839,-321.66"/>
<polygon fill="midnightblue" stroke="midnightblue" points="837.86,-318.35 829.2,-324.46 839.78,-325.08 837.86,-318.35"/>
</g>
<!-- Node21&#45;&gt;Node7 -->
<g id="edge29" class="edge">
<title>Node21&#45;&gt;Node7</title>
<path fill="none" stroke="midnightblue" d="M949.46,-257.48C908.42,-245.62 850.39,-228.86 812.25,-217.84"/>
<polygon fill="midnightblue" stroke="midnightblue" points="813.1,-214.44 802.52,-215.03 811.16,-221.17 813.1,-214.44"/>
</g>
<!-- Node21&#45;&gt;Node20 -->
<g id="edge25" class="edge">
<title>Node21&#45;&gt;Node20</title>
<path fill="none" stroke="midnightblue" d="M1074.19,-266.57C1139.76,-260.54 1227.18,-247.65 1249,-221 1257.73,-210.34 1265.32,-150.57 1248,-123 1233.73,-100.3 1205.89,-87.44 1183.04,-80.39"/>
<polygon fill="midnightblue" stroke="midnightblue" points="1183.86,-76.98 1173.28,-77.62 1181.95,-83.72 1183.86,-76.98"/>
</g>
<!-- Node22 -->
<g id="node22" class="node">
<title>Node22</title>
<g id="a_node22"><a xlink:title=" ">
<polygon fill="none" stroke="#bfbfbf" points="1197.5,-129 1197.5,-148 1238.5,-148 1238.5,-129 1197.5,-129"/>
<text text-anchor="middle" x="1218" y="-136" font-family="Helvetica,sans-Serif" font-size="10.00">string</text>
</a>
</g>
</g>
<!-- Node21&#45;&gt;Node22 -->
<g id="edge26" class="edge">
<title>Node21&#45;&gt;Node22</title>
<path fill="none" stroke="midnightblue" d="M1074.16,-265.27C1134.68,-258.55 1212.32,-245.38 1232,-221 1246.61,-202.9 1237.12,-175.07 1228.19,-157.08"/>
<polygon fill="midnightblue" stroke="midnightblue" points="1231.24,-155.37 1223.43,-148.21 1225.07,-158.68 1231.24,-155.37"/>
</g>
<!-- Node23 -->
<g id="node23" class="node">
<title>Node23</title>
<g id="a_node23"><a xlink:title=" ">
<polygon fill="none" stroke="#bfbfbf" points="1317.5,-196 1317.5,-215 1400.5,-215 1400.5,-196 1317.5,-196"/>
<text text-anchor="middle" x="1359" y="-203" font-family="Helvetica,sans-Serif" font-size="10.00">unordered_map</text>
</a>
</g>
</g>
<!-- Node21&#45;&gt;Node23 -->
<g id="edge27" class="edge">
<title>Node21&#45;&gt;Node23</title>
<path fill="none" stroke="midnightblue" d="M1074.18,-260.82C1136.1,-251.67 1225.55,-237.4 1303,-221 1307.97,-219.95 1313.16,-218.74 1318.29,-217.49"/>
<polygon fill="midnightblue" stroke="midnightblue" points="1319.17,-220.88 1328.01,-215.05 1317.46,-214.09 1319.17,-220.88"/>
</g>
<!-- Node24 -->
<g id="node24" class="node">
<title>Node24</title>
<g id="a_node24"><a xlink:title=" ">
<polygon fill="none" stroke="#bfbfbf" points="839,-196 839,-215 925,-215 925,-196 839,-196"/>
<text text-anchor="middle" x="882" y="-203" font-family="Helvetica,sans-Serif" font-size="10.00">yarp/os/Bottle.h</text>
</a>
</g>
</g>
<!-- Node21&#45;&gt;Node24 -->
<g id="edge28" class="edge">
<title>Node21&#45;&gt;Node24</title>
<path fill="none" stroke="midnightblue" d="M972.83,-257.4C953.02,-246.29 925.58,-230.92 906.06,-219.98"/>
<polygon fill="midnightblue" stroke="midnightblue" points="907.62,-216.84 897.18,-215.01 904.19,-222.95 907.62,-216.84"/>
</g>
<!-- Node25 -->
<g id="node25" class="node">
<title>Node25</title>
<g id="a_node25"><a xlink:title=" ">
<polygon fill="none" stroke="#bfbfbf" points="943.5,-196 943.5,-215 1052.5,-215 1052.5,-196 943.5,-196"/>
<text text-anchor="middle" x="998" y="-203" font-family="Helvetica,sans-Serif" font-size="10.00">yarp/os/Searchable.h</text>
</a>
</g>
</g>
<!-- Node21&#45;&gt;Node25 -->
<g id="edge30" class="edge">
<title>Node21&#45;&gt;Node25</title>
<path fill="none" stroke="midnightblue" d="M998,-257.4C998,-248.06 998,-235.71 998,-225.52"/>
<polygon fill="midnightblue" stroke="midnightblue" points="1001.5,-225.19 998,-215.19 994.5,-225.19 1001.5,-225.19"/>
</g>
<!-- Node26 -->
<g id="node26" class="node">
<title>Node26</title>
<g id="a_node26"><a xlink:href="IParametersHandler_8h.html" target="_top" xlink:title=" ">
<polygon fill="none" stroke="black" points="1071,-190.5 1071,-220.5 1223,-220.5 1223,-190.5 1071,-190.5"/>
<text text-anchor="start" x="1079" y="-208.5" font-family="Helvetica,sans-Serif" font-size="10.00">BipedalLocomotion/Parameters</text>
<text text-anchor="middle" x="1147" y="-197.5" font-family="Helvetica,sans-Serif" font-size="10.00">Handler/IParametersHandler.h</text>
</a>
</g>
</g>
<!-- Node21&#45;&gt;Node26 -->
<g id="edge31" class="edge">
<title>Node21&#45;&gt;Node26</title>
<path fill="none" stroke="midnightblue" d="M1030.33,-257.4C1052.3,-247.81 1081.56,-235.05 1105.28,-224.7"/>
<polygon fill="midnightblue" stroke="midnightblue" points="1106.97,-227.78 1114.73,-220.58 1104.17,-221.37 1106.97,-227.78"/>
</g>
<!-- Node26&#45;&gt;Node5 -->
<g id="edge34" class="edge">
<title>Node26&#45;&gt;Node5</title>
<path fill="none" stroke="midnightblue" d="M1094.36,-190.48C1045.9,-177.57 975.58,-158.83 935.05,-148.04"/>
<polygon fill="midnightblue" stroke="midnightblue" points="935.75,-144.6 925.18,-145.41 933.94,-151.37 935.75,-144.6"/>
</g>
<!-- Node26&#45;&gt;Node13 -->
<g id="edge36" class="edge">
<title>Node26&#45;&gt;Node13</title>
<path fill="none" stroke="midnightblue" d="M1117.41,-190.5C1066.76,-166.54 963.49,-117.68 907.02,-90.96"/>
<polygon fill="midnightblue" stroke="midnightblue" points="908.25,-87.67 897.71,-86.56 905.25,-94 908.25,-87.67"/>
</g>
<!-- Node26&#45;&gt;Node16 -->
<g id="edge35" class="edge">
<title>Node26&#45;&gt;Node16</title>
<path fill="none" stroke="midnightblue" d="M1070.58,-191.51C1067.35,-190.99 1064.14,-190.49 1061,-190 965.14,-175.14 854.53,-159.77 782.14,-149.95"/>
<polygon fill="midnightblue" stroke="midnightblue" points="782.57,-146.47 772.19,-148.6 781.63,-153.41 782.57,-146.47"/>
</g>
<!-- Node26&#45;&gt;Node20 -->
<g id="edge32" class="edge">
<title>Node26&#45;&gt;Node20</title>
<path fill="none" stroke="midnightblue" d="M1147,-190.37C1147,-166.5 1147,-118.18 1147,-91.41"/>
<polygon fill="midnightblue" stroke="midnightblue" points="1150.5,-91.1 1147,-81.1 1143.5,-91.1 1150.5,-91.1"/>
</g>
<!-- Node26&#45;&gt;Node22 -->
<g id="edge33" class="edge">
<title>Node26&#45;&gt;Node22</title>
<path fill="none" stroke="midnightblue" d="M1162.41,-190.4C1173.81,-179.96 1189.33,-165.75 1201.07,-155"/>
<polygon fill="midnightblue" stroke="midnightblue" points="1203.49,-157.53 1208.5,-148.19 1198.76,-152.37 1203.49,-157.53"/>
</g>
</g>
</svg>
