<?xml version="1.0" encoding="UTF-8" standalone="no"?>
<!DOCTYPE svg PUBLIC "-//W3C//DTD SVG 1.1//EN"
 "http://www.w3.org/Graphics/SVG/1.1/DTD/svg11.dtd">
<!-- Generated by graphviz version 2.43.0 (0)
 -->
<!-- Title: RobotInterface/YarpImplementation/src/YarpRobotControl.cpp Pages: 1 -->
<!--zoomable 430 -->
<svg id="main" version="1.1" xmlns="http://www.w3.org/2000/svg" xmlns:xlink="http://www.w3.org/1999/xlink" xml:space="preserve" onload="init(evt)">
<style type="text/css"><![CDATA[
.edge:hover path { stroke: red; }
.edge:hover polygon { stroke: red; fill: red; }
]]></style>
<script type="text/javascript"><![CDATA[
var edges = document.getElementsByTagName('g');
if (edges && edges.length) {
  for (var i=0;i<edges.length;i++) {
    if (edges[i].id.substr(0,4)=='edge') {
      edges[i].setAttribute('class','edge');
    }
  }
}
]]></script>
        <defs>
                <circle id="rim" cx="0" cy="0" r="7"/>
                <circle id="rim2" cx="0" cy="0" r="3.5"/>
                <g id="zoomPlus">
                        <use xlink:href="#rim" fill="#404040">
                                <set attributeName="fill" to="#808080" begin="zoomplus.mouseover" end="zoomplus.mouseout"/>
                        </use>
                        <path d="M-4,0h8M0,-4v8" fill="none" stroke="white" stroke-width="1.5" pointer-events="none"/>
                </g>
                <g id="zoomMin">
                        <use xlink:href="#rim" fill="#404040">
                                <set attributeName="fill" to="#808080" begin="zoomminus.mouseover" end="zoomminus.mouseout"/>
                        </use>
                        <path d="M-4,0h8" fill="none" stroke="white" stroke-width="1.5" pointer-events="none"/>
                </g>
                <g id="dirArrow">
                        <path fill="none" stroke="white" stroke-width="1.5" d="M0,-3.0v7 M-2.5,-0.5L0,-3.0L2.5,-0.5"/>
                </g>
               <g id="resetDef">
                       <use xlink:href="#rim2" fill="#404040">
                               <set attributeName="fill" to="#808080" begin="reset.mouseover" end="reset.mouseout"/>
                       </use>
               </g>
        </defs>

<script type="text/javascript">
var viewWidth = 1705;
var viewHeight = 430;
var sectionId = 'dynsection-0';
</script>
<script xlink:href="svgpan.js"/>
<svg id="graph" class="graph">
<g id="viewport">
<title>RobotInterface/YarpImplementation/src/YarpRobotControl.cpp</title>
<!-- Node1 -->
<g id="node1" class="node">
<title>Node1</title>
<g id="a_node1"><a xlink:title=" ">
<polygon fill="#bfbfbf" stroke="black" points="628,-391.5 628,-421.5 798,-421.5 798,-391.5 628,-391.5"/>
<text text-anchor="start" x="636" y="-409.5" font-family="Helvetica,sans-Serif" font-size="10.00">RobotInterface/YarpImplementation</text>
<text text-anchor="middle" x="713" y="-398.5" font-family="Helvetica,sans-Serif" font-size="10.00">/src/YarpRobotControl.cpp</text>
</a>
</g>
</g>
<!-- Node2 -->
<g id="node2" class="node">
<title>Node2</title>
<g id="a_node2"><a xlink:title=" ">
<polygon fill="none" stroke="#bfbfbf" points="0,-330 0,-349 44,-349 44,-330 0,-330"/>
<text text-anchor="middle" x="22" y="-337" font-family="Helvetica,sans-Serif" font-size="10.00">cmath</text>
</a>
</g>
</g>
<!-- Node1&#45;&gt;Node2 -->
<g id="edge1" class="edge">
<title>Node1&#45;&gt;Node2</title>
<path fill="none" stroke="midnightblue" d="M627.79,-402.79C474.71,-397.29 159.21,-382.91 53,-355 51.02,-354.48 49.01,-353.84 47.01,-353.11"/>
<polygon fill="midnightblue" stroke="midnightblue" points="47.93,-349.7 37.36,-349.02 45.2,-356.14 47.93,-349.7"/>
</g>
<!-- Node3 -->
<g id="node3" class="node">
<title>Node3</title>
<g id="a_node3"><a xlink:title=" ">
<polygon fill="none" stroke="#bfbfbf" points="62,-330 62,-349 106,-349 106,-330 62,-330"/>
<text text-anchor="middle" x="84" y="-337" font-family="Helvetica,sans-Serif" font-size="10.00">thread</text>
</a>
</g>
</g>
<!-- Node1&#45;&gt;Node3 -->
<g id="edge2" class="edge">
<title>Node1&#45;&gt;Node3</title>
<path fill="none" stroke="midnightblue" d="M627.74,-402C486.3,-395.57 209.37,-380.19 115,-355 113.06,-354.48 111.1,-353.85 109.14,-353.14"/>
<polygon fill="midnightblue" stroke="midnightblue" points="110.26,-349.81 99.68,-349.14 107.53,-356.26 110.26,-349.81"/>
</g>
<!-- Node4 -->
<g id="node4" class="node">
<title>Node4</title>
<g id="a_node4"><a xlink:title=" ">
<polygon fill="none" stroke="#bfbfbf" points="124.5,-330 124.5,-349 207.5,-349 207.5,-330 124.5,-330"/>
<text text-anchor="middle" x="166" y="-337" font-family="Helvetica,sans-Serif" font-size="10.00">unordered_map</text>
</a>
</g>
</g>
<!-- Node1&#45;&gt;Node4 -->
<g id="edge3" class="edge">
<title>Node1&#45;&gt;Node4</title>
<path fill="none" stroke="midnightblue" d="M627.65,-401.37C528.29,-395.51 359.61,-382.31 217,-355 212.28,-354.1 207.36,-352.96 202.52,-351.72"/>
<polygon fill="midnightblue" stroke="midnightblue" points="203.35,-348.32 192.79,-349.07 201.52,-355.07 203.35,-348.32"/>
</g>
<!-- Node5 -->
<g id="node5" class="node">
<title>Node5</title>
<g id="a_node5"><a xlink:title=" ">
<polygon fill="none" stroke="#bfbfbf" points="226,-330 226,-349 330,-349 330,-330 226,-330"/>
<text text-anchor="middle" x="278" y="-337" font-family="Helvetica,sans-Serif" font-size="10.00">yarp/dev/IAxisInfo.h</text>
</a>
</g>
</g>
<!-- Node1&#45;&gt;Node5 -->
<g id="edge4" class="edge">
<title>Node1&#45;&gt;Node5</title>
<path fill="none" stroke="midnightblue" d="M627.95,-396.45C551.9,-387.78 437.56,-373.32 339,-355 333.17,-353.92 327.06,-352.64 321.06,-351.3"/>
<polygon fill="midnightblue" stroke="midnightblue" points="321.65,-347.84 311.11,-349 320.07,-354.66 321.65,-347.84"/>
</g>
<!-- Node6 -->
<g id="node6" class="node">
<title>Node6</title>
<g id="a_node6"><a xlink:title=" ">
<polygon fill="none" stroke="#bfbfbf" points="348,-330 348,-349 472,-349 472,-330 348,-330"/>
<text text-anchor="middle" x="410" y="-337" font-family="Helvetica,sans-Serif" font-size="10.00">yarp/dev/IControlMode.h</text>
</a>
</g>
</g>
<!-- Node1&#45;&gt;Node6 -->
<g id="edge5" class="edge">
<title>Node1&#45;&gt;Node6</title>
<path fill="none" stroke="midnightblue" d="M647.63,-391.48C591.19,-379.37 510.89,-362.14 459.61,-351.14"/>
<polygon fill="midnightblue" stroke="midnightblue" points="460.27,-347.7 449.76,-349.03 458.8,-354.55 460.27,-347.7"/>
</g>
<!-- Node7 -->
<g id="node7" class="node">
<title>Node7</title>
<g id="a_node7"><a xlink:title=" ">
<polygon fill="none" stroke="#bfbfbf" points="490.5,-330 490.5,-349 627.5,-349 627.5,-330 490.5,-330"/>
<text text-anchor="middle" x="559" y="-337" font-family="Helvetica,sans-Serif" font-size="10.00">yarp/dev/IEncodersTimed.h</text>
</a>
</g>
</g>
<!-- Node1&#45;&gt;Node7 -->
<g id="edge6" class="edge">
<title>Node1&#45;&gt;Node7</title>
<path fill="none" stroke="midnightblue" d="M679.58,-391.4C652.44,-379.94 614.53,-363.94 588.5,-352.95"/>
<polygon fill="midnightblue" stroke="midnightblue" points="589.73,-349.67 579.16,-349.01 587.01,-356.12 589.73,-349.67"/>
</g>
<!-- Node8 -->
<g id="node8" class="node">
<title>Node8</title>
<g id="a_node8"><a xlink:title=" ">
<polygon fill="none" stroke="#bfbfbf" points="645.5,-330 645.5,-349 780.5,-349 780.5,-330 645.5,-330"/>
<text text-anchor="middle" x="713" y="-337" font-family="Helvetica,sans-Serif" font-size="10.00">yarp/dev/IPositionControl.h</text>
</a>
</g>
</g>
<!-- Node1&#45;&gt;Node8 -->
<g id="edge7" class="edge">
<title>Node1&#45;&gt;Node8</title>
<path fill="none" stroke="midnightblue" d="M713,-391.4C713,-382.06 713,-369.71 713,-359.52"/>
<polygon fill="midnightblue" stroke="midnightblue" points="716.5,-359.19 713,-349.19 709.5,-359.19 716.5,-359.19"/>
</g>
<!-- Node9 -->
<g id="node9" class="node">
<title>Node9</title>
<g id="a_node9"><a xlink:title=" ">
<polygon fill="none" stroke="#bfbfbf" points="799,-330 799,-349 929,-349 929,-330 799,-330"/>
<text text-anchor="middle" x="864" y="-337" font-family="Helvetica,sans-Serif" font-size="10.00">yarp/dev/IPositionDirect.h</text>
</a>
</g>
</g>
<!-- Node1&#45;&gt;Node9 -->
<g id="edge8" class="edge">
<title>Node1&#45;&gt;Node9</title>
<path fill="none" stroke="midnightblue" d="M745.76,-391.4C772.26,-379.99 809.22,-364.08 834.73,-353.1"/>
<polygon fill="midnightblue" stroke="midnightblue" points="836.44,-356.18 844.24,-349.01 833.67,-349.75 836.44,-356.18"/>
</g>
<!-- Node10 -->
<g id="node10" class="node">
<title>Node10</title>
<g id="a_node10"><a xlink:title=" ">
<polygon fill="none" stroke="#bfbfbf" points="947.5,-330 947.5,-349 1076.5,-349 1076.5,-330 947.5,-330"/>
<text text-anchor="middle" x="1012" y="-337" font-family="Helvetica,sans-Serif" font-size="10.00">yarp/dev/ITorqueControl.h</text>
</a>
</g>
</g>
<!-- Node1&#45;&gt;Node10 -->
<g id="edge9" class="edge">
<title>Node1&#45;&gt;Node10</title>
<path fill="none" stroke="midnightblue" d="M777.51,-391.48C833.08,-379.4 912.11,-362.21 962.73,-351.21"/>
<polygon fill="midnightblue" stroke="midnightblue" points="963.74,-354.57 972.77,-349.03 962.25,-347.73 963.74,-354.57"/>
</g>
<!-- Node11 -->
<g id="node11" class="node">
<title>Node11</title>
<g id="a_node11"><a xlink:title=" ">
<polygon fill="none" stroke="#bfbfbf" points="1094.5,-330 1094.5,-349 1229.5,-349 1229.5,-330 1094.5,-330"/>
<text text-anchor="middle" x="1162" y="-337" font-family="Helvetica,sans-Serif" font-size="10.00">yarp/dev/IVelocityControl.h</text>
</a>
</g>
</g>
<!-- Node1&#45;&gt;Node11 -->
<g id="edge10" class="edge">
<title>Node1&#45;&gt;Node11</title>
<path fill="none" stroke="midnightblue" d="M798.14,-395.2C873.66,-385.77 986.88,-370.89 1085,-355 1092.74,-353.75 1100.9,-352.32 1108.9,-350.87"/>
<polygon fill="midnightblue" stroke="midnightblue" points="1109.7,-354.28 1118.9,-349.02 1108.43,-347.39 1109.7,-354.28"/>
</g>
<!-- Node12 -->
<g id="node12" class="node">
<title>Node12</title>
<g id="a_node12"><a xlink:title=" ">
<polygon fill="none" stroke="#bfbfbf" points="1212,-263 1212,-282 1322,-282 1322,-263 1212,-263"/>
<text text-anchor="middle" x="1267" y="-270" font-family="Helvetica,sans-Serif" font-size="10.00">yarp/dev/PolyDriver.h</text>
</a>
</g>
</g>
<!-- Node1&#45;&gt;Node12 -->
<g id="edge11" class="edge">
<title>Node1&#45;&gt;Node12</title>
<path fill="none" stroke="midnightblue" d="M798.1,-402.27C937.9,-396.24 1204.13,-381.42 1238,-355 1257.21,-340.01 1263.72,-311.29 1265.91,-292.26"/>
<polygon fill="midnightblue" stroke="midnightblue" points="1269.41,-292.37 1266.78,-282.11 1262.44,-291.77 1269.41,-292.37"/>
</g>
<!-- Node13 -->
<g id="node13" class="node">
<title>Node13</title>
<g id="a_node13"><a xlink:title=" ">
<polygon fill="none" stroke="#bfbfbf" points="1286,-330 1286,-349 1368,-349 1368,-330 1286,-330"/>
<text text-anchor="middle" x="1327" y="-337" font-family="Helvetica,sans-Serif" font-size="10.00">yarp/os/Time.h</text>
</a>
</g>
</g>
<!-- Node1&#45;&gt;Node13 -->
<g id="edge12" class="edge">
<title>Node1&#45;&gt;Node13</title>
<path fill="none" stroke="midnightblue" d="M798.34,-402.24C908.48,-397.02 1105.73,-384.22 1272,-355 1277.41,-354.05 1283.07,-352.83 1288.6,-351.5"/>
<polygon fill="midnightblue" stroke="midnightblue" points="1289.54,-354.87 1298.37,-349.02 1287.82,-348.09 1289.54,-354.87"/>
</g>
<!-- Node14 -->
<g id="node14" class="node">
<title>Node14</title>
<g id="a_node14"><a xlink:href="YarpRobotControl_8h.html" target="_top" xlink:title=" ">
<polygon fill="none" stroke="black" points="1386.5,-324.5 1386.5,-354.5 1553.5,-354.5 1553.5,-324.5 1386.5,-324.5"/>
<text text-anchor="start" x="1394.5" y="-342.5" font-family="Helvetica,sans-Serif" font-size="10.00">BipedalLocomotion/RobotInterface</text>
<text text-anchor="middle" x="1470" y="-331.5" font-family="Helvetica,sans-Serif" font-size="10.00">/YarpRobotControl.h</text>
</a>
</g>
</g>
<!-- Node1&#45;&gt;Node14 -->
<g id="edge13" class="edge">
<title>Node1&#45;&gt;Node14</title>
<path fill="none" stroke="midnightblue" d="M798.11,-401.18C922.66,-394.37 1162.08,-379.48 1376.21,-355.03"/>
<polygon fill="midnightblue" stroke="midnightblue" points="1376.86,-358.47 1386.39,-353.85 1376.06,-351.52 1376.86,-358.47"/>
</g>
<!-- Node14&#45;&gt;Node12 -->
<g id="edge16" class="edge">
<title>Node14&#45;&gt;Node12</title>
<path fill="none" stroke="midnightblue" d="M1425.95,-324.4C1389.23,-312.64 1337.55,-296.09 1303.2,-285.09"/>
<polygon fill="midnightblue" stroke="midnightblue" points="1304.16,-281.72 1293.57,-282.01 1302.02,-288.39 1304.16,-281.72"/>
</g>
<!-- Node15 -->
<g id="node15" class="node">
<title>Node15</title>
<g id="a_node15"><a xlink:title=" ">
<polygon fill="none" stroke="#bfbfbf" points="1645,-62 1645,-81 1697,-81 1697,-62 1645,-62"/>
<text text-anchor="middle" x="1671" y="-69" font-family="Helvetica,sans-Serif" font-size="10.00">memory</text>
</a>
</g>
</g>
<!-- Node14&#45;&gt;Node15 -->
<g id="edge14" class="edge">
<title>Node14&#45;&gt;Node15</title>
<path fill="none" stroke="midnightblue" d="M1506.55,-324.31C1525.04,-315.81 1546.92,-303.61 1563,-288 1622.83,-229.92 1654.96,-131.69 1666.25,-91"/>
<polygon fill="midnightblue" stroke="midnightblue" points="1669.69,-91.7 1668.89,-81.13 1662.93,-89.89 1669.69,-91.7"/>
</g>
<!-- Node16 -->
<g id="node16" class="node">
<title>Node16</title>
<g id="a_node16"><a xlink:title=" ">
<polygon fill="none" stroke="#bfbfbf" points="1302.5,-196 1302.5,-215 1375.5,-215 1375.5,-196 1302.5,-196"/>
<text text-anchor="middle" x="1339" y="-203" font-family="Helvetica,sans-Serif" font-size="10.00">Eigen/Dense</text>
</a>
</g>
</g>
<!-- Node14&#45;&gt;Node16 -->
<g id="edge15" class="edge">
<title>Node14&#45;&gt;Node16</title>
<path fill="none" stroke="midnightblue" d="M1432.41,-324.34C1414.18,-315.97 1393.02,-303.88 1378,-288 1360.86,-269.88 1349.97,-242.83 1344.17,-224.93"/>
<polygon fill="midnightblue" stroke="midnightblue" points="1347.46,-223.69 1341.21,-215.13 1340.75,-225.72 1347.46,-223.69"/>
</g>
<!-- Node17 -->
<g id="node17" class="node">
<title>Node17</title>
<g id="a_node17"><a xlink:href="IRobotControl_8h.html" target="_top" xlink:title=" ">
<polygon fill="none" stroke="black" points="1386.5,-257.5 1386.5,-287.5 1553.5,-287.5 1553.5,-257.5 1386.5,-257.5"/>
<text text-anchor="start" x="1394.5" y="-275.5" font-family="Helvetica,sans-Serif" font-size="10.00">BipedalLocomotion/RobotInterface</text>
<text text-anchor="middle" x="1470" y="-264.5" font-family="Helvetica,sans-Serif" font-size="10.00">/IRobotControl.h</text>
</a>
</g>
</g>
<!-- Node14&#45;&gt;Node17 -->
<g id="edge17" class="edge">
<title>Node14&#45;&gt;Node17</title>
<path fill="none" stroke="midnightblue" d="M1470,-324.4C1470,-316.64 1470,-306.81 1470,-297.86"/>
<polygon fill="midnightblue" stroke="midnightblue" points="1473.5,-297.58 1470,-287.58 1466.5,-297.58 1473.5,-297.58"/>
</g>
<!-- Node17&#45;&gt;Node15 -->
<g id="edge18" class="edge">
<title>Node17&#45;&gt;Node15</title>
<path fill="none" stroke="midnightblue" d="M1499.73,-257.35C1516.93,-248.34 1538.38,-235.63 1555,-221 1601.11,-180.41 1641.98,-119.47 1660.5,-89.87"/>
<polygon fill="midnightblue" stroke="midnightblue" points="1663.63,-91.46 1665.9,-81.11 1657.67,-87.79 1663.63,-91.46"/>
</g>
<!-- Node17&#45;&gt;Node16 -->
<g id="edge19" class="edge">
<title>Node17&#45;&gt;Node16</title>
<path fill="none" stroke="midnightblue" d="M1441.57,-257.4C1418.89,-246.14 1387.37,-230.5 1365.28,-219.54"/>
<polygon fill="midnightblue" stroke="midnightblue" points="1366.66,-216.32 1356.14,-215.01 1363.55,-222.59 1366.66,-216.32"/>
</g>
<!-- Node18 -->
<g id="node18" class="node">
<title>Node18</title>
<g id="a_node18"><a xlink:href="IParametersHandler_8h.html" target="_top" xlink:title=" ">
<polygon fill="none" stroke="black" points="1394,-190.5 1394,-220.5 1546,-220.5 1546,-190.5 1394,-190.5"/>
<text text-anchor="start" x="1402" y="-208.5" font-family="Helvetica,sans-Serif" font-size="10.00">BipedalLocomotion/Parameters</text>
<text text-anchor="middle" x="1470" y="-197.5" font-family="Helvetica,sans-Serif" font-size="10.00">Handler/IParametersHandler.h</text>
</a>
</g>
</g>
<!-- Node17&#45;&gt;Node18 -->
<g id="edge20" class="edge">
<title>Node17&#45;&gt;Node18</title>
<path fill="none" stroke="midnightblue" d="M1470,-257.4C1470,-249.64 1470,-239.81 1470,-230.86"/>
<polygon fill="midnightblue" stroke="midnightblue" points="1473.5,-230.58 1470,-220.58 1466.5,-230.58 1473.5,-230.58"/>
</g>
<!-- Node18&#45;&gt;Node15 -->
<g id="edge21" class="edge">
<title>Node18&#45;&gt;Node15</title>
<path fill="none" stroke="midnightblue" d="M1491.58,-190.36C1507.02,-180.24 1528.29,-166.28 1547,-154 1582.9,-130.43 1624.63,-103 1649.37,-86.73"/>
<polygon fill="midnightblue" stroke="midnightblue" points="1651.54,-89.49 1657.97,-81.07 1647.69,-83.64 1651.54,-89.49"/>
</g>
<!-- Node19 -->
<g id="node19" class="node">
<title>Node19</title>
<g id="a_node19"><a xlink:title=" ">
<polygon fill="none" stroke="#bfbfbf" points="1280.5,-129 1280.5,-148 1321.5,-148 1321.5,-129 1280.5,-129"/>
<text text-anchor="middle" x="1301" y="-136" font-family="Helvetica,sans-Serif" font-size="10.00">string</text>
</a>
</g>
</g>
<!-- Node18&#45;&gt;Node19 -->
<g id="edge22" class="edge">
<title>Node18&#45;&gt;Node19</title>
<path fill="none" stroke="midnightblue" d="M1427.91,-190.46C1400.12,-180.88 1363.05,-167.53 1331,-154 1329.8,-153.49 1328.58,-152.96 1327.35,-152.42"/>
<polygon fill="midnightblue" stroke="midnightblue" points="1328.54,-149.11 1318,-148.09 1325.6,-155.47 1328.54,-149.11"/>
</g>
<!-- Node20 -->
<g id="node20" class="node">
<title>Node20</title>
<g id="a_node20"><a xlink:title=" ">
<polygon fill="none" stroke="#bfbfbf" points="1340,-129 1340,-148 1384,-148 1384,-129 1340,-129"/>
<text text-anchor="middle" x="1362" y="-136" font-family="Helvetica,sans-Serif" font-size="10.00">vector</text>
</a>
</g>
</g>
<!-- Node18&#45;&gt;Node20 -->
<g id="edge23" class="edge">
<title>Node18&#45;&gt;Node20</title>
<path fill="none" stroke="midnightblue" d="M1446.57,-190.4C1428.29,-179.39 1403.04,-164.2 1384.9,-153.28"/>
<polygon fill="midnightblue" stroke="midnightblue" points="1386.51,-150.16 1376.13,-148.01 1382.9,-156.16 1386.51,-150.16"/>
</g>
<!-- Node21 -->
<g id="node21" class="node">
<title>Node21</title>
<g id="a_node21"><a xlink:href="Vector_8h_source.html" target="_top" xlink:title=" ">
<polygon fill="none" stroke="black" points="1402,-123.5 1402,-153.5 1538,-153.5 1538,-123.5 1402,-123.5"/>
<text text-anchor="start" x="1410" y="-141.5" font-family="Helvetica,sans-Serif" font-size="10.00">BipedalLocomotion/Generic</text>
<text text-anchor="middle" x="1470" y="-130.5" font-family="Helvetica,sans-Serif" font-size="10.00">Container/Vector.h</text>
</a>
</g>
</g>
<!-- Node18&#45;&gt;Node21 -->
<g id="edge24" class="edge">
<title>Node18&#45;&gt;Node21</title>
<path fill="none" stroke="midnightblue" d="M1470,-190.4C1470,-182.64 1470,-172.81 1470,-163.86"/>
<polygon fill="midnightblue" stroke="midnightblue" points="1473.5,-163.58 1470,-153.58 1466.5,-163.58 1473.5,-163.58"/>
</g>
<!-- Node23 -->
<g id="node23" class="node">
<title>Node23</title>
<g id="a_node23"><a xlink:href="TemplateHelpers_8h_source.html" target="_top" xlink:title=" ">
<polygon fill="none" stroke="black" points="1135.5,-56.5 1135.5,-86.5 1278.5,-86.5 1278.5,-56.5 1135.5,-56.5"/>
<text text-anchor="start" x="1143.5" y="-74.5" font-family="Helvetica,sans-Serif" font-size="10.00">BipedalLocomotion/Generic</text>
<text text-anchor="middle" x="1207" y="-63.5" font-family="Helvetica,sans-Serif" font-size="10.00">Container/TemplateHelpers.h</text>
</a>
</g>
</g>
<!-- Node18&#45;&gt;Node23 -->
<g id="edge34" class="edge">
<title>Node18&#45;&gt;Node23</title>
<path fill="none" stroke="midnightblue" d="M1393.98,-190.49C1346.82,-180.79 1291.43,-167.29 1271,-154 1248.42,-139.31 1230.37,-113.93 1219.26,-95.39"/>
<polygon fill="midnightblue" stroke="midnightblue" points="1222.26,-93.58 1214.24,-86.66 1216.19,-97.07 1222.26,-93.58"/>
</g>
<!-- Node21&#45;&gt;Node15 -->
<g id="edge33" class="edge">
<title>Node21&#45;&gt;Node15</title>
<path fill="none" stroke="midnightblue" d="M1520.91,-123.41C1553.97,-113.91 1597.86,-100.67 1636,-87 1637.86,-86.33 1639.76,-85.63 1641.67,-84.89"/>
<polygon fill="midnightblue" stroke="midnightblue" points="1643.15,-88.07 1651.14,-81.12 1640.56,-81.57 1643.15,-88.07"/>
</g>
<!-- Node22 -->
<g id="node22" class="node">
<title>Node22</title>
<g id="a_node22"><a xlink:title=" ">
<polygon fill="none" stroke="#bfbfbf" points="1513,-62 1513,-81 1627,-81 1627,-62 1513,-62"/>
<text text-anchor="middle" x="1570" y="-69" font-family="Helvetica,sans-Serif" font-size="10.00">iDynTree/Core/Span.h</text>
</a>
</g>
</g>
<!-- Node21&#45;&gt;Node22 -->
<g id="edge25" class="edge">
<title>Node21&#45;&gt;Node22</title>
<path fill="none" stroke="midnightblue" d="M1491.7,-123.4C1508.47,-112.5 1531.57,-97.48 1548.33,-86.58"/>
<polygon fill="midnightblue" stroke="midnightblue" points="1550.44,-89.39 1556.91,-81.01 1546.62,-83.52 1550.44,-89.39"/>
</g>
<!-- Node21&#45;&gt;Node23 -->
<g id="edge26" class="edge">
<title>Node21&#45;&gt;Node23</title>
<path fill="none" stroke="midnightblue" d="M1413.26,-123.48C1372.35,-113.37 1316.99,-99.68 1273.92,-89.04"/>
<polygon fill="midnightblue" stroke="midnightblue" points="1274.64,-85.61 1264.09,-86.61 1272.96,-92.41 1274.64,-85.61"/>
</g>
<!-- Node27 -->
<g id="node27" class="node">
<title>Node27</title>
<g id="a_node27"><a xlink:title=" ">
<polygon fill="none" stroke="#bfbfbf" points="1296.5,-62 1296.5,-81 1355.5,-81 1355.5,-62 1296.5,-62"/>
<text text-anchor="middle" x="1326" y="-69" font-family="Helvetica,sans-Serif" font-size="10.00">functional</text>
</a>
</g>
</g>
<!-- Node21&#45;&gt;Node27 -->
<g id="edge30" class="edge">
<title>Node21&#45;&gt;Node27</title>
<path fill="none" stroke="midnightblue" d="M1438.75,-123.4C1413.6,-112.04 1378.55,-96.22 1354.23,-85.24"/>
<polygon fill="midnightblue" stroke="midnightblue" points="1355.4,-81.93 1344.85,-81.01 1352.52,-88.31 1355.4,-81.93"/>
</g>
<!-- Node28 -->
<g id="node28" class="node">
<title>Node28</title>
<g id="a_node28"><a xlink:title=" ">
<polygon fill="none" stroke="#bfbfbf" points="1373.5,-62 1373.5,-81 1422.5,-81 1422.5,-62 1373.5,-62"/>
<text text-anchor="middle" x="1398" y="-69" font-family="Helvetica,sans-Serif" font-size="10.00">cassert</text>
</a>
</g>
</g>
<!-- Node21&#45;&gt;Node28 -->
<g id="edge31" class="edge">
<title>Node21&#45;&gt;Node28</title>
<path fill="none" stroke="midnightblue" d="M1454.38,-123.4C1442.82,-112.96 1427.08,-98.75 1415.17,-88"/>
<polygon fill="midnightblue" stroke="midnightblue" points="1417.4,-85.3 1407.63,-81.19 1412.71,-90.49 1417.4,-85.3"/>
</g>
<!-- Node29 -->
<g id="node29" class="node">
<title>Node29</title>
<g id="a_node29"><a xlink:title=" ">
<polygon fill="none" stroke="#bfbfbf" points="1441,-62 1441,-81 1495,-81 1495,-62 1441,-62"/>
<text text-anchor="middle" x="1468" y="-69" font-family="Helvetica,sans-Serif" font-size="10.00">iostream</text>
</a>
</g>
</g>
<!-- Node21&#45;&gt;Node29 -->
<g id="edge32" class="edge">
<title>Node21&#45;&gt;Node29</title>
<path fill="none" stroke="midnightblue" d="M1469.57,-123.4C1469.28,-114.06 1468.9,-101.71 1468.59,-91.52"/>
<polygon fill="midnightblue" stroke="midnightblue" points="1472.07,-91.08 1468.27,-81.19 1465.08,-91.3 1472.07,-91.08"/>
</g>
<!-- Node24 -->
<g id="node24" class="node">
<title>Node24</title>
<g id="a_node24"><a xlink:title=" ">
<polygon fill="none" stroke="#bfbfbf" points="1094,-0.5 1094,-19.5 1156,-19.5 1156,-0.5 1094,-0.5"/>
<text text-anchor="middle" x="1125" y="-7.5" font-family="Helvetica,sans-Serif" font-size="10.00">type_traits</text>
</a>
</g>
</g>
<!-- Node23&#45;&gt;Node24 -->
<g id="edge27" class="edge">
<title>Node23&#45;&gt;Node24</title>
<path fill="none" stroke="midnightblue" d="M1187.57,-56.4C1174.79,-47.13 1158.11,-35.03 1145.19,-25.65"/>
<polygon fill="midnightblue" stroke="midnightblue" points="1147.08,-22.7 1136.93,-19.66 1142.97,-28.36 1147.08,-22.7"/>
</g>
<!-- Node25 -->
<g id="node25" class="node">
<title>Node25</title>
<g id="a_node25"><a xlink:title=" ">
<polygon fill="none" stroke="#bfbfbf" points="1174,-0.5 1174,-19.5 1240,-19.5 1240,-0.5 1174,-0.5"/>
<text text-anchor="middle" x="1207" y="-7.5" font-family="Helvetica,sans-Serif" font-size="10.00">string_view</text>
</a>
</g>
</g>
<!-- Node23&#45;&gt;Node25 -->
<g id="edge28" class="edge">
<title>Node23&#45;&gt;Node25</title>
<path fill="none" stroke="midnightblue" d="M1207,-56.4C1207,-48.47 1207,-38.46 1207,-29.86"/>
<polygon fill="midnightblue" stroke="midnightblue" points="1210.5,-29.66 1207,-19.66 1203.5,-29.66 1210.5,-29.66"/>
</g>
<!-- Node26 -->
<g id="node26" class="node">
<title>Node26</title>
<g id="a_node26"><a xlink:title=" ">
<polygon fill="none" stroke="#bfbfbf" points="1258.5,-0.5 1258.5,-19.5 1323.5,-19.5 1323.5,-0.5 1258.5,-0.5"/>
<text text-anchor="middle" x="1291" y="-7.5" font-family="Helvetica,sans-Serif" font-size="10.00">Eigen/Core</text>
</a>
</g>
</g>
<!-- Node23&#45;&gt;Node26 -->
<g id="edge29" class="edge">
<title>Node23&#45;&gt;Node26</title>
<path fill="none" stroke="midnightblue" d="M1226.91,-56.4C1239.99,-47.13 1257.08,-35.03 1270.32,-25.65"/>
<polygon fill="midnightblue" stroke="midnightblue" points="1272.64,-28.29 1278.78,-19.66 1268.59,-22.58 1272.64,-28.29"/>
</g>
</g>
</svg>
        <g id="navigator" transform="translate(0 0)" fill="#404254">
                <rect fill="#f2f5e9" fill-opacity="0.5" stroke="#606060" stroke-width=".5" x="0" y="0" width="60" height="60"/>
                <use id="zoomplus" xlink:href="#zoomPlus" x="17" y="9" onmousedown="handleZoom(evt,'in')"/>
                <use id="zoomminus" xlink:href="#zoomMin" x="42" y="9" onmousedown="handleZoom(evt,'out')"/>
                <use id="reset" xlink:href="#resetDef" x="30" y="36" onmousedown="handleReset()"/>
                <g id="arrowUp" xlink:href="#dirArrow" transform="translate(30 24)" onmousedown="handlePan(0,-1)">
                  <use xlink:href="#rim" fill="#404040">
                        <set attributeName="fill" to="#808080" begin="arrowUp.mouseover" end="arrowUp.mouseout"/>
                  </use>
                  <path fill="none" stroke="white" stroke-width="1.5" d="M0,-3.0v7 M-2.5,-0.5L0,-3.0L2.5,-0.5"/>
                </g>
                <g id="arrowRight" xlink:href="#dirArrow" transform="rotate(90) translate(36 -43)" onmousedown="handlePan(1,0)">
                  <use xlink:href="#rim" fill="#404040">
                        <set attributeName="fill" to="#808080" begin="arrowRight.mouseover" end="arrowRight.mouseout"/>
                  </use>
                  <path fill="none" stroke="white" stroke-width="1.5" d="M0,-3.0v7 M-2.5,-0.5L0,-3.0L2.5,-0.5"/>
                </g>
                <g id="arrowDown" xlink:href="#dirArrow" transform="rotate(180) translate(-30 -48)" onmousedown="handlePan(0,1)">
                  <use xlink:href="#rim" fill="#404040">
                        <set attributeName="fill" to="#808080" begin="arrowDown.mouseover" end="arrowDown.mouseout"/>
                  </use>
                  <path fill="none" stroke="white" stroke-width="1.5" d="M0,-3.0v7 M-2.5,-0.5L0,-3.0L2.5,-0.5"/>
                </g>
                <g id="arrowLeft" xlink:href="#dirArrow" transform="rotate(270) translate(-36 17)" onmousedown="handlePan(-1,0)">
                  <use xlink:href="#rim" fill="#404040">
                        <set attributeName="fill" to="#808080" begin="arrowLeft.mouseover" end="arrowLeft.mouseout"/>
                  </use>
                  <path fill="none" stroke="white" stroke-width="1.5" d="M0,-3.0v7 M-2.5,-0.5L0,-3.0L2.5,-0.5"/>
                </g>
        </g>
        <svg viewBox="0 0 15 15" width="100%" height="30px" preserveAspectRatio="xMaxYMin meet">
         <g id="arrow_out" transform="scale(0.3 0.3)">
          <a xlink:href="YarpRobotControl_8cpp__incl_org.svg" target="_base">
           <rect id="button" ry="5" rx="5" y="6" x="6" height="38" width="38"
                fill="#f2f5e9" fill-opacity="0.5" stroke="#606060" stroke-width="1.0"/>
           <path id="arrow"
             d="M 11.500037,31.436501 C 11.940474,20.09759 22.043105,11.32322 32.158766,21.979434 L 37.068811,17.246167 C 37.068811,17.246167 37.088388,32 37.088388,32 L 22.160133,31.978069 C 22.160133,31.978069 26.997745,27.140456 26.997745,27.140456 C 18.528582,18.264221 13.291696,25.230495 11.500037,31.436501 z"
             style="fill:#404040;"/>
          </a>
         </g>
        </svg>
</svg>
