<?xml version="1.0" encoding="UTF-8" standalone="no"?>
<!DOCTYPE svg PUBLIC "-//W3C//DTD SVG 1.1//EN"
 "http://www.w3.org/Graphics/SVG/1.1/DTD/svg11.dtd">
<!-- Generated by graphviz version 2.43.0 (0)
 -->
<!-- Title: ParametersHandler/YarpImplementation/src/YarpImplementation.cpp Pages: 1 -->
<!--zoomable 475 -->
<svg id="main" version="1.1" xmlns="http://www.w3.org/2000/svg" xmlns:xlink="http://www.w3.org/1999/xlink" xml:space="preserve" onload="init(evt)">
<style type="text/css"><![CDATA[
.edge:hover path { stroke: red; }
.edge:hover polygon { stroke: red; fill: red; }
]]></style>
<script type="text/javascript"><![CDATA[
var edges = document.getElementsByTagName('g');
if (edges && edges.length) {
  for (var i=0;i<edges.length;i++) {
    if (edges[i].id.substr(0,4)=='edge') {
      edges[i].setAttribute('class','edge');
    }
  }
}
]]></script>
        <defs>
                <circle id="rim" cx="0" cy="0" r="7"/>
                <circle id="rim2" cx="0" cy="0" r="3.5"/>
                <g id="zoomPlus">
                        <use xlink:href="#rim" fill="#404040">
                                <set attributeName="fill" to="#808080" begin="zoomplus.mouseover" end="zoomplus.mouseout"/>
                        </use>
                        <path d="M-4,0h8M0,-4v8" fill="none" stroke="white" stroke-width="1.5" pointer-events="none"/>
                </g>
                <g id="zoomMin">
                        <use xlink:href="#rim" fill="#404040">
                                <set attributeName="fill" to="#808080" begin="zoomminus.mouseover" end="zoomminus.mouseout"/>
                        </use>
                        <path d="M-4,0h8" fill="none" stroke="white" stroke-width="1.5" pointer-events="none"/>
                </g>
                <g id="dirArrow">
                        <path fill="none" stroke="white" stroke-width="1.5" d="M0,-3.0v7 M-2.5,-0.5L0,-3.0L2.5,-0.5"/>
                </g>
               <g id="resetDef">
                       <use xlink:href="#rim2" fill="#404040">
                               <set attributeName="fill" to="#808080" begin="reset.mouseover" end="reset.mouseout"/>
                       </use>
               </g>
        </defs>

<script type="text/javascript">
var viewWidth = 1093;
var viewHeight = 475;
var sectionId = 'dynsection-0';
</script>
<script xlink:href="svgpan.js"/>
<svg id="graph" class="graph">
<g id="viewport">
<title>ParametersHandler/YarpImplementation/src/YarpImplementation.cpp</title>
<!-- Node1 -->
<g id="node1" class="node">
<title>Node1</title>
<g id="a_node1"><a xlink:title=" ">
<polygon fill="#bfbfbf" stroke="black" points="598,-436.5 598,-466.5 788,-466.5 788,-436.5 598,-436.5"/>
<text text-anchor="start" x="606" y="-454.5" font-family="Helvetica,sans-Serif" font-size="10.00">ParametersHandler/YarpImplementation</text>
<text text-anchor="middle" x="693" y="-443.5" font-family="Helvetica,sans-Serif" font-size="10.00">/src/YarpImplementation.cpp</text>
</a>
</g>
</g>
<!-- Node2 -->
<g id="node2" class="node">
<title>Node2</title>
<g id="a_node2"><a xlink:title=" ">
<polygon fill="none" stroke="#bfbfbf" points="418,-313.5 418,-332.5 504,-332.5 504,-313.5 418,-313.5"/>
<text text-anchor="middle" x="461" y="-320.5" font-family="Helvetica,sans-Serif" font-size="10.00">yarp/os/Bottle.h</text>
</a>
</g>
</g>
<!-- Node1&#45;&gt;Node2 -->
<g id="edge1" class="edge">
<title>Node1&#45;&gt;Node2</title>
<path fill="none" stroke="midnightblue" d="M667.29,-436.48C622.33,-411.97 530.03,-361.64 485.76,-337.5"/>
<polygon fill="midnightblue" stroke="midnightblue" points="487.28,-334.34 476.83,-332.63 483.93,-340.49 487.28,-334.34"/>
</g>
<!-- Node3 -->
<g id="node3" class="node">
<title>Node3</title>
<g id="a_node3"><a xlink:title=" ">
<polygon fill="none" stroke="#bfbfbf" points="215.5,-62 215.5,-81 264.5,-81 264.5,-62 215.5,-62"/>
<text text-anchor="middle" x="240" y="-69" font-family="Helvetica,sans-Serif" font-size="10.00">cassert</text>
</a>
</g>
</g>
<!-- Node1&#45;&gt;Node3 -->
<g id="edge2" class="edge">
<title>Node1&#45;&gt;Node3</title>
<path fill="none" stroke="midnightblue" d="M597.73,-442.88C407.78,-426.4 0,-384.04 0,-324 0,-324 0,-324 0,-260.5 0,-157.29 139.24,-102.24 205.6,-81.86"/>
<polygon fill="midnightblue" stroke="midnightblue" points="206.64,-85.2 215.22,-78.99 204.64,-78.49 206.64,-85.2"/>
</g>
<!-- Node4 -->
<g id="node4" class="node">
<title>Node4</title>
<g id="a_node4"><a xlink:title=" ">
<polygon fill="none" stroke="#bfbfbf" points="1015.5,-190.5 1015.5,-209.5 1056.5,-209.5 1056.5,-190.5 1015.5,-190.5"/>
<text text-anchor="middle" x="1036" y="-197.5" font-family="Helvetica,sans-Serif" font-size="10.00">string</text>
</a>
</g>
</g>
<!-- Node1&#45;&gt;Node4 -->
<g id="edge3" class="edge">
<title>Node1&#45;&gt;Node4</title>
<path fill="none" stroke="midnightblue" d="M738.28,-436.46C795.47,-417.64 895.74,-380.97 973,-333 1005.97,-312.53 1023.56,-312.16 1040,-277 1048.46,-258.91 1045.53,-235.69 1041.72,-219.71"/>
<polygon fill="midnightblue" stroke="midnightblue" points="1045.07,-218.68 1039.07,-209.95 1038.31,-220.51 1045.07,-218.68"/>
</g>
<!-- Node5 -->
<g id="node5" class="node">
<title>Node5</title>
<g id="a_node5"><a xlink:href="YarpImplementation_8h.html" target="_top" xlink:title=" ">
<polygon fill="none" stroke="black" points="660,-369.5 660,-399.5 812,-399.5 812,-369.5 660,-369.5"/>
<text text-anchor="start" x="668" y="-387.5" font-family="Helvetica,sans-Serif" font-size="10.00">BipedalLocomotion/Parameters</text>
<text text-anchor="middle" x="736" y="-376.5" font-family="Helvetica,sans-Serif" font-size="10.00">Handler/YarpImplementation.h</text>
</a>
</g>
</g>
<!-- Node1&#45;&gt;Node5 -->
<g id="edge4" class="edge">
<title>Node1&#45;&gt;Node5</title>
<path fill="none" stroke="midnightblue" d="M702.33,-436.4C707.8,-428.13 714.83,-417.51 721.05,-408.1"/>
<polygon fill="midnightblue" stroke="midnightblue" points="724.09,-409.85 726.69,-399.58 718.25,-405.99 724.09,-409.85"/>
</g>
<!-- Node5&#45;&gt;Node2 -->
<g id="edge8" class="edge">
<title>Node5&#45;&gt;Node2</title>
<path fill="none" stroke="midnightblue" d="M671.18,-369.47C621.87,-358.81 555.06,-344.35 510.12,-334.63"/>
<polygon fill="midnightblue" stroke="midnightblue" points="510.83,-331.2 500.32,-332.51 509.35,-338.04 510.83,-331.2"/>
</g>
<!-- Node5&#45;&gt;Node4 -->
<g id="edge6" class="edge">
<title>Node5&#45;&gt;Node4</title>
<path fill="none" stroke="midnightblue" d="M812.05,-370.89C850.56,-362.9 897.41,-350.67 937,-333 977.64,-314.86 995.15,-313.92 1020,-277 1031.39,-260.08 1034.9,-236.62 1035.88,-220.25"/>
<polygon fill="midnightblue" stroke="midnightblue" points="1039.39,-219.89 1036.21,-209.79 1032.39,-219.67 1039.39,-219.89"/>
</g>
<!-- Node6 -->
<g id="node6" class="node">
<title>Node6</title>
<g id="a_node6"><a xlink:title=" ">
<polygon fill="none" stroke="#bfbfbf" points="963,-62 963,-81 1015,-81 1015,-62 963,-62"/>
<text text-anchor="middle" x="989" y="-69" font-family="Helvetica,sans-Serif" font-size="10.00">memory</text>
</a>
</g>
</g>
<!-- Node5&#45;&gt;Node6 -->
<g id="edge5" class="edge">
<title>Node5&#45;&gt;Node6</title>
<path fill="none" stroke="midnightblue" d="M812.16,-372.75C914.85,-356.08 1085,-319.81 1085,-262.5 1085,-262.5 1085,-262.5 1085,-199 1085,-150.03 1038.78,-108.11 1010.48,-87.04"/>
<polygon fill="midnightblue" stroke="midnightblue" points="1012.51,-84.19 1002.35,-81.18 1008.42,-89.87 1012.51,-84.19"/>
</g>
<!-- Node7 -->
<g id="node7" class="node">
<title>Node7</title>
<g id="a_node7"><a xlink:title=" ">
<polygon fill="none" stroke="#bfbfbf" points="659.5,-313.5 659.5,-332.5 742.5,-332.5 742.5,-313.5 659.5,-313.5"/>
<text text-anchor="middle" x="701" y="-320.5" font-family="Helvetica,sans-Serif" font-size="10.00">unordered_map</text>
</a>
</g>
</g>
<!-- Node5&#45;&gt;Node7 -->
<g id="edge7" class="edge">
<title>Node5&#45;&gt;Node7</title>
<path fill="none" stroke="midnightblue" d="M727.71,-369.4C722.78,-361.02 716.49,-350.33 711.25,-341.42"/>
<polygon fill="midnightblue" stroke="midnightblue" points="714.18,-339.5 706.09,-332.66 708.15,-343.05 714.18,-339.5"/>
</g>
<!-- Node8 -->
<g id="node8" class="node">
<title>Node8</title>
<g id="a_node8"><a xlink:title=" ">
<polygon fill="none" stroke="#bfbfbf" points="725.5,-190.5 725.5,-209.5 820.5,-209.5 820.5,-190.5 725.5,-190.5"/>
<text text-anchor="middle" x="773" y="-197.5" font-family="Helvetica,sans-Serif" font-size="10.00">yarp/os/Property.h</text>
</a>
</g>
</g>
<!-- Node5&#45;&gt;Node8 -->
<g id="edge9" class="edge">
<title>Node5&#45;&gt;Node8</title>
<path fill="none" stroke="midnightblue" d="M740.67,-369.48C743.9,-359.41 748.12,-345.48 751,-333 760.2,-293.15 767.15,-245.69 770.6,-219.93"/>
<polygon fill="midnightblue" stroke="midnightblue" points="774.1,-220.09 771.93,-209.72 767.16,-219.19 774.1,-220.09"/>
</g>
<!-- Node9 -->
<g id="node9" class="node">
<title>Node9</title>
<g id="a_node9"><a xlink:title=" ">
<polygon fill="none" stroke="#bfbfbf" points="799.5,-313.5 799.5,-332.5 908.5,-332.5 908.5,-313.5 799.5,-313.5"/>
<text text-anchor="middle" x="854" y="-320.5" font-family="Helvetica,sans-Serif" font-size="10.00">yarp/os/Searchable.h</text>
</a>
</g>
</g>
<!-- Node5&#45;&gt;Node9 -->
<g id="edge10" class="edge">
<title>Node5&#45;&gt;Node9</title>
<path fill="none" stroke="midnightblue" d="M763.96,-369.4C783.32,-359.64 808.91,-346.74 827.86,-337.18"/>
<polygon fill="midnightblue" stroke="midnightblue" points="829.48,-340.29 836.83,-332.66 826.33,-334.04 829.48,-340.29"/>
</g>
<!-- Node10 -->
<g id="node10" class="node">
<title>Node10</title>
<g id="a_node10"><a xlink:href="IParametersHandler_8h.html" target="_top" xlink:title=" ">
<polygon fill="none" stroke="black" points="859,-246.5 859,-276.5 1011,-276.5 1011,-246.5 859,-246.5"/>
<text text-anchor="start" x="867" y="-264.5" font-family="Helvetica,sans-Serif" font-size="10.00">BipedalLocomotion/Parameters</text>
<text text-anchor="middle" x="935" y="-253.5" font-family="Helvetica,sans-Serif" font-size="10.00">Handler/IParametersHandler.h</text>
</a>
</g>
</g>
<!-- Node5&#45;&gt;Node10 -->
<g id="edge11" class="edge">
<title>Node5&#45;&gt;Node10</title>
<path fill="none" stroke="midnightblue" d="M812.37,-379.84C848.95,-374.16 890.65,-361.29 918,-333 929.76,-320.83 933.86,-302.01 935.1,-286.88"/>
<polygon fill="midnightblue" stroke="midnightblue" points="938.6,-286.81 935.56,-276.66 931.61,-286.49 938.6,-286.81"/>
</g>
<!-- Node20 -->
<g id="node20" class="node">
<title>Node20</title>
<g id="a_node20"><a xlink:href="YarpImplementation_8tpp.html" target="_top" xlink:title=" ">
<polygon fill="none" stroke="black" points="522.5,-313.5 522.5,-332.5 641.5,-332.5 641.5,-313.5 522.5,-313.5"/>
<text text-anchor="middle" x="582" y="-320.5" font-family="Helvetica,sans-Serif" font-size="10.00">YarpImplementation.tpp</text>
</a>
</g>
</g>
<!-- Node5&#45;&gt;Node20 -->
<g id="edge26" class="edge">
<title>Node5&#45;&gt;Node20</title>
<path fill="none" stroke="midnightblue" d="M693.66,-369.4C666.54,-359.42 632.27,-346.15 608.82,-336.53"/>
<polygon fill="midnightblue" stroke="midnightblue" points="610.06,-333.26 599.48,-332.66 607.37,-339.72 610.06,-333.26"/>
</g>
<!-- Node10&#45;&gt;Node4 -->
<g id="edge13" class="edge">
<title>Node10&#45;&gt;Node4</title>
<path fill="none" stroke="midnightblue" d="M958.94,-246.4C975.13,-236.86 996.41,-224.32 1012.5,-214.84"/>
<polygon fill="midnightblue" stroke="midnightblue" points="1014.46,-217.75 1021.3,-209.66 1010.91,-211.72 1014.46,-217.75"/>
</g>
<!-- Node10&#45;&gt;Node6 -->
<g id="edge12" class="edge">
<title>Node10&#45;&gt;Node6</title>
<path fill="none" stroke="midnightblue" d="M939.06,-246.37C948.7,-212.79 972.99,-128.25 983.74,-90.82"/>
<polygon fill="midnightblue" stroke="midnightblue" points="987.1,-91.78 986.5,-81.21 980.37,-89.85 987.1,-91.78"/>
</g>
<!-- Node11 -->
<g id="node11" class="node">
<title>Node11</title>
<g id="a_node11"><a xlink:title=" ">
<polygon fill="none" stroke="#bfbfbf" points="839,-190.5 839,-209.5 883,-209.5 883,-190.5 839,-190.5"/>
<text text-anchor="middle" x="861" y="-197.5" font-family="Helvetica,sans-Serif" font-size="10.00">vector</text>
</a>
</g>
</g>
<!-- Node10&#45;&gt;Node11 -->
<g id="edge14" class="edge">
<title>Node10&#45;&gt;Node11</title>
<path fill="none" stroke="midnightblue" d="M917.46,-246.4C906.16,-237.31 891.46,-225.49 879.89,-216.19"/>
<polygon fill="midnightblue" stroke="midnightblue" points="881.75,-213.2 871.77,-209.66 877.37,-218.65 881.75,-213.2"/>
</g>
<!-- Node12 -->
<g id="node12" class="node">
<title>Node12</title>
<g id="a_node12"><a xlink:href="Vector_8h_source.html" target="_top" xlink:title=" ">
<polygon fill="none" stroke="black" points="820,-123.5 820,-153.5 956,-153.5 956,-123.5 820,-123.5"/>
<text text-anchor="start" x="828" y="-141.5" font-family="Helvetica,sans-Serif" font-size="10.00">BipedalLocomotion/Generic</text>
<text text-anchor="middle" x="888" y="-130.5" font-family="Helvetica,sans-Serif" font-size="10.00">Container/Vector.h</text>
</a>
</g>
</g>
<!-- Node10&#45;&gt;Node12 -->
<g id="edge15" class="edge">
<title>Node10&#45;&gt;Node12</title>
<path fill="none" stroke="midnightblue" d="M935,-246.47C934.55,-231.85 932.55,-208.55 925,-190 920.88,-179.88 914.29,-169.93 907.81,-161.56"/>
<polygon fill="midnightblue" stroke="midnightblue" points="910.5,-159.32 901.46,-153.79 905.07,-163.74 910.5,-159.32"/>
</g>
<!-- Node14 -->
<g id="node14" class="node">
<title>Node14</title>
<g id="a_node14"><a xlink:href="TemplateHelpers_8h_source.html" target="_top" xlink:title=" ">
<polygon fill="none" stroke="black" points="579.5,-56.5 579.5,-86.5 722.5,-86.5 722.5,-56.5 579.5,-56.5"/>
<text text-anchor="start" x="587.5" y="-74.5" font-family="Helvetica,sans-Serif" font-size="10.00">BipedalLocomotion/Generic</text>
<text text-anchor="middle" x="651" y="-63.5" font-family="Helvetica,sans-Serif" font-size="10.00">Container/TemplateHelpers.h</text>
</a>
</g>
</g>
<!-- Node10&#45;&gt;Node14 -->
<g id="edge25" class="edge">
<title>Node10&#45;&gt;Node14</title>
<path fill="none" stroke="midnightblue" d="M929.42,-246.31C922.65,-230.69 909.88,-205.7 892,-190 862.4,-164 846.56,-170.95 811,-154 767.84,-133.43 718.97,-108.26 686.72,-91.38"/>
<polygon fill="midnightblue" stroke="midnightblue" points="688.16,-88.18 677.68,-86.64 684.91,-94.38 688.16,-88.18"/>
</g>
<!-- Node12&#45;&gt;Node3 -->
<g id="edge22" class="edge">
<title>Node12&#45;&gt;Node3</title>
<path fill="none" stroke="midnightblue" d="M819.88,-130.67C682.73,-116.91 377.65,-86.31 274.7,-75.98"/>
<polygon fill="midnightblue" stroke="midnightblue" points="274.84,-72.48 264.54,-74.96 274.14,-79.44 274.84,-72.48"/>
</g>
<!-- Node12&#45;&gt;Node6 -->
<g id="edge24" class="edge">
<title>Node12&#45;&gt;Node6</title>
<path fill="none" stroke="midnightblue" d="M909.92,-123.4C926.85,-112.5 950.19,-97.48 967.12,-86.58"/>
<polygon fill="midnightblue" stroke="midnightblue" points="969.27,-89.36 975.78,-81.01 965.48,-83.48 969.27,-89.36"/>
</g>
<!-- Node13 -->
<g id="node13" class="node">
<title>Node13</title>
<g id="a_node13"><a xlink:title=" ">
<polygon fill="none" stroke="#bfbfbf" points="831,-62 831,-81 945,-81 945,-62 831,-62"/>
<text text-anchor="middle" x="888" y="-69" font-family="Helvetica,sans-Serif" font-size="10.00">iDynTree/Core/Span.h</text>
</a>
</g>
</g>
<!-- Node12&#45;&gt;Node13 -->
<g id="edge16" class="edge">
<title>Node12&#45;&gt;Node13</title>
<path fill="none" stroke="midnightblue" d="M888,-123.4C888,-114.06 888,-101.71 888,-91.52"/>
<polygon fill="midnightblue" stroke="midnightblue" points="891.5,-91.19 888,-81.19 884.5,-91.19 891.5,-91.19"/>
</g>
<!-- Node12&#45;&gt;Node14 -->
<g id="edge17" class="edge">
<title>Node12&#45;&gt;Node14</title>
<path fill="none" stroke="midnightblue" d="M836.87,-123.48C800.39,-113.47 751.16,-99.97 712.54,-89.38"/>
<polygon fill="midnightblue" stroke="midnightblue" points="713.02,-85.88 702.45,-86.61 711.17,-92.63 713.02,-85.88"/>
</g>
<!-- Node18 -->
<g id="node18" class="node">
<title>Node18</title>
<g id="a_node18"><a xlink:title=" ">
<polygon fill="none" stroke="#bfbfbf" points="753.5,-62 753.5,-81 812.5,-81 812.5,-62 753.5,-62"/>
<text text-anchor="middle" x="783" y="-69" font-family="Helvetica,sans-Serif" font-size="10.00">functional</text>
</a>
</g>
</g>
<!-- Node12&#45;&gt;Node18 -->
<g id="edge21" class="edge">
<title>Node12&#45;&gt;Node18</title>
<path fill="none" stroke="midnightblue" d="M865.22,-123.4C847.45,-112.39 822.9,-97.2 805.26,-86.28"/>
<polygon fill="midnightblue" stroke="midnightblue" points="807.09,-83.29 796.74,-81.01 803.4,-89.25 807.09,-83.29"/>
</g>
<!-- Node19 -->
<g id="node19" class="node">
<title>Node19</title>
<g id="a_node19"><a xlink:title=" ">
<polygon fill="none" stroke="#bfbfbf" points="494,-62 494,-81 548,-81 548,-62 494,-62"/>
<text text-anchor="middle" x="521" y="-69" font-family="Helvetica,sans-Serif" font-size="10.00">iostream</text>
</a>
</g>
</g>
<!-- Node12&#45;&gt;Node19 -->
<g id="edge23" class="edge">
<title>Node12&#45;&gt;Node19</title>
<path fill="none" stroke="midnightblue" d="M819.9,-129.3C755.17,-120.89 655.33,-106.31 570,-87 565.86,-86.06 561.56,-84.97 557.3,-83.81"/>
<polygon fill="midnightblue" stroke="midnightblue" points="558.11,-80.41 547.54,-81.04 556.2,-87.14 558.11,-80.41"/>
</g>
<!-- Node15 -->
<g id="node15" class="node">
<title>Node15</title>
<g id="a_node15"><a xlink:title=" ">
<polygon fill="none" stroke="#bfbfbf" points="410,-0.5 410,-19.5 472,-19.5 472,-0.5 410,-0.5"/>
<text text-anchor="middle" x="441" y="-7.5" font-family="Helvetica,sans-Serif" font-size="10.00">type_traits</text>
</a>
</g>
</g>
<!-- Node14&#45;&gt;Node15 -->
<g id="edge18" class="edge">
<title>Node14&#45;&gt;Node15</title>
<path fill="none" stroke="midnightblue" d="M601.5,-56.47C564.64,-46.03 514.97,-31.96 480.69,-22.25"/>
<polygon fill="midnightblue" stroke="midnightblue" points="481.6,-18.87 471.02,-19.51 479.69,-25.6 481.6,-18.87"/>
</g>
<!-- Node16 -->
<g id="node16" class="node">
<title>Node16</title>
<g id="a_node16"><a xlink:title=" ">
<polygon fill="none" stroke="#bfbfbf" points="576,-0.5 576,-19.5 642,-19.5 642,-0.5 576,-0.5"/>
<text text-anchor="middle" x="609" y="-7.5" font-family="Helvetica,sans-Serif" font-size="10.00">string_view</text>
</a>
</g>
</g>
<!-- Node14&#45;&gt;Node16 -->
<g id="edge19" class="edge">
<title>Node14&#45;&gt;Node16</title>
<path fill="none" stroke="midnightblue" d="M641.05,-56.4C635.01,-47.84 627.26,-36.87 620.9,-27.86"/>
<polygon fill="midnightblue" stroke="midnightblue" points="623.74,-25.81 615.11,-19.66 618.02,-29.85 623.74,-25.81"/>
</g>
<!-- Node17 -->
<g id="node17" class="node">
<title>Node17</title>
<g id="a_node17"><a xlink:title=" ">
<polygon fill="none" stroke="#bfbfbf" points="660.5,-0.5 660.5,-19.5 725.5,-19.5 725.5,-0.5 660.5,-0.5"/>
<text text-anchor="middle" x="693" y="-7.5" font-family="Helvetica,sans-Serif" font-size="10.00">Eigen/Core</text>
</a>
</g>
</g>
<!-- Node14&#45;&gt;Node17 -->
<g id="edge20" class="edge">
<title>Node14&#45;&gt;Node17</title>
<path fill="none" stroke="midnightblue" d="M660.95,-56.4C666.99,-47.84 674.74,-36.87 681.1,-27.86"/>
<polygon fill="midnightblue" stroke="midnightblue" points="683.98,-29.85 686.89,-19.66 678.26,-25.81 683.98,-29.85"/>
</g>
<!-- Node20&#45;&gt;Node5 -->
<g id="edge41" class="edge">
<title>Node20&#45;&gt;Node5</title>
<path fill="none" stroke="midnightblue" d="M609.34,-332.66C633.49,-341.27 668.8,-354.75 696.07,-365.66"/>
<polygon fill="midnightblue" stroke="midnightblue" points="694.76,-368.91 705.34,-369.4 697.38,-362.41 694.76,-368.91"/>
</g>
<!-- Node20&#45;&gt;Node15 -->
<g id="edge27" class="edge">
<title>Node20&#45;&gt;Node15</title>
<path fill="none" stroke="midnightblue" d="M531.8,-313.49C397.12,-290.31 38,-226.16 38,-201 38,-201 38,-201 38,-137.5 38,-62.26 296.94,-26.36 399.69,-15.08"/>
<polygon fill="midnightblue" stroke="midnightblue" points="400.14,-18.55 409.71,-14 399.4,-11.59 400.14,-18.55"/>
</g>
<!-- Node21 -->
<g id="node21" class="node">
<title>Node21</title>
<g id="a_node21"><a xlink:href="Helper_8h.html" target="_top" xlink:title=" ">
<polygon fill="none" stroke="black" points="469.5,-246.5 469.5,-276.5 624.5,-276.5 624.5,-246.5 469.5,-246.5"/>
<text text-anchor="start" x="477.5" y="-264.5" font-family="Helvetica,sans-Serif" font-size="10.00">BipedalLocomotion/YarpUtilities</text>
<text text-anchor="middle" x="547" y="-253.5" font-family="Helvetica,sans-Serif" font-size="10.00">/Helper.h</text>
</a>
</g>
</g>
<!-- Node20&#45;&gt;Node21 -->
<g id="edge28" class="edge">
<title>Node20&#45;&gt;Node21</title>
<path fill="none" stroke="midnightblue" d="M576.99,-313.48C572.64,-306.09 566.16,-295.08 560.34,-285.17"/>
<polygon fill="midnightblue" stroke="midnightblue" points="563.34,-283.37 555.25,-276.52 557.3,-286.92 563.34,-283.37"/>
</g>
<!-- Node21&#45;&gt;Node8 -->
<g id="edge32" class="edge">
<title>Node21&#45;&gt;Node8</title>
<path fill="none" stroke="midnightblue" d="M600.27,-246.47C640.11,-235.99 693.86,-221.84 730.75,-212.12"/>
<polygon fill="midnightblue" stroke="midnightblue" points="731.91,-215.44 740.69,-209.51 730.13,-208.67 731.91,-215.44"/>
</g>
<!-- Node21&#45;&gt;Node11 -->
<g id="edge30" class="edge">
<title>Node21&#45;&gt;Node11</title>
<path fill="none" stroke="midnightblue" d="M624.61,-248.68C679.04,-239.91 753.67,-226.92 828.6,-209.89"/>
<polygon fill="midnightblue" stroke="midnightblue" points="829.73,-213.22 838.69,-207.57 828.16,-206.4 829.73,-213.22"/>
</g>
<!-- Node22 -->
<g id="node22" class="node">
<title>Node22</title>
<g id="a_node22"><a xlink:title=" ">
<polygon fill="none" stroke="#bfbfbf" points="349.5,-190.5 349.5,-209.5 392.5,-209.5 392.5,-190.5 349.5,-190.5"/>
<text text-anchor="middle" x="371" y="-197.5" font-family="Helvetica,sans-Serif" font-size="10.00">deque</text>
</a>
</g>
</g>
<!-- Node21&#45;&gt;Node22 -->
<g id="edge29" class="edge">
<title>Node21&#45;&gt;Node22</title>
<path fill="none" stroke="midnightblue" d="M505.29,-246.4C473.65,-235.7 430.84,-221.23 402.14,-211.53"/>
<polygon fill="midnightblue" stroke="midnightblue" points="403.21,-208.2 392.62,-208.31 400.97,-214.83 403.21,-208.2"/>
</g>
<!-- Node23 -->
<g id="node23" class="node">
<title>Node23</title>
<g id="a_node23"><a xlink:title=" ">
<polygon fill="none" stroke="#bfbfbf" points="489.5,-190.5 489.5,-209.5 604.5,-209.5 604.5,-190.5 489.5,-190.5"/>
<text text-anchor="middle" x="547" y="-197.5" font-family="Helvetica,sans-Serif" font-size="10.00">yarp/os/BufferedPort.h</text>
</a>
</g>
</g>
<!-- Node21&#45;&gt;Node23 -->
<g id="edge31" class="edge">
<title>Node21&#45;&gt;Node23</title>
<path fill="none" stroke="midnightblue" d="M547,-246.4C547,-238.47 547,-228.46 547,-219.86"/>
<polygon fill="midnightblue" stroke="midnightblue" points="550.5,-219.66 547,-209.66 543.5,-219.66 550.5,-219.66"/>
</g>
<!-- Node24 -->
<g id="node24" class="node">
<title>Node24</title>
<g id="a_node24"><a xlink:title=" ">
<polygon fill="none" stroke="#bfbfbf" points="623,-190.5 623,-209.5 707,-209.5 707,-190.5 623,-190.5"/>
<text text-anchor="middle" x="665" y="-197.5" font-family="Helvetica,sans-Serif" font-size="10.00">yarp/os/Value.h</text>
</a>
</g>
</g>
<!-- Node21&#45;&gt;Node24 -->
<g id="edge33" class="edge">
<title>Node21&#45;&gt;Node24</title>
<path fill="none" stroke="midnightblue" d="M574.96,-246.4C594.32,-236.64 619.91,-223.74 638.86,-214.18"/>
<polygon fill="midnightblue" stroke="midnightblue" points="640.48,-217.29 647.83,-209.66 637.33,-211.04 640.48,-217.29"/>
</g>
<!-- Node25 -->
<g id="node25" class="node">
<title>Node25</title>
<g id="a_node25"><a xlink:title=" ">
<polygon fill="none" stroke="#bfbfbf" points="66,-190.5 66,-209.5 156,-209.5 156,-190.5 66,-190.5"/>
<text text-anchor="middle" x="111" y="-197.5" font-family="Helvetica,sans-Serif" font-size="10.00">yarp/sig/Vector.h</text>
</a>
</g>
</g>
<!-- Node21&#45;&gt;Node25 -->
<g id="edge34" class="edge">
<title>Node21&#45;&gt;Node25</title>
<path fill="none" stroke="midnightblue" d="M469.34,-251.01C394.34,-241.67 277.3,-226.63 166.11,-210.13"/>
<polygon fill="midnightblue" stroke="midnightblue" points="166.47,-206.64 156.06,-208.63 165.44,-213.56 166.47,-206.64"/>
</g>
<!-- Node26 -->
<g id="node26" class="node">
<title>Node26</title>
<g id="a_node26"><a xlink:title=" ">
<polygon fill="none" stroke="#bfbfbf" points="174,-190.5 174,-209.5 332,-209.5 332,-190.5 174,-190.5"/>
<text text-anchor="middle" x="253" y="-197.5" font-family="Helvetica,sans-Serif" font-size="10.00">iDynTree/Core/VectorDynSize.h</text>
</a>
</g>
</g>
<!-- Node21&#45;&gt;Node26 -->
<g id="edge35" class="edge">
<title>Node21&#45;&gt;Node26</title>
<path fill="none" stroke="midnightblue" d="M477.7,-246.47C424.76,-235.76 352.96,-221.23 304.91,-211.51"/>
<polygon fill="midnightblue" stroke="midnightblue" points="305.53,-208.06 295.03,-209.51 304.14,-214.92 305.53,-208.06"/>
</g>
<!-- Node27 -->
<g id="node27" class="node">
<title>Node27</title>
<g id="a_node27"><a xlink:href="Helper_8tpp.html" target="_top" xlink:title=" ">
<polygon fill="none" stroke="black" points="410.5,-190.5 410.5,-209.5 471.5,-209.5 471.5,-190.5 410.5,-190.5"/>
<text text-anchor="middle" x="441" y="-197.5" font-family="Helvetica,sans-Serif" font-size="10.00">Helper.tpp</text>
</a>
</g>
</g>
<!-- Node21&#45;&gt;Node27 -->
<g id="edge36" class="edge">
<title>Node21&#45;&gt;Node27</title>
<path fill="none" stroke="midnightblue" d="M521.88,-246.4C504.73,-236.77 482.14,-224.09 465.19,-214.58"/>
<polygon fill="midnightblue" stroke="midnightblue" points="466.86,-211.5 456.42,-209.66 463.43,-217.6 466.86,-211.5"/>
</g>
<!-- Node27&#45;&gt;Node12 -->
<g id="edge40" class="edge">
<title>Node27&#45;&gt;Node12</title>
<path fill="none" stroke="midnightblue" d="M471.6,-191.62C474.43,-191.04 477.26,-190.48 480,-190 594.02,-169.84 727.38,-154.95 809.78,-146.75"/>
<polygon fill="midnightblue" stroke="midnightblue" points="810.21,-150.22 819.82,-145.76 809.52,-143.26 810.21,-150.22"/>
</g>
<!-- Node27&#45;&gt;Node14 -->
<g id="edge39" class="edge">
<title>Node27&#45;&gt;Node14</title>
<path fill="none" stroke="midnightblue" d="M455.43,-190.31C488.88,-170.16 572.36,-119.87 618.71,-91.95"/>
<polygon fill="midnightblue" stroke="midnightblue" points="620.7,-94.84 627.46,-86.68 617.08,-88.84 620.7,-94.84"/>
</g>
<!-- Node27&#45;&gt;Node15 -->
<g id="edge38" class="edge">
<title>Node27&#45;&gt;Node15</title>
<path fill="none" stroke="midnightblue" d="M441,-190.43C441,-161.93 441,-69.82 441,-29.83"/>
<polygon fill="midnightblue" stroke="midnightblue" points="444.5,-29.62 441,-19.62 437.5,-29.62 444.5,-29.62"/>
</g>
<!-- Node27&#45;&gt;Node19 -->
<g id="edge37" class="edge">
<title>Node27&#45;&gt;Node19</title>
<path fill="none" stroke="midnightblue" d="M446.5,-190.31C459.57,-169.63 492.71,-117.23 510.05,-89.82"/>
<polygon fill="midnightblue" stroke="midnightblue" points="513.08,-91.58 515.46,-81.26 507.16,-87.84 513.08,-91.58"/>
</g>
</g>
</svg>
        <g id="navigator" transform="translate(0 0)" fill="#404254">
                <rect fill="#f2f5e9" fill-opacity="0.5" stroke="#606060" stroke-width=".5" x="0" y="0" width="60" height="60"/>
                <use id="zoomplus" xlink:href="#zoomPlus" x="17" y="9" onmousedown="handleZoom(evt,'in')"/>
                <use id="zoomminus" xlink:href="#zoomMin" x="42" y="9" onmousedown="handleZoom(evt,'out')"/>
                <use id="reset" xlink:href="#resetDef" x="30" y="36" onmousedown="handleReset()"/>
                <g id="arrowUp" xlink:href="#dirArrow" transform="translate(30 24)" onmousedown="handlePan(0,-1)">
                  <use xlink:href="#rim" fill="#404040">
                        <set attributeName="fill" to="#808080" begin="arrowUp.mouseover" end="arrowUp.mouseout"/>
                  </use>
                  <path fill="none" stroke="white" stroke-width="1.5" d="M0,-3.0v7 M-2.5,-0.5L0,-3.0L2.5,-0.5"/>
                </g>
                <g id="arrowRight" xlink:href="#dirArrow" transform="rotate(90) translate(36 -43)" onmousedown="handlePan(1,0)">
                  <use xlink:href="#rim" fill="#404040">
                        <set attributeName="fill" to="#808080" begin="arrowRight.mouseover" end="arrowRight.mouseout"/>
                  </use>
                  <path fill="none" stroke="white" stroke-width="1.5" d="M0,-3.0v7 M-2.5,-0.5L0,-3.0L2.5,-0.5"/>
                </g>
                <g id="arrowDown" xlink:href="#dirArrow" transform="rotate(180) translate(-30 -48)" onmousedown="handlePan(0,1)">
                  <use xlink:href="#rim" fill="#404040">
                        <set attributeName="fill" to="#808080" begin="arrowDown.mouseover" end="arrowDown.mouseout"/>
                  </use>
                  <path fill="none" stroke="white" stroke-width="1.5" d="M0,-3.0v7 M-2.5,-0.5L0,-3.0L2.5,-0.5"/>
                </g>
                <g id="arrowLeft" xlink:href="#dirArrow" transform="rotate(270) translate(-36 17)" onmousedown="handlePan(-1,0)">
                  <use xlink:href="#rim" fill="#404040">
                        <set attributeName="fill" to="#808080" begin="arrowLeft.mouseover" end="arrowLeft.mouseout"/>
                  </use>
                  <path fill="none" stroke="white" stroke-width="1.5" d="M0,-3.0v7 M-2.5,-0.5L0,-3.0L2.5,-0.5"/>
                </g>
        </g>
        <svg viewBox="0 0 15 15" width="100%" height="30px" preserveAspectRatio="xMaxYMin meet">
         <g id="arrow_out" transform="scale(0.3 0.3)">
          <a xlink:href="YarpImplementation_8cpp__incl_org.svg" target="_base">
           <rect id="button" ry="5" rx="5" y="6" x="6" height="38" width="38"
                fill="#f2f5e9" fill-opacity="0.5" stroke="#606060" stroke-width="1.0"/>
           <path id="arrow"
             d="M 11.500037,31.436501 C 11.940474,20.09759 22.043105,11.32322 32.158766,21.979434 L 37.068811,17.246167 C 37.068811,17.246167 37.088388,32 37.088388,32 L 22.160133,31.978069 C 22.160133,31.978069 26.997745,27.140456 26.997745,27.140456 C 18.528582,18.264221 13.291696,25.230495 11.500037,31.436501 z"
             style="fill:#404040;"/>
          </a>
         </g>
        </svg>
</svg>
