<?xml version="1.0" encoding="UTF-8" standalone="no"?>
<!DOCTYPE svg PUBLIC "-//W3C//DTD SVG 1.1//EN"
 "http://www.w3.org/Graphics/SVG/1.1/DTD/svg11.dtd">
<!-- Generated by graphviz version 2.43.0 (0)
 -->
<!-- Title: ParametersHandler/YarpImplementation/include/BipedalLocomotion/ParametersHandler/YarpImplementation.h Pages: 1 -->
<!--zoomable 419 -->
<svg id="main" version="1.1" xmlns="http://www.w3.org/2000/svg" xmlns:xlink="http://www.w3.org/1999/xlink" xml:space="preserve" onload="init(evt)">
<style type="text/css"><![CDATA[
.edge:hover path { stroke: red; }
.edge:hover polygon { stroke: red; fill: red; }
]]></style>
<script type="text/javascript"><![CDATA[
var edges = document.getElementsByTagName('g');
if (edges && edges.length) {
  for (var i=0;i<edges.length;i++) {
    if (edges[i].id.substr(0,4)=='edge') {
      edges[i].setAttribute('class','edge');
    }
  }
}
]]></script>
        <defs>
                <circle id="rim" cx="0" cy="0" r="7"/>
                <circle id="rim2" cx="0" cy="0" r="3.5"/>
                <g id="zoomPlus">
                        <use xlink:href="#rim" fill="#404040">
                                <set attributeName="fill" to="#808080" begin="zoomplus.mouseover" end="zoomplus.mouseout"/>
                        </use>
                        <path d="M-4,0h8M0,-4v8" fill="none" stroke="white" stroke-width="1.5" pointer-events="none"/>
                </g>
                <g id="zoomMin">
                        <use xlink:href="#rim" fill="#404040">
                                <set attributeName="fill" to="#808080" begin="zoomminus.mouseover" end="zoomminus.mouseout"/>
                        </use>
                        <path d="M-4,0h8" fill="none" stroke="white" stroke-width="1.5" pointer-events="none"/>
                </g>
                <g id="dirArrow">
                        <path fill="none" stroke="white" stroke-width="1.5" d="M0,-3.0v7 M-2.5,-0.5L0,-3.0L2.5,-0.5"/>
                </g>
               <g id="resetDef">
                       <use xlink:href="#rim2" fill="#404040">
                               <set attributeName="fill" to="#808080" begin="reset.mouseover" end="reset.mouseout"/>
                       </use>
               </g>
        </defs>

<script type="text/javascript">
var viewWidth = 1182;
var viewHeight = 419;
var sectionId = 'dynsection-0';
</script>
<script xlink:href="svgpan.js"/>
<svg id="graph" class="graph">
<g id="viewport">
<title>ParametersHandler/YarpImplementation/include/BipedalLocomotion/ParametersHandler/YarpImplementation.h</title>
<!-- Node1 -->
<g id="node1" class="node">
<title>Node1</title>
<g id="a_node1"><a xlink:title=" ">
<polygon fill="#bfbfbf" stroke="black" points="408.5,-369.5 408.5,-410.5 631.5,-410.5 631.5,-369.5 408.5,-369.5"/>
<text text-anchor="start" x="416.5" y="-398.5" font-family="Helvetica,sans-Serif" font-size="10.00">ParametersHandler/YarpImplementation</text>
<text text-anchor="start" x="416.5" y="-387.5" font-family="Helvetica,sans-Serif" font-size="10.00">/include/BipedalLocomotion/ParametersHandler</text>
<text text-anchor="middle" x="520" y="-376.5" font-family="Helvetica,sans-Serif" font-size="10.00">/YarpImplementation.h</text>
</a>
</g>
</g>
<!-- Node2 -->
<g id="node2" class="node">
<title>Node2</title>
<g id="a_node2"><a xlink:title=" ">
<polygon fill="none" stroke="#bfbfbf" points="0,-62 0,-81 52,-81 52,-62 0,-62"/>
<text text-anchor="middle" x="26" y="-69" font-family="Helvetica,sans-Serif" font-size="10.00">memory</text>
</a>
</g>
</g>
<!-- Node1&#45;&gt;Node2 -->
<g id="edge1" class="edge">
<title>Node1&#45;&gt;Node2</title>
<path fill="none" stroke="midnightblue" d="M408.28,-382.03C265.62,-370.01 37,-338.83 37,-262.5 37,-262.5 37,-262.5 37,-199 37,-160.56 31.9,-115.79 28.64,-91.15"/>
<polygon fill="midnightblue" stroke="midnightblue" points="32.08,-90.5 27.26,-81.07 25.15,-91.45 32.08,-90.5"/>
</g>
<!-- Node3 -->
<g id="node3" class="node">
<title>Node3</title>
<g id="a_node3"><a xlink:title=" ">
<polygon fill="none" stroke="#bfbfbf" points="269.5,-190.5 269.5,-209.5 310.5,-209.5 310.5,-190.5 269.5,-190.5"/>
<text text-anchor="middle" x="290" y="-197.5" font-family="Helvetica,sans-Serif" font-size="10.00">string</text>
</a>
</g>
</g>
<!-- Node1&#45;&gt;Node3 -->
<g id="edge2" class="edge">
<title>Node1&#45;&gt;Node3</title>
<path fill="none" stroke="midnightblue" d="M490.18,-369.28C474.88,-358.88 456.13,-345.68 440,-333 389.58,-293.37 333.75,-242.14 306.63,-216.73"/>
<polygon fill="midnightblue" stroke="midnightblue" points="308.85,-214.01 299.17,-209.71 304.05,-219.11 308.85,-214.01"/>
</g>
<!-- Node4 -->
<g id="node4" class="node">
<title>Node4</title>
<g id="a_node4"><a xlink:title=" ">
<polygon fill="none" stroke="#bfbfbf" points="597.5,-313.5 597.5,-332.5 680.5,-332.5 680.5,-313.5 597.5,-313.5"/>
<text text-anchor="middle" x="639" y="-320.5" font-family="Helvetica,sans-Serif" font-size="10.00">unordered_map</text>
</a>
</g>
</g>
<!-- Node1&#45;&gt;Node4 -->
<g id="edge3" class="edge">
<title>Node1&#45;&gt;Node4</title>
<path fill="none" stroke="midnightblue" d="M555.7,-369.5C574.48,-359.24 597.03,-346.93 613.93,-337.69"/>
<polygon fill="midnightblue" stroke="midnightblue" points="616.06,-340.52 623.16,-332.65 612.71,-334.37 616.06,-340.52"/>
</g>
<!-- Node5 -->
<g id="node5" class="node">
<title>Node5</title>
<g id="a_node5"><a xlink:title=" ">
<polygon fill="none" stroke="#bfbfbf" points="699,-313.5 699,-332.5 785,-332.5 785,-313.5 699,-313.5"/>
<text text-anchor="middle" x="742" y="-320.5" font-family="Helvetica,sans-Serif" font-size="10.00">yarp/os/Bottle.h</text>
</a>
</g>
</g>
<!-- Node1&#45;&gt;Node5 -->
<g id="edge4" class="edge">
<title>Node1&#45;&gt;Node5</title>
<path fill="none" stroke="midnightblue" d="M586.61,-369.5C624.52,-358.4 670.71,-344.87 702.83,-335.47"/>
<polygon fill="midnightblue" stroke="midnightblue" points="704.13,-338.74 712.74,-332.57 702.16,-332.02 704.13,-338.74"/>
</g>
<!-- Node6 -->
<g id="node6" class="node">
<title>Node6</title>
<g id="a_node6"><a xlink:title=" ">
<polygon fill="none" stroke="#bfbfbf" points="391.5,-190.5 391.5,-209.5 486.5,-209.5 486.5,-190.5 391.5,-190.5"/>
<text text-anchor="middle" x="439" y="-197.5" font-family="Helvetica,sans-Serif" font-size="10.00">yarp/os/Property.h</text>
</a>
</g>
</g>
<!-- Node1&#45;&gt;Node6 -->
<g id="edge5" class="edge">
<title>Node1&#45;&gt;Node6</title>
<path fill="none" stroke="midnightblue" d="M486.25,-369.36C473.34,-360.04 459.85,-347.71 452,-333 432.65,-296.72 433.97,-246.82 436.54,-219.96"/>
<polygon fill="midnightblue" stroke="midnightblue" points="440.06,-220 437.7,-209.67 433.1,-219.22 440.06,-220"/>
</g>
<!-- Node7 -->
<g id="node7" class="node">
<title>Node7</title>
<g id="a_node7"><a xlink:title=" ">
<polygon fill="none" stroke="#bfbfbf" points="803.5,-313.5 803.5,-332.5 912.5,-332.5 912.5,-313.5 803.5,-313.5"/>
<text text-anchor="middle" x="858" y="-320.5" font-family="Helvetica,sans-Serif" font-size="10.00">yarp/os/Searchable.h</text>
</a>
</g>
</g>
<!-- Node1&#45;&gt;Node7 -->
<g id="edge6" class="edge">
<title>Node1&#45;&gt;Node7</title>
<path fill="none" stroke="midnightblue" d="M621.41,-369.5C681.14,-358.01 754.35,-343.93 803.37,-334.51"/>
<polygon fill="midnightblue" stroke="midnightblue" points="804.29,-337.89 813.45,-332.57 802.97,-331.02 804.29,-337.89"/>
</g>
<!-- Node8 -->
<g id="node8" class="node">
<title>Node8</title>
<g id="a_node8"><a xlink:href="IParametersHandler_8h.html" target="_top" xlink:title=" ">
<polygon fill="none" stroke="black" points="172,-246.5 172,-276.5 324,-276.5 324,-246.5 172,-246.5"/>
<text text-anchor="start" x="180" y="-264.5" font-family="Helvetica,sans-Serif" font-size="10.00">BipedalLocomotion/Parameters</text>
<text text-anchor="middle" x="248" y="-253.5" font-family="Helvetica,sans-Serif" font-size="10.00">Handler/IParametersHandler.h</text>
</a>
</g>
</g>
<!-- Node1&#45;&gt;Node8 -->
<g id="edge7" class="edge">
<title>Node1&#45;&gt;Node8</title>
<path fill="none" stroke="midnightblue" d="M447.16,-369.49C416.96,-360.19 382.05,-347.84 352,-333 323.59,-318.97 293.94,-298.17 273.6,-282.79"/>
<polygon fill="midnightblue" stroke="midnightblue" points="275.55,-279.87 265.49,-276.57 271.29,-285.43 275.55,-279.87"/>
</g>
<!-- Node19 -->
<g id="node19" class="node">
<title>Node19</title>
<g id="a_node19"><a xlink:href="YarpImplementation_8tpp.html" target="_top" xlink:title=" ">
<polygon fill="none" stroke="black" points="460.5,-313.5 460.5,-332.5 579.5,-332.5 579.5,-313.5 460.5,-313.5"/>
<text text-anchor="middle" x="520" y="-320.5" font-family="Helvetica,sans-Serif" font-size="10.00">YarpImplementation.tpp</text>
</a>
</g>
</g>
<!-- Node1&#45;&gt;Node19 -->
<g id="edge22" class="edge">
<title>Node1&#45;&gt;Node19</title>
<path fill="none" stroke="midnightblue" d="M513.75,-369.5C513.06,-360.97 513.08,-351.01 513.83,-342.59"/>
<polygon fill="midnightblue" stroke="midnightblue" points="517.3,-343.04 515.24,-332.65 510.37,-342.06 517.3,-343.04"/>
</g>
<!-- Node8&#45;&gt;Node2 -->
<g id="edge8" class="edge">
<title>Node8&#45;&gt;Node2</title>
<path fill="none" stroke="midnightblue" d="M231.31,-246.37C190.56,-211.86 86.21,-123.49 44.07,-87.8"/>
<polygon fill="midnightblue" stroke="midnightblue" points="46.17,-85 36.28,-81.21 41.65,-90.34 46.17,-85"/>
</g>
<!-- Node8&#45;&gt;Node3 -->
<g id="edge9" class="edge">
<title>Node8&#45;&gt;Node3</title>
<path fill="none" stroke="midnightblue" d="M257.95,-246.4C263.99,-237.84 271.74,-226.87 278.1,-217.86"/>
<polygon fill="midnightblue" stroke="midnightblue" points="280.98,-219.85 283.89,-209.66 275.26,-215.81 280.98,-219.85"/>
</g>
<!-- Node9 -->
<g id="node9" class="node">
<title>Node9</title>
<g id="a_node9"><a xlink:title=" ">
<polygon fill="none" stroke="#bfbfbf" points="329,-190.5 329,-209.5 373,-209.5 373,-190.5 329,-190.5"/>
<text text-anchor="middle" x="351" y="-197.5" font-family="Helvetica,sans-Serif" font-size="10.00">vector</text>
</a>
</g>
</g>
<!-- Node8&#45;&gt;Node9 -->
<g id="edge10" class="edge">
<title>Node8&#45;&gt;Node9</title>
<path fill="none" stroke="midnightblue" d="M272.41,-246.4C288.92,-236.86 310.62,-224.32 327.04,-214.84"/>
<polygon fill="midnightblue" stroke="midnightblue" points="329.1,-217.69 336.01,-209.66 325.6,-211.63 329.1,-217.69"/>
</g>
<!-- Node10 -->
<g id="node10" class="node">
<title>Node10</title>
<g id="a_node10"><a xlink:href="Vector_8h_source.html" target="_top" xlink:title=" ">
<polygon fill="none" stroke="black" points="135,-123.5 135,-153.5 271,-153.5 271,-123.5 135,-123.5"/>
<text text-anchor="start" x="143" y="-141.5" font-family="Helvetica,sans-Serif" font-size="10.00">BipedalLocomotion/Generic</text>
<text text-anchor="middle" x="203" y="-130.5" font-family="Helvetica,sans-Serif" font-size="10.00">Container/Vector.h</text>
</a>
</g>
</g>
<!-- Node8&#45;&gt;Node10 -->
<g id="edge11" class="edge">
<title>Node8&#45;&gt;Node10</title>
<path fill="none" stroke="midnightblue" d="M241.87,-246.45C237.54,-236.37 231.7,-222.44 227,-210 221.18,-194.58 215.2,-177.03 210.67,-163.3"/>
<polygon fill="midnightblue" stroke="midnightblue" points="213.94,-162.06 207.51,-153.64 207.29,-164.23 213.94,-162.06"/>
</g>
<!-- Node12 -->
<g id="node12" class="node">
<title>Node12</title>
<g id="a_node12"><a xlink:href="TemplateHelpers_8h_source.html" target="_top" xlink:title=" ">
<polygon fill="none" stroke="black" points="346.5,-56.5 346.5,-86.5 489.5,-86.5 489.5,-56.5 346.5,-56.5"/>
<text text-anchor="start" x="354.5" y="-74.5" font-family="Helvetica,sans-Serif" font-size="10.00">BipedalLocomotion/Generic</text>
<text text-anchor="middle" x="418" y="-63.5" font-family="Helvetica,sans-Serif" font-size="10.00">Container/TemplateHelpers.h</text>
</a>
</g>
</g>
<!-- Node8&#45;&gt;Node12 -->
<g id="edge21" class="edge">
<title>Node8&#45;&gt;Node12</title>
<path fill="none" stroke="midnightblue" d="M247.41,-246.45C247.43,-231.41 249.36,-207.36 260,-190 288,-144.33 340.93,-110.54 377.78,-91.2"/>
<polygon fill="midnightblue" stroke="midnightblue" points="379.46,-94.27 386.77,-86.6 376.27,-88.04 379.46,-94.27"/>
</g>
<!-- Node10&#45;&gt;Node2 -->
<g id="edge20" class="edge">
<title>Node10&#45;&gt;Node2</title>
<path fill="none" stroke="midnightblue" d="M161.78,-123.47C133.33,-113.63 94.7,-99.96 61,-87 59.35,-86.37 57.67,-85.71 55.97,-85.03"/>
<polygon fill="midnightblue" stroke="midnightblue" points="56.87,-81.62 46.29,-81.11 54.24,-88.11 56.87,-81.62"/>
</g>
<!-- Node11 -->
<g id="node11" class="node">
<title>Node11</title>
<g id="a_node11"><a xlink:title=" ">
<polygon fill="none" stroke="#bfbfbf" points="70,-62 70,-81 184,-81 184,-62 70,-62"/>
<text text-anchor="middle" x="127" y="-69" font-family="Helvetica,sans-Serif" font-size="10.00">iDynTree/Core/Span.h</text>
</a>
</g>
</g>
<!-- Node10&#45;&gt;Node11 -->
<g id="edge12" class="edge">
<title>Node10&#45;&gt;Node11</title>
<path fill="none" stroke="midnightblue" d="M186.51,-123.4C174.31,-112.96 157.69,-98.75 145.12,-88"/>
<polygon fill="midnightblue" stroke="midnightblue" points="147.04,-85.03 137.17,-81.19 142.49,-90.35 147.04,-85.03"/>
</g>
<!-- Node10&#45;&gt;Node12 -->
<g id="edge13" class="edge">
<title>Node10&#45;&gt;Node12</title>
<path fill="none" stroke="midnightblue" d="M249.39,-123.48C282.34,-113.51 326.75,-100.09 361.73,-89.51"/>
<polygon fill="midnightblue" stroke="midnightblue" points="362.77,-92.86 371.33,-86.61 360.74,-86.15 362.77,-92.86"/>
</g>
<!-- Node16 -->
<g id="node16" class="node">
<title>Node16</title>
<g id="a_node16"><a xlink:title=" ">
<polygon fill="none" stroke="#bfbfbf" points="202.5,-62 202.5,-81 261.5,-81 261.5,-62 202.5,-62"/>
<text text-anchor="middle" x="232" y="-69" font-family="Helvetica,sans-Serif" font-size="10.00">functional</text>
</a>
</g>
</g>
<!-- Node10&#45;&gt;Node16 -->
<g id="edge17" class="edge">
<title>Node10&#45;&gt;Node16</title>
<path fill="none" stroke="midnightblue" d="M209.29,-123.4C213.59,-113.76 219.32,-100.91 223.95,-90.54"/>
<polygon fill="midnightblue" stroke="midnightblue" points="227.24,-91.75 228.12,-81.19 220.85,-88.9 227.24,-91.75"/>
</g>
<!-- Node17 -->
<g id="node17" class="node">
<title>Node17</title>
<g id="a_node17"><a xlink:title=" ">
<polygon fill="none" stroke="#bfbfbf" points="279.5,-62 279.5,-81 328.5,-81 328.5,-62 279.5,-62"/>
<text text-anchor="middle" x="304" y="-69" font-family="Helvetica,sans-Serif" font-size="10.00">cassert</text>
</a>
</g>
</g>
<!-- Node10&#45;&gt;Node17 -->
<g id="edge18" class="edge">
<title>Node10&#45;&gt;Node17</title>
<path fill="none" stroke="midnightblue" d="M224.92,-123.4C241.85,-112.5 265.19,-97.48 282.12,-86.58"/>
<polygon fill="midnightblue" stroke="midnightblue" points="284.27,-89.36 290.78,-81.01 280.48,-83.48 284.27,-89.36"/>
</g>
<!-- Node18 -->
<g id="node18" class="node">
<title>Node18</title>
<g id="a_node18"><a xlink:title=" ">
<polygon fill="none" stroke="#bfbfbf" points="508,-62 508,-81 562,-81 562,-62 508,-62"/>
<text text-anchor="middle" x="535" y="-69" font-family="Helvetica,sans-Serif" font-size="10.00">iostream</text>
</a>
</g>
</g>
<!-- Node10&#45;&gt;Node18 -->
<g id="edge19" class="edge">
<title>Node10&#45;&gt;Node18</title>
<path fill="none" stroke="midnightblue" d="M271.22,-130.07C331.81,-122.48 422.38,-108.7 499,-87 501.44,-86.31 503.94,-85.51 506.43,-84.64"/>
<polygon fill="midnightblue" stroke="midnightblue" points="507.71,-87.9 515.83,-81.1 505.24,-81.35 507.71,-87.9"/>
</g>
<!-- Node13 -->
<g id="node13" class="node">
<title>Node13</title>
<g id="a_node13"><a xlink:title=" ">
<polygon fill="none" stroke="#bfbfbf" points="559,-0.5 559,-19.5 621,-19.5 621,-0.5 559,-0.5"/>
<text text-anchor="middle" x="590" y="-7.5" font-family="Helvetica,sans-Serif" font-size="10.00">type_traits</text>
</a>
</g>
</g>
<!-- Node12&#45;&gt;Node13 -->
<g id="edge14" class="edge">
<title>Node12&#45;&gt;Node13</title>
<path fill="none" stroke="midnightblue" d="M458.76,-56.4C488.22,-46.21 527.59,-32.59 555.5,-22.93"/>
<polygon fill="midnightblue" stroke="midnightblue" points="556.92,-26.15 565.22,-19.57 554.63,-19.53 556.92,-26.15"/>
</g>
<!-- Node14 -->
<g id="node14" class="node">
<title>Node14</title>
<g id="a_node14"><a xlink:title=" ">
<polygon fill="none" stroke="#bfbfbf" points="427,-0.5 427,-19.5 493,-19.5 493,-0.5 427,-0.5"/>
<text text-anchor="middle" x="460" y="-7.5" font-family="Helvetica,sans-Serif" font-size="10.00">string_view</text>
</a>
</g>
</g>
<!-- Node12&#45;&gt;Node14 -->
<g id="edge15" class="edge">
<title>Node12&#45;&gt;Node14</title>
<path fill="none" stroke="midnightblue" d="M427.95,-56.4C433.99,-47.84 441.74,-36.87 448.1,-27.86"/>
<polygon fill="midnightblue" stroke="midnightblue" points="450.98,-29.85 453.89,-19.66 445.26,-25.81 450.98,-29.85"/>
</g>
<!-- Node15 -->
<g id="node15" class="node">
<title>Node15</title>
<g id="a_node15"><a xlink:title=" ">
<polygon fill="none" stroke="#bfbfbf" points="343.5,-0.5 343.5,-19.5 408.5,-19.5 408.5,-0.5 343.5,-0.5"/>
<text text-anchor="middle" x="376" y="-7.5" font-family="Helvetica,sans-Serif" font-size="10.00">Eigen/Core</text>
</a>
</g>
</g>
<!-- Node12&#45;&gt;Node15 -->
<g id="edge16" class="edge">
<title>Node12&#45;&gt;Node15</title>
<path fill="none" stroke="midnightblue" d="M408.05,-56.4C402.01,-47.84 394.26,-36.87 387.9,-27.86"/>
<polygon fill="midnightblue" stroke="midnightblue" points="390.74,-25.81 382.11,-19.66 385.02,-29.85 390.74,-25.81"/>
</g>
<!-- Node19&#45;&gt;Node1 -->
<g id="edge37" class="edge">
<title>Node19&#45;&gt;Node1</title>
<path fill="none" stroke="midnightblue" d="M524.76,-332.65C526.23,-339.52 526.88,-349.56 526.73,-359.26"/>
<polygon fill="midnightblue" stroke="midnightblue" points="523.22,-359.34 526.25,-369.5 530.21,-359.67 523.22,-359.34"/>
</g>
<!-- Node19&#45;&gt;Node13 -->
<g id="edge23" class="edge">
<title>Node19&#45;&gt;Node13</title>
<path fill="none" stroke="midnightblue" d="M579.77,-314.08C741.22,-292.28 1174,-231.06 1174,-201 1174,-201 1174,-201 1174,-137.5 1174,-26.39 765.15,-12.65 631.63,-11.13"/>
<polygon fill="midnightblue" stroke="midnightblue" points="631.43,-7.63 621.4,-11.03 631.36,-14.63 631.43,-7.63"/>
</g>
<!-- Node20 -->
<g id="node20" class="node">
<title>Node20</title>
<g id="a_node20"><a xlink:href="Helper_8h.html" target="_top" xlink:title=" ">
<polygon fill="none" stroke="black" points="527.5,-246.5 527.5,-276.5 682.5,-276.5 682.5,-246.5 527.5,-246.5"/>
<text text-anchor="start" x="535.5" y="-264.5" font-family="Helvetica,sans-Serif" font-size="10.00">BipedalLocomotion/YarpUtilities</text>
<text text-anchor="middle" x="605" y="-253.5" font-family="Helvetica,sans-Serif" font-size="10.00">/Helper.h</text>
</a>
</g>
</g>
<!-- Node19&#45;&gt;Node20 -->
<g id="edge24" class="edge">
<title>Node19&#45;&gt;Node20</title>
<path fill="none" stroke="midnightblue" d="M532.18,-313.48C543.69,-305.42 561.4,-293.02 576.47,-282.47"/>
<polygon fill="midnightblue" stroke="midnightblue" points="578.78,-285.12 584.97,-276.52 574.77,-279.39 578.78,-285.12"/>
</g>
<!-- Node20&#45;&gt;Node6 -->
<g id="edge28" class="edge">
<title>Node20&#45;&gt;Node6</title>
<path fill="none" stroke="midnightblue" d="M565.66,-246.4C537.44,-236.28 499.79,-222.79 472.9,-213.15"/>
<polygon fill="midnightblue" stroke="midnightblue" points="473.75,-209.74 463.15,-209.66 471.39,-216.33 473.75,-209.74"/>
</g>
<!-- Node20&#45;&gt;Node9 -->
<g id="edge26" class="edge">
<title>Node20&#45;&gt;Node9</title>
<path fill="none" stroke="midnightblue" d="M539.22,-246.45C497.27,-237.28 441.54,-224.7 383.12,-209.93"/>
<polygon fill="midnightblue" stroke="midnightblue" points="383.9,-206.51 373.34,-207.44 382.17,-213.3 383.9,-206.51"/>
</g>
<!-- Node21 -->
<g id="node21" class="node">
<title>Node21</title>
<g id="a_node21"><a xlink:title=" ">
<polygon fill="none" stroke="#bfbfbf" points="583.5,-190.5 583.5,-209.5 626.5,-209.5 626.5,-190.5 583.5,-190.5"/>
<text text-anchor="middle" x="605" y="-197.5" font-family="Helvetica,sans-Serif" font-size="10.00">deque</text>
</a>
</g>
</g>
<!-- Node20&#45;&gt;Node21 -->
<g id="edge25" class="edge">
<title>Node20&#45;&gt;Node21</title>
<path fill="none" stroke="midnightblue" d="M605,-246.4C605,-238.47 605,-228.46 605,-219.86"/>
<polygon fill="midnightblue" stroke="midnightblue" points="608.5,-219.66 605,-209.66 601.5,-219.66 608.5,-219.66"/>
</g>
<!-- Node22 -->
<g id="node22" class="node">
<title>Node22</title>
<g id="a_node22"><a xlink:title=" ">
<polygon fill="none" stroke="#bfbfbf" points="644.5,-190.5 644.5,-209.5 759.5,-209.5 759.5,-190.5 644.5,-190.5"/>
<text text-anchor="middle" x="702" y="-197.5" font-family="Helvetica,sans-Serif" font-size="10.00">yarp/os/BufferedPort.h</text>
</a>
</g>
</g>
<!-- Node20&#45;&gt;Node22 -->
<g id="edge27" class="edge">
<title>Node20&#45;&gt;Node22</title>
<path fill="none" stroke="midnightblue" d="M627.99,-246.4C643.39,-236.95 663.59,-224.56 679,-215.11"/>
<polygon fill="midnightblue" stroke="midnightblue" points="681.19,-217.87 687.89,-209.66 677.53,-211.9 681.19,-217.87"/>
</g>
<!-- Node23 -->
<g id="node23" class="node">
<title>Node23</title>
<g id="a_node23"><a xlink:title=" ">
<polygon fill="none" stroke="#bfbfbf" points="778,-190.5 778,-209.5 862,-209.5 862,-190.5 778,-190.5"/>
<text text-anchor="middle" x="820" y="-197.5" font-family="Helvetica,sans-Serif" font-size="10.00">yarp/os/Value.h</text>
</a>
</g>
</g>
<!-- Node20&#45;&gt;Node23 -->
<g id="edge29" class="edge">
<title>Node20&#45;&gt;Node23</title>
<path fill="none" stroke="midnightblue" d="M655.68,-246.47C693.42,-236.03 744.27,-221.96 779.36,-212.25"/>
<polygon fill="midnightblue" stroke="midnightblue" points="780.56,-215.55 789.26,-209.51 778.69,-208.8 780.56,-215.55"/>
</g>
<!-- Node24 -->
<g id="node24" class="node">
<title>Node24</title>
<g id="a_node24"><a xlink:title=" ">
<polygon fill="none" stroke="#bfbfbf" points="880,-190.5 880,-209.5 970,-209.5 970,-190.5 880,-190.5"/>
<text text-anchor="middle" x="925" y="-197.5" font-family="Helvetica,sans-Serif" font-size="10.00">yarp/sig/Vector.h</text>
</a>
</g>
</g>
<!-- Node20&#45;&gt;Node24 -->
<g id="edge30" class="edge">
<title>Node20&#45;&gt;Node24</title>
<path fill="none" stroke="midnightblue" d="M680.43,-246.47C738.46,-235.68 817.32,-221.02 869.62,-211.3"/>
<polygon fill="midnightblue" stroke="midnightblue" points="870.52,-214.69 879.72,-209.42 869.24,-207.81 870.52,-214.69"/>
</g>
<!-- Node25 -->
<g id="node25" class="node">
<title>Node25</title>
<g id="a_node25"><a xlink:title=" ">
<polygon fill="none" stroke="#bfbfbf" points="988,-190.5 988,-209.5 1146,-209.5 1146,-190.5 988,-190.5"/>
<text text-anchor="middle" x="1067" y="-197.5" font-family="Helvetica,sans-Serif" font-size="10.00">iDynTree/Core/VectorDynSize.h</text>
</a>
</g>
</g>
<!-- Node20&#45;&gt;Node25 -->
<g id="edge31" class="edge">
<title>Node20&#45;&gt;Node25</title>
<path fill="none" stroke="midnightblue" d="M682.59,-250.51C768.29,-239.47 905.41,-221.81 990.62,-210.84"/>
<polygon fill="midnightblue" stroke="midnightblue" points="991.28,-214.28 1000.75,-209.53 990.38,-207.34 991.28,-214.28"/>
</g>
<!-- Node26 -->
<g id="node26" class="node">
<title>Node26</title>
<g id="a_node26"><a xlink:href="Helper_8tpp.html" target="_top" xlink:title=" ">
<polygon fill="none" stroke="black" points="504.5,-190.5 504.5,-209.5 565.5,-209.5 565.5,-190.5 504.5,-190.5"/>
<text text-anchor="middle" x="535" y="-197.5" font-family="Helvetica,sans-Serif" font-size="10.00">Helper.tpp</text>
</a>
</g>
</g>
<!-- Node20&#45;&gt;Node26 -->
<g id="edge32" class="edge">
<title>Node20&#45;&gt;Node26</title>
<path fill="none" stroke="midnightblue" d="M588.41,-246.4C577.71,-237.31 563.81,-225.49 552.87,-216.19"/>
<polygon fill="midnightblue" stroke="midnightblue" points="555.07,-213.47 545.19,-209.66 550.54,-218.8 555.07,-213.47"/>
</g>
<!-- Node26&#45;&gt;Node10 -->
<g id="edge36" class="edge">
<title>Node26&#45;&gt;Node10</title>
<path fill="none" stroke="midnightblue" d="M504.38,-191.76C501.55,-191.15 498.72,-190.55 496,-190 423.53,-175.4 340.45,-161.33 281.3,-151.77"/>
<polygon fill="midnightblue" stroke="midnightblue" points="281.72,-148.29 271.29,-150.16 280.6,-155.2 281.72,-148.29"/>
</g>
<!-- Node26&#45;&gt;Node12 -->
<g id="edge35" class="edge">
<title>Node26&#45;&gt;Node12</title>
<path fill="none" stroke="midnightblue" d="M526.96,-190.31C508.84,-170.71 464.35,-122.62 438.17,-94.31"/>
<polygon fill="midnightblue" stroke="midnightblue" points="440.67,-91.85 431.31,-86.89 435.53,-96.61 440.67,-91.85"/>
</g>
<!-- Node26&#45;&gt;Node13 -->
<g id="edge34" class="edge">
<title>Node26&#45;&gt;Node13</title>
<path fill="none" stroke="midnightblue" d="M538,-190.35C544.44,-171.62 559.9,-125.89 571,-87 576.53,-67.64 582.02,-45.25 585.66,-29.81"/>
<polygon fill="midnightblue" stroke="midnightblue" points="589.1,-30.48 587.97,-19.94 582.28,-28.89 589.1,-30.48"/>
</g>
<!-- Node26&#45;&gt;Node18 -->
<g id="edge33" class="edge">
<title>Node26&#45;&gt;Node18</title>
<path fill="none" stroke="midnightblue" d="M535,-190.31C535,-169.99 535,-119.05 535,-91.28"/>
<polygon fill="midnightblue" stroke="midnightblue" points="538.5,-91.26 535,-81.26 531.5,-91.26 538.5,-91.26"/>
</g>
</g>
</svg>
        <g id="navigator" transform="translate(0 0)" fill="#404254">
                <rect fill="#f2f5e9" fill-opacity="0.5" stroke="#606060" stroke-width=".5" x="0" y="0" width="60" height="60"/>
                <use id="zoomplus" xlink:href="#zoomPlus" x="17" y="9" onmousedown="handleZoom(evt,'in')"/>
                <use id="zoomminus" xlink:href="#zoomMin" x="42" y="9" onmousedown="handleZoom(evt,'out')"/>
                <use id="reset" xlink:href="#resetDef" x="30" y="36" onmousedown="handleReset()"/>
                <g id="arrowUp" xlink:href="#dirArrow" transform="translate(30 24)" onmousedown="handlePan(0,-1)">
                  <use xlink:href="#rim" fill="#404040">
                        <set attributeName="fill" to="#808080" begin="arrowUp.mouseover" end="arrowUp.mouseout"/>
                  </use>
                  <path fill="none" stroke="white" stroke-width="1.5" d="M0,-3.0v7 M-2.5,-0.5L0,-3.0L2.5,-0.5"/>
                </g>
                <g id="arrowRight" xlink:href="#dirArrow" transform="rotate(90) translate(36 -43)" onmousedown="handlePan(1,0)">
                  <use xlink:href="#rim" fill="#404040">
                        <set attributeName="fill" to="#808080" begin="arrowRight.mouseover" end="arrowRight.mouseout"/>
                  </use>
                  <path fill="none" stroke="white" stroke-width="1.5" d="M0,-3.0v7 M-2.5,-0.5L0,-3.0L2.5,-0.5"/>
                </g>
                <g id="arrowDown" xlink:href="#dirArrow" transform="rotate(180) translate(-30 -48)" onmousedown="handlePan(0,1)">
                  <use xlink:href="#rim" fill="#404040">
                        <set attributeName="fill" to="#808080" begin="arrowDown.mouseover" end="arrowDown.mouseout"/>
                  </use>
                  <path fill="none" stroke="white" stroke-width="1.5" d="M0,-3.0v7 M-2.5,-0.5L0,-3.0L2.5,-0.5"/>
                </g>
                <g id="arrowLeft" xlink:href="#dirArrow" transform="rotate(270) translate(-36 17)" onmousedown="handlePan(-1,0)">
                  <use xlink:href="#rim" fill="#404040">
                        <set attributeName="fill" to="#808080" begin="arrowLeft.mouseover" end="arrowLeft.mouseout"/>
                  </use>
                  <path fill="none" stroke="white" stroke-width="1.5" d="M0,-3.0v7 M-2.5,-0.5L0,-3.0L2.5,-0.5"/>
                </g>
        </g>
        <svg viewBox="0 0 15 15" width="100%" height="30px" preserveAspectRatio="xMaxYMin meet">
         <g id="arrow_out" transform="scale(0.3 0.3)">
          <a xlink:href="YarpImplementation_8h__incl_org.svg" target="_base">
           <rect id="button" ry="5" rx="5" y="6" x="6" height="38" width="38"
                fill="#f2f5e9" fill-opacity="0.5" stroke="#606060" stroke-width="1.0"/>
           <path id="arrow"
             d="M 11.500037,31.436501 C 11.940474,20.09759 22.043105,11.32322 32.158766,21.979434 L 37.068811,17.246167 C 37.068811,17.246167 37.088388,32 37.088388,32 L 22.160133,31.978069 C 22.160133,31.978069 26.997745,27.140456 26.997745,27.140456 C 18.528582,18.264221 13.291696,25.230495 11.500037,31.436501 z"
             style="fill:#404040;"/>
          </a>
         </g>
        </svg>
</svg>
