<?xml version="1.0" encoding="UTF-8" standalone="no"?>
<!DOCTYPE svg PUBLIC "-//W3C//DTD SVG 1.1//EN"
 "http://www.w3.org/Graphics/SVG/1.1/DTD/svg11.dtd">
<!-- Generated by graphviz version 2.43.0 (0)
 -->
<!-- Title: RobotInterface/YarpImplementation/include/BipedalLocomotion/RobotInterface/YarpRobotControl.h Pages: 1 -->
<svg width="616pt" height="374pt"
 viewBox="0.00 0.00 615.50 374.00" xmlns="http://www.w3.org/2000/svg" xmlns:xlink="http://www.w3.org/1999/xlink">
<g id="graph0" class="graph" transform="scale(1 1) rotate(0) translate(4 370)">
<title>RobotInterface/YarpImplementation/include/BipedalLocomotion/RobotInterface/YarpRobotControl.h</title>
<!-- Node1 -->
<g id="node1" class="node">
<title>Node1</title>
<g id="a_node1"><a xlink:title=" ">
<polygon fill="#bfbfbf" stroke="black" points="197.5,-324.5 197.5,-365.5 370.5,-365.5 370.5,-324.5 197.5,-324.5"/>
<text text-anchor="start" x="205.5" y="-353.5" font-family="Helvetica,sans-Serif" font-size="10.00">RobotInterface/YarpImplementation</text>
<text text-anchor="start" x="205.5" y="-342.5" font-family="Helvetica,sans-Serif" font-size="10.00">/include/BipedalLocomotion</text>
<text text-anchor="middle" x="284" y="-331.5" font-family="Helvetica,sans-Serif" font-size="10.00">/RobotInterface/YarpRobotControl.h</text>
</a>
</g>
</g>
<!-- Node2 -->
<g id="node2" class="node">
<title>Node2</title>
<g id="a_node2"><a xlink:title=" ">
<polygon fill="none" stroke="#bfbfbf" points="0,-62 0,-81 52,-81 52,-62 0,-62"/>
<text text-anchor="middle" x="26" y="-69" font-family="Helvetica,sans-Serif" font-size="10.00">memory</text>
</a>
</g>
</g>
<!-- Node1&#45;&gt;Node2 -->
<g id="edge1" class="edge">
<title>Node1&#45;&gt;Node2</title>
<path fill="none" stroke="midnightblue" d="M203.02,-324.41C179.62,-315.96 155.23,-304.19 136,-288 71.84,-233.97 40.84,-133.11 30.31,-91.35"/>
<polygon fill="midnightblue" stroke="midnightblue" points="33.67,-90.34 27.92,-81.44 26.86,-91.98 33.67,-90.34"/>
</g>
<!-- Node3 -->
<g id="node3" class="node">
<title>Node3</title>
<g id="a_node3"><a xlink:title=" ">
<polygon fill="none" stroke="#bfbfbf" points="323.5,-196 323.5,-215 396.5,-215 396.5,-196 323.5,-196"/>
<text text-anchor="middle" x="360" y="-203" font-family="Helvetica,sans-Serif" font-size="10.00">Eigen/Dense</text>
</a>
</g>
</g>
<!-- Node1&#45;&gt;Node3 -->
<g id="edge2" class="edge">
<title>Node1&#45;&gt;Node3</title>
<path fill="none" stroke="midnightblue" d="M297.87,-324.46C305.12,-313.89 313.94,-300.47 321,-288 333.03,-266.75 344.85,-241.2 352.27,-224.44"/>
<polygon fill="midnightblue" stroke="midnightblue" points="355.48,-225.83 356.28,-215.26 349.07,-223.03 355.48,-225.83"/>
</g>
<!-- Node4 -->
<g id="node4" class="node">
<title>Node4</title>
<g id="a_node4"><a xlink:title=" ">
<polygon fill="none" stroke="#bfbfbf" points="368,-263 368,-282 478,-282 478,-263 368,-263"/>
<text text-anchor="middle" x="423" y="-270" font-family="Helvetica,sans-Serif" font-size="10.00">yarp/dev/PolyDriver.h</text>
</a>
</g>
</g>
<!-- Node1&#45;&gt;Node4 -->
<g id="edge3" class="edge">
<title>Node1&#45;&gt;Node4</title>
<path fill="none" stroke="midnightblue" d="M322.72,-324.36C346.4,-312.35 376.07,-297.3 396.97,-286.7"/>
<polygon fill="midnightblue" stroke="midnightblue" points="398.56,-289.82 405.9,-282.17 395.4,-283.58 398.56,-289.82"/>
</g>
<!-- Node5 -->
<g id="node5" class="node">
<title>Node5</title>
<g id="a_node5"><a xlink:href="IRobotControl_8h.html" target="_top" xlink:title=" ">
<polygon fill="none" stroke="black" points="145.5,-257.5 145.5,-287.5 312.5,-287.5 312.5,-257.5 145.5,-257.5"/>
<text text-anchor="start" x="153.5" y="-275.5" font-family="Helvetica,sans-Serif" font-size="10.00">BipedalLocomotion/RobotInterface</text>
<text text-anchor="middle" x="229" y="-264.5" font-family="Helvetica,sans-Serif" font-size="10.00">/IRobotControl.h</text>
</a>
</g>
</g>
<!-- Node1&#45;&gt;Node5 -->
<g id="edge4" class="edge">
<title>Node1&#45;&gt;Node5</title>
<path fill="none" stroke="midnightblue" d="M268.68,-324.36C261.77,-315.5 253.57,-305 246.43,-295.84"/>
<polygon fill="midnightblue" stroke="midnightblue" points="249.14,-293.62 240.23,-287.89 243.62,-297.93 249.14,-293.62"/>
</g>
<!-- Node5&#45;&gt;Node2 -->
<g id="edge5" class="edge">
<title>Node5&#45;&gt;Node2</title>
<path fill="none" stroke="midnightblue" d="M199.31,-257.3C182.13,-248.27 160.68,-235.56 144,-221 97.42,-180.33 55.69,-119.43 36.75,-89.86"/>
<polygon fill="midnightblue" stroke="midnightblue" points="39.52,-87.69 31.23,-81.1 33.6,-91.43 39.52,-87.69"/>
</g>
<!-- Node5&#45;&gt;Node3 -->
<g id="edge6" class="edge">
<title>Node5&#45;&gt;Node3</title>
<path fill="none" stroke="midnightblue" d="M257.43,-257.4C280.11,-246.14 311.63,-230.5 333.72,-219.54"/>
<polygon fill="midnightblue" stroke="midnightblue" points="335.45,-222.59 342.86,-215.01 332.34,-216.32 335.45,-222.59"/>
</g>
<!-- Node6 -->
<g id="node6" class="node">
<title>Node6</title>
<g id="a_node6"><a xlink:href="IParametersHandler_8h.html" target="_top" xlink:title=" ">
<polygon fill="none" stroke="black" points="153,-190.5 153,-220.5 305,-220.5 305,-190.5 153,-190.5"/>
<text text-anchor="start" x="161" y="-208.5" font-family="Helvetica,sans-Serif" font-size="10.00">BipedalLocomotion/Parameters</text>
<text text-anchor="middle" x="229" y="-197.5" font-family="Helvetica,sans-Serif" font-size="10.00">Handler/IParametersHandler.h</text>
</a>
</g>
</g>
<!-- Node5&#45;&gt;Node6 -->
<g id="edge7" class="edge">
<title>Node5&#45;&gt;Node6</title>
<path fill="none" stroke="midnightblue" d="M229,-257.4C229,-249.64 229,-239.81 229,-230.86"/>
<polygon fill="midnightblue" stroke="midnightblue" points="232.5,-230.58 229,-220.58 225.5,-230.58 232.5,-230.58"/>
</g>
<!-- Node6&#45;&gt;Node2 -->
<g id="edge8" class="edge">
<title>Node6&#45;&gt;Node2</title>
<path fill="none" stroke="midnightblue" d="M207.28,-190.37C168.26,-165.01 86.77,-112.02 47.75,-86.64"/>
<polygon fill="midnightblue" stroke="midnightblue" points="49.51,-83.61 39.22,-81.1 45.7,-89.48 49.51,-83.61"/>
</g>
<!-- Node7 -->
<g id="node7" class="node">
<title>Node7</title>
<g id="a_node7"><a xlink:title=" ">
<polygon fill="none" stroke="#bfbfbf" points="315.5,-129 315.5,-148 356.5,-148 356.5,-129 315.5,-129"/>
<text text-anchor="middle" x="336" y="-136" font-family="Helvetica,sans-Serif" font-size="10.00">string</text>
</a>
</g>
</g>
<!-- Node6&#45;&gt;Node7 -->
<g id="edge9" class="edge">
<title>Node6&#45;&gt;Node7</title>
<path fill="none" stroke="midnightblue" d="M252.22,-190.4C270.33,-179.39 295.34,-164.2 313.31,-153.28"/>
<polygon fill="midnightblue" stroke="midnightblue" points="315.27,-156.19 322,-148.01 311.63,-150.21 315.27,-156.19"/>
</g>
<!-- Node8 -->
<g id="node8" class="node">
<title>Node8</title>
<g id="a_node8"><a xlink:title=" ">
<polygon fill="none" stroke="#bfbfbf" points="375,-129 375,-148 419,-148 419,-129 375,-129"/>
<text text-anchor="middle" x="397" y="-136" font-family="Helvetica,sans-Serif" font-size="10.00">vector</text>
</a>
</g>
</g>
<!-- Node6&#45;&gt;Node8 -->
<g id="edge10" class="edge">
<title>Node6&#45;&gt;Node8</title>
<path fill="none" stroke="midnightblue" d="M269.16,-190.42C296.39,-180.67 333.09,-167.13 365,-154 366.41,-153.42 367.85,-152.81 369.3,-152.19"/>
<polygon fill="midnightblue" stroke="midnightblue" points="371.08,-155.24 378.82,-148 368.26,-148.83 371.08,-155.24"/>
</g>
<!-- Node9 -->
<g id="node9" class="node">
<title>Node9</title>
<g id="a_node9"><a xlink:href="Vector_8h_source.html" target="_top" xlink:title=" ">
<polygon fill="none" stroke="black" points="161,-123.5 161,-153.5 297,-153.5 297,-123.5 161,-123.5"/>
<text text-anchor="start" x="169" y="-141.5" font-family="Helvetica,sans-Serif" font-size="10.00">BipedalLocomotion/Generic</text>
<text text-anchor="middle" x="229" y="-130.5" font-family="Helvetica,sans-Serif" font-size="10.00">Container/Vector.h</text>
</a>
</g>
</g>
<!-- Node6&#45;&gt;Node9 -->
<g id="edge11" class="edge">
<title>Node6&#45;&gt;Node9</title>
<path fill="none" stroke="midnightblue" d="M229,-190.4C229,-182.64 229,-172.81 229,-163.86"/>
<polygon fill="midnightblue" stroke="midnightblue" points="232.5,-163.58 229,-153.58 225.5,-163.58 232.5,-163.58"/>
</g>
<!-- Node11 -->
<g id="node11" class="node">
<title>Node11</title>
<g id="a_node11"><a xlink:href="TemplateHelpers_8h_source.html" target="_top" xlink:title=" ">
<polygon fill="none" stroke="black" points="419.5,-56.5 419.5,-86.5 562.5,-86.5 562.5,-56.5 419.5,-56.5"/>
<text text-anchor="start" x="427.5" y="-74.5" font-family="Helvetica,sans-Serif" font-size="10.00">BipedalLocomotion/Generic</text>
<text text-anchor="middle" x="491" y="-63.5" font-family="Helvetica,sans-Serif" font-size="10.00">Container/TemplateHelpers.h</text>
</a>
</g>
</g>
<!-- Node6&#45;&gt;Node11 -->
<g id="edge21" class="edge">
<title>Node6&#45;&gt;Node11</title>
<path fill="none" stroke="midnightblue" d="M305.05,-190.54C352.23,-180.87 407.62,-167.37 428,-154 450.39,-139.31 468.13,-113.93 479.01,-95.39"/>
<polygon fill="midnightblue" stroke="midnightblue" points="482.07,-97.09 483.93,-86.66 475.97,-93.65 482.07,-97.09"/>
</g>
<!-- Node9&#45;&gt;Node2 -->
<g id="edge20" class="edge">
<title>Node9&#45;&gt;Node2</title>
<path fill="none" stroke="midnightblue" d="M177.47,-123.47C144,-113.99 99.59,-100.75 61,-87 59.14,-86.34 57.24,-85.63 55.33,-84.9"/>
<polygon fill="midnightblue" stroke="midnightblue" points="56.44,-81.58 45.85,-81.13 53.85,-88.08 56.44,-81.58"/>
</g>
<!-- Node10 -->
<g id="node10" class="node">
<title>Node10</title>
<g id="a_node10"><a xlink:title=" ">
<polygon fill="none" stroke="#bfbfbf" points="70,-62 70,-81 184,-81 184,-62 70,-62"/>
<text text-anchor="middle" x="127" y="-69" font-family="Helvetica,sans-Serif" font-size="10.00">iDynTree/Core/Span.h</text>
</a>
</g>
</g>
<!-- Node9&#45;&gt;Node10 -->
<g id="edge12" class="edge">
<title>Node9&#45;&gt;Node10</title>
<path fill="none" stroke="midnightblue" d="M206.87,-123.4C189.76,-112.5 166.2,-97.48 149.1,-86.58"/>
<polygon fill="midnightblue" stroke="midnightblue" points="150.66,-83.43 140.35,-81.01 146.9,-89.33 150.66,-83.43"/>
</g>
<!-- Node9&#45;&gt;Node11 -->
<g id="edge13" class="edge">
<title>Node9&#45;&gt;Node11</title>
<path fill="none" stroke="midnightblue" d="M285.53,-123.48C326.28,-113.37 381.43,-99.68 424.33,-89.04"/>
<polygon fill="midnightblue" stroke="midnightblue" points="425.26,-92.42 434.12,-86.61 423.57,-85.62 425.26,-92.42"/>
</g>
<!-- Node15 -->
<g id="node15" class="node">
<title>Node15</title>
<g id="a_node15"><a xlink:title=" ">
<polygon fill="none" stroke="#bfbfbf" points="202.5,-62 202.5,-81 261.5,-81 261.5,-62 202.5,-62"/>
<text text-anchor="middle" x="232" y="-69" font-family="Helvetica,sans-Serif" font-size="10.00">functional</text>
</a>
</g>
</g>
<!-- Node9&#45;&gt;Node15 -->
<g id="edge17" class="edge">
<title>Node9&#45;&gt;Node15</title>
<path fill="none" stroke="midnightblue" d="M229.65,-123.4C230.09,-113.96 230.66,-101.45 231.14,-91.19"/>
<polygon fill="midnightblue" stroke="midnightblue" points="234.63,-91.35 231.6,-81.19 227.64,-91.02 234.63,-91.35"/>
</g>
<!-- Node16 -->
<g id="node16" class="node">
<title>Node16</title>
<g id="a_node16"><a xlink:title=" ">
<polygon fill="none" stroke="#bfbfbf" points="279.5,-62 279.5,-81 328.5,-81 328.5,-62 279.5,-62"/>
<text text-anchor="middle" x="304" y="-69" font-family="Helvetica,sans-Serif" font-size="10.00">cassert</text>
</a>
</g>
</g>
<!-- Node9&#45;&gt;Node16 -->
<g id="edge18" class="edge">
<title>Node9&#45;&gt;Node16</title>
<path fill="none" stroke="midnightblue" d="M245.27,-123.4C257.32,-112.96 273.71,-98.75 286.12,-88"/>
<polygon fill="midnightblue" stroke="midnightblue" points="288.7,-90.39 293.97,-81.19 284.12,-85.1 288.7,-90.39"/>
</g>
<!-- Node17 -->
<g id="node17" class="node">
<title>Node17</title>
<g id="a_node17"><a xlink:title=" ">
<polygon fill="none" stroke="#bfbfbf" points="347,-62 347,-81 401,-81 401,-62 347,-62"/>
<text text-anchor="middle" x="374" y="-69" font-family="Helvetica,sans-Serif" font-size="10.00">iostream</text>
</a>
</g>
</g>
<!-- Node9&#45;&gt;Node17 -->
<g id="edge19" class="edge">
<title>Node9&#45;&gt;Node17</title>
<path fill="none" stroke="midnightblue" d="M260.46,-123.4C285.9,-111.99 321.4,-96.08 345.9,-85.1"/>
<polygon fill="midnightblue" stroke="midnightblue" points="347.33,-88.29 355.02,-81.01 344.47,-81.9 347.33,-88.29"/>
</g>
<!-- Node12 -->
<g id="node12" class="node">
<title>Node12</title>
<g id="a_node12"><a xlink:title=" ">
<polygon fill="none" stroke="#bfbfbf" points="378,-0.5 378,-19.5 440,-19.5 440,-0.5 378,-0.5"/>
<text text-anchor="middle" x="409" y="-7.5" font-family="Helvetica,sans-Serif" font-size="10.00">type_traits</text>
</a>
</g>
</g>
<!-- Node11&#45;&gt;Node12 -->
<g id="edge14" class="edge">
<title>Node11&#45;&gt;Node12</title>
<path fill="none" stroke="midnightblue" d="M471.57,-56.4C458.79,-47.13 442.11,-35.03 429.19,-25.65"/>
<polygon fill="midnightblue" stroke="midnightblue" points="431.08,-22.7 420.93,-19.66 426.97,-28.36 431.08,-22.7"/>
</g>
<!-- Node13 -->
<g id="node13" class="node">
<title>Node13</title>
<g id="a_node13"><a xlink:title=" ">
<polygon fill="none" stroke="#bfbfbf" points="458,-0.5 458,-19.5 524,-19.5 524,-0.5 458,-0.5"/>
<text text-anchor="middle" x="491" y="-7.5" font-family="Helvetica,sans-Serif" font-size="10.00">string_view</text>
</a>
</g>
</g>
<!-- Node11&#45;&gt;Node13 -->
<g id="edge15" class="edge">
<title>Node11&#45;&gt;Node13</title>
<path fill="none" stroke="midnightblue" d="M491,-56.4C491,-48.47 491,-38.46 491,-29.86"/>
<polygon fill="midnightblue" stroke="midnightblue" points="494.5,-29.66 491,-19.66 487.5,-29.66 494.5,-29.66"/>
</g>
<!-- Node14 -->
<g id="node14" class="node">
<title>Node14</title>
<g id="a_node14"><a xlink:title=" ">
<polygon fill="none" stroke="#bfbfbf" points="542.5,-0.5 542.5,-19.5 607.5,-19.5 607.5,-0.5 542.5,-0.5"/>
<text text-anchor="middle" x="575" y="-7.5" font-family="Helvetica,sans-Serif" font-size="10.00">Eigen/Core</text>
</a>
</g>
</g>
<!-- Node11&#45;&gt;Node14 -->
<g id="edge16" class="edge">
<title>Node11&#45;&gt;Node14</title>
<path fill="none" stroke="midnightblue" d="M510.91,-56.4C523.99,-47.13 541.08,-35.03 554.32,-25.65"/>
<polygon fill="midnightblue" stroke="midnightblue" points="556.64,-28.29 562.78,-19.66 552.59,-22.58 556.64,-28.29"/>
</g>
</g>
</svg>
