<?xml version="1.0" encoding="UTF-8" standalone="no"?>
<!DOCTYPE svg PUBLIC "-//W3C//DTD SVG 1.1//EN"
 "http://www.w3.org/Graphics/SVG/1.1/DTD/svg11.dtd">
<!-- Generated by graphviz version 2.43.0 (0)
 -->
<!-- Title: RobotInterface/YarpImplementation/src/YarpHelper.cpp Pages: 1 -->
<svg width="612pt" height="363pt"
 viewBox="0.00 0.00 612.00 363.00" xmlns="http://www.w3.org/2000/svg" xmlns:xlink="http://www.w3.org/1999/xlink">
<g id="graph0" class="graph" transform="scale(1 1) rotate(0) translate(4 359)">
<title>RobotInterface/YarpImplementation/src/YarpHelper.cpp</title>
<!-- Node1 -->
<g id="node1" class="node">
<title>Node1</title>
<g id="a_node1"><a xlink:title=" ">
<polygon fill="#bfbfbf" stroke="black" points="335,-324.5 335,-354.5 505,-354.5 505,-324.5 335,-324.5"/>
<text text-anchor="start" x="343" y="-342.5" font-family="Helvetica,sans-Serif" font-size="10.00">RobotInterface/YarpImplementation</text>
<text text-anchor="middle" x="420" y="-331.5" font-family="Helvetica,sans-Serif" font-size="10.00">/src/YarpHelper.cpp</text>
</a>
</g>
</g>
<!-- Node2 -->
<g id="node2" class="node">
<title>Node2</title>
<g id="a_node2"><a xlink:href="YarpHelper_8h.html" target="_top" xlink:title=" ">
<polygon fill="none" stroke="black" points="336.5,-257.5 336.5,-287.5 503.5,-287.5 503.5,-257.5 336.5,-257.5"/>
<text text-anchor="start" x="344.5" y="-275.5" font-family="Helvetica,sans-Serif" font-size="10.00">BipedalLocomotion/RobotInterface</text>
<text text-anchor="middle" x="420" y="-264.5" font-family="Helvetica,sans-Serif" font-size="10.00">/YarpHelper.h</text>
</a>
</g>
</g>
<!-- Node1&#45;&gt;Node2 -->
<g id="edge1" class="edge">
<title>Node1&#45;&gt;Node2</title>
<path fill="none" stroke="midnightblue" d="M420,-324.4C420,-316.64 420,-306.81 420,-297.86"/>
<polygon fill="midnightblue" stroke="midnightblue" points="423.5,-297.58 420,-287.58 416.5,-297.58 423.5,-297.58"/>
</g>
<!-- Node3 -->
<g id="node3" class="node">
<title>Node3</title>
<g id="a_node3"><a xlink:title=" ">
<polygon fill="none" stroke="#bfbfbf" points="552,-62 552,-81 604,-81 604,-62 552,-62"/>
<text text-anchor="middle" x="578" y="-69" font-family="Helvetica,sans-Serif" font-size="10.00">memory</text>
</a>
</g>
</g>
<!-- Node2&#45;&gt;Node3 -->
<g id="edge2" class="edge">
<title>Node2&#45;&gt;Node3</title>
<path fill="none" stroke="midnightblue" d="M503.14,-257.47C524.29,-249.99 544.96,-238.54 559,-221 589.24,-183.21 585.54,-121.82 581.28,-91.17"/>
<polygon fill="midnightblue" stroke="midnightblue" points="584.69,-90.37 579.68,-81.03 577.78,-91.45 584.69,-90.37"/>
</g>
<!-- Node4 -->
<g id="node4" class="node">
<title>Node4</title>
<g id="a_node4"><a xlink:title=" ">
<polygon fill="none" stroke="#bfbfbf" points="204.5,-129 204.5,-148 245.5,-148 245.5,-129 204.5,-129"/>
<text text-anchor="middle" x="225" y="-136" font-family="Helvetica,sans-Serif" font-size="10.00">string</text>
</a>
</g>
</g>
<!-- Node2&#45;&gt;Node4 -->
<g id="edge3" class="edge">
<title>Node2&#45;&gt;Node4</title>
<path fill="none" stroke="midnightblue" d="M336.39,-258.97C309.81,-251.55 281.91,-239.76 261,-221 242.51,-204.41 233.05,-176.57 228.57,-158.11"/>
<polygon fill="midnightblue" stroke="midnightblue" points="231.97,-157.29 226.43,-148.26 225.13,-158.77 231.97,-157.29"/>
</g>
<!-- Node5 -->
<g id="node5" class="node">
<title>Node5</title>
<g id="a_node5"><a xlink:title=" ">
<polygon fill="none" stroke="#bfbfbf" points="440,-196 440,-215 550,-215 550,-196 440,-196"/>
<text text-anchor="middle" x="495" y="-203" font-family="Helvetica,sans-Serif" font-size="10.00">yarp/dev/PolyDriver.h</text>
</a>
</g>
</g>
<!-- Node2&#45;&gt;Node5 -->
<g id="edge4" class="edge">
<title>Node2&#45;&gt;Node5</title>
<path fill="none" stroke="midnightblue" d="M436.27,-257.4C448.32,-246.96 464.71,-232.75 477.12,-222"/>
<polygon fill="midnightblue" stroke="midnightblue" points="479.7,-224.39 484.97,-215.19 475.12,-219.1 479.7,-224.39"/>
</g>
<!-- Node6 -->
<g id="node6" class="node">
<title>Node6</title>
<g id="a_node6"><a xlink:href="IParametersHandler_8h.html" target="_top" xlink:title=" ">
<polygon fill="none" stroke="black" points="270,-190.5 270,-220.5 422,-220.5 422,-190.5 270,-190.5"/>
<text text-anchor="start" x="278" y="-208.5" font-family="Helvetica,sans-Serif" font-size="10.00">BipedalLocomotion/Parameters</text>
<text text-anchor="middle" x="346" y="-197.5" font-family="Helvetica,sans-Serif" font-size="10.00">Handler/IParametersHandler.h</text>
</a>
</g>
</g>
<!-- Node2&#45;&gt;Node6 -->
<g id="edge5" class="edge">
<title>Node2&#45;&gt;Node6</title>
<path fill="none" stroke="midnightblue" d="M403.94,-257.4C393.96,-248.62 380.93,-237.18 369.76,-227.37"/>
<polygon fill="midnightblue" stroke="midnightblue" points="371.85,-224.55 362.03,-220.58 367.23,-229.81 371.85,-224.55"/>
</g>
<!-- Node6&#45;&gt;Node3 -->
<g id="edge6" class="edge">
<title>Node6&#45;&gt;Node3</title>
<path fill="none" stroke="midnightblue" d="M378.84,-190.32C399.1,-181.04 425.27,-168.05 447,-154 465.3,-142.17 466.9,-135.14 485,-123 506.28,-108.73 531.97,-95.02 550.95,-85.5"/>
<polygon fill="midnightblue" stroke="midnightblue" points="552.53,-88.62 559.94,-81.05 549.43,-82.35 552.53,-88.62"/>
</g>
<!-- Node6&#45;&gt;Node4 -->
<g id="edge7" class="edge">
<title>Node6&#45;&gt;Node4</title>
<path fill="none" stroke="midnightblue" d="M319.74,-190.4C298.98,-179.24 270.2,-163.78 249.82,-152.83"/>
<polygon fill="midnightblue" stroke="midnightblue" points="251.3,-149.66 240.84,-148.01 247.99,-155.82 251.3,-149.66"/>
</g>
<!-- Node7 -->
<g id="node7" class="node">
<title>Node7</title>
<g id="a_node7"><a xlink:title=" ">
<polygon fill="none" stroke="#bfbfbf" points="494,-129 494,-148 538,-148 538,-129 494,-129"/>
<text text-anchor="middle" x="516" y="-136" font-family="Helvetica,sans-Serif" font-size="10.00">vector</text>
</a>
</g>
</g>
<!-- Node6&#45;&gt;Node7 -->
<g id="edge8" class="edge">
<title>Node6&#45;&gt;Node7</title>
<path fill="none" stroke="midnightblue" d="M383.92,-190.47C410.8,-180.46 447.69,-166.59 480,-154 481.84,-153.28 483.72,-152.54 485.62,-151.79"/>
<polygon fill="midnightblue" stroke="midnightblue" points="487.1,-154.97 495.09,-148.01 484.51,-148.47 487.1,-154.97"/>
</g>
<!-- Node8 -->
<g id="node8" class="node">
<title>Node8</title>
<g id="a_node8"><a xlink:href="Vector_8h_source.html" target="_top" xlink:title=" ">
<polygon fill="none" stroke="black" points="302,-123.5 302,-153.5 438,-153.5 438,-123.5 302,-123.5"/>
<text text-anchor="start" x="310" y="-141.5" font-family="Helvetica,sans-Serif" font-size="10.00">BipedalLocomotion/Generic</text>
<text text-anchor="middle" x="370" y="-130.5" font-family="Helvetica,sans-Serif" font-size="10.00">Container/Vector.h</text>
</a>
</g>
</g>
<!-- Node6&#45;&gt;Node8 -->
<g id="edge9" class="edge">
<title>Node6&#45;&gt;Node8</title>
<path fill="none" stroke="midnightblue" d="M351.21,-190.4C354.16,-182.39 357.94,-172.16 361.33,-162.98"/>
<polygon fill="midnightblue" stroke="midnightblue" points="364.62,-164.17 364.8,-153.58 358.06,-161.75 364.62,-164.17"/>
</g>
<!-- Node10 -->
<g id="node10" class="node">
<title>Node10</title>
<g id="a_node10"><a xlink:href="TemplateHelpers_8h_source.html" target="_top" xlink:title=" ">
<polygon fill="none" stroke="black" points="41.5,-56.5 41.5,-86.5 184.5,-86.5 184.5,-56.5 41.5,-56.5"/>
<text text-anchor="start" x="49.5" y="-74.5" font-family="Helvetica,sans-Serif" font-size="10.00">BipedalLocomotion/Generic</text>
<text text-anchor="middle" x="113" y="-63.5" font-family="Helvetica,sans-Serif" font-size="10.00">Container/TemplateHelpers.h</text>
</a>
</g>
</g>
<!-- Node6&#45;&gt;Node10 -->
<g id="edge19" class="edge">
<title>Node6&#45;&gt;Node10</title>
<path fill="none" stroke="midnightblue" d="M330.83,-190.33C307.2,-168.34 263.43,-128.01 255,-123 231.17,-108.84 202.74,-97.76 177.61,-89.62"/>
<polygon fill="midnightblue" stroke="midnightblue" points="178.38,-86.19 167.79,-86.54 176.28,-92.87 178.38,-86.19"/>
</g>
<!-- Node8&#45;&gt;Node3 -->
<g id="edge18" class="edge">
<title>Node8&#45;&gt;Node3</title>
<path fill="none" stroke="midnightblue" d="M423.86,-123.4C458.25,-114 503.6,-100.87 543,-87 544.91,-86.33 546.86,-85.61 548.82,-84.86"/>
<polygon fill="midnightblue" stroke="midnightblue" points="550.52,-87.95 558.52,-81.01 547.94,-81.45 550.52,-87.95"/>
</g>
<!-- Node9 -->
<g id="node9" class="node">
<title>Node9</title>
<g id="a_node9"><a xlink:title=" ">
<polygon fill="none" stroke="#bfbfbf" points="203,-62 203,-81 317,-81 317,-62 203,-62"/>
<text text-anchor="middle" x="260" y="-69" font-family="Helvetica,sans-Serif" font-size="10.00">iDynTree/Core/Span.h</text>
</a>
</g>
</g>
<!-- Node8&#45;&gt;Node9 -->
<g id="edge10" class="edge">
<title>Node8&#45;&gt;Node9</title>
<path fill="none" stroke="midnightblue" d="M346.13,-123.4C327.43,-112.34 301.56,-97.06 283.07,-86.13"/>
<polygon fill="midnightblue" stroke="midnightblue" points="284.79,-83.08 274.4,-81.01 281.23,-89.11 284.79,-83.08"/>
</g>
<!-- Node8&#45;&gt;Node10 -->
<g id="edge11" class="edge">
<title>Node8&#45;&gt;Node10</title>
<path fill="none" stroke="midnightblue" d="M314.55,-123.48C274.66,-113.39 220.71,-99.74 178.66,-89.11"/>
<polygon fill="midnightblue" stroke="midnightblue" points="179.35,-85.67 168.79,-86.61 177.63,-92.46 179.35,-85.67"/>
</g>
<!-- Node14 -->
<g id="node14" class="node">
<title>Node14</title>
<g id="a_node14"><a xlink:title=" ">
<polygon fill="none" stroke="#bfbfbf" points="335.5,-62 335.5,-81 394.5,-81 394.5,-62 335.5,-62"/>
<text text-anchor="middle" x="365" y="-69" font-family="Helvetica,sans-Serif" font-size="10.00">functional</text>
</a>
</g>
</g>
<!-- Node8&#45;&gt;Node14 -->
<g id="edge15" class="edge">
<title>Node8&#45;&gt;Node14</title>
<path fill="none" stroke="midnightblue" d="M368.92,-123.4C368.19,-113.96 367.23,-101.45 366.44,-91.19"/>
<polygon fill="midnightblue" stroke="midnightblue" points="369.93,-90.9 365.67,-81.19 362.95,-91.43 369.93,-90.9"/>
</g>
<!-- Node15 -->
<g id="node15" class="node">
<title>Node15</title>
<g id="a_node15"><a xlink:title=" ">
<polygon fill="none" stroke="#bfbfbf" points="412.5,-62 412.5,-81 461.5,-81 461.5,-62 412.5,-62"/>
<text text-anchor="middle" x="437" y="-69" font-family="Helvetica,sans-Serif" font-size="10.00">cassert</text>
</a>
</g>
</g>
<!-- Node8&#45;&gt;Node15 -->
<g id="edge16" class="edge">
<title>Node8&#45;&gt;Node15</title>
<path fill="none" stroke="midnightblue" d="M384.54,-123.4C395.19,-113.06 409.66,-99.02 420.7,-88.31"/>
<polygon fill="midnightblue" stroke="midnightblue" points="423.3,-90.67 428.04,-81.19 418.42,-85.65 423.3,-90.67"/>
</g>
<!-- Node16 -->
<g id="node16" class="node">
<title>Node16</title>
<g id="a_node16"><a xlink:title=" ">
<polygon fill="none" stroke="#bfbfbf" points="480,-62 480,-81 534,-81 534,-62 480,-62"/>
<text text-anchor="middle" x="507" y="-69" font-family="Helvetica,sans-Serif" font-size="10.00">iostream</text>
</a>
</g>
</g>
<!-- Node8&#45;&gt;Node16 -->
<g id="edge17" class="edge">
<title>Node8&#45;&gt;Node16</title>
<path fill="none" stroke="midnightblue" d="M399.73,-123.4C423.55,-112.09 456.71,-96.36 479.83,-85.39"/>
<polygon fill="midnightblue" stroke="midnightblue" points="481.54,-88.46 489.07,-81.01 478.53,-82.13 481.54,-88.46"/>
</g>
<!-- Node11 -->
<g id="node11" class="node">
<title>Node11</title>
<g id="a_node11"><a xlink:title=" ">
<polygon fill="none" stroke="#bfbfbf" points="0,-0.5 0,-19.5 62,-19.5 62,-0.5 0,-0.5"/>
<text text-anchor="middle" x="31" y="-7.5" font-family="Helvetica,sans-Serif" font-size="10.00">type_traits</text>
</a>
</g>
</g>
<!-- Node10&#45;&gt;Node11 -->
<g id="edge12" class="edge">
<title>Node10&#45;&gt;Node11</title>
<path fill="none" stroke="midnightblue" d="M93.57,-56.4C80.79,-47.13 64.11,-35.03 51.19,-25.65"/>
<polygon fill="midnightblue" stroke="midnightblue" points="53.08,-22.7 42.93,-19.66 48.97,-28.36 53.08,-22.7"/>
</g>
<!-- Node12 -->
<g id="node12" class="node">
<title>Node12</title>
<g id="a_node12"><a xlink:title=" ">
<polygon fill="none" stroke="#bfbfbf" points="80,-0.5 80,-19.5 146,-19.5 146,-0.5 80,-0.5"/>
<text text-anchor="middle" x="113" y="-7.5" font-family="Helvetica,sans-Serif" font-size="10.00">string_view</text>
</a>
</g>
</g>
<!-- Node10&#45;&gt;Node12 -->
<g id="edge13" class="edge">
<title>Node10&#45;&gt;Node12</title>
<path fill="none" stroke="midnightblue" d="M113,-56.4C113,-48.47 113,-38.46 113,-29.86"/>
<polygon fill="midnightblue" stroke="midnightblue" points="116.5,-29.66 113,-19.66 109.5,-29.66 116.5,-29.66"/>
</g>
<!-- Node13 -->
<g id="node13" class="node">
<title>Node13</title>
<g id="a_node13"><a xlink:title=" ">
<polygon fill="none" stroke="#bfbfbf" points="164.5,-0.5 164.5,-19.5 229.5,-19.5 229.5,-0.5 164.5,-0.5"/>
<text text-anchor="middle" x="197" y="-7.5" font-family="Helvetica,sans-Serif" font-size="10.00">Eigen/Core</text>
</a>
</g>
</g>
<!-- Node10&#45;&gt;Node13 -->
<g id="edge14" class="edge">
<title>Node10&#45;&gt;Node13</title>
<path fill="none" stroke="midnightblue" d="M132.91,-56.4C145.99,-47.13 163.08,-35.03 176.32,-25.65"/>
<polygon fill="midnightblue" stroke="midnightblue" points="178.64,-28.29 184.78,-19.66 174.59,-22.58 178.64,-28.29"/>
</g>
</g>
</svg>
