<?xml version="1.0" encoding="UTF-8" standalone="no"?>
<!DOCTYPE svg PUBLIC "-//W3C//DTD SVG 1.1//EN"
 "http://www.w3.org/Graphics/SVG/1.1/DTD/svg11.dtd">
<!-- Generated by graphviz version 2.43.0 (0)
 -->
<!-- Title: RobotInterface/YarpImplementation/include/BipedalLocomotion/RobotInterface/YarpSensorBridge.h Pages: 1 -->
<svg width="1004pt" height="374pt"
 viewBox="0.00 0.00 1004.00 374.00" xmlns="http://www.w3.org/2000/svg" xmlns:xlink="http://www.w3.org/1999/xlink">
<g id="graph0" class="graph" transform="scale(1 1) rotate(0) translate(4 370)">
<title>RobotInterface/YarpImplementation/include/BipedalLocomotion/RobotInterface/YarpSensorBridge.h</title>
<!-- Node1 -->
<g id="node1" class="node">
<title>Node1</title>
<g id="a_node1"><a xlink:title=" ">
<polygon fill="#bfbfbf" stroke="black" points="580.5,-324.5 580.5,-365.5 753.5,-365.5 753.5,-324.5 580.5,-324.5"/>
<text text-anchor="start" x="588.5" y="-353.5" font-family="Helvetica,sans-Serif" font-size="10.00">RobotInterface/YarpImplementation</text>
<text text-anchor="start" x="588.5" y="-342.5" font-family="Helvetica,sans-Serif" font-size="10.00">/include/BipedalLocomotion</text>
<text text-anchor="middle" x="667" y="-331.5" font-family="Helvetica,sans-Serif" font-size="10.00">/RobotInterface/YarpSensorBridge.h</text>
</a>
</g>
</g>
<!-- Node2 -->
<g id="node2" class="node">
<title>Node2</title>
<g id="a_node2"><a xlink:title=" ">
<polygon fill="none" stroke="#bfbfbf" points="475.5,-62 475.5,-81 534.5,-81 534.5,-62 475.5,-62"/>
<text text-anchor="middle" x="505" y="-69" font-family="Helvetica,sans-Serif" font-size="10.00">functional</text>
</a>
</g>
</g>
<!-- Node1&#45;&gt;Node2 -->
<g id="edge1" class="edge">
<title>Node1&#45;&gt;Node2</title>
<path fill="none" stroke="midnightblue" d="M665.7,-324.45C662.92,-293.86 654.42,-233.67 629,-190 602.88,-145.13 554.5,-106.68 526.52,-86.86"/>
<polygon fill="midnightblue" stroke="midnightblue" points="528.42,-83.91 518.2,-81.09 524.43,-89.66 528.42,-83.91"/>
</g>
<!-- Node3 -->
<g id="node3" class="node">
<title>Node3</title>
<g id="a_node3"><a xlink:title=" ">
<polygon fill="none" stroke="#bfbfbf" points="554,-62 554,-81 606,-81 606,-62 554,-62"/>
<text text-anchor="middle" x="580" y="-69" font-family="Helvetica,sans-Serif" font-size="10.00">memory</text>
</a>
</g>
</g>
<!-- Node1&#45;&gt;Node3 -->
<g id="edge2" class="edge">
<title>Node1&#45;&gt;Node3</title>
<path fill="none" stroke="midnightblue" d="M669.84,-324.42C673.4,-294.55 677.36,-236.2 662,-190 648.42,-149.15 615.74,-109.84 595.98,-88.65"/>
<polygon fill="midnightblue" stroke="midnightblue" points="598.31,-86.03 588.87,-81.21 593.25,-90.86 598.31,-86.03"/>
</g>
<!-- Node4 -->
<g id="node4" class="node">
<title>Node4</title>
<g id="a_node4"><a xlink:title=" ">
<polygon fill="none" stroke="#bfbfbf" points="570,-196 570,-215 620,-215 620,-196 570,-196"/>
<text text-anchor="middle" x="595" y="-203" font-family="Helvetica,sans-Serif" font-size="10.00">optional</text>
</a>
</g>
</g>
<!-- Node1&#45;&gt;Node4 -->
<g id="edge3" class="edge">
<title>Node1&#45;&gt;Node4</title>
<path fill="none" stroke="midnightblue" d="M654.82,-324.28C648.4,-313.66 640.53,-300.25 634,-288 622.52,-266.45 610.58,-240.97 602.98,-224.31"/>
<polygon fill="midnightblue" stroke="midnightblue" points="606.17,-222.86 598.86,-215.19 599.79,-225.74 606.17,-222.86"/>
</g>
<!-- Node5 -->
<g id="node5" class="node">
<title>Node5</title>
<g id="a_node5"><a xlink:title=" ">
<polygon fill="none" stroke="#bfbfbf" points="714.5,-263 714.5,-282 841.5,-282 841.5,-263 714.5,-263"/>
<text text-anchor="middle" x="778" y="-270" font-family="Helvetica,sans-Serif" font-size="10.00">yarp/dev/PolyDriverList.h</text>
</a>
</g>
</g>
<!-- Node1&#45;&gt;Node5 -->
<g id="edge4" class="edge">
<title>Node1&#45;&gt;Node5</title>
<path fill="none" stroke="midnightblue" d="M697.92,-324.36C716.32,-312.67 739.24,-298.12 755.84,-287.57"/>
<polygon fill="midnightblue" stroke="midnightblue" points="757.78,-290.49 764.34,-282.17 754.03,-284.58 757.78,-290.49"/>
</g>
<!-- Node6 -->
<g id="node6" class="node">
<title>Node6</title>
<g id="a_node6"><a xlink:href="Advanceable_8h.html" target="_top" xlink:title=" ">
<polygon fill="none" stroke="black" points="860,-257.5 860,-287.5 996,-287.5 996,-257.5 860,-257.5"/>
<text text-anchor="start" x="868" y="-275.5" font-family="Helvetica,sans-Serif" font-size="10.00">BipedalLocomotion/System</text>
<text text-anchor="middle" x="928" y="-264.5" font-family="Helvetica,sans-Serif" font-size="10.00">/Advanceable.h</text>
</a>
</g>
</g>
<!-- Node1&#45;&gt;Node6 -->
<g id="edge5" class="edge">
<title>Node1&#45;&gt;Node6</title>
<path fill="none" stroke="midnightblue" d="M739.36,-324.46C779.1,-313.72 827.89,-300.54 865.9,-290.28"/>
<polygon fill="midnightblue" stroke="midnightblue" points="867.07,-293.58 875.81,-287.6 865.25,-286.83 867.07,-293.58"/>
</g>
<!-- Node7 -->
<g id="node7" class="node">
<title>Node7</title>
<g id="a_node7"><a xlink:href="ISensorBridge_8h.html" target="_top" xlink:title=" ">
<polygon fill="none" stroke="black" points="382.5,-257.5 382.5,-287.5 549.5,-287.5 549.5,-257.5 382.5,-257.5"/>
<text text-anchor="start" x="390.5" y="-275.5" font-family="Helvetica,sans-Serif" font-size="10.00">BipedalLocomotion/RobotInterface</text>
<text text-anchor="middle" x="466" y="-264.5" font-family="Helvetica,sans-Serif" font-size="10.00">/ISensorBridge.h</text>
</a>
</g>
</g>
<!-- Node1&#45;&gt;Node7 -->
<g id="edge6" class="edge">
<title>Node1&#45;&gt;Node7</title>
<path fill="none" stroke="midnightblue" d="M611.28,-324.46C581.32,-313.95 544.69,-301.1 515.71,-290.93"/>
<polygon fill="midnightblue" stroke="midnightblue" points="516.79,-287.6 506.19,-287.6 514.47,-294.21 516.79,-287.6"/>
</g>
<!-- Node7&#45;&gt;Node2 -->
<g id="edge7" class="edge">
<title>Node7&#45;&gt;Node2</title>
<path fill="none" stroke="midnightblue" d="M468.8,-257.19C475.72,-221.91 493.58,-130.78 501.32,-91.25"/>
<polygon fill="midnightblue" stroke="midnightblue" points="504.77,-91.85 503.26,-81.36 497.91,-90.5 504.77,-91.85"/>
</g>
<!-- Node7&#45;&gt;Node3 -->
<g id="edge8" class="edge">
<title>Node7&#45;&gt;Node3</title>
<path fill="none" stroke="midnightblue" d="M474.2,-257.19C494.58,-221.61 547.51,-129.22 569.83,-90.25"/>
<polygon fill="midnightblue" stroke="midnightblue" points="572.99,-91.78 574.92,-81.36 566.92,-88.3 572.99,-91.78"/>
</g>
<!-- Node7&#45;&gt;Node4 -->
<g id="edge9" class="edge">
<title>Node7&#45;&gt;Node4</title>
<path fill="none" stroke="midnightblue" d="M493.99,-257.4C516.33,-246.14 547.37,-230.5 569.13,-219.54"/>
<polygon fill="midnightblue" stroke="midnightblue" points="570.76,-222.63 578.12,-215.01 567.61,-216.38 570.76,-222.63"/>
</g>
<!-- Node8 -->
<g id="node8" class="node">
<title>Node8</title>
<g id="a_node8"><a xlink:title=" ">
<polygon fill="none" stroke="#bfbfbf" points="434.5,-129 434.5,-148 475.5,-148 475.5,-129 434.5,-129"/>
<text text-anchor="middle" x="455" y="-136" font-family="Helvetica,sans-Serif" font-size="10.00">string</text>
</a>
</g>
</g>
<!-- Node7&#45;&gt;Node8 -->
<g id="edge10" class="edge">
<title>Node7&#45;&gt;Node8</title>
<path fill="none" stroke="midnightblue" d="M464.82,-257.37C462.83,-233.5 458.81,-185.18 456.58,-158.41"/>
<polygon fill="midnightblue" stroke="midnightblue" points="460.03,-157.77 455.72,-148.1 453.06,-158.35 460.03,-157.77"/>
</g>
<!-- Node9 -->
<g id="node9" class="node">
<title>Node9</title>
<g id="a_node9"><a xlink:title=" ">
<polygon fill="none" stroke="#bfbfbf" points="263.5,-196 263.5,-215 346.5,-215 346.5,-196 263.5,-196"/>
<text text-anchor="middle" x="305" y="-203" font-family="Helvetica,sans-Serif" font-size="10.00">unordered_map</text>
</a>
</g>
</g>
<!-- Node7&#45;&gt;Node9 -->
<g id="edge11" class="edge">
<title>Node7&#45;&gt;Node9</title>
<path fill="none" stroke="midnightblue" d="M431.07,-257.4C402.57,-245.89 362.71,-229.8 335.48,-218.81"/>
<polygon fill="midnightblue" stroke="midnightblue" points="336.65,-215.51 326.07,-215.01 334.03,-222 336.65,-215.51"/>
</g>
<!-- Node10 -->
<g id="node10" class="node">
<title>Node10</title>
<g id="a_node10"><a xlink:title=" ">
<polygon fill="none" stroke="#bfbfbf" points="57,-129 57,-148 101,-148 101,-129 57,-129"/>
<text text-anchor="middle" x="79" y="-136" font-family="Helvetica,sans-Serif" font-size="10.00">vector</text>
</a>
</g>
</g>
<!-- Node7&#45;&gt;Node10 -->
<g id="edge12" class="edge">
<title>Node7&#45;&gt;Node10</title>
<path fill="none" stroke="midnightblue" d="M382.28,-272.35C282.18,-271.41 123.23,-263.08 84,-221 68.48,-204.35 70.46,-176.52 74.1,-158.09"/>
<polygon fill="midnightblue" stroke="midnightblue" points="77.53,-158.77 76.37,-148.24 70.71,-157.2 77.53,-158.77"/>
</g>
<!-- Node11 -->
<g id="node11" class="node">
<title>Node11</title>
<g id="a_node11"><a xlink:title=" ">
<polygon fill="none" stroke="#bfbfbf" points="364.5,-196 364.5,-215 437.5,-215 437.5,-196 364.5,-196"/>
<text text-anchor="middle" x="401" y="-203" font-family="Helvetica,sans-Serif" font-size="10.00">Eigen/Dense</text>
</a>
</g>
</g>
<!-- Node7&#45;&gt;Node11 -->
<g id="edge13" class="edge">
<title>Node7&#45;&gt;Node11</title>
<path fill="none" stroke="midnightblue" d="M451.9,-257.4C441.56,-247.06 427.52,-233.02 416.81,-222.31"/>
<polygon fill="midnightblue" stroke="midnightblue" points="419.24,-219.79 409.69,-215.19 414.29,-224.74 419.24,-219.79"/>
</g>
<!-- Node12 -->
<g id="node12" class="node">
<title>Node12</title>
<g id="a_node12"><a xlink:href="IParametersHandler_8h.html" target="_top" xlink:title=" ">
<polygon fill="none" stroke="black" points="93,-190.5 93,-220.5 245,-220.5 245,-190.5 93,-190.5"/>
<text text-anchor="start" x="101" y="-208.5" font-family="Helvetica,sans-Serif" font-size="10.00">BipedalLocomotion/Parameters</text>
<text text-anchor="middle" x="169" y="-197.5" font-family="Helvetica,sans-Serif" font-size="10.00">Handler/IParametersHandler.h</text>
</a>
</g>
</g>
<!-- Node7&#45;&gt;Node12 -->
<g id="edge14" class="edge">
<title>Node7&#45;&gt;Node12</title>
<path fill="none" stroke="midnightblue" d="M401.92,-257.48C355.26,-247.26 291.94,-233.41 243.1,-222.72"/>
<polygon fill="midnightblue" stroke="midnightblue" points="243.74,-219.27 233.22,-220.55 242.24,-226.11 243.74,-219.27"/>
</g>
<!-- Node12&#45;&gt;Node3 -->
<g id="edge15" class="edge">
<title>Node12&#45;&gt;Node3</title>
<path fill="none" stroke="midnightblue" d="M245.18,-190.66C297.64,-180.41 362.19,-166.17 387,-154 406.57,-144.4 405.76,-133.24 425,-123 473.78,-97.04 491.88,-105.34 544,-87 545.91,-86.33 547.86,-85.62 549.83,-84.88"/>
<polygon fill="midnightblue" stroke="midnightblue" points="551.51,-87.98 559.56,-81.1 548.97,-81.46 551.51,-87.98"/>
</g>
<!-- Node12&#45;&gt;Node8 -->
<g id="edge16" class="edge">
<title>Node12&#45;&gt;Node8</title>
<path fill="none" stroke="midnightblue" d="M245.14,-190.86C306.61,-179.54 387.95,-163.76 420,-154 422.28,-153.3 424.62,-152.52 426.95,-151.67"/>
<polygon fill="midnightblue" stroke="midnightblue" points="428.31,-154.9 436.35,-148.01 425.77,-148.38 428.31,-154.9"/>
</g>
<!-- Node12&#45;&gt;Node10 -->
<g id="edge17" class="edge">
<title>Node12&#45;&gt;Node10</title>
<path fill="none" stroke="midnightblue" d="M149.47,-190.4C134.52,-179.6 113.97,-164.76 98.92,-153.89"/>
<polygon fill="midnightblue" stroke="midnightblue" points="100.93,-151.02 90.78,-148.01 96.84,-156.7 100.93,-151.02"/>
</g>
<!-- Node13 -->
<g id="node13" class="node">
<title>Node13</title>
<g id="a_node13"><a xlink:href="Vector_8h_source.html" target="_top" xlink:title=" ">
<polygon fill="none" stroke="black" points="242,-123.5 242,-153.5 378,-153.5 378,-123.5 242,-123.5"/>
<text text-anchor="start" x="250" y="-141.5" font-family="Helvetica,sans-Serif" font-size="10.00">BipedalLocomotion/Generic</text>
<text text-anchor="middle" x="310" y="-130.5" font-family="Helvetica,sans-Serif" font-size="10.00">Container/Vector.h</text>
</a>
</g>
</g>
<!-- Node12&#45;&gt;Node13 -->
<g id="edge18" class="edge">
<title>Node12&#45;&gt;Node13</title>
<path fill="none" stroke="midnightblue" d="M199.59,-190.4C220.29,-180.86 247.82,-168.16 270.22,-157.84"/>
<polygon fill="midnightblue" stroke="midnightblue" points="271.85,-160.94 279.46,-153.58 268.92,-154.58 271.85,-160.94"/>
</g>
<!-- Node15 -->
<g id="node15" class="node">
<title>Node15</title>
<g id="a_node15"><a xlink:href="TemplateHelpers_8h_source.html" target="_top" xlink:title=" ">
<polygon fill="none" stroke="black" points="41.5,-56.5 41.5,-86.5 184.5,-86.5 184.5,-56.5 41.5,-56.5"/>
<text text-anchor="start" x="49.5" y="-74.5" font-family="Helvetica,sans-Serif" font-size="10.00">BipedalLocomotion/Generic</text>
<text text-anchor="middle" x="113" y="-63.5" font-family="Helvetica,sans-Serif" font-size="10.00">Container/TemplateHelpers.h</text>
</a>
</g>
</g>
<!-- Node12&#45;&gt;Node15 -->
<g id="edge28" class="edge">
<title>Node12&#45;&gt;Node15</title>
<path fill="none" stroke="midnightblue" d="M163.01,-190.37C153.41,-167.75 134.49,-123.14 122.87,-95.76"/>
<polygon fill="midnightblue" stroke="midnightblue" points="126.08,-94.36 118.95,-86.52 119.63,-97.1 126.08,-94.36"/>
</g>
<!-- Node13&#45;&gt;Node2 -->
<g id="edge24" class="edge">
<title>Node13&#45;&gt;Node2</title>
<path fill="none" stroke="midnightblue" d="M355.23,-123.42C386.46,-113.56 428.89,-99.9 466,-87 468.25,-86.22 470.56,-85.4 472.88,-84.56"/>
<polygon fill="midnightblue" stroke="midnightblue" points="474.18,-87.82 482.37,-81.1 471.78,-81.24 474.18,-87.82"/>
</g>
<!-- Node13&#45;&gt;Node3 -->
<g id="edge27" class="edge">
<title>Node13&#45;&gt;Node3</title>
<path fill="none" stroke="midnightblue" d="M378.12,-124.14C435.7,-112.6 513.56,-96.34 544,-87 546.28,-86.3 548.62,-85.52 550.96,-84.68"/>
<polygon fill="midnightblue" stroke="midnightblue" points="552.31,-87.92 560.41,-81.09 549.82,-81.37 552.31,-87.92"/>
</g>
<!-- Node14 -->
<g id="node14" class="node">
<title>Node14</title>
<g id="a_node14"><a xlink:title=" ">
<polygon fill="none" stroke="#bfbfbf" points="203,-62 203,-81 317,-81 317,-62 203,-62"/>
<text text-anchor="middle" x="260" y="-69" font-family="Helvetica,sans-Serif" font-size="10.00">iDynTree/Core/Span.h</text>
</a>
</g>
</g>
<!-- Node13&#45;&gt;Node14 -->
<g id="edge19" class="edge">
<title>Node13&#45;&gt;Node14</title>
<path fill="none" stroke="midnightblue" d="M299.15,-123.4C291.43,-113.36 281.03,-99.84 272.89,-89.25"/>
<polygon fill="midnightblue" stroke="midnightblue" points="275.56,-86.99 266.69,-81.19 270.01,-91.25 275.56,-86.99"/>
</g>
<!-- Node13&#45;&gt;Node15 -->
<g id="edge20" class="edge">
<title>Node13&#45;&gt;Node15</title>
<path fill="none" stroke="midnightblue" d="M267.25,-123.4C237.31,-113.52 197.11,-100.25 165.26,-89.74"/>
<polygon fill="midnightblue" stroke="midnightblue" points="166.26,-86.39 155.66,-86.58 164.06,-93.03 166.26,-86.39"/>
</g>
<!-- Node19 -->
<g id="node19" class="node">
<title>Node19</title>
<g id="a_node19"><a xlink:title=" ">
<polygon fill="none" stroke="#bfbfbf" points="335.5,-62 335.5,-81 384.5,-81 384.5,-62 335.5,-62"/>
<text text-anchor="middle" x="360" y="-69" font-family="Helvetica,sans-Serif" font-size="10.00">cassert</text>
</a>
</g>
</g>
<!-- Node13&#45;&gt;Node19 -->
<g id="edge25" class="edge">
<title>Node13&#45;&gt;Node19</title>
<path fill="none" stroke="midnightblue" d="M320.85,-123.4C328.57,-113.36 338.97,-99.84 347.11,-89.25"/>
<polygon fill="midnightblue" stroke="midnightblue" points="349.99,-91.25 353.31,-81.19 344.44,-86.99 349.99,-91.25"/>
</g>
<!-- Node20 -->
<g id="node20" class="node">
<title>Node20</title>
<g id="a_node20"><a xlink:title=" ">
<polygon fill="none" stroke="#bfbfbf" points="403,-62 403,-81 457,-81 457,-62 403,-62"/>
<text text-anchor="middle" x="430" y="-69" font-family="Helvetica,sans-Serif" font-size="10.00">iostream</text>
</a>
</g>
</g>
<!-- Node13&#45;&gt;Node20 -->
<g id="edge26" class="edge">
<title>Node13&#45;&gt;Node20</title>
<path fill="none" stroke="midnightblue" d="M336.04,-123.4C356.63,-112.24 385.17,-96.78 405.38,-85.83"/>
<polygon fill="midnightblue" stroke="midnightblue" points="407.17,-88.85 414.29,-81.01 403.83,-82.69 407.17,-88.85"/>
</g>
<!-- Node16 -->
<g id="node16" class="node">
<title>Node16</title>
<g id="a_node16"><a xlink:title=" ">
<polygon fill="none" stroke="#bfbfbf" points="0,-0.5 0,-19.5 62,-19.5 62,-0.5 0,-0.5"/>
<text text-anchor="middle" x="31" y="-7.5" font-family="Helvetica,sans-Serif" font-size="10.00">type_traits</text>
</a>
</g>
</g>
<!-- Node15&#45;&gt;Node16 -->
<g id="edge21" class="edge">
<title>Node15&#45;&gt;Node16</title>
<path fill="none" stroke="midnightblue" d="M93.57,-56.4C80.79,-47.13 64.11,-35.03 51.19,-25.65"/>
<polygon fill="midnightblue" stroke="midnightblue" points="53.08,-22.7 42.93,-19.66 48.97,-28.36 53.08,-22.7"/>
</g>
<!-- Node17 -->
<g id="node17" class="node">
<title>Node17</title>
<g id="a_node17"><a xlink:title=" ">
<polygon fill="none" stroke="#bfbfbf" points="80,-0.5 80,-19.5 146,-19.5 146,-0.5 80,-0.5"/>
<text text-anchor="middle" x="113" y="-7.5" font-family="Helvetica,sans-Serif" font-size="10.00">string_view</text>
</a>
</g>
</g>
<!-- Node15&#45;&gt;Node17 -->
<g id="edge22" class="edge">
<title>Node15&#45;&gt;Node17</title>
<path fill="none" stroke="midnightblue" d="M113,-56.4C113,-48.47 113,-38.46 113,-29.86"/>
<polygon fill="midnightblue" stroke="midnightblue" points="116.5,-29.66 113,-19.66 109.5,-29.66 116.5,-29.66"/>
</g>
<!-- Node18 -->
<g id="node18" class="node">
<title>Node18</title>
<g id="a_node18"><a xlink:title=" ">
<polygon fill="none" stroke="#bfbfbf" points="164.5,-0.5 164.5,-19.5 229.5,-19.5 229.5,-0.5 164.5,-0.5"/>
<text text-anchor="middle" x="197" y="-7.5" font-family="Helvetica,sans-Serif" font-size="10.00">Eigen/Core</text>
</a>
</g>
</g>
<!-- Node15&#45;&gt;Node18 -->
<g id="edge23" class="edge">
<title>Node15&#45;&gt;Node18</title>
<path fill="none" stroke="midnightblue" d="M132.91,-56.4C145.99,-47.13 163.08,-35.03 176.32,-25.65"/>
<polygon fill="midnightblue" stroke="midnightblue" points="178.64,-28.29 184.78,-19.66 174.59,-22.58 178.64,-28.29"/>
</g>
</g>
</svg>
